<svg width="212" height="18" viewBox="0 0 212 18" fill="none" xmlns="http://www.w3.org/2000/svg">
<path d="M212 9.0179L197 0.357698L197 17.6782L212 9.0179ZM100.156 9.0179L100.154 10.5179L100.156 9.0179ZM44.2339 9.0179L44.2335 7.5179L44.2339 9.0179ZM156.078 9.0179L156.078 7.5179L156.078 9.0179ZM72.9229 9.0179L72.9254 10.5179L72.9229 9.0179ZM16.7331 9.0179L16.7348 7.5179L16.7331 9.0179ZM124.617 9.0179L124.623 7.51791L124.617 9.0179ZM156.078 10.5179C168.338 10.518 186.271 10.518 198.502 10.5179V7.51795C186.271 7.51798 168.338 7.51801 156.078 7.5179L156.078 10.5179ZM44.2343 10.5179C56.3621 10.5145 60.7914 10.5385 72.9254 10.5179L72.9203 7.5179C60.7863 7.53847 56.375 7.51449 44.2335 7.5179L44.2343 10.5179ZM72.9254 10.5179C84.7705 10.4978 88.3068 10.5038 100.154 10.5179L100.158 7.5179C88.3096 7.50377 84.7699 7.49781 72.9203 7.5179L72.9254 10.5179ZM1 11C1.69207 12.3308 1.69125 12.3312 1.69046 12.3316C1.69021 12.3318 1.68943 12.3322 1.68894 12.3324C1.68795 12.3329 1.68703 12.3334 1.68616 12.3339C1.68443 12.3347 1.68294 12.3355 1.68168 12.3361C1.67917 12.3374 1.67762 12.3382 1.67704 12.3385C1.67589 12.3391 1.67863 12.3377 1.6854 12.3345C1.69894 12.3281 1.72861 12.3144 1.77547 12.2945C1.86918 12.2546 2.03169 12.1896 2.27146 12.1075C2.75106 11.9432 3.53953 11.7106 4.70435 11.4739C7.03511 11.0002 10.8658 10.5113 16.7314 10.5179L16.7348 7.5179C10.7045 7.51112 6.66864 8.01331 4.10683 8.53399C2.82535 8.79444 1.91103 9.05986 1.29941 9.26934C0.993568 9.37409 0.763357 9.46487 0.600758 9.53406C0.51946 9.56866 0.455073 9.59785 0.406598 9.6207C0.38236 9.63212 0.362103 9.64195 0.3457 9.65007C0.337498 9.65413 0.330261 9.65777 0.323972 9.66096C0.320827 9.66256 0.31792 9.66404 0.315248 9.66541C0.313912 9.6661 0.312634 9.66676 0.311416 9.66739C0.310806 9.6677 0.309936 9.66815 0.309631 9.66831C0.308776 9.66876 0.307935 9.66919 1 11ZM16.7314 10.5179C28.8188 10.5315 32.1497 10.5213 44.2343 10.5179L44.2335 7.5179C32.1456 7.52128 28.8194 7.53147 16.7348 7.5179L16.7314 10.5179ZM100.154 10.5179C111.835 10.5318 112.954 10.4714 124.611 10.5179L124.623 7.51791C112.978 7.47145 111.786 7.53176 100.158 7.5179L100.154 10.5179ZM124.611 10.5179C136.94 10.5671 143.759 10.5178 156.078 10.5179L156.078 7.5179C143.739 7.51778 136.945 7.56706 124.623 7.51791L124.611 10.5179Z" fill="url(#paint0_linear_1558_338)"/>
<defs>
<linearGradient id="paint0_linear_1558_338" x1="121.462" y1="9" x2="121.462" y2="10.7493" gradientUnits="userSpaceOnUse">
<stop stop-color="#9FF8BE"/>
<stop offset="1" stop-color="#F8EDBA"/>
</linearGradient>
</defs>
</svg>
