<svg width="487" height="369" viewBox="0 0 487 369" fill="none" xmlns="http://www.w3.org/2000/svg">
<ellipse cx="268" cy="218.5" rx="79" ry="79.5" fill="url(#paint0_linear_1558_302)"/>
<path d="M267.906 134.609C314.489 134.609 352.391 172.511 352.391 219.094C352.391 265.677 314.489 303.578 267.906 303.578C221.323 303.578 183.422 265.677 183.422 219.094C183.422 172.511 221.323 134.609 267.906 134.609ZM271.666 159.438H264.135V142.287L261.981 142.452C252.271 143.198 243.087 145.762 234.712 149.787L232.767 150.722L233.847 152.591L238.456 160.567L231.935 164.332L227.308 156.315L226.226 154.44L224.441 155.667C216.618 161.047 209.842 167.823 204.468 175.642L203.242 177.425L205.116 178.506L213.133 183.133L209.368 189.654L201.392 185.046L199.524 183.967L198.589 185.909C194.557 194.28 191.999 203.471 191.253 213.181L191.088 215.334H208.25V222.865H191.104L191.271 225.019C192.017 234.729 194.581 243.913 198.605 252.288L199.54 254.233L201.408 253.153L209.386 248.543L213.15 255.064L205.134 259.692L203.259 260.774L204.485 262.559C209.865 270.382 216.641 277.158 224.459 282.532L226.243 283.758L227.324 281.884L231.951 273.866L238.473 277.631L233.864 285.608L232.785 287.476L234.728 288.411C243.099 292.443 252.289 295.001 261.999 295.747L264.152 295.912V278.75H271.684V295.912L273.837 295.747C283.548 295.001 292.731 292.437 301.106 288.412L303.051 287.478L301.972 285.608L297.361 277.631L303.883 273.866L308.511 281.884L309.593 283.758L311.376 282.532C319.194 277.158 325.971 270.382 331.346 262.545L332.568 260.762L330.696 259.682L322.679 255.054L326.443 248.532L334.421 253.142L336.288 254.221L337.224 252.278C341.255 243.907 343.814 234.717 344.56 225.007L344.725 222.854H327.562V215.322H344.713L344.548 213.169C343.802 203.458 341.238 194.274 337.213 185.899L336.278 183.954L334.409 185.034L326.432 189.644L322.667 183.122L330.685 178.495L332.56 177.413L331.333 175.629C325.953 167.805 319.177 161.029 311.358 155.655L309.575 154.43L308.494 156.304L303.866 164.32L297.345 160.556L301.954 152.579L303.033 150.712L301.091 149.776C292.72 145.745 283.529 143.186 273.819 142.44L271.666 142.275V159.438Z" fill="black" stroke="white" stroke-width="4"/>
<path d="M271.672 174.969V216.963L272.643 217.546L296.953 232.13L293.078 238.588L265.966 222.32C264.837 221.643 264.141 220.419 264.141 219.094V174.969H271.672Z" fill="black" stroke="white" stroke-width="4"/>
<path d="M398.833 8.16016C400.109 7.52227 401.635 7.65752 402.77 8.51465L402.775 8.51855L471.957 60.4092L471.96 60.4121C472.879 61.099 473.434 62.1697 473.464 63.3242C473.494 64.472 472.995 65.572 472.112 66.3135L402.925 123.97L402.923 123.972C401.803 124.908 400.237 125.107 398.924 124.487L398.918 124.484L398.676 124.36C397.495 123.701 396.75 122.447 396.75 121.078V90.25H267.906C196.859 90.25 139.063 148.047 139.062 219.094C139.062 289.753 196.226 347.3 266.736 347.93V351.694L265.906 351.703V355.453C191.632 354.38 131.531 293.618 131.531 219.094C131.531 143.902 192.714 82.7188 267.906 82.7188H400.516C402.599 82.7188 404.281 84.4007 404.281 86.4844V113.039L407.562 110.306L461.695 65.1953L463.638 63.5762L461.614 62.0586L407.481 21.4629L404.281 19.0635V40.3594C404.281 42.4432 402.599 44.125 400.516 44.125H67.6562V36.5938H396.75V11.5312C396.75 10.1055 397.554 8.80224 398.833 8.16016Z" fill="black" stroke="white" stroke-width="4"/>
<path d="M334.846 337.932C332.585 339.205 330.261 340.43 327.9 341.592L324.671 334.784C326.838 333.713 328.971 332.588 331.049 331.419L334.846 337.932Z" fill="black" stroke="white" stroke-width="4"/>
<path d="M354.374 324.557C352.354 326.213 350.276 327.821 348.168 329.361L343.814 323.209C345.75 321.794 347.657 320.321 349.512 318.805L354.374 324.557Z" fill="black" stroke="white" stroke-width="4"/>
<path d="M401.892 244.65C401.402 247.227 400.839 249.796 400.203 252.325L392.925 250.38C393.503 248.061 394.017 245.712 394.467 243.354L401.892 244.65Z" fill="black" stroke="white" stroke-width="4"/>
<path d="M404.265 221.094C404.226 223.702 404.113 226.326 403.926 228.932L396.425 228.283C396.594 225.892 396.697 223.488 396.733 221.094H404.265Z" fill="black" stroke="white" stroke-width="4"/>
<path d="M385.169 288.769C383.822 291.039 382.408 293.261 380.949 295.414L374.776 291.089C376.109 289.121 377.401 287.09 378.637 285.017L385.169 288.769Z" fill="black" stroke="white" stroke-width="4"/>
<path d="M395.454 267.447C394.528 269.886 393.522 272.316 392.453 274.709L385.624 271.539C386.604 269.342 387.526 267.111 388.378 264.871L395.454 267.447Z" fill="black" stroke="white" stroke-width="4"/>
<path d="M290.365 353.627C287.809 354.051 285.205 354.406 282.585 354.688L281.884 347.184C284.287 346.922 286.675 346.597 289.021 346.21L290.365 353.627Z" fill="black" stroke="white" stroke-width="4"/>
<path d="M313.292 347.737C310.826 348.607 308.324 349.407 305.817 350.133L303.833 342.865C306.128 342.198 308.42 341.464 310.688 340.667L313.292 347.737Z" fill="black" stroke="white" stroke-width="4"/>
<path d="M371.318 308.004C369.603 309.995 367.829 311.938 366.022 313.812L360.683 308.494C362.34 306.775 363.963 304.995 365.537 303.171L371.318 308.004Z" fill="black" stroke="white" stroke-width="4"/>
<path d="M31.0625 36.5938V44.125H23.5312V36.5938H31.0625Z" fill="black" stroke="white" stroke-width="4"/>
<path d="M54.125 36.5938V44.125H46.5938V36.5938H54.125Z" fill="black" stroke="white" stroke-width="4"/>
<defs>
<linearGradient id="paint0_linear_1558_302" x1="279.204" y1="139" x2="279.204" y2="278.068" gradientUnits="userSpaceOnUse">
<stop stop-color="#9FF8BE"/>
<stop offset="1" stop-color="#F8EDBA"/>
</linearGradient>
</defs>
</svg>
