<svg width="650" height="457" viewBox="0 0 650 457" fill="none" xmlns="http://www.w3.org/2000/svg">
<path d="M0.383769 16.08C0.383769 7.38312 6.90944 0.383769 14.8989 0.383769H503.912H568.967C576.956 0.383769 583.482 7.38312 583.482 16.08V72.6817C583.482 81.7463 590.297 89.1455 598.765 89.1455H636.608C640.555 89.1455 643.726 91.4072 645.927 94.8056C648.13 98.2078 649.335 102.716 649.335 107.093V114.811V149.223V442.244C649.335 446.58 647.71 449.929 645.103 452.199C642.489 454.474 638.86 455.689 634.82 455.689H503.912H14.8989C6.90944 455.689 0.383769 448.689 0.383769 439.992V16.08Z" stroke="white" stroke-width="0.767537"/>
</svg>
