<svg width="38" height="44" viewBox="0 0 38 44" fill="none" xmlns="http://www.w3.org/2000/svg">
<path d="M33.602 21.25H32.9519L32.8596 21.8935C32.4662 24.6355 30.0993 26.75 27.2513 26.75H10.7513C7.90336 26.75 5.53637 24.6355 5.14304 21.8935L5.05073 21.25H4.40064H3.41797C2.31602 21.25 1.41797 20.352 1.41797 19.25V13.75C1.41797 12.648 2.31602 11.75 3.41797 11.75H4.33464H5.08464V11V10.0833C5.08464 6.95921 7.62718 4.41667 10.7513 4.41667H18.0846H18.8346V3.66667V0.916667C18.8346 0.824881 18.9095 0.75 19.0013 0.75C19.0931 0.75 19.168 0.824879 19.168 0.916667V3.66667V4.41667H19.918H27.2513C30.3754 4.41667 32.918 6.95921 32.918 10.0833V11V11.75H33.668H34.5846C35.6866 11.75 36.5846 12.648 36.5846 13.75V19.25C36.5846 20.352 35.6866 21.25 34.5846 21.25H33.602ZM4.33464 20.9167H5.08464V20.1667V12.8333V12.0833H4.33464H3.41797C2.49678 12.0833 1.7513 12.8326 1.7513 13.75V19.25C1.7513 20.1674 2.49678 20.9167 3.41797 20.9167H4.33464ZM33.668 12.0833H32.918V12.8333V20.1667V20.9167H33.668H34.5846C35.5058 20.9167 36.2513 20.1674 36.2513 19.25V13.75C36.2513 12.8326 35.5058 12.0833 34.5846 12.0833H33.668ZM34.7513 41.25V43.0833C34.7513 43.1751 34.6764 43.25 34.5846 43.25C34.4929 43.25 34.418 43.1751 34.418 43.0833V41.25C34.418 36.2873 30.3807 32.25 25.418 32.25H12.5846C7.62192 32.25 3.58464 36.2873 3.58464 41.25V43.0833C3.58464 43.1751 3.50976 43.25 3.41797 43.25C3.32618 43.25 3.2513 43.1751 3.2513 43.0833V41.25C3.2513 36.1055 7.43844 31.9167 12.5846 31.9167H25.418C30.5642 31.9167 34.7513 36.1055 34.7513 41.25ZM32.5846 21.0833V10.0833C32.5846 7.14076 30.1917 4.75 27.2513 4.75H10.7513C7.81095 4.75 5.41797 7.14076 5.41797 10.0833V21.0833C5.41797 24.0259 7.81095 26.4167 10.7513 26.4167H27.2513C30.1917 26.4167 32.5846 24.0259 32.5846 21.0833ZM16.418 16.5C16.418 18.108 15.1093 19.4167 13.5013 19.4167C11.8934 19.4167 10.5846 18.108 10.5846 16.5C10.5846 14.892 11.8934 13.5833 13.5013 13.5833C15.1093 13.5833 16.418 14.892 16.418 16.5ZM16.0846 16.5C16.0846 15.0733 14.9252 13.9167 13.5013 13.9167C12.0774 13.9167 10.918 15.0733 10.918 16.5C10.918 17.9267 12.0774 19.0833 13.5013 19.0833C14.9252 19.0833 16.0846 17.9267 16.0846 16.5ZM27.418 16.5C27.418 18.108 26.1093 19.4167 24.5013 19.4167C22.8934 19.4167 21.5846 18.108 21.5846 16.5C21.5846 14.892 22.8934 13.5833 24.5013 13.5833C26.1093 13.5833 27.418 14.892 27.418 16.5ZM27.0846 16.5C27.0846 15.0733 25.9252 13.9167 24.5013 13.9167C23.0774 13.9167 21.918 15.0733 21.918 16.5C21.918 17.9267 23.0774 19.0833 24.5013 19.0833C25.9252 19.0833 27.0846 17.9267 27.0846 16.5Z" stroke="url(#paint0_linear_3284_1059)" stroke-width="1.5"/>
<defs>
<linearGradient id="paint0_linear_3284_1059" x1="19.0013" y1="0" x2="19.0013" y2="44" gradientUnits="userSpaceOnUse">
<stop stop-color="white"/>
<stop offset="1" stop-color="#393939"/>
</linearGradient>
</defs>
</svg>
