<svg width="44" height="44" viewBox="0 0 44 44" fill="none" xmlns="http://www.w3.org/2000/svg">
<path d="M37.1565 35.9473L36.7103 36.4741L37.1985 36.9623L43.2006 42.9647C43.2667 43.0308 43.2652 43.1361 43.2038 43.1989C43.1691 43.2324 43.1265 43.2482 43.0838 43.2482C43.0371 43.2482 42.9966 43.2316 42.9652 43.2002L36.963 37.1978L36.4746 36.7094L35.9477 37.1561C34.1619 38.6702 31.8537 39.5833 29.3342 39.5833C23.6822 39.5833 19.0846 34.9856 19.0846 29.3333C19.0846 23.681 23.6822 19.0833 29.3342 19.0833C34.9863 19.0833 39.5839 23.681 39.5839 29.3333C39.5839 31.8509 38.6708 34.1594 37.1565 35.9473ZM20.916 1.99283V1.36428L20.2972 1.25439C19.6663 1.14235 19.0174 1.08333 18.3603 1.08333H8.24974C4.29728 1.08333 1.08328 4.29748 1.08328 8.25V35.75C1.08328 39.7025 4.29728 42.9167 8.24974 42.9167H21.0827C21.1744 42.9167 21.2493 42.9915 21.2493 43.0833C21.2493 43.1751 21.1744 43.25 21.0827 43.25H8.24974C4.11562 43.25 0.75 39.8843 0.75 35.75V8.25C0.75 4.11558 4.11573 0.75 8.24791 0.75H18.3584C21.342 0.75 24.1432 1.91028 26.2538 4.02099L32.6428 10.4102L32.6431 10.4105C34.0598 11.8255 35.0699 13.5998 35.5666 15.541C35.5803 15.5962 35.5672 15.6484 35.5384 15.6854L36.1302 16.1462L35.5384 15.6854C35.5068 15.726 35.4578 15.75 35.4061 15.75H24.7492C22.6372 15.75 20.916 14.0288 20.916 11.9167V1.99283ZM22.269 1.80815L21.2493 1.4153V2.508V11.9167C21.2493 13.847 22.8189 15.4167 24.7492 15.4167H34.1521H35.2472L34.8514 14.3956C34.308 12.9937 33.4771 11.7136 32.4092 10.6457L26.0202 4.25651C24.9368 3.17307 23.6621 2.34491 22.269 1.80815ZM34.9532 27.3897C34.9984 27.4566 34.9894 27.5457 34.9311 27.6019L34.9305 27.6025L29.9752 32.3949L29.9751 32.3948L29.9699 32.4C29.4574 32.9054 28.7789 33.163 28.0931 33.163C27.407 33.163 26.7315 32.9088 26.2131 32.4023C26.2128 32.402 26.2126 32.4018 26.2123 32.4015L23.7139 29.9378L23.7135 29.9375C23.6483 29.8732 23.6466 29.7688 23.7125 29.7019C23.7764 29.637 23.8835 29.6371 23.9466 29.6995L23.9476 29.7005L26.4464 32.1645L26.4482 32.1664C27.3587 33.0579 28.8288 33.0537 29.7387 32.1601C29.7396 32.1592 29.7405 32.1583 29.7415 32.1574L34.6967 27.3651C34.6969 27.3649 34.6971 27.3647 34.6973 27.3645C34.7644 27.3003 34.8702 27.3037 34.9323 27.368L34.9532 27.3897ZM19.416 29.3333C19.416 34.802 23.8638 39.25 29.3324 39.25C34.801 39.25 39.2488 34.802 39.2488 29.3333C39.2488 23.8646 34.801 19.4167 29.3324 19.4167C23.8638 19.4167 19.416 23.8646 19.416 29.3333ZM17.4161 19.4167H8.24974C8.15799 19.4167 8.0831 19.3418 8.0831 19.25C8.0831 19.1582 8.158 19.0833 8.24974 19.0833H17.4161C17.5079 19.0833 17.5828 19.1582 17.5828 19.25C17.5828 19.3418 17.5079 19.4167 17.4161 19.4167ZM8.0831 26.5833C8.0831 26.4915 8.158 26.4167 8.24974 26.4167H13.7496C13.8413 26.4167 13.9162 26.4915 13.9162 26.5833C13.9162 26.6751 13.8413 26.75 13.7496 26.75H8.24974C8.158 26.75 8.0831 26.6751 8.0831 26.5833ZM8.0831 33.9167C8.0831 33.8249 8.15799 33.75 8.24974 33.75H14.6662C14.758 33.75 14.8328 33.8249 14.8328 33.9167C14.8328 34.0085 14.758 34.0833 14.6662 34.0833H8.24974C8.158 34.0833 8.0831 34.0085 8.0831 33.9167Z" stroke="url(#paint0_linear_3284_1054)" stroke-width="1.5"/>
<defs>
<linearGradient id="paint0_linear_3284_1054" x1="22" y1="0" x2="22" y2="44" gradientUnits="userSpaceOnUse">
<stop stop-color="white"/>
<stop offset="1" stop-color="#393939"/>
</linearGradient>
</defs>
</svg>
