<svg xmlns="http://www.w3.org/2000/svg" width="175" height="250" viewBox="0 0 217 309" fill="none">
<path d="M134.632 226.647C134.632 226.943 134.544 227.232 134.38 227.477C134.216 227.723 133.983 227.914 133.711 228.027C133.438 228.14 133.138 228.17 132.849 228.112C132.56 228.054 132.294 227.912 132.085 227.703C131.877 227.495 131.735 227.229 131.677 226.939C131.62 226.649 131.649 226.349 131.762 226.076C131.875 225.803 132.066 225.57 132.311 225.406C132.557 225.242 132.845 225.154 133.14 225.154C133.536 225.154 133.915 225.311 134.195 225.591C134.474 225.871 134.632 226.251 134.632 226.647Z" fill="black"/>
<path d="M133.165 228.439C132.811 228.439 132.465 228.334 132.17 228.137C131.876 227.94 131.647 227.661 131.511 227.333C131.376 227.006 131.34 226.645 131.409 226.298C131.478 225.95 131.649 225.631 131.899 225.38C132.15 225.13 132.468 224.959 132.816 224.89C133.163 224.821 133.523 224.856 133.85 224.992C134.177 225.127 134.456 225.357 134.653 225.652C134.85 225.946 134.955 226.293 134.955 226.647C134.955 227.123 134.766 227.578 134.431 227.915C134.095 228.251 133.64 228.439 133.165 228.439ZM133.165 225.453C132.929 225.453 132.698 225.523 132.502 225.654C132.306 225.785 132.153 225.972 132.062 226.19C131.972 226.408 131.949 226.649 131.995 226.88C132.041 227.112 132.154 227.325 132.321 227.492C132.488 227.659 132.701 227.773 132.932 227.819C133.164 227.865 133.403 227.841 133.622 227.751C133.84 227.661 134.026 227.508 134.157 227.311C134.288 227.115 134.358 226.884 134.358 226.647C134.358 226.33 134.232 226.027 134.009 225.802C133.785 225.578 133.481 225.453 133.165 225.453Z" fill="black"/>
<path d="M132.842 230.829C132.842 231.124 132.755 231.413 132.591 231.659C132.427 231.904 132.194 232.096 131.922 232.209C131.649 232.322 131.349 232.351 131.06 232.294C130.771 232.236 130.505 232.094 130.296 231.885C130.088 231.676 129.946 231.41 129.888 231.12C129.83 230.831 129.86 230.53 129.973 230.257C130.086 229.984 130.277 229.751 130.522 229.587C130.768 229.423 131.056 229.335 131.351 229.335C131.747 229.335 132.126 229.493 132.406 229.773C132.685 230.053 132.842 230.433 132.842 230.829Z" fill="black"/>
<path d="M131.376 232.621C131.022 232.621 130.676 232.516 130.381 232.319C130.087 232.122 129.858 231.842 129.722 231.515C129.587 231.187 129.551 230.827 129.62 230.479C129.689 230.132 129.86 229.812 130.11 229.562C130.36 229.311 130.679 229.14 131.027 229.071C131.374 229.002 131.734 229.038 132.061 229.173C132.388 229.309 132.667 229.539 132.864 229.833C133.061 230.128 133.166 230.475 133.166 230.829C133.166 231.304 132.977 231.76 132.641 232.096C132.306 232.432 131.851 232.621 131.376 232.621ZM131.376 229.634C131.14 229.634 130.909 229.704 130.713 229.836C130.517 229.967 130.364 230.153 130.273 230.372C130.183 230.59 130.159 230.83 130.206 231.062C130.252 231.294 130.365 231.507 130.532 231.674C130.699 231.841 130.912 231.955 131.143 232.001C131.374 232.047 131.614 232.023 131.832 231.933C132.05 231.842 132.237 231.689 132.368 231.493C132.499 231.296 132.569 231.065 132.569 230.829C132.569 230.512 132.443 230.208 132.22 229.984C131.996 229.76 131.692 229.634 131.376 229.634Z" fill="black"/>
<path d="M135.551 231.725C135.374 231.725 135.201 231.672 135.054 231.574C134.907 231.476 134.792 231.335 134.724 231.172C134.657 231.008 134.639 230.828 134.673 230.654C134.708 230.48 134.793 230.321 134.918 230.195C135.044 230.07 135.203 229.985 135.377 229.95C135.55 229.915 135.73 229.933 135.894 230.001C136.057 230.069 136.197 230.184 136.295 230.331C136.394 230.478 136.446 230.652 136.446 230.829C136.446 231.067 136.352 231.294 136.184 231.462C136.016 231.63 135.789 231.725 135.551 231.725ZM135.551 230.53C135.472 230.53 135.396 230.562 135.34 230.618C135.284 230.674 135.253 230.75 135.253 230.829C135.254 230.908 135.286 230.983 135.342 231.038C135.398 231.094 135.473 231.126 135.551 231.128C135.63 231.128 135.706 231.096 135.762 231.04C135.818 230.984 135.849 230.908 135.849 230.829C135.849 230.75 135.818 230.674 135.762 230.618C135.706 230.562 135.63 230.53 135.551 230.53Z" fill="black"/>
<path d="M138.811 226.647C138.811 226.943 138.724 227.232 138.56 227.477C138.396 227.723 138.163 227.914 137.89 228.027C137.618 228.14 137.318 228.17 137.029 228.112C136.739 228.054 136.474 227.912 136.265 227.703C136.056 227.495 135.914 227.229 135.857 226.939C135.799 226.649 135.829 226.349 135.942 226.076C136.055 225.803 136.246 225.57 136.491 225.406C136.736 225.242 137.025 225.154 137.32 225.154C137.715 225.154 138.095 225.311 138.374 225.591C138.654 225.871 138.811 226.251 138.811 226.647Z" fill="black"/>
<path d="M129.293 233.565C129.095 233.565 128.9 233.515 128.726 233.42C128.552 233.326 128.404 233.19 128.296 233.024C128.188 232.858 128.122 232.667 128.106 232.47C128.089 232.272 128.122 232.074 128.201 231.892L131.333 224.682C131.426 224.467 131.579 224.284 131.774 224.156C131.969 224.027 132.198 223.959 132.431 223.959H139.591C139.794 223.959 139.993 224.011 140.171 224.11C140.348 224.209 140.498 224.352 140.604 224.525C140.711 224.698 140.772 224.895 140.782 225.098C140.791 225.301 140.749 225.503 140.659 225.686L137.079 232.896C136.98 233.095 136.828 233.262 136.639 233.379C136.45 233.497 136.233 233.559 136.011 233.559L129.293 233.565ZM132.431 224.557C132.314 224.557 132.2 224.591 132.102 224.656C132.004 224.721 131.928 224.813 131.882 224.921L128.75 232.131C128.705 232.226 128.685 232.331 128.694 232.436C128.702 232.541 128.738 232.642 128.798 232.728C128.852 232.811 128.925 232.878 129.012 232.925C129.098 232.972 129.195 232.997 129.293 232.997H135.981C136.091 232.997 136.199 232.966 136.293 232.908C136.387 232.85 136.463 232.767 136.512 232.669L140.092 225.453C140.136 225.362 140.157 225.261 140.152 225.161C140.147 225.06 140.117 224.962 140.064 224.876C140.011 224.79 139.937 224.719 139.849 224.669C139.761 224.62 139.662 224.593 139.561 224.592L132.431 224.557Z" fill="black"/>
<path d="M152.26 65.5993C152.142 65.3933 151.946 65.2431 151.717 65.1814C151.487 65.1198 151.243 65.152 151.037 65.2708C150.832 65.3897 150.681 65.5853 150.62 65.815C150.558 66.0446 150.59 66.2894 150.709 66.4953C151.276 67.475 151.676 68.843 151.222 69.5539C150.858 70.1512 149.814 70.3722 148.287 70.2348C148.169 70.2242 148.051 70.2369 147.938 70.2721C147.826 70.3074 147.721 70.3646 147.63 70.4403C147.54 70.516 147.465 70.6088 147.41 70.7134C147.356 70.8181 147.322 70.9325 147.311 71.0502C147.301 71.1679 147.313 71.2866 147.349 71.3993C147.384 71.5121 147.441 71.6168 147.517 71.7075C147.592 71.7982 147.685 71.873 147.789 71.9278C147.894 71.9827 148.008 72.0163 148.126 72.0269C148.46 72.0269 148.776 72.0687 149.08 72.0687C150.87 72.0687 152.063 71.555 152.732 70.5275C153.913 68.7055 152.69 66.2922 152.26 65.5993ZM155.387 80.6409C155.304 80.5571 155.205 80.4904 155.097 80.445C154.988 80.3996 154.872 80.3763 154.754 80.3763C154.637 80.3763 154.52 80.3996 154.412 80.445C154.303 80.4904 154.204 80.5571 154.122 80.6409C148.4 86.6145 138.711 82.5762 134.392 79.6253C134.294 79.559 134.185 79.5126 134.07 79.4886C133.955 79.4646 133.836 79.4635 133.721 79.4854C133.605 79.5073 133.495 79.5517 133.397 79.6162C133.299 79.6807 133.214 79.764 133.148 79.8612C133.014 80.0577 132.964 80.2994 133.008 80.533C133.052 80.7666 133.187 80.973 133.383 81.1069C136.295 83.0901 141.438 85.4914 146.509 85.4914C148.162 85.5449 149.807 85.2541 151.342 84.6371C152.876 84.0201 154.266 83.0904 155.422 81.9072C155.505 81.8237 155.571 81.7245 155.615 81.6154C155.66 81.5063 155.682 81.3893 155.681 81.2715C155.68 81.1537 155.655 81.0373 155.609 80.9291C155.562 80.8208 155.495 80.7229 155.411 80.6409H155.387ZM155.387 80.6409C155.304 80.5571 155.205 80.4904 155.097 80.445C154.988 80.3996 154.872 80.3763 154.754 80.3763C154.637 80.3763 154.52 80.3996 154.412 80.445C154.303 80.4904 154.204 80.5571 154.122 80.6409C148.4 86.6145 138.711 82.5762 134.392 79.6253C134.294 79.559 134.185 79.5126 134.07 79.4886C133.955 79.4646 133.836 79.4635 133.721 79.4854C133.605 79.5073 133.495 79.5517 133.397 79.6162C133.299 79.6807 133.214 79.764 133.148 79.8612C133.014 80.0577 132.964 80.2994 133.008 80.533C133.052 80.7666 133.187 80.973 133.383 81.1069C136.295 83.0901 141.438 85.4914 146.509 85.4914C148.162 85.5449 149.807 85.2541 151.342 84.6371C152.876 84.0201 154.266 83.0904 155.422 81.9072C155.505 81.8237 155.571 81.7245 155.615 81.6154C155.66 81.5063 155.682 81.3893 155.681 81.2715C155.68 81.1537 155.655 81.0373 155.609 80.9291C155.562 80.8208 155.495 80.7229 155.411 80.6409H155.387ZM152.26 65.5993C152.142 65.3933 151.946 65.2431 151.717 65.1814C151.487 65.1198 151.243 65.152 151.037 65.2708C150.832 65.3897 150.681 65.5853 150.62 65.815C150.558 66.0446 150.59 66.2894 150.709 66.4953C151.276 67.475 151.676 68.843 151.222 69.5539C150.858 70.1512 149.814 70.3722 148.287 70.2348C148.169 70.2242 148.051 70.2369 147.938 70.2721C147.826 70.3074 147.721 70.3646 147.63 70.4403C147.54 70.516 147.465 70.6088 147.41 70.7134C147.356 70.8181 147.322 70.9325 147.311 71.0502C147.301 71.1679 147.313 71.2866 147.349 71.3993C147.384 71.5121 147.441 71.6168 147.517 71.7075C147.592 71.7982 147.685 71.873 147.789 71.9278C147.894 71.9827 148.008 72.0163 148.126 72.0269C148.46 72.0269 148.776 72.0687 149.08 72.0687C150.87 72.0687 152.063 71.555 152.732 70.5275C153.913 68.7055 152.69 66.2922 152.26 65.5993ZM136.748 44.9546C136.677 44.6461 136.73 44.3216 136.897 44.0526C136.975 43.9272 137.058 43.8076 137.148 43.6822C134.32 43.2222 131.241 42.5531 127.984 41.6929L127.906 41.7587C127.524 42.0753 127.149 42.4038 126.773 42.7383C126.62 42.8766 126.432 42.9698 126.23 43.0072C126.208 43.0128 126.186 43.0128 126.164 43.0072C126.133 43.0131 126.1 43.0131 126.069 43.0072C129.683 44.0401 133.352 44.8697 137.058 45.4922C137.022 45.461 136.99 45.4249 136.963 45.3847C136.862 45.2583 136.788 45.1117 136.748 44.9546ZM125.09 42.6428C124.985 42.5257 124.905 42.389 124.853 42.2406C124.801 42.0921 124.778 41.9347 124.787 41.7777C124.796 41.6206 124.836 41.4668 124.904 41.3251C124.973 41.1835 125.068 41.0568 125.186 40.9522H125.222C123.718 40.5221 122.179 40.0503 120.616 39.5365C120.21 39.9428 119.816 40.343 119.422 40.7313C119.387 40.7735 119.344 40.8097 119.297 40.8388C119.269 40.8714 119.235 40.8979 119.196 40.9165C121.075 41.5138 123.127 42.1888 125.275 42.8041C125.21 42.7565 125.15 42.7025 125.096 42.6428H125.09ZM118.098 38.6644C116.809 38.2224 115.503 37.7564 114.19 37.2606C114.011 37.4955 113.838 37.7285 113.671 37.9594C113.58 38.0872 113.464 38.1957 113.331 38.2787C113.198 38.3617 113.05 38.4177 112.895 38.4433C112.662 38.4818 112.423 38.4503 112.208 38.3526C111.993 38.255 111.812 38.0956 111.687 37.8948C111.563 37.694 111.501 37.4608 111.509 37.2246C111.517 36.9883 111.594 36.7597 111.732 36.5677L111.869 36.3825C110.36 35.7851 108.886 35.1878 107.502 34.5904C107.347 34.8692 107.198 35.1499 107.054 35.4326C107.026 35.4879 106.992 35.54 106.953 35.5879C106.935 35.6235 106.91 35.6559 106.881 35.6836C106.857 35.711 106.831 35.7368 106.804 35.7612C106.749 35.8154 106.687 35.8616 106.619 35.8986C106.58 35.9251 106.538 35.9472 106.494 35.9644L106.333 36.024C108.122 36.8065 110.085 37.5951 112.084 38.3598C113.492 38.8974 115.336 39.5844 117.454 40.3251C117.402 40.1999 117.374 40.0662 117.37 39.9308C117.359 39.6154 117.472 39.3083 117.686 39.0766L118.098 38.6644ZM104.829 35.1519C104.768 34.8795 104.804 34.5942 104.93 34.3455C105.05 34.1066 105.175 33.8735 105.306 33.6346L103.857 32.9716L102.878 32.5116L98.5049 49.5603C98.5049 49.8052 98.5407 50.0501 98.5586 50.289C98.5944 50.6713 98.6302 51.0596 98.6779 51.4419C98.6779 51.6569 98.7257 51.878 98.7615 52.0931C98.7586 52.1249 98.7586 52.1568 98.7615 52.1886C98.8032 52.4873 98.845 52.786 98.8927 53.1026C98.9285 53.3057 98.9583 53.5028 98.9941 53.6999C99.0299 53.8971 99.0657 54.1002 99.1015 54.2973C99.1015 54.2973 99.1015 54.2973 99.1015 54.3332L104.059 35.0205L104.919 35.4148C104.887 35.3538 104.861 35.2897 104.841 35.2236C104.853 35.2177 104.847 35.1877 104.835 35.1519H104.829ZM98.8629 55.2829C98.8383 55.3193 98.8104 55.3534 98.7793 55.3845L98.6362 55.5099C98.6122 55.5203 98.59 55.5344 98.5705 55.5518C98.4482 55.6294 98.3127 55.6841 98.1708 55.7131L98.7018 55.9639L98.8748 55.2711L98.8629 55.2829ZM96.8821 55.1157C96.8502 55.0609 96.8242 55.0028 96.8045 54.9425C96.743 54.9853 96.6769 55.0213 96.6076 55.05C96.7091 55.0798 96.7986 55.1156 96.9059 55.1574L96.8821 55.1157ZM95.0922 54.5541C95.0514 54.486 95.0174 54.414 94.9908 54.3391C94.9073 54.0942 94.8178 53.8433 94.7402 53.5984C94.6627 53.3535 94.6209 53.2339 94.5672 53.0547C94.5672 52.989 94.5255 52.9234 94.5016 52.8577H94.4419C94.4837 53.007 94.5254 53.1504 94.5732 53.2997C94.6663 53.6016 94.6363 53.928 94.4896 54.2077C94.3877 54.4005 94.235 54.5616 94.0481 54.6737C94.4265 54.6263 94.8093 54.6263 95.1877 54.6737C95.1641 54.6358 95.1441 54.5957 95.128 54.5541H95.0922ZM93.899 69.4225C93.8934 69.4853 93.8814 69.5473 93.8632 69.6077C93.8332 69.7137 93.7911 69.8159 93.7379 69.9123C93.7031 69.9767 93.6611 70.0367 93.6126 70.0914C93.8352 70.0654 94.0605 70.1028 94.2629 70.1991C94.3225 70.2273 94.3803 70.2592 94.436 70.2946C94.2689 69.9899 94.084 69.7271 93.9169 69.4225H93.899ZM92.5089 66.4357C92.5889 66.674 92.5889 66.932 92.5089 67.1704C92.4139 67.4317 92.2308 67.6516 91.9912 67.7923C91.7516 67.9329 91.4705 67.9856 91.1963 67.941L91.3097 68.2098H91.4051H91.6796H91.9242C92.0881 68.2003 92.2514 68.1823 92.4134 68.156C92.7043 68.0795 93.0132 68.1159 93.2785 68.2576C92.9979 67.6734 92.747 67.0752 92.5268 66.4656L92.5089 66.4357ZM93.4038 54.8111C93.3682 54.817 93.332 54.817 93.2964 54.8111H93.2248C93.1814 54.8193 93.1369 54.8193 93.0936 54.8111H93.0458L92.8847 54.7393C92.8234 54.7106 92.767 54.6723 92.7177 54.6259C92.683 54.6037 92.651 54.5775 92.6222 54.5481C92.4771 54.4106 92.3702 54.2378 92.312 54.0464L92.1509 53.5027C91.9383 53.6168 91.7384 53.7531 91.5543 53.9091L91.7094 54.0285L91.9242 54.1778C92.1429 54.3165 92.3106 54.5225 92.4021 54.765C92.4936 55.0074 92.5038 55.2731 92.4313 55.5219C92.7029 55.2196 93.0424 54.9861 93.4217 54.8408L93.4038 54.8111ZM91.6617 63.5743C91.6617 63.4727 91.614 63.3652 91.5961 63.2637C91.5926 63.2916 91.5823 63.3183 91.5662 63.3414C91.5703 63.353 91.5703 63.3655 91.5662 63.3771C91.5433 63.4295 91.5153 63.4795 91.4827 63.5265C91.4519 63.5723 91.4159 63.6144 91.3753 63.6519C91.3666 63.6667 91.3543 63.679 91.3395 63.6878C91.2893 63.7399 91.2333 63.786 91.1724 63.8251C90.9079 63.9971 90.5862 64.0573 90.2775 63.9924L89.9673 63.9208C90.0508 64.2733 90.1343 64.6257 90.2298 64.9722L90.8741 65.229C91.1844 65.3485 91.5006 65.468 91.8228 65.5815C91.8891 65.6053 91.953 65.6352 92.0137 65.671C92.0439 65.6875 92.0719 65.7076 92.0972 65.7308C92.1548 65.7622 92.2055 65.8048 92.2463 65.8562C92.2819 65.8804 92.3107 65.9133 92.3299 65.9518C92.3961 66.02 92.4505 66.0986 92.491 66.1847C92.1697 65.3413 91.8988 64.4797 91.6796 63.6042L91.6617 63.5743ZM91.9779 56.1073L91.8764 56.1671C91.7447 56.237 91.601 56.2816 91.4529 56.2985C91.4033 56.3044 91.3533 56.3044 91.3037 56.2985C91.0797 56.2974 90.8606 56.2332 90.6713 56.1133C90.543 56.0352 90.4194 55.9494 90.3014 55.8565C90.2551 55.826 90.2113 55.7919 90.1701 55.7548C90.0769 55.9652 89.9952 56.1806 89.9255 56.4C90.2339 56.6415 90.5545 56.8667 90.8861 57.0749C90.9493 57.1159 91.0091 57.162 91.0651 57.2125C91.1249 57.2664 91.1789 57.3264 91.2262 57.3916C91.304 57.5045 91.3624 57.6298 91.3992 57.762C91.5034 57.1731 91.705 56.6058 91.9958 56.0834C91.9958 56.0834 92.0017 56.1312 92.0017 56.1372L91.9779 56.1073ZM91.2679 58.7416C91.225 58.805 91.1771 58.865 91.1247 58.9208C91.073 58.9789 91.015 59.031 90.9517 59.0762C90.7598 59.2134 90.5315 59.2907 90.2958 59.2981C90.0601 59.3056 89.8274 59.2429 89.6272 59.118L89.4482 59.0046C89.4062 59.7692 89.4202 60.5357 89.49 61.2983C89.6272 61.3581 89.7644 61.4178 89.8957 61.4656C90.1613 61.5685 90.4346 61.6504 90.7131 61.7105C90.984 61.7678 91.2265 61.9179 91.3992 62.1347C91.2321 61.0218 91.194 59.8932 91.2858 58.7715L91.2679 58.7416ZM152.26 65.5993C152.142 65.3933 151.946 65.2431 151.717 65.1814C151.487 65.1198 151.243 65.152 151.037 65.2708C150.832 65.3897 150.681 65.5853 150.62 65.815C150.558 66.0446 150.59 66.2894 150.709 66.4953C151.276 67.475 151.676 68.843 151.222 69.5539C150.858 70.1512 149.814 70.3722 148.287 70.2348C148.169 70.2242 148.051 70.2369 147.938 70.2721C147.826 70.3074 147.721 70.3646 147.63 70.4403C147.54 70.516 147.465 70.6088 147.41 70.7134C147.356 70.8181 147.322 70.9325 147.311 71.0502C147.301 71.1679 147.313 71.2866 147.349 71.3993C147.384 71.5121 147.441 71.6168 147.517 71.7075C147.592 71.7982 147.685 71.873 147.789 71.9278C147.894 71.9827 148.008 72.0163 148.126 72.0269C148.46 72.0269 148.776 72.0687 149.08 72.0687C150.87 72.0687 152.063 71.555 152.732 70.5275C153.913 68.7055 152.69 66.2922 152.26 65.5993ZM155.387 80.6409C155.304 80.5571 155.205 80.4904 155.097 80.445C154.988 80.3996 154.872 80.3763 154.754 80.3763C154.637 80.3763 154.52 80.3996 154.412 80.445C154.303 80.4904 154.204 80.5571 154.122 80.6409C148.4 86.6145 138.711 82.5762 134.392 79.6253C134.294 79.559 134.185 79.5126 134.07 79.4886C133.955 79.4646 133.836 79.4635 133.721 79.4854C133.605 79.5073 133.495 79.5517 133.397 79.6162C133.299 79.6807 133.214 79.764 133.148 79.8612C133.014 80.0577 132.964 80.2994 133.008 80.533C133.052 80.7666 133.187 80.973 133.383 81.1069C136.295 83.0901 141.438 85.4914 146.509 85.4914C148.162 85.5449 149.807 85.2541 151.342 84.6371C152.876 84.0201 154.266 83.0904 155.422 81.9072C155.505 81.8237 155.571 81.7245 155.615 81.6154C155.66 81.5063 155.682 81.3893 155.681 81.2715C155.68 81.1537 155.655 81.0373 155.609 80.9291C155.562 80.8208 155.495 80.7229 155.411 80.6409H155.387ZM155.387 80.6409C155.304 80.5571 155.205 80.4904 155.097 80.445C154.988 80.3996 154.872 80.3763 154.754 80.3763C154.637 80.3763 154.52 80.3996 154.412 80.445C154.303 80.4904 154.204 80.5571 154.122 80.6409C148.4 86.6145 138.711 82.5762 134.392 79.6253C134.294 79.559 134.185 79.5126 134.07 79.4886C133.955 79.4646 133.836 79.4635 133.721 79.4854C133.605 79.5073 133.495 79.5517 133.397 79.6162C133.299 79.6807 133.214 79.764 133.148 79.8612C133.014 80.0577 132.964 80.2994 133.008 80.533C133.052 80.7666 133.187 80.973 133.383 81.1069C136.295 83.0901 141.438 85.4914 146.509 85.4914C148.162 85.5449 149.807 85.2541 151.342 84.6371C152.876 84.0201 154.266 83.0904 155.422 81.9072C155.505 81.8237 155.571 81.7245 155.615 81.6154C155.66 81.5063 155.682 81.3893 155.681 81.2715C155.68 81.1537 155.655 81.0373 155.609 80.9291C155.562 80.8208 155.495 80.7229 155.411 80.6409H155.387ZM148.126 72.0209C148.46 72.0209 148.776 72.0628 149.08 72.0628C150.87 72.0628 152.063 71.549 152.732 70.5215C153.889 68.7294 152.666 66.2922 152.26 65.5993C152.202 65.4973 152.123 65.408 152.03 65.3363C151.937 65.2646 151.83 65.212 151.717 65.1814C151.603 65.1509 151.485 65.1431 151.368 65.1584C151.252 65.1737 151.139 65.212 151.037 65.2708C150.935 65.3297 150.846 65.408 150.775 65.5014C150.703 65.5948 150.65 65.7013 150.62 65.815C150.589 65.9287 150.582 66.0474 150.597 66.1641C150.612 66.2808 150.65 66.3933 150.709 66.4953C151.276 67.475 151.676 68.843 151.222 69.5539C150.858 70.1512 149.814 70.3722 148.287 70.2348C148.169 70.2242 148.051 70.2369 147.938 70.2721C147.826 70.3074 147.721 70.3646 147.63 70.4403C147.54 70.516 147.465 70.6088 147.41 70.7134C147.356 70.8181 147.322 70.9325 147.311 71.0502C147.301 71.1679 147.313 71.2866 147.349 71.3993C147.384 71.5121 147.441 71.6168 147.517 71.7075C147.592 71.7982 147.685 71.873 147.789 71.9278C147.894 71.9827 148.008 72.0163 148.126 72.0269V72.0209ZM136.945 45.4086C136.841 45.2752 136.767 45.1201 136.73 44.9546C136.659 44.6461 136.712 44.3216 136.879 44.0526C136.957 43.9272 137.041 43.8076 137.13 43.6822C134.302 43.2222 131.224 42.5531 127.966 41.6929L127.888 41.7587C127.507 42.0753 127.131 42.4038 126.755 42.7383C126.602 42.8766 126.414 42.9698 126.212 43.0072H126.146C126.115 43.0131 126.082 43.0131 126.051 43.0072C129.665 44.0401 133.334 44.8697 137.041 45.4922C137.014 45.467 136.99 45.439 136.969 45.4086H136.945ZM125.168 40.9522H125.204C123.7 40.5221 122.161 40.0503 120.598 39.5365C120.192 39.9428 119.798 40.343 119.404 40.7313C119.369 40.7735 119.326 40.8097 119.279 40.8388C119.251 40.8714 119.217 40.8979 119.178 40.9165C121.057 41.5138 123.109 42.1888 125.257 42.8041C125.114 42.6985 124.996 42.5621 124.912 42.4048C124.828 42.2475 124.78 42.0734 124.772 41.8952C124.764 41.7171 124.796 41.5393 124.865 41.3752C124.935 41.211 125.04 41.0643 125.174 40.9462L125.168 40.9522ZM113.653 37.9654C113.562 38.0931 113.446 38.2016 113.313 38.2847C113.18 38.3677 113.032 38.4236 112.877 38.4493C112.645 38.4878 112.405 38.4562 112.19 38.3586C111.975 38.261 111.794 38.1016 111.67 37.9008C111.545 37.7 111.483 37.4668 111.491 37.2305C111.499 36.9943 111.576 36.7657 111.714 36.5737L111.851 36.3885C110.342 35.7911 108.868 35.1937 107.484 34.5964C107.329 34.8751 107.18 35.1558 107.037 35.4386C107.008 35.4939 106.974 35.5459 106.935 35.5939C106.917 35.6295 106.892 35.6619 106.864 35.6896C106.839 35.717 106.813 35.7428 106.786 35.7672C106.731 35.8214 106.669 35.8676 106.601 35.9046C106.562 35.9311 106.52 35.9532 106.476 35.9703L106.315 36.03C108.105 36.8125 110.067 37.6011 112.066 38.3657C113.474 38.9034 115.318 39.5904 117.436 40.3311C117.384 40.2059 117.356 40.0722 117.352 39.9367C117.341 39.6214 117.454 39.3143 117.668 39.0826L118.074 38.6525C116.785 38.2104 115.479 37.7444 114.166 37.2486C114.007 37.4915 113.844 37.7285 113.677 37.9594L113.653 37.9654ZM105.3 33.6405L103.851 32.9776L102.872 32.5176L98.4989 49.5662C98.4989 49.8112 98.5347 50.0561 98.5526 50.295C98.5884 50.6773 98.6242 51.0656 98.672 51.4479C98.672 51.6629 98.7197 51.884 98.7555 52.099C98.7526 52.1308 98.7526 52.1628 98.7555 52.1946C98.7973 52.4932 98.839 52.7919 98.8867 53.1085C98.9225 53.3116 98.9524 53.5088 98.9882 53.7059C99.024 53.903 99.0598 54.1061 99.0956 54.3033C99.0956 54.3033 99.0956 54.3033 99.0956 54.3391L104.053 35.0265L104.913 35.4207C104.881 35.3596 104.855 35.2957 104.835 35.2296C104.832 35.1978 104.832 35.1657 104.835 35.1339C104.774 34.8615 104.81 34.5763 104.936 34.3276C105.056 34.1066 105.181 33.8735 105.312 33.6346L105.3 33.6405ZM98.7793 55.3905L98.6362 55.5159L98.5705 55.5578C98.4482 55.6354 98.3127 55.69 98.1708 55.7191L98.7018 55.9699L98.8748 55.277C98.8506 55.3156 98.8226 55.3515 98.7913 55.3845L98.7793 55.3905ZM96.8045 54.9485C96.743 54.9913 96.6769 55.0273 96.6076 55.0559C96.7091 55.0858 96.7986 55.1216 96.9059 55.1634V55.1217C96.8696 55.0655 96.8396 55.0054 96.8165 54.9425L96.8045 54.9485ZM95.0147 54.3511C94.9311 54.1062 94.8417 53.8553 94.7641 53.6104C94.6865 53.3655 94.6448 53.2459 94.5911 53.0667C94.5911 53.001 94.5493 52.9354 94.5254 52.8697H94.4658C94.5076 53.019 94.5493 53.1624 94.597 53.3117C94.6902 53.6135 94.6602 53.94 94.5135 54.2197C94.4116 54.4124 94.2589 54.5735 94.072 54.6855C94.4504 54.6382 94.8332 54.6382 95.2116 54.6855C95.1745 54.6436 95.1424 54.5975 95.1161 54.5481C95.0797 54.4814 95.0497 54.4115 95.0266 54.3391L95.0147 54.3511ZM93.8692 69.6195C93.8391 69.7255 93.7971 69.8277 93.7439 69.9242C93.709 69.9885 93.667 70.0486 93.6186 70.1034C93.8412 70.0774 94.0665 70.1148 94.2689 70.211C94.3285 70.2393 94.3863 70.2712 94.4419 70.3065C94.257 70.0258 94.072 69.7092 93.905 69.4344C93.9025 69.4928 93.8945 69.5508 93.8811 69.6077L93.8692 69.6195ZM93.2308 54.829C93.1874 54.8373 93.1429 54.8373 93.0995 54.829C93.084 54.834 93.0673 54.834 93.0518 54.829L92.8907 54.7573C92.8294 54.7285 92.773 54.6903 92.7237 54.6438C92.689 54.6216 92.657 54.5955 92.6282 54.5661C92.483 54.4286 92.3762 54.2558 92.318 54.0644L92.1569 53.5207C91.9443 53.6348 91.7443 53.771 91.5603 53.927L91.7154 54.0464L91.9302 54.1958C92.1488 54.3344 92.3166 54.5405 92.4081 54.7829C92.4995 55.0254 92.5098 55.291 92.4373 55.5398C92.7014 55.258 93.0257 55.0395 93.3859 54.9006C93.3504 54.9065 93.3141 54.9065 93.2785 54.9006C93.2588 54.8768 93.2464 54.8478 93.2427 54.8171L93.2308 54.829ZM92.491 67.2123C92.396 67.4736 92.2129 67.6935 91.9733 67.8341C91.7337 67.9748 91.4526 68.0273 91.1784 67.9827L91.2918 68.2517H91.4051H91.6796H91.9242C92.0881 68.2422 92.2514 68.2242 92.4134 68.1979C92.7043 68.1213 93.0132 68.1576 93.2785 68.2994C92.9939 67.7153 92.739 67.1172 92.5148 66.5073C92.5819 66.734 92.5778 66.976 92.5029 67.2003L92.491 67.2123ZM91.966 65.7725C91.9961 65.789 92.0242 65.8091 92.0495 65.8323C92.1071 65.8637 92.1578 65.9063 92.1986 65.9578C92.234 65.9821 92.2627 66.0149 92.2821 66.0533C92.3483 66.1215 92.4028 66.2003 92.4432 66.2863C92.1306 65.4129 91.8716 64.5212 91.6676 63.6161C91.6676 63.5146 91.6199 63.4071 91.602 63.3055C91.5985 63.3334 91.5883 63.36 91.5722 63.3831C91.5763 63.3947 91.5763 63.4074 91.5722 63.419C91.5492 63.4713 91.5213 63.5214 91.4887 63.5683C91.4579 63.6142 91.4219 63.6563 91.3813 63.6937C91.3726 63.7085 91.3602 63.7209 91.3455 63.7296C91.2953 63.7818 91.2392 63.8278 91.1784 63.867C90.9139 64.039 90.5921 64.0991 90.2835 64.0343L89.9732 63.9625C90.0568 64.315 90.1403 64.6674 90.2357 65.0139L90.8801 65.2708C91.1903 65.3903 91.5066 65.5097 91.8287 65.6232C91.8908 65.6632 91.9488 65.7092 92.0017 65.7606L91.966 65.7725ZM90.9875 57.1945L91.071 57.2661C91.1308 57.3201 91.1848 57.3802 91.2321 57.4454C91.3099 57.5584 91.3684 57.6836 91.4051 57.8158C91.5094 57.227 91.711 56.6596 92.0017 56.1372L91.9003 56.1968C91.7686 56.2668 91.6249 56.3113 91.4767 56.3282C91.4272 56.3341 91.3771 56.3341 91.3276 56.3282C91.1036 56.3272 90.8844 56.2631 90.6952 56.1432C90.5668 56.0651 90.4433 55.9792 90.3252 55.8862C90.279 55.8557 90.2351 55.8218 90.194 55.7847C90.1007 55.9951 90.0191 56.2105 89.9494 56.4299C90.2577 56.6714 90.5783 56.8966 90.9099 57.1048C90.9425 57.1274 90.9725 57.1535 90.9994 57.1826L90.9875 57.1945ZM91.4051 62.1764C91.2298 61.0544 91.1857 59.9157 91.2739 58.7835C91.231 58.8469 91.183 58.9068 91.1307 58.9627C91.0789 59.0208 91.0209 59.0729 90.9577 59.118C90.7657 59.2553 90.5375 59.3324 90.3018 59.3398C90.066 59.3473 89.8334 59.2847 89.6332 59.1599L89.4542 59.0463C89.4122 59.8109 89.4261 60.5776 89.4959 61.3402C89.6332 61.3999 89.7704 61.4597 89.9016 61.5075C90.1673 61.6104 90.4406 61.6922 90.719 61.7523C90.9883 61.8066 91.2306 61.9521 91.4051 62.1645V62.1764ZM211.815 283.737C211.421 278.289 211.039 273.134 210.717 269.723C215.454 261.223 216.976 250.799 216.832 244.365C216.075 234.521 210.383 187.544 206.976 165.424C203.635 143.704 201.1 140.102 182.306 130.389L146.175 113.663L143.269 112.313C142.75 110.861 142.195 109.463 141.652 108.215C156.186 100.903 166.71 75.402 159.229 51.1671C158.398 48.4695 157.348 45.8444 156.091 43.3179L155.786 42.7205C155.721 42.5891 155.655 42.4576 155.584 42.3262V42.2963V42.2486L155.19 41.5019L154.384 41.9678L154.122 42.1172C151.996 43.2674 149.683 44.03 147.29 44.3692C144.851 44.5033 142.404 44.4071 139.982 44.0824C139.087 43.9748 138.156 43.8435 137.196 43.6822C134.368 43.2222 131.289 42.5531 128.032 41.6929C127.125 41.448 126.2 41.1972 125.269 40.9225C123.766 40.4924 122.226 40.0204 120.663 39.5067C119.828 39.2378 118.993 38.9571 118.146 38.6644C116.857 38.2224 115.55 37.7564 114.238 37.2606L112.758 36.7051L111.917 36.3825C110.407 35.7851 108.934 35.1878 107.55 34.5904L106.452 34.1125L106.237 34.0229L105.354 33.6286L103.904 32.9656L102.926 32.5056L98.5526 49.5543L97.5503 53.4431C96.5998 53.0663 95.5893 52.8639 94.5672 52.8457H94.5076C94.0182 52.8499 93.532 52.9242 93.0637 53.0667C92.7613 53.1596 92.471 53.288 92.1986 53.4491C91.9861 53.5631 91.7861 53.6993 91.602 53.8552C90.9892 54.38 90.5071 55.0407 90.194 55.7847C90.1007 55.9951 90.0191 56.2105 89.9494 56.4299C89.6784 57.2696 89.518 58.1411 89.4721 59.0223C89.4301 59.787 89.4441 60.5537 89.5139 61.3163C89.5556 61.7583 89.6093 62.2063 89.6869 62.6723C89.7644 63.1382 89.836 63.5384 89.9374 63.9864C90.021 64.3389 90.1045 64.6913 90.1999 65.0378C90.3372 65.5276 90.4863 66.0174 90.6474 66.4953C90.8145 66.9852 90.9994 67.4691 91.1963 67.941L91.3097 68.2098C91.4827 68.61 91.6676 68.9983 91.8586 69.4045C92.0555 69.7988 92.2643 70.1811 92.491 70.5514C92.491 70.6052 92.5566 70.6589 92.5924 70.7127C92.8012 71.0592 93.022 71.3878 93.2546 71.7044C93.4873 72.021 93.7439 72.3495 94.0004 72.6422C94.3187 73.0078 94.6637 73.3492 95.0326 73.6636C95.3372 73.9316 95.6624 74.1754 96.0051 74.3925C96.3583 74.6283 96.734 74.8284 97.1267 74.9899C97.7305 75.2308 98.374 75.3563 99.024 75.3602C99.2149 75.8321 99.4118 76.2981 99.6206 76.764C100.316 78.5502 100.913 80.3728 101.41 82.2238C101.613 82.9765 101.798 83.759 101.959 84.5535C102.616 87.7434 102.878 91.1663 102.013 93.8724C101.416 95.8436 99.2745 99.6727 99.1134 99.9654C99.1134 100.013 99.0657 100.061 99.0419 100.109C97.6338 103.794 94.3107 106.351 90.7847 109.069C89.4721 110.079 88.1178 111.118 86.8291 112.247C80.5646 115.939 72.9576 117.892 65.6013 119.786C57.5887 121.847 50.0236 123.794 44.7196 127.796C14.4293 150.831 10.4677 175.627 6.27347 201.869C5.13392 208.996 3.95859 216.367 2.22243 223.78C-0.289337 234.533 0.903902 243.385 5.80215 250.064C13.5582 260.739 27.7756 262.011 28.3782 262.041H28.4498L48.18 260.554C46.8018 266.987 43.5682 288.695 41.2055 308.044H42.9954C45.4356 288.146 48.7826 265.816 50.0474 260.38L70.4638 257.806L70.6905 257.495C70.8037 257.334 70.8809 257.151 70.9172 256.958H76.8834L77.48 256.259L86.6322 255.769C88.0044 256.934 94.0303 261.671 102.305 262.704H102.401C109.596 263.606 119.703 264.395 124.225 260.846L124.333 260.757L124.41 260.643C124.41 260.601 124.47 260.554 124.506 260.512H129.279L131.838 295.236L132.256 300.905L132.781 307.996H134.571L134.111 301.724H142.327L140.614 307.996H142.47L144.355 301.085C144.356 301.071 144.356 301.057 144.355 301.043L145.894 295.41C145.892 295.396 145.892 295.382 145.894 295.368L155.476 260.548H163.495C163.542 262.734 164.282 265.595 168.793 268.755L177.79 274.167L177.849 274.203C180.892 275.721 187.449 277.071 190.808 275.726C191.548 275.426 192.254 275.047 192.914 274.598C195.3 275.703 200.718 275.912 209.053 271.013C209.351 274.359 209.691 278.988 210.043 283.845C210.526 290.416 211.021 297.208 211.439 300.971C211.672 303.103 211.958 305.481 212.268 308.038H214.058C213.736 305.415 213.462 302.96 213.205 300.768C212.805 297.058 212.31 290.278 211.827 283.725L211.815 283.737ZM145.399 115.282C145.847 115.515 153.644 119.69 157.367 123.728C160.231 126.841 164.229 132.253 165.523 134.027L158.31 142.073L169.049 153.877L159.05 210.77C157.779 171.344 151.091 127.886 146.718 125.347C146.676 125.322 146.632 125.3 146.586 125.282C146.023 121.674 145.176 118.116 144.051 114.643L145.399 115.282ZM126.099 142.539L120.824 214.264L103.236 143.286C106.267 138.196 111.356 133.298 115.395 129.863C117.102 132.605 122.328 140.681 126.11 142.533L126.099 142.539ZM116.779 128.71C119.462 126.506 122.264 124.451 125.174 122.558C128.718 123.059 133.168 126.667 137.774 132.778C137.482 135.168 133.562 138.824 131.635 140.598L131.039 141.159L127.202 141.076C124.78 140.233 120.15 134.242 116.791 128.704L116.779 128.71ZM127.871 142.868L130.567 142.945L139.2 219.145L134.117 219.031C129.756 218.9 128.515 221.014 127.524 222.699C127.369 222.968 127.214 223.237 127.041 223.487L126.319 224.82L122.221 219.646L127.871 142.868ZM132.309 142.414L132.84 141.924C134.833 140.084 137.882 137.259 139.075 134.582C140.828 137.068 142.422 139.661 143.848 142.348L144.749 144.074L145.471 142.282C146.891 138.734 147.41 134.355 147.034 129.236C150.56 139.152 157.009 178.321 157.445 219.551L141.008 219.186L132.309 142.414ZM141.694 113.269C143.184 117.471 144.261 121.808 144.91 126.219C144.907 126.233 144.907 126.247 144.91 126.261C145.638 131.53 145.477 136.046 144.445 139.732C142.92 137.042 141.232 134.449 139.391 131.966C136.259 127.784 131.766 122.797 127.172 121.214C130.502 118.914 137.661 113.729 140.382 109.822C140.841 110.897 141.283 112.062 141.706 113.263L141.694 113.269ZM101.339 76.2921C100.987 75.3722 100.694 74.6852 100.533 74.3208L101.876 68.2457L100.868 68.15C99.4714 68.0186 97.7054 67.3795 96.9179 66.2684C96.6863 65.9209 96.5361 65.5256 96.4782 65.1119C96.4204 64.6982 96.4564 64.2768 96.5838 63.879C96.6172 63.7631 96.627 63.6416 96.6124 63.5219C96.5979 63.4022 96.5593 63.2867 96.4991 63.1823C96.4389 63.0778 96.3583 62.9866 96.262 62.9141C96.1658 62.8416 96.0559 62.7893 95.939 62.7604C95.8221 62.7314 95.7005 62.7264 95.5816 62.7456C95.4627 62.7648 95.3489 62.8078 95.247 62.8721C95.1451 62.9364 95.0572 63.0206 94.9886 63.1197C94.9199 63.2188 94.872 63.3308 94.8476 63.4489C94.6554 64.0952 94.6092 64.7762 94.7124 65.4426C94.8156 66.1091 95.0656 66.7441 95.4443 67.3018C96.4167 68.6817 98.135 69.4522 99.6862 69.7808L98.8509 73.5561C98.2462 73.5126 97.6599 73.3286 97.1386 73.0186L96.9895 72.9289C96.1766 72.3917 95.4655 71.7142 94.8894 70.9278C94.7462 70.7367 94.597 70.5336 94.4538 70.3305C94.2689 70.0497 94.084 69.7331 93.9169 69.4583C93.6902 69.088 93.4873 68.7115 93.2904 68.3053C93.0058 67.7213 92.7509 67.1232 92.5268 66.5133C92.5092 66.4474 92.4852 66.3834 92.4552 66.3222C92.1426 65.4488 91.8836 64.5569 91.6796 63.6519C91.6796 63.5503 91.6318 63.4429 91.6139 63.3414C91.5364 62.9651 91.4708 62.5946 91.4171 62.2183C91.2417 61.0962 91.1976 59.9576 91.2858 58.8253C91.3099 58.5024 91.3538 58.1811 91.4171 57.8635C91.5213 57.2746 91.723 56.7073 92.0137 56.1849C92.1378 55.9541 92.2923 55.7413 92.4731 55.5518C92.7372 55.27 93.0615 55.0515 93.4217 54.9126L93.5709 54.8588C93.7359 54.8049 93.9057 54.7669 94.078 54.7453C94.4563 54.6979 94.8392 54.6979 95.2175 54.7453C95.6895 54.8192 96.1531 54.9393 96.6017 55.1038C96.7031 55.1336 96.7926 55.1694 96.9 55.2113C97.1625 55.3128 97.431 55.4264 97.7114 55.5578L98.1589 55.7668L98.6899 56.0178L98.8629 55.3247L99.0956 54.4227L104.053 35.1102L104.913 35.5044L105.438 35.7373L106.285 36.1077C108.075 36.8903 110.038 37.6787 112.036 38.4433C113.444 38.981 115.288 39.6679 117.406 40.4087L119.13 41.006C121.009 41.6034 123.062 42.2784 125.21 42.8936C125.466 42.9593 125.723 43.0371 125.979 43.1087C129.593 44.1416 133.262 44.9712 136.969 45.5937L138.389 45.8088C141.331 46.2578 144.312 46.4019 147.285 46.2389C149.735 45.9067 152.113 45.1657 154.319 44.0466C155.567 46.5277 156.605 49.1094 157.421 51.7645C160.746 62.8158 160.547 74.6298 156.854 85.5631C153.352 95.9572 147.213 103.783 140.012 107.038C137.799 108.073 135.394 108.632 132.952 108.678C130.511 108.725 128.086 108.257 125.836 107.307C116.899 103.609 108.427 92.9286 101.351 76.2861L101.339 76.2921ZM103.69 94.4159C104.483 91.9369 104.447 89.0039 104.036 86.1426C110.36 98.042 117.591 105.825 125.257 108.896C129.426 110.627 134.067 110.851 138.383 109.529C135.656 112.898 129.285 117.695 124.768 120.682C116.559 118.89 106.112 107.307 100.903 100.372C101.98 98.4555 102.915 96.4628 103.701 94.4099L103.69 94.4159ZM100.158 102.301C103.505 106.638 113.564 118.854 122.787 122.014C120.335 123.669 117.555 125.759 115.031 127.838C111.129 131.082 105.998 135.867 102.58 140.98C99.7578 130.957 96.6971 113.669 100.169 102.295L100.158 102.301ZM87.8791 113.651L87.9268 113.609C89.1917 112.504 90.54 111.465 91.8466 110.461C93.8737 108.992 95.7791 107.362 97.5443 105.587C95.3607 117.964 98.7376 134.529 101.416 143.364L119.214 215.148L78.8761 154.713L84.9437 141.769L73.7034 133.764C74.5148 131.799 77.0027 125.891 78.8582 123.012C81.37 119.063 87.6106 113.902 87.891 113.669L87.8791 113.651ZM69.3839 255.823C69.3813 255.834 69.3813 255.847 69.3839 255.858L69.3004 256.157L49.2539 258.69L28.4677 260.255C27.4296 260.153 14.2741 258.66 7.25193 249.007C2.70569 242.758 1.61387 234.413 4.00035 224.192C5.74844 216.713 6.92976 209.312 8.07527 202.156C12.2098 176.266 16.1177 151.816 45.8413 129.218C50.8231 125.431 58.2211 123.531 66.0488 121.518C71.4184 120.132 76.9192 118.723 81.9964 116.62C80.2693 118.262 78.7159 120.077 77.3607 122.038C75.0339 125.664 71.9136 133.43 71.7823 133.758L71.5198 134.409L82.6945 142.366L76.8297 154.875L120.586 220.411L120.651 220.501L125.424 226.534L124.941 227.436C124.431 227.05 123.835 226.794 123.205 226.689C122.333 226.592 121.452 226.592 120.58 226.689C118.736 226.827 104.012 231.313 97.2401 234.282L84.6514 234.21C84.6482 233.823 84.5981 233.438 84.5022 233.063L84.3113 232.4L77.1519 232.543C77.3905 231.671 77.6232 230.889 77.6292 230.877L77.9752 229.682L53.6988 229.945C53.311 225.728 54.1164 218.075 54.892 210.668C55.7869 202.174 56.6341 194.151 55.8705 190.388L54.0806 190.501C53.6391 196.756 45.5788 222.072 41.8857 229.927H36.2178C35.9805 229.927 35.7528 230.021 35.585 230.189C35.4172 230.358 35.3229 230.585 35.3229 230.823C35.3229 231.061 35.4172 231.289 35.585 231.457C35.7528 231.625 35.9805 231.719 36.2178 231.719H52.9232L75.5947 231.468C75.4456 231.994 75.2785 232.615 75.1353 233.165C75.1353 233.165 75.1353 233.195 75.1353 233.206C74.0077 237.621 70.3922 252.065 69.372 255.817L69.3839 255.823ZM51.9089 229.975H43.8605C46.599 223.762 51.5688 209.007 54.188 198.978C53.9553 202.466 53.5257 206.516 53.1081 210.501C52.3325 217.884 51.5271 225.519 51.897 229.969L51.9089 229.975ZM76.3285 254.885L76.072 255.177H71.4064C72.5997 250.637 75.3382 239.736 76.6925 234.336L82.8556 234.21C82.8565 234.412 82.8304 234.613 82.778 234.807C82.7806 234.819 82.7806 234.831 82.778 234.843C82.5632 235.608 82.2948 236.6 81.9845 237.74C80.666 242.627 78.4466 250.787 76.3166 254.879L76.3285 254.885ZM125.025 256.39C124.97 256.396 124.916 256.408 124.864 256.426C122.274 257.28 112.048 257.28 104.734 255.673C104.501 255.623 104.258 255.666 104.058 255.795C103.857 255.924 103.716 256.127 103.666 256.36C103.615 256.593 103.659 256.837 103.788 257.037C103.916 257.238 104.119 257.379 104.352 257.429C111.213 258.929 119.792 259.048 123.843 258.469C123.712 258.672 123.557 258.881 123.39 259.108V259.15L123.104 259.532C118.545 262.937 106.637 261.444 102.705 260.954H102.616C93.9407 259.867 87.7001 254.269 87.6285 254.216L87.3541 253.965L78.5838 254.419C80.5825 249.98 82.4618 243.003 83.7505 238.218C83.9772 237.382 84.1801 236.623 84.3471 235.984L97.6458 236.056L97.8188 235.978C104.728 232.914 119.488 228.547 120.687 228.463H120.777C121.487 228.388 122.203 228.388 122.913 228.463C123.362 228.535 123.779 228.743 124.106 229.061L122.149 232.806L113.892 235.273L114.62 236.295C115.717 237.83 117.835 240.213 119.154 240.775L119.691 241.032C121.095 241.73 122.538 242.35 124.01 242.89C124.529 243.063 125.275 243.266 126.14 243.487C128.133 244.031 131.152 244.843 132.107 245.596C133.3 246.54 133.3 246.988 133.264 247.065C133.228 247.274 132.846 247.663 131.886 248.015C125.836 247.418 115.914 244.168 112.925 241.808C112.834 241.729 112.727 241.669 112.612 241.632C112.497 241.595 112.376 241.582 112.255 241.593C112.135 241.605 112.018 241.64 111.912 241.698C111.806 241.756 111.712 241.835 111.637 241.929C111.562 242.024 111.507 242.134 111.476 242.25C111.444 242.367 111.436 242.489 111.453 242.609C111.469 242.729 111.51 242.844 111.572 242.948C111.635 243.052 111.717 243.141 111.816 243.212C115.33 245.99 125.741 249.186 131.587 249.783C131.594 249.809 131.594 249.835 131.587 249.861C131.456 250.273 130.352 250.954 128.915 251.312L128.819 251.342L128.736 251.378C127.351 251.975 117.925 250.506 107.257 248.027C107.143 248.001 107.024 247.997 106.908 248.017C106.792 248.037 106.68 248.079 106.581 248.142C106.481 248.204 106.395 248.286 106.326 248.382C106.258 248.478 106.21 248.587 106.183 248.702C106.157 248.817 106.154 248.936 106.173 249.052C106.193 249.168 106.235 249.28 106.298 249.379C106.361 249.479 106.442 249.566 106.538 249.634C106.634 249.702 106.743 249.751 106.858 249.777C109.841 250.47 123.891 253.642 128.467 253.23C128.563 253.777 128.454 254.34 128.163 254.813C127.566 255.721 126.248 256.253 125.18 256.372L125.025 256.39ZM120.997 235.005L119.148 238.654C118.302 237.929 117.524 237.13 116.821 236.265L120.997 235.005ZM142.864 299.973H134.028L133.741 296.091H143.908L142.864 299.973ZM144.409 294.298H133.61L131.122 260.548H153.621L144.409 294.298ZM163.596 258.756H125.711C125.817 258.525 125.901 258.285 125.961 258.039C127.401 257.778 128.684 256.969 129.541 255.781C130.097 254.891 130.292 253.822 130.084 252.794C131.182 252.418 132.781 251.665 133.186 250.404C133.297 250.062 133.309 249.696 133.222 249.347C134.254 248.815 134.821 248.152 134.952 247.358C135.203 245.841 133.652 244.604 133.163 244.192C131.933 243.212 128.986 242.4 126.564 241.761C125.729 241.534 125.001 241.337 124.535 241.163C123.419 240.759 122.324 240.298 121.254 239.783L129.183 224.372L129.219 224.294C129.593 223.355 130.259 222.563 131.119 222.034C131.979 221.506 132.987 221.27 133.992 221.361L201.511 222.884C202.705 222.884 203.743 223.219 203.94 223.637C204.047 223.876 203.904 224.437 203.206 225.262L185.438 243.953L180.421 241.803C178.524 240.775 175.737 240.076 174.091 241.462C173.13 242.262 172.766 243.535 172.999 245.261C171.322 244.7 169.365 244.861 168.226 245.859C167.677 246.33 166.705 247.531 167.564 249.694C166.651 249.646 165.741 249.827 164.917 250.221C164.093 250.616 163.38 251.211 162.844 251.952C161.812 253.433 161.49 255.835 163.626 258.188C163.596 258.373 163.596 258.552 163.596 258.756ZM200.127 256.163C200.771 257.615 199.733 259.807 198.743 261.145L186.721 260.285C184.318 260.116 181.978 259.433 179.86 258.284C176.376 256.539 170.702 251.277 170.099 250.578C170.101 250.56 170.101 250.542 170.099 250.524L170.069 250.482C169.437 249.598 168.524 248.027 169.425 247.262C170.326 246.498 172.623 246.611 173.78 247.752L173.846 247.818L178.309 251.695L178.374 251.749C179.377 252.465 183.851 255.124 186.435 255.769L186.542 255.799H186.655C194.316 255.751 198.242 255.464 200.264 255.016C200.217 255.195 200.169 255.375 200.115 255.542L200.02 255.858L200.127 256.163ZM186.733 254.007C184.52 253.409 180.463 251.02 179.418 250.315L175.171 246.617C174.574 244.747 174.616 243.421 175.266 242.878C176.03 242.239 177.867 242.472 179.633 243.439L185.313 245.882H185.355L185.564 245.966C185.724 246.447 185.977 246.891 186.308 247.273C186.64 247.656 187.044 247.969 187.497 248.194C189.251 249.114 192.747 249.52 199.489 246.301L200.479 246.701C201.076 247.256 201.428 249.198 200.7 252.985C200.032 253.379 197.287 253.911 186.715 253.977L186.733 254.007ZM200.646 242.251V242.352C200.646 242.914 199.853 243.977 199.005 244.562C192.413 247.77 189.46 247.232 188.332 246.623C187.884 246.409 187.527 246.043 187.324 245.59L193.326 239.294C197.245 238.547 198.988 239.144 199.763 239.783C200.084 240.098 200.328 240.481 200.478 240.905C200.628 241.328 200.679 241.78 200.628 242.227L200.646 242.251ZM164.318 253.003C164.832 252.331 165.553 251.847 166.369 251.626C167.186 251.405 168.052 251.458 168.834 251.778C170.487 253.887 176.716 258.702 179.06 259.879C181.375 261.131 183.93 261.876 186.554 262.065L198.451 262.913C198.331 263.881 197.037 266.354 194.668 269.167C193.582 269.305 189.215 268.839 184.376 268.051C181.805 267.632 179.926 266.581 177.933 265.464C177.235 265.07 176.507 264.663 175.737 264.269L164.998 257.047C163.709 255.661 163.465 254.192 164.3 252.985L164.318 253.003ZM192.359 272.829C191.696 273.319 190.972 273.721 190.205 274.024C187.652 275.052 181.781 274.09 178.744 272.578L169.849 267.232C165.863 264.43 165.332 262.119 165.344 260.225C165.344 260.034 165.344 259.843 165.344 259.664V259.395L174.795 265.751L174.89 265.804C175.642 266.181 176.37 266.587 177.068 266.999C179.102 268.14 181.244 269.323 184.096 269.789C189.847 270.727 192.729 270.984 194.191 270.924C193.68 271.653 193.051 272.291 192.329 272.811L192.359 272.829ZM209.172 268.893C201.708 273.522 196.84 273.797 194.579 273.277C195.67 272.202 196.428 271.001 196.297 270.022C197.89 268.092 200.622 264.395 200.181 262.256C201.32 260.715 202.669 258.021 201.899 255.781C202.084 255.124 202.263 254.383 202.412 253.654V253.547C203.283 249.162 202.967 246.378 201.475 245.243L201.38 245.172L201.135 245.076C201.875 244.36 202.335 243.402 202.43 242.376V242.28C202.489 241.562 202.382 240.84 202.116 240.171C201.85 239.501 201.433 238.902 200.897 238.421C199.704 237.412 197.83 237.018 195.306 237.227L205.449 226.558L205.539 226.444C206.636 224.849 206.881 223.458 206.272 222.382C205.264 220.56 202.406 220.525 201.499 220.56L185.236 220.202L187.885 201.564V180.824H171.776V198.745C171.776 198.982 171.87 199.21 172.038 199.378C172.206 199.546 172.433 199.641 172.671 199.641C172.908 199.641 173.136 199.546 173.303 199.378C173.471 199.21 173.566 198.982 173.566 198.745V186.798H186.095V201.379L183.422 220.16L159.3 219.629L170.946 153.363L160.708 142.103L167.808 134.188L167.391 133.591C167.182 133.298 162.194 126.363 158.668 122.54C157.956 121.776 157.194 121.06 156.389 120.395L181.507 132.014C199.733 141.434 201.947 144.558 205.198 165.711C208.599 187.813 214.279 234.7 215.031 244.473C215.192 250.614 213.712 260.685 209.142 268.875L209.172 268.893ZM186.148 184.982H173.619V182.592H186.148V184.982ZM133.407 81.1306C136.319 83.1139 141.462 85.5153 146.533 85.5153C148.185 85.5688 149.831 85.278 151.366 84.661C152.9 84.044 154.29 83.1143 155.446 81.9311C155.532 81.8473 155.6 81.747 155.646 81.6364C155.692 81.5258 155.716 81.407 155.715 81.2871C155.715 81.1672 155.69 81.0485 155.643 80.9383C155.596 80.828 155.527 80.7285 155.441 80.6453C155.355 80.5621 155.253 80.497 155.141 80.4541C155.029 80.4111 154.91 80.3911 154.79 80.3952C154.671 80.3992 154.553 80.4273 154.444 80.4777C154.335 80.5281 154.238 80.5998 154.158 80.6886C148.436 86.6622 138.747 82.6241 134.427 79.6731C134.33 79.6068 134.221 79.5603 134.106 79.5363C133.991 79.5123 133.872 79.5112 133.757 79.5331C133.641 79.555 133.531 79.5996 133.433 79.6641C133.334 79.7286 133.25 79.8118 133.183 79.9091C133.05 80.1055 132.999 80.3471 133.044 80.5807C133.088 80.8142 133.223 81.0207 133.419 81.1545L133.407 81.1306ZM148.15 72.0209C148.484 72.0209 148.8 72.0628 149.104 72.0628C150.894 72.0628 152.087 71.549 152.756 70.5215C153.913 68.7294 152.69 66.2922 152.284 65.5993C152.225 65.4973 152.147 65.408 152.054 65.3363C151.961 65.2646 151.854 65.212 151.741 65.1814C151.627 65.1509 151.509 65.1431 151.392 65.1584C151.275 65.1737 151.163 65.212 151.061 65.2708C150.959 65.3297 150.87 65.408 150.798 65.5014C150.727 65.5948 150.674 65.7013 150.644 65.815C150.613 65.9287 150.605 66.0474 150.621 66.1641C150.636 66.2808 150.674 66.3933 150.733 66.4953C151.3 67.475 151.7 68.843 151.246 69.5539C150.882 70.1512 149.838 70.3722 148.311 70.2348C148.193 70.2242 148.075 70.2369 147.962 70.2721C147.849 70.3074 147.745 70.3646 147.654 70.4403C147.564 70.516 147.489 70.6088 147.434 70.7134C147.379 70.8181 147.346 70.9325 147.335 71.0502C147.325 71.1679 147.337 71.2866 147.373 71.3993C147.408 71.5121 147.465 71.6168 147.54 71.7075C147.616 71.7982 147.709 71.873 147.813 71.9278C147.918 71.9827 148.032 72.0163 148.15 72.0269V72.0209ZM91.2858 58.7715C91.2429 58.8349 91.195 58.8949 91.1426 58.9507C91.0909 59.0088 91.0329 59.0609 90.9696 59.1061C90.7777 59.2433 90.5494 59.3206 90.3137 59.328C90.0779 59.3355 89.8453 59.2728 89.6451 59.1479L89.4661 59.0343C89.4241 59.7989 89.4381 60.5656 89.5079 61.3282C89.6451 61.388 89.7823 61.4477 89.9136 61.4955C90.1792 61.5984 90.4525 61.6803 90.7309 61.7404C91.0019 61.7977 91.2445 61.9477 91.4171 62.1645C91.2417 61.0424 91.1976 59.9038 91.2858 58.7715ZM91.9958 56.1372L91.8944 56.1968C91.7626 56.2668 91.6189 56.3113 91.4707 56.3282C91.4212 56.3341 91.3711 56.3341 91.3216 56.3282C91.0976 56.3272 90.8784 56.2631 90.6892 56.1432C90.5608 56.0651 90.4373 55.9792 90.3193 55.8862C90.273 55.8557 90.2292 55.8218 90.188 55.7847C90.0948 55.9951 90.0131 56.2105 89.9434 56.4299C90.2517 56.6714 90.5723 56.8966 90.904 57.1048C90.938 57.1233 90.97 57.1454 90.9994 57.1706L91.083 57.2422C91.1428 57.2962 91.1967 57.3563 91.244 57.4215C91.3218 57.5344 91.3803 57.6597 91.4171 57.7919C91.5213 57.203 91.723 56.6357 92.0137 56.1133C92.0137 56.1133 92.0017 56.1312 92.0017 56.1372H91.9958ZM91.6796 63.6042C91.6796 63.5026 91.6318 63.3951 91.6139 63.2936C91.6104 63.3215 91.6002 63.3481 91.5841 63.3711C91.5882 63.3827 91.5882 63.3954 91.5841 63.407C91.5612 63.4594 91.5332 63.5094 91.5006 63.5564C91.4698 63.6022 91.4338 63.6443 91.3932 63.6818C91.3845 63.6966 91.3722 63.7089 91.3574 63.7177C91.3072 63.7698 91.2512 63.8159 91.1904 63.855C90.9258 64.027 90.6041 64.0872 90.2954 64.0223L89.9852 63.9506C90.0687 64.303 90.1522 64.6555 90.2477 65.0019L90.892 65.2589C91.2023 65.3784 91.5185 65.4977 91.8406 65.6112C91.907 65.635 91.9709 65.6651 92.0316 65.7009C92.0617 65.7174 92.0898 65.7373 92.1151 65.7606C92.1727 65.792 92.2234 65.8346 92.2643 65.886C92.2998 65.9102 92.3286 65.9432 92.3478 65.9817C92.414 66.0499 92.4684 66.1285 92.5089 66.2146C92.1804 65.3619 91.9035 64.4902 91.6796 63.6042ZM92.5268 66.4656C92.6068 66.7039 92.6068 66.9619 92.5268 67.2003C92.4318 67.4616 92.2487 67.6815 92.0091 67.8222C91.7695 67.9628 91.4884 68.0155 91.2142 67.9709L91.3276 68.2397H91.4051H91.6796H91.9242C92.0881 68.2302 92.2514 68.2122 92.4134 68.1859C92.7043 68.1094 93.0132 68.1456 93.2785 68.2874C92.997 67.6934 92.7461 67.0854 92.5268 66.4656ZM93.4217 54.8408C93.3862 54.8467 93.3499 54.8467 93.3143 54.8408H93.2427C93.1994 54.8491 93.1548 54.8491 93.1115 54.8408H93.0637L92.9027 54.7692C92.8413 54.7405 92.7849 54.7022 92.7356 54.6558C92.7009 54.6336 92.6689 54.6074 92.6401 54.578C92.495 54.4405 92.3881 54.2677 92.3299 54.0763L92.1688 53.5326C91.9563 53.6467 91.7563 53.7828 91.5722 53.9388L91.7273 54.0584L91.9421 54.2077C92.1608 54.3464 92.3285 54.5524 92.42 54.7949C92.5114 55.0373 92.5217 55.303 92.4492 55.5518C92.7125 55.241 93.0458 54.9972 93.4217 54.8408ZM93.9169 69.4225C93.9113 69.4853 93.8993 69.5473 93.8811 69.6077C93.8511 69.7137 93.809 69.8159 93.7558 69.9123C93.721 69.9767 93.6789 70.0367 93.6305 70.0914C93.8531 70.0654 94.0785 70.1028 94.2808 70.1991C94.3404 70.2273 94.3982 70.2592 94.4538 70.2946C94.2689 69.9899 94.084 69.7271 93.9169 69.4225ZM95.1102 54.5541C95.0693 54.486 95.0353 54.414 95.0087 54.3391C94.9252 54.0942 94.8357 53.8433 94.7581 53.5984C94.6806 53.3535 94.6388 53.2339 94.5851 53.0547C94.5851 52.989 94.5433 52.9234 94.5195 52.8577H94.4598C94.5016 53.007 94.5434 53.1504 94.5911 53.2997C94.6842 53.6016 94.6542 53.928 94.5076 54.2077C94.4056 54.4005 94.253 54.5616 94.0661 54.6737C94.4444 54.6263 94.8272 54.6263 95.2056 54.6737C95.1758 54.6366 95.1498 54.5964 95.128 54.5541H95.1102ZM96.9 55.1157C96.8681 55.0609 96.8421 55.0028 96.8224 54.9425C96.7609 54.9853 96.6949 55.0213 96.6256 55.05C96.727 55.0798 96.8165 55.1156 96.9239 55.1574L96.9 55.1157ZM98.8808 55.2829C98.8563 55.3193 98.8283 55.3534 98.7973 55.3845L98.6541 55.5099C98.6301 55.5203 98.6079 55.5344 98.5884 55.5518C98.4661 55.6294 98.3306 55.6841 98.1887 55.7131L98.7197 55.9639L98.8927 55.2711L98.8808 55.2829ZM104.847 35.1519C104.786 34.8795 104.821 34.5942 104.948 34.3455C105.068 34.1066 105.193 33.8735 105.324 33.6346L103.874 32.9716L102.896 32.5116L98.5228 49.5603C98.5228 49.8052 98.5586 50.0501 98.5765 50.289C98.6123 50.6713 98.6481 51.0596 98.6958 51.4419C98.6958 51.6569 98.7435 51.878 98.7793 52.0931C98.7764 52.1249 98.7764 52.1568 98.7793 52.1886C98.8211 52.4873 98.8629 52.786 98.9106 53.1026C98.9464 53.3057 98.9762 53.5028 99.012 53.6999C99.0478 53.8971 99.0836 54.1002 99.1194 54.2973C99.1194 54.2973 99.1194 54.2973 99.1194 54.3332L104.077 35.0205L104.936 35.4148C104.905 35.3538 104.879 35.2897 104.859 35.2236C104.853 35.2177 104.847 35.1877 104.835 35.1519H104.847ZM118.116 38.6644C116.827 38.2224 115.52 37.7564 114.208 37.2606C114.029 37.4955 113.856 37.7285 113.689 37.9594C113.598 38.0872 113.482 38.1957 113.349 38.2787C113.216 38.3617 113.068 38.4177 112.913 38.4433C112.68 38.4818 112.441 38.4503 112.226 38.3526C112.011 38.255 111.83 38.0956 111.705 37.8948C111.581 37.694 111.519 37.4608 111.526 37.2246C111.534 36.9883 111.612 36.7597 111.75 36.5677L111.887 36.3825C110.378 35.7851 108.904 35.1878 107.52 34.5904C107.365 34.8692 107.216 35.1499 107.072 35.4326C107.044 35.4879 107.01 35.54 106.971 35.5879C106.953 35.6235 106.928 35.6559 106.899 35.6836C106.875 35.711 106.849 35.7368 106.822 35.7612C106.767 35.8154 106.705 35.8616 106.637 35.8986C106.598 35.9251 106.556 35.9472 106.512 35.9644L106.35 36.024C108.14 36.8065 110.103 37.5951 112.102 38.3598C113.51 38.8974 115.353 39.5844 117.471 40.3251C117.42 40.1999 117.392 40.0662 117.388 39.9308C117.376 39.6154 117.49 39.3083 117.704 39.0766L118.116 38.6644ZM125.108 42.6428C125.003 42.5257 124.922 42.389 124.87 42.2406C124.818 42.0921 124.796 41.9347 124.805 41.7777C124.814 41.6206 124.854 41.4668 124.922 41.3251C124.991 41.1835 125.086 41.0568 125.204 40.9522H125.239C123.736 40.5221 122.197 40.0503 120.634 39.5365C120.228 39.9428 119.834 40.343 119.44 40.7313C119.404 40.7735 119.362 40.8097 119.315 40.8388C119.287 40.8714 119.252 40.8979 119.214 40.9165C121.093 41.5138 123.145 42.1888 125.293 42.8041C125.222 42.7575 125.156 42.7034 125.096 42.6428H125.108ZM136.766 44.9546C136.694 44.6461 136.748 44.3216 136.915 44.0526C136.993 43.9272 137.076 43.8076 137.166 43.6822C134.338 43.2222 131.259 42.5531 128.002 41.6929L127.924 41.7587C127.542 42.0753 127.167 42.4038 126.791 42.7383C126.638 42.8766 126.45 42.9698 126.248 43.0072C126.226 43.0128 126.204 43.0128 126.182 43.0072C126.151 43.0131 126.118 43.0131 126.087 43.0072C129.701 44.0401 133.37 44.8697 137.076 45.4922C137.04 45.461 137.008 45.4249 136.981 45.3847C136.873 45.2599 136.794 45.1132 136.748 44.9546H136.766ZM152.278 65.5993C152.219 65.4973 152.141 65.408 152.048 65.3363C151.955 65.2646 151.848 65.212 151.735 65.1814C151.621 65.1509 151.503 65.1431 151.386 65.1584C151.269 65.1737 151.157 65.212 151.055 65.2708C150.953 65.3297 150.864 65.408 150.792 65.5014C150.721 65.5948 150.668 65.7013 150.638 65.815C150.607 65.9287 150.6 66.0474 150.615 66.1641C150.63 66.2808 150.668 66.3933 150.727 66.4953C151.294 67.475 151.694 68.843 151.24 69.5539C150.876 70.1512 149.832 70.3722 148.305 70.2348C148.187 70.2242 148.069 70.2369 147.956 70.2721C147.844 70.3074 147.739 70.3646 147.648 70.4403C147.558 70.516 147.483 70.6088 147.428 70.7134C147.373 70.8181 147.34 70.9325 147.329 71.0502C147.319 71.1679 147.331 71.2866 147.367 71.3993C147.402 71.5121 147.459 71.6168 147.534 71.7075C147.61 71.7982 147.703 71.873 147.807 71.9278C147.912 71.9827 148.026 72.0163 148.144 72.0269C148.478 72.0269 148.794 72.0687 149.098 72.0687C150.888 72.0687 152.081 71.555 152.75 70.5275C153.913 68.7055 152.69 66.2922 152.26 65.5993H152.278ZM155.405 80.6409C155.322 80.5571 155.223 80.4904 155.115 80.445C155.006 80.3996 154.89 80.3763 154.772 80.3763C154.654 80.3763 154.538 80.3996 154.429 80.445C154.321 80.4904 154.222 80.5571 154.14 80.6409C148.418 86.6145 138.729 82.5762 134.409 79.6253C134.213 79.4914 133.972 79.4412 133.739 79.4854C133.505 79.5297 133.299 79.6648 133.166 79.8612C133.032 80.0577 132.982 80.2994 133.026 80.533C133.07 80.7666 133.205 80.973 133.401 81.1069C136.313 83.0901 141.456 85.4914 146.527 85.4914C148.18 85.5449 149.825 85.2541 151.36 84.6371C152.894 84.0201 154.284 83.0904 155.44 81.9072C155.522 81.8225 155.586 81.7224 155.629 81.6126C155.672 81.5029 155.693 81.3857 155.69 81.2679C155.687 81.1501 155.661 81.0339 155.613 80.9263C155.565 80.8187 155.496 80.7217 155.411 80.6409H155.405ZM155.405 80.6409C155.322 80.5571 155.223 80.4904 155.115 80.445C155.006 80.3996 154.89 80.3763 154.772 80.3763C154.654 80.3763 154.538 80.3996 154.429 80.445C154.321 80.4904 154.222 80.5571 154.14 80.6409C148.418 86.6145 138.729 82.5762 134.409 79.6253C134.213 79.4914 133.972 79.4412 133.739 79.4854C133.505 79.5297 133.299 79.6648 133.166 79.8612C133.032 80.0577 132.982 80.2994 133.026 80.533C133.07 80.7666 133.205 80.973 133.401 81.1069C136.313 83.0901 141.456 85.4914 146.527 85.4914C148.18 85.5449 149.825 85.2541 151.36 84.6371C152.894 84.0201 154.284 83.0904 155.44 81.9072C155.522 81.8225 155.586 81.7224 155.629 81.6126C155.672 81.5029 155.693 81.3857 155.69 81.2679C155.687 81.1501 155.661 81.0339 155.613 80.9263C155.565 80.8187 155.496 80.7217 155.411 80.6409H155.405ZM152.26 65.5993C152.142 65.3933 151.946 65.2431 151.717 65.1814C151.487 65.1198 151.243 65.152 151.037 65.2708C150.832 65.3897 150.681 65.5853 150.62 65.815C150.558 66.0446 150.59 66.2894 150.709 66.4953C151.276 67.475 151.676 68.843 151.222 69.5539C150.858 70.1512 149.814 70.3722 148.287 70.2348C148.169 70.2242 148.051 70.2369 147.938 70.2721C147.826 70.3074 147.721 70.3646 147.63 70.4403C147.54 70.516 147.465 70.6088 147.41 70.7134C147.356 70.8181 147.322 70.9325 147.311 71.0502C147.301 71.1679 147.313 71.2866 147.349 71.3993C147.384 71.5121 147.441 71.6168 147.517 71.7075C147.592 71.7982 147.685 71.873 147.789 71.9278C147.894 71.9827 148.008 72.0163 148.126 72.0269C148.46 72.0269 148.776 72.0687 149.08 72.0687C150.87 72.0687 152.063 71.555 152.732 70.5275C153.913 68.7055 152.69 66.2922 152.26 65.5993ZM91.2858 58.7715C91.2429 58.8349 91.195 58.8949 91.1426 58.9507C91.0909 59.0088 91.0329 59.0609 90.9696 59.1061C90.7777 59.2433 90.5494 59.3206 90.3137 59.328C90.0779 59.3355 89.8453 59.2728 89.6451 59.1479L89.4661 59.0343C89.4241 59.7989 89.4381 60.5656 89.5079 61.3282C89.6451 61.388 89.7823 61.4477 89.9136 61.4955C90.1792 61.5984 90.4525 61.6803 90.7309 61.7404C91.0019 61.7977 91.2445 61.9477 91.4171 62.1645C91.2417 61.0424 91.1976 59.9038 91.2858 58.7715ZM91.9958 56.1372L91.8944 56.1968C91.7626 56.2668 91.6189 56.3113 91.4707 56.3282C91.4212 56.3341 91.3711 56.3341 91.3216 56.3282C91.0976 56.3272 90.8784 56.2631 90.6892 56.1432C90.5608 56.0651 90.4373 55.9792 90.3193 55.8862C90.273 55.8557 90.2292 55.8218 90.188 55.7847C90.0948 55.9951 90.0131 56.2105 89.9434 56.4299C90.2517 56.6714 90.5723 56.8966 90.904 57.1048C90.938 57.1233 90.97 57.1454 90.9994 57.1706L91.083 57.2422C91.1428 57.2962 91.1967 57.3563 91.244 57.4215C91.3218 57.5344 91.3803 57.6597 91.4171 57.7919C91.5213 57.203 91.723 56.6357 92.0137 56.1133C92.0137 56.1133 92.0017 56.1312 92.0017 56.1372H91.9958ZM91.6796 63.6042C91.6796 63.5026 91.6318 63.3951 91.6139 63.2936C91.6104 63.3215 91.6002 63.3481 91.5841 63.3711C91.5882 63.3827 91.5882 63.3954 91.5841 63.407C91.5612 63.4594 91.5332 63.5094 91.5006 63.5564C91.4698 63.6022 91.4338 63.6443 91.3932 63.6818C91.3845 63.6966 91.3722 63.7089 91.3574 63.7177C91.3072 63.7698 91.2512 63.8159 91.1904 63.855C90.9258 64.027 90.6041 64.0872 90.2954 64.0223L89.9852 63.9506C90.0687 64.303 90.1522 64.6555 90.2477 65.0019L90.892 65.2589C91.2023 65.3784 91.5185 65.4977 91.8406 65.6112C91.907 65.635 91.9709 65.6651 92.0316 65.7009C92.0617 65.7174 92.0898 65.7373 92.1151 65.7606C92.1727 65.792 92.2234 65.8346 92.2643 65.886C92.2998 65.9102 92.3286 65.9432 92.3478 65.9817C92.414 66.0499 92.4684 66.1285 92.5089 66.2146C92.1804 65.3619 91.9035 64.4902 91.6796 63.6042ZM93.4217 54.8408C93.3862 54.8467 93.3499 54.8467 93.3143 54.8408H93.2427C93.1994 54.8491 93.1548 54.8491 93.1115 54.8408H93.0637L92.9027 54.7692C92.8413 54.7405 92.7849 54.7022 92.7356 54.6558C92.7009 54.6336 92.6689 54.6074 92.6401 54.578C92.495 54.4405 92.3881 54.2677 92.3299 54.0763L92.1688 53.5326C91.9563 53.6467 91.7563 53.7828 91.5722 53.9388L91.7273 54.0584L91.9421 54.2077C92.1608 54.3464 92.3285 54.5524 92.42 54.7949C92.5114 55.0373 92.5217 55.303 92.4492 55.5518C92.7125 55.241 93.0458 54.9972 93.4217 54.8408ZM92.5268 66.4656C92.6068 66.7039 92.6068 66.9619 92.5268 67.2003C92.4318 67.4616 92.2487 67.6815 92.0091 67.8222C91.7695 67.9628 91.4884 68.0155 91.2142 67.9709L91.3276 68.2397H91.4051H91.6796H91.9242C92.0881 68.2302 92.2514 68.2122 92.4134 68.1859C92.7043 68.1094 93.0132 68.1456 93.2785 68.2874C92.997 67.6934 92.7461 67.0854 92.5268 66.4656ZM93.9169 69.4524C93.9113 69.5152 93.8993 69.5771 93.8811 69.6374C93.8511 69.7434 93.809 69.8457 93.7558 69.9421C93.721 70.0064 93.6789 70.0666 93.6305 70.1213C93.8531 70.0953 94.0785 70.1326 94.2808 70.2288C94.3404 70.2571 94.3982 70.2891 94.4538 70.3245C94.2689 69.99 94.084 69.7271 93.9169 69.4225V69.4524ZM95.1102 54.584C95.0693 54.5159 95.0353 54.4439 95.0087 54.369C94.9252 54.1241 94.8357 53.8732 94.7581 53.6283C94.6806 53.3834 94.6388 53.2638 94.5851 53.0846C94.5851 53.0189 94.5433 52.9533 94.5195 52.8876H94.4598C94.5016 53.0369 94.5434 53.1803 94.5911 53.3296C94.6842 53.6315 94.6542 53.9578 94.5076 54.2375C94.4056 54.4302 94.253 54.5914 94.0661 54.7034C94.4444 54.6561 94.8272 54.6561 95.2056 54.7034C95.1763 54.6556 95.1503 54.6056 95.128 54.5541L95.1102 54.584ZM96.9 55.1455C96.8681 55.0906 96.8421 55.0327 96.8224 54.9724C96.7609 55.0152 96.6949 55.0512 96.6256 55.0799C96.727 55.1097 96.8165 55.1455 96.9239 55.1873L96.9 55.1455ZM98.8808 55.3128C98.8563 55.3492 98.8283 55.3833 98.7973 55.4144L98.6541 55.5398C98.6301 55.5502 98.6079 55.5642 98.5884 55.5815C98.4661 55.6592 98.3306 55.7138 98.1887 55.7428L98.7197 55.9938L98.8927 55.3008L98.8808 55.3128ZM104.847 35.1818C104.786 34.9094 104.821 34.624 104.948 34.3753C105.068 34.1363 105.193 33.9034 105.324 33.6645L103.874 33.0015L102.896 32.5415L98.5228 49.5902C98.5228 49.8351 98.5586 50.08 98.5765 50.3189C98.6123 50.7012 98.6481 51.0895 98.6958 51.4718C98.6958 51.6868 98.7435 51.9079 98.7793 52.123C98.7764 52.1548 98.7764 52.1867 98.7793 52.2185C98.8211 52.5172 98.8629 52.8159 98.9106 53.1325C98.9464 53.3356 98.9762 53.5327 99.012 53.7298C99.0478 53.9269 99.0836 54.1301 99.1194 54.3272C99.1194 54.3272 99.1194 54.3272 99.1194 54.3631L104.077 35.0504L104.936 35.4446C104.905 35.3835 104.879 35.3196 104.859 35.2535C104.853 35.2177 104.847 35.1877 104.835 35.1519L104.847 35.1818ZM118.116 38.6943C116.827 38.2523 115.52 37.7863 114.208 37.2905C114.029 37.5254 113.856 37.7584 113.689 37.9893C113.598 38.1171 113.482 38.2256 113.349 38.3086C113.216 38.3916 113.068 38.4476 112.913 38.4732C112.68 38.5117 112.441 38.4802 112.226 38.3825C112.011 38.2849 111.83 38.1255 111.705 37.9247C111.581 37.7239 111.519 37.4907 111.526 37.2544C111.534 37.0182 111.612 36.7896 111.75 36.5976L111.887 36.4124C110.378 35.815 108.904 35.2177 107.52 34.6203C107.365 34.8991 107.216 35.1798 107.072 35.4625C107.044 35.5178 107.01 35.5699 106.971 35.6178C106.953 35.6534 106.928 35.6858 106.899 35.7135C106.875 35.7409 106.849 35.7667 106.822 35.7911C106.767 35.8453 106.705 35.8915 106.637 35.9285C106.598 35.955 106.556 35.9771 106.512 35.9942L106.35 36.0539C108.14 36.8364 110.103 37.625 112.102 38.3897C113.51 38.9273 115.353 39.6141 117.471 40.3549C117.42 40.2296 117.392 40.0961 117.388 39.9607C117.376 39.6453 117.49 39.3382 117.704 39.1065L118.116 38.6943ZM125.108 42.6727C125.003 42.5556 124.922 42.4188 124.87 42.2703C124.818 42.1219 124.796 41.9646 124.805 41.8076C124.814 41.6505 124.854 41.4967 124.922 41.355C124.991 41.2134 125.086 41.0866 125.204 40.9821H125.239C123.736 40.552 122.197 40.0802 120.634 39.5664C120.228 39.9727 119.834 40.3729 119.44 40.7612C119.404 40.8034 119.362 40.8396 119.315 40.8686C119.284 40.8978 119.25 40.9237 119.214 40.9462C121.093 41.5436 123.145 42.2187 125.293 42.834C125.22 42.7781 125.154 42.7139 125.096 42.6428L125.108 42.6727ZM136.766 44.9844C136.694 44.6758 136.748 44.3514 136.915 44.0824C136.993 43.9569 137.076 43.8375 137.166 43.7121C134.338 43.2521 131.259 42.583 128.002 41.7228L127.924 41.7886C127.542 42.1052 127.167 42.4337 126.791 42.7682C126.638 42.9065 126.45 42.9995 126.248 43.037C126.226 43.0426 126.204 43.0426 126.182 43.037C126.151 43.0428 126.118 43.0428 126.087 43.037C129.701 44.0698 133.37 44.8996 137.076 45.5221C137.04 45.4909 137.008 45.4548 136.981 45.4146C136.869 45.2811 136.79 45.1237 136.748 44.9546L136.766 44.9844ZM152.278 65.6292C152.219 65.5272 152.141 65.4378 152.048 65.3661C151.955 65.2944 151.848 65.2419 151.735 65.2113C151.621 65.1808 151.503 65.173 151.386 65.1883C151.269 65.2036 151.157 65.2418 151.055 65.3006C150.953 65.3594 150.864 65.4378 150.792 65.5312C150.721 65.6246 150.668 65.7312 150.638 65.8449C150.607 65.9586 150.6 66.0773 150.615 66.194C150.63 66.3107 150.668 66.4232 150.727 66.5252C151.294 67.5049 151.694 68.8729 151.24 69.5838C150.876 70.1811 149.832 70.4021 148.305 70.2647C148.187 70.2541 148.069 70.2668 147.956 70.302C147.844 70.3373 147.739 70.3945 147.648 70.4702C147.558 70.5459 147.483 70.6387 147.428 70.7433C147.373 70.848 147.34 70.9624 147.329 71.0801C147.319 71.1978 147.331 71.3163 147.367 71.4291C147.402 71.5418 147.459 71.6467 147.534 71.7374C147.61 71.8281 147.703 71.9029 147.807 71.9577C147.912 72.0126 148.026 72.0462 148.144 72.0568C148.478 72.0568 148.794 72.0986 149.098 72.0986C150.888 72.0986 152.081 71.5849 152.75 70.5574C153.913 68.7056 152.69 66.2922 152.26 65.5993L152.278 65.6292ZM155.405 80.6706C155.322 80.5868 155.223 80.5203 155.115 80.4749C155.006 80.4295 154.89 80.4062 154.772 80.4062C154.654 80.4062 154.538 80.4295 154.429 80.4749C154.321 80.5203 154.222 80.5868 154.14 80.6706C148.418 86.6442 138.729 82.6061 134.409 79.6552C134.213 79.5213 133.972 79.4711 133.739 79.5153C133.505 79.5596 133.299 79.6947 133.166 79.8911C133.032 80.0876 132.982 80.3292 133.026 80.5627C133.07 80.7963 133.205 81.0027 133.401 81.1366C136.313 83.1198 141.456 85.5213 146.527 85.5213C148.18 85.5748 149.825 85.2838 151.36 84.6668C152.894 84.0498 154.284 83.1203 155.44 81.9371C155.527 81.8519 155.595 81.7499 155.64 81.6373C155.686 81.5247 155.708 81.404 155.705 81.2826C155.702 81.1612 155.675 81.0415 155.624 80.9311C155.573 80.8208 155.501 80.7221 155.411 80.6409L155.405 80.6706ZM155.405 80.6706C155.322 80.5868 155.223 80.5203 155.115 80.4749C155.006 80.4295 154.89 80.4062 154.772 80.4062C154.654 80.4062 154.538 80.4295 154.429 80.4749C154.321 80.5203 154.222 80.5868 154.14 80.6706C148.418 86.6442 138.729 82.6061 134.409 79.6552C134.213 79.5213 133.972 79.4711 133.739 79.5153C133.505 79.5596 133.299 79.6947 133.166 79.8911C133.032 80.0876 132.982 80.3292 133.026 80.5627C133.07 80.7963 133.205 81.0027 133.401 81.1366C136.313 83.1198 141.456 85.5213 146.527 85.5213C148.18 85.5748 149.825 85.2838 151.36 84.6668C152.894 84.0498 154.284 83.1203 155.44 81.9371C155.527 81.8519 155.595 81.7499 155.64 81.6373C155.686 81.5247 155.708 81.404 155.705 81.2826C155.702 81.1612 155.675 81.0415 155.624 80.9311C155.573 80.8208 155.501 80.7221 155.411 80.6409L155.405 80.6706ZM152.26 65.5993C152.142 65.3933 151.946 65.2431 151.717 65.1814C151.487 65.1198 151.243 65.152 151.037 65.2708C150.832 65.3897 150.681 65.5853 150.62 65.815C150.558 66.0446 150.59 66.2894 150.709 66.4953C151.276 67.475 151.676 68.843 151.222 69.5539C150.858 70.1512 149.814 70.3722 148.287 70.2348C148.169 70.2242 148.051 70.2369 147.938 70.2721C147.826 70.3074 147.721 70.3646 147.63 70.4403C147.54 70.516 147.465 70.6088 147.41 70.7134C147.356 70.8181 147.322 70.9325 147.311 71.0502C147.301 71.1679 147.313 71.2866 147.349 71.3993C147.384 71.5121 147.441 71.6168 147.517 71.7075C147.592 71.7982 147.685 71.873 147.789 71.9278C147.894 71.9827 148.008 72.0163 148.126 72.0269C148.46 72.0269 148.776 72.0687 149.08 72.0687C150.87 72.0687 152.063 71.555 152.732 70.5275C153.913 68.7055 152.69 66.2922 152.26 65.5993Z" fill="black"/>
<path d="M130.035 57.8394C131.353 57.8394 132.421 56.7696 132.421 55.45C132.421 54.1303 131.353 53.0605 130.035 53.0605C128.717 53.0605 127.648 54.1303 127.648 55.45C127.648 56.7696 128.717 57.8394 130.035 57.8394Z" fill="black"/>
<path d="M153.301 59.6317C154.619 59.6317 155.687 58.5619 155.687 57.2422C155.687 55.9226 154.619 54.8528 153.301 54.8528C151.983 54.8528 150.914 55.9226 150.914 57.2422C150.914 58.5619 151.983 59.6317 153.301 59.6317Z" fill="black"/>
<path d="M89.4425 87.2475C88.9149 87.2567 88.3881 87.2027 87.8734 87.0864C87.5097 87.0243 87.1647 86.8807 86.8641 86.6667C86.5635 86.4526 86.3151 86.1734 86.1372 85.8498C85.7126 85.0265 85.3419 84.1765 85.0275 83.305C84.9604 83.1093 84.9046 82.9099 84.8605 82.7077C84.8605 82.6599 84.8605 82.6121 84.8605 82.5763C84.3414 80.7543 84.0252 79.9 83.5539 78.6157L83.4644 78.3828C83.3629 78.2096 83.2674 78.0005 83.1839 77.8273C83.1208 77.6779 83.0491 77.5322 82.9691 77.3911C81.9149 75.6466 80.9762 73.8348 80.1591 71.9672C79.825 71.2384 79.4968 70.5335 79.1627 69.8525C77.3055 66.1219 75.811 62.2211 74.7 58.204C73.6369 54.3851 73.036 50.4521 72.9101 46.4897C72.8565 44.5483 72.9102 41.6511 73.113 38.9212C73.2642 32.689 74.9817 26.5955 78.1067 21.2036C80.0219 17.4342 82.116 14.2383 83.8462 12.4283C87.0943 8.90787 91.3003 6.41605 95.9456 5.25994C98.8989 1.81915 102.646 1.37712 108.785 0.654318L109.525 0.564772C113.942 0.250219 118.376 0.250219 122.794 0.564772L123.521 0.612608C130.842 1.13231 136.128 1.50263 147.386 5.19431C150.632 6.01269 152.893 6.80112 155.739 7.79273L157.922 8.54541C158.639 8.77583 159.303 9.14572 159.876 9.63367C160.45 10.1216 160.921 10.718 161.264 11.3889C161.45 11.7688 161.591 12.1699 161.681 12.5836C161.866 12.709 162.051 12.8405 162.23 12.9839C163.03 13.603 163.718 14.3545 164.265 15.2061C165.031 16.5269 165.699 17.9025 166.263 19.3218C166.573 20.0446 166.86 20.7078 167.039 21.1976L167.134 21.4305V21.4843C167.182 21.5978 167.218 21.6994 167.248 21.777L167.421 22.3744L167.48 22.7267C167.534 23.0254 167.606 23.4376 167.695 23.9214C167.916 25.1162 168.113 26.0481 168.292 26.6335C168.566 27.643 168.614 27.87 169.008 29.6203C169.217 30.5462 169.515 31.8903 169.992 33.981L170.052 34.2319L169.998 34.4829C169.83 35.1685 169.467 35.7909 168.954 36.2749C168.422 36.8103 167.836 37.2887 167.206 37.7026C165.717 38.6895 164.16 39.5699 162.546 40.337C160.953 41.1255 159.384 41.8304 158.119 42.3979L157.988 42.4575C157.391 42.7323 156.843 42.9714 156.455 43.1565L156.025 43.3715H155.966C155.889 43.4349 155.805 43.4891 155.715 43.5328L155.536 43.6463L155.5 43.6105C155.246 43.6752 154.978 43.6544 154.737 43.5515C154.496 43.4485 154.296 43.269 154.167 43.0407C154.038 42.8124 153.988 42.548 154.024 42.2882C154.06 42.0284 154.18 41.7878 154.367 41.6033C154.52 41.4581 154.695 41.3372 154.886 41.2449C155.029 41.1612 155.214 41.0717 155.429 40.9701C155.834 40.773 156.383 40.5281 157.016 40.2413L157.135 40.1877C158.328 39.662 159.921 38.9391 161.49 38.1625C163.001 37.446 164.46 36.6258 165.858 35.7075L166.168 35.4864C165.165 35.57 164.014 35.7014 162.779 35.8806C159.673 36.3398 156.595 36.9762 153.561 37.7863C150.438 38.584 147.397 39.6781 144.481 41.0538C141.706 42.4158 139.839 43.8554 138.92 45.3249C138.752 45.5942 138.485 45.7858 138.176 45.8575C137.867 45.9292 137.542 45.8752 137.273 45.7073C137.004 45.5393 136.813 45.2712 136.742 44.962C136.67 44.6528 136.724 44.3279 136.892 44.0586C138.085 42.2067 140.251 40.4743 143.454 38.9092C146.51 37.4649 149.697 36.3167 152.971 35.4804C156.095 34.6462 159.264 33.9901 162.463 33.5151C163.059 33.4314 163.62 33.3598 164.169 33.2941C155.631 29.8772 146.676 30.5342 137.518 35.2713L137.405 35.3669C137.235 35.5126 137.029 35.6078 136.808 35.6417C133.206 37.6136 129.845 39.997 126.791 42.7442C126.554 42.955 126.242 43.0627 125.926 43.0437C125.609 43.0246 125.313 42.8804 125.102 42.6427C124.892 42.4051 124.784 42.0935 124.803 41.7765C124.822 41.4594 124.967 41.1629 125.204 40.9522C128.53 37.96 132.206 35.3826 136.152 33.2762C140.006 30.0385 145.25 27.3504 152.177 25.0625C156.019 23.7901 159.665 22.8761 162.594 22.1413L164.658 21.6217C164.497 21.2274 164.3 20.7555 164.092 20.2657C163.574 18.9682 162.966 17.7086 162.272 16.4963C161.872 15.8743 161.37 15.3249 160.786 14.8715C160.691 14.7938 160.595 14.7281 160.512 14.6683L159.802 14.9969C158.973 15.3912 157.767 15.9587 156.288 16.6875C153.585 18.0077 149.397 20.1283 144.785 22.697C136.677 27.213 125.693 34.0109 119.452 40.7193C119.234 40.9396 118.939 41.0666 118.63 41.0731C118.32 41.0796 118.02 40.9651 117.793 40.7541C117.566 40.5431 117.43 40.252 117.413 39.9422C117.397 39.6325 117.501 39.3285 117.704 39.0945C122.901 33.5211 131.618 27.3026 143.622 20.6122C147.35 18.5334 151.258 16.4903 155.238 14.5369C156.735 13.8082 157.946 13.2288 158.788 12.8346L159.229 12.6314C159.229 12.5657 159.175 12.4999 159.146 12.4342C158.778 11.7308 158.167 11.1853 157.427 10.8991C153.311 11.5921 145.28 14.4832 136.42 19.3756C126.349 24.9609 118.271 31.5676 113.683 37.9594C113.592 38.0871 113.477 38.1956 113.343 38.2786C113.21 38.3617 113.062 38.4176 112.908 38.4433C112.675 38.4818 112.435 38.4502 112.22 38.3526C112.005 38.2549 111.824 38.0956 111.7 37.8948C111.575 37.694 111.513 37.4608 111.521 37.2245C111.529 36.9883 111.606 36.7596 111.744 36.5676C117.883 28.0075 127.924 21.3589 135.263 17.2849C140.979 14.0619 147.011 11.4356 153.263 9.44743C151.175 8.73657 149.355 8.15118 146.903 7.52395C144.88 7.55382 141.975 8.22296 138.717 9.4117C134.769 10.8901 130.973 12.7465 127.382 14.9552C118.194 20.5704 110.986 27.8461 107.096 35.4386C106.952 35.7206 106.701 35.9335 106.399 36.0304C106.098 36.1273 105.77 36.1002 105.489 35.9553C105.207 35.8103 104.994 35.5593 104.898 35.2574C104.801 34.9555 104.828 34.6275 104.972 34.3455C109.071 26.3648 116.595 18.7543 126.152 12.9181C129.882 10.6222 133.827 8.6957 137.93 7.16562C139.286 6.67579 140.569 6.27755 141.778 5.9709C134.022 3.76067 129.476 3.4381 123.396 2.98411L122.955 2.95421C120.741 3.9757 117.979 6.10832 115.157 8.97564C111.684 12.5484 108.657 16.5299 106.142 20.8331C101.536 28.6526 96.5959 40.8148 99.1554 54.3152C99.1841 54.4698 99.1819 54.6285 99.1492 54.7823C99.1164 54.9361 99.0537 55.0818 98.9645 55.2112C98.8404 55.3939 98.6681 55.5386 98.4668 55.6292C98.2654 55.7197 98.043 55.7525 97.8241 55.724C97.6053 55.6955 97.3986 55.6069 97.2271 55.4679C97.0555 55.3288 96.9259 55.1449 96.8525 54.9364C96.7706 54.9944 96.68 55.0387 96.584 55.0678C96.4359 55.1198 96.2791 55.142 96.1225 55.1332C95.9658 55.1244 95.8124 55.0846 95.6711 55.0164C95.5298 54.9481 95.4034 54.8526 95.2989 54.7353C95.1945 54.6181 95.1142 54.4815 95.0626 54.3331C90.4687 41.1912 93.0461 28.6467 96.0232 20.4688C97.6103 16.0449 99.7321 11.8321 102.341 7.92428C103.414 6.31779 104.611 4.79778 105.921 3.37831C101.614 3.97567 99.4657 4.66854 97.5685 7.04604C94.5197 10.8632 92.3659 17.6911 91.6559 25.7913C90.908 35.0572 91.9203 44.3811 94.639 53.2698C94.7322 53.5716 94.7022 53.8981 94.5555 54.1778C94.4456 54.3869 94.2761 54.5586 94.0686 54.6713C93.8612 54.784 93.625 54.8325 93.39 54.8107C93.1549 54.789 92.9316 54.6979 92.7483 54.5491C92.565 54.4003 92.4298 54.2004 92.3599 53.9746C89.548 44.7909 88.5014 35.1564 89.2754 25.5821C89.872 18.7005 91.4829 12.6733 93.8396 8.37828C90.8171 9.60461 88.0854 11.4524 85.821 13.8022C84.6278 19.1127 84.5144 28.0553 85.4809 36.1435C85.8868 40.0437 86.7028 43.8901 87.9151 47.6188C89.0607 50.8983 90.4746 53.1383 91.996 54.106C92.1284 54.19 92.243 54.2992 92.3333 54.4275C92.4235 54.5557 92.4877 54.7007 92.522 54.8538C92.5564 55.0069 92.5602 55.1653 92.5335 55.3199C92.5067 55.4745 92.4497 55.6222 92.3659 55.7548C92.2821 55.8873 92.173 56.0022 92.0449 56.0925C91.9168 56.1829 91.7721 56.247 91.6192 56.2814C91.4663 56.3158 91.3081 56.3197 91.1537 56.2929C90.9993 56.2661 90.8516 56.2091 90.7192 56.1252C88.7086 54.8468 87.0083 52.2543 85.6659 48.4073C84.3968 44.5156 83.5389 40.5012 83.1064 36.4303C82.3607 30.227 82.2607 23.9628 82.8081 17.7389C81.9549 19.0829 81.0838 20.6241 80.2545 22.243C78.6609 25.3054 77.3816 28.5216 76.4362 31.8424L76.6688 32.4876C78.1459 36.6551 79.8346 40.7444 81.7282 44.7395C82.9493 47.2994 84.378 49.7549 86 52.0811C87.3119 54.0485 88.9865 55.7474 90.934 57.0869C91.0674 57.1698 91.1832 57.2784 91.2746 57.4062C91.366 57.5341 91.4313 57.6788 91.4668 57.832C91.5023 57.9851 91.5072 58.1437 91.4813 58.2988C91.4554 58.4539 91.3992 58.6023 91.3159 58.7356C91.1485 59.0037 90.8819 59.1945 90.5744 59.2661C90.2669 59.3378 89.9435 59.2846 89.6751 59.118C87.4587 57.6151 85.5526 55.6985 84.061 53.4729C82.3609 51.0399 80.8643 48.4704 79.5863 45.7908C78.047 42.6428 76.7524 39.4589 75.7023 36.723C75.6367 37.4517 75.577 38.2282 75.5233 39.0406C75.3563 41.5376 75.2787 44.2078 75.3086 46.0716C77.3578 49.3363 79.6789 52.4216 82.2473 55.2948C83.6185 56.8499 85.1238 58.2812 86.7458 59.572C87.9138 60.5674 89.2838 61.2969 90.761 61.7104C90.9931 61.7583 91.2058 61.8743 91.3718 62.0437C91.5378 62.213 91.6497 62.428 91.6933 62.6613C91.7368 62.8945 91.7099 63.1354 91.6162 63.3533C91.5224 63.5712 91.3659 63.7563 91.1667 63.8849C90.9022 64.0569 90.5804 64.117 90.2718 64.0522C88.4416 63.5668 86.7407 62.6837 85.29 61.4655C83.5549 60.0881 81.9456 58.5589 80.4813 56.8958C78.7675 54.9967 77.162 53.0023 75.6725 50.9222C75.951 53.0517 76.3675 55.1608 76.9194 57.2362C78.8942 59.0283 84.3473 62.959 91.8349 65.665C92.1239 65.779 92.3571 66.0014 92.485 66.2848C92.6128 66.5683 92.6252 66.8904 92.5196 67.1829C92.4139 67.4754 92.1985 67.715 91.9192 67.851C91.6398 67.987 91.3185 68.0086 91.0235 67.9111C86.4593 66.2678 82.1336 64.024 78.1604 61.2386C78.981 63.5882 79.9332 65.8896 81.0123 68.132C83.1959 68.1977 85.5943 68.2516 87.4975 68.2636C88.8638 68.2636 89.9854 68.2636 90.8386 68.2636C91.292 68.2636 91.6798 68.2635 91.9841 68.2157C92.148 68.2063 92.3113 68.1883 92.4733 68.1619C92.6249 68.1211 92.783 68.1108 92.9386 68.1313C93.0943 68.1518 93.2443 68.2027 93.3802 68.2814C93.5154 68.3609 93.6337 68.4664 93.7282 68.5917C93.8226 68.7171 93.8915 68.8599 93.9309 69.0119C93.9702 69.1639 93.9793 69.3222 93.9575 69.4777C93.9356 69.6332 93.8834 69.7828 93.8038 69.9181C93.769 69.9824 93.7269 70.0426 93.6785 70.0974C93.888 70.0774 94.099 70.1134 94.2901 70.2015C94.4813 70.2896 94.6458 70.4267 94.7669 70.5989C94.8881 70.7712 94.9616 70.9724 94.98 71.1823C94.9984 71.3921 94.961 71.6032 94.8717 71.7939C94.7752 71.9909 94.6391 72.1657 94.472 72.3076C94.3621 72.4101 94.2444 72.5041 94.12 72.5885C93.8873 72.7557 93.589 72.9528 93.2012 73.1858C92.5509 73.586 91.65 74.0937 90.5283 74.697C88.7027 75.6826 86.7219 76.6982 85.5883 77.2717L85.6659 77.4449L85.7792 77.7496C86.1372 78.7233 86.4057 79.4521 86.7278 80.4795C87.7063 79.7986 88.9891 78.8248 90.3732 77.7137C92.4853 76.0112 94.5018 74.255 95.6354 73.126C95.8591 72.9038 96.1615 72.7793 96.4766 72.7795C96.7931 72.7795 97.0966 72.9055 97.3204 73.1295C97.5441 73.3536 97.6699 73.6574 97.6699 73.9742C97.6685 74.2906 97.5419 74.5936 97.3178 74.8166C96.1246 76.0113 94.0782 77.8034 91.8648 79.5955C90.1107 81.0052 88.5296 82.1821 87.4378 82.8989C87.587 83.2931 87.8376 83.8786 88.2552 84.691C88.3204 84.7211 88.3884 84.7451 88.4581 84.7626C88.9278 84.8519 89.4073 84.8781 89.884 84.8403C91.4532 84.7312 93.0101 84.4873 94.5376 84.1114C98.1173 83.299 101.619 82.1342 101.769 82.0864C102.069 81.9866 102.397 82.0105 102.68 82.1528C102.963 82.295 103.178 82.5441 103.278 82.8451C103.378 83.1461 103.354 83.4745 103.212 83.7579C103.07 84.0413 102.821 84.2566 102.52 84.3564C102.485 84.3564 98.7915 85.5989 95.0626 86.4412C93.3973 86.8459 91.7009 87.1097 89.9914 87.2297L89.4425 87.2475ZM89.9138 86.0528C90.2539 86.0528 90.6298 86.0051 91.0355 85.9633C90.6298 86.0051 90.2539 86.0409 89.9138 86.0528ZM86.1611 82.9286C86.4545 83.7479 86.8034 84.5463 87.2052 85.3181C87.3104 85.4807 87.4498 85.6186 87.6136 85.7218C87.7774 85.8249 87.9618 85.8909 88.1538 85.9154C87.9626 85.8883 87.7793 85.821 87.6158 85.7181C87.4523 85.6152 87.3124 85.4789 87.2052 85.3181C86.8065 84.5447 86.4578 83.7466 86.1611 82.9286ZM95.8621 85.0254L94.7763 85.2823L93.7918 85.5212L94.7643 85.3121L95.8621 85.0254ZM85.8628 81.8236C85.9105 81.967 85.9523 82.1163 86 82.2776V82.3432L85.8628 81.8236ZM90.2957 79.2729C89.0547 80.2525 87.9092 81.0649 87.0679 81.6623C87.933 81.0888 89.0487 80.2585 90.2957 79.2729ZM84.58 78.0124L84.6456 78.1916L84.8545 78.7531L84.6516 78.2036L84.58 78.0124ZM84.2638 77.3554C84.3223 77.4883 84.388 77.6179 84.4607 77.7436C84.407 77.648 84.3474 77.5226 84.2638 77.3554ZM83.9536 76.758L84.4905 76.4891L85.0394 76.2143L84.4428 76.513L83.9536 76.758ZM96.4826 73.9862C95.7607 74.709 94.6927 75.6827 93.4518 76.7281C94.651 75.6648 95.7309 74.691 96.4528 73.9682L96.4826 73.9862ZM83.6553 76.2263L83.7209 76.3339L83.6911 76.2861L83.6553 76.2263ZM82.1518 70.5813L82.2831 70.862L82.3666 71.0412C83.0049 72.4211 83.6493 73.8249 84.4368 75.1929C85.5525 74.6254 87.5512 73.6098 89.4007 72.6062C90.4806 72.0089 91.3457 71.531 91.9722 71.1547C92.2943 70.9576 92.5688 70.7962 92.7298 70.6648L92.8432 70.5753L92.8909 70.5215C92.6402 70.5651 92.3872 70.5951 92.1332 70.6112C91.7872 70.6112 91.3636 70.6529 90.8803 70.6648C90.0033 70.6648 88.8518 70.6648 87.4557 70.6648C85.8687 70.6469 83.9834 70.5872 82.122 70.5872L82.1518 70.5813ZM93.2966 71.7222C93.1117 71.8536 92.873 72.0029 92.5926 72.1762C91.9483 72.5644 91.0653 73.0662 89.9675 73.6576C89.5797 73.8667 89.186 74.0817 88.7743 74.255C89.1681 74.0519 89.5618 73.8368 89.9675 73.6576C91.0713 73.0602 91.9542 72.5644 92.5926 72.1762C92.8432 71.985 93.0819 71.8358 93.2668 71.7044L93.2966 71.7222ZM80.2367 69.3327C80.5767 70.0257 80.9108 70.7366 81.2449 71.4713C81.5373 72.0687 81.8416 72.7317 82.1339 73.3709C81.8416 72.7735 81.5671 72.1762 81.2926 71.5788L81.1972 71.3758C81.0242 70.9875 80.8452 70.6051 80.6662 70.2228L80.2486 69.3387H80.9407H80.5946L80.2367 69.3327ZM93.7322 71.3878C93.6454 71.4689 93.5537 71.5447 93.4577 71.6147L93.6964 71.4235L93.7322 71.3878ZM93.7978 71.2981V71.3399C93.8007 71.3178 93.7987 71.2953 93.7918 71.2741L93.7978 71.2981ZM92.7597 69.3507C92.5258 69.3994 92.2884 69.4294 92.0497 69.4404C91.8588 69.4404 91.6261 69.4402 91.3755 69.4761C91.6261 69.4761 91.8528 69.4762 92.0497 69.4404C92.2795 69.4141 92.5068 69.3702 92.7298 69.309L92.7597 69.3507ZM79.3894 67.6004C79.64 68.144 79.8966 68.6816 80.1591 69.2193L80.0517 68.9983C79.825 68.5244 79.6042 68.0584 79.3894 67.6004ZM85.8866 64.4703C87.3961 65.211 89.0726 65.9457 90.9042 66.6326C89.1024 65.9457 87.4259 65.211 85.8866 64.4583V64.4703ZM75.8932 58.0427L77.0865 58.9746C76.6569 58.6222 76.293 58.3055 76.0006 58.0248L75.8753 57.9113L75.8336 57.744C75.3916 56.1167 75.0332 54.4678 74.7597 52.8038C75.0455 54.524 75.4179 56.2287 75.8753 57.9113L75.8932 58.0427ZM74.1034 46.5615L75.2966 48.3535C77.1237 51.0799 79.1392 53.6748 81.3284 56.1192C82.0325 56.9157 82.7226 57.6344 83.3987 58.2756C82.7226 57.6185 82.0325 56.8998 81.3284 56.1192C78.67 53.1469 76.2745 49.949 74.169 46.5615L74.0855 46.4241L74.1034 46.5615ZM77.4624 38.067C78.3633 40.3549 79.4252 42.8458 80.6304 45.3249C81.8818 47.9446 83.3444 50.4579 85.0036 52.8397C83.3443 50.4591 81.8836 47.9456 80.6364 45.3249C79.4073 42.804 78.3454 40.2832 77.4564 38.0371L77.4624 38.067ZM90.8863 54.8587C91.0291 54.9729 91.1785 55.0787 91.3338 55.1753C91.1757 55.0692 91.0243 54.9536 90.8803 54.829L90.8863 54.8587ZM104.018 7.57179C103.767 7.91826 103.517 8.2767 103.266 8.64108C100.717 12.4632 98.6416 16.5813 97.0852 20.9049C94.3109 28.5272 91.8886 40.0203 95.5519 52.1766C91.8886 39.9964 94.3109 28.5272 97.0852 20.9049C98.6404 16.5808 100.716 12.4625 103.266 8.64108C103.541 8.25877 103.791 7.90032 104.042 7.55385L104.018 7.57179ZM86.1611 46.2508C86.346 46.884 86.537 47.4874 86.7577 48.0429C87.05 48.8852 87.3543 49.6557 87.6825 50.3666C87.3603 49.6557 87.05 48.8852 86.7577 48.0429C86.5608 47.4694 86.3699 46.8661 86.1849 46.2329L86.1611 46.2508ZM109.966 2.93627C108.272 4.13099 106.202 6.44273 104.257 9.31603C101.761 13.0534 99.7292 17.0815 98.2068 21.3111C95.6652 28.3002 93.4339 38.5807 96.0948 49.6199C95.3072 37.4994 99.7998 26.8187 104.024 19.6444C106.641 15.1751 109.788 11.0392 113.397 7.32692C115.015 5.66087 116.77 4.13226 118.641 2.75704C115.199 2.64951 112.365 2.76899 109.99 2.91833L109.966 2.93627ZM74.169 40.4565C74.0557 42.6607 74.0079 44.8411 74.0437 46.4301V46.3284C74.0557 44.7394 74.1034 42.589 74.2167 40.4385L74.169 40.4565ZM155.321 42.374L155.685 42.8339L156.073 42.4515C155.977 42.3557 155.852 42.2952 155.718 42.28C155.583 42.2648 155.448 42.2959 155.333 42.368C155.383 42.3328 155.435 42.3009 155.488 42.2725L155.321 42.374ZM160.202 40.104C159.265 40.54 158.412 40.9402 157.666 41.2628H157.606H157.672C158.4 40.9343 159.265 40.546 160.178 40.1219L160.202 40.104ZM164.455 34.447C163.859 34.5127 163.262 34.5903 162.666 34.6799C159.513 35.1456 156.389 35.7918 153.311 36.6153C150.111 37.4329 146.997 38.5531 144.009 39.9606C143.478 40.2234 142.977 40.4923 142.506 40.7611C142.977 40.4923 143.478 40.2234 144.015 39.9606C147 38.5522 150.113 37.432 153.311 36.6153C156.389 35.7909 159.513 35.1467 162.666 34.6859C163.244 34.6022 163.853 34.5247 164.432 34.4589L164.455 34.447ZM84.3414 36.7766C84.4726 37.816 84.6218 38.8316 84.7829 39.8172C84.5979 38.8435 84.4488 37.828 84.3175 36.7886L84.3414 36.7766ZM95.5578 7.81665C92.9089 11.9982 91.1011 18.3303 90.4567 25.7017C91.0772 18.3482 92.9088 11.9683 95.534 7.82861L95.5578 7.81665ZM74.5926 35.7432C74.5449 36.2251 74.4972 36.7329 74.4494 37.2665C74.4813 36.7448 74.521 36.241 74.5688 35.7552L74.5926 35.7432ZM135.889 18.3183C128.801 22.2489 119.184 28.6108 113.134 36.7409C119.172 28.6108 128.801 22.2489 135.889 18.3183ZM167.743 35.7791C167.42 36.059 167.084 36.3222 166.735 36.5676C167.071 36.3251 167.396 36.0659 167.707 35.791L167.743 35.7791ZM75.9529 33.987C76.1378 34.4948 76.3407 35.0264 76.5495 35.5819C76.1736 34.5903 75.8455 33.6943 75.5651 32.9356L75.1952 31.9202C75.058 32.5175 74.9207 33.2283 74.8014 34.1124L75.9529 33.987ZM168.161 35.3789C168.125 35.4147 168.083 35.4506 168.047 35.4924L168.161 35.3729V35.3789ZM120.753 18.0196C114.232 23.0016 109.101 28.8378 105.999 34.8771C109.101 28.8497 114.232 23.0135 120.753 18.0196ZM83.6851 21.9383C83.5285 26.2297 83.666 30.5269 84.0968 34.7995C83.6672 30.5308 83.5297 26.2377 83.6851 21.9503V21.9383ZM136.814 34.2618L136.76 34.2917L136.474 34.441H136.611L136.814 34.2618ZM145.996 28.6945C142.71 30.0992 139.637 31.9593 136.868 34.2201L136.826 34.2558L136.886 34.2201C147.028 28.9693 157.344 28.5869 166.717 33.1149L166.955 33.2284C159.11 29.3694 150.847 28.9094 142.345 31.8544L141.856 30.7733C143.148 30.0525 144.528 29.3634 145.996 28.7063V28.6945ZM168.668 34.1005L166.639 34.2379C167.075 34.208 167.48 34.1902 167.832 34.1902H168.805L168.668 34.1005ZM168.662 33.4614L168.823 34.1722C168.775 33.9393 168.721 33.7004 168.674 33.4734L168.662 33.4614ZM153.239 28.7422C158.042 28.7586 162.779 29.8592 167.099 31.962C166.92 31.1795 166.782 30.5701 166.675 30.0803C166.281 28.3419 166.245 28.1567 165.989 27.2069C165.768 26.3885 165.529 25.182 165.392 24.3158C165.392 24.1724 165.344 24.041 165.321 23.9096L163.113 24.4651C160.255 25.182 156.699 26.072 152.929 27.3145C151.091 27.9119 149.397 28.557 147.816 29.2141C149.612 28.9149 151.43 28.767 153.251 28.7721L153.239 28.7422ZM78.8226 22.3744C77.3429 25.286 76.1442 28.3324 75.2429 31.4721C76.1514 28.3369 77.354 25.2948 78.8346 22.3863L78.8226 22.3744ZM154.468 16.2275C150.954 17.9718 147.506 19.8117 144.2 21.6337C138.898 24.5467 133.759 27.7495 128.807 31.2273C133.763 27.7553 138.901 24.5528 144.2 21.6337C148.15 19.4533 151.795 17.5776 154.468 16.2275ZM167.48 28.1747C167.57 28.5451 167.677 29.017 167.85 29.7876C167.91 30.0683 167.981 30.385 168.065 30.7673C167.987 30.4089 167.916 30.0982 167.856 29.8234C167.677 29.0708 167.57 28.5929 167.48 28.2106V28.1747ZM165.094 22.697C164.426 22.8762 163.68 23.0614 162.863 23.2943L160.148 23.9812L162.785 23.3182C163.65 23.1092 164.42 22.9179 165.118 22.7327L165.094 22.697ZM165.923 21.6097L166.031 21.8785C166.003 21.7949 165.967 21.7053 165.923 21.6097ZM162.874 15.2836C163.009 15.456 163.135 15.6355 163.25 15.8214C163.964 17.0702 164.594 18.3653 165.136 19.6982C164.599 18.3634 163.969 17.0679 163.25 15.8214C163.141 15.6483 163.024 15.4808 162.898 15.3195L162.874 15.2836ZM159.008 13.9994C158.233 14.3697 157.189 14.8655 155.942 15.4748C157.218 14.9014 158.257 14.4355 159.032 14.0353L159.008 13.9994ZM83.2078 15.0328L84.2698 15.4808C84.3891 14.7401 84.5204 14.0412 84.6636 13.402L84.6994 13.2347C84.1668 13.8037 83.6687 14.4042 83.2078 15.0328ZM161.15 13.6588L161.514 13.9217C161.383 13.838 161.258 13.7365 161.15 13.6648V13.6588ZM160.542 13.3303L160.87 13.4736L160.643 13.2945L160.542 13.3303ZM160.47 12.6553C160.47 12.7151 160.5 12.7688 160.512 12.8286V12.8703C160.524 12.8165 160.512 12.7449 160.488 12.6434L160.47 12.6553ZM95.1641 6.68173C91.3708 7.82613 87.9301 9.9165 85.1647 12.7568C87.8946 9.97396 91.2675 7.90796 94.9851 6.74152L95.1641 6.68173ZM160.064 11.6638C160.106 11.7414 160.154 11.825 160.19 11.9086C160.225 11.9766 160.257 12.0465 160.285 12.1178C160.285 12.0461 160.225 11.9803 160.196 11.9086L160.064 11.6638ZM135.484 9.39974C133.646 10.1823 131.779 11.0903 129.923 12.0938C131.797 11.0903 133.664 10.1823 135.502 9.39974H135.484ZM157.38 9.61471L155.405 10.0986C153.336 10.622 151.3 11.2683 149.307 12.034C151.919 11.0033 154.622 10.2194 157.38 9.69244H157.535L157.38 9.61471ZM157.922 9.82384C158.315 9.99788 158.686 10.2184 159.026 10.4809C158.693 10.2181 158.328 9.99754 157.94 9.82384H157.922ZM115.879 6.56826C115.342 7.06407 114.799 7.58969 114.256 8.14523C114.817 7.58969 115.36 7.06407 115.897 6.56826H115.879ZM144.296 5.47505L144.224 6.63389C142.488 6.96851 140.779 7.43178 139.111 8.01981C141.63 7.0732 144.277 6.50939 146.963 6.34717H147.04H147.112L147.571 6.46661L147.058 6.33521C146.092 6.01662 145.171 5.72992 144.296 5.47505ZM96.4945 6.37109L95.6891 7.60766C95.9814 7.15964 96.2857 6.74143 96.6019 6.34717L96.6735 6.25165L96.596 6.34717L96.4945 6.37109ZM108.123 1.93873C106.037 2.13491 103.968 2.47621 101.93 2.96019C103.76 2.52078 105.618 2.2054 107.49 2.01632L108.123 1.93873ZM109.316 1.79537L108.123 2.9004C108.543 2.5259 108.985 2.17683 109.447 1.85502L109.584 1.76547H109.745L110.527 1.71764L109.584 1.77743L109.316 1.79537ZM122.442 1.74753L120.956 2.65553C121.467 2.34895 121.995 2.07164 122.537 1.82512L122.674 1.76547L123.414 1.81914L125.371 1.95667L123.402 1.81914L122.674 1.76547L122.442 1.74753Z" fill="black"/>
</svg>