<svg width="32" height="32" viewBox="0 0 32 32" fill="none" xmlns="http://www.w3.org/2000/svg">
<g clip-path="url(#clip0_1285_3022)">
<path d="M32 14.6667C32 12.5733 31 10.6133 29.3333 9.36C29.3333 6.82667 27.56 4.68 25.2 4.13333C24.6533 1.77333 22.5333 0 20 0C18.4133 0 16.9733 0.706667 16 1.81333C15.0267 0.706667 13.5867 0 12 0C9.46667 0 7.34667 1.77333 6.8 4.13333C4.44 4.68 2.66667 6.82667 2.66667 9.36C1 10.6133 0 12.5733 0 14.6667C0 15.8533 0.32 16.9867 0.92 18C0.32 19.0133 0 20.1467 0 21.3333C0 23.5867 1.14667 25.6533 3.02667 26.8933C3.98667 29.9333 6.77333 32 10 32C12.48 32 14.6667 30.76 16 28.88C17.3333 30.76 19.52 32 22 32C25.2267 32 28.0133 29.92 28.9733 26.8933C30.8533 25.6667 32 23.5867 32 21.3333C32 20.1467 31.68 19.0133 31.08 18C31.68 16.9867 32 15.8533 32 14.6667ZM14.6667 24.6667C14.6667 27.24 12.5733 29.3333 10 29.3333C7.82667 29.3333 5.96 27.84 5.46667 25.72C5.38667 25.3467 5.13333 25.0267 4.8 24.84C3.49333 24.1333 2.66667 22.7867 2.66667 21.3333C2.66667 20.44 2.97333 19.5733 3.57333 18.84C3.97333 18.3467 3.97333 17.6533 3.57333 17.16C2.98667 16.4267 2.66667 15.56 2.66667 14.6667C2.66667 13.24 3.45333 11.9067 4.72 11.2C5.21333 10.92 5.48 10.36 5.37333 9.8C5.34667 9.65333 5.32 9.49333 5.32 9.33333C5.32 7.86667 6.52 6.66667 7.98667 6.66667C8.72 6.66667 9.32 6.06667 9.32 5.33333C9.32 3.86667 10.52 2.66667 11.9867 2.66667C13.4533 2.66667 14.6533 3.86667 14.6533 5.33333V24.6667H14.6667ZM28.4267 18.84C29.0133 19.5733 29.3333 20.44 29.3333 21.3333C29.3333 22.8 28.52 24.1333 27.2 24.84C26.8667 25.0267 26.6133 25.3467 26.5333 25.72C26.04 27.8533 24.1733 29.3333 22 29.3333C19.4267 29.3333 17.3333 27.24 17.3333 24.6667V5.33333C17.3333 3.86667 18.5333 2.66667 20 2.66667C21.4667 2.66667 22.6667 3.86667 22.6667 5.33333C22.6667 6.06667 23.2667 6.66667 24 6.66667C25.4667 6.66667 26.6667 7.86667 26.6667 9.33333C26.6667 9.49333 26.64 9.65333 26.6133 9.8C26.5067 10.36 26.7733 10.92 27.2667 11.2C28.5333 11.92 29.32 13.24 29.32 14.6667C29.32 15.5733 29.0133 16.4267 28.4133 17.16C28.0133 17.6533 28.0133 18.3467 28.4133 18.84H28.4267Z" fill="white"/>
</g>
<defs>
<clipPath id="clip0_1285_3022">
<rect width="32" height="32" fill="white"/>
</clipPath>
</defs>
</svg>
