<svg width="206" height="103" viewBox="0 0 206 103" fill="none" xmlns="http://www.w3.org/2000/svg">
<path d="M1 35.8379H0V36.8379H1V35.8379ZM21.8799 36.545C22.2704 36.1545 22.2704 35.5213 21.8799 35.1308L15.516 28.7668C15.1254 28.3763 14.4923 28.3763 14.1017 28.7668C13.7112 29.1573 13.7112 29.7905 14.1017 30.181L19.7586 35.8379L14.1017 41.4947C13.7112 41.8853 13.7112 42.5184 14.1017 42.9089C14.4923 43.2995 15.1254 43.2995 15.516 42.9089L21.8799 36.545ZM2 35.8379V14.0234H0V35.8379H2ZM14 2.02344H191.693V0.0234375H14V2.02344ZM203.693 14.0234V88.3113H205.693V14.0234H203.693ZM191.693 100.311H1V102.311H191.693V100.311ZM1 36.8379H21.1728V34.8379H1V36.8379ZM203.693 88.3113C203.693 94.9387 198.321 100.311 191.693 100.311V102.311C199.425 102.311 205.693 96.0432 205.693 88.3113H203.693ZM191.693 2.02344C198.321 2.02344 203.693 7.39602 203.693 14.0234H205.693C205.693 6.29145 199.425 0.0234375 191.693 0.0234375V2.02344ZM2 14.0234C2 7.39602 7.37258 2.02344 14 2.02344V0.0234375C6.26801 0.0234375 0 6.29145 0 14.0234H2Z" fill="url(#paint0_linear_1841_512)"/>
<defs>
<linearGradient id="paint0_linear_1841_512" x1="212.755" y1="91.7059" x2="157.109" y2="-115.021" gradientUnits="userSpaceOnUse">
<stop/>
<stop offset="1" stop-color="white"/>
</linearGradient>
</defs>
</svg>
