<svg width="206" height="103" viewBox="0 0 206 103" fill="none" xmlns="http://www.w3.org/2000/svg">
<path d="M1 35.8144H0V36.8144H1V35.8144ZM21.8799 36.5215C22.2704 36.131 22.2704 35.4979 21.8799 35.1073L15.516 28.7434C15.1254 28.3528 14.4923 28.3528 14.1017 28.7434C13.7112 29.1339 13.7112 29.7671 14.1017 30.1576L19.7586 35.8144L14.1017 41.4713C13.7112 41.8618 13.7112 42.495 14.1017 42.8855C14.4923 43.276 15.1254 43.276 15.516 42.8855L21.8799 36.5215ZM1 35.8144H2V14H1H0V35.8144H1ZM14 1V2H191.693V1V0H14V1ZM204.693 14H203.693V88.2878H204.693H205.693V14H204.693ZM191.693 101.288V100.288H1V101.288V102.288H191.693V101.288ZM1 35.8144V36.8144H21.1728V35.8144V34.8144H1V35.8144ZM204.693 88.2878H203.693C203.693 94.9152 198.321 100.288 191.693 100.288V101.288V102.288C199.425 102.288 205.693 96.0198 205.693 88.2878H204.693ZM191.693 1V2C198.321 2 203.693 7.37258 203.693 14H204.693H205.693C205.693 6.26801 199.425 0 191.693 0V1ZM1 14H2C2 7.37258 7.37258 2 14 2V1V0C6.26801 0 0 6.26801 0 14H1Z" fill="url(#paint0_linear_5581_635)" fill-opacity="0.6"/>
<defs>
<linearGradient id="paint0_linear_5581_635" x1="-9.5" y1="1" x2="-16.729" y2="103.199" gradientUnits="userSpaceOnUse">
<stop/>
<stop offset="1" stop-color="white"/>
</linearGradient>
</defs>
</svg>
