<svg width="23" height="44" viewBox="0 0 23 44" fill="none" xmlns="http://www.w3.org/2000/svg">
<path d="M2 14C2 7.37258 7.37258 2 14 2V0C6.26801 0 0 6.26801 0 14V36.8144H18.7586L14.1017 41.4713C13.7112 41.8618 13.7112 42.495 14.1017 42.8855C14.4923 43.276 15.1254 43.276 15.516 42.8855L21.8799 36.5215C22.2704 36.131 22.2704 35.4979 21.8799 35.1073L15.516 28.7434C15.1254 28.3528 14.4923 28.3528 14.1017 28.7434C13.7112 29.1339 13.7112 29.7671 14.1017 30.1576L18.7586 34.8144H2V14Z" fill="url(#paint0_linear_2097_306)"/>
<defs>
<linearGradient id="paint0_linear_2097_306" x1="213.834" y1="92.4909" x2="156.587" y2="-118.072" gradientUnits="userSpaceOnUse">
<stop/>
<stop offset="1" stop-color="white"/>
</linearGradient>
</defs>
</svg>
