<svg width="322" height="179" viewBox="0 0 322 179" fill="none" xmlns="http://www.w3.org/2000/svg">
<rect x="1.28906" y="1.47656" width="319.291" height="176.2" rx="88.1002" stroke="black"/>
<rect x="194.086" y="54.8088" width="126.494" height="69.5357" rx="34.7678" stroke="black"/>
<path d="M68.9091 82.5767V84.6567H64.4491V96.5767H62.3691V84.6567H57.9191V82.5767H68.9091ZM73.7533 96.8367C72.8333 96.8367 71.9933 96.6 71.2333 96.1267C70.4799 95.6533 69.8766 95.02 69.4233 94.2267C68.9766 93.4267 68.7533 92.5433 68.7533 91.5767C68.7533 90.8433 68.8833 90.16 69.1433 89.5267C69.4033 88.8867 69.7599 88.3267 70.2133 87.8467C70.6733 87.36 71.2066 86.98 71.8133 86.7067C72.4199 86.4333 73.0666 86.2967 73.7533 86.2967C74.6733 86.2967 75.5099 86.5333 76.2633 87.0067C77.0233 87.48 77.6266 88.1167 78.0733 88.9167C78.5266 89.7167 78.7533 90.6033 78.7533 91.5767C78.7533 92.3033 78.6233 92.9833 78.3633 93.6167C78.1033 94.25 77.7433 94.81 77.2833 95.2967C76.8299 95.7767 76.2999 96.1533 75.6933 96.4267C75.0933 96.7 74.4466 96.8367 73.7533 96.8367ZM73.7533 94.7567C74.3066 94.7567 74.8033 94.61 75.2433 94.3167C75.6833 94.0233 76.0299 93.6367 76.2833 93.1567C76.5433 92.67 76.6733 92.1433 76.6733 91.5767C76.6733 90.9967 76.5399 90.4633 76.2733 89.9767C76.0133 89.49 75.6633 89.1033 75.2233 88.8167C74.7833 88.5233 74.2933 88.3767 73.7533 88.3767C73.2066 88.3767 72.7099 88.5233 72.2633 88.8167C71.8233 89.11 71.4733 89.5 71.2133 89.9867C70.9599 90.4733 70.8333 91.0033 70.8333 91.5767C70.8333 92.17 70.9666 92.7067 71.2333 93.1867C71.4999 93.6667 71.8533 94.05 72.2933 94.3367C72.7399 94.6167 73.2266 94.7567 73.7533 94.7567ZM79.7336 92.8267V86.5767H81.8136V92.3167C81.8136 92.7633 81.9236 93.17 82.1436 93.5367C82.3636 93.9033 82.6569 94.1967 83.0236 94.4167C83.3903 94.63 83.7936 94.7367 84.2336 94.7367C84.6803 94.7367 85.0836 94.63 85.4436 94.4167C85.8103 94.1967 86.1003 93.9033 86.3136 93.5367C86.5336 93.17 86.6436 92.7633 86.6436 92.3167V86.5767H88.7236L88.7336 96.5767H86.6536L86.6436 95.4967C86.3036 95.91 85.8803 96.2367 85.3736 96.4767C84.8669 96.7167 84.3236 96.8367 83.7436 96.8367C83.0036 96.8367 82.3303 96.6567 81.7236 96.2967C81.1169 95.9367 80.6336 95.4533 80.2736 94.8467C79.9136 94.24 79.7336 93.5667 79.7336 92.8267ZM97.0923 93.7367L98.9523 94.7467C98.499 95.38 97.9223 95.8867 97.2223 96.2667C96.529 96.6467 95.7757 96.8367 94.9623 96.8367C94.0423 96.8367 93.2023 96.6 92.4423 96.1267C91.689 95.6533 91.0857 95.02 90.6323 94.2267C90.1857 93.4267 89.9623 92.5433 89.9623 91.5767C89.9623 90.8433 90.0923 90.16 90.3523 89.5267C90.6123 88.8867 90.969 88.3267 91.4223 87.8467C91.8823 87.36 92.4157 86.98 93.0223 86.7067C93.629 86.4333 94.2757 86.2967 94.9623 86.2967C95.7757 86.2967 96.529 86.4867 97.2223 86.8667C97.9223 87.2467 98.499 87.7567 98.9523 88.3967L97.0923 89.4067C96.8123 89.0733 96.4857 88.82 96.1123 88.6467C95.739 88.4667 95.3557 88.3767 94.9623 88.3767C94.4157 88.3767 93.919 88.5267 93.4723 88.8267C93.0323 89.12 92.6823 89.51 92.4223 89.9967C92.169 90.4767 92.0423 91.0033 92.0423 91.5767C92.0423 92.1433 92.1723 92.67 92.4323 93.1567C92.6923 93.6367 93.0423 94.0233 93.4823 94.3167C93.929 94.61 94.4223 94.7567 94.9623 94.7567C95.3757 94.7567 95.769 94.6633 96.1423 94.4767C96.5157 94.29 96.8323 94.0433 97.0923 93.7367ZM109.464 90.3067V96.5767H107.384V90.8167C107.384 90.37 107.274 89.9633 107.054 89.5967C106.84 89.23 106.55 88.94 106.184 88.7267C105.824 88.5067 105.417 88.3967 104.964 88.3967C104.524 88.3967 104.12 88.5067 103.754 88.7267C103.387 88.94 103.094 89.23 102.874 89.5967C102.654 89.9633 102.544 90.37 102.544 90.8167V96.5767H100.464V81.5767H102.544V87.6367C102.89 87.2233 103.317 86.8967 103.824 86.6567C104.33 86.4167 104.877 86.2967 105.464 86.2967C106.204 86.2967 106.877 86.4767 107.484 86.8367C108.09 87.1967 108.57 87.68 108.924 88.2867C109.284 88.8933 109.464 89.5667 109.464 90.3067Z" fill="black"/>
</svg>
