<svg width="44" height="44" viewBox="0 0 44 44" fill="none" xmlns="http://www.w3.org/2000/svg">
<g clip-path="url(#clip0_3284_1064)">
<path d="M21.1218 43.25C21.197 43.2339 21.2537 43.1669 21.2537 43.087V34.6922C21.2537 33.7108 20.5183 32.8649 19.5494 32.7268C14.2455 31.9719 10.2537 27.3647 10.2537 22.0018C10.2537 16.6392 14.2471 12.03 19.5494 11.2768C20.5179 11.1388 21.2537 10.2913 21.2537 9.3115V0.916667C21.2537 0.824881 21.1788 0.75 21.087 0.75C20.9952 0.75 20.9203 0.824879 20.9203 0.916667V9.3115C20.9203 10.1308 20.3116 10.8299 19.5027 10.945L21.1218 43.25ZM21.1218 43.25H21.0833C20.9915 43.25 20.9167 43.1751 20.9167 43.0833V34.6885C20.9167 33.8691 20.3079 33.17 19.4989 33.055C18.343 32.8901 17.2466 32.5485 16.24 32.0581L15.6197 31.7559L15.2669 32.3489L10.5801 40.2288C10.5799 40.229 10.5798 40.2292 10.5797 40.2294C10.531 40.31 10.4272 40.3346 10.3499 40.2885L10.3495 40.2883C10.2709 40.2415 10.2449 40.1389 10.2916 40.0605L10.2916 40.0604L14.9721 32.1899L15.3294 31.5891L14.7552 31.1904C13.6362 30.4135 12.6646 29.4367 11.8944 28.3192L11.5009 27.7483L10.9009 28.0959L2.83601 32.768C2.83584 32.7681 2.83568 32.7682 2.83551 32.7683C2.75238 32.8158 2.64972 32.7854 2.60518 32.7085L2.60449 32.7073C2.55884 32.6288 2.58538 32.5276 2.66486 32.4817L2.6657 32.4812L10.7287 27.8117L11.3319 27.4624L11.0276 26.8352C10.4334 25.6108 10.0591 24.2664 9.94922 22.8601L9.89518 22.1685H9.2015H0.916667C0.824879 22.1685 0.75 22.0936 0.75 22.0018C0.75 21.91 0.824881 21.8352 0.916667 21.8352H9.20333H9.89779L9.95112 21.1428C10.0592 19.7396 10.4349 18.397 11.028 17.1713L11.3324 16.5421L10.7262 16.1942L2.66683 11.5687L2.66648 11.5685C2.58866 11.5239 2.55878 11.421 2.60568 11.3388C2.64882 11.2632 2.7467 11.2302 2.83577 11.2798C2.83618 11.28 2.8366 11.2803 2.83701 11.2805L10.8999 15.9075L11.4989 16.2512L11.8907 15.6826C12.6644 14.5599 13.6394 13.5815 14.7637 12.8027L15.3316 12.4094L14.9862 11.8112L10.3864 3.84352L10.3852 3.84144C10.3398 3.76345 10.3657 3.66282 10.4462 3.61651L10.4474 3.61584C10.53 3.56811 10.6306 3.59909 10.6732 3.67364L10.6731 3.67365L10.6751 3.67696L15.2731 11.6373L15.6217 12.2409L16.2491 11.9373C17.2567 11.4498 18.3483 11.1099 19.5023 10.945L21.1218 43.25ZM33 32.25C27.3477 32.25 22.75 27.6523 22.75 22C22.75 16.3477 27.3477 11.75 33 11.75C38.6523 11.75 43.25 16.3477 43.25 22C43.25 27.6523 38.6523 32.25 33 32.25ZM33 12.0833C27.5313 12.0833 23.0833 16.5313 23.0833 22C23.0833 27.4687 27.5313 31.9167 33 31.9167C38.4687 31.9167 42.9167 27.4687 42.9167 22C42.9167 16.5313 38.4687 12.0833 33 12.0833Z" stroke="url(#paint0_linear_3284_1064)" stroke-width="1.5"/>
</g>
<defs>
<linearGradient id="paint0_linear_3284_1064" x1="22" y1="0" x2="22" y2="44.0037" gradientUnits="userSpaceOnUse">
<stop stop-color="white"/>
<stop offset="1" stop-color="#393939"/>
</linearGradient>
<clipPath id="clip0_3284_1064">
<rect width="44" height="44" fill="white"/>
</clipPath>
</defs>
</svg>
