<svg width="41" height="41" viewBox="0 0 41 41" fill="none" xmlns="http://www.w3.org/2000/svg">
<rect x="0.5" y="0.54541" width="39.3823" height="39.3823" stroke="white"/>
<path fill-rule="evenodd" clip-rule="evenodd" d="M19.5131 30.4373C19.6528 30.4429 19.7937 30.4456 19.9353 30.4456C21.5716 30.4456 23.1211 30.0709 24.502 29.4027C24.351 29.257 24.1873 29.0905 24.0107 28.9004C23.0421 27.8573 22.4119 26.5627 22.0638 25.4028C21.8533 24.7014 21.8595 23.2504 21.5298 22.0199C21.3882 21.4911 21.1973 20.9968 20.7945 20.7323C20.5591 20.5775 20.252 20.5247 19.8585 20.5707C18.8811 20.6846 18.5641 21.4029 18.4729 22.2354C18.347 23.3866 18.6085 24.7489 18.7595 25.7553C18.8635 26.4486 19.0606 27.821 19.2709 29.2273C19.342 29.7017 19.4285 30.1066 19.5131 30.4373ZM16.1841 29.7555C16.7068 29.9553 17.2488 30.1146 17.8066 30.2297C17.7587 29.9949 17.7129 29.7405 17.6719 29.4665C17.4616 28.0604 17.2645 26.6884 17.1605 25.9953C16.9538 24.6187 16.6193 22.6551 17.0231 21.2278C17.3603 20.0365 18.1283 19.1443 19.6712 18.9645C21.3624 18.7673 22.2825 19.5931 22.8091 20.7849C23.1302 21.5117 23.2829 22.4008 23.3805 23.2256C23.462 23.9155 23.4963 24.5514 23.6124 24.9379C23.8968 25.8857 24.404 26.9478 25.1957 27.8002C25.5049 28.1332 25.7657 28.3747 25.9648 28.543C26.4208 28.2226 26.8503 27.8672 27.2493 27.4803C27.0273 27.3214 26.8121 27.1572 26.6191 26.9938C25.8259 26.3227 25.3542 25.3164 25.106 24.4897C24.8375 23.595 24.8573 21.5618 24.2354 20.1545C23.4403 18.3546 22.0448 17.1177 19.4908 17.4155C17.1797 17.6849 16.0275 19.0188 15.5227 20.8031C15.0632 22.4266 15.3834 24.6612 15.6183 26.2268C15.6806 26.6422 15.7759 27.2953 15.8877 28.0544C15.9911 28.7574 16.0958 29.3263 16.1841 29.7555ZM12.5668 27.4271C13.1144 27.9659 13.7209 28.4452 14.3756 28.8544C14.3465 28.6763 14.3172 28.4879 14.2879 28.2898C14.1765 27.5326 14.0814 26.8813 14.0193 26.4666C13.7549 24.705 13.4499 22.1896 13.9668 20.3631C14.6457 17.9639 16.1962 16.1718 19.3035 15.8096C22.7524 15.4075 24.6405 17.0708 25.7145 19.501C26.3641 20.9715 26.3742 23.0899 26.6548 24.0248C26.8249 24.5919 27.1195 25.2992 27.6635 25.7596C27.8643 25.9296 28.0921 26.1003 28.3252 26.2633C28.5865 25.9177 28.8269 25.5551 29.0448 25.1777C28.7169 24.8269 28.4237 24.3853 28.1835 23.8207C28.147 23.7349 28.1175 23.6552 28.0985 23.5913C27.8065 22.619 27.7691 20.4213 27.0933 18.8917C25.7597 15.8738 23.4119 13.813 19.1289 14.3122C15.2792 14.761 13.3573 16.9801 12.5164 19.9525C12.1343 21.3025 12.1452 22.998 12.274 24.5485C12.3159 25.0541 12.4681 26.5004 12.5668 27.4271ZM10.6844 24.9247C10.6754 24.8302 10.6681 24.7483 10.6626 24.6822C10.5177 22.9376 10.5307 21.0313 10.9605 19.5122C11.9754 15.9252 14.2956 13.2478 18.9417 12.7062C24.1196 12.1026 26.96 14.5897 28.5722 18.2382C29.2761 19.831 29.3432 22.1138 29.6471 23.1264C29.6523 23.1437 29.6616 23.1646 29.6715 23.1879C29.7191 23.2997 29.7699 23.4041 29.8238 23.5017C30.2259 22.3885 30.4451 21.1875 30.4451 19.9358C30.4451 14.1351 25.7358 9.42578 19.9353 9.42578C14.1346 9.42578 9.42529 14.1351 9.42529 19.9358C9.42529 21.7409 9.88146 23.4404 10.6844 24.9247Z" fill="url(#paint0_linear_3001_10063)"/>
<defs>
<linearGradient id="paint0_linear_3001_10063" x1="21.4257" y1="9.42578" x2="20.526" y2="43.059" gradientUnits="userSpaceOnUse">
<stop stop-color="#9FF8BE"/>
<stop offset="0.484375" stop-color="#EAFFE2"/>
<stop offset="1" stop-color="#F8EDBA"/>
</linearGradient>
</defs>
</svg>
