<svg width="202" height="57" viewBox="0 0 202 57" fill="none" xmlns="http://www.w3.org/2000/svg">
<path d="M2.60802 53.6714C19.3519 52.2276 37.2306 49.1399 45.7595 32.9273C48.7484 27.2457 54.0245 17.7025 49.2245 11.4901C44.3024 5.11973 40.351 14.4442 38.6415 20.4828C36.7948 27.0061 37.4429 33.0401 41.507 38.801C51.9768 53.642 75.5369 36.6815 85.5106 29.1296C91.4907 24.6017 100.135 14.2322 98.4653 6.25097C96.5269 -3.01407 88.9303 8.1445 87.5537 10.8957C78.9412 28.1089 94.2226 41.4459 109.96 42.5925C126.928 43.8287 142.601 38.3812 159.06 35.881C167.825 34.5497 176.182 31.7866 184.955 30.454C187.416 30.0803 194.363 28.3831 191.94 27.8164C185.807 26.3822 180.902 22.5577 175.282 20.3063C173.247 19.4914 187.718 23.921 191.216 24.6902C197.855 26.15 202.673 24.7603 194.698 30.1357C189.331 33.7537 182.486 38.3245 180.462 44.5791" stroke="#606060" stroke-width="5" stroke-linecap="round"/>
</svg>
