<svg width="32" height="32" viewBox="0 0 32 32" fill="none" xmlns="http://www.w3.org/2000/svg">
<g clip-path="url(#clip0_1285_3019)">
<path d="M32 13.3334V18.6667C32 19.4041 31.404 20.0001 30.6667 20.0001C29.9293 20.0001 29.3333 19.4041 29.3333 18.6667V15.2187L25.5627 18.9894C24.5547 19.9974 24 21.3374 24 22.7614V30.6667C24 31.4041 23.404 32.0001 22.6667 32.0001C21.9293 32.0001 21.3333 31.4041 21.3333 30.6667V22.7614C21.3333 20.6241 22.1653 18.6161 23.6773 17.1041L27.448 13.3334H24C23.2627 13.3334 22.6667 12.7374 22.6667 12.0001C22.6667 11.2627 23.2627 10.6667 24 10.6667H29.3333C30.804 10.6667 32 11.8627 32 13.3334ZM21.6093 4.55206L17.8387 0.781391C16.8307 -0.226609 15.076 -0.226609 14.0667 0.781391L10.2947 4.55206C9.77333 5.07339 9.77333 5.91606 10.2947 6.43739C10.816 6.95872 11.6587 6.95872 12.18 6.43739L14.6653 3.95206V30.6667C14.6653 31.4041 15.2627 32.0001 15.9987 32.0001C16.7347 32.0001 17.332 31.4041 17.332 30.6667V4.04672L19.7227 6.43739C20.244 6.95872 21.0867 6.95872 21.608 6.43739C22.1293 5.91606 22.1293 5.07339 21.608 4.55206H21.6093ZM4.604 13.3334H8C8.736 13.3334 9.33333 12.7374 9.33333 12.0001C9.33333 11.2627 8.736 10.6667 8 10.6667H2.71867C1.248 10.6667 0.052002 11.8627 0.052002 13.3334V18.6667C0.052002 19.4041 0.649335 20.0001 1.38534 20.0001C2.12134 20.0001 2.71867 19.4041 2.71867 18.6667V15.2187L6.48934 18.9894C7.49733 19.9974 8.052 21.3374 8.052 22.7614V30.6667C8.052 31.4041 8.64933 32.0001 9.38533 32.0001C10.1213 32.0001 10.7187 31.4041 10.7187 30.6667V22.7614C10.7187 20.6254 9.88667 18.6174 8.376 17.1041L4.604 13.3334Z" fill="white"/>
</g>
<defs>
<clipPath id="clip0_1285_3019">
<rect width="32" height="32" fill="white"/>
</clipPath>
</defs>
</svg>
