<svg width="41" height="41" viewBox="0 0 41 41" fill="none" xmlns="http://www.w3.org/2000/svg">
<rect x="0.833984" y="0.5" width="39.3823" height="39.3823" stroke="white"/>
<g clip-path="url(#clip0_3001_10041)">
<path d="M21.5484 19.4766C21.5442 19.4721 21.5429 19.4662 21.5386 19.4618L17.1915 15.1147V12.3832C17.1915 12.1809 17.1112 11.9875 16.9684 11.8446L12.3981 7.2236C12.1809 7.00646 11.8528 6.94024 11.5679 7.05851C11.283 7.17602 11.0977 7.45425 11.0977 7.76219V10.0473H8.76181C8.45392 10.0473 8.17569 10.2325 8.05819 10.5174C7.93992 10.8023 8.00537 11.1296 8.22333 11.3476L12.8444 15.9686C12.9873 16.1115 13.1806 16.1918 13.383 16.1918H16.1144L20.4615 20.5389C20.4659 20.5433 20.4718 20.5445 20.4763 20.5488C20.7728 20.8318 21.2233 20.8356 21.5238 20.5488C21.8403 20.2467 21.8332 19.7749 21.5484 19.4766Z" fill="url(#paint0_linear_3001_10041)"/>
<path d="M21.0004 7.00049C19.0514 7.00049 17.2086 7.49637 15.5491 8.27093L17.8858 10.6076C18.8665 10.2815 19.9117 10.0981 21.0004 10.0981C26.4604 10.0981 30.9027 14.5404 30.9027 20.0004C30.9027 25.4603 26.4604 29.9027 21.0004 29.9027C15.5404 29.9027 11.0981 25.4604 11.0981 20.0004C11.0981 18.9116 11.2815 17.8664 11.6075 16.8857L9.27088 14.5491C8.49642 16.2086 8.00049 18.0514 8.00049 20.0004C8.00049 27.1407 13.8601 33.0003 21.0004 33.0003C28.1407 33.0003 34.0003 27.1407 34.0003 20.0004C34.0003 12.8601 28.1408 7.00049 21.0004 7.00049Z" fill="url(#paint1_linear_3001_10041)"/>
<path d="M20.9999 13.1445C20.1948 13.1445 19.4331 13.3096 18.7148 13.5657V14.4835L20.4757 16.2444C20.6487 16.2203 20.8204 16.1914 20.9999 16.1914C23.0999 16.1914 24.8085 17.9 24.8085 20C24.8085 22.1 23.0999 23.8086 20.9999 23.8086C18.9 23.8086 17.1914 22.1 17.1914 20C17.1914 19.8204 17.2202 19.6487 17.2444 19.4758L15.4835 17.7148H14.5657C14.3096 18.4331 14.1445 19.1948 14.1445 19.9999C14.1445 23.7803 17.2197 26.8554 20.9999 26.8554C24.7802 26.8554 27.8554 23.7803 27.8554 19.9999C27.8554 16.2196 24.7803 13.1445 20.9999 13.1445Z" fill="url(#paint2_linear_3001_10041)"/>
</g>
<defs>
<linearGradient id="paint0_linear_3001_10041" x1="15.8567" y1="7.00049" x2="15.2676" y2="29.0206" gradientUnits="userSpaceOnUse">
<stop stop-color="#9FF8BE"/>
<stop offset="0.484375" stop-color="#EAFFE2"/>
<stop offset="1" stop-color="#F8EDBA"/>
</linearGradient>
<linearGradient id="paint1_linear_3001_10041" x1="22.844" y1="7.00049" x2="21.7311" y2="48.6021" gradientUnits="userSpaceOnUse">
<stop stop-color="#9FF8BE"/>
<stop offset="0.484375" stop-color="#EAFFE2"/>
<stop offset="1" stop-color="#F8EDBA"/>
</linearGradient>
<linearGradient id="paint2_linear_3001_10041" x1="21.9722" y1="13.1445" x2="21.3853" y2="35.0829" gradientUnits="userSpaceOnUse">
<stop stop-color="#9FF8BE"/>
<stop offset="0.484375" stop-color="#EAFFE2"/>
<stop offset="1" stop-color="#F8EDBA"/>
</linearGradient>
<clipPath id="clip0_3001_10041">
<rect width="26" height="26" fill="white" transform="translate(8 7)"/>
</clipPath>
</defs>
</svg>
