<svg width="316" height="316" viewBox="0 0 316 316" fill="none" xmlns="http://www.w3.org/2000/svg">
<mask id="path-1-inside-1_3007_10585" fill="white">
<path d="M65.4423 117.98C86.4483 117.98 103.538 100.898 103.538 79.9017C103.538 58.8958 86.4483 41.8058 65.4423 41.8058C44.4456 41.8058 27.3643 58.8951 27.3643 79.9017C27.3643 100.898 44.4462 117.98 65.4423 117.98ZM65.4423 50.431C81.6923 50.431 94.913 63.6518 94.913 79.9017C94.913 96.1418 81.6929 109.355 65.4423 109.355C49.2017 109.355 35.9889 96.1424 35.9889 79.9017C35.9895 63.6518 49.2017 50.431 65.4423 50.431ZM140.829 102.952C153.307 102.952 163.459 92.7923 163.459 80.3048C163.459 67.8265 153.307 57.675 140.829 57.675C128.341 57.675 118.182 67.8265 118.182 80.3048C118.181 92.7923 128.341 102.952 140.829 102.952ZM140.829 66.2995C148.551 66.2995 154.833 72.5825 154.833 80.3041C154.833 88.0357 148.551 94.3266 140.829 94.3266C133.097 94.3266 126.806 88.0363 126.806 80.3041C126.806 72.5825 133.097 66.2995 140.829 66.2995ZM132.168 196.253C153.174 196.253 170.264 179.163 170.264 158.157C170.264 137.15 153.175 120.061 132.168 120.061C111.172 120.061 94.0903 137.15 94.0903 158.157C94.0903 179.163 111.172 196.253 132.168 196.253ZM132.168 128.687C148.419 128.687 161.639 141.907 161.639 158.157C161.639 174.407 148.419 187.628 132.168 187.628C115.928 187.628 102.715 174.407 102.715 158.157C102.715 141.907 115.928 128.687 132.168 128.687ZM65.4423 135.51C52.964 135.51 42.8125 145.67 42.8125 158.157C42.8125 170.645 52.964 180.804 65.4423 180.804C77.9299 180.804 88.0894 170.645 88.0894 158.157C88.0894 145.67 77.9305 135.51 65.4423 135.51ZM65.4423 172.18C57.7201 172.18 51.4377 165.89 51.4377 158.157C51.4377 150.425 57.7201 144.135 65.4423 144.135C73.1745 144.135 79.4648 150.425 79.4648 158.157C79.4648 165.89 73.1745 172.18 65.4423 172.18ZM65.4423 217.894C52.964 217.894 42.8125 228.054 42.8125 240.541C42.8125 253.02 52.964 263.171 65.4423 263.171C77.9299 263.171 88.0894 253.02 88.0894 240.541C88.09 228.054 77.9305 217.894 65.4423 217.894ZM65.4423 254.547C57.7201 254.547 51.4377 248.264 51.4377 240.542C51.4377 232.811 57.7201 226.52 65.4423 226.52C73.1745 226.52 79.4648 232.81 79.4648 240.542C79.4648 248.264 73.1745 254.547 65.4423 254.547ZM199.717 135.51C187.239 135.51 177.087 145.67 177.087 158.157C177.087 170.645 187.239 180.804 199.717 180.804C212.205 180.804 222.364 170.645 222.364 158.157C222.364 145.67 212.205 135.51 199.717 135.51ZM199.717 172.18C191.995 172.18 185.712 165.89 185.712 158.157C185.712 150.425 191.995 144.135 199.717 144.135C207.449 144.135 213.74 150.425 213.74 158.157C213.74 165.89 207.449 172.18 199.717 172.18ZM255.736 135.51C243.258 135.51 233.106 145.67 233.106 158.157C233.106 170.645 243.258 180.804 255.736 180.804C268.224 180.804 278.383 170.645 278.383 158.157C278.383 145.67 268.224 135.51 255.736 135.51ZM255.736 172.18C248.014 172.18 241.731 165.89 241.731 158.157C241.731 150.425 248.014 144.135 255.736 144.135C263.468 144.135 269.759 150.425 269.759 158.157C269.759 165.89 263.468 172.18 255.736 172.18ZM199.717 215.83C187.239 215.83 177.087 225.989 177.087 238.477C177.087 250.965 187.239 261.124 199.717 261.124C212.205 261.124 222.364 250.965 222.364 238.477C222.364 225.989 212.205 215.83 199.717 215.83ZM199.717 252.499C191.995 252.499 185.712 246.209 185.712 238.477C185.712 230.745 191.995 224.454 199.717 224.454C207.449 224.454 213.74 230.745 213.74 238.477C213.74 246.209 207.449 252.499 199.717 252.499ZM255.736 215.83C243.258 215.83 233.106 225.989 233.106 238.477C233.106 250.965 243.258 261.124 255.736 261.124C268.224 261.124 278.383 250.965 278.383 238.477C278.383 225.989 268.224 215.83 255.736 215.83ZM255.736 252.499C248.014 252.499 241.731 246.209 241.731 238.477C241.731 230.745 248.014 224.454 255.736 224.454C263.468 224.454 269.759 230.745 269.759 238.477C269.759 246.209 263.468 252.499 255.736 252.499ZM315.998 303.822C315.998 306.203 314.068 308.134 311.686 308.134H4.31424C1.93252 308.134 0.00195312 306.203 0.00195312 303.822V20.4882C0.00195312 18.1065 1.93252 16.1759 4.31424 16.1759C6.69597 16.1759 8.62653 18.1065 8.62653 20.4882V299.509H311.686C314.068 299.509 315.998 301.439 315.998 303.822ZM132.168 201.292C111.172 201.292 94.0903 218.381 94.0903 239.387C94.0903 260.384 111.172 277.465 132.168 277.465C153.174 277.465 170.264 260.383 170.264 239.387C170.264 218.381 153.175 201.292 132.168 201.292ZM132.168 268.84C115.928 268.84 102.715 255.627 102.715 239.387C102.715 223.137 115.928 209.917 132.168 209.917C148.419 209.917 161.639 223.137 161.639 239.387C161.639 255.627 148.419 268.84 132.168 268.84ZM232.818 129.982C266.481 129.982 293.867 102.595 293.867 68.9331C293.867 35.2606 266.481 7.8667 232.818 7.8667C199.155 7.8667 171.769 35.2612 171.769 68.9331C171.769 102.594 199.155 129.982 232.818 129.982ZM232.818 16.4913C261.725 16.4913 285.242 40.0166 285.242 68.9331C285.242 97.8397 261.725 121.356 232.818 121.356C203.911 121.356 180.394 97.8391 180.394 68.9331C180.394 40.0166 203.911 16.4913 232.818 16.4913ZM208.377 103.057H257.258C262.784 103.057 267.731 100.204 270.497 95.4178C273.296 90.5488 273.287 84.9719 270.475 80.1245L243.165 32.8523C243.161 32.8467 243.158 32.8412 243.155 32.8363C241.054 29.235 237.318 27.068 233.133 27.0409C228.964 27.0409 225.205 29.1757 223.066 32.7677L195.212 80.0258C192.356 84.8831 192.321 90.4711 195.108 95.3431C197.848 100.173 202.809 103.057 208.377 103.057ZM202.645 84.401L230.488 37.1634C231.079 36.1697 231.969 35.6654 233.104 35.6654C234.245 35.6728 235.119 36.1808 235.702 37.1751L263.01 84.4449C264.256 86.5921 264.259 88.962 263.024 91.1105C261.786 93.2521 259.739 94.4316 257.257 94.4316H208.376C205.881 94.4316 203.834 93.2441 202.603 91.0747C201.369 88.9164 201.385 86.5452 202.645 84.401ZM228.505 68.5128V53.8694C228.505 51.4877 230.436 49.5571 232.817 49.5571C235.199 49.5571 237.13 51.4877 237.13 53.8694V68.5128C237.13 70.8945 235.199 72.8251 232.817 72.8251C230.436 72.8251 228.505 70.8945 228.505 68.5128ZM228.505 79.6567V79.4821C228.505 77.1003 230.436 75.1698 232.817 75.1698C235.199 75.1698 237.13 77.1003 237.13 79.4821V79.6567C237.13 82.0384 235.199 83.969 232.817 83.969C230.436 83.969 228.505 82.0391 228.505 79.6567Z"/>
</mask>
<path d="M65.4423 117.98C86.4483 117.98 103.538 100.898 103.538 79.9017C103.538 58.8958 86.4483 41.8058 65.4423 41.8058C44.4456 41.8058 27.3643 58.8951 27.3643 79.9017C27.3643 100.898 44.4462 117.98 65.4423 117.98ZM65.4423 50.431C81.6923 50.431 94.913 63.6518 94.913 79.9017C94.913 96.1418 81.6929 109.355 65.4423 109.355C49.2017 109.355 35.9889 96.1424 35.9889 79.9017C35.9895 63.6518 49.2017 50.431 65.4423 50.431ZM140.829 102.952C153.307 102.952 163.459 92.7923 163.459 80.3048C163.459 67.8265 153.307 57.675 140.829 57.675C128.341 57.675 118.182 67.8265 118.182 80.3048C118.181 92.7923 128.341 102.952 140.829 102.952ZM140.829 66.2995C148.551 66.2995 154.833 72.5825 154.833 80.3041C154.833 88.0357 148.551 94.3266 140.829 94.3266C133.097 94.3266 126.806 88.0363 126.806 80.3041C126.806 72.5825 133.097 66.2995 140.829 66.2995ZM132.168 196.253C153.174 196.253 170.264 179.163 170.264 158.157C170.264 137.15 153.175 120.061 132.168 120.061C111.172 120.061 94.0903 137.15 94.0903 158.157C94.0903 179.163 111.172 196.253 132.168 196.253ZM132.168 128.687C148.419 128.687 161.639 141.907 161.639 158.157C161.639 174.407 148.419 187.628 132.168 187.628C115.928 187.628 102.715 174.407 102.715 158.157C102.715 141.907 115.928 128.687 132.168 128.687ZM65.4423 135.51C52.964 135.51 42.8125 145.67 42.8125 158.157C42.8125 170.645 52.964 180.804 65.4423 180.804C77.9299 180.804 88.0894 170.645 88.0894 158.157C88.0894 145.67 77.9305 135.51 65.4423 135.51ZM65.4423 172.18C57.7201 172.18 51.4377 165.89 51.4377 158.157C51.4377 150.425 57.7201 144.135 65.4423 144.135C73.1745 144.135 79.4648 150.425 79.4648 158.157C79.4648 165.89 73.1745 172.18 65.4423 172.18ZM65.4423 217.894C52.964 217.894 42.8125 228.054 42.8125 240.541C42.8125 253.02 52.964 263.171 65.4423 263.171C77.9299 263.171 88.0894 253.02 88.0894 240.541C88.09 228.054 77.9305 217.894 65.4423 217.894ZM65.4423 254.547C57.7201 254.547 51.4377 248.264 51.4377 240.542C51.4377 232.811 57.7201 226.52 65.4423 226.52C73.1745 226.52 79.4648 232.81 79.4648 240.542C79.4648 248.264 73.1745 254.547 65.4423 254.547ZM199.717 135.51C187.239 135.51 177.087 145.67 177.087 158.157C177.087 170.645 187.239 180.804 199.717 180.804C212.205 180.804 222.364 170.645 222.364 158.157C222.364 145.67 212.205 135.51 199.717 135.51ZM199.717 172.18C191.995 172.18 185.712 165.89 185.712 158.157C185.712 150.425 191.995 144.135 199.717 144.135C207.449 144.135 213.74 150.425 213.74 158.157C213.74 165.89 207.449 172.18 199.717 172.18ZM255.736 135.51C243.258 135.51 233.106 145.67 233.106 158.157C233.106 170.645 243.258 180.804 255.736 180.804C268.224 180.804 278.383 170.645 278.383 158.157C278.383 145.67 268.224 135.51 255.736 135.51ZM255.736 172.18C248.014 172.18 241.731 165.89 241.731 158.157C241.731 150.425 248.014 144.135 255.736 144.135C263.468 144.135 269.759 150.425 269.759 158.157C269.759 165.89 263.468 172.18 255.736 172.18ZM199.717 215.83C187.239 215.83 177.087 225.989 177.087 238.477C177.087 250.965 187.239 261.124 199.717 261.124C212.205 261.124 222.364 250.965 222.364 238.477C222.364 225.989 212.205 215.83 199.717 215.83ZM199.717 252.499C191.995 252.499 185.712 246.209 185.712 238.477C185.712 230.745 191.995 224.454 199.717 224.454C207.449 224.454 213.74 230.745 213.74 238.477C213.74 246.209 207.449 252.499 199.717 252.499ZM255.736 215.83C243.258 215.83 233.106 225.989 233.106 238.477C233.106 250.965 243.258 261.124 255.736 261.124C268.224 261.124 278.383 250.965 278.383 238.477C278.383 225.989 268.224 215.83 255.736 215.83ZM255.736 252.499C248.014 252.499 241.731 246.209 241.731 238.477C241.731 230.745 248.014 224.454 255.736 224.454C263.468 224.454 269.759 230.745 269.759 238.477C269.759 246.209 263.468 252.499 255.736 252.499ZM315.998 303.822C315.998 306.203 314.068 308.134 311.686 308.134H4.31424C1.93252 308.134 0.00195312 306.203 0.00195312 303.822V20.4882C0.00195312 18.1065 1.93252 16.1759 4.31424 16.1759C6.69597 16.1759 8.62653 18.1065 8.62653 20.4882V299.509H311.686C314.068 299.509 315.998 301.439 315.998 303.822ZM132.168 201.292C111.172 201.292 94.0903 218.381 94.0903 239.387C94.0903 260.384 111.172 277.465 132.168 277.465C153.174 277.465 170.264 260.383 170.264 239.387C170.264 218.381 153.175 201.292 132.168 201.292ZM132.168 268.84C115.928 268.84 102.715 255.627 102.715 239.387C102.715 223.137 115.928 209.917 132.168 209.917C148.419 209.917 161.639 223.137 161.639 239.387C161.639 255.627 148.419 268.84 132.168 268.84ZM232.818 129.982C266.481 129.982 293.867 102.595 293.867 68.9331C293.867 35.2606 266.481 7.8667 232.818 7.8667C199.155 7.8667 171.769 35.2612 171.769 68.9331C171.769 102.594 199.155 129.982 232.818 129.982ZM232.818 16.4913C261.725 16.4913 285.242 40.0166 285.242 68.9331C285.242 97.8397 261.725 121.356 232.818 121.356C203.911 121.356 180.394 97.8391 180.394 68.9331C180.394 40.0166 203.911 16.4913 232.818 16.4913ZM208.377 103.057H257.258C262.784 103.057 267.731 100.204 270.497 95.4178C273.296 90.5488 273.287 84.9719 270.475 80.1245L243.165 32.8523C243.161 32.8467 243.158 32.8412 243.155 32.8363C241.054 29.235 237.318 27.068 233.133 27.0409C228.964 27.0409 225.205 29.1757 223.066 32.7677L195.212 80.0258C192.356 84.8831 192.321 90.4711 195.108 95.3431C197.848 100.173 202.809 103.057 208.377 103.057ZM202.645 84.401L230.488 37.1634C231.079 36.1697 231.969 35.6654 233.104 35.6654C234.245 35.6728 235.119 36.1808 235.702 37.1751L263.01 84.4449C264.256 86.5921 264.259 88.962 263.024 91.1105C261.786 93.2521 259.739 94.4316 257.257 94.4316H208.376C205.881 94.4316 203.834 93.2441 202.603 91.0747C201.369 88.9164 201.385 86.5452 202.645 84.401ZM228.505 68.5128V53.8694C228.505 51.4877 230.436 49.5571 232.817 49.5571C235.199 49.5571 237.13 51.4877 237.13 53.8694V68.5128C237.13 70.8945 235.199 72.8251 232.817 72.8251C230.436 72.8251 228.505 70.8945 228.505 68.5128ZM228.505 79.6567V79.4821C228.505 77.1003 230.436 75.1698 232.817 75.1698C235.199 75.1698 237.13 77.1003 237.13 79.4821V79.6567C237.13 82.0384 235.199 83.969 232.817 83.969C230.436 83.969 228.505 82.0391 228.505 79.6567Z" fill="url(#paint0_linear_3007_10585)" stroke="#2D2D2D" stroke-width="6" mask="url(#path-1-inside-1_3007_10585)"/>
<defs>
<linearGradient id="paint0_linear_3007_10585" x1="180.407" y1="7.8667" x2="168.193" y2="488.349" gradientUnits="userSpaceOnUse">
<stop stop-color="#9FF8BE"/>
<stop offset="0.484375" stop-color="#EAFFE2"/>
<stop offset="1" stop-color="#F8EDBA"/>
</linearGradient>
</defs>
</svg>
