<svg xmlns="http://www.w3.org/2000/svg" width="150" height="250" viewBox="0 0 180 301" fill="none">
<path d="M107.258 233.199C107.128 233.201 107 233.16 106.895 233.082C106.791 233.004 106.714 232.895 106.677 232.769C106.641 232.644 106.646 232.51 106.693 232.388C106.74 232.266 106.825 232.163 106.936 232.094C119.799 224 121.535 202.447 118.66 190.422C117.818 186.916 116.583 184.389 115.372 183.576C115.849 191.079 116.303 210.941 114.179 212.471C114.05 212.563 113.89 212.601 113.733 212.575C113.576 212.549 113.436 212.462 113.344 212.333C113.251 212.204 113.214 212.044 113.239 211.887C113.265 211.73 113.352 211.59 113.481 211.497C114.704 210.272 114.913 193.331 114.131 182.77C113.439 177.955 111.84 177.394 110.402 176.988C111.834 186.486 111.184 205.972 108.684 210.482C108.605 210.62 108.474 210.722 108.32 210.764C108.166 210.806 108.002 210.785 107.864 210.706C107.725 210.626 107.624 210.495 107.582 210.341C107.54 210.187 107.561 210.023 107.64 209.884C109.889 205.828 110.748 186.055 109.12 176.51C107.885 175.912 107.33 176.336 106.59 176.868L106.375 177.023C106.459 183.439 105.946 205.517 101.936 208.277C101.872 208.323 101.799 208.355 101.722 208.372C101.645 208.389 101.565 208.39 101.487 208.376C101.409 208.362 101.335 208.333 101.269 208.29C101.203 208.247 101.146 208.191 101.101 208.126C101.056 208.061 101.025 207.987 101.009 207.91C100.993 207.833 100.992 207.753 101.007 207.675C101.022 207.598 101.053 207.524 101.096 207.458C101.14 207.392 101.196 207.335 101.262 207.292C103.923 205.458 105.319 188.923 105.188 177.424C105.109 177.48 105.042 177.551 104.991 177.633C103.597 179.573 102.544 181.736 101.877 184.03C101.503 185.528 101.303 187.063 101.28 188.606C101.295 190.886 100.774 193.137 99.7587 195.177C98.0762 198.57 95.5226 201.043 93.4762 203.027C92.8796 203.576 92.3725 204.096 91.9012 204.586L90.5647 205.989L91.4776 200.494C91.4901 200.415 91.5179 200.34 91.5595 200.272C91.6011 200.205 91.6555 200.146 91.7198 200.099C91.7841 200.053 91.8569 200.019 91.9341 200.001C92.0112 199.982 92.0913 199.979 92.1696 199.992C92.248 200.004 92.3231 200.032 92.3907 200.074C92.4583 200.116 92.517 200.17 92.5636 200.234C92.6101 200.299 92.6435 200.372 92.6619 200.449C92.6803 200.526 92.6833 200.606 92.6708 200.685L92.3785 202.441L92.6648 202.166C94.6456 200.249 97.1156 197.859 98.7086 194.646C99.6536 192.747 100.132 190.65 100.105 188.529C100.138 186.902 100.356 185.285 100.755 183.708C101.458 181.279 102.57 178.988 104.042 176.934C104.216 176.673 104.451 176.46 104.727 176.313C105.003 176.166 105.311 176.09 105.623 176.092L105.91 175.882C106.745 175.285 107.879 174.431 109.931 175.548C110.152 175.626 110.384 175.691 110.629 175.757C112.234 176.205 114.418 176.808 115.283 182.161C117.771 182.883 119.208 187.382 119.859 190.106C122.908 202.829 121.118 224.567 107.616 233.062C107.515 233.146 107.389 233.194 107.258 233.199ZM86.3765 226.921C86.2299 226.922 86.0881 226.869 85.978 226.772C85.868 226.675 85.7974 226.541 85.7799 226.395C85.052 220.093 84.6343 206.431 86.1617 203.905C86.7583 202.907 87.5041 201.366 88.22 199.872C90.0636 196.019 90.9704 194.311 91.8952 194.078C91.9712 194.058 92.0504 194.054 92.1281 194.065C92.2059 194.076 92.2807 194.102 92.3483 194.142C92.4159 194.182 92.475 194.235 92.5222 194.298C92.5693 194.36 92.6036 194.432 92.6231 194.508C92.6427 194.585 92.647 194.664 92.6357 194.742C92.6244 194.821 92.5977 194.896 92.5572 194.963C92.5167 195.031 92.4631 195.09 92.3997 195.137C92.3362 195.184 92.2642 195.218 92.1875 195.237C91.6387 195.5 90.2306 198.439 89.2939 200.386C88.572 201.903 87.8203 203.475 87.1819 204.526C86.0424 206.402 86.0961 218.749 86.9671 226.258C86.9839 226.415 86.9381 226.571 86.8398 226.695C86.7414 226.818 86.5985 226.897 86.4421 226.915L86.3765 226.921Z" fill="black"/>
<path d="M93.5327 202.423C93.4536 202.423 93.3777 202.392 93.3217 202.336C93.2658 202.28 93.2344 202.204 93.2344 202.124V172.746C93.2359 172.667 93.2678 172.592 93.3234 172.537C93.379 172.481 93.454 172.449 93.5327 172.448C93.6118 172.448 93.6877 172.479 93.7436 172.535C93.7995 172.591 93.831 172.667 93.831 172.746V202.124C93.831 202.204 93.7995 202.28 93.7436 202.336C93.6877 202.392 93.6118 202.423 93.5327 202.423ZM94.7259 201.228C94.6468 201.228 94.5709 201.197 94.515 201.141C94.459 201.085 94.4276 201.009 94.4276 200.93V173.451C94.4276 173.372 94.459 173.296 94.515 173.24C94.5709 173.184 94.6468 173.152 94.7259 173.152C94.805 173.152 94.8809 173.184 94.9368 173.24C94.9928 173.296 95.0242 173.372 95.0242 173.451V200.93C95.0242 201.009 94.9928 201.085 94.9368 201.141C94.8809 201.197 94.805 201.228 94.7259 201.228ZM95.9192 199.89C95.84 199.89 95.7642 199.859 95.7082 199.803C95.6523 199.747 95.6209 199.671 95.6209 199.592V174.64C95.6209 174.561 95.6523 174.485 95.7082 174.429C95.7642 174.373 95.84 174.341 95.9192 174.341C95.9983 174.341 96.0741 174.373 96.1301 174.429C96.186 174.485 96.2175 174.561 96.2175 174.64V199.592C96.2175 199.632 96.2094 199.672 96.1937 199.709C96.1779 199.746 96.1549 199.779 96.1259 199.807C96.0969 199.835 96.0626 199.857 96.0251 199.871C95.9875 199.885 95.9474 199.892 95.9072 199.89H95.9192Z" fill="black"/>
<path d="M95.9167 174.939C95.8496 174.939 95.7842 174.917 95.7312 174.876C95.6781 174.835 95.6405 174.777 95.6244 174.712C95.6063 174.634 95.6192 174.552 95.6605 174.484C95.7018 174.416 95.7681 174.367 95.8451 174.347L177.88 154.634C177.957 154.616 178.038 154.63 178.105 154.671C178.172 154.712 178.22 154.779 178.238 154.855C178.248 154.894 178.25 154.934 178.244 154.973C178.238 155.012 178.225 155.05 178.204 155.084C178.184 155.118 178.157 155.147 178.125 155.171C178.092 155.194 178.056 155.211 178.018 155.22L95.9823 174.933L95.9167 174.939ZM95.3201 173.744C95.241 173.753 95.1613 173.731 95.0987 173.682C95.036 173.632 94.9955 173.56 94.986 173.481C94.9765 173.402 94.9988 173.322 95.048 173.259C95.0973 173.197 95.1694 173.156 95.2485 173.147L176.687 153.726C176.766 153.708 176.849 153.722 176.918 153.765C176.987 153.808 177.036 153.877 177.054 153.956C177.072 154.036 177.058 154.119 177.015 154.188C176.972 154.257 176.903 154.305 176.824 154.324L95.3857 173.738L95.3201 173.744ZM94.4252 172.848C94.3572 172.848 94.2912 172.825 94.238 172.783C94.1849 172.74 94.1478 172.681 94.1328 172.615C94.1149 172.538 94.128 172.457 94.1694 172.39C94.2108 172.323 94.277 172.275 94.3536 172.256L163.621 155.775V140.011H169.886L169.736 154.348L174.885 153.123C174.924 153.114 174.965 153.113 175.005 153.119C175.044 153.126 175.082 153.141 175.116 153.162C175.15 153.183 175.18 153.211 175.203 153.244C175.227 153.277 175.243 153.314 175.252 153.353C175.261 153.392 175.262 153.433 175.256 153.472C175.249 153.512 175.235 153.55 175.213 153.584C175.192 153.618 175.164 153.648 175.131 153.671C175.099 153.695 175.062 153.711 175.023 153.72L169.51 155.035L164.003 156.349L94.5027 172.913L94.4252 172.848ZM164.23 140.59V155.614L169.152 154.419L169.295 140.566L164.23 140.59Z" fill="black"/>
<path d="M86.9207 225.87C86.8388 225.789 86.7413 225.726 86.6343 225.684C86.4829 225.622 86.3171 225.604 86.1558 225.632C85.9945 225.659 85.844 225.731 85.7215 225.84C85.6077 225.93 85.521 226.05 85.4709 226.186L66.7132 273.623L50.4613 241.27L55.6817 237.685L53.2356 226.461C53.1801 226.234 53.0382 226.037 52.8401 225.914C52.642 225.79 52.4034 225.748 52.1753 225.798C51.9471 225.848 51.7475 225.985 51.619 226.181C51.4905 226.376 51.4433 226.614 51.4875 226.843L53.6771 236.891L48.8146 240.248L23.16 257.924L18.1125 261.401H18.0768L14.1749 264.095L2.24248 196.306C0.93588 187.137 4.27098 171.438 12.1165 161.032C16.1974 155.614 20.9047 152.329 26.1252 151.241C26.5547 151.146 26.9903 151.068 27.4318 151.008C27.5493 150.993 27.6626 150.954 27.7651 150.895C27.8677 150.835 27.9576 150.756 28.0296 150.662C28.1016 150.567 28.1544 150.46 28.1849 150.345C28.2154 150.23 28.223 150.111 28.2074 149.993C28.1917 149.875 28.153 149.762 28.0936 149.659C28.0341 149.556 27.9551 149.466 27.8609 149.394C27.7667 149.322 27.6592 149.269 27.5447 149.239C27.4301 149.208 27.3106 149.201 27.1931 149.216L26.5965 149.312C20.678 150.304 15.1951 153.965 10.6906 159.933C2.56465 170.685 -0.883823 187.011 0.47647 196.569L12.8802 267.135L18.0887 263.551L29.0367 300.02H30.9041L19.6339 262.482L23.3628 259.919L45.6883 300.02H47.7288L24.8424 258.898L48.9817 242.255L65.8302 275.845L65.2336 277.386C65.1859 277.497 65.1612 277.616 65.1608 277.737C65.1605 277.858 65.1845 277.977 65.2314 278.089C65.2784 278.2 65.3473 278.3 65.4341 278.384C65.5208 278.468 65.6236 278.534 65.7363 278.577C65.849 278.62 65.9692 278.64 66.0897 278.635C66.2102 278.631 66.3286 278.602 66.4377 278.55C66.5467 278.499 66.6443 278.426 66.7244 278.335C66.8046 278.245 66.8657 278.139 66.9041 278.025L67.632 276.119L87.1295 226.861C87.2004 226.694 87.2185 226.51 87.1811 226.333C87.1438 226.155 87.0529 225.994 86.9207 225.87ZM172.571 151.797H172.422L169.767 152.526H169.654C169.459 152.579 169.289 152.697 169.171 152.86C169.089 152.964 169.034 153.086 169.009 153.216C168.984 153.346 168.99 153.48 169.028 153.607C169.055 153.707 169.1 153.802 169.159 153.888C169.266 154.037 169.415 154.15 169.588 154.213C169.76 154.276 169.947 154.285 170.125 154.24L172.589 153.565C173.126 153.614 173.66 153.689 174.188 153.792C174.534 153.864 174.874 153.942 175.197 154.031C175.557 154.134 175.911 154.255 176.259 154.395C176.52 154.504 176.774 154.631 177.016 154.778C177.238 154.906 177.439 155.067 177.613 155.256C177.63 155.27 177.646 155.286 177.661 155.303L97.4928 174.759L97.3436 174.544C97.2183 174.365 97.0871 174.192 96.9559 174.025C96.7979 173.816 96.6286 173.617 96.4487 173.427C96.2988 173.253 96.1395 173.088 95.9714 172.932C95.8282 172.788 95.6791 172.663 95.5299 172.537C95.3399 172.371 95.1408 172.215 94.9333 172.071L135.784 162.215H135.82L158.109 156.839L163.646 155.513L163.849 155.465C163.995 155.428 164.13 155.356 164.243 155.256C164.361 155.147 164.448 155.009 164.495 154.856C164.542 154.703 164.548 154.54 164.511 154.383C164.454 154.153 164.309 153.954 164.107 153.83C163.905 153.706 163.662 153.666 163.431 153.721L135.933 160.345C125.623 147.681 111.597 146.935 105.559 148.338L105.41 148.386C97.8687 142.878 100.184 132.735 101.723 125.973C101.878 125.28 102.027 124.623 102.158 124.002C102.184 123.891 102.187 123.777 102.168 123.665C102.148 123.553 102.106 123.446 102.045 123.351C101.953 123.196 101.816 123.074 101.653 122.998C101.49 122.923 101.308 122.899 101.132 122.93C100.955 122.96 100.791 123.043 100.662 123.169C100.534 123.294 100.446 123.455 100.41 123.631C100.333 123.99 100.249 124.366 100.16 124.755C100.1 125.023 100.04 125.292 99.9748 125.573C98.3042 132.926 95.7984 144.019 104.789 150.142L108.876 157.233C104.205 163.887 98.6085 167.794 92.2425 168.852C83.2097 170.345 75.215 165.578 73.3178 164.324C73.0433 164.144 72.9002 164.037 72.8882 164.031C72.7942 163.96 72.6872 163.909 72.5734 163.88C72.4595 163.851 72.341 163.844 72.2247 163.861C72.1083 163.877 71.9964 163.917 71.8953 163.977C71.7942 164.037 71.7058 164.116 71.6353 164.21C71.5648 164.304 71.5135 164.411 71.4843 164.525C71.4552 164.639 71.4487 164.758 71.4653 164.874C71.4819 164.991 71.5213 165.103 71.5812 165.204C71.6411 165.305 71.7203 165.394 71.8143 165.465C71.8143 165.465 72.1007 165.68 72.6018 166.002C75.0897 167.603 83.1799 172.161 92.529 170.62C99.5452 169.425 105.655 165.142 110.678 157.783L110.994 157.317L106.734 149.927C112.635 148.876 124.729 149.969 133.994 160.811L92.0815 170.924C92.0119 170.942 91.9439 170.966 91.8786 170.996C91.7982 171.037 91.7239 171.09 91.6579 171.151C91.5927 171.213 91.5364 171.283 91.4908 171.361C91.4538 171.435 91.4239 171.513 91.4013 171.593C91.398 171.651 91.398 171.709 91.4013 171.767V171.815L91.2224 194.514V196.623V200.595C91.2126 200.813 91.285 201.026 91.4252 201.193C91.5076 201.296 91.6119 201.38 91.7306 201.437C91.8492 201.495 91.9793 201.526 92.1113 201.527C92.2829 201.527 92.4508 201.478 92.5946 201.384C92.7198 201.303 92.8229 201.193 92.8948 201.063C92.9667 200.932 93.005 200.786 93.0062 200.637L93.227 173.159L93.3045 173.2C93.5092 173.303 93.7083 173.417 93.9012 173.541C94.1094 173.675 94.3087 173.823 94.4978 173.983C94.7091 174.169 94.9083 174.369 95.0944 174.58C95.305 174.801 95.5041 175.032 95.691 175.273C95.8879 175.53 96.0848 175.811 96.2876 176.121V197.967C96.286 198.096 96.3168 198.223 96.3771 198.337C96.4472 198.492 96.5605 198.624 96.7033 198.716C96.8462 198.808 97.0126 198.857 97.1826 198.857C97.306 198.856 97.4278 198.83 97.5405 198.779C97.6787 198.719 97.7991 198.624 97.89 198.504C97.9809 198.384 98.0393 198.242 98.0596 198.092C98.0628 198.049 98.0628 198.005 98.0596 197.961V176.558L178.007 157.161L176.545 240.863L164.416 243.689H164.386L128.589 251.723H128.422L100.112 258.151L108.011 233.062C108.046 232.949 108.058 232.83 108.047 232.712C108.036 232.595 108.002 232.48 107.946 232.376C107.891 232.271 107.815 232.179 107.724 232.104C107.633 232.029 107.528 231.973 107.415 231.939C107.347 231.915 107.277 231.903 107.206 231.903C107.009 231.888 106.813 231.938 106.648 232.046C106.483 232.154 106.358 232.314 106.293 232.5L97.9403 259.071L85.0593 300.008H86.9327L99.4975 260.086L127.759 253.742V264.734C127.652 265.928 126.119 283.318 127.759 294.602C128.016 296.34 128.356 298.186 128.821 300.074H130.671C130.188 298.078 129.794 296.143 129.531 294.339C128.29 285.862 128.935 273.497 129.305 267.858C133.033 273.921 139.483 279.465 146.607 279.208C151.881 278.999 159.41 275.468 165.34 259.829L165.4 259.674V245.26L178.215 242.273L179.731 156.032V155.973C179.731 152.454 173.305 151.875 172.571 151.815V151.797ZM163.622 259.322C159.207 270.881 153.307 277.123 146.553 277.392C139.244 277.667 132.646 270.97 129.543 264.543V253.312L163.622 245.666V259.322Z" fill="black"/>
<path d="M64.2688 219.991C63.7762 219.99 63.2841 219.961 62.7951 219.902C60.4464 219.574 58.1694 218.853 56.0593 217.769C53.3455 216.408 50.7716 214.783 48.3748 212.919H48.345C47.9452 212.614 47.5455 212.321 47.1517 211.987C45.9385 211.358 44.8806 210.466 44.0553 209.376C40.6231 206.313 37.4131 203.01 34.4497 199.49L34.4199 199.454C34.1156 199.096 33.8233 198.731 33.5249 198.373C33.1673 198.008 32.8475 197.608 32.5703 197.178C29.1398 192.847 26.5326 188.767 25.1782 185.583C23.6013 181.837 22.7431 177.826 22.6486 173.762C22.4099 166.301 24.331 158.583 26.3595 150.417C27.863 144.372 29.4202 138.123 30.2793 131.391C30.691 128.171 31.1086 125.196 31.5501 122.299C32.3436 117.072 33.1312 112.688 34.044 107.616C34.6048 104.492 35.1835 101.26 35.8339 97.4013C32.0871 92.1505 29.1398 82.7183 27.9107 72.0434C26.7175 61.5658 27.4513 51.996 29.8796 46.1419C23.6628 43.2626 19.6476 38.7944 18.2455 33.1911C16.6287 26.7456 18.687 18.9143 23.6151 12.7435V12.7077C24.4945 11.618 25.4347 10.579 26.4311 9.59544C27.4378 8.60224 28.5016 7.6688 29.6171 6.79984C30.2137 6.3339 30.8461 5.87392 31.4845 5.43784C32.6611 4.63351 33.8865 3.90323 35.1537 3.25141H35.1895C41.9075 -0.17743 48.3151 -0.601556 53.285 2.05669C58.2548 4.71494 61.5183 10.5333 62.64 18.8366C94.0818 15.3122 110.68 45.0249 112.482 48.4537L112.553 48.6268C113.251 51.1059 113.311 53.2923 112.732 55.1381V55.168C112.347 56.4343 111.641 57.5789 110.682 58.4898C109.723 59.4008 108.544 60.047 107.261 60.365C120.804 98.5184 109.648 115.794 104.153 121.475C98.1508 127.699 90.0666 129.957 82.5253 127.52C81.7855 127.281 81.0338 127.054 80.2761 126.827C75.4375 125.37 70.4497 123.84 66.16 118.273C66.0169 118.906 66.0944 120.298 68.1647 126.953C68.1647 126.953 68.1647 126.953 68.1647 126.995C68.5757 128.57 68.9063 130.165 69.1551 131.773C69.6682 134.653 70.3065 138.231 71.1657 140.423C71.5276 141.367 71.8677 142.267 72.1859 143.123C72.1833 143.135 72.1833 143.147 72.1859 143.159C76.6247 155.399 75.4613 159.288 73.2002 164.586L73.0331 164.975C72.1451 166.942 71.4091 168.975 70.8316 171.056C70.6168 171.868 70.4199 172.71 70.235 173.565C68.8329 180.912 70.8316 185.261 72.8004 189.466C74.2025 192.507 75.6582 195.643 75.6582 199.711V199.747C75.6582 207.351 74.3695 212.889 71.8816 216.24C71.0108 217.436 69.863 218.402 68.537 219.055C67.2109 219.709 65.7462 220.03 64.2688 219.991ZM63.338 218.158C66.0169 218.39 68.1468 217.656 69.8054 215.923C62.6459 208.755 57.5568 115.609 56.6798 98.8409C56.261 99.0668 55.8286 99.2663 55.3851 99.4383C55.4149 143.595 57.5449 210.631 63.338 218.158ZM56.8289 216.168C58.191 216.845 59.6183 217.382 61.0888 217.769C54.0129 201.7 53.6131 111.762 53.5893 99.9401L53.3387 99.976C52.5571 109.904 50.3556 140.728 50.4212 169.759C50.5405 206.987 54.4902 214.824 56.8289 216.168ZM58.7441 103.805C59.4958 117.652 61.1305 144.909 63.517 170.112C67.0192 206.7 69.7875 213.408 70.8733 214.549C72.8243 211.563 73.8564 206.748 73.9101 200.249C62.5087 194.275 61.7809 120.364 61.7331 110.752C60.6711 108.548 59.6628 106.224 58.7441 103.805ZM49.4726 211.533C50.7255 212.481 51.9486 213.335 53.1418 214.095C51.9008 211.33 50.9343 207.142 50.2124 201.473C49.2101 193.636 48.6851 182.955 48.6493 169.777C48.5956 152.143 49.395 133.858 50.2064 119.97C44.8965 157.794 41.5137 203.17 49.4726 211.521V211.533ZM45.2963 208.08L45.7079 208.444C37.4626 186.259 49.8007 110.101 51.4892 99.982C51.121 99.9281 50.7578 99.8441 50.4033 99.731C42.3191 137.938 35.1119 194.663 45.2843 208.068L45.2963 208.08ZM35.8816 198.415C37.6715 200.517 39.521 202.537 41.4123 204.424C32.2422 179.544 47.0086 107.192 48.7447 98.9306L48.6075 98.8409C41.3645 127.454 29.8736 183.128 35.8697 198.403L35.8816 198.415ZM68.9641 184.389C70.3483 191.282 71.989 196.133 73.8624 198.003C73.5521 195.093 72.4305 192.674 71.2552 190.135C70.3408 188.278 69.5708 186.353 68.9522 184.377L68.9641 184.389ZM46.5372 96.8219C37.3433 130.017 27.2485 179.407 33.0118 194.192C29.975 173.702 40.4577 123.637 47.104 97.5327C46.8952 97.2818 46.6864 97.0489 46.5253 96.8099L46.5372 96.8219ZM26.8488 184.909C27.8218 187.062 28.9859 189.123 30.3271 191.067C25.4944 166.617 43.5899 100.818 45.2903 94.7192C44.8542 93.8122 44.5104 92.8636 44.2641 91.8877C42.0327 95.9139 38.1547 109.42 33.1789 137.406C28.8952 161.295 26.2223 182.836 26.813 184.897L26.8488 184.909ZM37.6774 97.3475C36.9853 101.368 36.3887 104.695 35.81 107.921C34.9031 112.974 34.1156 117.347 33.3221 122.556C32.8866 125.435 32.4749 128.392 32.0632 131.6C31.1862 138.44 29.6171 144.742 28.1017 150.835C26.103 158.876 24.2117 166.474 24.4444 173.684C24.499 175.759 24.7548 177.824 25.2081 179.849C25.9479 170.847 28.579 153.021 31.4069 137.096C34.6168 119.026 39.0258 97.5327 42.8024 90.9259C41.108 91.129 39.0377 92.0728 37.6416 97.3356L37.6774 97.3475ZM63.6125 114.145C63.8452 138.326 65.4023 163.308 68.1528 179.819C67.9988 177.583 68.1453 175.337 68.5883 173.141C68.7374 172.352 68.9104 171.563 69.1073 170.799C67.2817 165.954 66.6731 144.629 66.4882 127.311C63.9824 119.247 64.2568 118.428 64.6029 117.395C64.7591 116.942 64.7941 116.456 64.7043 115.985C64.2986 115.376 63.9346 114.761 63.5767 114.133L63.6125 114.145ZM68.4272 136.964C68.7315 151.797 69.3281 162.376 70.1514 167.46C70.5929 166.265 71.0523 165.172 71.4759 164.174V164.138C69.3221 158.702 69.865 148.422 70.4915 143.452C70.2051 142.663 69.8949 141.845 69.5548 140.979C69.068 139.667 68.6791 138.322 68.3914 136.952L68.4272 136.964ZM71.9115 147.621C71.6131 151.97 71.5893 157.549 72.5558 161.534C73.6416 158.404 74.0891 154.921 71.8757 147.609L71.9115 147.621ZM66.339 115.221C70.5571 121.941 75.5628 123.446 80.8608 125.041C81.6244 125.268 82.3881 125.495 83.1458 125.74C90.0189 127.968 97.417 125.877 102.93 120.161C108.186 114.701 118.913 98.0047 105.525 60.5622C103.592 60.7354 99.8571 60.8488 96.8561 60.9146H96.8024C93.8193 60.9803 90.7945 60.9803 87.7756 60.9146H87.7338C84.5598 60.8488 81.4872 60.7055 78.5996 60.4905H78.5638C75.4673 60.2635 72.5976 59.9468 69.9963 59.5585H69.9545C66.9343 59.1173 63.9779 58.3151 61.1484 57.1691C61.9181 60.7533 62.2223 67.5931 55.3314 83.1006C55.8564 86.5892 56.5246 90.0001 57.336 93.2557C57.336 93.2557 57.336 93.2854 57.336 93.2974C57.6522 94.5578 57.9923 95.8243 58.3563 97.0608C58.3563 97.0608 58.3563 97.0608 58.3563 97.0967C59.6582 101.595 61.3552 105.968 63.4275 110.167C64.3105 111.959 65.2591 113.626 66.2495 115.209L66.339 115.221ZM50.2303 97.7C50.9485 98.0746 51.7473 98.2674 52.5571 98.2615H52.587C53.1606 98.2477 53.7293 98.1511 54.2754 97.9748H54.3112C55.0913 97.7191 55.8353 97.3637 56.5246 96.9174C56.3277 96.2245 56.1368 95.5316 55.928 94.8267C55.1727 95.1454 54.3327 95.2021 53.5415 94.988C50.6718 94.2293 48.9416 90.4242 48.6254 89.6655C48.5508 89.4504 48.5609 89.2149 48.6536 89.0069C48.7462 88.799 48.9145 88.634 49.1241 88.5458C49.3338 88.4576 49.5692 88.4525 49.7824 88.5318C49.9956 88.6111 50.1707 88.7687 50.2721 88.9725C51.0238 90.7646 52.5094 92.8614 53.995 93.2557C54.4904 93.3855 55.0169 93.3169 55.4626 93.0645C54.7109 89.9642 54.0785 86.7146 53.5773 83.3992C52.7324 82.5187 51.7387 81.7947 50.642 81.2607C49.9462 80.91 49.1411 80.8456 48.3987 81.0814C48.0305 81.232 47.7004 81.4626 47.4321 81.7565C46.8015 82.5029 46.3541 83.3865 46.1255 84.337C45.6694 86.1005 45.5379 87.9325 45.7377 89.7431V89.785C45.9079 91.3313 46.3588 92.8333 47.0682 94.2174C47.5015 95.0981 48.0713 95.9046 48.7566 96.6068C49.1775 97.0265 49.6555 97.3845 50.1766 97.6701L50.2303 97.7ZM31.9081 46.0583C26.6817 57.0915 29.3367 83.4828 36.52 95.1074C36.9335 93.8721 37.5374 92.7091 38.3098 91.6606C29.6111 79.1937 27.5707 64.0447 32.2064 45.5206C32.1011 45.6923 32.0055 45.8699 31.92 46.0523L31.9081 46.0583ZM35.6907 39.7561C29.1279 60.4726 30.4285 77.0373 39.5806 90.3525C40.5607 89.6059 41.7451 89.1765 42.9754 89.1219C29.0205 72.6945 34.4139 46.8468 36.687 38.4659C36.2873 38.8781 35.9472 39.2902 35.631 39.7442L35.6907 39.7561ZM38.8408 37.3667C37.1822 42.7967 29.8915 70.1258 43.8644 87.3597C43.8979 86.2923 44.0419 85.2313 44.2939 84.1936C36.4543 70.1139 39.2943 43.2149 39.9386 37.988L38.8408 37.3667ZM41.6211 38.9975C40.8813 45.3773 38.7692 68.6146 45.1292 81.9118C45.3476 81.4875 45.6096 81.0871 45.9108 80.7171C46.4298 75.5141 44.5743 55.2874 43.4527 43.1192L43.1663 39.9651C42.5936 39.6605 42.0745 39.332 41.5614 39.0154L41.6211 38.9975ZM52.0142 79.9106C52.7591 80.3327 53.4553 80.8355 54.0904 81.41C61.4348 64.5645 59.806 58.8358 59.0185 56.0521L58.9708 55.8908C58.4219 54.5468 57.2167 53.2027 55.8982 51.8826C57.5747 59.475 54.7765 69.7196 52.8256 76.87C52.5333 77.9572 52.2528 78.9907 52.0142 79.9106ZM49.1802 79.0863C49.5708 79.0871 49.9597 79.1373 50.3377 79.2357C50.5704 78.3516 50.8329 77.3958 51.1014 76.3982C53.3208 68.2741 56.6618 56.0163 52.9986 49.0212C52.402 48.376 51.7755 47.6412 51.1312 46.8646C50.4868 46.0881 49.938 45.419 49.3413 44.7619C50.099 56.7868 50.5823 71.4461 49.1862 79.0863H49.1802ZM45.0039 41.2734L45.159 42.9698C46.1375 53.6506 47.5455 68.7281 47.6947 76.7805C48.5299 70.0781 48.4345 58.549 47.3964 43.0237C46.6406 42.4422 45.8491 41.8628 45.0218 41.2854L45.0039 41.2734ZM88.3543 59.1105C90.7885 59.1583 93.2287 59.1583 95.633 59.1105C91.6596 45.0307 65.6708 28.6452 52.6168 23.7827C52.0739 24.0277 51.5309 24.2905 50.988 24.5653H50.9582C50.1826 24.9536 49.4129 25.3716 48.6612 25.8077C60.522 29.6248 81.7318 42.725 88.3722 59.1225L88.3543 59.1105ZM54.9436 22.7852C69.1551 28.6094 93.8015 44.7022 97.4528 59.0806C100.973 58.997 103.592 58.8956 105.048 58.7761C103.025 47.4621 76.3324 28.8244 61.7928 22.0922C60.701 21.8711 59.633 21.674 58.6128 21.4948C57.4255 21.8831 56.1965 22.3131 54.9854 22.797L54.9436 22.7852ZM79.1783 58.7103C81.4753 58.8716 83.8856 58.9911 86.3676 59.0628C79.3513 42.8923 57.7835 30.1445 46.7818 27.1458C46.6088 27.4923 46.3881 28.0299 46.2389 28.3884C45.7497 29.5831 45.4454 30.2939 44.9741 30.6404H44.9383L44.449 30.9929C55.1822 34.5114 72.5857 44.4633 79.2201 58.7223L79.1783 58.7103ZM70.7242 57.8083C72.705 58.095 74.8647 58.3399 77.1557 58.5371C69.9247 44.2662 51.34 34.8937 42.7487 32.3429C42.4146 32.6058 42.0864 32.8805 41.7643 33.1612C49.9976 36.9306 65.8677 46.793 70.7242 57.8083ZM69.4534 24.0097C84.3271 32.3727 104.976 47.9041 106.861 58.5191C107.81 58.2806 108.684 57.8088 109.404 57.1463C110.123 56.4839 110.667 55.652 110.984 54.726C107.822 41.1898 86.8926 29.3142 69.4534 24.0336V24.0097ZM60.5041 54.9051C63.0916 56.0537 65.7991 56.9092 68.5763 57.4558C63.2485 47.0797 47.5574 37.6295 40.3085 34.4694C40.0878 34.6785 39.861 34.8936 39.6403 35.1146C39.5852 35.1938 39.5165 35.2626 39.4374 35.3178L39.2107 35.5507C39.8789 35.9091 40.577 36.3034 41.281 36.7454H41.3168C42.3609 37.3428 43.4169 38.0238 44.449 38.7048C45.9764 39.7083 47.4322 40.7597 48.8163 41.823C50.1709 42.9812 51.4025 44.2764 52.4915 45.6879C53.1418 46.4704 53.7503 47.2052 54.347 47.8205V47.8504C54.866 48.382 55.4149 48.9136 55.9638 49.4513C57.7716 51.2374 59.5972 52.9756 60.4981 54.929L60.5041 54.9051ZM63.0337 20.4973C77.46 23.5916 103.514 34.6965 111.086 49.8157C111.032 49.5768 110.972 49.3377 110.901 49.0988C108.944 45.4369 92.9542 17.2596 63.0278 20.5212L63.0337 20.4973ZM22.4636 17.594C19.749 22.5282 18.7884 28.0239 19.9638 32.7013C21.2346 37.7729 24.9217 41.8349 30.6552 44.4812C30.9031 44.1 31.1825 43.7403 31.4905 43.4059C31.6217 43.2506 31.753 43.1014 31.8842 42.9401C27.3738 38.9199 21.3957 28.0239 22.4636 17.6179V17.594ZM25.1007 13.6695C21.6224 24.3443 28.0002 36.8589 32.809 41.363L33.0297 40.8612C33.3181 40.1414 33.6716 39.4496 34.0858 38.7943V38.7586C35.0042 37.5109 35.9901 36.3144 37.039 35.1744H37.0689L37.5521 34.6606C34.4258 31.5842 26.7235 20.3241 26.0911 12.4807C25.7689 12.8869 25.4288 13.287 25.1007 13.6932V13.6695ZM27.9107 10.599C27.1292 17.7673 36.335 30.9091 38.8289 33.4001C39.0496 33.1851 39.2764 32.976 39.5031 32.8028L39.5329 32.773C40.3204 32.0562 41.1438 31.3513 41.991 30.6823C42.4205 30.3477 42.862 30.0131 43.3095 29.6786L42.3847 27.8865C39.5926 22.3908 34.4795 12.3552 30.1779 8.63961C29.3844 9.24294 28.6386 9.91799 27.9107 10.6169V10.599ZM31.6336 7.46283C36.1322 11.5727 41.0065 21.1483 43.9956 27.0144L44.4968 28.0061L44.628 27.6955C45.1471 26.4291 45.4633 25.6942 45.9824 25.3597C47.104 24.6429 48.2793 23.9619 49.4666 23.3347C48.3867 20.5928 43.6376 10.4019 32.1646 7.06264L31.6336 7.46283ZM34.1574 5.83803C45.2068 9.72086 49.8604 19.416 51.1073 22.5641L52.2528 22.0325C53.5057 21.465 54.7825 20.9572 56.0712 20.5032C55.4746 14.5296 50.6002 3.9981 35.8876 4.87621C35.285 5.15697 34.7062 5.48559 34.1574 5.83803ZM39.9863 3.12001C52.5153 4.19526 57.0676 13.8725 57.8074 19.9119L58.3503 19.7506H58.3861C59.2392 19.4937 60.0984 19.2666 60.9456 19.0695C59.9075 11.3337 56.996 5.98136 52.5034 3.56803C49.0072 1.68635 44.6579 1.55492 39.9625 3.11403L39.9863 3.12001ZM90.5141 110.376C87.3321 110.376 83.6649 108.992 79.5124 106.224C79.4145 106.159 79.3303 106.075 79.2647 105.978C79.1991 105.88 79.1533 105.77 79.1301 105.655C79.1068 105.54 79.1065 105.421 79.1291 105.305C79.1517 105.19 79.1968 105.08 79.2618 104.982C79.3268 104.884 79.4105 104.8 79.5081 104.734C79.6056 104.668 79.7152 104.622 79.8304 104.599C79.9456 104.576 80.0643 104.575 80.1797 104.598C80.2951 104.621 80.4048 104.666 80.5028 104.731C87.5667 109.438 92.7573 109.832 96.3848 105.926C96.4564 105.818 96.5503 105.728 96.6602 105.66C96.77 105.592 96.8931 105.549 97.021 105.534C97.149 105.518 97.2788 105.531 97.4016 105.57C97.5244 105.609 97.6372 105.675 97.7324 105.762C97.8276 105.849 97.9029 105.955 97.9531 106.074C98.0034 106.193 98.0274 106.322 98.0235 106.451C98.0196 106.58 97.9879 106.706 97.9306 106.822C97.8733 106.937 97.7917 107.039 97.6914 107.12C96.7987 108.147 95.6955 108.969 94.457 109.531C93.2185 110.093 91.8737 110.381 90.5141 110.376ZM92.5545 93.7932C92.3695 93.7932 92.2084 93.7932 92.0891 93.7932C91.9716 93.7846 91.8569 93.7529 91.7517 93.6999C91.6464 93.6469 91.5525 93.5737 91.4755 93.4844C91.3985 93.3951 91.3399 93.2914 91.3028 93.1794C91.2658 93.0674 91.2512 92.9491 91.2598 92.8314C91.2685 92.7138 91.3001 92.5991 91.3531 92.4937C91.406 92.3883 91.4792 92.2943 91.5683 92.2172C91.6575 92.1401 91.761 92.0813 91.8729 92.0442C91.9848 92.0071 92.1029 91.9925 92.2204 92.0012H92.3994C92.1548 91.5173 91.6655 90.7586 91.2061 90.0119L90.8362 89.4684C90.7724 89.3691 90.7287 89.2583 90.7076 89.1421C90.6865 89.026 90.6885 88.9068 90.7134 88.7914C90.7384 88.676 90.7858 88.5667 90.8529 88.4697C90.92 88.3726 91.0056 88.2898 91.1047 88.2258C91.2038 88.1619 91.3146 88.1181 91.4306 88.097C91.5466 88.0759 91.6656 88.0779 91.7808 88.1029C91.896 88.1278 92.0052 88.1754 92.1022 88.2426C92.1991 88.3098 92.2818 88.3955 92.3457 88.4947L92.6738 89.0144C94.064 91.1649 94.6964 92.1445 94.1594 93.0525C93.9761 93.3001 93.732 93.4962 93.4508 93.6217C93.1697 93.7473 92.861 93.7981 92.5545 93.7693V93.7932Z" fill="black"/>
<path d="M79.9604 79.0307C79.9622 77.8826 79.0341 76.9505 77.8874 76.9487C76.7408 76.9469 75.8098 77.8761 75.8079 79.0242C75.8061 80.1723 76.7342 81.1045 77.8809 81.1063C79.0276 81.1081 79.9586 80.1788 79.9604 79.0307Z" fill="black"/>
<path d="M100.132 78.0615C100.134 76.9134 99.206 75.9812 98.0593 75.9794C96.9126 75.9776 95.9816 76.9069 95.9798 78.055C95.978 79.2031 96.9061 80.1353 98.0528 80.1371C99.1995 80.1389 100.13 79.2096 100.132 78.0615Z" fill="black"/>
<path d="M165.787 153.732H165.477V151.737H165.787V152.573H168.358V152.896H165.787V153.732Z" fill="black"/>
<path d="M165.477 150.919H168.364V151.241H165.483L165.477 150.919Z" fill="black"/>
<path d="M166.372 148.129V148.452C166.277 148.468 166.186 148.503 166.104 148.553C166.032 148.599 165.968 148.656 165.913 148.721C165.863 148.79 165.825 148.866 165.8 148.948C165.771 149.028 165.757 149.113 165.758 149.198C165.758 149.355 165.804 149.509 165.889 149.64C165.989 149.777 166.125 149.883 166.283 149.945C166.482 150.03 166.699 150.069 166.915 150.059C167.132 150.066 167.347 150.027 167.548 149.945C167.703 149.879 167.837 149.772 167.935 149.635C168.002 149.533 168.045 149.419 168.06 149.298C168.076 149.178 168.064 149.056 168.025 148.942C168.001 148.862 167.962 148.787 167.912 148.721C167.856 148.652 167.79 148.594 167.715 148.547C167.634 148.499 167.545 148.466 167.452 148.452V148.129C167.59 148.148 167.724 148.193 167.846 148.261C167.96 148.32 168.062 148.401 168.144 148.5C168.226 148.592 168.289 148.7 168.329 148.816C168.373 148.939 168.395 149.068 168.395 149.198C168.396 149.411 168.334 149.619 168.216 149.796C168.088 149.981 167.91 150.126 167.703 150.214C167.198 150.421 166.632 150.421 166.128 150.214C165.921 150.127 165.744 149.985 165.615 149.802C165.496 149.625 165.431 149.417 165.43 149.204C165.43 149.076 165.452 148.949 165.495 148.828C165.536 148.71 165.598 148.6 165.68 148.506C165.764 148.41 165.863 148.329 165.973 148.267C166.097 148.197 166.232 148.151 166.372 148.129Z" fill="black"/>
<path d="M168.356 147.604H165.469V147.281H166.901V147.245L165.469 146.05V145.62L166.769 146.737L168.35 145.614V146.008L167.014 146.934L167.42 147.263H168.356V147.604Z" fill="black"/>
<path d="M168.35 145.214H165.469V143.607H165.779V144.891H166.751V143.697H167.062V144.891H168.04V143.583H168.35V145.214Z" fill="black"/>
<path d="M165.771 143.177H165.461V141.176H165.771V142.012H168.343V142.335H165.771V143.177Z" fill="black"/>
</svg>