<svg xmlns="http://www.w3.org/2000/svg" width="175" height="250" viewBox="0 0 170 248" fill="none">
<path d="M103.419 75.9366C100.155 75.9366 96.6532 74.5089 95.3108 72.5913C95.2657 72.527 95.2337 72.4545 95.2167 72.3778C95.1997 72.3011 95.1979 72.2219 95.2115 72.1445C95.225 72.0671 95.2538 71.9932 95.2959 71.9269C95.338 71.8606 95.3927 71.8033 95.457 71.7582C95.5212 71.713 95.5937 71.681 95.6703 71.6639C95.7469 71.6469 95.8261 71.6451 95.9033 71.6587C95.9806 71.6723 96.0545 71.701 96.1207 71.7431C96.1869 71.7853 96.2441 71.8401 96.2892 71.9044C97.3034 73.356 100.466 74.8554 103.759 74.7359C104.989 74.7495 106.201 74.4442 107.278 73.8496C108.355 73.2551 109.259 72.3915 109.904 71.3429C109.991 71.2234 110.119 71.1402 110.264 71.1097C110.408 71.0793 110.559 71.1035 110.687 71.1779C110.814 71.2522 110.91 71.3713 110.955 71.5121C111 71.653 110.991 71.8055 110.93 71.9403C110.18 73.1576 109.131 74.1619 107.883 74.8574C106.635 75.5529 105.229 75.9162 103.801 75.9127L103.419 75.9366ZM107.279 66.1519C106.874 66.1413 106.472 66.0728 106.086 65.9488C105.934 65.9028 105.806 65.7983 105.731 65.6583C105.656 65.5182 105.64 65.3542 105.686 65.2021C105.732 65.05 105.836 64.9223 105.976 64.8472C106.116 64.7722 106.28 64.7559 106.432 64.8019C107.267 65.0528 107.571 64.9452 107.625 64.8795C107.792 64.6585 107.589 63.5294 106.384 61.8389C106.33 61.776 106.29 61.7026 106.266 61.6233C106.242 61.5441 106.235 61.4608 106.245 61.3786C106.255 61.2964 106.282 61.2171 106.324 61.1458C106.366 61.0746 106.423 61.0129 106.49 60.9647C106.557 60.9165 106.634 60.8828 106.715 60.8658C106.796 60.8488 106.879 60.8488 106.96 60.8658C107.041 60.8829 107.117 60.9166 107.185 60.9648C107.252 61.0131 107.308 61.0747 107.351 61.146C108.019 62.0719 109.463 64.3657 108.597 65.5783C108.444 65.7783 108.243 65.9359 108.012 66.0363C107.782 66.1366 107.529 66.1764 107.279 66.1519Z" fill="black"/>
<path d="M92.3818 54.3246C93.6998 54.3213 94.7657 53.2489 94.7625 51.9293C94.7593 50.6096 93.6882 49.5425 92.3702 49.5457C91.0522 49.5489 89.9863 50.6213 89.9895 51.941C89.9928 53.2606 91.0638 54.3278 92.3818 54.3246Z" fill="black"/>
<path d="M115.647 53.1266C116.965 53.1233 118.031 52.0509 118.028 50.7313C118.025 49.4116 116.954 48.3445 115.636 48.3477C114.318 48.3509 113.252 49.4233 113.255 50.743C113.258 52.0626 114.329 53.1298 115.647 53.1266Z" fill="black"/>
<path d="M51.115 94.652C51.0323 94.5578 50.9305 94.4823 50.8162 94.4308C50.702 94.3793 50.578 94.3529 50.4528 94.3533H36.1339C22.7278 94.3533 0.0383911 100.189 0.0383911 122.071L4.65025 166.036C4.65025 170.523 4.72779 175.337 4.85308 180.373C5.4497 204.267 7.23959 230.175 8.68938 246.429C8.68938 246.71 8.72516 246.991 8.74902 247.277H10.5389C10.5389 246.943 10.4852 246.62 10.4673 246.298C8.99961 230.043 7.22173 204.172 6.63704 180.331C6.51175 175.313 6.44607 170.493 6.43414 165.995L1.82228 122.029C1.82228 112.352 6.45801 105.171 15.5445 100.691C22.346 97.346 30.6271 96.1514 36.104 96.1514H50.4229C50.6562 96.1515 50.8803 96.0602 51.0474 95.8973C51.2146 95.7344 51.3116 95.5128 51.3178 95.2793C51.3341 95.0518 51.2614 94.8268 51.115 94.652ZM69.7117 55.059C69.5941 55.0763 69.4812 55.1165 69.3792 55.1774C69.2772 55.2384 69.1882 55.319 69.1173 55.4144C69.0464 55.5098 68.9949 55.6182 68.9659 55.7335C68.9368 55.8488 68.9307 55.9688 68.948 56.0864C68.9652 56.2041 69.0054 56.3173 69.0663 56.4194C69.1272 56.5215 69.2076 56.6106 69.3029 56.6816C69.3982 56.7526 69.5065 56.8041 69.6217 56.8331C69.7369 56.8622 69.8566 56.8683 69.9741 56.8511C70.3965 56.7525 70.8369 56.7626 71.2543 56.8807C71.6716 56.9987 72.0522 57.2207 72.3606 57.526C72.9572 58.2787 72.9155 59.7244 72.2473 61.618C71.1597 61.5509 70.1096 61.195 69.2047 60.5872C68.2998 59.9794 67.5729 59.1414 67.0985 58.1593C66.2453 56.3971 66.3228 54.4676 67.2953 53.237C68.3454 51.9109 70.356 51.4988 72.9572 52.0782L74.3534 52.3888L74.0252 50.9969C73.2198 47.5621 74.5084 40.131 75.4869 35.9913C75.4245 35.9536 75.3647 35.9115 75.308 35.8658C75.1707 35.7762 75.0395 35.6806 74.9082 35.579L74.7889 35.4895L74.3652 35.143C74.2471 35.0402 74.1571 34.9089 74.1039 34.7615C74.0506 34.6141 74.0358 34.4555 74.061 34.3008C73.3614 37.07 72.8157 39.876 72.4262 42.7057C72.76 43.6249 73.1588 44.5193 73.6195 45.3818C73.7334 45.5909 73.7597 45.8368 73.6926 46.0654C73.6255 46.2939 73.4704 46.4864 73.2615 46.6004C73.0527 46.7145 72.8071 46.7407 72.5788 46.6735C72.3506 46.6063 72.1583 46.4511 72.0444 46.242C71.9363 47.532 71.9363 48.8288 72.0444 50.1188C71.0374 49.9751 70.0129 50.0135 69.0196 50.2323C69.0613 50.3219 69.109 50.4055 69.1508 50.4951C69.2584 50.7074 69.2774 50.9538 69.2035 51.1801C69.1297 51.4064 68.9691 51.594 68.7571 51.7018C68.545 51.8095 68.2989 51.8285 68.0729 51.7546C67.8469 51.6806 67.6595 51.5199 67.5519 51.3076C67.4803 51.1642 67.4087 51.0209 67.3431 50.8775C66.7745 51.1998 66.2723 51.6275 65.8634 52.1378C64.4673 53.9299 64.3063 56.5763 65.4578 58.9538C65.7982 59.6649 66.2425 60.3213 66.7763 60.9012C66.818 60.7698 66.8598 60.6383 66.8956 60.5069C66.9629 60.2787 67.1178 60.0868 67.3265 59.9731C67.5352 59.8594 67.7805 59.8333 68.0083 59.9006C68.2362 59.9679 68.4279 60.1231 68.5415 60.332C68.6551 60.5409 68.6811 60.7865 68.6138 61.0147C68.5005 61.391 68.3931 61.7733 68.2798 62.1615C68.5854 62.3534 68.9021 62.5271 69.2284 62.6813V62.4423C69.2466 62.2046 69.3583 61.984 69.539 61.8289C69.7197 61.6737 69.9545 61.5967 70.1919 61.6149C70.4292 61.6332 70.6496 61.7451 70.8046 61.926C70.9596 62.1069 71.0364 62.3422 71.0182 62.5798C71.0182 62.7829 70.9825 63.0098 70.9705 63.2548C71.3637 63.3396 71.7625 63.3955 72.1638 63.422C72.3845 63.422 72.6053 63.422 72.832 63.422H73.4286L73.6493 62.8606L73.7985 62.4841C74.8068 59.7841 74.7829 57.7412 73.7269 56.409C72.4621 54.7842 70.3321 54.9634 69.7117 55.059ZM69.7117 55.059C69.5941 55.0763 69.4812 55.1165 69.3792 55.1774C69.2772 55.2384 69.1882 55.319 69.1173 55.4144C69.0464 55.5098 68.9949 55.6182 68.9659 55.7335C68.9368 55.8488 68.9307 55.9688 68.948 56.0864C68.9652 56.2041 69.0054 56.3173 69.0663 56.4194C69.1272 56.5215 69.2076 56.6106 69.3029 56.6816C69.3982 56.7526 69.5065 56.8041 69.6217 56.8331C69.7369 56.8622 69.8566 56.8683 69.9741 56.8511C70.3965 56.7525 70.8369 56.7626 71.2543 56.8807C71.6716 56.9987 72.0522 57.2207 72.3606 57.526C72.9572 58.2787 72.9155 59.7244 72.2473 61.618C71.1597 61.5509 70.1096 61.195 69.2047 60.5872C68.2998 59.9794 67.5729 59.1414 67.0985 58.1593C66.2453 56.3971 66.3228 54.4676 67.2953 53.237C68.3454 51.9109 70.356 51.4988 72.9572 52.0782L74.3534 52.3888L74.0252 50.9969C73.2198 47.5621 74.5084 40.131 75.4869 35.9913C75.4245 35.9536 75.3647 35.9115 75.308 35.8658C75.1707 35.7762 75.0395 35.6806 74.9082 35.579L74.7889 35.4895L74.3652 35.143C74.2471 35.0402 74.1571 34.9089 74.1039 34.7615C74.0506 34.6141 74.0358 34.4555 74.061 34.3008C73.3614 37.07 72.8157 39.876 72.4262 42.7057C72.76 43.6249 73.1588 44.5193 73.6195 45.3818C73.7334 45.5909 73.7597 45.8368 73.6926 46.0654C73.6255 46.2939 73.4704 46.4864 73.2615 46.6004C73.0527 46.7145 72.8071 46.7407 72.5788 46.6735C72.3506 46.6063 72.1583 46.4511 72.0444 46.242C71.9363 47.532 71.9363 48.8288 72.0444 50.1188C71.0374 49.9751 70.0129 50.0135 69.0196 50.2323C69.0613 50.3219 69.109 50.4055 69.1508 50.4951C69.2584 50.7074 69.2774 50.9538 69.2035 51.1801C69.1297 51.4064 68.9691 51.594 68.7571 51.7018C68.545 51.8095 68.2989 51.8285 68.0729 51.7546C67.8469 51.6806 67.6595 51.5199 67.5519 51.3076C67.4803 51.1642 67.4087 51.0209 67.3431 50.8775C66.7745 51.1998 66.2723 51.6275 65.8634 52.1378C64.4673 53.9299 64.3063 56.5763 65.4578 58.9538C65.7982 59.6649 66.2425 60.3213 66.7763 60.9012C66.818 60.7698 66.8598 60.6383 66.8956 60.5069C66.9629 60.2787 67.1178 60.0868 67.3265 59.9731C67.5352 59.8594 67.7805 59.8333 68.0083 59.9006C68.2362 59.9679 68.4279 60.1231 68.5415 60.332C68.6551 60.5409 68.6811 60.7865 68.6138 61.0147C68.5005 61.391 68.3931 61.7733 68.2798 62.1615C68.5854 62.3534 68.9021 62.5271 69.2284 62.6813V62.4423C69.2466 62.2046 69.3583 61.984 69.539 61.8289C69.7197 61.6737 69.9545 61.5967 70.1919 61.6149C70.4292 61.6332 70.6496 61.7451 70.8046 61.926C70.9596 62.1069 71.0364 62.3422 71.0182 62.5798C71.0182 62.7829 70.9825 63.0098 70.9705 63.2548C71.3637 63.3396 71.7625 63.3955 72.1638 63.422C72.3845 63.422 72.6053 63.422 72.832 63.422H73.4286L73.6493 62.8606L73.7985 62.4841C74.8068 59.7841 74.7829 57.7412 73.7269 56.409C72.4621 54.7842 70.3321 54.9634 69.7117 55.059ZM153.346 212.344L149.169 178.665L143.203 140.673C143.2 140.659 143.2 140.645 143.203 140.631L141.413 129.09C137.869 108.009 125.114 105.195 119.255 105.046C115.675 99.3472 111.684 94.8253 101.052 96.1454C100.909 94.6938 100.855 93.517 100.796 92.376C100.754 91.492 100.712 90.584 100.628 89.5745C103.744 89.1959 106.728 88.0954 109.345 86.3606C117.28 81.074 121.958 69.4135 122.769 53.7866C122.817 52.9323 122.847 52.0603 122.87 51.1822C122.87 50.0292 122.906 48.8583 122.87 47.6696C122.87 46.7795 122.87 45.8775 122.811 44.9695C122.699 41.684 122.433 38.2732 122.011 34.7368C122.014 34.6971 122.014 34.6572 122.011 34.6174C122.006 34.5663 121.994 34.5161 121.976 34.468C121.951 34.4002 121.921 34.3342 121.886 34.2709C121.851 34.214 121.809 34.1618 121.761 34.1155C121.726 34.0786 121.688 34.0447 121.647 34.014C121.565 33.9525 121.472 33.9079 121.373 33.8826H121.283C121.23 33.8768 121.176 33.8768 121.122 33.8826C120.956 33.8848 120.793 33.9323 120.651 34.02L120.568 34.0737C120.446 34.1682 120.351 34.293 120.293 34.4355C120.234 34.578 120.214 34.7333 120.233 34.8862C120.287 35.3402 120.341 35.7942 120.383 36.2422C122.96 60.0171 118.491 78.1529 108.331 84.915C100.575 90.0762 89.7283 88.8038 76.0478 81.1457L75.6241 80.9068C75.4205 80.7976 75.1827 80.7715 74.9603 80.8338C74.738 80.8962 74.5482 81.0422 74.4309 81.2413C74.362 81.353 74.323 81.4805 74.3176 81.6116C74.3176 81.6952 74.3176 81.7728 74.3176 81.8505C74.3419 81.9768 74.3942 82.0961 74.4706 82.1995C74.547 82.3029 74.6455 82.3877 74.759 82.4479C75.2363 82.7167 75.7077 82.9795 76.173 83.2304C84.8061 87.9197 92.3832 90.106 98.8446 89.7655C98.9281 90.7273 98.9699 91.5875 99.0116 92.4895C99.0773 93.8933 99.1489 95.3449 99.3696 97.2684L99.5367 98.7081C99.8708 101.623 99.9245 101.988 100.056 102.25L100.253 102.651L100.688 102.734C102.579 103.099 105.342 104.921 107.251 108.182C107.507 108.63 108.665 111.838 111.35 120.995C105.98 131.808 98.6537 137.608 90.116 137.775C83.237 137.913 76.352 134.227 71.7282 129.568C70.1362 127.994 68.778 126.199 67.6951 124.239L66.0245 124.837C67.2595 132.232 67.8144 138.032 67.5579 141.031L54.0683 139.974C54.2891 133.839 53.5075 112.155 47.8754 104.801L47.6844 104.55L47.3742 104.473C42.7742 103.361 37.5419 104.52 32.6377 107.734C24.0523 113.349 17.7222 124.46 15.2641 138.235C15.2609 138.267 15.2609 138.299 15.2641 138.331V138.379L13.7726 178.742L10.4912 234.643V234.852L10.5747 235.043C13.701 242.564 17.5194 246.477 21.9105 246.674C26.3016 246.871 30.5316 243.138 33.5744 238.729L32.5482 247.247H34.3381L35.8356 234.822V234.786L37.882 217.828C53.3583 204.554 54.9274 175.815 53.5373 161.502H67.009C70.1591 181.126 48.7345 224.924 34.8571 247.247H36.9632C51.2821 224.04 72.0146 181.257 68.7749 161.186C70.2486 160.588 71.0958 159.824 71.3404 158.874C71.6566 157.679 70.9406 156.676 70.3321 155.965C70.7432 155.776 71.0961 155.481 71.3536 155.108C71.6111 154.736 71.7637 154.301 71.7955 153.85C71.8272 153.398 71.7369 152.946 71.534 152.542C71.3311 152.137 71.0231 151.795 70.6423 151.551C71.01 151.262 71.315 150.901 71.5387 150.49C71.7623 150.079 71.8999 149.627 71.943 149.161C71.943 147.966 71.0839 147.214 70.3262 146.598C70.6669 146.321 70.9448 145.974 71.1412 145.58C71.3377 145.187 71.4483 144.756 71.4657 144.316C71.4657 143.044 70.3321 142.244 69.3179 141.539C69.6639 138.421 69.0733 133.002 68.4229 128.522C73.0587 134.364 81.1369 139.55 89.7461 139.55H90.1638C96.3627 139.43 105.079 136.479 112.084 123.469C119.673 149.788 132.965 201.269 137.571 238.06C137.565 238.096 137.565 238.132 137.571 238.168L139.433 247.236H141.258L140.065 241.489L144.599 247.236H146.878L139.373 237.72C141.032 226.298 139.803 213.09 138.985 204.315C138.675 200.982 138.43 198.342 138.43 196.741C138.43 194.889 138.383 188.097 137.732 178.724C137.066 168.667 135.857 158.652 134.111 148.725C136.599 148.337 140.077 147.07 141.968 144.275L147.386 178.921L151.562 212.857L167.498 247.265H169.466L153.346 212.344ZM33.6221 109.228C37.9954 106.366 42.6072 105.273 46.6463 106.139C51.5326 113.009 52.5409 133.827 52.2843 139.998C47.6844 140.75 42.5177 144.346 38.6516 149.77H38.5502C28.8671 149.77 19.8939 142.369 17.0719 138.205C19.5061 125.081 25.52 114.532 33.6221 109.228ZM38.3175 214.96L45.9125 167.53C48.0305 165.738 49.7309 164.197 50.9838 163.05C51.2642 162.787 51.5506 162.524 51.8131 162.291C53.0182 175.947 51.5327 201.824 38.3175 214.984V214.96ZM69.6758 144.364C69.6758 144.478 69.6043 144.896 68.6676 145.678C66.6212 145.523 56.6815 144.776 53.3882 144.95C53.1508 144.962 52.9282 145.069 52.7693 145.246C52.6104 145.423 52.5283 145.656 52.5409 145.894C52.5536 146.131 52.66 146.354 52.8368 146.513C53.0135 146.672 53.2462 146.754 53.4836 146.742C56.6456 146.563 66.6689 147.339 68.5661 147.471C68.7332 147.62 68.9062 147.757 69.0792 147.895C69.5804 148.307 70.1531 148.767 70.1472 149.125C70.1472 149.298 70.0159 149.758 68.9539 150.589C66.7942 150.344 56.0431 149.179 52.9467 149.746C52.8291 149.768 52.7169 149.812 52.6165 149.876C52.516 149.941 52.4291 150.025 52.361 150.123C52.2928 150.221 52.2447 150.332 52.2192 150.449C52.1938 150.565 52.1916 150.686 52.2128 150.804C52.2339 150.921 52.278 151.034 52.3425 151.134C52.4071 151.235 52.4907 151.322 52.5888 151.39C52.6868 151.458 52.7974 151.507 52.914 151.532C53.0307 151.557 53.1513 151.56 53.2688 151.539C55.7925 151.079 65.1415 151.987 68.8585 152.417C69.8548 153.217 69.9861 153.611 69.9682 153.755C69.9503 153.898 69.8608 154.227 68.6914 154.842L53.0898 155.141C52.9726 155.142 52.8568 155.167 52.7491 155.213C52.6415 155.26 52.5441 155.327 52.4626 155.412C52.381 155.496 52.317 155.596 52.2742 155.705C52.2313 155.814 52.2104 155.931 52.2128 156.049C52.2175 156.287 52.3162 156.513 52.4872 156.679C52.6582 156.845 52.8877 156.936 53.1256 156.933L68.4945 156.64C68.5482 156.7 68.6019 156.765 68.6616 156.825C69.0494 157.261 69.6938 157.984 69.5744 158.432C69.5387 158.587 69.2701 159.131 67.5757 159.722H52.6602C52.1113 159.603 51.7116 159.973 49.7726 161.759C48.4839 162.954 46.7179 164.561 44.5104 166.401L44.2539 166.616L36.1339 217.224C36.1339 217.224 36.1339 217.254 36.1339 217.266L34.0636 234.428C31.4266 239.416 26.7073 245.073 21.9582 244.888C18.3785 244.727 15.0971 241.25 12.2751 234.548L15.5445 178.832L16.9406 140.947C20.759 145.344 28.6642 151.102 37.4763 151.539C35.3062 155.06 33.8392 158.969 33.1568 163.05V163.199C33.1568 163.844 31.9635 167.524 31.2834 169.722C30.818 171.192 30.4123 172.458 30.2094 173.205L13.8024 228.473C13.7687 228.585 13.7576 228.704 13.7696 228.821C13.7817 228.938 13.8167 229.052 13.8727 229.156C13.9286 229.26 14.0044 229.351 14.0957 229.426C14.1871 229.5 14.2921 229.556 14.405 229.589C14.5178 229.623 14.6362 229.634 14.7533 229.622C14.8704 229.61 14.984 229.575 15.0876 229.519C15.1912 229.463 15.2828 229.387 15.3571 229.296C15.4314 229.204 15.487 229.099 15.5206 228.986L31.9337 173.695C32.1305 172.966 32.5303 171.652 32.9897 170.266C34.1352 166.682 34.8989 164.226 34.9466 163.289C35.6682 159.069 37.2811 155.053 39.6778 151.509C39.8686 151.452 40.035 151.333 40.1506 151.17C40.2662 151.008 40.3245 150.812 40.3162 150.613C44.051 145.487 48.9791 142.136 53.1555 141.706L68.071 142.901L68.2261 143.014C68.8525 143.426 69.6639 143.988 69.6758 144.388V144.364ZM135.966 178.844C136.617 188.169 136.664 194.901 136.664 196.765C136.664 198.455 136.915 201.125 137.225 204.53C137.869 211.412 138.764 221.047 138.299 230.324C132.798 193.133 120.168 144.824 113.169 120.858C112.101 117.202 109.542 108.582 108.802 107.31C106.678 103.666 103.749 101.772 101.643 101.151C101.559 100.554 101.434 99.4966 101.327 98.5289L101.261 97.9315C111.129 96.7069 114.571 100.859 117.966 106.402C122.196 113.254 125.8 122.083 128.705 132.65C130.012 137.429 131.181 142.632 132.184 148.098C134.02 158.267 135.283 168.532 135.966 178.844ZM133.812 146.963C132.834 141.748 131.706 136.808 130.453 132.178C127.721 122.16 124.338 113.66 120.389 106.886C126.146 107.388 136.557 110.924 139.659 129.359L141.449 140.786C140.87 144.908 136.581 146.586 133.812 146.981V146.963ZM66.7763 60.8653C66.818 60.7339 66.8598 60.6025 66.8956 60.4711C66.9629 60.243 67.1178 60.0509 67.3265 59.9372C67.5352 59.8235 67.7805 59.7974 68.0083 59.8647C68.2362 59.9321 68.4279 60.0873 68.5415 60.2963C68.6551 60.5052 68.6811 60.7506 68.6138 60.9788C68.5005 61.3551 68.3931 61.7375 68.2798 62.1258C68.5854 62.3177 68.9021 62.4912 69.2284 62.6454V62.4066C69.2466 62.1689 69.3583 61.9482 69.539 61.793C69.7197 61.6379 69.9545 61.561 70.1919 61.5792C70.4292 61.5974 70.6496 61.7092 70.8046 61.8901C70.9596 62.0711 71.0364 62.3063 71.0182 62.5439C71.0182 62.747 70.9825 62.974 70.9705 63.2189C71.3637 63.3037 71.7625 63.3596 72.1638 63.3862C72.3845 63.3862 72.6053 63.3862 72.832 63.3862H73.4286L73.6493 62.8247L73.7985 62.4483C74.8068 59.7482 74.7829 57.7053 73.7269 56.3732C72.4561 54.7663 70.3262 54.9455 69.7057 55.0411C69.5882 55.0583 69.4752 55.0987 69.3732 55.1596C69.2712 55.2206 69.1822 55.3011 69.1113 55.3965C69.0404 55.4919 68.989 55.6003 68.9599 55.7156C68.9309 55.8309 68.9248 55.9508 68.942 56.0685C68.9592 56.1862 68.9994 56.2994 69.0603 56.4015C69.1212 56.5036 69.2017 56.5927 69.297 56.6637C69.3923 56.7347 69.5006 56.7861 69.6157 56.8152C69.7309 56.8443 69.8506 56.8504 69.9682 56.8331C70.3905 56.7345 70.8309 56.7447 71.2483 56.8628C71.6656 56.9808 72.0463 57.2028 72.3546 57.5081C72.9513 58.2608 72.9095 59.7064 72.2413 61.6001C71.1538 61.5329 70.1036 61.1771 69.1988 60.5693C68.2939 59.9614 67.5669 59.1235 67.0925 58.1413C66.2393 56.3791 66.3169 54.4497 67.2894 53.2191C68.3394 51.893 70.35 51.4808 72.9513 52.0603L74.3474 52.3709L74.0192 50.979C73.2138 47.5442 74.5025 40.1131 75.4809 35.9734C75.4185 35.9356 75.3588 35.8938 75.302 35.848C75.1648 35.7584 75.0335 35.6627 74.9022 35.5611L74.7829 35.4716L74.3593 35.125C74.2411 35.0222 74.1511 34.8909 74.0979 34.7435C74.0446 34.5961 74.0299 34.4375 74.0551 34.2828C73.3555 37.0521 72.8097 39.858 72.4203 42.6877C72.754 43.607 73.1528 44.5013 73.6135 45.3639C73.7274 45.573 73.7538 45.8189 73.6866 46.0474C73.6195 46.276 73.4644 46.4684 73.2555 46.5825C73.0467 46.6966 72.8011 46.7228 72.5728 46.6556C72.3446 46.5884 72.1524 46.4332 72.0385 46.224C71.9304 47.5141 71.9304 48.8109 72.0385 50.1009C71.0315 49.9571 70.007 49.9955 69.0136 50.2144C69.0554 50.304 69.1031 50.3877 69.1448 50.4773C69.2524 50.6896 69.2714 50.9359 69.1976 51.1622C69.1237 51.3885 68.9631 51.5761 68.7511 51.6838C68.5391 51.7916 68.293 51.8106 68.0669 51.7366C67.8409 51.6627 67.6535 51.5019 67.5459 51.2896C67.4743 51.1463 67.4028 51.0029 67.3371 50.8596C66.7685 51.1819 66.2663 51.6097 65.8574 52.12C64.4614 53.9121 64.3003 56.5584 65.4518 58.9359C65.7955 59.6411 66.2419 60.2913 66.7763 60.8653ZM69.7117 55.059C69.5941 55.0763 69.4812 55.1165 69.3792 55.1774C69.2772 55.2384 69.1882 55.319 69.1173 55.4144C69.0464 55.5098 68.9949 55.6182 68.9659 55.7335C68.9368 55.8488 68.9307 55.9688 68.948 56.0864C68.9652 56.2041 69.0054 56.3173 69.0663 56.4194C69.1272 56.5215 69.2076 56.6106 69.3029 56.6816C69.3982 56.7526 69.5065 56.8041 69.6217 56.8331C69.7369 56.8622 69.8566 56.8683 69.9741 56.8511C70.3965 56.7525 70.8369 56.7626 71.2543 56.8807C71.6716 56.9987 72.0522 57.2207 72.3606 57.526C72.9572 58.2787 72.9155 59.7244 72.2473 61.618C71.1597 61.5509 70.1096 61.195 69.2047 60.5872C68.2998 59.9794 67.5729 59.1414 67.0985 58.1593C66.2453 56.3971 66.3228 54.4676 67.2953 53.237C68.3454 51.9109 70.356 51.4988 72.9572 52.0782L74.3534 52.3888L74.0252 50.9969C73.2198 47.5621 74.5084 40.131 75.4869 35.9913C75.4245 35.9536 75.3647 35.9115 75.308 35.8658C75.1707 35.7762 75.0395 35.6806 74.9082 35.579L74.7889 35.4895L74.3652 35.143C74.2471 35.0402 74.1571 34.9089 74.1039 34.7615C74.0506 34.6141 74.0358 34.4555 74.061 34.3008C73.3614 37.07 72.8157 39.876 72.4262 42.7057C72.76 43.6249 73.1588 44.5193 73.6195 45.3818C73.6759 45.4854 73.7114 45.5989 73.7239 45.7162C73.7365 45.8335 73.7258 45.9522 73.6926 46.0654C73.6594 46.1785 73.6042 46.2839 73.5302 46.3757C73.4562 46.4675 73.3649 46.544 73.2615 46.6004C73.1581 46.6569 73.0446 46.6925 72.9275 46.705C72.8103 46.7176 72.6918 46.7068 72.5788 46.6735C72.4658 46.6402 72.3605 46.585 72.2688 46.5109C72.1771 46.4368 72.1008 46.3455 72.0444 46.242C71.9363 47.532 71.9363 48.8288 72.0444 50.1188C71.0374 49.9751 70.0129 50.0135 69.0196 50.2323C69.0613 50.3219 69.109 50.4055 69.1508 50.4951C69.2584 50.7074 69.2774 50.9538 69.2035 51.1801C69.1297 51.4064 68.9691 51.594 68.7571 51.7018C68.545 51.8095 68.2989 51.8285 68.0729 51.7546C67.8469 51.6806 67.6595 51.5199 67.5519 51.3076C67.4803 51.1642 67.4087 51.0209 67.3431 50.8775C66.7745 51.1998 66.2723 51.6275 65.8634 52.1378C64.4673 53.9299 64.3063 56.5763 65.4578 58.9538C65.7982 59.6649 66.2425 60.3213 66.7763 60.9012C66.818 60.7698 66.8598 60.6383 66.8956 60.5069C66.9629 60.2787 67.1178 60.0868 67.3265 59.9731C67.5352 59.8594 67.7805 59.8333 68.0083 59.9006C68.2362 59.9679 68.4279 60.1231 68.5415 60.332C68.6551 60.5409 68.6811 60.7865 68.6138 61.0147C68.5005 61.391 68.3931 61.7733 68.2798 62.1615C68.5854 62.3534 68.9021 62.5271 69.2284 62.6813V62.4423C69.2466 62.2046 69.3583 61.984 69.539 61.8289C69.7197 61.6737 69.9545 61.5967 70.1919 61.6149C70.4292 61.6332 70.6496 61.7451 70.8046 61.926C70.9596 62.1069 71.0364 62.3422 71.0182 62.5798C71.0182 62.7829 70.9825 63.0098 70.9705 63.2548C71.3637 63.3396 71.7625 63.3955 72.1638 63.422C72.3845 63.422 72.6053 63.422 72.832 63.422H73.4286L73.6493 62.8606L73.7985 62.4841C74.8068 59.7841 74.7829 57.7412 73.7269 56.409C72.4621 54.7842 70.3321 54.9634 69.7117 55.059ZM75.5287 33.781H75.4929C75.3916 33.6938 75.2718 33.6308 75.1426 33.5966C75.0134 33.5625 74.8782 33.5582 74.7471 33.584H74.6517L74.5264 33.6317C74.4834 33.6497 74.4432 33.6739 74.4071 33.7034C74.3847 33.7159 74.3645 33.7321 74.3474 33.7512C74.3054 33.7823 74.2673 33.8184 74.234 33.8587C74.1313 33.9804 74.0615 34.1264 74.0312 34.2828C73.3316 37.0521 72.7859 39.858 72.3964 42.6877C72.2354 43.8824 72.1041 45.0771 72.0325 46.2121C71.9244 47.5021 71.9244 48.7989 72.0325 50.0889C71.0256 49.9452 70.001 49.9836 69.0076 50.2024C68.419 50.3298 67.8535 50.5475 67.3312 50.8476C66.7625 51.1699 66.2604 51.5977 65.8515 52.1081C64.4555 53.9002 64.2943 56.5464 65.4458 58.9239C65.7862 59.635 66.2306 60.2914 66.7643 60.8713C67.2089 61.3548 67.7143 61.7785 68.2678 62.1318C68.5735 62.3237 68.8902 62.4972 69.2164 62.6514C69.787 62.9215 70.388 63.122 71.0063 63.2488C71.3994 63.3336 71.7982 63.3895 72.1995 63.4161C72.4203 63.4161 72.641 63.4161 72.8677 63.4161H73.4643L73.6851 62.8546L73.8343 62.4782C74.8425 59.7781 74.8187 57.7352 73.7627 56.4031C72.4919 54.7962 70.3619 54.9754 69.7414 55.071C69.6239 55.0882 69.511 55.1284 69.409 55.1894C69.307 55.2504 69.218 55.331 69.1471 55.4264C69.0762 55.5218 69.0247 55.6302 68.9957 55.7455C68.9666 55.8608 68.9606 55.9807 68.9778 56.0984C68.9951 56.2161 69.0353 56.3293 69.0962 56.4314C69.1571 56.5335 69.2374 56.6224 69.3327 56.6934C69.428 56.7644 69.5363 56.816 69.6515 56.8451C69.7667 56.8742 69.8865 56.8803 70.004 56.863C70.4263 56.7644 70.8668 56.7746 71.2841 56.8927C71.7015 57.0107 72.0821 57.2327 72.3905 57.538C72.9871 58.2907 72.9453 59.7363 72.2771 61.63C71.1895 61.5628 70.1394 61.207 69.2346 60.5992C68.3297 59.9913 67.6027 59.1534 67.1283 58.1712C66.2751 56.409 66.3527 54.4795 67.3252 53.249C68.3752 51.9229 70.3858 51.5107 72.9871 52.0901L74.3832 52.4008L74.0551 51.0089C73.2496 47.5741 74.5383 40.1429 75.5168 36.0032C75.6301 35.5193 75.7375 35.0833 75.839 34.7009C75.8775 34.5322 75.8671 34.3561 75.809 34.1931C75.7508 34.0302 75.6474 33.8871 75.5108 33.781H75.5287Z" fill="black"/>
<path d="M72.4775 129.986L71.4155 129.388C70.793 129.03 70.1951 128.631 69.6256 128.194C69.5136 128.121 69.4078 128.039 69.3094 127.949C66.9896 126.005 64.9141 123.787 63.1284 121.342C61.2483 118.836 59.5208 116.219 57.9557 113.505C57.729 113.152 57.5202 112.788 57.3173 112.405C56.0048 110.082 54.728 107.627 53.5169 105.028C51.7243 101.225 50.1312 97.3309 48.7439 93.3616C48.7459 93.3477 48.7459 93.3337 48.7439 93.3199C47.4543 89.62 46.3727 85.8507 45.5042 82.0297C39.7588 56.5643 39.4306 39.3902 53.5586 16.1768C63.2716 0.215339 81.3313 -1.14658 91.0502 2.95131C95.5905 4.86883 98.2097 7.87957 98.2097 11.0575C98.2185 11.1968 98.2185 11.3364 98.2097 11.4756C99.2418 11.5354 100.286 11.6309 101.318 11.7624C115.691 13.5544 127.921 21.5889 131.06 31.2661C132.742 36.4691 132.658 44.6231 122.707 53.9658C122.625 54.0614 122.524 54.1386 122.41 54.1922C122.296 54.2459 122.173 54.2747 122.047 54.2768C121.921 54.279 121.796 54.2545 121.681 54.2048C121.565 54.1551 121.462 54.0814 121.377 53.9887C121.292 53.8959 121.227 53.786 121.188 53.6665C121.148 53.547 121.134 53.4204 121.147 53.2952C121.16 53.17 121.2 53.0489 121.263 52.9401C121.326 52.8312 121.411 52.7369 121.514 52.6636C128.852 45.776 131.579 38.5718 129.389 31.8276C127.283 25.3223 120.672 19.6057 112.021 16.2665C117.988 19.994 124.127 25.7166 126.46 32.3115C128.458 37.9505 127.181 43.3626 122.766 47.9623C122.6 48.1252 122.377 48.217 122.144 48.2179C121.912 48.2188 121.688 48.1289 121.52 47.9672C121.352 47.8056 121.254 47.585 121.246 47.3521C121.238 47.1192 121.321 46.8924 121.478 46.7199C125.445 42.5861 126.555 37.9386 124.771 32.9088C121.561 23.829 109.963 16.0275 103.179 13.9965C111.425 19.1457 118.602 30.4596 120.481 34.211L120.78 34.0319C120.88 33.9684 120.991 33.9253 121.108 33.9052C121.225 33.8851 121.344 33.8884 121.459 33.9148C121.575 33.9413 121.684 33.9904 121.78 34.0594C121.876 34.1283 121.958 34.2156 122.02 34.3163C122.083 34.4171 122.124 34.5292 122.143 34.6462C122.162 34.7632 122.157 34.8828 122.13 34.998C122.102 35.1132 122.052 35.2217 121.982 35.3174C121.912 35.413 121.824 35.4938 121.722 35.5551C121.329 35.8 120.917 36.0331 120.529 36.2601H120.493C118.076 37.5677 115.521 38.6014 112.875 39.3424C107.551 40.8052 102.039 41.4616 96.5212 41.2898H96.4854C93.6512 41.2251 90.8255 40.9517 88.0313 40.4715C85.0097 39.9787 82.0548 39.1387 79.2252 37.9684H79.1894C77.4949 37.273 75.911 36.3332 74.4881 35.1788C74.3069 35.0251 74.1941 34.8057 74.1745 34.5688C74.155 34.3318 74.2302 34.0968 74.3836 33.9154C74.5371 33.734 74.7563 33.621 74.9929 33.6014C75.2296 33.5818 75.4643 33.6572 75.6455 33.8108C76.5442 34.5522 77.5252 35.1875 78.5689 35.7044C78.3303 30.2625 79.1655 21.7323 83.0137 16.2067C77.5904 19.1935 73.969 23.0823 72.2149 27.8492C69.8284 34.3365 71.4512 41.1763 73.7661 45.4175C73.8225 45.5211 73.858 45.6348 73.8706 45.7521C73.8831 45.8693 73.8725 45.9879 73.8392 46.1011C73.806 46.2142 73.7508 46.3197 73.6768 46.4115C73.6029 46.5034 73.5116 46.5797 73.4082 46.6361C73.3047 46.6926 73.1912 46.7282 73.0741 46.7407C72.957 46.7533 72.8385 46.7426 72.7254 46.7094C72.6124 46.6761 72.5071 46.6208 72.4154 46.5467C72.3237 46.4727 72.2475 46.3814 72.1911 46.2778C69.6913 41.6901 67.9432 34.2768 70.5385 27.2339C71.5516 24.4984 73.1198 22.0027 75.1443 19.9043C72.8861 21.5743 70.9049 23.5902 69.2736 25.8779C68.3548 27.67 67.3644 29.7668 66.3502 32.0666C65.3479 35.7702 65.4731 39.8322 66.726 44.1153C67.3798 46.3262 68.2407 48.4703 69.2974 50.519C69.405 50.7313 69.424 50.9777 69.3502 51.204C69.2763 51.4303 69.1157 51.6179 68.9037 51.7257C68.6917 51.8334 68.4456 51.8524 68.2196 51.7785C67.9935 51.7045 67.8061 51.5437 67.6985 51.3315C67.0085 49.9706 66.3891 48.5749 65.8431 47.1499C59.8232 64.9751 51.8106 97.7702 58.9819 111.521C59.1967 111.892 59.4055 112.262 59.6203 112.626C59.9723 113.224 60.3303 113.821 60.6883 114.419C57.5858 98.8035 63.8504 71.343 67.0363 60.5427C67.1035 60.3146 67.2586 60.1225 67.4672 60.0088C67.6759 59.8951 67.9211 59.8691 68.149 59.9364C68.3768 60.0038 68.5686 60.1589 68.6822 60.3678C68.7957 60.5768 68.8218 60.8224 68.7546 61.0505C63.6475 78.3441 58.0154 109.711 64.7035 120.338C65.7595 121.742 66.8971 123.083 68.1102 124.353C67.5135 120.96 67.0959 114.466 67.3584 101.784C67.7045 85.2734 68.9991 67.5198 69.3869 62.4781C69.4051 62.2405 69.5169 62.0199 69.6976 61.8647C69.8783 61.7096 70.1131 61.6326 70.3505 61.6508C70.5878 61.669 70.8082 61.7809 70.9632 61.9619C71.1182 62.1428 71.195 62.3779 71.1768 62.6155C70.789 67.6453 69.4943 85.3152 69.1483 101.784C68.7008 123.289 70.2878 126.276 70.7293 126.736L70.8248 126.814L71.3796 127.22C73.8974 114.604 76.9998 86.6414 72.1553 62.7052C72.1318 62.5899 72.1312 62.471 72.1535 62.3555C72.1759 62.2399 72.2207 62.1299 72.2856 62.0317C72.3504 61.9335 72.4339 61.8491 72.5313 61.7832C72.6287 61.7173 72.7382 61.6714 72.8533 61.6479C72.9685 61.6243 73.0872 61.6237 73.2026 61.6461C73.318 61.6685 73.4279 61.7133 73.5259 61.7782C73.624 61.8431 73.7083 61.9267 73.774 62.0243C73.8398 62.1218 73.8859 62.2314 73.9094 62.3467C78.9806 87.388 75.4486 116.796 72.8712 128.845L72.4775 129.986ZM63.7489 37.8669C56.7148 55.6324 49.7224 81.8804 54.5669 102.113C52.7771 84.7896 59.7635 58.5057 64.7811 44.2886C64.1787 42.1977 63.8321 40.0414 63.7489 37.8669ZM50.4562 92.824C50.854 93.951 51.2656 95.08 51.6912 96.211C48.9885 74.2222 57.4009 47.5442 64.4768 31.4573C65.1346 29.0914 66.1941 26.8565 67.609 24.8505C69.9955 21.3858 73.5156 18.3333 77.9902 15.7527C77.4379 15.0488 77.1356 14.1808 77.1311 13.2857C77.1251 13.1683 77.1251 13.0506 77.1311 12.9332C65.1629 20.3285 47.0555 44.3543 50.4562 92.824ZM83.491 6.422C77.5248 6.422 71.1888 9.15785 65.3777 14.4266C51.6554 26.8337 41.2504 53.5537 48.2905 84.8195C47.2225 37.5026 67.3823 15.2569 78.909 9.93441C80.5855 8.44101 83.4135 7.25226 86.4264 6.64893C85.4575 6.49453 84.4781 6.4147 83.497 6.41004L83.491 6.422ZM80.4602 2.71228C75.3452 2.67432 70.3094 3.97784 65.8536 6.49303C61.3978 9.00821 57.6773 12.6474 55.0621 17.0489C44.5497 34.3186 42.2348 48.2012 44.2156 64.8735C44.183 58.3373 44.9138 51.8197 46.3932 45.4534C49.5195 32.1382 55.8318 20.6391 64.1785 13.0765C72.9726 5.10775 82.9302 2.61678 91.5215 6.22483C92.2743 6.25792 93.0228 6.35584 93.7588 6.51753C92.7091 5.70739 91.5552 5.04231 90.3283 4.54023C87.1939 3.28311 83.8425 2.65783 80.4662 2.70032L80.4602 2.71228ZM97.1238 39.4798C99.3149 39.5114 101.506 39.4177 103.687 39.199C100.608 30.9853 95.4891 19.0083 92.0764 14.54L97.1238 39.4798ZM88.9799 38.8048C91.0692 39.1217 93.1746 39.3212 95.2862 39.4022L90.0121 13.5006C89.4513 13.5783 88.8964 13.6738 88.3535 13.7754C88.3535 14.6416 88.4251 16.1648 88.4847 17.9569C88.8964 30.5791 89.0455 36.5767 88.9859 38.7929L88.9799 38.8048ZM94.099 14.3131C98.7287 21.0812 104.617 36.6364 105.488 38.9542C107.484 38.6908 109.46 38.3018 111.407 37.7894C109.426 30.7644 103.722 18.5484 94.1049 14.331L94.099 14.3131ZM80.2872 36.475C82.5368 37.3647 84.8663 38.0369 87.2438 38.4822C87.2856 35.1729 86.9157 23.8171 86.7307 18.0107C86.689 16.6726 86.6531 15.5556 86.6233 14.7193C80.7048 19.4205 79.8338 30.5074 80.2872 36.475ZM95.7993 13.1423C105.447 17.9869 111.15 30.1849 113.167 37.3174C115.133 36.7163 117.044 35.9447 118.877 35.0115C116.991 31.1227 105.781 13.7277 95.7635 13.1423H95.7993ZM80.0366 11.3502C79.7379 11.5814 79.4897 11.8713 79.3071 12.2021C79.1244 12.5329 79.0113 12.8975 78.9747 13.2737C79.0015 13.8614 79.2363 14.4203 79.6369 14.8507C82.0558 13.6336 84.6231 12.738 87.2736 12.1865H87.3154C88.3893 11.9595 89.5109 11.7743 90.6505 11.6369L91.2471 11.5712H91.2888C92.3747 11.4636 93.4844 11.3979 94.6001 11.368C94.9976 11.3467 95.3959 11.3467 95.7933 11.368H96.39C96.404 11.1691 96.404 10.9695 96.39 10.7707C96.348 10.3863 96.2061 10.0198 95.9783 9.70748C95.2504 8.73378 93.5918 8.14836 91.3187 8.05278H91.277C87.1782 7.89747 82.2501 9.34296 80.0426 11.362L80.0366 11.3502Z" fill="black"/>
</svg>