<svg width="321" height="179" viewBox="0 0 321 179" fill="none" xmlns="http://www.w3.org/2000/svg">
<rect x="0.871094" y="1.47656" width="319.291" height="176.2" rx="88.1002" stroke="black"/>
<rect x="193.668" y="54.8088" width="69.7783" height="69.5357" rx="34.7678" stroke="black"/>
<path d="M71.8887 82.5767H73.9687V96.5767H71.8887V90.1167H65.5587V96.5767H63.4787V82.5767H65.5587V88.0367H71.8887V82.5767ZM80.5927 96.8367C79.6727 96.8367 78.8327 96.6 78.0727 96.1267C77.3193 95.6533 76.716 95.02 76.2627 94.2267C75.816 93.4267 75.5927 92.5433 75.5927 91.5767C75.5927 90.8433 75.7227 90.16 75.9827 89.5267C76.2427 88.8867 76.5993 88.3267 77.0527 87.8467C77.5127 87.36 78.046 86.98 78.6527 86.7067C79.2593 86.4333 79.906 86.2967 80.5927 86.2967C81.3593 86.2967 82.0627 86.4567 82.7027 86.7767C83.3427 87.09 83.8893 87.5267 84.3427 88.0867C84.796 88.64 85.1293 89.28 85.3427 90.0067C85.556 90.7267 85.6193 91.4933 85.5327 92.3067H77.8227C77.9093 92.7667 78.076 93.1833 78.3227 93.5567C78.576 93.9233 78.896 94.2133 79.2827 94.4267C79.676 94.64 80.1127 94.75 80.5927 94.7567C81.0993 94.7567 81.5593 94.63 81.9727 94.3767C82.3927 94.1233 82.736 93.7733 83.0027 93.3267L85.1127 93.8167C84.7127 94.7033 84.1093 95.43 83.3027 95.9967C82.496 96.5567 81.5927 96.8367 80.5927 96.8367ZM77.7527 90.7167H83.4327C83.366 90.2367 83.196 89.8033 82.9227 89.4167C82.656 89.0233 82.3193 88.7133 81.9127 88.4867C81.5127 88.2533 81.0727 88.1367 80.5927 88.1367C80.1193 88.1367 79.6793 88.25 79.2727 88.4767C78.8727 88.7033 78.5393 89.0133 78.2727 89.4067C78.0127 89.7933 77.8393 90.23 77.7527 90.7167ZM94.9092 86.5767H96.9892V96.5767H94.8992L94.8192 95.1267C94.5259 95.64 94.1292 96.0533 93.6292 96.3667C93.1292 96.68 92.5392 96.8367 91.8592 96.8367C91.1259 96.8367 90.4359 96.7 89.7892 96.4267C89.1426 96.1467 88.5726 95.76 88.0792 95.2667C87.5926 94.7733 87.2126 94.2067 86.9392 93.5667C86.6659 92.92 86.5292 92.2267 86.5292 91.4867C86.5292 90.7733 86.6626 90.1033 86.9292 89.4767C87.1959 88.8433 87.5659 88.29 88.0392 87.8167C88.5126 87.3433 89.0592 86.9733 89.6792 86.7067C90.3059 86.4333 90.9759 86.2967 91.6892 86.2967C92.4159 86.2967 93.0559 86.4633 93.6092 86.7967C94.1692 87.1233 94.6326 87.5433 94.9992 88.0567L94.9092 86.5767ZM91.8092 94.8267C92.3959 94.8267 92.9092 94.6833 93.3492 94.3967C93.7892 94.1033 94.1292 93.71 94.3692 93.2167C94.6159 92.7233 94.7392 92.1767 94.7392 91.5767C94.7392 90.97 94.6159 90.42 94.3692 89.9267C94.1226 89.4333 93.7792 89.0433 93.3392 88.7567C92.9059 88.4633 92.3959 88.3167 91.8092 88.3167C91.2292 88.3167 90.6992 88.4633 90.2192 88.7567C89.7392 89.05 89.3592 89.4433 89.0792 89.9367C88.7992 90.43 88.6592 90.9767 88.6592 91.5767C88.6592 92.1833 88.8026 92.7333 89.0892 93.2267C89.3826 93.7133 89.7659 94.1033 90.2392 94.3967C90.7192 94.6833 91.2426 94.8267 91.8092 94.8267ZM98.9447 96.5767V86.5767H101.025V87.6367C101.371 87.2233 101.798 86.8967 102.305 86.6567C102.811 86.4167 103.358 86.2967 103.945 86.2967C104.318 86.2967 104.688 86.3467 105.055 86.4467L104.225 88.5467C103.965 88.4467 103.705 88.3967 103.445 88.3967C103.005 88.3967 102.601 88.5067 102.235 88.7267C101.868 88.94 101.575 89.23 101.355 89.5967C101.135 89.9633 101.025 90.37 101.025 90.8167V96.5767H98.9447Z" fill="black"/>
<mask id="path-4-inside-1_3284_949" fill="white">
<path d="M193.311 89.8167C193.311 70.3388 209.222 54.5488 228.7 54.5488C248.178 54.5488 264.089 70.3388 264.089 89.8167C264.089 109.295 248.178 125.084 228.7 125.084C209.222 125.084 193.311 109.295 193.311 89.8167Z"/>
</mask>
<path d="M228.7 124.084C209.77 124.084 194.311 108.738 194.311 89.8167H192.311C192.311 109.851 208.674 126.084 228.7 126.084V124.084ZM263.089 89.8167C263.089 108.738 247.63 124.084 228.7 124.084V126.084C248.725 126.084 265.089 109.851 265.089 89.8167H263.089ZM228.7 55.5488C247.63 55.5488 263.089 70.8955 263.089 89.8167H265.089C265.089 69.782 248.725 53.5488 228.7 53.5488V55.5488ZM228.7 53.5488C208.674 53.5488 192.311 69.782 192.311 89.8167H194.311C194.311 70.8955 209.77 55.5488 228.7 55.5488V53.5488Z" fill="black" mask="url(#path-4-inside-1_3284_949)"/>
</svg>
