<svg width="67" height="57" viewBox="0 0 67 57" fill="none" xmlns="http://www.w3.org/2000/svg">
<path d="M53.1372 44.8842C53.6758 44.8842 54.1123 44.5096 54.1123 44.0476V42.6096C54.1123 42.1476 53.6758 41.7729 53.1372 41.7729C52.5986 41.7729 52.1621 42.1475 52.1621 42.6096V44.0476C52.1622 44.5096 52.5987 44.8842 53.1372 44.8842Z" fill="white"/>
<path d="M43.9695 44.8842C44.5081 44.8842 44.9446 44.5096 44.9446 44.0476V42.6096C44.9446 42.1476 44.5081 41.7729 43.9695 41.7729C43.4309 41.7729 42.9944 42.1475 42.9944 42.6096V44.0476C42.9944 44.5096 43.4309 44.8842 43.9695 44.8842Z" fill="white"/>
<path d="M48.5529 45.1401C47.6114 45.1401 45.2621 45.3035 43.7847 46.8166C42.7232 47.9039 42.3795 49.3935 42.7634 51.2444C42.834 51.5847 43.1413 51.8527 43.5366 51.9189C43.6794 51.9427 46.5967 52.4046 48.5529 50.7317C49.7937 51.7927 51.4208 51.9951 52.4817 51.9949C53.0935 51.9949 53.5171 51.9276 53.5694 51.9189C53.9648 51.8527 54.272 51.5846 54.3426 51.2444C54.7265 49.3935 54.3828 47.9039 53.3213 46.8166C51.8438 45.3035 49.4944 45.1401 48.5529 45.1401ZM52.5201 50.3234C51.6528 50.3317 50.1761 50.1457 49.4081 48.9422C49.2371 48.674 48.9092 48.5074 48.5529 48.5074C48.1966 48.5074 47.8687 48.6741 47.6977 48.9422C46.941 50.128 45.5029 50.3247 44.632 50.3247C44.6164 50.3247 44.601 50.3247 44.586 50.3246C44.4825 49.2861 44.7149 48.4694 45.2795 47.8912C46.2293 46.9185 47.8851 46.8135 48.5529 46.8135C49.2207 46.8135 50.8766 46.9185 51.8264 47.8913C52.3907 48.4692 52.6231 49.2854 52.5201 50.3234Z" fill="white"/>
<path d="M47.1274 39.458C46.5888 39.458 46.1523 39.8325 46.1523 40.2946C46.1523 40.7568 46.5888 41.1313 47.1274 41.1313H49.9789C50.5175 41.1313 50.954 40.7566 50.954 40.2946C50.954 39.8326 50.5175 39.458 49.9789 39.458H47.1274Z" fill="white"/>
<path d="M46.4692 38.1498H50.6391C51.1777 38.1498 51.6142 37.7752 51.6142 37.3132C51.6142 36.8512 51.1777 36.4766 50.6391 36.4766H46.4692C45.9306 36.4766 45.4941 36.8512 45.4941 37.3132C45.4941 37.7753 45.9306 38.1498 46.4692 38.1498Z" fill="white"/>
<path d="M61.4171 33.9684C61.1415 33.5715 60.543 33.4413 60.0804 33.6779C59.6177 33.9144 59.4662 34.4278 59.7418 34.8248C60.9931 36.6267 61.6306 38.6826 61.6491 40.9489C61.2605 40.8531 60.8507 40.8008 60.4267 40.8008C60.1958 40.8008 59.9682 40.8171 59.7441 40.8468C58.9065 36.1939 54.2074 32.6202 48.5536 32.6202C42.8997 32.6202 38.2006 36.1938 37.363 40.8468C37.1388 40.8172 36.9114 40.8008 36.6804 40.8008C36.2556 40.8008 35.845 40.8533 35.4558 40.9494C35.4877 37.0644 37.3419 34.4902 38.9818 32.9711C41.434 30.6996 45.0122 29.3436 48.5537 29.3436C51.7904 29.3436 55.0363 30.4566 57.4591 32.3972C57.8531 32.7126 58.4699 32.6942 58.8372 32.3564C59.2047 32.0187 59.1834 31.4893 58.7899 31.174C57.2383 29.9313 55.3905 28.9848 53.4129 28.3905C56.8651 26.9761 59.3587 24.1069 59.8042 20.7119C60.0088 20.7365 60.2161 20.7503 60.4265 20.7503C62.874 20.7503 64.8652 19.0417 64.8652 16.9417C64.8652 15.7114 64.1811 14.6162 63.123 13.9194C63.8696 12.0302 64.0235 9.96123 63.5475 8.01833C63.0353 5.92748 61.8196 4.14701 60.2122 3.13336C58.1159 1.81145 55.7785 1.78952 54.7718 1.85609C53.9474 1.26394 51.8063 0.000254212 48.5511 0.000254212C46.9067 0.000254212 42.6885 0.227475 39.0433 2.3318C38.5966 2.58975 38.478 3.10954 38.7786 3.49284C39.0791 3.87614 39.6851 3.97801 40.1319 3.71995C43.4216 1.82091 47.4078 1.67341 48.5512 1.67341C51.8443 1.67341 53.6662 3.24358 53.7383 3.30692C53.9626 3.50887 54.2933 3.60094 54.6139 3.55374C54.6379 3.55006 57.0454 3.21274 59.0576 4.48166C61.8231 6.22561 62.413 10.2156 61.336 13.2138C61.0424 13.1611 60.7384 13.1331 60.4267 13.1331C59.9116 13.1331 59.4118 13.2072 58.9351 13.3537C55.9754 12 52.7546 8.10038 52.7212 8.05963C52.5666 7.87082 52.3279 7.74524 52.0617 7.71251C51.7953 7.67989 51.5252 7.74291 51.3151 7.88696C51.2437 7.93584 44.2206 12.7081 38.346 13.4134C37.816 13.2279 37.256 13.1331 36.676 13.1331C36.3323 13.1331 35.9982 13.1679 35.6766 13.2316C35.3412 10.1958 35.9821 7.69737 37.5937 5.79756C37.9106 5.42405 37.8146 4.90081 37.3792 4.62883C36.9439 4.35697 36.334 4.43935 36.0171 4.81297C33.9994 7.19127 33.2608 10.2911 33.8164 14.0319C33.5969 14.1909 33.3958 14.3678 33.2159 14.56C32.4018 13.6898 31.1534 13.1309 29.7548 13.1309C29.5239 13.1309 29.2963 13.1471 29.0722 13.1767C28.2888 8.82424 24.126 5.41681 18.9639 4.99477C19.1874 4.01798 19.8758 2.39526 21.9979 1.60416C22.4918 1.42002 22.7183 0.927284 22.5037 0.503569C22.2891 0.0797425 21.7146 -0.114748 21.221 0.0696117C18.5229 1.07535 17.5116 3.02003 17.133 4.36187C15.5858 3.12679 15.6061 1.31782 15.6085 1.21863C15.6232 0.758288 15.201 0.373983 14.6641 0.359733C14.1252 0.346596 13.676 0.708301 13.6593 1.17009C13.655 1.28921 13.605 3.47815 15.3558 5.1946C10.8762 6.07376 7.40011 9.23827 6.69114 13.1767C6.46692 13.147 6.23947 13.1309 6.00838 13.1309C3.56124 13.1309 1.57031 14.8391 1.57031 16.9388C1.57031 19.0386 3.56124 20.7468 6.00838 20.7468C6.21858 20.7468 6.42579 20.733 6.63041 20.7084C7.10297 24.3099 9.87903 27.3216 13.6611 28.6299C13.4641 28.6686 13.27 28.7063 13.0782 28.7423C9.46422 29.4196 7.86475 28.0821 7.74408 27.9755C7.56489 27.7948 7.31343 27.6966 7.03667 27.6902C6.75394 27.6812 6.4982 27.789 6.30785 27.9637C6.19016 28.0714 3.58291 30.5053 4.5183 33.3167C4.15966 33.732 3.61301 34.4539 3.17094 35.4216C2.9745 35.8518 3.22168 36.3372 3.72304 36.5058C4.2248 36.6744 4.79013 36.4621 4.9867 36.032C5.55359 34.7905 6.32614 34.0522 6.3312 34.0473C6.58759 33.8087 6.66013 33.4644 6.51714 33.1639C5.87746 31.8194 6.62912 30.4655 7.2021 29.7116C8.28061 30.2865 10.3371 30.9685 13.4943 30.3768C13.9345 30.2943 14.3761 30.2056 14.8439 30.1117C18.9428 29.2888 23.1816 28.4381 25.4646 31.6643C25.602 31.8585 25.8298 31.9972 26.088 32.0472C26.1138 32.0521 28.6789 32.5692 30.1507 34.6715C31.2696 36.2697 31.5057 38.3771 30.8616 40.9425C30.4991 40.8601 30.1189 40.8157 29.7267 40.8157C29.3211 40.8157 28.9253 40.8628 28.5426 40.954C27.9592 40.2593 26.868 38.8386 26.0126 37.0195C25.8294 36.6299 25.3373 36.4175 24.8637 36.5228C24.8188 36.5328 20.3436 37.5221 17.8658 37.5221C15.3879 37.5221 10.9128 36.5328 10.8679 36.5228C10.3943 36.4173 9.90213 36.6299 9.71892 37.0195C8.86411 38.8376 7.7725 40.259 7.189 40.954C6.80623 40.8628 6.41048 40.8157 6.00488 40.8157C5.57565 40.8157 5.16096 40.8694 4.76807 40.9675C4.54087 40.3083 4.41151 39.6479 4.38647 38.9955C4.36869 38.5336 3.91689 38.1739 3.37985 38.1868C2.84163 38.2021 2.4198 38.5887 2.43745 39.0505C2.47261 39.9654 2.67373 40.8877 3.03081 41.8008C2.13435 42.4974 1.57031 43.5035 1.57031 44.6206C1.57031 46.7187 3.55968 48.4256 6.00488 48.4256C6.21456 48.4256 6.42125 48.4118 6.62535 48.3873C7.2601 53.2264 12.0582 56.9999 17.8652 56.9999C23.672 56.9999 28.4703 53.2264 29.1058 48.3874C29.3098 48.4119 29.5165 48.4257 29.7262 48.4257C31.1362 48.4257 32.3936 47.8574 33.2065 46.9745C34.0202 47.8523 35.2747 48.4168 36.6805 48.4168C36.8907 48.4168 37.0979 48.403 37.3024 48.3784C37.9378 53.2224 42.7408 56.9999 48.5536 56.9999C54.3664 56.9999 59.1693 53.2224 59.8048 48.3784C60.0093 48.403 60.2166 48.4168 60.4267 48.4168C62.874 48.4168 64.8649 46.7085 64.8649 44.6088C64.8649 43.5629 64.3707 42.6143 63.5724 41.9254C63.7481 39.0031 63.0083 36.2595 61.4171 33.9684ZM59.8762 14.8587C60.055 14.824 60.2387 14.8062 60.4263 14.8062C61.7986 14.8062 62.915 15.7642 62.915 16.9416C62.915 18.119 61.7986 19.077 60.4263 19.077C60.2388 19.077 60.0551 19.0593 59.8762 19.0246V14.8587ZM6.55749 19.0212C6.37869 19.0559 6.19509 19.0736 6.0076 19.0736C4.63572 19.0736 3.51959 18.1159 3.51959 16.9387C3.51959 15.7615 4.63572 14.8039 6.0076 14.8039C6.19509 14.8039 6.37869 14.8217 6.55749 14.8564V19.0212ZM6.5523 46.7003C6.37402 46.7348 6.19094 46.7525 6.0041 46.7525C4.63417 46.7525 3.51959 45.7962 3.51959 44.6207C3.51959 43.4453 4.63417 42.489 6.0041 42.489C6.19094 42.489 6.37402 42.5067 6.5523 42.5411V46.7003ZM27.2279 47.2936C27.2279 51.7231 23.0278 55.3268 17.8652 55.3268C12.7026 55.3268 8.50249 51.7231 8.50249 47.2936V42.2445C8.98932 41.6968 10.1744 40.2714 11.1949 38.3146C12.6689 38.614 15.7965 39.1951 17.8652 39.1951C19.9338 39.1951 23.0619 38.6139 24.5358 38.3146C25.1559 39.5017 25.8321 40.4823 26.3237 41.1338C26.5851 41.4801 26.8603 41.8215 27.1196 42.1205C27.1574 42.164 27.1935 42.2055 27.228 42.2449V47.2936H27.2279ZM39.1757 14.9936C41.7217 14.5989 44.6555 13.5572 47.9128 11.8901C49.5743 11.0398 50.9245 10.2256 51.7273 9.71853C52.8507 10.973 55.3726 13.5788 57.9261 14.7884V19.6178C57.9261 24.0533 53.7203 27.6619 48.5508 27.6619C43.3813 27.6619 39.1757 24.0534 39.1757 19.6178V14.9936ZM36.6753 14.8063C36.8628 14.8063 37.0466 14.824 37.2255 14.8588V19.0248C37.0466 19.0594 36.863 19.0772 36.6753 19.0772C35.3031 19.0772 34.1865 18.1192 34.1865 16.9418C34.1867 15.7642 35.3031 14.8063 36.6753 14.8063ZM29.2046 14.8564C29.3834 14.8218 29.5668 14.804 29.7543 14.804C31.1262 14.804 32.2425 15.7617 32.2425 16.9388C32.2425 18.116 31.1262 19.0737 29.7543 19.0737C29.567 19.0737 29.3834 19.056 29.2046 19.0213V14.8564ZM17.881 27.6568C12.7126 27.6568 8.50768 24.049 8.50768 19.6145V14.6657C8.50768 10.2312 12.7126 6.62339 17.881 6.62339C23.0495 6.62339 27.2544 10.2312 27.2544 14.6657V19.6145C27.2544 24.049 23.0495 27.6568 17.881 27.6568ZM26.9186 30.5109C26.0161 29.3566 24.8282 28.5545 23.3718 28.1091C26.4951 26.6167 28.7143 23.8932 29.1323 20.7084C29.3368 20.733 29.544 20.7468 29.7542 20.7468C31.1514 20.7468 32.3988 20.1893 33.213 19.3208C34.0272 20.1914 35.2762 20.7503 36.6753 20.7503C36.8857 20.7503 37.093 20.7365 37.2976 20.7119C37.7435 24.1104 40.2417 26.982 43.6995 28.3948C41.3767 29.0946 39.2321 30.2767 37.5509 31.834C35.5309 33.7051 33.2268 36.9604 33.5328 41.9268C33.4127 42.0305 33.3002 42.1407 33.1945 42.2558C33.0284 42.0768 32.845 41.9103 32.6447 41.7597C33.5548 38.5431 33.2724 35.8608 31.8013 33.7812C30.2623 31.6055 27.8774 30.7701 26.9186 30.5109ZM29.726 46.7525C29.5392 46.7525 29.3562 46.7348 29.178 46.7004V42.5411C29.3561 42.5066 29.5392 42.489 29.726 42.489C31.0961 42.489 32.2107 43.4453 32.2107 44.6207C32.2107 45.7961 31.0961 46.7525 29.726 46.7525ZM37.23 46.6912C37.0514 46.7258 36.8678 46.7435 36.6803 46.7435C35.3084 46.7435 34.1921 45.7859 34.1921 44.6087C34.1921 43.4315 35.3084 42.4738 36.6803 42.4738C36.8676 42.4738 37.0512 42.4917 37.23 42.5264V46.6912ZM57.9269 47.2843C57.9269 51.7189 53.722 55.3267 48.5536 55.3267C43.3851 55.3267 39.1802 51.7189 39.1802 47.2843V42.3356C39.1802 37.901 43.3851 34.2932 48.5536 34.2932C53.722 34.2932 57.9269 37.901 57.9269 42.3356V47.2843ZM60.4267 46.7435C60.2394 46.7435 60.0558 46.7258 59.877 46.6912V42.5264C60.0558 42.4917 60.2394 42.4738 60.4267 42.4738C61.7986 42.4738 62.9149 43.4315 62.9149 44.6087C62.9149 45.7859 61.7987 46.7435 60.4267 46.7435Z" fill="white"/>
<path d="M53.1353 18.6873C53.6739 18.6873 54.1104 18.3127 54.1104 17.8507V16.4123C54.1104 15.9503 53.6739 15.5757 53.1353 15.5757C52.5966 15.5757 52.1602 15.9503 52.1602 16.4123V17.8507C52.1602 18.3127 52.5966 18.6873 53.1353 18.6873Z" fill="white"/>
<path d="M43.9653 18.6873C44.5039 18.6873 44.9404 18.3127 44.9404 17.8507V16.4123C44.9404 15.9503 44.5039 15.5757 43.9653 15.5757C43.4267 15.5757 42.9902 15.9503 42.9902 16.4123V17.8507C42.9904 18.3127 43.4267 18.6873 43.9653 18.6873Z" fill="white"/>
<path d="M44.9702 22.5128C45.2801 23.1587 46.3831 24.2518 48.5508 24.2518C50.7183 24.2518 51.8213 23.1587 52.1313 22.5128C52.3364 22.0855 52.099 21.5965 51.601 21.4206C51.1033 21.2447 50.5333 21.4485 50.3282 21.8756C50.3249 21.8827 49.9516 22.5787 48.5508 22.5787C47.15 22.5787 46.7768 21.8827 46.7733 21.8756C46.5683 21.4485 45.9983 21.2447 45.5005 21.4206C45.0026 21.5965 44.7651 22.0855 44.9702 22.5128Z" fill="white"/>
<path d="M22.4653 15.5757C21.9267 15.5757 21.4902 15.9502 21.4902 16.4123V17.8505C21.4902 18.3125 21.9267 18.6871 22.4653 18.6871C23.0039 18.6871 23.4404 18.3125 23.4404 17.8505V16.4123C23.4403 15.9502 23.0038 15.5757 22.4653 15.5757Z" fill="white"/>
<path d="M14.2725 16.4123C14.2725 15.9503 13.836 15.5757 13.2974 15.5757C12.7588 15.5757 12.3223 15.9502 12.3223 16.4123V17.8505C12.3223 18.3125 12.7588 18.6871 13.2974 18.6871C13.836 18.6871 14.2725 18.3125 14.2725 17.8505V16.4123Z" fill="white"/>
<path d="M20.9309 21.4206C20.4332 21.2447 19.8632 21.4485 19.6582 21.8756C19.6547 21.8827 19.2815 22.5787 17.8807 22.5787C16.48 22.5787 16.1067 21.8827 16.1034 21.8756C15.8984 21.4485 15.3282 21.2447 14.8306 21.4206C14.3326 21.5965 14.0952 22.0856 14.3003 22.5128C14.6102 23.1587 15.7132 24.2518 17.8808 24.2518C20.0485 24.2518 21.1514 23.1587 21.4614 22.5128C21.6664 22.0856 21.4288 21.5967 20.9309 21.4206Z" fill="white"/>
<path d="M22.4438 44.8966C22.9824 44.8966 23.4189 44.522 23.4189 44.0599V42.6233C23.4189 42.1612 22.9824 41.7866 22.4438 41.7866C21.9052 41.7866 21.4688 42.1611 21.4688 42.6233V44.0599C21.4688 44.522 21.9052 44.8966 22.4438 44.8966Z" fill="white"/>
<path d="M13.2856 44.8966C13.8242 44.8966 14.2607 44.522 14.2607 44.0599V42.6233C14.2607 42.1612 13.8242 41.7866 13.2856 41.7866C12.747 41.7866 12.3105 42.1611 12.3105 42.6233V44.0599C12.3107 44.522 12.7472 44.8966 13.2856 44.8966Z" fill="white"/>
<path d="M17.8662 45.1504C16.9256 45.1504 14.5782 45.3136 13.1022 46.8254C12.0414 47.9118 11.6981 49.4002 12.0817 51.2493C12.1522 51.5896 12.4595 51.8576 12.8548 51.9238C12.9969 51.9475 15.9114 52.4089 17.8662 50.7382C19.1056 51.7976 20.731 51.9997 21.7907 51.9997C22.4021 51.9997 22.8255 51.9325 22.8775 51.9237C23.2728 51.8575 23.5801 51.5895 23.6507 51.2492C24.0342 49.4001 23.6909 47.9117 22.6302 46.8253C21.1541 45.3136 18.8067 45.1504 17.8662 45.1504ZM21.8282 50.3292C20.9656 50.3371 19.4899 50.153 18.7214 48.949C18.5504 48.6809 18.2225 48.5142 17.8662 48.5142C17.5099 48.5142 17.182 48.6809 17.011 48.949C16.242 50.1539 14.767 50.3348 13.9042 50.3295C13.8011 49.2927 14.0333 48.4773 14.597 47.9C15.5455 46.9286 17.1992 46.8237 17.8663 46.8237C18.5334 46.8237 20.1869 46.9285 21.1354 47.9C21.6991 48.4771 21.9309 49.2926 21.8282 50.3292Z" fill="white"/>
</svg>
