<svg width="63" height="54" viewBox="0 0 63 54" fill="none" xmlns="http://www.w3.org/2000/svg">
<g clip-path="url(#clip0_1558_1721)">
<path d="M50.3481 39.5998C50.3481 40.5938 49.4088 41.3998 48.2502 41.3998C47.0917 41.3998 46.1523 40.5938 46.1523 39.5998C46.1523 38.6058 47.0917 37.7998 48.2502 37.7998C49.4088 37.7998 50.3481 38.6058 50.3481 39.5998Z" fill="white"/>
<path d="M56.6429 30.6004H55.5939V26.1004C55.5919 24.6098 54.1844 23.4021 52.4471 23.4004H6.29333C4.55601 23.4021 3.14853 24.6098 3.14648 26.1004V51.3004C3.14853 52.791 4.55601 53.9986 6.29333 54.0004H52.4471C54.1844 53.9986 55.5919 52.791 55.5939 51.3004V45.0004H56.6429C58.3802 44.9986 59.7877 43.791 59.7897 42.3004V33.3004C59.7877 31.8098 58.3802 30.6021 56.6429 30.6004ZM53.496 51.3004C53.4955 51.797 53.0259 52.2 52.4471 52.2004H6.29333C5.71457 52.2 5.24489 51.797 5.24438 51.3004V26.1004C5.24489 25.6038 5.71457 25.2008 6.29333 25.2004H52.4471C53.0259 25.2008 53.4955 25.6038 53.496 26.1004V34.2004H45.1045C43.3671 34.2021 41.9597 35.4098 41.9576 36.9004V42.3004C41.9597 43.791 43.3671 44.9986 45.1045 45.0004H53.496V51.3004ZM57.6918 42.3004C57.6913 42.797 57.2217 43.2 56.6429 43.2004H45.1045C44.5257 43.2 44.056 42.797 44.0555 42.3004V36.9004C44.056 36.4038 44.5257 36.0008 45.1045 36.0004H57.6918V42.3004ZM55.5939 34.2004V32.4004H56.6429C57.2217 32.4008 57.6913 32.8038 57.6918 33.3004V34.2004H55.5939Z" fill="white"/>
<path d="M33.5666 7.12837C36.7821 6.72583 39.3077 4.55889 39.7769 1.8H44.1396C44.6088 4.55889 47.1344 6.72583 50.3498 7.12837V21.6H52.4477V2.7C52.4457 1.20938 51.0382 0.00175781 49.3009 0H34.6156C32.8783 0.00175781 31.4708 1.20938 31.4688 2.7V21.6H33.5666V7.12837ZM49.3009 1.8C49.8796 1.80044 50.3493 2.20342 50.3498 2.7V5.30947C48.2919 4.94561 46.6836 3.56572 46.2595 1.8H49.3009ZM33.5666 2.7C33.5672 2.20342 34.0368 1.80044 34.6156 1.8H37.6569C37.2328 3.56572 35.6246 4.94561 33.5666 5.30947V2.7Z" fill="white"/>
<path d="M35.6641 14.4C35.6641 17.3821 38.4821 19.8 41.9578 19.8C45.4334 19.8 48.2515 17.3821 48.2515 14.4C48.2515 11.4179 45.4334 9 41.9578 9C38.4836 9.00308 35.6676 11.4192 35.6641 14.4ZM46.1536 14.4C46.1536 16.3881 44.2749 18 41.9578 18C39.6406 18 37.762 16.3881 37.762 14.4C37.762 12.4119 39.6406 10.8 41.9578 10.8C44.2738 10.8022 46.151 12.4128 46.1536 14.4Z" fill="white"/>
<path d="M20.9785 12.5283C24.194 12.1257 26.7196 9.95879 27.1887 7.1999H29.3701V5.3999H22.0275C20.2901 5.40166 18.8827 6.60928 18.8806 8.0999V21.5999H20.9785V12.5283ZM20.9785 8.0999C20.979 7.60332 21.4487 7.20034 22.0275 7.1999H25.0688C24.6447 8.96563 23.0365 10.3455 20.9785 10.7094V8.0999Z" fill="white"/>
<path d="M8.39087 17.9282C11.6063 17.5256 14.1319 15.3587 14.6011 12.5998H16.7825V10.7998H9.43982C7.70249 10.8016 6.29502 12.0092 6.29297 13.4998V21.5998H8.39087V17.9282ZM8.39087 13.4998C8.39138 13.0032 8.86105 12.6002 9.43982 12.5998H12.4812C12.0571 14.3655 10.4488 15.7454 8.39087 16.1093V13.4998Z" fill="white"/>
<path d="M23.0762 21.6002H25.1741C25.1766 19.613 27.0538 18.0024 29.3699 18.0002V16.2002C25.8957 16.2033 23.0798 18.6194 23.0762 21.6002Z" fill="white"/>
</g>
<defs>
<clipPath id="clip0_1558_1721">
<rect width="62.937" height="54" fill="white"/>
</clipPath>
</defs>
</svg>
