<svg width="54" height="54" viewBox="0 0 54 54" fill="none" xmlns="http://www.w3.org/2000/svg">
<g clip-path="url(#clip0_1285_2460)">
<path d="M17.3569 28.9277H13.4997C11.3695 28.9277 9.64258 30.6546 9.64258 32.7849V48.2134C9.64258 50.3437 11.3695 52.0706 13.4997 52.0706H17.3569C19.4871 52.0706 21.214 50.3437 21.214 48.2134V32.7849C21.214 30.6546 19.4871 28.9277 17.3569 28.9277Z" stroke="white" stroke-width="4" stroke-linecap="round" stroke-linejoin="round"/>
<path d="M40.5004 28.9277H36.6433C34.513 28.9277 32.7861 30.6546 32.7861 32.7849V48.2134C32.7861 50.3437 34.513 52.0706 36.6433 52.0706H40.5004C42.6307 52.0706 44.3576 50.3437 44.3576 48.2134V32.7849C44.3576 30.6546 42.6307 28.9277 40.5004 28.9277Z" stroke="white" stroke-width="4" stroke-linecap="round" stroke-linejoin="round"/>
<path d="M1.92871 36.642V26.9992C1.92871 20.3498 4.57016 13.9728 9.27196 9.27099C13.9738 4.56918 20.3508 1.92773 27.0001 1.92773C33.6495 1.92773 40.0265 4.56918 44.7283 9.27099C49.4301 13.9728 52.0716 20.3498 52.0716 26.9992V36.642" stroke="white" stroke-width="4" stroke-linecap="round" stroke-linejoin="round"/>
</g>
<defs>
<clipPath id="clip0_1285_2460">
<rect width="54" height="54" fill="white"/>
</clipPath>
</defs>
</svg>
