<svg width="44" height="44" viewBox="0 0 44 44" fill="none" xmlns="http://www.w3.org/2000/svg">
<path d="M21.0807 18.9905L20.9456 19.058L20.9419 19.0599L20.7971 19.1322L20.6353 19.1384C20.6081 19.1395 20.5814 19.1405 20.5552 19.1415C20.2366 19.1534 19.9866 19.1628 19.742 19.2098C17.6051 19.6228 15.8545 21.018 14.5042 22.731C13.1557 24.4419 12.2601 26.4047 11.8245 27.8073C11.6309 28.431 11.7401 29.0797 12.1244 29.6021L21.0807 18.9905ZM21.0807 18.9905L21.1791 18.876M21.0807 18.9905L21.1791 18.876M21.1791 18.876C28.3777 10.4995 31.9925 6.29485 33.8115 4.1805C34.7211 3.12319 35.1813 2.58899 35.4159 2.31726C35.5336 2.18102 35.5934 2.11209 35.6244 2.07658L35.6418 2.05694C37.4019 0.313526 40.2516 0.318577 41.9986 2.07026C43.7491 3.82549 43.7488 6.68637 41.9989 8.43945L41.9897 8.44863M21.1791 18.876L41.9897 8.44863M41.9897 8.44863L41.9809 8.45812M41.9897 8.44863L41.9809 8.45812M41.9809 8.45812L26.909 24.6391L26.7254 24.8363M41.9809 8.45812L26.7254 24.8363M26.7254 24.8363L26.7092 25.1052M26.7254 24.8363L26.7092 25.1052M26.7092 25.1052C26.631 26.402 26.1445 27.6098 25.26 28.5765L25.2598 28.5767M26.7092 25.1052L25.2598 28.5767M25.2598 28.5767C24.1901 29.7468 22.6639 30.4191 21.0797 30.4191M25.2598 28.5767L21.0797 30.4191M26.3935 24.2606L26.3936 24.2611C26.5274 25.7753 26.0392 27.2341 25.0171 28.35L25.0169 28.3503C24.0078 29.451 22.5753 30.0821 21.0815 30.0821H13.7482C13.2147 30.0821 12.7144 29.8343 12.395 29.4018L12.3934 29.3996C12.0769 28.9678 11.9841 28.4181 12.1447 27.9029C12.1448 27.9027 12.1448 27.9025 12.1449 27.9024L12.8608 28.1258L26.3935 24.2606ZM26.3935 24.2606C26.2637 22.8022 25.5154 21.5003 24.3123 20.5933C23.023 19.6196 21.3818 19.2284 19.8082 19.5354L26.3935 24.2606ZM21.0797 30.4191H13.7463M21.0797 30.4191H13.7463M13.7463 30.4191C13.095 30.4191 12.5073 30.1214 12.1247 29.6026L13.7463 30.4191ZM22.9167 35.9173H22.1667V36.6673V42.1673V42.9173H22.9167H29.3333C29.4251 42.9173 29.5 42.9922 29.5 43.084C29.5 43.1758 29.4251 43.2506 29.3333 43.2506H14.6667C14.5749 43.2506 14.5 43.1758 14.5 43.084C14.5 42.9922 14.5749 42.9173 14.6667 42.9173H21.0833H21.8333V42.1673V36.6673V35.9173H21.0833H8.25C4.11571 35.9173 0.75 32.5516 0.75 28.4173V11.9173C0.75 7.78302 4.11571 4.41731 8.25 4.41731H26.5833C26.6751 4.41731 26.75 4.49219 26.75 4.58397C26.75 4.67576 26.6751 4.75064 26.5833 4.75064H8.25C4.29745 4.75064 1.08333 7.96476 1.08333 11.9173V28.4173C1.08333 32.3699 4.29745 35.584 8.25 35.584H35.75C39.7025 35.584 42.9167 32.3699 42.9167 28.4173V15.584C42.9167 15.4922 42.9915 15.4173 43.0833 15.4173C43.1751 15.4173 43.25 15.4922 43.25 15.584V28.4173C43.25 32.5516 39.8843 35.9173 35.75 35.9173H22.9167ZM22.223 18.1735L21.4706 19.0495L22.577 19.3807C23.2825 19.5918 23.9405 19.8956 24.5153 20.3265C25.4546 21.0352 26.1111 21.9637 26.4586 23.0045L26.8583 24.2016L27.7187 23.2783L31.5045 19.2156L31.7907 18.9086L31.6786 18.5041C30.9951 16.0367 28.8296 14.2001 26.2683 13.9538L25.8809 13.9165L25.6274 14.2118C24.942 15.0103 24.2686 15.7936 23.6236 16.5438C23.1383 17.1083 22.6691 17.6541 22.223 18.1735ZM27.0027 12.611L26.2297 13.5105L27.3737 13.8233C29.2762 14.3433 30.8652 15.7062 31.672 17.5076L32.1344 18.5398L32.9053 17.7122L41.7503 8.21695C43.3806 6.57012 43.3837 3.9331 41.7631 2.30574L41.762 2.30464C40.1367 0.679379 37.4927 0.676497 35.8665 2.30501L35.8488 2.32273L35.8323 2.3416C35.7032 2.48946 31.3454 7.55729 27.0027 12.611Z" stroke="url(#paint0_linear_3284_1088)" stroke-width="1.5"/>
<defs>
<linearGradient id="paint0_linear_3284_1088" x1="22.0307" y1="0.00292969" x2="22.0307" y2="44.0006" gradientUnits="userSpaceOnUse">
<stop stop-color="white"/>
<stop offset="1" stop-color="#393939"/>
</linearGradient>
</defs>
</svg>
