<svg width="76" height="76" viewBox="0 0 76 76" fill="none" xmlns="http://www.w3.org/2000/svg">
<path d="M64.125 9.5H2.375V57H64.125V9.5ZM59.375 52.25H7.125V14.25H59.375V52.25Z" fill="white"/>
<path d="M68.875 21.375V61.75H14.25V66.5H73.625V21.375H68.875Z" fill="white"/>
<path d="M33.25 44.8964C39.143 44.8964 43.9375 39.6808 43.9375 33.2699C43.9375 26.859 39.143 21.6434 33.25 21.6434C27.357 21.6434 22.5625 26.8589 22.5625 33.2699C22.5625 39.6809 27.357 44.8964 33.25 44.8964ZM33.25 26.3934C36.5239 26.3934 39.1875 29.4782 39.1875 33.2699C39.1875 37.0616 36.5239 40.1464 33.25 40.1464C29.9761 40.1464 27.3125 37.0616 27.3125 33.2699C27.3125 29.4782 29.9761 26.3934 33.25 26.3934ZM11.875 20.1875H16.625V46.3125H11.875V20.1875ZM49.875 20.1875H54.625V46.3125H49.875V20.1875Z" fill="white"/>
</svg>
