<svg width="42" height="41" viewBox="0 0 42 41" fill="none" xmlns="http://www.w3.org/2000/svg">
<rect x="1.16602" y="0.544922" width="39.3823" height="39.3823" stroke="white"/>
<g clip-path="url(#clip0_3001_10070)">
<path d="M28.4141 28.6328C27.5633 28.6328 26.8335 29.1587 26.5316 29.9023H24.7578V31.4258H26.5316C26.8335 32.1694 27.5633 32.6953 28.4141 32.6953C29.5341 32.6953 30.4453 31.7841 30.4453 30.6641C30.4453 29.544 29.5341 28.6328 28.4141 28.6328Z" fill="url(#paint0_linear_3001_10070)"/>
<path d="M31.9688 24.3164C31.6349 24.3164 31.3199 24.3979 31.0417 24.5412L29.1556 22.9695C29.0187 22.8554 28.8462 22.793 28.668 22.793H24.7578V24.3164H28.3922L30.0459 25.6945C29.976 25.8996 29.9375 26.1191 29.9375 26.3477C29.9375 27.4677 30.8487 28.3789 31.9688 28.3789C33.0888 28.3789 34 27.4677 34 26.3477C34 25.2276 33.0888 24.3164 31.9688 24.3164Z" fill="url(#paint1_linear_3001_10070)"/>
<path d="M31.9688 17.9688C31.118 17.9688 30.3882 18.4946 30.0862 19.2383H24.7578V20.7617H30.0862C30.3882 21.5054 31.118 22.0312 31.9688 22.0312C33.0888 22.0312 34 21.12 34 20C34 18.88 33.0888 17.9688 31.9688 17.9688Z" fill="url(#paint2_linear_3001_10070)"/>
<path d="M29.1556 17.0305L31.0417 15.4587C31.3199 15.6021 31.6349 15.6836 31.9688 15.6836C33.0888 15.6836 34 14.7724 34 13.6523C34 12.5323 33.0888 11.6211 31.9688 11.6211C30.8487 11.6211 29.9375 12.5323 29.9375 13.6523C29.9375 13.8809 29.976 14.1004 30.0459 14.3055L28.3922 15.6836H24.7578V17.207H28.668C28.8462 17.207 29.0187 17.1446 29.1556 17.0305Z" fill="url(#paint3_linear_3001_10070)"/>
<path d="M28.4141 11.3672C29.5341 11.3672 30.4453 10.456 30.4453 9.33594C30.4453 8.21591 29.5341 7.30469 28.4141 7.30469C27.5633 7.30469 26.8335 7.83058 26.5316 8.57422H24.7578V10.0977H26.5316C26.8335 10.8413 27.5633 11.3672 28.4141 11.3672Z" fill="url(#paint4_linear_3001_10070)"/>
<path d="M15.6172 20C15.6172 22.9401 18.0091 25.332 20.9492 25.332C21.7665 25.332 22.5414 25.1469 23.2344 24.8169V15.1831C22.5414 14.8531 21.7665 14.668 20.9492 14.668C18.0091 14.668 15.6172 17.0599 15.6172 20Z" fill="url(#paint5_linear_3001_10070)"/>
<path d="M22.4727 7.05078H19.4258C19.0051 7.05078 18.6641 7.39183 18.6641 7.8125V8.804C17.2347 9.09518 15.8669 9.66185 14.6485 10.4675L13.9472 9.76631C13.6497 9.46883 13.1674 9.46883 12.87 9.76631L10.7155 11.9208C10.4181 12.2182 10.4181 12.7005 10.7155 12.998L11.4168 13.6993C10.6111 14.9177 10.0444 16.2855 9.75322 17.7148H8.76172C8.34105 17.7148 8 18.0559 8 18.4766V21.5234C8 21.9441 8.34105 22.2852 8.76172 22.2852H9.75322C10.0444 23.7145 10.6111 25.0823 11.4168 26.3008L10.7155 27.0021C10.5726 27.1449 10.4924 27.3387 10.4924 27.5407C10.4924 27.7427 10.5726 27.9363 10.7155 28.0792L12.87 30.2337C13.1674 30.5312 13.6497 30.5312 13.9472 30.2337L14.6485 29.5325C15.8669 30.3381 17.2347 30.9048 18.6641 31.196V32.1875C18.6641 32.6082 19.0051 32.9492 19.4258 32.9492H22.4727C22.8933 32.9492 23.2344 32.6082 23.2344 32.1875V26.4633C22.5193 26.7169 21.7502 26.8555 20.9492 26.8555C17.1691 26.8555 14.0938 23.7801 14.0938 20C14.0938 16.2199 17.1691 13.1445 20.9492 13.1445C21.7502 13.1445 22.5193 13.2831 23.2344 13.5367V7.8125C23.2344 7.39183 22.8933 7.05078 22.4727 7.05078Z" fill="url(#paint6_linear_3001_10070)"/>
</g>
<defs>
<linearGradient id="paint0_linear_3001_10070" x1="28.0049" y1="28.6328" x2="27.8806" y2="35.1354" gradientUnits="userSpaceOnUse">
<stop stop-color="#9FF8BE"/>
<stop offset="0.484375" stop-color="#EAFFE2"/>
<stop offset="1" stop-color="#F8EDBA"/>
</linearGradient>
<linearGradient id="paint1_linear_3001_10070" x1="30.0343" y1="22.793" x2="29.8897" y2="31.7349" gradientUnits="userSpaceOnUse">
<stop stop-color="#9FF8BE"/>
<stop offset="0.484375" stop-color="#EAFFE2"/>
<stop offset="1" stop-color="#F8EDBA"/>
</linearGradient>
<linearGradient id="paint2_linear_3001_10070" x1="30.0343" y1="17.9688" x2="29.9578" y2="24.4728" gradientUnits="userSpaceOnUse">
<stop stop-color="#9FF8BE"/>
<stop offset="0.484375" stop-color="#EAFFE2"/>
<stop offset="1" stop-color="#F8EDBA"/>
</linearGradient>
<linearGradient id="paint3_linear_3001_10070" x1="30.0343" y1="11.6211" x2="29.8897" y2="20.5631" gradientUnits="userSpaceOnUse">
<stop stop-color="#9FF8BE"/>
<stop offset="0.484375" stop-color="#EAFFE2"/>
<stop offset="1" stop-color="#F8EDBA"/>
</linearGradient>
<linearGradient id="paint4_linear_3001_10070" x1="28.0049" y1="7.30469" x2="27.8806" y2="13.8073" gradientUnits="userSpaceOnUse">
<stop stop-color="#9FF8BE"/>
<stop offset="0.484375" stop-color="#EAFFE2"/>
<stop offset="1" stop-color="#F8EDBA"/>
</linearGradient>
<linearGradient id="paint5_linear_3001_10070" x1="19.9659" y1="14.668" x2="19.3273" y2="31.7195" gradientUnits="userSpaceOnUse">
<stop stop-color="#9FF8BE"/>
<stop offset="0.484375" stop-color="#EAFFE2"/>
<stop offset="1" stop-color="#F8EDBA"/>
</linearGradient>
<linearGradient id="paint6_linear_3001_10070" x1="16.6974" y1="7.05078" x2="14.8154" y2="48.4342" gradientUnits="userSpaceOnUse">
<stop stop-color="#9FF8BE"/>
<stop offset="0.484375" stop-color="#EAFFE2"/>
<stop offset="1" stop-color="#F8EDBA"/>
</linearGradient>
<clipPath id="clip0_3001_10070">
<rect width="26" height="26" fill="white" transform="translate(8 7)"/>
</clipPath>
</defs>
</svg>
