<svg width="250" height="45" viewBox="0 0 250 45" fill="none" xmlns="http://www.w3.org/2000/svg">
<path d="M92.8741 24.6726L89.8516 27.9536L92.8741 31.2418L95.9038 27.9536L92.8741 24.6726Z" fill="url(#paint0_linear_1011_25596)"/>
<path d="M102.974 22.472C102.35 22.4501 101.736 22.305 101.168 22.045C100.6 21.7851 100.089 21.4153 99.6646 20.9571L85.8514 5.9234C85.5344 5.57834 85.1494 5.30261 84.7206 5.11357C84.2919 4.92453 83.8287 4.82626 83.3601 4.82495H78.7939L96.3836 23.9294C97.5969 25.3061 99.2012 26.2801 100.982 26.7217C102.763 27.1632 104.637 27.0513 106.353 26.4008C108.069 25.7504 109.546 24.5922 110.586 23.0809C111.627 21.5696 112.183 19.7768 112.178 17.9418V7.48135L107.727 11.5234V18.0854C107.712 18.6828 107.579 19.2714 107.334 19.8167C107.09 20.362 106.739 20.8531 106.303 21.2614C105.866 21.6697 105.353 21.9871 104.792 22.1949C104.232 22.4028 103.636 22.4969 103.039 22.472H102.974Z" fill="url(#paint1_linear_1011_25596)"/>
<path d="M68.6794 9.85499e-07H64.1133L85.8526 23.5917L89.0044 20.4399L71.1922 1.09846C70.872 0.75176 70.4833 0.475177 70.0509 0.286123C69.6184 0.0970684 69.1514 -0.00035746 68.6794 9.85499e-07Z" fill="url(#paint2_linear_1011_25596)"/>
<path d="M102.429 4.80127C101.959 4.80203 101.494 4.90001 101.064 5.08906C100.634 5.2781 100.248 5.55412 99.9302 5.89972L86.0811 20.955C85.6565 21.4132 85.1455 21.7829 84.5775 22.0429C84.0095 22.3029 83.3957 22.448 82.7714 22.4699C82.1742 22.4948 81.5781 22.4006 81.0178 22.1928C80.4575 21.985 79.9442 21.6676 79.5078 21.2593C79.0714 20.851 78.7206 20.3598 78.4761 19.8145C78.2315 19.2692 78.0979 18.6807 78.0832 18.0832V11.5212L73.6319 7.47921V17.9396C73.6238 19.7765 74.177 21.572 75.2172 23.0859C76.2574 24.5998 77.7352 25.76 79.4528 26.4111C81.1704 27.0622 83.0458 27.1733 84.8283 26.7294C86.6107 26.2855 88.215 25.3079 89.4267 23.9273L106.988 4.80127H102.429Z" fill="url(#paint3_linear_1011_25596)"/>
<path d="M117.068 0C116.599 0.00131242 116.136 0.0995987 115.708 0.288641C115.279 0.477684 114.894 0.753391 114.577 1.09845L96.7646 20.4327L99.9164 23.5845L121.634 0H117.068Z" fill="url(#paint4_linear_1011_25596)"/>
<path d="M18.5229 3.82422H14.1435L4.48715 13.6242H3.5251V3.82422H0V26.461H3.5251V16.9339H4.74561L14.4737 26.461H19.2481L7.48097 15.1749L18.5229 3.82422Z" fill="white"/>
<path d="M57.8513 3.38237C51.3899 3.38237 46.3643 8.61617 46.3643 15.2069C46.4236 17.4737 47.1504 19.6725 48.4537 21.5281C49.757 23.3837 51.5788 24.8136 53.6909 25.6386C55.8031 26.4636 58.1116 26.6471 60.3276 26.1661C62.5435 25.6851 64.5683 24.5609 66.1483 22.9345C67.7284 21.3081 68.7934 19.2516 69.2101 17.0227C69.6267 14.7937 69.3765 12.4914 68.4907 10.404C67.6049 8.31665 66.1229 6.537 64.2304 5.28798C62.3379 4.03896 60.1189 3.37608 57.8513 3.38237ZM57.8513 23.5566C53.4001 23.5566 49.9109 19.9669 49.9109 15.2069C49.9109 10.4469 53.4001 6.7926 57.8513 6.7926C62.3026 6.7926 65.8277 10.3823 65.8277 15.2069C65.8277 20.0315 62.3241 23.535 57.8513 23.535V23.5566Z" fill="white"/>
<path d="M122.947 3.82422H119.422V26.461H135.008V23.1872H122.947V3.82422Z" fill="white"/>
<path d="M167.511 3.82422H159.8V26.461H167.518C175.027 26.461 179.723 21.7298 179.723 15.1462C179.723 8.56265 175.02 3.82422 167.511 3.82422ZM167.511 23.2087H163.318V7.12677H167.511C172.881 7.12677 176.126 10.4724 176.126 15.1749C176.126 19.8775 172.881 23.18 167.511 23.18V23.2087Z" fill="white"/>
<path d="M213.286 16.8836H225.189V13.6457H213.286V7.10523H226.173V3.82422H209.761V26.461H226.209V23.1872H213.286V16.8836Z" fill="white"/>
<path d="M142.36 16.8836H154.256V13.6457H142.36V7.10523H155.247V3.82422H138.835V26.461H155.283V23.1872H142.36V16.8836Z" fill="white"/>
<path d="M242.284 16.807C246.125 16.4193 248.509 13.9353 248.509 10.3455C248.509 6.49735 245.709 3.84814 241.258 3.84814H230.726V26.4849H234.251V16.8788H238.321L245.321 26.4634H249.414L242.284 16.807ZM234.251 13.6409V7.10043H241.315C243.613 7.10043 244.984 8.46453 244.984 10.3599C244.984 12.2553 243.613 13.6409 241.315 13.6409H234.251Z" fill="white"/>
<path d="M38.7558 20.9328L25.9907 3.82422H22.2861V26.461H25.84V9.33803L38.6265 26.461H42.2881V3.82422H38.7558V20.9328Z" fill="white"/>
<path d="M193.349 13.6465V16.9419H202.115C201.454 20.8619 198.59 23.5326 194.533 23.5326C189.953 23.5326 186.428 19.9429 186.428 15.1542C186.428 10.3655 189.888 6.76863 194.325 6.76863C195.623 6.70501 196.915 6.97282 198.081 7.54683C199.247 8.12085 200.247 8.98218 200.988 10.0496H204.843C203.264 5.69172 199.042 3.3584 194.325 3.3584C191.248 3.44632 188.326 4.73404 186.185 6.94652C184.044 9.15901 182.853 12.1209 182.866 15.1997C182.879 18.2785 184.096 21.2301 186.256 23.4243C188.415 25.6184 191.347 26.8812 194.426 26.9429C200.988 26.9429 205.568 21.8383 205.568 15.1829C205.568 14.7809 205.568 14.2496 205.504 13.6465H193.349Z" fill="white"/>
<path d="M126.431 39.0494L127.328 39.2648C127.091 40.0742 126.59 40.7808 125.904 41.2714C125.218 41.7621 124.387 42.0086 123.545 41.9714C122.473 41.9269 121.46 41.4698 120.718 40.6958C119.975 39.9218 119.561 38.8907 119.561 37.8181C119.561 36.7456 119.975 35.7145 120.718 34.9405C121.46 34.1665 122.473 33.7094 123.545 33.6648C124.379 33.6279 125.202 33.8676 125.887 34.3467C126.571 34.8257 127.078 35.5173 127.328 36.3141L126.431 36.5797C126.245 35.9706 125.862 35.4404 125.342 35.0726C124.823 34.7048 124.195 34.5203 123.559 34.5479C122.718 34.5873 121.925 34.9491 121.344 35.558C120.763 36.167 120.439 36.9764 120.439 37.8181C120.439 38.6599 120.763 39.4693 121.344 40.0782C121.925 40.6872 122.718 41.049 123.559 41.0884C124.196 41.1156 124.824 40.93 125.344 40.5608C125.864 40.1916 126.247 39.6599 126.431 39.0494Z" fill="white"/>
<path d="M134.37 38.2961V41.8141H133.465V38.4612C133.491 38.2316 133.469 37.9991 133.4 37.7787C133.33 37.5583 133.215 37.3549 133.062 37.1816C132.909 37.0084 132.722 36.8692 132.512 36.773C132.302 36.6768 132.074 36.6258 131.843 36.6233C130.622 36.6233 129.811 37.4633 129.811 38.9854V41.8141H128.928V33.1987H129.825V36.8818C130.066 36.5209 130.397 36.2282 130.784 36.0321C131.171 35.8359 131.603 35.7428 132.036 35.7618C132.362 35.7561 132.685 35.8194 132.984 35.9475C133.283 36.0756 133.552 36.2656 133.772 36.5051C133.993 36.7445 134.16 37.0279 134.263 37.3366C134.366 37.6453 134.402 37.9723 134.37 38.2961Z" fill="white"/>
<path d="M141.757 41.8073H140.859V40.874C140.583 41.224 140.229 41.5049 139.825 41.6943C139.421 41.8837 138.979 41.9765 138.533 41.9653C137.739 41.927 136.991 41.5846 136.442 41.0092C135.894 40.4338 135.588 39.6694 135.588 38.8745C135.588 38.0796 135.894 37.3153 136.442 36.7398C136.991 36.1644 137.739 35.822 138.533 35.7838C138.978 35.7717 139.42 35.8634 139.824 36.0515C140.228 36.2397 140.582 36.5192 140.859 36.8679V35.9274H141.757V41.8073ZM140.859 38.8709C140.869 38.579 140.821 38.288 140.718 38.0147C140.614 37.7414 140.458 37.4912 140.258 37.2784C140.058 37.0656 139.818 36.8944 139.551 36.7747C139.285 36.655 138.998 36.589 138.706 36.5807C138.121 36.6135 137.572 36.8686 137.17 37.2939C136.767 37.7191 136.543 38.2821 136.543 38.8673C136.543 39.4526 136.767 40.0156 137.17 40.4408C137.572 40.866 138.121 41.1212 138.706 41.154C138.997 41.1466 139.285 41.0815 139.551 40.9625C139.817 40.8436 140.058 40.6731 140.258 40.4609C140.458 40.2486 140.614 39.9989 140.717 39.726C140.821 39.4531 140.869 39.1625 140.859 38.8709Z" fill="white"/>
<path d="M144.902 34.1451C144.903 34.2267 144.888 34.3078 144.857 34.3832C144.825 34.4586 144.779 34.527 144.721 34.584C144.662 34.6411 144.593 34.6857 144.517 34.7152C144.441 34.7446 144.359 34.7583 144.278 34.7554C144.196 34.7583 144.115 34.7446 144.04 34.7151C143.964 34.6856 143.895 34.6408 143.837 34.5837C143.779 34.5265 143.734 34.4581 143.703 34.3827C143.673 34.3072 143.658 34.2264 143.66 34.1451C143.661 34.065 143.678 33.9858 143.71 33.9121C143.741 33.8384 143.787 33.7717 143.844 33.7157C143.901 33.6597 143.969 33.6155 144.044 33.5857C144.118 33.5559 144.198 33.5411 144.278 33.542C144.44 33.5401 144.597 33.6023 144.714 33.7152C144.831 33.8281 144.899 33.9826 144.902 34.1451ZM143.825 41.8056V35.9256H144.723V41.8056H143.825Z" fill="white"/>
<path d="M152.261 38.2903V41.8082H151.356V38.4554C151.383 38.2258 151.36 37.9933 151.291 37.7729C151.221 37.5525 151.107 37.3491 150.954 37.1758C150.801 37.0026 150.613 36.8634 150.403 36.7672C150.193 36.671 149.965 36.62 149.734 36.6175C148.513 36.6175 147.709 37.4575 147.709 38.9795V41.8082H146.805V35.9283H147.709V36.9047C147.949 36.5438 148.278 36.2511 148.664 36.0548C149.05 35.8586 149.481 35.7655 149.913 35.7847C150.237 35.7774 150.559 35.8385 150.858 35.964C151.157 36.0895 151.425 36.2765 151.647 36.513C151.869 36.7494 152.038 37.0299 152.144 37.3362C152.249 37.6424 152.289 37.9675 152.261 38.2903Z" fill="white"/>
<path d="M159.449 39.0494H154.423C154.434 39.6009 154.656 40.1273 155.043 40.52C155.431 40.9127 155.954 41.1418 156.505 41.1601C156.929 41.186 157.349 41.0778 157.708 40.851C158.066 40.6242 158.344 40.2902 158.501 39.8965L159.305 40.0904C159.104 40.6636 158.723 41.1562 158.218 41.4941C157.713 41.8319 157.112 41.9969 156.505 41.9642C155.711 41.9185 154.965 41.5687 154.422 40.9875C153.879 40.4062 153.581 39.6381 153.589 38.8427C153.597 38.0472 153.912 37.2855 154.467 36.7157C155.022 36.1459 155.775 35.8118 156.57 35.7827C156.953 35.7826 157.331 35.859 157.684 36.0073C158.037 36.1557 158.356 36.373 158.624 36.6466C158.891 36.9201 159.102 37.2444 159.242 37.6003C159.383 37.9562 159.45 38.3366 159.442 38.7191L159.449 39.0494ZM154.474 38.3745H158.537C158.502 37.8826 158.281 37.4226 157.918 37.0888C157.555 36.7551 157.078 36.5729 156.584 36.5796C156.075 36.5724 155.58 36.7504 155.192 37.0805C154.804 37.4106 154.548 37.8704 154.474 38.3745Z" fill="white"/>
<path d="M166.498 41.811H165.601V40.8776C165.324 41.2277 164.97 41.5085 164.566 41.6979C164.163 41.8874 163.72 41.9801 163.274 41.9689C162.48 41.9307 161.732 41.5883 161.183 41.0129C160.635 40.4374 160.329 39.673 160.329 38.8782C160.329 38.0833 160.635 37.3189 161.183 36.7435C161.732 36.1681 162.48 35.8257 163.274 35.7874C163.72 35.7754 164.162 35.867 164.565 36.0552C164.969 36.2433 165.323 36.5228 165.601 36.8715V33.2244H166.498V41.811ZM165.601 38.8746C165.61 38.5826 165.562 38.2917 165.459 38.0184C165.356 37.7451 165.199 37.4949 164.999 37.2821C164.799 37.0693 164.559 36.8981 164.293 36.7784C164.026 36.6586 163.739 36.5927 163.447 36.5844C162.862 36.6171 162.313 36.8723 161.911 37.2975C161.509 37.7228 161.285 38.2858 161.285 38.871C161.285 39.4562 161.509 40.0192 161.911 40.4445C162.313 40.8697 162.862 41.1249 163.447 41.1577C163.738 41.1502 164.026 41.0852 164.292 40.9662C164.559 40.8472 164.799 40.6767 164.999 40.4645C165.199 40.2523 165.355 40.0025 165.459 39.7297C165.562 39.4568 165.61 39.1662 165.601 38.8746Z" fill="white"/>
<path d="M174.877 41.4983C174.488 41.798 174.012 41.9619 173.52 41.965C173.256 41.9843 172.991 41.9454 172.743 41.851C172.496 41.7566 172.272 41.609 172.088 41.4187C171.904 41.2283 171.764 40.9998 171.677 40.7493C171.591 40.4988 171.561 40.2325 171.589 39.9691V36.6881H170.318V35.9271H171.589V34.0532H172.501V35.9271H174.59V36.6881H172.501V39.9116C172.481 40.0637 172.494 40.2182 172.54 40.3646C172.586 40.5109 172.663 40.6454 172.767 40.7589C172.87 40.8723 172.996 40.9619 173.138 41.0214C173.279 41.0809 173.432 41.1089 173.585 41.1034C173.944 41.0874 174.29 40.9621 174.576 40.7445L174.877 41.4983Z" fill="white"/>
<path d="M181.389 38.8703C181.396 39.4855 181.221 40.0889 180.884 40.6038C180.547 41.1187 180.065 41.5218 179.498 41.7618C178.932 42.0019 178.307 42.068 177.702 41.9519C177.098 41.8357 176.542 41.5425 176.105 41.1095C175.668 40.6764 175.37 40.1232 175.248 39.5202C175.126 38.9171 175.186 38.2914 175.421 37.7227C175.656 37.154 176.055 36.668 176.566 36.3264C177.078 35.9849 177.68 35.8033 178.295 35.8046C178.701 35.796 179.105 35.8691 179.483 36.0197C179.86 36.1703 180.203 36.3953 180.492 36.6814C180.781 36.9674 181.009 37.3086 181.163 37.6846C181.317 38.0607 181.394 38.4639 181.389 38.8703ZM180.499 38.8703C180.499 38.2819 180.265 37.7176 179.849 37.3016C179.433 36.8855 178.869 36.6518 178.281 36.6518C177.692 36.6518 177.128 36.8855 176.712 37.3016C176.296 37.7176 176.062 38.2819 176.062 38.8703C176.062 39.4586 176.296 40.0229 176.712 40.4389C177.128 40.855 177.692 41.0887 178.281 41.0887C178.869 41.0887 179.433 40.855 179.849 40.4389C180.265 40.0229 180.499 39.4586 180.499 38.8703Z" fill="white"/>
<path d="M185.69 41.8196V33.8289H186.624V41.8196H185.69Z" fill="white"/>
<path d="M194.038 38.2901V41.808H193.134V38.4552C193.16 38.2256 193.138 37.9931 193.068 37.7727C192.999 37.5523 192.884 37.3489 192.731 37.1756C192.578 37.0024 192.391 36.8632 192.18 36.767C191.97 36.6708 191.742 36.6198 191.511 36.6173C190.291 36.6173 189.479 37.4573 189.479 38.9793V41.808H188.582V35.9281H189.479V36.9045C189.721 36.5441 190.052 36.2518 190.439 36.0557C190.826 35.8596 191.257 35.7662 191.691 35.7845C192.015 35.7772 192.337 35.8383 192.635 35.9638C192.934 36.0893 193.203 36.2763 193.424 36.5128C193.646 36.7492 193.815 37.0297 193.921 37.336C194.027 37.6422 194.067 37.9673 194.038 38.2901Z" fill="white"/>
<path d="M199.38 41.4983C198.991 41.798 198.514 41.9619 198.023 41.965C197.759 41.9843 197.494 41.9454 197.246 41.851C196.999 41.7566 196.775 41.609 196.591 41.4187C196.407 41.2283 196.267 40.9998 196.18 40.7493C196.094 40.4988 196.064 40.2325 196.092 39.9691V36.6881H194.821V35.9271H196.092V34.0532H197.004V35.9271H199.093V36.6881H197.004V39.9116C196.984 40.0637 196.997 40.2182 197.043 40.3646C197.089 40.5109 197.166 40.6454 197.27 40.7589C197.373 40.8723 197.499 40.9619 197.641 41.0214C197.782 41.0809 197.935 41.1089 198.088 41.1034C198.447 41.0874 198.793 40.9621 199.079 40.7445L199.38 41.4983Z" fill="white"/>
<path d="M205.605 39.0494H200.579C200.59 39.6021 200.813 40.1295 201.202 40.5224C201.591 40.9153 202.116 41.1437 202.668 41.1601C203.092 41.186 203.512 41.0778 203.871 40.851C204.229 40.6242 204.507 40.2902 204.664 39.8965L205.468 40.0904C205.266 40.663 204.884 41.1549 204.38 41.4926C203.875 41.8303 203.275 41.9957 202.668 41.9642C201.874 41.9193 201.128 41.5703 200.585 40.9897C200.041 40.409 199.742 39.6414 199.749 38.8461C199.757 38.0507 200.07 37.2888 200.624 36.7184C201.179 36.148 201.931 35.8129 202.726 35.7827C203.109 35.7826 203.487 35.859 203.84 36.0073C204.193 36.1557 204.512 36.373 204.78 36.6466C205.047 36.9201 205.257 37.2444 205.398 37.6003C205.538 37.9562 205.606 38.3366 205.598 38.7191L205.605 39.0494ZM200.622 38.3745H204.693C204.657 37.8819 204.433 37.4219 204.069 37.0883C203.705 36.7547 203.227 36.5728 202.733 36.5796C202.224 36.5724 201.729 36.7504 201.34 37.0805C200.952 37.4106 200.697 37.8704 200.622 38.3745Z" fill="white"/>
<path d="M207.039 41.8141V33.1987H207.944V41.8141H207.039Z" fill="white"/>
<path d="M209.913 41.8141V33.1987H210.818V41.8141H209.913Z" fill="white"/>
<path d="M213.962 34.1451C213.963 34.2274 213.947 34.309 213.916 34.385C213.884 34.4609 213.837 34.5296 213.778 34.5867C213.719 34.6439 213.648 34.6884 213.571 34.7173C213.494 34.7463 213.412 34.7593 213.33 34.7554C213.25 34.7573 213.169 34.7429 213.094 34.7129C213.019 34.683 212.951 34.6381 212.894 34.581C212.837 34.5239 212.792 34.4559 212.762 34.3809C212.732 34.306 212.718 34.2258 212.72 34.1451C212.722 33.9845 212.787 33.8311 212.901 33.7182C213.015 33.6053 213.17 33.542 213.33 33.542C213.493 33.5401 213.651 33.6021 213.769 33.7148C213.887 33.8275 213.956 33.982 213.962 34.1451ZM212.885 41.8056V35.9256H213.797V41.8056H212.885Z" fill="white"/>
<path d="M221.291 41.3379C221.291 43.0538 220.114 44.0804 218.348 44.0804C216.912 44.0804 215.943 43.5061 215.476 42.5512L216.237 42.0271C216.417 42.4227 216.715 42.753 217.091 42.9728C217.466 43.1925 217.9 43.291 218.333 43.2548C218.607 43.2749 218.881 43.2361 219.139 43.1409C219.396 43.0458 219.63 42.8965 219.825 42.7032C220.019 42.5099 220.17 42.2771 220.267 42.0205C220.364 41.7639 220.405 41.4895 220.387 41.2158V40.4979C220.125 40.8222 219.79 41.0795 219.409 41.2481C219.028 41.4167 218.613 41.4918 218.197 41.4671C217.788 41.5289 217.371 41.5018 216.973 41.3875C216.576 41.2732 216.208 41.0745 215.895 40.8049C215.581 40.5353 215.33 40.2012 215.157 39.8254C214.985 39.4496 214.896 39.0411 214.896 38.6276C214.896 38.2142 214.985 37.8056 215.157 37.4299C215.33 37.0541 215.581 36.72 215.895 36.4504C216.208 36.1808 216.576 35.9821 216.973 35.8678C217.371 35.7535 217.788 35.7263 218.197 35.7882C218.611 35.7641 219.025 35.8381 219.406 36.004C219.786 36.1699 220.122 36.4231 220.387 36.743V35.9318H221.262L221.291 41.3379ZM220.401 38.6169C220.37 38.0811 220.135 37.5776 219.744 37.2094C219.354 36.8412 218.838 36.6361 218.301 36.6361C217.764 36.6361 217.248 36.8412 216.858 37.2094C216.467 37.5776 216.232 38.0811 216.201 38.6169C216.232 39.1526 216.467 39.6561 216.858 40.0243C217.248 40.3925 217.764 40.5976 218.301 40.5976C218.838 40.5976 219.354 40.3925 219.744 40.0243C220.135 39.6561 220.37 39.1526 220.401 38.6169Z" fill="white"/>
<path d="M228.615 39.0494H223.589C223.6 39.6021 223.823 40.1295 224.212 40.5224C224.601 40.9153 225.126 41.1436 225.678 41.1601C226.1 41.1855 226.52 41.0771 226.877 40.8502C227.234 40.6234 227.511 40.2896 227.667 39.8965L228.471 40.0904C228.271 40.663 227.891 41.1554 227.387 41.4933C226.884 41.8312 226.284 41.9965 225.678 41.9642C224.884 41.9192 224.138 41.5702 223.594 40.9896C223.051 40.409 222.752 39.6414 222.759 38.8461C222.766 38.0507 223.08 37.2888 223.634 36.7184C224.188 36.148 224.941 35.8129 225.736 35.7827C226.118 35.7826 226.497 35.859 226.85 36.0073C227.202 36.1557 227.522 36.373 227.789 36.6466C228.057 36.9201 228.267 37.2444 228.408 37.6003C228.548 37.9562 228.616 38.3366 228.607 38.7191L228.615 39.0494ZM223.632 38.3745H227.703C227.665 37.8826 227.441 37.4235 227.077 37.0903C226.713 36.757 226.236 36.5745 225.743 36.5796C225.233 36.5724 224.738 36.7504 224.35 37.0805C223.962 37.4106 223.707 37.8704 223.632 38.3745Z" fill="white"/>
<path d="M235.507 38.2903V41.8082H234.603V38.4554C234.63 38.2256 234.608 37.9926 234.539 37.7717C234.47 37.5508 234.356 37.347 234.202 37.1735C234.049 37 233.861 36.8608 233.651 36.765C233.44 36.6692 233.211 36.6189 232.98 36.6175C231.76 36.6175 230.955 37.4575 230.955 38.9795V41.8082H230.051V35.9283H230.955V36.9047C231.195 36.5438 231.524 36.2511 231.91 36.0548C232.296 35.8586 232.727 35.7655 233.16 35.7847C233.483 35.7774 233.805 35.8385 234.104 35.964C234.403 36.0895 234.672 36.2765 234.893 36.513C235.115 36.7494 235.284 37.0299 235.39 37.3362C235.496 37.6424 235.535 37.9675 235.507 38.2903Z" fill="white"/>
<path d="M241.783 39.7899L242.616 40.0196C242.436 40.6047 242.067 41.1135 241.567 41.4658C241.066 41.818 240.463 41.9938 239.852 41.9653C239.058 41.927 238.309 41.5847 237.76 41.0092C237.212 40.4338 236.906 39.6694 236.906 38.8745C236.906 38.0796 237.212 37.3153 237.76 36.7398C238.309 36.1644 239.058 35.8221 239.852 35.7838C240.465 35.7651 241.067 35.9462 241.568 36.2997C242.069 36.6532 242.442 37.16 242.63 37.7438L241.761 38.0022C241.645 37.5901 241.394 37.2291 241.047 36.9776C240.701 36.7262 240.279 36.599 239.852 36.6166C239.56 36.6163 239.272 36.6751 239.003 36.7896C238.735 36.9041 238.493 37.0718 238.292 37.2825C238.091 37.4933 237.934 37.7428 237.832 38.0158C237.73 38.2888 237.684 38.5798 237.698 38.8709C237.685 39.1615 237.732 39.4517 237.834 39.7239C237.937 39.996 238.093 40.2446 238.295 40.4546C238.496 40.6646 238.738 40.8317 239.005 40.9457C239.273 41.0597 239.561 41.1184 239.852 41.1181C240.275 41.1403 240.694 41.0222 241.043 40.782C241.392 40.5418 241.652 40.1931 241.783 39.7899Z" fill="white"/>
<path d="M249.413 39.0494H244.388C244.399 39.6021 244.622 40.1295 245.01 40.5224C245.399 40.9153 245.924 41.1437 246.477 41.1601C246.9 41.1867 247.32 41.0787 247.677 40.8517C248.034 40.6246 248.31 40.2903 248.466 39.8965L249.277 40.0904C249.075 40.663 248.693 41.1549 248.188 41.4926C247.684 41.8303 247.083 41.9957 246.477 41.9642C245.683 41.9193 244.937 41.5703 244.393 40.9897C243.85 40.409 243.55 39.6414 243.558 38.8461C243.565 38.0507 243.878 37.2888 244.433 36.7184C244.987 36.148 245.74 35.8129 246.535 35.7827C246.917 35.7826 247.296 35.859 247.649 36.0073C248.001 36.1557 248.321 36.373 248.588 36.6466C248.856 36.9201 249.066 37.2444 249.206 37.6003C249.347 37.9562 249.415 38.3366 249.406 38.7191L249.413 39.0494ZM244.431 38.3745H248.502C248.465 37.8819 248.242 37.4219 247.878 37.0883C247.513 36.7547 247.035 36.5728 246.542 36.5796C246.032 36.5724 245.537 36.7504 245.149 37.0805C244.761 37.4106 244.506 37.8704 244.431 38.3745Z" fill="white"/>
<defs>
<linearGradient id="paint0_linear_1011_25596" x1="92.8741" y1="30.7249" x2="92.8741" y2="3.32098" gradientUnits="userSpaceOnUse">
<stop stop-color="#F607FF"/>
<stop offset="0.04" stop-color="#E211FE"/>
<stop offset="0.13" stop-color="#B727FB"/>
<stop offset="0.22" stop-color="#9639F8"/>
<stop offset="0.31" stop-color="#7E45F6"/>
<stop offset="0.38" stop-color="#6F4CF5"/>
<stop offset="0.45" stop-color="#6A4FF5"/>
<stop offset="0.55" stop-color="#5C6EF3"/>
<stop offset="0.76" stop-color="#40AEEF"/>
<stop offset="0.92" stop-color="#2FD6EC"/>
<stop offset="1" stop-color="#28E5EB"/>
</linearGradient>
<linearGradient id="paint1_linear_1011_25596" x1="95.4431" y1="30.7068" x2="95.4431" y2="3.31009" gradientUnits="userSpaceOnUse">
<stop stop-color="#F607FF"/>
<stop offset="0.04" stop-color="#E211FE"/>
<stop offset="0.13" stop-color="#B727FB"/>
<stop offset="0.22" stop-color="#9639F8"/>
<stop offset="0.31" stop-color="#7E45F6"/>
<stop offset="0.38" stop-color="#6F4CF5"/>
<stop offset="0.45" stop-color="#6A4FF5"/>
<stop offset="0.55" stop-color="#5C6EF3"/>
<stop offset="0.76" stop-color="#40AEEF"/>
<stop offset="0.92" stop-color="#2FD6EC"/>
<stop offset="1" stop-color="#28E5EB"/>
</linearGradient>
<linearGradient id="paint2_linear_1011_25596" x1="76.5553" y1="30.7137" x2="76.5553" y2="3.3169" gradientUnits="userSpaceOnUse">
<stop stop-color="#F607FF"/>
<stop offset="0.04" stop-color="#E211FE"/>
<stop offset="0.13" stop-color="#B727FB"/>
<stop offset="0.22" stop-color="#9639F8"/>
<stop offset="0.31" stop-color="#7E45F6"/>
<stop offset="0.38" stop-color="#6F4CF5"/>
<stop offset="0.45" stop-color="#6A4FF5"/>
<stop offset="0.55" stop-color="#5C6EF3"/>
<stop offset="0.76" stop-color="#40AEEF"/>
<stop offset="0.92" stop-color="#2FD6EC"/>
<stop offset="1" stop-color="#28E5EB"/>
</linearGradient>
<linearGradient id="paint3_linear_1011_25596" x1="90.3026" y1="30.7047" x2="90.3026" y2="3.30795" gradientUnits="userSpaceOnUse">
<stop stop-color="#F607FF"/>
<stop offset="0.04" stop-color="#E211FE"/>
<stop offset="0.13" stop-color="#B727FB"/>
<stop offset="0.22" stop-color="#9639F8"/>
<stop offset="0.31" stop-color="#7E45F6"/>
<stop offset="0.38" stop-color="#6F4CF5"/>
<stop offset="0.45" stop-color="#6A4FF5"/>
<stop offset="0.55" stop-color="#5C6EF3"/>
<stop offset="0.76" stop-color="#40AEEF"/>
<stop offset="0.92" stop-color="#2FD6EC"/>
<stop offset="1" stop-color="#28E5EB"/>
</linearGradient>
<linearGradient id="paint4_linear_1011_25596" x1="109.199" y1="30.7137" x2="109.199" y2="3.3169" gradientUnits="userSpaceOnUse">
<stop stop-color="#F607FF"/>
<stop offset="0.04" stop-color="#E211FE"/>
<stop offset="0.13" stop-color="#B727FB"/>
<stop offset="0.22" stop-color="#9639F8"/>
<stop offset="0.31" stop-color="#7E45F6"/>
<stop offset="0.38" stop-color="#6F4CF5"/>
<stop offset="0.45" stop-color="#6A4FF5"/>
<stop offset="0.55" stop-color="#5C6EF3"/>
<stop offset="0.76" stop-color="#40AEEF"/>
<stop offset="0.92" stop-color="#2FD6EC"/>
<stop offset="1" stop-color="#28E5EB"/>
</linearGradient>
</defs>
</svg>
