<svg width="549" height="157" viewBox="0 0 549 157" fill="none" xmlns="http://www.w3.org/2000/svg">
<g filter="url(#filter0_d_1285_1993)">
<path d="M213.412 80.1699L207.657 86.4167L213.412 92.6772L219.181 86.4167L213.412 80.1699Z" fill="url(#paint0_linear_1285_1993)"/>
<path d="M232.642 75.9803C231.454 75.9387 230.285 75.6624 229.204 75.1675C228.122 74.6725 227.149 73.9685 226.341 73.0961L200.041 44.473C199.438 43.816 198.705 43.291 197.889 42.9311C197.072 42.5712 196.19 42.3841 195.298 42.3816H186.605L220.094 78.7552C222.404 81.3763 225.459 83.2308 228.85 84.0715C232.241 84.9122 235.808 84.6991 239.075 83.4606C242.342 82.2221 245.154 80.0171 247.135 77.1397C249.117 74.2622 250.174 70.8489 250.166 67.3551V47.4392L241.691 55.1349V67.6285C241.663 68.766 241.409 69.8866 240.943 70.9248C240.478 71.963 239.81 72.8981 238.979 73.6755C238.148 74.4529 237.171 75.0571 236.104 75.4528C235.037 75.8486 233.902 76.0278 232.765 75.9803H232.642Z" fill="url(#paint1_linear_1285_1993)"/>
<path d="M167.346 33.1953H158.652L200.042 78.1122L206.043 72.1114L172.13 35.2867C171.52 34.6266 170.78 34.1 169.957 33.7401C169.134 33.3801 168.244 33.1946 167.346 33.1953Z" fill="url(#paint2_linear_1285_1993)"/>
<path d="M231.602 42.3367C230.708 42.3381 229.824 42.5247 229.005 42.8846C228.186 43.2445 227.451 43.77 226.845 44.428L200.478 73.0923C199.669 73.9646 198.696 74.6686 197.615 75.1636C196.534 75.6586 195.365 75.9348 194.176 75.9764C193.039 76.024 191.904 75.8447 190.838 75.4489C189.771 75.0532 188.793 74.449 187.963 73.6716C187.132 72.8942 186.464 71.9591 185.998 70.9209C185.533 69.8827 185.278 68.7621 185.25 67.6246V55.131L176.775 47.4353V67.3512C176.76 70.8484 177.813 74.267 179.794 77.1494C181.774 80.0318 184.588 82.2406 187.858 83.4803C191.128 84.72 194.699 84.9314 198.093 84.0863C201.486 83.2412 204.541 81.3799 206.848 78.7513L240.282 42.3367H231.602Z" fill="url(#paint3_linear_1285_1993)"/>
<path d="M259.474 33.1953C258.582 33.1978 257.7 33.3849 256.884 33.7449C256.068 34.1048 255.335 34.6297 254.731 35.2867L220.818 72.0978L226.819 78.0985L268.168 33.1953H259.474Z" fill="url(#paint4_linear_1285_1993)"/>
<path d="M71.8524 40.4763H63.5143L45.1293 59.1347H43.2976V40.4763H36.5861V83.5752H43.2976V65.4362H45.6214L64.1431 83.5752H73.233L50.8293 62.0873L71.8524 40.4763Z" fill="black"/>
<path d="M146.73 39.6348C134.428 39.6348 124.859 49.5997 124.859 62.1479C124.972 66.4637 126.356 70.6502 128.838 74.1831C131.319 77.7161 134.787 80.4384 138.809 82.0091C142.83 83.5799 147.226 83.9292 151.445 83.0134C155.664 82.0976 159.519 79.9574 162.527 76.8608C165.535 73.7641 167.563 69.8488 168.356 65.605C169.149 61.3613 168.673 56.9778 166.987 53.0036C165.3 49.0294 162.479 45.641 158.875 43.263C155.272 40.885 151.047 39.6229 146.73 39.6348ZM146.73 78.0451C138.255 78.0451 131.612 71.2106 131.612 62.1479C131.612 53.0853 138.255 46.1277 146.73 46.1277C155.205 46.1277 161.916 52.9623 161.916 62.1479C161.916 71.3336 155.246 78.0041 146.73 78.0041V78.0451Z" fill="black"/>
<path d="M270.668 40.4763H263.956V83.5752H293.632V77.3421H270.668V40.4763Z" fill="black"/>
<path d="M355.513 40.4763H340.833V83.5752H355.527C369.825 83.5752 378.765 74.5672 378.765 62.0326C378.765 49.498 369.811 40.4763 355.513 40.4763ZM355.513 77.3831H347.531V46.7641H355.513C365.738 46.7641 371.916 53.134 371.916 62.0873C371.916 71.0406 365.738 77.3284 355.513 77.3284V77.3831Z" fill="black"/>
<path d="M442.668 65.3405H465.331V59.1757H442.668V46.7231H467.204V40.4763H435.956V83.5752H467.272V77.3421H442.668V65.3405Z" fill="black"/>
<path d="M307.63 65.3405H330.28V59.1757H307.63V46.7231H332.166V40.4763H300.918V83.5752H332.234V77.3421H307.63V65.3405Z" fill="black"/>
<path d="M497.88 65.1946C505.193 64.4564 509.731 59.7269 509.731 52.8923C509.731 45.5656 504.4 40.5217 495.925 40.5217H475.872V83.6206H482.584V65.3313H490.334L503.662 83.5796H511.453L497.88 65.1946ZM482.584 59.1665V46.7139H496.034C500.408 46.7139 503.019 49.311 503.019 52.9197C503.019 56.5283 500.408 59.1665 496.034 59.1665H482.584Z" fill="black"/>
<path d="M110.374 73.0499L86.0705 40.4763H79.0173V83.5752H85.7835V50.9742L110.128 83.5752H117.1V40.4763H110.374V73.0499Z" fill="black"/>
<path d="M404.708 59.1775V65.4517H421.398C420.141 72.915 414.687 77.9999 406.964 77.9999C398.243 77.9999 391.531 71.1653 391.531 62.048C391.531 52.9307 398.12 46.0825 406.567 46.0825C409.038 45.9613 411.499 46.4712 413.718 47.5641C415.937 48.657 417.842 50.2969 419.252 52.3293H426.593C423.585 44.0321 415.548 39.5896 406.567 39.5896C400.708 39.757 395.146 42.2087 391.07 46.4211C386.993 50.6336 384.725 56.2728 384.75 62.1346C384.775 67.9964 387.091 73.6161 391.203 77.7936C395.316 81.9711 400.898 84.3753 406.759 84.4928C419.252 84.4928 427.973 74.774 427.973 62.1027C427.973 61.3372 427.973 60.3257 427.85 59.1775H404.708Z" fill="black"/>
<path d="M277.302 107.543L279.011 107.953C278.559 109.494 277.604 110.839 276.299 111.773C274.993 112.708 273.411 113.177 271.807 113.106C269.766 113.021 267.838 112.151 266.424 110.677C265.011 109.204 264.221 107.241 264.221 105.199C264.221 103.156 265.011 101.193 266.424 99.7197C267.838 98.246 269.766 97.3758 271.807 97.291C273.396 97.2207 274.963 97.677 276.266 98.5891C277.568 99.5012 278.533 100.818 279.011 102.335L277.302 102.841C276.948 101.681 276.219 100.672 275.23 99.9713C274.24 99.271 273.045 98.9196 271.834 98.9723C270.233 99.0473 268.723 99.7361 267.616 100.895C266.51 102.055 265.893 103.596 265.893 105.199C265.893 106.801 266.51 108.342 267.616 109.502C268.723 110.661 270.233 111.35 271.834 111.425C273.047 111.477 274.243 111.123 275.233 110.42C276.223 109.718 276.951 108.705 277.302 107.543Z" fill="black"/>
<path d="M292.417 106.109V112.807H290.694V106.423C290.744 105.986 290.701 105.543 290.569 105.124C290.437 104.704 290.219 104.317 289.927 103.987C289.636 103.657 289.279 103.392 288.879 103.209C288.479 103.026 288.045 102.929 287.605 102.924C285.281 102.924 283.737 104.523 283.737 107.421V112.807H282.055V96.4036H283.764V103.416C284.223 102.729 284.852 102.172 285.59 101.798C286.327 101.425 287.148 101.247 287.974 101.283C288.594 101.273 289.208 101.393 289.778 101.637C290.348 101.881 290.859 102.243 291.279 102.699C291.698 103.154 292.017 103.694 292.213 104.282C292.409 104.87 292.478 105.492 292.417 106.109Z" fill="black"/>
<path d="M306.482 112.794H304.773V111.017C304.247 111.683 303.573 112.218 302.804 112.578C302.035 112.939 301.193 113.116 300.344 113.094C298.833 113.022 297.407 112.37 296.363 111.274C295.319 110.179 294.737 108.723 294.737 107.21C294.737 105.696 295.319 104.241 296.363 103.146C297.407 102.05 298.833 101.398 300.344 101.325C301.192 101.302 302.033 101.477 302.802 101.835C303.571 102.193 304.246 102.725 304.773 103.389V101.599H306.482V112.794ZM304.773 107.203C304.791 106.647 304.7 106.093 304.503 105.573C304.307 105.053 304.01 104.576 303.629 104.171C303.248 103.766 302.79 103.44 302.283 103.212C301.776 102.984 301.228 102.858 300.672 102.843C299.56 102.905 298.513 103.391 297.748 104.2C296.982 105.01 296.556 106.082 296.556 107.196C296.556 108.31 296.982 109.382 297.748 110.192C298.513 111.002 299.56 111.487 300.672 111.55C301.228 111.536 301.775 111.412 302.282 111.185C302.789 110.959 303.246 110.634 303.628 110.23C304.009 109.826 304.306 109.351 304.503 108.831C304.699 108.311 304.791 107.758 304.773 107.203Z" fill="black"/>
<path d="M312.47 98.2052C312.472 98.3606 312.442 98.5148 312.383 98.6585C312.323 98.8021 312.235 98.9322 312.124 99.0409C312.013 99.1495 311.881 99.2344 311.736 99.2905C311.591 99.3466 311.436 99.3726 311.28 99.3671C311.126 99.3727 310.971 99.3466 310.827 99.2904C310.683 99.2342 310.552 99.149 310.442 99.0402C310.331 98.9313 310.245 98.8011 310.187 98.6575C310.129 98.5139 310.101 98.36 310.105 98.2052C310.107 98.0526 310.139 97.9019 310.199 97.7616C310.259 97.6213 310.346 97.4942 310.455 97.3876C310.564 97.281 310.693 97.1969 310.835 97.1401C310.976 97.0834 311.128 97.0552 311.28 97.057C311.59 97.0533 311.888 97.1718 312.111 97.3867C312.334 97.6017 312.463 97.8958 312.47 98.2052ZM310.419 112.79V101.595H312.128V112.79H310.419Z" fill="black"/>
<path d="M326.481 106.098V112.796H324.759V106.412C324.809 105.975 324.766 105.532 324.634 105.113C324.502 104.693 324.283 104.306 323.992 103.976C323.701 103.646 323.344 103.381 322.944 103.198C322.544 103.015 322.11 102.918 321.67 102.913C319.346 102.913 317.815 104.512 317.815 107.41V112.796H316.093V101.601H317.815V103.46C318.271 102.773 318.898 102.215 319.633 101.842C320.368 101.468 321.187 101.291 322.011 101.327C322.628 101.313 323.241 101.43 323.81 101.669C324.378 101.907 324.89 102.264 325.312 102.714C325.734 103.164 326.056 103.698 326.258 104.281C326.459 104.864 326.535 105.483 326.481 106.098Z" fill="black"/>
<path d="M340.165 107.543H330.596C330.617 108.593 331.039 109.595 331.777 110.343C332.514 111.09 333.511 111.527 334.56 111.561C335.366 111.611 336.167 111.405 336.849 110.973C337.531 110.541 338.06 109.905 338.36 109.156L339.891 109.525C339.508 110.616 338.782 111.554 337.821 112.197C336.859 112.841 335.715 113.155 334.56 113.092C333.048 113.005 331.628 112.339 330.594 111.233C329.56 110.126 328.992 108.664 329.008 107.149C329.024 105.635 329.622 104.184 330.679 103.1C331.736 102.015 333.17 101.379 334.683 101.323C335.412 101.323 336.133 101.468 336.805 101.751C337.476 102.033 338.084 102.447 338.594 102.968C339.103 103.489 339.503 104.106 339.771 104.784C340.038 105.461 340.167 106.186 340.151 106.914L340.165 107.543ZM330.692 106.258H338.429C338.362 105.321 337.94 104.445 337.249 103.81C336.558 103.175 335.65 102.828 334.711 102.841C333.741 102.827 332.798 103.166 332.059 103.794C331.32 104.423 330.834 105.298 330.692 106.258Z" fill="black"/>
<path d="M353.586 112.801H351.878V111.024C351.351 111.69 350.677 112.225 349.908 112.586C349.14 112.946 348.298 113.123 347.449 113.101C345.937 113.029 344.512 112.377 343.468 111.281C342.423 110.186 341.841 108.73 341.841 107.217C341.841 105.703 342.423 104.248 343.468 103.153C344.512 102.057 345.937 101.405 347.449 101.332C348.297 101.309 349.138 101.484 349.907 101.842C350.675 102.2 351.35 102.732 351.878 103.396V96.4524H353.586V112.801ZM351.878 107.21C351.896 106.654 351.804 106.1 351.608 105.58C351.411 105.06 351.114 104.583 350.733 104.178C350.352 103.773 349.895 103.447 349.387 103.219C348.88 102.991 348.333 102.865 347.777 102.85C346.664 102.912 345.618 103.398 344.852 104.207C344.087 105.017 343.66 106.089 343.66 107.203C343.66 108.317 344.087 109.389 344.852 110.199C345.618 111.009 346.664 111.494 347.777 111.557C348.332 111.543 348.879 111.419 349.386 111.192C349.894 110.966 350.351 110.641 350.732 110.237C351.113 109.833 351.411 109.358 351.607 108.838C351.804 108.319 351.896 107.765 351.878 107.21Z" fill="black"/>
<path d="M369.54 112.205C368.799 112.776 367.891 113.088 366.956 113.094C366.453 113.131 365.948 113.056 365.477 112.877C365.006 112.697 364.58 112.416 364.229 112.054C363.878 111.691 363.611 111.256 363.447 110.779C363.283 110.302 363.226 109.795 363.279 109.294V103.047H360.86V101.598H363.279V98.0303H365.015V101.598H368.993V103.047H365.015V109.184C364.977 109.474 365.003 109.768 365.09 110.047C365.178 110.325 365.325 110.581 365.521 110.797C365.718 111.013 365.959 111.184 366.228 111.297C366.497 111.411 366.787 111.464 367.079 111.453C367.763 111.423 368.421 111.184 368.965 110.77L369.54 112.205Z" fill="black"/>
<path d="M381.938 107.202C381.952 108.373 381.617 109.522 380.976 110.502C380.335 111.483 379.416 112.25 378.338 112.707C377.259 113.164 376.069 113.29 374.919 113.069C373.768 112.848 372.71 112.29 371.878 111.465C371.045 110.641 370.477 109.587 370.245 108.439C370.014 107.291 370.128 106.1 370.575 105.017C371.022 103.934 371.781 103.009 372.755 102.359C373.73 101.708 374.876 101.362 376.047 101.365C376.821 101.349 377.59 101.488 378.308 101.775C379.027 102.061 379.68 102.49 380.23 103.034C380.78 103.579 381.214 104.228 381.508 104.944C381.801 105.66 381.948 106.428 381.938 107.202ZM380.243 107.202C380.243 106.082 379.798 105.007 379.006 104.215C378.214 103.423 377.14 102.978 376.02 102.978C374.899 102.978 373.825 103.423 373.033 104.215C372.241 105.007 371.796 106.082 371.796 107.202C371.796 108.322 372.241 109.396 373.033 110.188C373.825 110.981 374.899 111.426 376.02 111.426C377.14 111.426 378.214 110.981 379.006 110.188C379.798 109.396 380.243 108.322 380.243 107.202Z" fill="black"/>
<path d="M390.127 112.817V97.603H391.904V112.817H390.127Z" fill="black"/>
<path d="M406.022 106.097V112.795H404.3V106.412C404.35 105.975 404.307 105.532 404.175 105.112C404.043 104.693 403.825 104.305 403.533 103.975C403.242 103.646 402.885 103.381 402.485 103.197C402.085 103.014 401.651 102.917 401.211 102.912C398.887 102.912 397.343 104.512 397.343 107.41V112.795H395.634V101.6H397.343V103.459C397.803 102.773 398.432 102.217 399.169 101.843C399.906 101.47 400.727 101.292 401.553 101.327C402.17 101.313 402.782 101.429 403.351 101.668C403.92 101.907 404.432 102.263 404.853 102.713C405.275 103.164 405.597 103.698 405.799 104.281C406 104.864 406.076 105.483 406.022 106.097Z" fill="black"/>
<path d="M416.192 112.205C415.451 112.776 414.543 113.088 413.608 113.094C413.105 113.131 412.6 113.056 412.129 112.877C411.658 112.697 411.232 112.416 410.881 112.054C410.53 111.691 410.263 111.256 410.099 110.779C409.935 110.302 409.878 109.795 409.931 109.294V103.047H407.512V101.598H409.931V98.0303H411.667V101.598H415.645V103.047H411.667V109.184C411.629 109.474 411.655 109.768 411.742 110.047C411.829 110.325 411.977 110.581 412.173 110.797C412.37 111.013 412.611 111.184 412.88 111.297C413.149 111.411 413.439 111.464 413.731 111.453C414.415 111.423 415.073 111.184 415.617 110.77L416.192 112.205Z" fill="black"/>
<path d="M428.044 107.543H418.476C418.496 108.595 418.92 109.599 419.661 110.347C420.401 111.095 421.401 111.53 422.453 111.561C423.259 111.611 424.06 111.405 424.742 110.973C425.424 110.541 425.953 109.905 426.253 109.156L427.784 109.525C427.399 110.615 426.672 111.551 425.712 112.194C424.751 112.837 423.608 113.152 422.453 113.092C420.941 113.007 419.521 112.342 418.486 111.237C417.451 110.131 416.881 108.67 416.895 107.156C416.909 105.641 417.506 104.191 418.561 103.105C419.616 102.019 421.049 101.381 422.563 101.323C423.291 101.323 424.012 101.468 424.684 101.751C425.355 102.033 425.964 102.447 426.473 102.968C426.982 103.489 427.382 104.106 427.65 104.784C427.917 105.461 428.047 106.186 428.03 106.914L428.044 107.543ZM418.557 106.258H426.308C426.238 105.32 425.813 104.444 425.12 103.809C424.426 103.174 423.517 102.828 422.576 102.841C421.606 102.827 420.664 103.166 419.925 103.794C419.186 104.423 418.7 105.298 418.557 106.258Z" fill="black"/>
<path d="M430.775 112.807V96.4036H432.497V112.807H430.775Z" fill="black"/>
<path d="M436.245 112.807V96.4036H437.968V112.807H436.245Z" fill="black"/>
<path d="M443.955 98.2052C443.957 98.3618 443.928 98.5172 443.867 98.6618C443.807 98.8064 443.718 98.9372 443.605 99.046C443.492 99.1549 443.359 99.2395 443.212 99.2947C443.065 99.3499 442.909 99.3745 442.753 99.3671C442.599 99.3708 442.446 99.3433 442.304 99.2863C442.161 99.2292 442.031 99.1437 441.923 99.0351C441.814 98.9264 441.729 98.7969 441.672 98.6542C441.615 98.5115 441.587 98.3588 441.591 98.2052C441.594 97.8994 441.718 97.6074 441.936 97.3924C442.153 97.1775 442.447 97.057 442.753 97.057C443.063 97.0532 443.363 97.1713 443.588 97.3859C443.813 97.6005 443.945 97.8946 443.955 98.2052ZM441.905 112.79V101.595H443.641V112.79H441.905Z" fill="black"/>
<path d="M457.909 111.9C457.909 115.167 455.667 117.121 452.304 117.121C449.57 117.121 447.725 116.028 446.837 114.21L448.285 113.212C448.629 113.965 449.197 114.594 449.911 115.012C450.626 115.431 451.452 115.618 452.277 115.549C452.798 115.588 453.321 115.514 453.811 115.333C454.3 115.151 454.746 114.867 455.116 114.499C455.487 114.131 455.774 113.688 455.959 113.199C456.143 112.711 456.221 112.188 456.186 111.667V110.3C455.689 110.918 455.051 111.408 454.325 111.729C453.6 112.05 452.809 112.193 452.017 112.146C451.239 112.264 450.444 112.212 449.688 111.994C448.931 111.777 448.231 111.398 447.634 110.885C447.037 110.372 446.558 109.736 446.23 109.02C445.902 108.305 445.732 107.527 445.732 106.74C445.732 105.952 445.902 105.175 446.23 104.459C446.558 103.744 447.037 103.108 447.634 102.594C448.231 102.081 448.931 101.703 449.688 101.485C450.444 101.267 451.239 101.216 452.017 101.333C452.806 101.288 453.595 101.429 454.319 101.744C455.043 102.06 455.683 102.542 456.186 103.151V101.607H457.854L457.909 111.9ZM456.214 106.719C456.154 105.699 455.707 104.741 454.963 104.039C454.22 103.338 453.237 102.948 452.215 102.948C451.194 102.948 450.211 103.338 449.467 104.039C448.724 104.741 448.277 105.699 448.217 106.719C448.277 107.739 448.724 108.698 449.467 109.399C450.211 110.1 451.194 110.49 452.215 110.49C453.237 110.49 454.22 110.1 454.963 109.399C455.707 108.698 456.154 107.739 456.214 106.719Z" fill="black"/>
<path d="M471.852 107.543H462.283C462.304 108.595 462.728 109.599 463.469 110.347C464.209 111.095 465.209 111.53 466.261 111.561C467.065 111.61 467.864 111.403 468.544 110.971C469.224 110.539 469.75 109.904 470.047 109.156L471.578 109.525C471.198 110.615 470.474 111.552 469.515 112.196C468.556 112.839 467.414 113.154 466.261 113.092C464.749 113.007 463.328 112.342 462.293 111.237C461.258 110.131 460.689 108.67 460.703 107.156C460.717 105.641 461.314 104.191 462.369 103.105C463.424 102.019 464.857 101.381 466.37 101.323C467.099 101.323 467.82 101.468 468.492 101.751C469.163 102.033 469.771 102.447 470.281 102.968C470.79 103.489 471.19 104.106 471.458 104.784C471.725 105.461 471.854 106.186 471.838 106.914L471.852 107.543ZM462.365 106.258H470.116C470.043 105.321 469.617 104.447 468.924 103.813C468.232 103.178 467.323 102.831 466.384 102.841C465.414 102.827 464.472 103.166 463.733 103.794C462.994 104.423 462.508 105.298 462.365 106.258Z" fill="black"/>
<path d="M484.975 106.098V112.796H483.252V106.412C483.304 105.975 483.263 105.531 483.132 105.11C483.001 104.69 482.782 104.302 482.491 103.971C482.199 103.641 481.841 103.376 481.44 103.194C481.039 103.011 480.604 102.916 480.163 102.913C477.839 102.913 476.308 104.512 476.308 107.41V112.796H474.586V101.601H476.308V103.46C476.765 102.773 477.391 102.215 478.126 101.842C478.861 101.468 479.681 101.291 480.505 101.327C481.122 101.313 481.734 101.43 482.303 101.669C482.872 101.907 483.384 102.264 483.806 102.714C484.227 103.164 484.55 103.698 484.751 104.281C484.952 104.864 485.029 105.483 484.975 106.098Z" fill="black"/>
<path d="M496.923 108.952L498.509 109.39C498.167 110.504 497.465 111.472 496.512 112.143C495.559 112.814 494.41 113.148 493.247 113.094C491.735 113.021 490.309 112.369 489.265 111.274C488.221 110.178 487.639 108.723 487.639 107.21C487.639 105.696 488.221 104.241 489.265 103.145C490.309 102.05 491.735 101.398 493.247 101.325C494.414 101.289 495.561 101.634 496.515 102.307C497.469 102.98 498.178 103.945 498.536 105.057L496.883 105.549C496.662 104.764 496.183 104.077 495.523 103.598C494.863 103.119 494.061 102.877 493.247 102.911C492.691 102.91 492.142 103.022 491.632 103.24C491.121 103.458 490.66 103.777 490.277 104.179C489.894 104.58 489.596 105.055 489.401 105.575C489.207 106.094 489.12 106.648 489.146 107.203C489.122 107.756 489.21 108.308 489.405 108.827C489.601 109.345 489.899 109.818 490.282 110.218C490.665 110.618 491.126 110.936 491.635 111.153C492.145 111.37 492.693 111.482 493.247 111.481C494.052 111.523 494.85 111.299 495.514 110.841C496.179 110.384 496.675 109.72 496.923 108.952Z" fill="black"/>
<path d="M511.452 107.543H501.883C501.904 108.595 502.328 109.599 503.069 110.347C503.809 111.095 504.809 111.53 505.861 111.561C506.665 111.612 507.465 111.406 508.145 110.974C508.826 110.542 509.351 109.905 509.647 109.156L511.192 109.525C510.807 110.615 510.08 111.551 509.119 112.194C508.158 112.837 507.016 113.152 505.861 113.092C504.349 113.007 502.928 112.342 501.893 111.237C500.858 110.131 500.289 108.67 500.303 107.156C500.317 105.641 500.914 104.191 501.969 103.105C503.024 102.019 504.457 101.381 505.97 101.323C506.699 101.323 507.42 101.468 508.092 101.751C508.763 102.033 509.371 102.447 509.881 102.968C510.39 103.489 510.79 104.106 511.058 104.784C511.325 105.461 511.455 106.186 511.438 106.914L511.452 107.543ZM501.965 106.258H509.716C509.646 105.32 509.221 104.444 508.528 103.809C507.834 103.174 506.924 102.828 505.984 102.841C505.014 102.827 504.072 103.166 503.333 103.794C502.593 104.423 502.108 105.298 501.965 106.258Z" fill="black"/>
</g>
<defs>
<filter id="filter0_d_1285_1993" x="-35.773" y="-11.5209" width="619.585" height="179.863" filterUnits="userSpaceOnUse" color-interpolation-filters="sRGB">
<feFlood flood-opacity="0" result="BackgroundImageFix"/>
<feColorMatrix in="SourceAlpha" type="matrix" values="0 0 0 0 0 0 0 0 0 0 0 0 0 0 0 0 0 0 127 0" result="hardAlpha"/>
<feOffset dy="3.25209"/>
<feGaussianBlur stdDeviation="17.8865"/>
<feComposite in2="hardAlpha" operator="out"/>
<feColorMatrix type="matrix" values="0 0 0 0 0 0 0 0 0 0 0 0 0 0 0 0 0 0 0.05 0"/>
<feBlend mode="normal" in2="BackgroundImageFix" result="effect1_dropShadow_1285_1993"/>
<feBlend mode="normal" in="SourceGraphic" in2="effect1_dropShadow_1285_1993" result="shape"/>
</filter>
<linearGradient id="paint0_linear_1285_1993" x1="213.412" y1="91.693" x2="213.412" y2="39.5179" gradientUnits="userSpaceOnUse">
<stop stop-color="#F607FF"/>
<stop offset="0.04" stop-color="#E211FE"/>
<stop offset="0.13" stop-color="#B727FB"/>
<stop offset="0.22" stop-color="#9639F8"/>
<stop offset="0.31" stop-color="#7E45F6"/>
<stop offset="0.38" stop-color="#6F4CF5"/>
<stop offset="0.45" stop-color="#6A4FF5"/>
<stop offset="0.55" stop-color="#5C6EF3"/>
<stop offset="0.76" stop-color="#40AEEF"/>
<stop offset="0.92" stop-color="#2FD6EC"/>
<stop offset="1" stop-color="#28E5EB"/>
</linearGradient>
<linearGradient id="paint1_linear_1285_1993" x1="218.303" y1="91.6588" x2="218.303" y2="39.4974" gradientUnits="userSpaceOnUse">
<stop stop-color="#F607FF"/>
<stop offset="0.04" stop-color="#E211FE"/>
<stop offset="0.13" stop-color="#B727FB"/>
<stop offset="0.22" stop-color="#9639F8"/>
<stop offset="0.31" stop-color="#7E45F6"/>
<stop offset="0.38" stop-color="#6F4CF5"/>
<stop offset="0.45" stop-color="#6A4FF5"/>
<stop offset="0.55" stop-color="#5C6EF3"/>
<stop offset="0.76" stop-color="#40AEEF"/>
<stop offset="0.92" stop-color="#2FD6EC"/>
<stop offset="1" stop-color="#28E5EB"/>
</linearGradient>
<linearGradient id="paint2_linear_1285_1993" x1="182.341" y1="91.672" x2="182.341" y2="39.5105" gradientUnits="userSpaceOnUse">
<stop stop-color="#F607FF"/>
<stop offset="0.04" stop-color="#E211FE"/>
<stop offset="0.13" stop-color="#B727FB"/>
<stop offset="0.22" stop-color="#9639F8"/>
<stop offset="0.31" stop-color="#7E45F6"/>
<stop offset="0.38" stop-color="#6F4CF5"/>
<stop offset="0.45" stop-color="#6A4FF5"/>
<stop offset="0.55" stop-color="#5C6EF3"/>
<stop offset="0.76" stop-color="#40AEEF"/>
<stop offset="0.92" stop-color="#2FD6EC"/>
<stop offset="1" stop-color="#28E5EB"/>
</linearGradient>
<linearGradient id="paint3_linear_1285_1993" x1="208.515" y1="91.655" x2="208.515" y2="39.4935" gradientUnits="userSpaceOnUse">
<stop stop-color="#F607FF"/>
<stop offset="0.04" stop-color="#E211FE"/>
<stop offset="0.13" stop-color="#B727FB"/>
<stop offset="0.22" stop-color="#9639F8"/>
<stop offset="0.31" stop-color="#7E45F6"/>
<stop offset="0.38" stop-color="#6F4CF5"/>
<stop offset="0.45" stop-color="#6A4FF5"/>
<stop offset="0.55" stop-color="#5C6EF3"/>
<stop offset="0.76" stop-color="#40AEEF"/>
<stop offset="0.92" stop-color="#2FD6EC"/>
<stop offset="1" stop-color="#28E5EB"/>
</linearGradient>
<linearGradient id="paint4_linear_1285_1993" x1="244.493" y1="91.672" x2="244.493" y2="39.5105" gradientUnits="userSpaceOnUse">
<stop stop-color="#F607FF"/>
<stop offset="0.04" stop-color="#E211FE"/>
<stop offset="0.13" stop-color="#B727FB"/>
<stop offset="0.22" stop-color="#9639F8"/>
<stop offset="0.31" stop-color="#7E45F6"/>
<stop offset="0.38" stop-color="#6F4CF5"/>
<stop offset="0.45" stop-color="#6A4FF5"/>
<stop offset="0.55" stop-color="#5C6EF3"/>
<stop offset="0.76" stop-color="#40AEEF"/>
<stop offset="0.92" stop-color="#2FD6EC"/>
<stop offset="1" stop-color="#28E5EB"/>
</linearGradient>
</defs>
</svg>
