<svg width="379" height="167" viewBox="0 0 379 167" fill="none" xmlns="http://www.w3.org/2000/svg">
<rect x="0.5" y="0.5" width="378" height="166" rx="37.5" stroke="black"/>
<g filter="url(#filter0_d_3834_519)">
<path d="M152.452 87.1689L148.935 90.9874L152.452 94.8143L155.978 90.9874L152.452 87.1689Z" fill="url(#paint0_linear_3834_519)"/>
<path d="M164.208 84.6082C163.481 84.5828 162.767 84.4139 162.106 84.1113C161.445 83.8088 160.85 83.3785 160.356 82.8452L144.28 65.3487C143.911 64.9471 143.463 64.6262 142.964 64.4062C142.465 64.1862 141.926 64.0718 141.381 64.0703H136.066L156.538 86.3044C157.95 87.9066 159.817 89.0402 161.89 89.5541C163.963 90.068 166.143 89.9377 168.14 89.1807C170.137 88.4236 171.856 87.0758 173.067 85.3169C174.278 83.558 174.925 81.4715 174.92 79.3359V67.1619L169.739 71.866V79.503C169.722 80.1983 169.567 80.8833 169.282 81.5179C168.997 82.1525 168.589 82.7241 168.081 83.1993C167.573 83.6746 166.976 84.0439 166.324 84.2858C165.672 84.5277 164.978 84.6373 164.283 84.6082H164.208Z" fill="url(#paint1_linear_3834_519)"/>
<path d="M124.295 58.4551H118.98L144.281 85.9114L147.949 82.2433L127.219 59.7335C126.846 59.33 126.394 59.0081 125.891 58.7881C125.387 58.568 124.844 58.4547 124.295 58.4551Z" fill="url(#paint2_linear_3834_519)"/>
<path d="M163.573 64.043C163.026 64.0438 162.486 64.1579 161.985 64.3779C161.485 64.5979 161.035 64.9191 160.665 65.3214L144.547 82.8429C144.053 83.3762 143.458 83.8065 142.797 84.1091C142.136 84.4116 141.422 84.5805 140.695 84.606C140 84.635 139.307 84.5254 138.654 84.2835C138.002 84.0416 137.405 83.6723 136.897 83.1971C136.389 82.7219 135.981 82.1503 135.696 81.5156C135.412 80.881 135.256 80.1961 135.239 79.5007V71.8637L130.059 67.1596V79.3336C130.049 81.4714 130.693 83.561 131.904 85.3229C133.114 87.0849 134.834 88.4351 136.833 89.1929C138.832 89.9506 141.015 90.0799 143.089 89.5633C145.164 89.0467 147.031 87.9089 148.441 86.3022L168.879 64.043H163.573Z" fill="url(#paint3_linear_3834_519)"/>
<path d="M180.61 58.4551C180.065 58.4566 179.525 58.571 179.026 58.791C178.528 59.011 178.079 59.3319 177.711 59.7335L156.98 82.235L160.649 85.9031L185.924 58.4551H180.61Z" fill="url(#paint4_linear_3834_519)"/>
<path d="M65.9216 62.9062H60.8247L49.5865 74.3116H48.4668V62.9062H44.3643V89.2513H48.4668V78.1635H49.8873L61.209 89.2513H66.7655L53.0707 76.1164L65.9216 62.9062Z" fill="black"/>
<path d="M111.692 62.3917C104.172 62.3917 98.3232 68.4828 98.3232 76.1532C98.3923 78.7913 99.2382 81.3504 100.755 83.51C102.272 85.6696 104.392 87.3336 106.85 88.2938C109.308 89.2539 111.995 89.4675 114.574 88.9077C117.153 88.3479 119.509 87.0396 121.348 85.1467C123.187 83.2539 124.427 80.8605 124.912 78.2665C125.396 75.6724 125.105 72.9929 124.074 70.5636C123.043 68.1342 121.319 66.0631 119.116 64.6094C116.914 63.1558 114.331 62.3843 111.692 62.3917ZM111.692 85.8707C106.512 85.8707 102.451 81.6929 102.451 76.1532C102.451 70.6135 106.512 66.3605 111.692 66.3605C116.873 66.3605 120.975 70.5383 120.975 76.1532C120.975 81.7681 116.898 85.8457 111.692 85.8457V85.8707Z" fill="black"/>
<path d="M187.451 62.9062H183.349V89.2513H201.489V85.4412H187.451V62.9062Z" fill="black"/>
<path d="M239.315 62.9062H230.341V89.2513H239.323C248.063 89.2513 253.527 83.745 253.527 76.083C253.527 68.4209 248.055 62.9062 239.315 62.9062ZM239.315 85.4663H234.435V66.7498H239.315C245.565 66.7498 249.341 70.6435 249.341 76.1164C249.341 81.5893 245.565 85.4328 239.315 85.4328V85.4663Z" fill="black"/>
<path d="M292.59 78.105H306.443V74.3366H292.59V66.7247H307.588V62.9062H288.487V89.2513H307.63V85.4412H292.59V78.105Z" fill="black"/>
<path d="M210.045 78.105H223.89V74.3366H210.045V66.7247H225.043V62.9062H205.942V89.2513H225.085V85.4412H210.045V78.105Z" fill="black"/>
<path d="M326.339 78.0144C330.809 77.5632 333.583 74.6722 333.583 70.4944C333.583 66.0158 330.325 62.9326 325.144 62.9326H312.887V89.2777H316.989V78.0979H321.727L329.873 89.2526H334.636L326.339 78.0144ZM316.989 74.3296V66.7177H325.211C327.885 66.7177 329.481 68.3052 329.481 70.5111C329.481 72.717 327.885 74.3296 325.211 74.3296H316.989Z" fill="black"/>
<path d="M89.4694 82.8175L74.6132 62.9062H70.3018V89.2513H74.4378V69.3233L89.319 89.2513H93.5803V62.9062H89.4694V82.8175Z" fill="black"/>
<path d="M269.386 74.3368V78.172H279.588C278.82 82.7341 275.486 85.8424 270.765 85.8424C265.434 85.8424 261.331 81.6646 261.331 76.0914C261.331 70.5183 265.359 66.3322 270.523 66.3322C272.033 66.2581 273.537 66.5698 274.894 67.2378C276.25 67.9059 277.414 68.9083 278.277 70.1507H282.763C280.925 65.0788 276.012 62.3633 270.523 62.3633C266.941 62.4656 263.541 63.9643 261.049 66.5392C258.558 69.1141 257.171 72.5612 257.187 76.1444C257.202 79.7275 258.618 83.1627 261.131 85.7163C263.645 88.2699 267.057 89.7395 270.64 89.8113C278.277 89.8113 283.607 83.8705 283.607 76.1249C283.607 75.657 283.607 75.0386 283.532 74.3368H269.386Z" fill="black"/>
<path d="M191.507 103.902L192.551 104.152C192.275 105.094 191.692 105.917 190.893 106.488C190.095 107.059 189.128 107.346 188.148 107.303C186.9 107.251 185.722 106.719 184.857 105.818C183.993 104.917 183.511 103.717 183.511 102.469C183.511 101.221 183.993 100.021 184.857 99.1198C185.722 98.219 186.9 97.687 188.148 97.6352C189.119 97.5922 190.077 97.8711 190.873 98.4287C191.669 98.9862 192.259 99.7911 192.551 100.718L191.507 101.028C191.29 100.319 190.845 99.7016 190.24 99.2736C189.635 98.8455 188.905 98.6307 188.164 98.6629C187.186 98.7088 186.262 99.1298 185.586 99.8385C184.91 100.547 184.533 101.489 184.533 102.469C184.533 103.448 184.91 104.39 185.586 105.099C186.262 105.808 187.186 106.229 188.164 106.275C188.906 106.306 189.637 106.09 190.242 105.661C190.847 105.231 191.292 104.612 191.507 103.902Z" fill="black"/>
<path d="M200.747 103.025V107.119H199.694V103.217C199.724 102.95 199.698 102.68 199.617 102.423C199.537 102.166 199.403 101.93 199.225 101.728C199.047 101.527 198.829 101.365 198.584 101.253C198.34 101.141 198.074 101.081 197.805 101.078C196.385 101.078 195.441 102.056 195.441 103.827V107.119H194.413V97.0928H195.458V101.379C195.738 100.959 196.123 100.619 196.574 100.39C197.024 100.162 197.526 100.054 198.031 100.076C198.41 100.069 198.786 100.143 199.134 100.292C199.482 100.441 199.795 100.662 200.051 100.941C200.308 101.219 200.502 101.549 200.622 101.908C200.742 102.268 200.784 102.648 200.747 103.025Z" fill="black"/>
<path d="M209.344 107.111H208.299V106.025C207.977 106.432 207.565 106.759 207.095 106.98C206.626 107.2 206.111 107.308 205.592 107.295C204.668 107.25 203.796 106.852 203.158 106.182C202.52 105.513 202.164 104.623 202.164 103.698C202.164 102.773 202.52 101.883 203.158 101.214C203.796 100.544 204.668 100.145 205.592 100.101C206.11 100.087 206.624 100.193 207.094 100.412C207.564 100.631 207.977 100.957 208.299 101.363V100.268H209.344V107.111ZM208.299 103.694C208.31 103.354 208.254 103.015 208.134 102.697C208.014 102.379 207.832 102.088 207.599 101.84C207.367 101.593 207.087 101.393 206.777 101.254C206.467 101.115 206.132 101.038 205.792 101.028C205.112 101.066 204.473 101.363 204.005 101.858C203.537 102.353 203.276 103.008 203.276 103.69C203.276 104.371 203.537 105.026 204.005 105.521C204.473 106.016 205.112 106.313 205.792 106.351C206.132 106.342 206.466 106.266 206.776 106.128C207.086 105.99 207.366 105.791 207.599 105.544C207.832 105.297 208.014 105.006 208.134 104.689C208.254 104.371 208.31 104.033 208.299 103.694Z" fill="black"/>
<path d="M213.003 98.1931C213.005 98.2881 212.986 98.3824 212.95 98.4702C212.914 98.558 212.86 98.6376 212.792 98.704C212.724 98.7704 212.643 98.8223 212.555 98.8566C212.466 98.8908 212.371 98.9068 212.276 98.9033C212.182 98.9068 212.088 98.8908 211.999 98.8565C211.911 98.8221 211.831 98.7701 211.764 98.7035C211.696 98.637 211.643 98.5574 211.608 98.4696C211.573 98.3818 211.555 98.2877 211.558 98.1931C211.559 98.0999 211.578 98.0077 211.615 97.922C211.652 97.8362 211.705 97.7585 211.772 97.6934C211.838 97.6282 211.917 97.5768 212.004 97.5421C212.091 97.5074 212.183 97.4902 212.276 97.4913C212.466 97.489 212.648 97.5614 212.784 97.6928C212.92 97.8242 212.999 98.004 213.003 98.1931ZM211.75 107.108V100.265H212.794V107.108H211.75Z" fill="black"/>
<path d="M221.569 103.018V107.112H220.516V103.21C220.547 102.943 220.521 102.672 220.44 102.415C220.359 102.159 220.225 101.922 220.047 101.721C219.869 101.519 219.651 101.357 219.407 101.245C219.162 101.133 218.897 101.074 218.628 101.071C217.207 101.071 216.272 102.048 216.272 103.82V107.112H215.219V100.269H216.272V101.405C216.55 100.985 216.933 100.644 217.383 100.416C217.832 100.188 218.333 100.079 218.837 100.101C219.214 100.093 219.588 100.164 219.936 100.31C220.284 100.456 220.597 100.674 220.854 100.949C221.112 101.224 221.309 101.551 221.432 101.907C221.555 102.264 221.602 102.642 221.569 103.018Z" fill="black"/>
<path d="M229.933 103.901H224.085C224.097 104.543 224.355 105.156 224.806 105.613C225.257 106.07 225.866 106.337 226.508 106.358C227 106.388 227.49 106.262 227.907 105.998C228.324 105.734 228.647 105.345 228.83 104.887L229.766 105.113C229.532 105.78 229.088 106.353 228.501 106.747C227.913 107.14 227.214 107.332 226.508 107.294C225.583 107.241 224.715 106.833 224.083 106.157C223.451 105.48 223.104 104.587 223.113 103.661C223.123 102.735 223.489 101.849 224.135 101.185C224.781 100.522 225.658 100.133 226.583 100.1C227.028 100.099 227.469 100.188 227.879 100.361C228.29 100.534 228.662 100.787 228.973 101.105C229.284 101.423 229.529 101.801 229.693 102.215C229.856 102.629 229.935 103.072 229.925 103.517L229.933 103.901ZM224.143 103.116H228.872C228.832 102.543 228.574 102.008 228.151 101.62C227.729 101.231 227.173 101.019 226.6 101.027C226.007 101.019 225.431 101.226 224.979 101.61C224.527 101.994 224.23 102.529 224.143 103.116Z" fill="black"/>
<path d="M238.136 107.115H237.092V106.029C236.77 106.436 236.358 106.763 235.888 106.984C235.418 107.204 234.904 107.312 234.385 107.299C233.461 107.255 232.589 106.856 231.951 106.186C231.313 105.517 230.957 104.627 230.957 103.702C230.957 102.777 231.313 101.887 231.951 101.218C232.589 100.548 233.461 100.15 234.385 100.105C234.903 100.091 235.417 100.198 235.887 100.417C236.357 100.636 236.77 100.961 237.092 101.367V97.1221H238.136V107.115ZM237.092 103.698C237.103 103.358 237.047 103.019 236.927 102.701C236.807 102.383 236.625 102.092 236.392 101.845C236.159 101.597 235.88 101.398 235.57 101.258C235.26 101.119 234.925 101.042 234.585 101.032C233.905 101.071 233.266 101.368 232.798 101.862C232.33 102.357 232.069 103.013 232.069 103.694C232.069 104.375 232.33 105.03 232.798 105.525C233.266 106.02 233.905 106.317 234.585 106.355C234.925 106.346 235.259 106.271 235.569 106.132C235.879 105.994 236.159 105.795 236.392 105.548C236.625 105.301 236.807 105.011 236.927 104.693C237.047 104.375 237.103 104.037 237.092 103.698Z" fill="black"/>
<path d="M247.889 106.752C247.436 107.1 246.881 107.291 246.31 107.295C246.002 107.317 245.693 107.272 245.405 107.162C245.117 107.052 244.857 106.88 244.643 106.659C244.428 106.437 244.265 106.171 244.165 105.88C244.064 105.588 244.029 105.278 244.062 104.972V101.153H242.583V100.268H244.062V98.0869H245.123V100.268H247.555V101.153H245.123V104.905C245.1 105.082 245.116 105.262 245.169 105.432C245.222 105.602 245.312 105.759 245.432 105.891C245.552 106.023 245.7 106.127 245.864 106.197C246.029 106.266 246.206 106.298 246.385 106.292C246.803 106.273 247.205 106.128 247.538 105.874L247.889 106.752Z" fill="black"/>
<path d="M255.469 103.694C255.477 104.41 255.272 105.112 254.881 105.711C254.489 106.31 253.927 106.78 253.268 107.059C252.609 107.338 251.881 107.415 251.178 107.28C250.475 107.145 249.828 106.804 249.319 106.3C248.811 105.796 248.463 105.152 248.321 104.45C248.18 103.748 248.25 103.02 248.523 102.358C248.796 101.696 249.26 101.131 249.856 100.733C250.451 100.336 251.152 100.124 251.868 100.126C252.341 100.116 252.811 100.201 253.25 100.376C253.689 100.551 254.089 100.813 254.425 101.146C254.761 101.479 255.026 101.876 255.206 102.314C255.385 102.751 255.475 103.221 255.469 103.694ZM254.433 103.694C254.433 103.009 254.161 102.352 253.677 101.868C253.192 101.384 252.536 101.112 251.851 101.112C251.166 101.112 250.51 101.384 250.025 101.868C249.541 102.352 249.269 103.009 249.269 103.694C249.269 104.378 249.541 105.035 250.025 105.519C250.51 106.003 251.166 106.275 251.851 106.275C252.536 106.275 253.192 106.003 253.677 105.519C254.161 105.035 254.433 104.378 254.433 103.694Z" fill="black"/>
<path d="M260.474 107.126V97.8262H261.56V107.126H260.474Z" fill="black"/>
<path d="M270.189 103.017V107.112H269.136V103.21C269.167 102.942 269.141 102.672 269.06 102.415C268.979 102.159 268.846 101.922 268.668 101.72C268.49 101.519 268.271 101.357 268.027 101.245C267.782 101.133 267.517 101.073 267.248 101.07C265.828 101.07 264.883 102.048 264.883 103.819V107.112H263.839V100.268H264.883V101.405C265.165 100.985 265.549 100.645 266 100.417C266.45 100.189 266.952 100.08 267.457 100.101C267.834 100.093 268.208 100.164 268.556 100.31C268.904 100.456 269.217 100.674 269.474 100.949C269.732 101.224 269.929 101.55 270.052 101.907C270.176 102.263 270.222 102.642 270.189 103.017Z" fill="black"/>
<path d="M276.405 106.752C275.952 107.1 275.398 107.291 274.826 107.295C274.519 107.317 274.21 107.272 273.922 107.162C273.634 107.052 273.374 106.88 273.159 106.659C272.945 106.437 272.782 106.171 272.681 105.88C272.581 105.588 272.546 105.278 272.579 104.972V101.153H271.1V100.268H272.579V98.0869H273.64V100.268H276.071V101.153H273.64V104.905C273.616 105.082 273.632 105.262 273.686 105.432C273.739 105.602 273.829 105.759 273.949 105.891C274.069 106.023 274.216 106.127 274.381 106.197C274.545 106.266 274.723 106.298 274.901 106.292C275.319 106.273 275.721 106.128 276.054 105.874L276.405 106.752Z" fill="black"/>
<path d="M283.65 103.901H277.801C277.814 104.545 278.073 105.158 278.526 105.616C278.978 106.073 279.59 106.339 280.233 106.358C280.725 106.388 281.215 106.262 281.632 105.998C282.049 105.734 282.372 105.345 282.555 104.887L283.491 105.113C283.256 105.779 282.812 106.352 282.224 106.745C281.637 107.138 280.938 107.33 280.233 107.294C279.308 107.241 278.44 106.835 277.807 106.16C277.175 105.484 276.827 104.59 276.835 103.665C276.844 102.739 277.208 101.852 277.854 101.189C278.499 100.525 279.375 100.135 280.3 100.1C280.745 100.099 281.186 100.188 281.596 100.361C282.007 100.534 282.378 100.787 282.69 101.105C283.001 101.423 283.246 101.801 283.409 102.215C283.573 102.629 283.652 103.072 283.642 103.517L283.65 103.901ZM277.851 103.116H282.589C282.546 102.543 282.287 102.007 281.863 101.619C281.439 101.231 280.883 101.019 280.308 101.027C279.715 101.019 279.139 101.226 278.687 101.61C278.235 101.994 277.938 102.529 277.851 103.116Z" fill="black"/>
<path d="M285.32 107.119V97.0928H286.373V107.119H285.32Z" fill="black"/>
<path d="M288.664 107.119V97.0928H289.717V107.119H288.664Z" fill="black"/>
<path d="M293.376 98.1931C293.378 98.2889 293.359 98.3839 293.323 98.4723C293.286 98.5607 293.231 98.6406 293.162 98.7071C293.093 98.7736 293.012 98.8254 292.922 98.8591C292.832 98.8929 292.737 98.9079 292.641 98.9034C292.547 98.9056 292.454 98.8888 292.367 98.854C292.279 98.8191 292.2 98.7668 292.134 98.7004C292.067 98.634 292.015 98.5548 291.98 98.4676C291.945 98.3804 291.929 98.287 291.931 98.1931C291.933 98.0062 292.009 97.8277 292.142 97.6963C292.275 97.5649 292.454 97.4913 292.641 97.4913C292.831 97.489 293.014 97.5611 293.152 97.6923C293.289 97.8235 293.37 98.0033 293.376 98.1931ZM292.123 107.108V100.265H293.184V107.108H292.123Z" fill="black"/>
<path d="M301.906 106.565C301.906 108.562 300.536 109.757 298.481 109.757C296.809 109.757 295.681 109.088 295.138 107.977L296.024 107.367C296.234 107.827 296.581 108.212 297.018 108.468C297.454 108.723 297.959 108.838 298.464 108.796C298.782 108.819 299.102 108.774 299.401 108.663C299.701 108.552 299.973 108.379 300.199 108.154C300.426 107.929 300.602 107.658 300.714 107.359C300.827 107.061 300.875 106.741 300.853 106.423V105.587C300.549 105.965 300.159 106.264 299.716 106.46C299.273 106.656 298.789 106.744 298.305 106.715C297.829 106.787 297.344 106.756 296.881 106.623C296.419 106.49 295.99 106.258 295.626 105.944C295.261 105.631 294.968 105.242 294.767 104.805C294.567 104.367 294.463 103.892 294.463 103.411C294.463 102.929 294.567 102.454 294.767 102.017C294.968 101.579 295.261 101.19 295.626 100.877C295.99 100.563 296.419 100.332 296.881 100.199C297.344 100.066 297.829 100.034 298.305 100.106C298.787 100.078 299.269 100.164 299.712 100.357C300.155 100.55 300.546 100.845 300.853 101.217V100.273H301.873L301.906 106.565ZM300.87 103.398C300.834 102.775 300.56 102.189 300.106 101.76C299.652 101.332 299.051 101.093 298.426 101.093C297.802 101.093 297.201 101.332 296.746 101.76C296.292 102.189 296.019 102.775 295.982 103.398C296.019 104.022 296.292 104.607 296.746 105.036C297.201 105.465 297.802 105.703 298.426 105.703C299.051 105.703 299.652 105.465 300.106 105.036C300.56 104.607 300.834 104.022 300.87 103.398Z" fill="black"/>
<path d="M310.429 103.901H304.58C304.593 104.545 304.852 105.158 305.305 105.616C305.758 106.073 306.369 106.339 307.012 106.358C307.503 106.388 307.992 106.261 308.407 105.997C308.823 105.733 309.144 105.345 309.326 104.887L310.262 105.113C310.03 105.779 309.587 106.352 309.001 106.746C308.415 107.139 307.717 107.331 307.012 107.294C306.088 107.241 305.219 106.835 304.587 106.16C303.954 105.484 303.606 104.59 303.614 103.665C303.623 102.739 303.988 101.852 304.633 101.189C305.278 100.525 306.154 100.135 307.079 100.1C307.524 100.099 307.965 100.188 308.375 100.361C308.786 100.534 309.158 100.787 309.469 101.105C309.78 101.423 310.025 101.801 310.188 102.215C310.352 102.629 310.431 103.072 310.421 103.517L310.429 103.901ZM304.631 103.116H309.368C309.324 102.543 309.063 102.009 308.64 101.621C308.216 101.234 307.661 101.021 307.087 101.027C306.494 101.019 305.918 101.226 305.466 101.61C305.015 101.994 304.718 102.529 304.631 103.116Z" fill="black"/>
<path d="M318.451 103.018V107.112H317.398V103.21C317.43 102.942 317.405 102.671 317.324 102.414C317.244 102.157 317.111 101.92 316.932 101.718C316.754 101.516 316.535 101.354 316.29 101.242C316.045 101.131 315.779 101.072 315.51 101.071C314.089 101.071 313.153 102.048 313.153 103.82V107.112H312.101V100.269H313.153V101.405C313.432 100.985 313.815 100.644 314.265 100.416C314.714 100.188 315.215 100.079 315.719 100.101C316.096 100.093 316.47 100.164 316.818 100.31C317.165 100.456 317.478 100.674 317.736 100.949C317.994 101.224 318.191 101.551 318.314 101.907C318.437 102.264 318.484 102.642 318.451 103.018Z" fill="black"/>
<path d="M325.754 104.763L326.724 105.03C326.515 105.711 326.085 106.303 325.503 106.713C324.921 107.123 324.218 107.327 323.507 107.294C322.583 107.25 321.711 106.851 321.073 106.182C320.435 105.512 320.079 104.622 320.079 103.697C320.079 102.772 320.435 101.883 321.073 101.213C321.711 100.543 322.583 100.145 323.507 100.1C324.22 100.078 324.921 100.289 325.505 100.701C326.088 101.112 326.522 101.702 326.74 102.381L325.729 102.682C325.595 102.202 325.302 101.782 324.898 101.49C324.495 101.197 324.005 101.049 323.507 101.069C323.168 101.069 322.832 101.138 322.52 101.271C322.208 101.404 321.926 101.599 321.692 101.844C321.457 102.09 321.275 102.38 321.156 102.698C321.038 103.016 320.984 103.354 321 103.693C320.986 104.031 321.04 104.369 321.159 104.686C321.278 105.002 321.461 105.292 321.695 105.536C321.929 105.781 322.21 105.975 322.522 106.108C322.833 106.24 323.168 106.309 323.507 106.308C323.999 106.334 324.487 106.197 324.893 105.917C325.3 105.638 325.602 105.232 325.754 104.763Z" fill="black"/>
<path d="M334.635 103.901H328.786C328.799 104.545 329.059 105.158 329.511 105.616C329.964 106.073 330.575 106.339 331.218 106.358C331.71 106.389 332.198 106.263 332.614 105.999C333.03 105.735 333.352 105.346 333.532 104.887L334.477 105.113C334.241 105.779 333.797 106.352 333.21 106.745C332.622 107.138 331.924 107.33 331.218 107.294C330.294 107.241 329.425 106.835 328.793 106.16C328.16 105.484 327.812 104.59 327.82 103.665C327.829 102.739 328.194 101.852 328.839 101.189C329.484 100.525 330.36 100.135 331.285 100.1C331.73 100.099 332.171 100.188 332.581 100.361C332.992 100.534 333.364 100.787 333.675 101.105C333.987 101.423 334.231 101.801 334.395 102.215C334.558 102.629 334.637 103.072 334.627 103.517L334.635 103.901ZM328.837 103.116H333.574C333.532 102.543 333.272 102.007 332.848 101.619C332.424 101.231 331.868 101.019 331.293 101.027C330.7 101.019 330.124 101.226 329.672 101.61C329.221 101.994 328.924 102.529 328.837 103.116Z" fill="black"/>
</g>
<defs>
<filter id="filter0_d_3834_519" x="0.133036" y="31.1209" width="378.733" height="109.945" filterUnits="userSpaceOnUse" color-interpolation-filters="sRGB">
<feFlood flood-opacity="0" result="BackgroundImageFix"/>
<feColorMatrix in="SourceAlpha" type="matrix" values="0 0 0 0 0 0 0 0 0 0 0 0 0 0 0 0 0 0 127 0" result="hardAlpha"/>
<feOffset dy="1.98791"/>
<feGaussianBlur stdDeviation="10.9335"/>
<feComposite in2="hardAlpha" operator="out"/>
<feColorMatrix type="matrix" values="0 0 0 0 0 0 0 0 0 0 0 0 0 0 0 0 0 0 0.05 0"/>
<feBlend mode="normal" in2="BackgroundImageFix" result="effect1_dropShadow_3834_519"/>
<feBlend mode="normal" in="SourceGraphic" in2="effect1_dropShadow_3834_519" result="shape"/>
</filter>
<linearGradient id="paint0_linear_3834_519" x1="152.452" y1="94.2127" x2="152.452" y2="62.3196" gradientUnits="userSpaceOnUse">
<stop stop-color="#F607FF"/>
<stop offset="0.04" stop-color="#E211FE"/>
<stop offset="0.13" stop-color="#B727FB"/>
<stop offset="0.22" stop-color="#9639F8"/>
<stop offset="0.31" stop-color="#7E45F6"/>
<stop offset="0.38" stop-color="#6F4CF5"/>
<stop offset="0.45" stop-color="#6A4FF5"/>
<stop offset="0.55" stop-color="#5C6EF3"/>
<stop offset="0.76" stop-color="#40AEEF"/>
<stop offset="0.92" stop-color="#2FD6EC"/>
<stop offset="1" stop-color="#28E5EB"/>
</linearGradient>
<linearGradient id="paint1_linear_3834_519" x1="155.443" y1="94.192" x2="155.443" y2="62.3073" gradientUnits="userSpaceOnUse">
<stop stop-color="#F607FF"/>
<stop offset="0.04" stop-color="#E211FE"/>
<stop offset="0.13" stop-color="#B727FB"/>
<stop offset="0.22" stop-color="#9639F8"/>
<stop offset="0.31" stop-color="#7E45F6"/>
<stop offset="0.38" stop-color="#6F4CF5"/>
<stop offset="0.45" stop-color="#6A4FF5"/>
<stop offset="0.55" stop-color="#5C6EF3"/>
<stop offset="0.76" stop-color="#40AEEF"/>
<stop offset="0.92" stop-color="#2FD6EC"/>
<stop offset="1" stop-color="#28E5EB"/>
</linearGradient>
<linearGradient id="paint2_linear_3834_519" x1="133.461" y1="94.2001" x2="133.461" y2="62.3153" gradientUnits="userSpaceOnUse">
<stop stop-color="#F607FF"/>
<stop offset="0.04" stop-color="#E211FE"/>
<stop offset="0.13" stop-color="#B727FB"/>
<stop offset="0.22" stop-color="#9639F8"/>
<stop offset="0.31" stop-color="#7E45F6"/>
<stop offset="0.38" stop-color="#6F4CF5"/>
<stop offset="0.45" stop-color="#6A4FF5"/>
<stop offset="0.55" stop-color="#5C6EF3"/>
<stop offset="0.76" stop-color="#40AEEF"/>
<stop offset="0.92" stop-color="#2FD6EC"/>
<stop offset="1" stop-color="#28E5EB"/>
</linearGradient>
<linearGradient id="paint3_linear_3834_519" x1="149.46" y1="94.1898" x2="149.46" y2="62.305" gradientUnits="userSpaceOnUse">
<stop stop-color="#F607FF"/>
<stop offset="0.04" stop-color="#E211FE"/>
<stop offset="0.13" stop-color="#B727FB"/>
<stop offset="0.22" stop-color="#9639F8"/>
<stop offset="0.31" stop-color="#7E45F6"/>
<stop offset="0.38" stop-color="#6F4CF5"/>
<stop offset="0.45" stop-color="#6A4FF5"/>
<stop offset="0.55" stop-color="#5C6EF3"/>
<stop offset="0.76" stop-color="#40AEEF"/>
<stop offset="0.92" stop-color="#2FD6EC"/>
<stop offset="1" stop-color="#28E5EB"/>
</linearGradient>
<linearGradient id="paint4_linear_3834_519" x1="171.452" y1="94.2001" x2="171.452" y2="62.3153" gradientUnits="userSpaceOnUse">
<stop stop-color="#F607FF"/>
<stop offset="0.04" stop-color="#E211FE"/>
<stop offset="0.13" stop-color="#B727FB"/>
<stop offset="0.22" stop-color="#9639F8"/>
<stop offset="0.31" stop-color="#7E45F6"/>
<stop offset="0.38" stop-color="#6F4CF5"/>
<stop offset="0.45" stop-color="#6A4FF5"/>
<stop offset="0.55" stop-color="#5C6EF3"/>
<stop offset="0.76" stop-color="#40AEEF"/>
<stop offset="0.92" stop-color="#2FD6EC"/>
<stop offset="1" stop-color="#28E5EB"/>
</linearGradient>
</defs>
</svg>
