<svg width="159" height="45" viewBox="0 0 159 45" fill="none" xmlns="http://www.w3.org/2000/svg">
<path d="M22.4171 44.8838C34.6575 44.8838 44.5803 34.961 44.5803 22.7206C44.5803 10.4802 34.6575 0.557373 22.4171 0.557373C10.1767 0.557373 0.253906 10.4802 0.253906 22.7206C0.253906 34.961 10.1767 44.8838 22.4171 44.8838Z" fill="#457EFF"/>
<path fill-rule="evenodd" clip-rule="evenodd" d="M16.3816 10.443C16.0465 12.1883 14.1365 22.0198 13.7441 24.0246C13.3517 26.0293 15.0335 27.8263 16.6847 27.8263H19.2319C19.9096 27.8263 20.9186 28.2944 20.5388 29.9989C20.159 31.7034 19.7663 33.4569 19.3802 35.1132C18.9942 36.7694 20.9289 37.4372 21.7677 36.146C22.6066 34.8548 28.8697 24.9998 29.5904 23.6744C30.3111 22.3491 29.1306 20.2996 27.3537 20.2996C25.5767 20.2996 24.8414 20.2996 23.9093 20.2996C22.9772 20.2996 22.8464 19.6453 23.1847 18.2976C23.523 16.9499 23.9298 15.187 24.5587 12.6034C25.1877 10.0198 22.6532 8.61646 21.3177 8.61646C19.9822 8.61646 18.5463 8.61646 18.1504 8.61646C17.7545 8.61646 16.7167 8.69769 16.3816 10.443Z" fill="white"/>
<path d="M72.6461 29.1336H62.9642L65.5793 14.3312C65.9015 12.5074 64.6842 10.7677 62.8605 10.4456C62.6679 10.4115 62.4727 10.3944 62.2771 10.3944L58.4355 32.2568H68.9472C70.7767 32.2568 72.3395 30.9373 72.6461 29.1336ZM81.71 32.6316C83.0217 32.6316 84.245 32.3922 85.3797 31.9133C86.5145 31.4344 87.5035 30.7681 88.3468 29.9144C89.19 29.0607 89.8511 28.0665 90.33 26.9318C90.8089 25.797 91.0483 24.5633 91.0483 23.2308C91.0483 21.8774 90.7568 20.6906 90.1738 19.6703C89.5908 18.6501 88.784 17.8485 87.7534 17.2655C86.7227 16.6825 85.5203 16.391 84.1461 16.391C82.8551 16.391 81.6475 16.6252 80.5232 17.0937C79.3988 17.5622 78.415 18.2232 77.5717 19.0769C76.7285 19.9306 76.0726 20.9248 75.6041 22.0596C75.1356 23.1943 74.9014 24.4176 74.9014 25.7293C74.9014 27.0619 75.1877 28.2435 75.7603 29.2742C76.3329 30.3048 77.1293 31.1221 78.1495 31.7259C79.1698 32.3297 80.3566 32.6316 81.71 32.6316ZM82.2409 29.1649C81.3456 29.1649 80.5804 28.8525 79.9454 28.2279C79.3103 27.6033 78.9928 26.7183 78.9928 25.5732C78.9928 24.4905 79.201 23.5171 79.6174 22.653C80.0338 21.7889 80.6012 21.107 81.3196 20.6073C82.0379 20.1076 82.8343 19.8577 83.7088 19.8577C84.6041 19.8577 85.3693 20.17 86.0044 20.7947C86.6394 21.4193 86.957 22.3042 86.957 23.4494C86.957 24.5321 86.7487 25.5055 86.3323 26.3696C85.9159 27.2337 85.3537 27.9156 84.6458 28.4153C83.9379 28.915 83.1362 29.1649 82.2409 29.1649ZM100.112 32.6316C101.445 32.6316 102.689 32.3818 103.844 31.882C105 31.3823 106.005 30.6848 106.858 29.7895C107.712 28.8942 108.357 27.8427 108.795 26.6351C106.688 26.4661 105.351 26.6221 104.784 27.103C103.934 27.8244 103.782 28.1082 103.064 28.5558C102.345 29.0035 101.559 29.2273 100.706 29.2273C99.7478 29.2273 98.967 28.8994 98.3632 28.2435C97.7594 27.5876 97.4575 26.7079 97.4575 25.6044C97.4575 24.5009 97.6761 23.5119 98.1134 22.6374C98.5506 21.7629 99.144 21.0706 99.8936 20.5604C100.643 20.0503 101.466 19.7953 102.361 19.7953C103.215 19.7953 103.879 19.9888 104.441 20.4365C105.003 20.8841 105.046 21.1703 105.624 21.9039C106.01 22.3929 107.317 22.5541 109.544 22.3875C109.544 20.5136 108.946 19.0457 107.748 17.9838C106.551 16.9219 104.953 16.391 102.954 16.391C101.58 16.391 100.31 16.6356 99.144 17.1249C97.978 17.6142 96.9578 18.2961 96.0833 19.1706C95.2088 20.0451 94.5321 21.0654 94.0532 22.2313C93.5743 23.3973 93.3349 24.6466 93.3349 25.9792C93.3349 27.3118 93.6107 28.4778 94.1625 29.4772C94.7143 30.4766 95.5003 31.2522 96.5205 31.804C97.5408 32.3557 98.738 32.6316 100.112 32.6316ZM118.358 32.6316C119.67 32.6316 120.893 32.3922 122.028 31.9133C123.163 31.4344 124.152 30.7681 124.995 29.9144C125.838 29.0607 126.499 28.0665 126.978 26.9318C127.457 25.797 127.697 24.5633 127.697 23.2308C127.697 21.8774 127.405 20.6906 126.822 19.6703C126.239 18.6501 125.432 17.8485 124.402 17.2655C123.371 16.6825 122.169 16.391 120.794 16.391C119.503 16.391 118.296 16.6252 117.171 17.0937C116.047 17.5622 115.063 18.2232 114.22 19.0769C113.377 19.9306 112.721 20.9248 112.252 22.0596C111.784 23.1943 111.55 24.4176 111.55 25.7293C111.55 27.0619 111.836 28.2435 112.409 29.2742C112.981 30.3048 113.778 31.1221 114.798 31.7259C115.818 32.3297 117.005 32.6316 118.358 32.6316ZM118.889 29.1649C117.994 29.1649 117.229 28.8525 116.594 28.2279C115.959 27.6033 115.641 26.7183 115.641 25.5732C115.641 24.4905 115.849 23.5171 116.266 22.653C116.682 21.7889 117.25 21.107 117.968 20.6073C118.686 20.1076 119.483 19.8577 120.357 19.8577C121.252 19.8577 122.018 20.17 122.653 20.7947C123.288 21.4193 123.605 22.3042 123.605 23.4494C123.605 24.5321 123.397 25.5055 122.981 26.3696C122.564 27.2337 122.002 27.9156 121.294 28.4153C120.586 28.915 119.785 29.1649 118.889 29.1649ZM134.7 28.3188L136.136 20.1076H139.478L140.071 16.7657H136.729L137.042 14.9543C137.167 14.3088 137.401 13.8508 137.744 13.5801C138.088 13.3094 138.603 13.1741 139.29 13.1741C139.905 13.1741 140.433 12.7347 140.544 12.1296L140.977 9.76978H139.29C137.645 9.76978 136.276 10.1654 135.183 10.9566C134.09 11.7478 133.377 13.0804 133.044 14.9543L132.732 16.7657H130.608L130.014 20.1076H132.138L130.014 32.2568C132.326 32.2568 134.302 30.5956 134.7 28.3188ZM146.44 36.7148L158.754 16.7657C156.122 16.7657 153.686 18.1568 152.348 20.4236L148.073 27.6657L146.531 20.9364C145.971 18.4959 143.799 16.7657 141.296 16.7657L145.036 32.2818L140.734 39.1279H142.114C143.877 39.1279 145.514 38.2147 146.44 36.7148Z" fill="#457EFF"/>
</svg>
