<svg width="227" height="37" viewBox="0 0 227 37" fill="none" xmlns="http://www.w3.org/2000/svg">
<path fill-rule="evenodd" clip-rule="evenodd" d="M36.9804 31.7582C35.6547 30.8622 34.4433 29.8519 33.1882 28.8853C34.3249 27.0138 35.8439 25.0859 37.3251 23.1395C39.4798 20.3083 42.9532 17.626 42.841 13.2568C42.6612 6.24631 34.2059 2.32908 28.9363 7.16632C27.4914 8.49268 26.3512 10.5067 25.0292 12.2226C21.2795 17.0897 16.9539 22.5365 13.3078 27.2765C11.9426 26.42 10.7934 25.3475 9.51562 24.4036C13.448 18.9212 18.5143 12.4938 22.9607 6.70666C25.9931 2.7599 30.7711 -1.47369 38.0146 0.501243C43.4431 1.98135 47.645 6.83548 47.7824 13.027C47.8866 17.7243 45.6551 20.6009 43.4156 23.4843C41.198 26.3395 38.9632 29.1175 36.9804 31.7582Z" fill="black"/>
<path fill-rule="evenodd" clip-rule="evenodd" d="M14.5729 8.20101C13.2829 10.1577 11.747 12.11 10.2061 14.0617C8.71523 15.9502 6.88635 17.8188 5.83936 19.8074C3.03853 25.1269 6.92692 30.7721 11.3553 31.7586C17.2402 33.0696 19.9673 28.347 22.7319 24.7488C26.4373 19.9261 30.7842 14.4537 34.4532 9.80982C35.8371 10.6477 37.0577 11.6488 38.2454 12.6827C33.9921 18.3977 29.387 24.3436 24.8004 30.2647C22.6724 33.0118 20.4877 35.4466 16.8712 36.4701C8.58376 38.8157 1.01729 33.0847 0.0935974 25.0935C-0.466384 20.2492 1.57359 17.0143 3.8858 14.0617C6.27477 11.011 8.59066 8.08345 10.7807 5.32812C12.1889 6.14161 13.3707 7.18159 14.5729 8.20101Z" fill="black"/>
<path fill-rule="evenodd" clip-rule="evenodd" d="M60.1926 7.16602C62.759 7.16602 65.3255 7.16602 67.8919 7.16602C67.8919 10.0557 67.8919 12.9688 67.8919 16.1294C67.8919 18.9428 67.3995 22.4843 68.3516 24.5182C69.6808 27.3579 74.7292 27.2172 75.936 24.4033C76.7833 22.4273 76.2807 18.7765 76.2807 15.8996C76.2807 12.8232 76.2807 9.777 76.2807 7.16602C78.8855 7.16602 81.4902 7.16602 84.0949 7.16602C83.3839 15.0984 85.749 23.5712 82.2563 28.4253C81.4664 29.5231 80.0022 30.8831 78.579 31.528C75.3383 32.9965 68.534 33.0387 65.1339 31.2982C63.554 30.4894 61.9931 28.835 61.2268 27.2762C58.8468 22.434 60.6672 14.563 60.0777 7.51076C60.0678 7.3477 60.0587 7.18532 60.1926 7.16602Z" fill="black"/>
<path fill-rule="evenodd" clip-rule="evenodd" d="M89.4969 7.16602C92.0251 7.16602 94.5532 7.16602 97.0813 7.16602C97.0813 15.4782 97.0813 23.7905 97.0813 32.1026C94.5149 32.1026 91.9484 32.1026 89.382 32.1026C89.382 23.9054 89.382 15.708 89.382 7.51076C89.3721 7.3477 89.363 7.18532 89.4969 7.16602Z" fill="black"/>
<path fill-rule="evenodd" clip-rule="evenodd" d="M102.713 7.16602C105.241 7.16602 107.769 7.16602 110.297 7.16602C110.297 9.77264 110.297 12.8372 110.297 15.8996C110.297 18.7696 109.823 22.261 110.642 24.2884C111.748 27.026 116.745 27.5051 118.226 24.748C119.246 22.8506 118.686 18.8877 118.686 16.1294C118.686 12.9249 118.686 10.0768 118.686 7.16602C121.291 7.16602 123.896 7.16602 126.5 7.16602C126.115 17.7043 128.579 28.0869 120.984 31.528C118.064 32.8514 110.925 33.0391 107.539 31.2982C105.961 30.4867 104.392 28.8213 103.632 27.2762C101.261 22.452 103.277 14.4618 102.598 7.51076C102.588 7.3477 102.579 7.18532 102.713 7.16602Z" fill="black"/>
<path fill-rule="evenodd" clip-rule="evenodd" d="M129.717 7.28067C132.36 7.01269 135.501 7.24229 138.335 7.16576C139.734 9.67481 141.211 12.1046 142.587 14.6352C144.108 12.249 145.421 9.65505 146.839 7.16576C149.674 7.16576 152.508 7.16576 155.343 7.16576C152.796 11.1694 150.27 15.193 147.644 19.1169C150.343 23.5421 153.404 27.6057 156.032 32.1024C153.16 32.1024 150.287 32.1024 147.414 32.1024C145.79 29.4745 144.102 26.9101 142.587 24.1732C140.825 26.7009 139.245 29.4114 137.646 32.1024C134.773 32.1024 131.9 32.1024 129.027 32.1024C131.688 27.5997 134.658 23.4068 137.531 19.1169C134.93 15.1683 132.406 11.1414 129.717 7.28067Z" fill="black"/>
<path fill-rule="evenodd" clip-rule="evenodd" d="M181.889 16.5886C180.869 16.9089 180.915 18.2959 179.706 18.4272C179.681 18.7973 179.909 18.9134 179.821 19.3466C177.898 20.9759 177.444 25.3728 177.982 28.0801C179.74 27.5429 180.798 26.3491 182.004 25.2072C182.26 24.9656 182.78 24.8489 183.038 24.6327C183.922 23.8943 184.342 22.3534 185.911 22.2194C186.153 22.6737 185.737 23.3807 186.026 23.9432C186.76 23.2983 186.749 21.9081 187.98 21.7598C188.433 19.7615 190.48 19.3571 192.002 18.4272C193.981 18.1412 197.444 17.6209 197.862 19.4615C198.345 21.5827 195.583 22.1876 194.53 23.3686C194.326 23.5831 194.238 23.2752 193.84 23.3686C193.562 23.5883 193.354 23.8779 193.266 24.2879C191.727 24.3578 191.719 25.9582 190.163 26.0116C189.714 26.9418 188.762 27.3682 187.75 27.7354C187.663 28.2231 187.482 28.6162 187.52 29.2293C188.69 30.3912 190.732 29.085 192.117 28.9994C195.33 26.8114 198.922 25.003 201.54 22.2194C203.09 21.9789 204.63 20.9145 205.447 19.5764C208.107 19.4091 209.226 22.4375 208.09 24.6327C208.854 24.6895 209.639 23.8203 210.043 23.1388C211.932 22.5789 214.937 19.0418 217.513 20.036C219.829 20.9299 219.512 25.3621 218.432 27.5055C218.649 28.1315 218.94 28.683 219.237 29.2293C220.744 29.2732 220.861 27.3397 222.224 27.6205C222.221 26.9277 222.727 26.7439 222.914 26.2415C224.353 25.7648 224.981 24.4779 226.476 24.0581C227.057 27.6564 223.139 28.4593 221.765 30.8381C220.63 30.9676 220.329 31.9307 219.467 32.332C217.096 32.4853 215.873 31.0993 215.215 29.2293C215.197 28.9435 215.395 28.8735 215.444 28.6547C214.74 27.0989 215.527 24.7478 214.985 23.2537C211.846 24.1748 210.201 26.59 207.63 28.0801C207.637 28.9299 206.882 29.0172 206.596 29.574C206.242 29.6596 206.375 29.2586 206.021 29.3442C205.433 30.7853 203.635 31.0178 202.919 32.332C202.134 32.0821 201.546 31.6359 201.195 30.953C201.242 30.31 201.131 29.7545 201.195 29.2293C201.313 28.2666 201.74 28.0503 202.229 27.3906C202.607 26.8807 202.999 25.7365 203.953 25.6669C203.972 24.575 204.495 23.9875 204.872 23.2537C202.553 24.65 200.225 26.0375 198.667 28.195C198.313 28.2806 198.446 27.8796 198.092 27.9652C197.694 28.7548 197.099 29.3467 196.024 29.4591C195.612 30.2497 194.053 30.9267 192.921 31.4127C191.669 31.9506 190.421 32.4985 189.589 31.8723C187.206 32.6561 185.64 30.916 185.222 28.9994C185.129 28.6324 184.631 28.671 184.417 28.4249C184.092 26.5288 185.607 26.4734 185.681 24.9774C185.025 25.0484 184.927 25.6788 184.647 26.1266C183.712 26.4936 183 27.0837 182.694 28.0801C181.921 27.9203 181.845 28.4574 181.659 28.8845C181.082 28.4815 180.778 29.1864 180.625 29.574C179.766 29.4047 179.621 29.9487 179.131 30.1486C174.914 31.1389 174.501 27.4588 173.96 24.4028C173.091 25.7557 171.651 26.5367 170.972 28.0801C170.732 28.3306 170.644 28.0227 170.283 28.0801C170.081 29.5636 168.528 29.6963 168.214 31.0679C168.081 31.1644 167.906 31.2195 167.64 31.1828C165.968 33.9532 161.251 32.8876 161.664 28.6547C161.713 28.435 161.706 28.16 162.009 28.195C161.517 27.0152 162.389 26.4374 162.813 25.6669C163.677 24.0989 164.257 22.4185 165.571 21.0703C166.645 19.9688 167.976 18.8406 169.364 18.0825C169.995 17.7375 170.928 17.34 171.892 17.5079C173.317 16.5384 174.487 18.0973 174.765 19.3466C176.866 16.6979 177.579 12.6616 179.706 10.0384C179.632 9.58118 180.01 9.57635 179.936 9.1191C180.238 8.88548 180.613 8.72402 180.97 8.54453C180.972 8.2739 180.772 8.20622 180.855 7.85504C182.183 6.7838 183.742 2.97459 185.452 1.99436C186.284 1.51746 187.709 2.49505 187.865 3.37334C188.013 4.21084 187.409 5.79346 186.946 6.93571C186.549 7.91318 186.105 9.30101 185.681 10.0384C185.541 10.2835 184.454 11.3728 184.302 11.7622C184.204 12.0173 184.41 12.2481 184.302 12.4516C184.205 12.6369 183.849 12.7119 183.728 12.9113C183.299 13.6193 183.085 14.5369 182.694 15.2096C182.459 15.3196 182.239 15.4444 182.004 15.5544C181.908 15.8407 181.854 16.17 181.889 16.5886ZM182.923 10.613C182.661 10.9719 182.128 11.0599 181.889 11.4174C181.516 11.9778 181.728 12.7477 181.315 13.371C180.959 13.9081 180.043 14.136 180.28 14.9798C180.606 13.9357 181.553 13.4758 182.119 12.7964C182.402 12.4573 182.746 11.6715 183.153 11.0727C184.07 9.7262 185.272 8.39284 185.337 6.47605C184.011 7.39905 183.867 9.32135 182.923 10.613ZM189.244 24.5177C191.376 23.4318 193.072 21.9103 194.76 20.3808C192.171 20.4741 189.457 22.0494 189.244 24.5177ZM169.938 21.5299C169.412 22.3449 168.731 23.004 167.755 23.3686C167.604 24.0988 167.104 24.4802 166.491 24.7476C166.131 26.5555 164.045 27.656 164.882 29.9188C167.832 29.3834 168.704 26.7695 170.972 25.552C171.867 23.7649 173.378 22.5946 174.19 20.7255C172.604 20.5164 171.309 21.4901 169.938 21.5299Z" fill="black"/>
</svg>
