<svg width="227" height="37" viewBox="0 0 227 37" fill="none" xmlns="http://www.w3.org/2000/svg">
<path fill-rule="evenodd" clip-rule="evenodd" d="M36.9804 31.7582C35.6547 30.8622 34.4433 29.8519 33.1882 28.8853C34.3249 27.0138 35.8439 25.0859 37.3251 23.1395C39.4798 20.3083 42.9532 17.626 42.841 13.2568C42.6612 6.24631 34.2059 2.32908 28.9363 7.16632C27.4914 8.49268 26.3512 10.5067 25.0292 12.2226C21.2795 17.0897 16.9539 22.5365 13.3078 27.2765C11.9426 26.42 10.7934 25.3475 9.51562 24.4036C13.448 18.9212 18.5143 12.4938 22.9607 6.70666C25.9931 2.7599 30.7711 -1.47369 38.0146 0.501243C43.4431 1.98135 47.645 6.83548 47.7824 13.027C47.8866 17.7243 45.6551 20.6009 43.4156 23.4843C41.198 26.3395 38.9632 29.1175 36.9804 31.7582Z" fill="white"/>
<path fill-rule="evenodd" clip-rule="evenodd" d="M14.5729 8.20101C13.2829 10.1577 11.747 12.11 10.2061 14.0617C8.71523 15.9502 6.88635 17.8188 5.83936 19.8074C3.03853 25.1269 6.92692 30.7721 11.3553 31.7586C17.2402 33.0696 19.9673 28.347 22.7319 24.7488C26.4373 19.9261 30.7842 14.4537 34.4532 9.80982C35.8371 10.6477 37.0577 11.6488 38.2454 12.6827C33.9921 18.3977 29.387 24.3436 24.8004 30.2647C22.6724 33.0118 20.4877 35.4466 16.8712 36.4701C8.58376 38.8157 1.01729 33.0847 0.0935974 25.0935C-0.466384 20.2492 1.57359 17.0143 3.8858 14.0617C6.27477 11.011 8.59066 8.08345 10.7807 5.32812C12.1889 6.14161 13.3707 7.18159 14.5729 8.20101Z" fill="white"/>
<path fill-rule="evenodd" clip-rule="evenodd" d="M60.1926 7.16602C62.759 7.16602 65.3255 7.16602 67.8919 7.16602C67.8919 10.0557 67.8919 12.9688 67.8919 16.1294C67.8919 18.9428 67.3995 22.4843 68.3516 24.5182C69.6808 27.3579 74.7292 27.2172 75.936 24.4033C76.7833 22.4273 76.2807 18.7765 76.2807 15.8996C76.2807 12.8232 76.2807 9.777 76.2807 7.16602C78.8855 7.16602 81.4902 7.16602 84.0949 7.16602C83.3839 15.0984 85.749 23.5712 82.2563 28.4253C81.4664 29.5231 80.0022 30.8831 78.579 31.528C75.3383 32.9965 68.534 33.0387 65.1339 31.2982C63.554 30.4894 61.9931 28.835 61.2268 27.2762C58.8468 22.434 60.6672 14.563 60.0777 7.51076C60.0678 7.3477 60.0587 7.18532 60.1926 7.16602Z" fill="white"/>
<path fill-rule="evenodd" clip-rule="evenodd" d="M89.4969 7.16602C92.0251 7.16602 94.5532 7.16602 97.0813 7.16602C97.0813 15.4782 97.0813 23.7905 97.0813 32.1026C94.5149 32.1026 91.9484 32.1026 89.382 32.1026C89.382 23.9054 89.382 15.708 89.382 7.51076C89.3721 7.3477 89.363 7.18532 89.4969 7.16602Z" fill="white"/>
<path fill-rule="evenodd" clip-rule="evenodd" d="M102.713 7.16602C105.241 7.16602 107.769 7.16602 110.297 7.16602C110.297 9.77264 110.297 12.8372 110.297 15.8996C110.297 18.7696 109.823 22.261 110.642 24.2884C111.748 27.026 116.745 27.5051 118.226 24.748C119.246 22.8506 118.686 18.8877 118.686 16.1294C118.686 12.9249 118.686 10.0768 118.686 7.16602C121.291 7.16602 123.896 7.16602 126.5 7.16602C126.115 17.7043 128.579 28.0869 120.984 31.528C118.064 32.8514 110.925 33.0391 107.539 31.2982C105.961 30.4867 104.392 28.8213 103.632 27.2762C101.261 22.452 103.277 14.4618 102.598 7.51076C102.588 7.3477 102.579 7.18532 102.713 7.16602Z" fill="white"/>
<path fill-rule="evenodd" clip-rule="evenodd" d="M129.717 7.28165C132.36 7.01366 135.501 7.24327 138.335 7.16673C139.734 9.67579 141.211 12.1056 142.587 14.6362C144.108 12.25 145.421 9.65603 146.839 7.16673C149.674 7.16673 152.508 7.16673 155.343 7.16673C152.796 11.1704 150.27 15.194 147.644 19.1179C150.343 23.5431 153.404 27.6067 156.032 32.1033C153.16 32.1033 150.287 32.1033 147.414 32.1033C145.79 29.4755 144.102 26.9111 142.587 24.1742C140.825 26.7019 139.245 29.4124 137.646 32.1033C134.773 32.1033 131.9 32.1033 129.027 32.1033C131.688 27.6007 134.658 23.4078 137.531 19.1179C134.93 15.1693 132.406 11.1423 129.717 7.28165Z" fill="white"/>
<path fill-rule="evenodd" clip-rule="evenodd" d="M181.889 16.5896C180.869 16.9098 180.915 18.2969 179.706 18.4282C179.681 18.7982 179.909 18.9144 179.821 19.3475C177.898 20.9769 177.444 25.3738 177.982 28.0811C179.74 27.5439 180.798 26.3501 182.004 25.2082C182.26 24.9665 182.78 24.8499 183.038 24.6336C183.922 23.8953 184.342 22.3544 185.911 22.2204C186.153 22.6747 185.737 23.3816 186.026 23.9441C186.76 23.2992 186.749 21.9091 187.98 21.7608C188.433 19.7625 190.48 19.3581 192.002 18.4282C193.981 18.1422 197.444 17.6219 197.862 19.4624C198.345 21.5837 195.583 22.1886 194.53 23.3696C194.326 23.5841 194.238 23.2761 193.84 23.3696C193.562 23.5893 193.354 23.8789 193.266 24.2889C191.727 24.3588 191.719 25.9592 190.163 26.0126C189.714 26.9427 188.762 27.3692 187.75 27.7363C187.663 28.224 187.482 28.6172 187.52 29.2302C188.69 30.3921 190.732 29.086 192.117 29.0004C195.33 26.8124 198.922 25.004 201.54 22.2204C203.09 21.9799 204.63 20.9154 205.447 19.5774C208.107 19.41 209.226 22.4385 208.09 24.6336C208.854 24.6905 209.639 23.8213 210.043 23.1397C211.932 22.5799 214.937 19.0428 217.513 20.037C219.829 20.9308 219.512 25.3631 218.432 27.5065C218.649 28.1325 218.94 28.6839 219.237 29.2302C220.744 29.2741 220.861 27.3407 222.224 27.6214C222.221 26.9287 222.727 26.7449 222.914 26.2424C224.353 25.7658 224.981 24.4788 226.476 24.0591C227.057 27.6574 223.139 28.4603 221.765 30.8391C220.63 30.9686 220.329 31.9317 219.467 32.333C217.096 32.4862 215.873 31.1003 215.215 29.2302C215.197 28.9444 215.395 28.8745 215.444 28.6557C214.74 27.0998 215.527 24.7488 214.985 23.2546C211.846 24.1758 210.201 26.591 207.63 28.0811C207.637 28.9309 206.882 29.0182 206.596 29.575C206.242 29.6606 206.375 29.2595 206.021 29.3452C205.433 30.7863 203.635 31.0188 202.919 32.333C202.134 32.0831 201.546 31.6369 201.195 30.954C201.242 30.311 201.131 29.7555 201.195 29.2302C201.313 28.2676 201.74 28.0513 202.229 27.3916C202.607 26.8817 202.999 25.7375 203.953 25.6679C203.972 24.5759 204.495 23.9885 204.872 23.2546C202.553 24.651 200.225 26.0385 198.667 28.196C198.313 28.2816 198.446 27.8806 198.092 27.9662C197.694 28.7558 197.099 29.3477 196.024 29.4601C195.612 30.2507 194.053 30.9277 192.921 31.4136C191.669 31.9515 190.421 32.4995 189.589 31.8733C187.206 32.6571 185.64 30.917 185.222 29.0004C185.129 28.6334 184.631 28.672 184.417 28.4258C184.092 26.5297 185.607 26.4743 185.681 24.9784C185.025 25.0494 184.927 25.6798 184.647 26.1275C183.712 26.4946 183 27.0847 182.694 28.0811C181.921 27.9212 181.845 28.4584 181.659 28.8855C181.082 28.4825 180.778 29.1874 180.625 29.575C179.766 29.4057 179.621 29.9497 179.131 30.1496C174.914 31.1399 174.501 27.4597 173.96 24.4038C173.091 25.7567 171.651 26.5377 170.972 28.0811C170.732 28.3316 170.644 28.0236 170.283 28.0811C170.081 29.5645 168.528 29.6973 168.214 31.0689C168.081 31.1654 167.906 31.2205 167.64 31.1838C165.968 33.9542 161.251 32.8886 161.664 28.6557C161.713 28.4359 161.706 28.161 162.009 28.196C161.517 27.0162 162.389 26.4384 162.813 25.6679C163.677 24.0998 164.257 22.4194 165.571 21.0713C166.645 19.9698 167.976 18.8416 169.364 18.0835C169.995 17.7385 170.928 17.341 171.892 17.5089C173.317 16.5393 174.487 18.0983 174.765 19.3475C176.866 16.6989 177.579 12.6626 179.706 10.0394C179.632 9.58215 180.01 9.57733 179.936 9.12008C180.238 8.88646 180.613 8.725 180.97 8.5455C180.972 8.27488 180.772 8.20719 180.855 7.85601C182.183 6.78477 183.742 2.97556 185.452 1.99534C186.284 1.51844 187.709 2.49602 187.865 3.37432C188.013 4.21182 187.409 5.79443 186.946 6.93669C186.549 7.91416 186.105 9.30199 185.681 10.0394C185.541 10.2845 184.454 11.3738 184.302 11.7631C184.204 12.0182 184.41 12.2491 184.302 12.4526C184.205 12.6379 183.849 12.7129 183.728 12.9123C183.299 13.6203 183.085 14.5379 182.694 15.2106C182.459 15.3206 182.239 15.4454 182.004 15.5553C181.908 15.8417 181.854 16.1709 181.889 16.5896ZM182.923 10.614C182.661 10.9729 182.128 11.0609 181.889 11.4184C181.516 11.9788 181.728 12.7486 181.315 13.3719C180.959 13.9091 180.043 14.1369 180.28 14.9808C180.606 13.9366 181.553 13.4767 182.119 12.7974C182.402 12.4583 182.746 11.6725 183.153 11.0736C184.07 9.72718 185.272 8.39382 185.337 6.47703C184.011 7.40003 183.867 9.32233 182.923 10.614ZM189.244 24.5187C191.376 23.4328 193.072 21.9113 194.76 20.3818C192.171 20.4751 189.457 22.0503 189.244 24.5187ZM169.938 21.5309C169.412 22.3459 168.731 23.0049 167.755 23.3696C167.604 24.0997 167.104 24.4811 166.491 24.7485C166.131 26.5565 164.045 27.6569 164.882 29.9197C167.832 29.3843 168.704 26.7705 170.972 25.553C171.867 23.7659 173.378 22.5956 174.19 20.7265C172.604 20.5174 171.309 21.491 169.938 21.5309Z" fill="white"/>
</svg>
