<svg width="40" height="31" viewBox="0 0 40 31" fill="none" xmlns="http://www.w3.org/2000/svg">
<path fill-rule="evenodd" clip-rule="evenodd" d="M30.6129 26.353C29.5275 25.6193 28.5356 24.7921 27.5079 24.0007C28.4386 22.4683 29.6824 20.8897 30.8952 19.2961C32.6594 16.9779 35.5034 14.7817 35.4116 11.2042C35.2643 5.46404 28.3412 2.25665 24.0265 6.21734C22.8434 7.30335 21.9098 8.9524 20.8274 10.3574C17.7572 14.3425 14.2154 18.8023 11.23 22.6834C10.1122 21.9821 9.17121 21.104 8.125 20.3311C11.3448 15.8422 15.493 10.5794 19.1337 5.84098C21.6166 2.6094 25.5289 -0.857037 31.4597 0.760023C35.9045 1.97192 39.345 5.94645 39.4575 11.016C39.5429 14.8621 37.7157 17.2175 35.8821 19.5784C34.0663 21.9162 32.2365 24.1908 30.6129 26.353Z" fill="white"/>
<path fill-rule="evenodd" clip-rule="evenodd" d="M12.2662 7.06323C11.2099 8.66533 9.95237 10.2639 8.69069 11.8619C7.46995 13.4082 5.97248 14.9382 5.11521 16.5665C2.82191 20.922 6.00569 25.5443 9.63161 26.352C14.4501 27.4254 16.683 23.5586 18.9467 20.6124C21.9807 16.6637 25.5399 12.1829 28.544 8.38051C29.6771 9.06654 30.6765 9.88626 31.6491 10.7328C28.1665 15.4122 24.3958 20.2807 20.6403 25.1288C18.8979 27.3781 17.1092 29.3717 14.148 30.2098C7.3623 32.1303 1.16693 27.4378 0.410621 20.8947C-0.0478877 16.9282 1.62243 14.2795 3.51565 11.8619C5.47172 9.36405 7.36795 6.96697 9.16115 4.71094C10.3142 5.37701 11.2818 6.22854 12.2662 7.06323Z" fill="white"/>
</svg>
