<svg width="248" height="80" viewBox="0 0 248 80" fill="none" xmlns="http://www.w3.org/2000/svg">
<path d="M18.1094 63.2475C15.8043 63.2475 15.0577 61.4998 14.8118 60.9386C14.5061 60.2249 14.2954 59.5503 14.2954 57.6203C14.2954 55.3127 15.0394 51.9215 17.8284 51.9215C19.5455 51.9215 20.7085 52.8344 21.7791 54.4428H22.635C22.6168 53.3462 22.0275 51.54 21.969 51.398C20.287 50.9292 18.4736 50.8862 17.8831 50.8862C14.2785 50.8862 11.375 53.5494 11.375 57.7128C11.375 61.0375 13.3184 64.1982 18.1523 64.1982C19.3738 64.1982 21.3199 64.0797 22.2942 63.2618C22.5231 62.3567 22.7313 61.4178 22.8275 60.4658C22.3293 60.4893 22.1784 60.5062 21.93 60.5479C21.2041 61.6665 19.8863 63.2475 18.1094 63.2475Z" fill="white"/>
<path d="M39.8622 51.2926C39.4043 51.3121 38.586 51.3551 38.1438 51.3551C37.4387 51.3551 36.6946 51.273 36.6946 51.273C36.1626 51.1923 35.4536 51.2144 35.2247 51.2353C35.1662 51.4371 35.1662 51.4801 35.1466 51.7992C35.4328 51.9046 36.7727 52.1898 36.9054 52.4269C36.9808 52.5297 37.0368 54.6238 37.0368 54.8452V55.2919C37.0368 56.4665 36.9821 56.4522 36.9587 56.796C36.3889 56.8976 33.8705 56.8976 32.9925 56.8976H32.3043C32.0559 56.8794 30.7797 56.8611 30.4923 56.813C30.4715 56.5746 30.5092 55.8193 30.5092 55.3518C30.5092 55.0288 30.5469 53.4257 30.5469 53.0611V52.5297C30.5469 52.4933 30.6028 52.3097 30.7576 52.2497L32.359 51.9685C32.398 51.7015 32.398 51.622 32.3785 51.273C32.1846 51.2587 32.1287 51.2353 31.8074 51.2353C31.598 51.2353 31.555 51.2587 31.3859 51.2939C30.2984 51.3824 30.1866 51.3564 29.877 51.3564H29.1537C29.0015 51.3564 28.5254 51.2939 28.0831 51.2743C27.646 51.26 27.2454 51.2157 27.2259 51.2157C26.9748 51.2157 26.4818 51.2157 26.2307 51.2743C26.1722 51.5218 26.1722 51.5621 26.2164 51.9698C26.4623 52.0492 27.7228 52.1898 27.8529 52.2511C27.9504 52.531 28.0064 53.5507 28.0064 53.8333V60.3864C28.0064 61.0792 27.9504 61.9114 27.8919 63.0066C27.5277 63.146 27.3976 63.1668 26.2294 63.3713C26.1709 63.7919 26.1709 63.7919 26.1709 64.081H27.3208C27.4912 64.081 28.5774 63.9586 28.7478 63.9586C29.2851 63.9586 31.7684 64.1031 32.3577 64.081C32.3577 64.0432 32.3967 63.8596 32.3967 63.7125C32.3967 63.6486 32.3785 63.4872 32.3577 63.4103C32.1105 63.2306 30.7186 63.1251 30.5443 63.0066C30.4884 62.517 30.4506 59.4136 30.4506 58.769C30.4506 58.7377 30.4884 58.1361 30.4884 58.015C30.755 57.9316 31.2897 57.9525 31.8607 57.9525L36.1769 57.9902C36.5567 57.9902 36.6517 58.015 36.9184 58.028C36.9405 58.5229 36.9405 58.5619 36.9405 58.7377L37.0159 59.454V60.2901C37.0159 61.8945 37.0159 62.151 36.9028 62.9675C36.3278 63.0848 35.7151 63.2293 35.144 63.3517C35.1102 63.5536 35.1102 63.5979 35.1102 63.9951L35.4133 64.0576C35.6787 64.0576 36.3122 63.9807 36.575 63.9807C37.0563 63.9391 37.1122 63.9391 37.5883 63.9391C38.1581 63.9391 38.8865 63.9573 39.5552 63.9951C40.2446 64.0432 40.8911 64.0797 41.3139 64.0797V63.37C41.0823 63.2619 39.8609 62.9675 39.5903 62.8595C39.6098 62.5964 39.5903 61.216 39.5903 60.9151V52.6313C39.5903 52.6313 39.6293 52.4724 39.6475 52.4256C40.0898 52.2133 40.3174 52.1482 41.3139 51.9411C41.3308 51.6794 41.3516 51.5791 41.3516 51.2327C41.163 51.2131 40.9692 51.2131 40.7025 51.2131C40.588 51.2144 39.9974 51.273 39.8622 51.2926Z" fill="white"/>
<path d="M179.238 51.2926C178.779 51.3121 177.962 51.3551 177.519 51.3551C176.812 51.3551 176.07 51.273 176.07 51.273C175.536 51.1923 174.83 51.2144 174.604 51.2353C174.542 51.4371 174.542 51.4801 174.527 51.7992C174.812 51.9046 176.146 52.1898 176.284 52.4269C176.358 52.5297 176.414 54.6238 176.414 54.8452V55.2919C176.414 56.4665 176.358 56.4522 176.339 56.796C175.764 56.8976 173.249 56.8976 172.366 56.8976H171.682C171.433 56.8794 170.147 56.8611 169.866 56.813C169.848 56.5746 169.885 55.8193 169.885 55.3518C169.885 55.0288 169.923 53.4257 169.923 53.0611V52.5297C169.923 52.4933 169.98 52.3097 170.134 52.2497L171.738 51.9685C171.774 51.7015 171.774 51.622 171.756 51.273C171.562 51.2587 171.505 51.2353 171.182 51.2353C170.974 51.2353 170.938 51.2587 170.764 51.2939C169.673 51.3824 169.562 51.3564 169.256 51.3564H168.527C168.375 51.3564 167.899 51.2939 167.462 51.2743C167.024 51.26 166.623 51.2157 166.601 51.2157C166.359 51.2157 165.859 51.2157 165.611 51.2743C165.551 51.5218 165.551 51.5621 165.593 51.9698C165.844 52.0492 167.099 52.1898 167.229 52.2511C167.328 52.531 167.388 53.5507 167.388 53.8333V60.3864C167.388 61.0792 167.328 61.9114 167.267 63.0066C166.909 63.146 166.773 63.1668 165.61 63.3713C165.55 63.7919 165.55 63.7919 165.55 64.081H166.698C166.869 64.081 167.954 63.9586 168.127 63.9586C168.664 63.9586 171.149 64.1031 171.739 64.081C171.739 64.0432 171.776 63.8596 171.776 63.7125C171.776 63.6486 171.757 63.4872 171.739 63.4103C171.487 63.2306 170.096 63.1251 169.923 63.0066C169.867 62.517 169.831 59.4136 169.831 58.769C169.831 58.7377 169.867 58.1361 169.867 58.015C170.135 57.9316 170.671 57.9525 171.242 57.9525L175.556 57.9902C175.937 57.9902 176.033 58.015 176.302 58.028C176.322 58.5229 176.322 58.5619 176.322 58.7377L176.396 59.454V60.2901C176.396 61.8945 176.396 62.151 176.283 62.9675C175.708 63.0848 175.097 63.2293 174.526 63.3517C174.485 63.5536 174.485 63.5979 174.485 63.9951L174.792 64.0576C175.058 64.0576 175.686 63.9807 175.955 63.9807C176.433 63.9391 176.49 63.9391 176.969 63.9391C177.538 63.9391 178.267 63.9573 178.934 63.9951C179.621 64.0432 180.269 64.0797 180.686 64.0797V63.37C180.459 63.2619 179.237 62.9675 178.972 62.8595C178.987 62.5964 178.972 61.216 178.972 60.9151V52.6313C178.972 52.6313 179.007 52.4724 179.025 52.4256C179.469 52.2133 179.695 52.1482 180.686 51.9411C180.707 51.6794 180.727 51.5791 180.727 51.2327C180.537 51.2131 180.344 51.2131 180.075 51.2131C179.966 51.2144 179.374 51.273 179.238 51.2926Z" fill="white"/>
<path d="M56.0525 51.2925C55.9393 51.2925 55.5607 51.273 55.177 51.2573C54.8141 51.2352 54.4329 51.2144 54.282 51.2144H53.5353V51.9853H54.5292C54.7607 51.9853 55.2134 52.1676 55.3305 52.5297C55.3708 52.6547 55.67 56.1643 55.67 59.0059C55.67 59.8185 55.6531 60.8942 55.1952 61.7681C54.7191 62.6367 53.7838 63.3087 51.9301 63.3087C51.5295 63.3087 49.8137 63.1889 49.3155 61.5011C49.1047 60.794 48.9694 58.5241 48.9902 57.7909L49.0293 56.0836C48.9681 55.2931 48.9681 55.1147 48.9681 53.4907C48.9681 53.1821 48.9889 52.4281 49.0657 52.3109C49.1034 52.2731 49.2972 52.1051 49.5613 52.0908C49.6563 52.0908 50.7997 52.027 50.8608 52.0061V51.2352C50.1168 51.273 48.1135 51.3368 47.3668 51.3368C46.9648 51.3368 45.0357 51.2144 44.5986 51.2352L44.6351 52.027C44.756 52.0491 45.3791 52.0647 45.5339 52.0908C45.7252 52.1051 46.1648 52.1494 46.3196 52.4268C46.451 52.6338 46.4302 52.9438 46.4302 58.9265C46.4302 61.0935 46.4302 64.3231 51.3356 64.3231C52.6365 64.3231 54.0505 64.12 55.1926 63.2084C56.6235 62.0741 56.604 60.9398 56.604 58.3769C56.604 57.9706 56.5091 55.9443 56.4934 55.4754C56.4531 54.7084 56.4531 54.6029 56.4531 53.9739C56.4531 53.7733 56.4011 52.8149 56.4011 52.5974C56.4011 52.1885 56.5507 52.1676 57.218 52.0895C57.5601 52.0634 57.6018 52.0634 57.94 51.9671C57.9803 51.7978 57.9803 51.7431 57.9803 51.6793C57.9803 51.5595 57.94 51.381 57.9244 51.2339C57.8476 51.2144 56.1877 51.2925 56.0525 51.2925Z" fill="white"/>
<path d="M65.5336 63.297C63.9713 62.8321 63.6617 62.7448 63.6617 61.5298C63.6617 60.8031 63.7228 59.2768 63.7385 58.4863L63.7983 53.7994H63.836C63.8529 53.8802 64.5216 55.4221 64.6542 55.745L66.05 58.9122C66.1619 59.2169 66.3544 59.6831 66.4871 59.9683C67.4458 62.1418 67.5343 62.3776 68.0728 64.0015H68.7987C68.8741 63.7619 69.3151 62.4257 69.5792 61.6248L70.5548 59.3198L72.8469 53.6588H72.882C72.9015 53.9388 72.9015 54.026 72.9379 54.6902L73.0927 58.1803C73.1305 59.157 73.1708 60.6794 73.1708 61.6522C73.1708 62.6458 73.0576 62.7448 72.7883 62.8685C72.5958 62.9558 71.6618 63.1498 71.4511 63.2345V63.926C72.2745 63.8882 73.5727 63.8062 74.3936 63.8062C74.6225 63.8062 75.5175 63.8465 75.8622 63.8674C77.0095 64.0028 77.1253 63.9859 77.5637 64.0028V63.3373C77.3491 63.2774 75.9025 62.8086 75.8492 62.7096C75.6892 62.4856 75.5981 57.2309 75.5383 56.417C75.498 55.8466 75.3471 53.2186 75.3471 52.7823C75.3471 52.1768 77.0655 51.8916 77.1591 51.8733V51.0998C76.9705 51.0607 76.3396 51.1232 75.9194 51.1623L73.2475 51.2391C72.9236 51.2613 72.9041 51.3016 72.6544 51.8903C72.0443 53.3345 71.5278 54.8308 70.9008 56.292L69.2943 59.9501C69.1824 59.7443 68.5893 58.3821 68.2237 57.5331L66.7759 54.1614C66.5821 53.7161 66.3167 52.9672 66.1073 52.501C65.9356 52.109 65.6689 51.5243 65.4386 51.26C64.3694 51.1987 62.0409 51.1219 62.0227 51.1219H61.717C61.3918 51.1401 61.354 51.1401 61.2187 51.1401C61.2005 51.4813 61.2005 51.5881 61.2187 51.8707C61.3709 51.9111 61.4295 51.9306 61.8705 52.0127C62.2893 52.096 62.5963 52.1742 62.7446 52.2966C63.0529 52.518 62.9775 54.1601 62.9775 54.405L62.8422 57.998C62.8201 58.4655 62.8019 58.502 62.8019 58.7728C62.8019 59.6362 62.8019 61.3461 62.6119 62.1757C62.4766 62.7852 62.4194 63.0469 60.9169 63.254L60.874 63.9403C61.181 63.9221 62.4949 63.8413 62.7082 63.8413C63.3157 63.8413 64.0038 63.883 64.3069 63.9221C64.8988 63.9807 64.9599 63.9807 65.531 63.9989V63.297H65.5336Z" fill="white"/>
<path d="M86.3816 51.105L86.3062 51.2847C85.3865 53.9414 85.2187 54.2305 84.4304 56.4808C83.8645 58.1425 83.4781 59.2846 83.1933 60.0738C82.4479 62.1666 82.2228 62.8099 81.9315 63.0756C81.761 63.2162 80.6358 63.4181 80.3887 63.5014V64.1903C80.7126 64.1903 81.6635 63.8882 82.5246 63.9273C83.1308 64.0106 83.7851 64.1109 84.3965 64.1903H85.0274C85.0483 64.0315 85.0274 63.6863 85.0274 63.4389C83.6121 63.2006 83.4079 63.1759 83.4079 62.694C83.4079 62.3867 84.2652 60.0126 84.3965 59.6688H87.9647C88.2938 60.5778 88.3068 60.7367 88.8441 62.0181C89.0951 62.6054 89.1121 62.668 89.1121 62.8542C89.1121 63.099 88.8662 63.1758 88.7491 63.2019C88.5761 63.2592 87.6616 63.4624 87.4548 63.5014C87.434 63.784 87.4119 63.8882 87.4119 64.1903L88.4812 64.1526C89.5921 64.1109 89.7013 64.0536 90.6952 64.0536C90.9059 64.0536 91.4991 64.0901 92.0871 64.1122C92.7023 64.1539 93.3111 64.1916 93.5388 64.1916C93.5388 63.9676 93.5596 63.8687 93.4985 63.4845C93.3476 63.4181 93.1928 63.3582 92.7947 63.2787C92.7752 63.2592 92.2978 63.1537 92.2419 63.1394C91.9166 62.9584 91.4601 61.6795 91.0217 60.3785C90.9436 60.1559 90.4857 59.0411 90.3895 58.8002C89.8145 57.214 87.715 51.7926 87.3702 51.1063L86.3816 51.105ZM84.7803 58.6087L86.1136 54.7722C86.5559 55.7112 87.3715 57.9615 87.5823 58.6087H84.7803Z" fill="white"/>
<path d="M102.159 64.1995C103.378 64.1995 105.329 64.081 106.297 63.2631C106.53 62.358 106.74 61.4191 106.834 60.4671C106.341 60.4906 106.185 60.5075 105.942 60.5492C105.214 61.6665 103.897 63.2475 102.12 63.2475C99.8121 63.2475 99.0655 61.4998 98.8209 60.9386C98.5152 60.2249 98.3032 59.5503 98.3032 57.6203C98.3032 55.3127 99.0473 51.9215 101.834 51.9215C103.552 51.9215 104.719 52.8344 105.791 54.4428H106.644C106.625 53.3462 106.035 51.54 105.975 51.398C104.294 50.9292 102.483 50.8862 101.893 50.8862C98.2824 50.8862 95.3828 53.5494 95.3828 57.7128C95.3828 61.0388 97.3237 64.1995 102.159 64.1995Z" fill="white"/>
<path d="M112.098 62.8999C111.731 63.0405 111.598 63.0691 110.437 63.2645C110.381 63.6968 110.381 63.6968 110.381 63.9807H111.526C111.696 63.9807 112.784 63.8596 112.958 63.8596C113.494 63.8596 115.969 63.9964 116.564 63.9807C116.564 63.9404 116.605 63.7568 116.605 63.6122C116.605 63.5549 116.586 63.3895 116.564 63.3101C116.318 63.1251 114.925 63.0275 114.754 62.9012C114.693 62.4154 114.654 59.316 114.654 58.6661C114.654 58.6401 114.693 58.0306 114.693 57.916C114.958 57.8314 115.496 57.8522 116.066 57.8522L120.38 57.89C120.764 57.89 120.859 57.916 121.127 57.9329C121.145 58.42 121.145 58.463 121.145 58.6401L121.219 59.3511V60.1924C121.219 61.7916 121.219 62.0521 121.108 62.8621C120.535 62.991 119.922 63.1251 119.35 63.2502C119.316 63.4507 119.316 63.495 119.316 63.8935L119.618 63.9599C119.883 63.9599 120.52 63.8779 120.781 63.8779C121.262 63.8388 121.32 63.8388 121.792 63.8388C122.365 63.8388 123.09 63.8609 123.759 63.8935C124.447 63.9417 125.095 63.9821 125.516 63.9821V63.2658C125.287 63.1694 124.068 62.8634 123.798 62.7605C123.818 62.4987 123.798 61.1131 123.798 60.8175V52.5311C123.798 52.5311 123.837 52.3722 123.854 52.3344C124.293 52.1052 124.52 52.0453 125.516 51.8474C125.534 51.5817 125.55 51.4801 125.55 51.1311C125.364 51.1116 125.175 51.1116 124.907 51.1116C124.79 51.1116 124.2 51.1754 124.067 51.1923C123.609 51.2158 122.787 51.2587 122.346 51.2587C121.638 51.2587 120.894 51.1754 120.894 51.1754C120.365 51.0907 119.654 51.1116 119.426 51.1311C119.37 51.333 119.37 51.3746 119.347 51.7015C119.635 51.7979 120.972 52.0883 121.105 52.3331C121.183 52.4256 121.239 54.521 121.239 54.7449V55.189C121.239 56.3689 121.183 56.3494 121.16 56.6919C120.59 56.7947 118.066 56.7947 117.191 56.7947H116.503C116.255 56.7765 114.975 56.7544 114.689 56.7114C114.67 56.4718 114.71 55.7217 114.71 55.2515C114.71 54.9273 114.75 53.3255 114.75 52.9634V52.4256C114.75 52.3943 114.805 52.2068 114.955 52.1482L116.56 51.8643C116.601 51.6038 116.601 51.5205 116.582 51.1754C116.388 51.1532 116.332 51.1311 116.01 51.1311C115.796 51.1311 115.758 51.1532 115.587 51.1923C114.501 51.2731 114.384 51.2587 114.08 51.2587H113.355C113.202 51.2587 112.724 51.1923 112.284 51.1754C111.844 51.1532 111.445 51.1116 111.425 51.1116C111.177 51.1116 110.683 51.1116 110.433 51.1754C110.377 51.4163 110.377 51.4593 110.412 51.8643C110.662 51.9437 111.922 52.0883 112.052 52.1482C112.151 52.4256 112.207 53.4492 112.207 53.7292V60.2901C112.211 60.9738 112.155 61.8098 112.098 62.8999Z" fill="white"/>
<path d="M140.367 60.2901C139.757 62.013 138.953 62.4962 138.69 62.6368C137.999 62.9897 136.092 63.0262 136.014 63.0262C133.42 63.0262 133.439 62.7605 133.439 62.2969V60.1429C133.42 59.678 133.402 58.2781 133.42 57.8314C134.11 57.7519 134.817 57.7519 135.519 57.7519C136.89 57.7519 137.198 57.7519 137.387 58.3341L137.748 59.8968H138.419C138.419 59.6194 138.376 58.2546 138.376 57.9525V56.1462C138.376 55.6813 138.376 55.5967 138.343 54.8036H137.694C137.429 56.184 137.333 56.6333 136.931 56.757C136.162 56.981 133.552 56.9367 133.419 56.9159V56.6333V55.6813C133.401 55.051 133.381 52.449 133.419 52.0662C133.684 52.0466 135.156 52.0284 135.443 52.0284C135.481 52.0284 137.999 52.0909 138.478 52.229C138.784 52.5988 138.855 52.7395 139.452 53.8555C139.585 54.2215 139.585 54.2397 139.681 54.422C139.906 54.4454 140.003 54.4454 140.365 54.422C140.385 54.0561 140.365 52.2081 140.365 51.7992C140.365 51.4606 140.311 51.376 140.192 51.2588C139.469 51.1767 139.087 51.1129 138.509 51.1129C137.446 51.1129 136.224 51.1129 135.156 51.1546C134.784 51.1702 133.385 51.2145 132.365 51.2405C131.733 49.2467 130.744 47.6019 129.606 46.4898C125.186 42.1779 117.458 39.2647 109.4 36.7201C106.072 35.6691 98.0611 33.0867 102.76 27.423C107.488 21.7229 119.65 17.9346 128.164 16.8251C131.915 16.3432 133.93 17.1493 134.513 18.3227C136.57 22.4561 122.415 29.8805 122.229 29.9925C121.777 30.2659 121.537 30.6345 121.717 30.9796C121.845 31.2283 122.328 31.3091 122.851 31.0434C123.366 30.7842 128.906 27.7877 132.717 24.6765C134.789 22.981 136.248 21.2255 136.559 19.5091C137.899 12.0991 122.622 15.9825 117.829 17.3369C105.687 20.7736 98.0741 26.6143 98.0403 31.3872C98.0077 35.9478 104.227 37.8556 108.626 39.2777C111.699 40.2701 121.406 42.846 126.34 47.2165C133.788 53.8138 130.665 66.0735 120.528 71.5978C104.595 80.2789 80.3463 78.1679 69.4389 72.1214C67.7231 71.1694 66.136 70.2122 65.6677 70.3554C64.7858 70.625 65.5286 71.6851 66.2063 72.2438C68.073 73.7831 70.6356 75.1739 73.5833 76.1688C94.4448 83.0384 123.733 79.2709 131.282 63.8792C131.3 63.8792 131.322 63.8779 131.334 63.8779C131.81 63.861 132.516 63.8388 132.919 63.8388C134.107 63.8388 135.898 63.8779 137.138 63.9157C137.829 63.9417 138.508 63.9417 139.108 63.9599C139.719 63.9821 140.229 63.9821 140.536 63.9599C140.577 63.676 140.806 62.2982 140.864 61.97C141.089 60.6977 141.104 60.5519 141.143 60.268C140.787 60.2445 140.671 60.2445 140.367 60.2901Z" fill="white"/>
<path d="M157.177 63.2294C156.264 62.8609 156.167 62.8609 155.824 62.2175C155.174 61.0142 155.077 60.8944 154.415 59.7328C154.046 59.1051 153.401 58.114 153.039 57.4837C154.795 56.8964 155.521 55.6788 155.521 54.4208C155.521 52.7942 154.104 51.0322 151.357 51.0322C151.051 51.0322 150.208 51.0908 149.39 51.1299C148.552 51.1742 147.712 51.2328 147.406 51.2328C147.353 51.2328 147.177 51.2132 147.003 51.1911C146.851 51.1911 146.699 51.1742 146.678 51.1742C146.375 51.1742 145.378 51.1911 144.943 51.2575C144.887 51.3982 144.924 51.8462 144.924 51.9673L145.787 52.0441C146.048 52.0649 146.45 52.1665 146.488 52.1665C146.532 52.5702 146.545 54.34 146.545 54.8245C146.545 55.3141 146.505 57.7507 146.505 58.2964C146.505 58.6232 146.45 60.2016 146.471 60.548C146.487 61.0767 146.505 62.5158 146.411 62.9247C146.182 63.025 146.034 63.0679 145.493 63.1435C145.075 63.2073 144.98 63.2464 144.828 63.3505C144.786 63.611 144.786 63.6735 144.828 63.9782C145.187 63.9782 145.628 63.9782 146.012 63.9379C146.471 63.8741 147.556 63.8167 147.923 63.8167C148.303 63.8167 148.493 63.8167 150.288 63.9782H150.898C150.937 63.736 150.937 63.6722 150.954 63.245C150.536 63.0823 150.119 62.9859 149.697 62.8804C149.332 62.7984 149.274 62.7736 149.008 62.6173C149.008 62.3543 149.065 61.0312 149.065 60.7473C149.065 60.1391 149.028 59.1702 149.028 58.5594C149.028 58.1544 149.028 58.0659 149.049 57.8679C150.571 57.8054 150.707 57.95 151.049 58.6363C151.47 59.4671 153.338 63.5719 153.574 63.9769C153.719 63.9548 154.467 63.8558 154.616 63.8558H155.269C155.344 63.8558 156.206 63.9105 156.281 63.9105H156.68C157.023 63.9769 157.082 63.9769 157.598 63.9769C157.64 63.5537 157.62 63.4091 157.177 63.2294ZM149.031 56.9368V56.6568C149.031 56.003 149.052 55.9444 149.052 55.4769V52.2499C149.052 52.2499 149.052 52.19 149.066 52.0662C149.255 52.0272 149.373 52.0076 149.793 52.0076C150.785 52.0076 152.581 52.0076 152.581 54.7229C152.581 57.1191 150.12 56.9811 149.031 56.9368Z" fill="white"/>
<path d="M190.299 50.9307C186.519 50.9307 183.599 53.5053 183.599 57.4447C183.599 58.6636 183.946 60.0388 184.228 60.6718C184.803 61.9102 185.454 62.4376 186.519 63.2893C187.32 63.9131 188.87 64.197 190.189 64.197C194.328 64.197 196.983 61.2539 196.983 57.3835C196.983 54.6044 195.056 50.9307 190.299 50.9307ZM190.189 63.3076C188.815 63.3076 187.649 62.2957 187.245 61.0768C186.886 59.9985 186.602 59.1468 186.602 57.3626C186.602 53.0195 188.448 51.923 189.958 51.923C191.506 51.923 192.725 52.6328 193.411 54.2189C193.949 55.4769 193.949 57.2441 193.949 57.9903C193.948 59.7992 193.529 63.3076 190.189 63.3076Z" fill="white"/>
<path d="M214.479 56.4913C214.441 55.9209 214.29 53.2851 214.29 52.8566C214.29 52.2484 216.006 51.9672 216.103 51.9411V51.1741C215.913 51.1298 215.283 51.191 214.863 51.234L212.188 51.3121C211.87 51.3368 211.846 51.3798 211.596 51.9685C210.985 53.4062 210.472 54.9051 209.84 56.3689L208.239 60.0205C208.126 59.8173 207.535 58.4616 207.171 57.6073L205.724 54.2409C205.529 53.7943 205.259 53.0454 205.049 52.5727C204.876 52.1885 204.612 51.6025 204.382 51.3355C203.317 51.2717 200.983 51.1897 200.965 51.1897H200.658C200.336 51.2131 200.299 51.2131 200.163 51.2131C200.145 51.5582 200.145 51.6585 200.163 51.9411C200.32 51.9828 200.37 52.0049 200.811 52.0896C201.231 52.1664 201.541 52.2484 201.691 52.3696C201.996 52.5962 201.92 54.2396 201.92 54.478L201.782 58.0671C201.765 58.5411 201.745 58.5815 201.745 58.8445C201.745 59.7144 201.745 61.4178 201.558 62.2539C201.424 62.8582 201.367 63.1225 199.858 63.3322L199.821 64.0146C200.123 63.9924 201.441 63.9117 201.657 63.9117C202.264 63.9117 202.951 63.956 203.255 63.9924C203.849 64.055 203.906 64.055 204.473 64.0771V63.3673C202.912 62.8959 202.608 62.8178 202.608 61.5988C202.608 60.8683 202.662 59.3472 202.687 58.558L202.74 53.8711H202.782C202.8 53.9492 203.469 55.4937 203.602 55.8154L204.991 58.9839C205.105 59.286 205.303 59.7561 205.432 60.0348C206.389 62.2135 206.484 62.4518 207.016 64.0771H207.739C207.821 63.8336 208.258 62.4922 208.521 61.6991L209.497 59.3889L211.786 53.7278H211.827C211.846 54.0091 211.846 54.0938 211.884 54.7593L212.034 58.2507C212.076 59.2274 212.113 60.7472 212.113 61.7187C212.113 62.7149 211.998 62.8178 211.73 62.9389C211.539 63.0222 210.606 63.2267 210.396 63.3035V63.9911C211.217 63.9534 212.511 63.8713 213.337 63.8713C213.565 63.8713 214.458 63.9091 214.804 63.9351C215.953 64.0758 216.066 64.0537 216.504 64.0758V63.4051C216.292 63.3465 214.843 62.879 214.786 62.7709C214.63 62.556 214.538 57.3013 214.479 56.4913Z" fill="white"/>
<path d="M231.677 60.385C231.065 62.1145 230.263 62.5963 229.99 62.7344C229.308 63.086 227.4 63.1237 227.325 63.1237C224.722 63.1237 224.744 62.8607 224.744 62.3971V60.2444C224.722 59.7743 224.709 58.3769 224.722 57.9315C225.415 57.8508 226.116 57.8508 226.828 57.8508C228.205 57.8508 228.51 57.8508 228.693 58.4381L229.061 59.9983H229.725C229.725 59.7183 229.69 58.36 229.69 58.0566V56.2503C229.69 55.7802 229.69 55.7007 229.651 54.9076H229.004C228.737 56.2841 228.637 56.736 228.238 56.8637C227.476 57.0837 224.858 57.0434 224.722 57.0251V56.7373V55.7815C224.709 55.1551 224.689 52.5583 224.722 52.1715C224.994 52.152 226.463 52.1312 226.751 52.1312C226.787 52.1312 229.308 52.1924 229.787 52.3369C230.089 52.7003 230.164 52.8396 230.761 53.9557C230.892 54.3229 230.892 54.345 230.988 54.5248C231.219 54.5456 231.313 54.5456 231.677 54.5248C231.695 54.1614 231.677 52.3135 231.677 51.9072C231.677 51.5634 231.616 51.4826 231.504 51.3589C230.777 51.2756 230.395 51.2183 229.82 51.2183C228.754 51.2183 227.537 51.2183 226.462 51.2612C225.926 51.2769 223.254 51.3589 222.666 51.3589C222.339 51.3589 221.96 51.3589 221.23 51.2951C221.06 51.2951 220.216 51.2183 220.031 51.2183C220.014 51.3159 219.992 51.8889 219.974 52.0101C220.088 52.0101 220.965 52.1077 221.138 52.1325C221.289 52.152 221.862 52.2171 221.98 52.3565L222.071 53.7981V54.9089C222.071 55.8023 222.128 56.7152 222.128 57.6112V62.2603C222.128 62.681 222.111 62.7799 222.033 62.9922C221.904 63.0456 221.654 63.1706 221.081 63.2331C220.238 63.3386 220.162 63.3555 219.991 63.3933V64.0861C220.204 64.0861 221.271 64.0471 221.498 64.0471C221.537 64.0471 222.467 63.9846 222.642 63.9846C223.119 63.9624 223.824 63.9429 224.225 63.9429C225.412 63.9429 227.208 63.9846 228.449 64.0197C229.131 64.0471 229.818 64.0471 230.412 64.0614C231.024 64.0848 231.542 64.0848 231.849 64.0614C231.885 63.7827 232.113 62.3997 232.169 62.0767C232.397 60.7979 232.416 60.6546 232.459 60.3707C232.097 60.346 231.982 60.346 231.677 60.385Z" fill="white"/>
<path d="M241.672 56.3076C241.408 56.1838 240.071 55.7346 239.766 55.6173C239.574 55.5197 238.082 54.905 238.082 53.6457C238.082 52.2496 239.342 51.8655 240.071 51.8655C241.747 51.8655 242.268 53.4894 242.555 54.4218C242.605 54.444 243.314 54.5052 243.336 54.5052C243.356 54.5052 243.428 54.4805 243.428 54.4635C243.466 54.319 243.466 54.2408 243.466 54.0741C243.466 53.5272 243.356 52.0647 243.182 51.48C242.19 51.1114 241.159 50.8875 240.448 50.8875C236.501 50.8875 236.27 53.9947 236.27 54.6667C236.27 55.6187 236.747 56.7581 237.341 57.365C237.994 58.0162 239.273 58.5006 239.959 58.7702C240.528 58.9877 240.856 59.1049 241.844 59.5776C242.015 59.6544 242.815 60.2665 242.815 61.182C242.815 62.5976 241.409 63.2917 240.375 63.2917C239.359 63.2917 238.64 62.8229 238.317 62.44C237.855 61.9308 237.721 61.5909 237.265 60.4488H236.406C236.406 60.8356 236.463 62.8047 236.463 63.2318C236.463 63.4727 236.746 63.5561 237.702 63.8387C238.733 64.2007 239.709 64.2007 239.803 64.2007C240.986 64.2007 241.79 64.0457 242.532 63.5326C243.314 63.0065 244.417 62.2746 244.417 60.023C244.417 57.5656 242.839 56.8376 241.672 56.3076Z" fill="white"/>
<path d="M5.40366 56.2673C5.13569 56.1462 3.80103 55.6982 3.49664 55.5758C3.30542 55.4755 1.81466 54.866 1.81466 53.6093C1.81466 52.2081 3.07647 51.8278 3.80103 51.8278C5.47911 51.8278 5.99163 53.4504 6.28172 54.3829C6.33375 54.405 7.04531 54.4649 7.06612 54.4649C7.08433 54.4649 7.16108 54.4454 7.16108 54.4258C7.19621 54.2813 7.1962 54.1979 7.1962 54.0378C7.1962 53.4895 7.08433 52.027 6.91002 51.4384C5.92009 51.0764 4.88593 50.8511 4.17697 50.8511C0.230247 50.8511 0 53.9531 0 54.6251C0 55.5771 0.481308 56.7179 1.06928 57.3221C1.7236 57.9759 2.99972 58.4616 3.68396 58.7273C4.25632 58.9461 4.58153 59.0646 5.57667 59.5373C5.74448 59.6154 6.55229 60.2262 6.55229 61.1443C6.55229 62.5586 5.13569 63.2488 4.10283 63.2488C3.09598 63.2488 2.36491 62.78 2.04361 62.3984C1.58311 61.8879 1.44913 61.548 0.991234 60.4072H0.135287C0.135287 60.7966 0.188621 62.7631 0.188621 63.1902C0.188621 63.435 0.480007 63.5132 1.43222 63.7997C2.45987 64.163 3.4368 64.163 3.53306 64.163C4.71422 64.163 5.51553 64.0028 6.26481 63.4858C7.04401 62.9675 8.15102 62.233 8.15102 59.9814C8.15102 57.5279 6.5679 56.796 5.40366 56.2673Z" fill="white"/>
<path d="M65.2674 42.9487C65.2674 42.9487 65.5081 44.35 66.9364 44.4867C70.074 44.7902 73.4536 42.0424 73.9414 41.6022C73.9414 41.6022 73.1271 46.1289 73.7892 49.3482C73.8946 49.8626 74.4461 49.6855 74.7986 49.5058C76.8591 48.4483 77.5616 46.7006 77.5616 46.7006C76.9801 46.7762 76.8461 46.5378 76.7291 45.974C76.0383 42.6701 76.7043 40.2244 76.7043 40.2244C77.9688 39.4834 85.9741 35.2588 89.0167 28.8424C89.4122 28.0076 89.7179 26.7601 89.2639 25.8133C89.0206 25.2325 88.1465 24.8665 86.8782 25.1283C85.6489 25.3848 84.1529 26.3642 83.5532 26.8017C82.1093 27.8501 80.6693 29.6095 79.4179 31.21C76.5834 34.8407 74.4513 39.7126 74.4513 39.7126C73.9557 40.1684 71.3124 42.9605 68.9982 42.6544C67.7572 42.4903 68.141 41.528 68.9722 40.6164C70.0324 39.4534 71.0678 38.1616 72.4805 36.785C72.6796 36.591 72.5547 36.4582 72.383 36.4816C71.7261 36.5767 70.2899 36.7863 69.7215 36.897C69.6395 36.9127 69.5016 36.983 69.408 37.0741C68.928 37.5404 68.2333 38.3322 65.8775 40.3051C64.7796 41.2284 63.8521 41.7298 63.0937 41.6855C62.1129 41.6282 62.3588 40.8143 62.7932 40.3481C63.5152 39.5641 65.0008 38.129 65.9855 37.302C66.2561 37.0754 66.0349 36.9322 65.9048 36.9504C65.4079 37.0221 64.245 37.1705 63.8079 37.2187C63.7624 37.2226 63.6609 37.2656 63.5881 37.332C63.0274 37.8412 60.8056 40.1931 59.4306 41.2766C57.8787 42.4995 56.3515 43.0087 55.4357 42.4995C54.4263 41.9395 55.7323 40.2478 56.4062 39.6969C57.0774 39.15 58.7021 38.0847 58.3444 37.7292C57.9919 37.3711 56.7236 38.1368 55.147 39.2398C55.8325 38.5106 56.1122 37.7018 55.9197 37.2447C55.6738 36.6613 54.373 36.6236 53.8006 36.6613C53.2295 36.703 50.715 37.0911 48.9147 38.0912C46.5589 39.3987 44.6141 42.4708 45.3179 43.958C45.9202 45.2473 48.0626 44.5284 49.5976 43.8695C50.5641 43.4592 52.1329 42.3666 52.1329 42.3666C52.1329 42.3666 51.9768 43.6194 53.2217 44.0804C55.6387 44.9712 59.0482 42.6284 59.0482 42.6284C59.0482 42.6284 59.0742 44.2068 61.4118 44.1521C63.8573 44.0948 65.2674 42.9487 65.2674 42.9487ZM82.1145 30.0496C83.6105 28.0532 86.1536 26.187 87.2645 26.3017C88.7149 26.4527 86.9653 29.9467 84.975 32.2101C83.0108 34.424 78.6712 37.543 76.8787 38.3803C76.8787 38.3803 77.9531 35.5987 82.1145 30.0496ZM48.7208 42.7977C47.3836 43.0555 46.6382 42.0567 48.4646 40.4171C50.1166 38.9364 52.3814 38.4259 53.0292 38.715C53.3284 38.8518 52.9538 39.5836 52.8588 40.0225C52.8588 40.0225 52.8172 40.4861 53.2868 40.4353C51.0272 41.8835 49.3804 42.6701 48.7208 42.7977Z" fill="white"/>
<path d="M247.113 41.0554C246.719 40.9786 246.296 41.1622 244.914 41.6923C236.133 45.0522 229.11 44.3164 227.943 44.207C224.929 43.9231 223.689 42.6455 224.565 41.1206C224.868 40.5892 225.828 39.4797 226.662 38.6436C227.133 38.1735 226.813 37.2124 226.135 36.9298C225.319 36.5899 223.747 36.3177 223.086 36.3151C222.548 36.3125 222.033 36.3086 221.846 36.6277C220.924 38.1943 219.25 42.9945 215.222 42.9112C214.08 42.8891 213.378 42.2028 213.396 41.9254C213.4 41.8616 215.913 40.8953 217.803 39.2127C219.697 37.5249 218.928 36.1237 217.141 36.1758C216.027 36.2057 214.715 36.4493 212.848 37.8596C210.983 39.2674 210.521 41.4631 210.405 42.0595C209.677 42.5843 208.431 42.893 208.276 42.4762C207.983 41.6923 208.938 40.0436 209.623 38.8845C210.036 38.1852 209.881 37.6591 209.245 37.5888C206.579 37.2879 203.097 40.222 203.097 40.222C205.072 38.1149 207.551 35.6874 208.441 34.2237C210.081 31.5214 210.833 29.0315 210.464 28.4519C210.092 27.8737 207.028 29.2815 204.689 32.5411C203.779 33.8082 201.839 37.357 200.342 40.9656C198.262 41.9762 194.177 43.0427 193.644 42.3043C192.986 41.394 195.1 39.0851 195.896 38.6631C196.832 38.1683 197.619 39.326 197.982 39.3039C198.35 39.2726 199.97 37.9664 199.699 37.719C199.256 37.3114 198.565 36.5665 196.226 37.1369C193.44 37.8154 191.714 39.451 190.731 41.187C190.3 41.9514 189.212 42.2978 188.606 42.1962C188.004 42.0921 187.879 41.3146 188.64 40.3157C190.342 38.0823 190.657 38.2269 190.398 37.7229C190.203 37.3231 189.914 37.3648 189.263 37.5627C188.709 37.732 188.26 38.0003 188.26 38.0003C188.208 37.8375 188.027 36.8308 186.992 36.8999C185.858 36.9754 183.931 37.6395 182.612 38.5629C180.499 40.041 179.747 41.4631 179.747 41.4631C178.8 42.3213 177.398 42.837 177.092 42.3981C176.733 41.8811 177.663 40.7364 178.593 39.6203C179.164 38.9327 179.784 38.0133 179.365 37.4221C179.04 36.9637 177.538 37.2554 176.072 37.9469C174.946 38.4782 173.69 39.2726 173.036 40.1777C173.644 38.9223 174.144 37.8518 173.879 37.2944C173.594 36.6928 171.474 36.8295 170.64 37.3283C170.485 37.0652 170.092 36.7853 169.862 36.9624C169.543 37.2085 168.965 38.1526 167.707 39.481C166.699 40.5462 164.85 42.9971 163.415 42.8318C162.411 42.7146 162.645 41.6844 163.574 40.4694C164.483 39.2791 166.051 37.887 166.607 37.4325C166.913 37.1838 166.552 37.0887 166.303 37.1121C165.35 37.2033 163.856 37.4364 163.584 37.5315C163.357 37.6109 162.198 38.7999 161.361 39.5813C159.932 40.9213 158.805 41.8694 157.486 41.803C156.741 41.7639 156.493 41.2156 158.606 39.3286C158.633 39.3039 159.731 38.2204 160.387 37.6604C160.523 37.5445 160.47 37.5041 160.22 37.5015C159.379 37.4937 158.138 37.6278 157.805 37.9248C157.144 38.5095 155.1 40.5267 153.746 41.4891C152.296 42.5205 151.654 42.8018 151.393 42.7237C151.128 42.6377 151.083 42.3955 151.151 42.1533C151.536 40.7585 152.415 39.6281 153.019 38.6006C153.625 37.5757 153.051 37.2254 152.068 37.2775C149.889 37.3921 146.99 39.3794 146.99 39.3794C147.057 39.1476 151.176 35.3801 152.167 33.8903C153.706 31.58 155.04 28.8348 154.43 28.3712C153.88 27.9532 150.728 29.37 148.897 31.6998C147.303 33.7288 145.768 36.8959 144.383 39.5813C143.364 40.3457 138.054 42.5973 135.628 42.6026C134.162 42.6052 133.712 41.2807 134.87 40.1347C135.985 39.0304 138.195 38.2529 138.632 38.3792C139.071 38.5082 138.632 39.2062 138.632 39.2062C138.632 39.2062 137.863 40.2558 138.608 40.3913C139.096 40.4811 140.619 39.774 141.136 39.0017C141.651 38.2217 140.774 38.4821 140.774 38.4821C140.774 38.4821 140.614 36.9064 139.189 36.9064C138.415 36.9064 135.09 37.2267 131.891 39.8612C128.692 42.4958 130.565 44.4896 132.677 44.3685C137.741 44.0793 142.869 41.2365 143.19 41.0841C143.19 41.0841 141.881 43.4165 141.858 43.7355C141.837 43.9986 141.915 44.0663 142.138 44.1562C142.442 44.2799 142.716 44.3268 143.19 44.0129C143.19 44.0129 145.33 41.7287 147.238 40.808C148.361 40.2663 149.479 40.1048 148.785 41.48C148.323 42.3942 148.012 44.3658 149.352 44.358C151.144 44.3489 153.033 42.9685 154.242 41.9319C153.659 42.6468 153.489 44.1028 154.603 44.2903C157.352 44.7474 159.604 42.389 159.604 42.389C159.509 42.7211 159.308 44.4726 161.666 44.2825C162.931 44.1809 164.119 43.6548 164.846 43.1339C165.409 43.4503 167.238 44.0038 167.962 43.1612C169.307 41.5972 169.862 40.851 170.823 40.0097C170.576 40.5632 170.44 41.1661 170.394 41.6141C170.32 42.3681 170.461 42.9229 170.97 43.0336C171.532 43.1547 172.299 43.2198 172.89 42.6651C173.404 42.1845 174.258 41.118 175.27 40.3796C174.399 41.7001 173.724 43.1886 174.431 43.9061C175.804 45.3009 179.47 42.4385 179.47 42.4385C179.434 42.5726 179.386 42.7406 179.383 43.0349C179.378 43.6874 179.648 44.5273 181.394 44.3046C183.102 44.0872 184.614 43.031 185.252 42.4307C185.252 42.4307 185.312 44.065 187.068 43.94C188.463 43.841 189.572 43.199 190.582 42.3226C190.392 43.1443 190.874 44.3046 192.857 44.358C194.689 44.4075 197.64 43.3631 199.551 42.1975C199.551 42.1975 198.401 44.0481 198.362 44.3151C198.345 44.4297 199.991 44.2825 199.991 44.2825C201.722 42.6885 202.981 41.5555 204.343 41.0463C204.926 40.8288 206.189 40.4473 205.792 41.3953C205.596 41.8681 205.042 43.005 205.164 43.5597C205.256 43.9686 205.592 44.1692 205.857 44.2499C207.307 44.6901 209.603 43.3436 210.41 42.8812C210.41 42.8812 210.719 43.8723 211.748 44.3072C214.918 45.6486 219.788 44.2096 222.728 37.7385C223.178 37.7659 224.526 37.9977 224.176 38.4535C223.025 39.9563 222.192 41.0659 222.055 41.7847C221.802 43.1365 223.027 44.164 224.792 44.6107C226.56 45.0587 234.333 46.5055 247.617 41.2872C247.874 41.1896 247.634 41.157 247.113 41.0554ZM146.139 38.6618C146.139 38.6618 148.094 34.4255 148.885 33.2196C149.892 31.6829 152.253 29.9522 152.021 30.6567C150.923 34.0075 146.139 38.6618 146.139 38.6618ZM186.132 39.8456C186.111 40.0058 185.68 40.3783 185.273 40.7754C183.998 42.0152 182.523 42.402 182.004 41.9579C181.613 41.6232 182.238 40.4668 183.127 39.761C183.804 39.2231 184.926 38.7257 185.555 38.8324C185.999 38.9093 186.172 39.5292 186.132 39.8456ZM205.458 33.2756C205.876 32.5906 208.082 30.4614 207.915 31.1802C207.134 34.5753 201.773 39.9667 201.773 39.9667C202.467 37.8557 204.587 34.7055 205.458 33.2756ZM215.711 37.9612C216.277 38.2581 215.381 39.27 214.828 39.7857C214.002 40.5554 213.227 41.0424 213.227 41.0424C213.264 39.9537 214.833 37.5002 215.711 37.9612Z" fill="white"/>
<path d="M77.9005 17.6559C78.4039 12.0065 74.184 5.59019 64.9104 2.29151C55.5587 -1.03583 47.1371 -0.662073 32.7148 2.90879C21.8723 5.5941 15.3331 10.1195 13.4807 11.6797C13.3285 11.8086 13.0449 12.2592 13.2491 12.4741C13.5665 12.8114 13.9021 12.5288 14.1857 12.3087C15.9002 10.9764 21.2701 7.27796 31.9109 4.64474C46.1094 1.13248 55.0019 1.38251 62.6365 4.17331C71.3651 7.3626 74.9515 11.7747 74.5404 17.6572C74.1697 22.9562 70.1983 28.0364 59.8553 31.3246C49.6958 34.553 43.9058 34.2339 41.1871 34.0021C40.2674 33.9227 39.738 33.8563 39.3789 33.7482C43.2671 27.4139 46.4386 22.1539 48.2974 19.1639C48.4939 18.8488 48.2987 18.6352 47.9553 18.7394C47.6106 18.8435 46.8184 19.2941 46.0119 19.9166C45.299 20.4662 38.683 31.0004 32.517 40.7948C32.4572 40.1919 32.3297 39.7908 32.1242 39.7061C31.8666 39.602 31.5557 40.2857 31.453 40.9094C31.2357 42.2274 31.0692 44.0258 31.306 45.9232C31.3398 46.1967 31.5609 46.3283 31.838 45.8881C34.3304 41.933 36.7109 38.09 38.8833 34.5556C40.015 35.0752 42.1952 35.1703 44.3039 35.1703C48.2753 35.1703 55.7733 34.1519 61.8495 32.0943C69.4451 29.5171 77.2761 24.6491 77.9005 17.6559Z" fill="white"/>
</svg>
