<svg width="32" height="32" viewBox="0 0 32 32" fill="none" xmlns="http://www.w3.org/2000/svg">
<g clip-path="url(#clip0_1285_3010)">
<path d="M0.16 2.72008C-0.161333 2.08141 0.1 1.30274 0.749333 1.00408C2.50933 0.194745 6.48533 -0.870589 10.252 1.20674C12.2973 2.33474 13.16 4.72674 12.4173 6.83608C12.616 7.36408 12.7893 7.92941 12.924 8.55075C13.4707 8.04675 14.0893 7.61075 14.7293 7.22408C14.6347 5.60541 15.66 4.00674 17.276 3.30274C19.9813 2.12275 23.0933 2.85074 24.5853 3.45075C25.2547 3.72008 25.5467 4.50274 25.2227 5.14674C24.192 7.20141 22.256 9.08274 20.2773 10.1881C18.808 11.0094 17.036 10.7241 15.8747 9.62541C14.5667 10.4787 13.568 11.6681 13.2347 12.4974C13.0293 13.0081 12.5347 13.3321 11.9987 13.3321C11.1093 13.3321 10.692 12.6814 10.6653 12.0534C10.612 10.7454 10.4453 9.60541 10.188 8.64008C9.77733 7.48941 8.28133 5.47208 8.19333 5.31474C6.02133 3.01075 3.35333 2.66674 3.35333 2.66674C6.25867 5.98674 7.35333 7.33341 7.98133 9.97875C7.17467 9.98941 6.35733 9.81741 5.60267 9.40141C3.06 7.99874 1.32133 5.02808 0.16 2.72008ZM30.98 17.3547L21.908 27.5374C19.38 30.3747 15.7507 32.0014 11.952 32.0014H5.33333C2.392 32.0014 0 29.6094 0 26.6681V20.0014C0 17.0601 2.392 14.6681 5.33333 14.6681H17.1427C18.6627 14.6681 19.9947 15.4801 20.728 16.6934L25.0173 11.9801C25.7373 11.1867 26.7253 10.7214 27.7973 10.6721C28.88 10.6201 29.896 10.9921 30.6893 11.7147C32.308 13.1907 32.4387 15.7214 30.98 17.3547ZM28.8933 13.6854C28.628 13.4441 28.284 13.3241 27.9227 13.3361C27.5627 13.3534 27.2307 13.5081 26.9907 13.7747L21.088 20.2614C20.5747 21.6881 19.3027 22.7814 17.736 23.0054L10.8547 23.9881C10.124 24.0894 9.44933 23.5841 9.34533 22.8561C9.24133 22.1267 9.748 21.4507 10.4773 21.3467L17.3587 20.3641C18.1053 20.2587 18.6653 19.6107 18.6653 18.8574C18.6653 18.0174 17.9813 17.3334 17.1413 17.3334H5.33333C3.86267 17.3334 2.66667 18.5294 2.66667 20.0001V26.6667C2.66667 28.1374 3.86267 29.3334 5.33333 29.3334H11.9533C14.992 29.3334 17.8947 28.0307 19.9187 25.7627L28.9907 15.5787C29.4813 15.0294 29.4373 14.1801 28.8947 13.6841L28.8933 13.6854Z" fill="white"/>
</g>
<defs>
<clipPath id="clip0_1285_3010">
<rect width="32" height="32" fill="white"/>
</clipPath>
</defs>
</svg>
