<svg width="1006" height="460" viewBox="0 0 1006 460" fill="none" xmlns="http://www.w3.org/2000/svg">
<path d="M0.5 183.511H1005.5M0.5 183.511V137.886M0.5 183.511V217.987M1005.5 183.511V137.886M1005.5 183.511V217.987M1005.5 92.2613H0.5M1005.5 92.2613V46.6363M1005.5 92.2613V137.886M0.5 92.2613V46.6363M0.5 92.2613V137.886M0.5 321.416H1005.5M0.5 321.416V286.94M0.5 321.416V355.892M1005.5 321.416V286.94M1005.5 321.416V359.494M0.5 390.368L1005.5 397.572M0.5 390.368V355.892M0.5 390.368V424.844M1005.5 397.572V359.494M1005.5 397.572V428.446M1005.5 252.463H0.5M1005.5 252.463V217.987M1005.5 252.463V286.94M0.5 252.463V217.987M0.5 252.463V286.94M503 1.01123V459.32M503 1.01123H471.594M503 1.01123H534.406M503 459.32H471.594M503 459.32H534.406M0.5 46.6363V1.01123H31.9062M0.5 46.6363H1005.5M1005.5 46.6363V1.01123H974.094M0.5 137.886H1005.5M0.5 217.987H1005.5M0.5 286.94H1005.5M0.5 355.892L1005.5 359.494M0.5 424.844V459.32H31.9062M0.5 424.844L1005.5 428.446M1005.5 428.446V459.32H974.094M754.25 1.01123V459.32M754.25 1.01123H722.844M754.25 1.01123H785.656M754.25 459.32H722.844M754.25 459.32H785.656M879.875 1.01123V459.32M879.875 1.01123H848.469M879.875 1.01123H911.281M879.875 459.32H848.469M879.875 459.32H911.281M628.625 1.01123V459.32M628.625 1.01123H597.219M628.625 1.01123H660.031M628.625 459.32H597.219M628.625 459.32H660.031M251.75 1.01123V459.32M251.75 1.01123H220.344M251.75 1.01123H283.156M251.75 459.32H220.344M251.75 459.32H283.156M126.125 1.01123V459.32M126.125 1.01123H94.7188M126.125 1.01123H157.531M126.125 459.32H94.7188M126.125 459.32H157.531M377.375 1.01123V459.32M377.375 1.01123H345.969M377.375 1.01123H408.781M377.375 459.32H345.969M377.375 459.32H408.781M63.3125 1.01123V459.32M63.3125 1.01123H31.9062M63.3125 1.01123H94.7188M63.3125 459.32H31.9062M63.3125 459.32H94.7188M188.938 1.01123V459.32M188.938 1.01123H157.531M188.938 1.01123H220.344M188.938 459.32H157.531M188.938 459.32H220.344M314.562 1.01123V459.32M314.562 1.01123H283.156M314.562 1.01123H345.969M314.562 459.32H283.156M314.562 459.32H345.969M440.188 1.01123V459.32M440.188 1.01123H471.594M440.188 1.01123H408.781M440.188 459.32H471.594M440.188 459.32H408.781M565.812 1.01123V459.32M565.812 1.01123H534.406M565.812 1.01123H597.219M565.812 459.32H534.406M565.812 459.32H597.219M691.438 1.01123V459.32M691.438 1.01123H660.031M691.438 1.01123H722.844M691.438 459.32H660.031M691.438 459.32H722.844M817.062 1.01123V459.32M817.062 1.01123H785.656M817.062 1.01123H848.469M817.062 459.32H785.656M817.062 459.32H848.469M942.688 1.01123V459.32M942.688 1.01123H911.281M942.688 1.01123H974.094M942.688 459.32H911.281M942.688 459.32H974.094M31.9062 1.01123V459.32M94.7188 459.32V1.01123M157.531 1.01123V459.32M220.344 459.32V1.01123M283.156 1.01123V459.32M345.969 459.32V1.01123M471.594 1.01123V459.32M408.781 459.32V1.01123M534.406 1.01123V459.32M597.219 459.32V1.01123M660.031 1.01123V459.32M722.844 1.01123V459.32M785.656 1.01123V459.32M848.469 459.32V1.01123M911.281 1.01123V459.32M974.094 459.32V1.01123" stroke="url(#paint0_angular_1285_1772)"/>
<defs>
<radialGradient id="paint0_angular_1285_1772" cx="0" cy="0" r="1" gradientUnits="userSpaceOnUse" gradientTransform="translate(513.789 298.675) rotate(89.3179) scale(1026.5 624.552)">
<stop offset="0.136099" stop-color="#535353" stop-opacity="0"/>
<stop offset="0.236091" stop-color="#535353" stop-opacity="0.13"/>
<stop offset="0.462379" stop-color="#535353"/>
<stop offset="0.703808" stop-color="#535353" stop-opacity="0.23"/>
<stop offset="0.765572" stop-color="#535353" stop-opacity="0.04"/>
<stop offset="1" stop-color="#535353" stop-opacity="0"/>
</radialGradient>
</defs>
</svg>
