<svg width="69" height="68" viewBox="0 0 69 68" fill="none" xmlns="http://www.w3.org/2000/svg">
<path d="M18.2211 57.3702H11.5488L11.549 39.4881H25.7204L39.4608 45.1754C41.8644 46.1702 42.9968 48.9333 41.9824 51.3286L41.9359 51.4386C40.9136 53.8533 38.1857 55.0111 35.7612 54.076C31.8621 52.572 26.7484 50.606 26.7484 50.606L39.9151 55.668C42.6921 56.7356 45.7245 56.9512 48.6248 56.2872L62.1143 53.1987C64.5861 52.6328 67.0407 54.2074 67.5568 56.6902C68.0499 59.0623 66.5879 61.4021 64.2396 61.999L48.1439 66.0897C45.1093 66.8611 41.909 66.6608 38.9939 65.5176L29.4671 61.7809M50.8977 36.389C52.7437 34.5681 54.269 32.3606 55.3366 29.8212C59.6741 19.5049 54.8272 7.62574 44.5109 3.28858C34.1947 -1.04886 22.3154 3.79799 17.9781 14.1142C16.0655 18.6632 15.9398 23.5157 17.2802 27.8917M13.667 26.444L17.4662 28.6829L19.9764 25.0193M36.8206 26.3207C34.339 26.3207 32.3271 24.3087 32.3271 21.827C32.3271 19.3455 34.339 17.3335 36.8206 17.3335C39.3023 17.3335 41.3142 19.3455 41.3142 21.827C41.3142 24.3087 39.3023 26.3207 36.8206 26.3207ZM49.5082 18.5095C47.9146 19.1635 46.0437 18.5553 45.1588 17.023C44.2731 15.4901 44.6828 13.564 46.0478 12.513C44.4683 10.9475 42.4918 9.78155 40.2828 9.17807C40.0572 10.8891 38.5933 12.2089 36.8206 12.2089C35.0487 12.2089 33.5839 10.8891 33.3583 9.17807C31.1494 9.78155 29.1736 10.9475 27.5941 12.513C28.9585 13.5647 29.368 15.4901 28.4832 17.023C27.598 18.5553 25.7265 19.1635 24.1337 18.5095C23.8576 19.569 23.7102 20.6811 23.7102 21.827C23.7102 22.9797 23.8588 24.0977 24.1385 25.1626C25.7304 24.5106 27.5987 25.1195 28.4832 26.6511C29.3655 28.1802 28.9612 30.0989 27.6054 31.1525C29.1835 32.7129 31.1568 33.8754 33.3609 34.4768C33.5947 32.7758 35.0552 31.4653 36.8206 31.4653C38.5865 31.4653 40.0466 32.7758 40.2803 34.4768C42.4852 33.8754 44.4584 32.7129 46.0365 31.1525C44.6808 30.0989 44.2757 28.1802 45.1588 26.6511C46.0431 25.1195 47.9107 24.5106 49.5034 25.1626C49.783 24.0977 49.9317 22.9797 49.9317 21.827C49.9317 20.6811 49.7842 19.569 49.5082 18.5095ZM11.5489 59.9988H1.34766V36.3101H11.549L11.5489 59.9988Z" stroke="#1A1A1A" stroke-width="2.5" stroke-miterlimit="10" stroke-linecap="round" stroke-linejoin="round"/>
</svg>
