<svg width="69" height="70" viewBox="0 0 69 70" fill="none" xmlns="http://www.w3.org/2000/svg">
<path d="M1.35574 69.4239C2.1045 69.4239 2.71149 68.8169 2.71149 68.0681C2.71149 67.3194 2.1045 66.7124 1.35574 66.7124C0.606988 66.7124 0 67.3194 0 68.0681C0 68.8169 0.606988 69.4239 1.35574 69.4239Z" fill="#1A1A1A"/>
<path d="M35.9832 35.0373C36.7304 35.0373 37.3362 34.4315 37.3362 33.6842C37.3362 32.9369 36.7304 32.3312 35.9832 32.3312C35.2359 32.3312 34.6301 32.9369 34.6301 33.6842C34.6301 34.4315 35.2359 35.0373 35.9832 35.0373Z" fill="#1A1A1A"/>
<path d="M53.7014 16.5317C52.6137 15.4439 51.1675 14.845 49.6293 14.845C48.0911 14.845 46.6448 15.4442 45.5572 16.5317C43.3119 18.7772 43.3119 22.4307 45.5572 24.6761C46.6801 25.7988 48.1544 26.36 49.6293 26.36C51.1038 26.36 52.5788 25.7985 53.7014 24.6761C55.9467 22.4306 55.9467 18.7771 53.7014 16.5317ZM51.7881 22.7625C50.5977 23.9528 48.6607 23.9528 47.4706 22.7625C46.2802 21.5723 46.2802 19.6354 47.4706 18.445C48.0473 17.8684 48.8138 17.5508 49.6293 17.5508C50.4448 17.5508 51.2113 17.8684 51.788 18.445C52.9784 19.6354 52.9784 21.5723 51.7881 22.7625Z" fill="#1A1A1A"/>
<path d="M16.9005 56.0745C16.2316 55.7413 15.4195 56.0137 15.0863 56.6825L13.4748 59.9189C12.774 61.326 11.3646 62.267 9.79623 62.3743L7.9219 62.5025C7.60507 62.5237 7.39672 62.3659 7.30036 62.2695C7.20401 62.1732 7.04579 61.9644 7.06735 61.6479L7.19565 59.7737C7.30306 58.2054 8.24399 56.7959 9.65095 56.0951L12.8872 54.4836C13.5562 54.1504 13.8284 53.3382 13.4953 52.6694C13.1623 52.0005 12.35 51.7281 11.6811 52.0613L8.4448 53.6728C6.18181 54.7997 4.66865 57.0665 4.49588 59.5888L4.36759 61.463C4.29832 62.4747 4.66973 63.466 5.38669 64.1829C6.04677 64.843 6.93959 65.2104 7.86678 65.2104C7.94643 65.2104 8.02662 65.2077 8.10667 65.2022L9.98099 65.0739C12.5033 64.9012 14.77 63.3882 15.8969 61.125L17.5085 57.8887C17.8416 57.2197 17.5694 56.4076 16.9005 56.0745Z" fill="#1A1A1A"/>
<path d="M68.0658 1.72743C67.4309 1.10198 66.5562 0.774908 65.6679 0.832722L64.4081 0.913043C53.1121 1.63418 42.5407 7.08667 35.4044 15.8726L32.439 19.5233L24.6788 19.2954C24.6656 19.295 24.6523 19.2948 24.6392 19.2948C18.4847 19.2948 12.6985 21.6915 8.34654 26.0434L0.398314 33.9917C0.0202955 34.3698 -0.0997809 34.9351 0.0921258 35.434C0.284032 35.933 0.75167 36.2724 1.28561 36.2996L18.1103 37.164L17.4244 38.0086C17.0787 38.4343 17.024 39.0265 17.2861 39.5081C17.5497 39.9927 17.826 40.4697 18.1141 40.9389L14.1242 45.6755C13.7831 46.0805 13.7097 46.6473 13.936 47.126C14.8075 48.9676 15.9642 50.6222 17.3744 52.044C18.8188 53.5006 20.5078 54.6916 22.3943 55.5845C22.5786 55.6718 22.7763 55.7145 22.9728 55.7145C23.2775 55.7145 23.5797 55.6116 23.8255 55.4122C24.685 54.715 25.6759 53.8879 26.6344 53.0882C27.3175 52.5181 28.0164 51.935 28.6696 51.3973C29.0595 51.6319 29.4542 51.8594 29.8549 52.0773C30.0576 52.1876 30.2798 52.2419 30.5012 52.2419C30.7958 52.2419 31.0885 52.1459 31.3309 51.9578L32.2531 51.2422L33.1212 68.1378C33.1487 68.6717 33.4879 69.1394 33.9868 69.3313C34.1448 69.3919 34.3089 69.4216 34.472 69.4216C34.8244 69.4216 35.1705 69.2837 35.429 69.0251L43.3773 61.0767C47.7293 56.7247 50.1259 50.9387 50.1259 44.7841V37.3726L53.2614 34.9394C62.6585 27.6472 68.3816 16.6511 68.9633 4.77045L68.9955 4.11198C69.0394 3.22199 68.7004 2.35302 68.0658 1.72743ZM4.46339 33.7535L10.2599 27.9569C14.0961 24.1208 19.1953 22.0061 24.6197 22.0008L30.2913 22.1674L20.2229 34.5631L4.46339 33.7535ZM24.9008 51.0105C24.1945 51.5997 23.4704 52.204 22.7984 52.7567C21.4987 52.0528 20.323 51.1745 19.2956 50.1384C18.3005 49.1351 17.4535 47.9927 16.7705 46.7343L19.6917 43.2663C20.5749 44.4513 21.5417 45.5738 22.5862 46.6254C22.587 46.6262 22.5878 46.6268 22.5886 46.6277C22.5889 46.6279 22.5891 46.6283 22.5894 46.6286C22.5898 46.629 22.5902 46.6293 22.5906 46.6297C23.7487 47.7951 24.9943 48.8646 26.3157 49.8318C25.8491 50.2192 25.3711 50.6181 24.9008 51.0105ZM47.4203 44.7841C47.4203 50.2158 45.3051 55.3223 41.4642 59.1633L35.6676 64.9599L34.8588 49.2203L47.4202 39.4727L47.4203 44.7841ZM66.261 4.63824C65.718 15.7291 60.3753 25.9942 51.6029 32.8016L30.3826 49.2685C28.6229 48.2403 26.9826 47.0262 25.4815 45.6506L32.6357 38.4964C33.1639 37.9681 33.1639 37.1113 32.6357 36.5829C32.1072 36.0545 31.2505 36.0545 30.7221 36.5829L23.5747 43.7303C22.2606 42.2755 21.0967 40.6926 20.1058 38.9995L37.5049 17.5786C44.1666 9.37688 54.0353 4.28677 64.5803 3.61375L65.8401 3.53343C66.0052 3.52319 66.1157 3.60513 66.1666 3.65526C66.2174 3.70526 66.3014 3.81401 66.2933 3.97991L66.261 4.63824Z" fill="#1A1A1A"/>
</svg>
