<svg width="73" height="74" viewBox="0 0 73 74" fill="none" xmlns="http://www.w3.org/2000/svg">
<path fill-rule="evenodd" clip-rule="evenodd" d="M65.5657 3.60506L65.8904 4.99932L67.3482 3.54147C68.0561 2.83363 69.2037 2.83363 69.9115 3.54147C70.6192 4.2493 70.6192 5.39691 69.9115 6.10475L68.4515 7.56469L69.8443 7.88851C72.6149 8.53265 73.598 11.9712 71.5866 13.9826L66.9324 18.6367C66.0403 19.5289 64.9479 20.1573 63.7715 20.4886C63.7077 20.5066 63.6437 20.5237 63.5794 20.54C62.5647 20.796 61.493 20.8329 60.4375 20.6299C60.3462 20.6123 60.2551 20.593 60.1641 20.5719L56.3346 19.6815L52.5016 23.5146C56.0829 27.6476 58.25 33.0395 58.25 38.9376C58.25 51.9508 47.7007 62.5001 34.6875 62.5001C21.6743 62.5001 11.125 51.9508 11.125 38.9376C11.125 25.9244 21.6743 15.375 34.6875 15.375C38.4774 15.375 42.0584 16.2698 45.2306 17.8597C46.292 18.3916 46.4486 19.7967 45.6091 20.6363C45.0175 21.2278 44.1065 21.3409 43.3533 20.9768C40.7328 19.7102 37.7931 19.0001 34.6875 19.0001C23.6763 19.0001 14.75 27.9263 14.75 38.9376C14.75 49.9487 23.6763 58.875 34.6875 58.875C45.6987 58.875 54.625 49.9487 54.625 38.9376C54.625 34.0407 52.8596 29.5561 49.9306 26.0857L44.7749 31.2412C46.4061 33.3759 47.375 36.0436 47.375 38.9376C47.375 45.9447 41.6946 51.6251 34.6875 51.6251C27.6804 51.6251 22 45.9447 22 38.9376C22 31.9304 27.6804 26.25 34.6875 26.25C35.1851 26.25 35.6761 26.2787 36.1588 26.3344C37.61 26.5021 38.0083 28.2369 36.9754 29.2699C36.5131 29.7323 35.8555 29.926 35.2027 29.8895C35.0322 29.8799 34.8604 29.8751 34.6875 29.8751C29.6824 29.8751 25.625 33.9325 25.625 38.9376C25.625 43.9426 29.6824 48 34.6875 48C39.6926 48 43.75 43.9426 43.75 38.9376C43.75 37.046 43.1705 35.2899 42.1793 33.8369L36.5902 39.426C35.8823 40.1338 34.7347 40.1338 34.0269 39.426C33.319 38.7182 33.319 37.5706 34.0269 36.8628L53.7735 17.1162L52.8825 13.2897C52.8469 13.1372 52.8165 12.9843 52.7911 12.8311C52.6179 11.7874 52.6774 10.7322 52.9496 9.7356C53.2766 8.53805 53.9106 7.42515 54.817 6.51887L59.4718 1.86395C61.4829 -0.14703 64.9207 0.8352 65.5657 3.60506ZM62.8572 7.95715L62.0351 4.42721L57.3802 9.08215C56.4946 9.96772 56.1289 11.2478 56.4129 12.4676L56.7782 14.0361L62.8572 7.95715ZM69.0233 11.4193L65.5018 10.6006L59.4242 16.6781L60.985 17.041C62.2044 17.3245 63.4839 16.9588 64.3692 16.0735L69.0233 11.4193Z" fill="#1A1A1A"/>
<path d="M34.6875 4.50003C39.6013 4.50003 44.2748 5.52924 48.5041 7.38382C49.2001 7.68902 49.511 8.48228 49.3417 9.22317C49.092 10.316 47.8669 11.0552 46.8369 10.6129C43.1091 9.01176 39.0019 8.12506 34.6875 8.12506C17.6703 8.12506 3.87502 21.9203 3.87502 38.9376C3.87502 55.9549 17.6703 69.75 34.6875 69.75C51.7048 69.75 65.5 55.9549 65.5 38.9376C65.5 34.5533 64.5843 30.3829 62.9338 26.6072C62.485 25.5807 63.2149 24.3516 64.3053 24.0941C65.0456 23.9192 65.8423 24.2248 66.1521 24.9195C68.0628 29.2017 69.125 33.9456 69.125 38.9376C69.125 57.9568 53.7068 73.3751 34.6875 73.3751C15.6682 73.3751 0.25 57.9568 0.25 38.9376C0.25 19.9183 15.6682 4.50003 34.6875 4.50003Z" fill="#1A1A1A"/>
</svg>
