<svg width="69" height="74" viewBox="0 0 69 74" fill="none" xmlns="http://www.w3.org/2000/svg">
<path d="M20.8689 53.6074C20.9959 53.8047 21.1704 53.9669 21.3765 54.0791C21.5825 54.1913 21.8135 54.25 22.0481 54.2497H28.3097L20.8485 71.3438C20.7117 71.6538 20.6919 72.0028 20.7928 72.3262C20.8937 72.6496 21.1084 72.9255 21.3972 73.1026C21.686 73.2798 22.0292 73.3463 22.3632 73.2897C22.6973 73.2331 22.9995 73.0573 23.2138 72.7949L43.2391 48.4808C43.4082 48.2758 43.5156 48.0269 43.5487 47.7632C43.5817 47.4994 43.5392 47.2317 43.4259 46.9913C43.3126 46.7508 43.1333 46.5475 42.9089 46.4051C42.6845 46.2627 42.4242 46.187 42.1584 46.1869H35.6691L38.4779 41.0331C38.9706 41.0722 39.4685 41.0926 39.9749 41.0926C41.0435 41.0859 42.1101 41.0001 43.166 40.836C44.4897 44.26 47.0827 45.9898 50.8992 45.9898C51.239 45.9898 51.5879 45.9762 51.9459 45.949C52.3125 45.9154 52.6513 45.739 52.8889 45.4577C53.1265 45.1765 53.244 44.813 53.2159 44.4459C53.1877 44.0788 53.0163 43.7375 52.7386 43.4957C52.4609 43.2539 52.0993 43.1311 51.7318 43.1538C48.7157 43.3832 46.9094 42.4622 45.8984 40.1156C48.6171 39.096 50.5627 37.3288 51.6842 34.848C51.7752 34.6787 51.8304 34.4925 51.8464 34.301C51.8624 34.1094 51.8388 33.9167 51.7772 33.7346C51.7155 33.5526 51.6171 33.3852 51.488 33.2428C51.3589 33.1004 51.2019 32.986 51.0268 32.9069C50.8517 32.8277 50.6621 32.7854 50.4699 32.7826C50.2778 32.7798 50.0871 32.8165 49.9097 32.8905C49.7323 32.9645 49.572 33.0742 49.4388 33.2127C49.3056 33.3513 49.2023 33.5158 49.1354 33.6959C48.0921 36.0086 46.0853 37.4342 43.0012 38.0357C37.4379 38.9329 32.7362 37.3764 28.6258 33.2779C28.4987 33.136 28.3441 33.0214 28.1712 32.9412C27.9984 32.8611 27.8111 32.817 27.6206 32.8116C27.4302 32.8063 27.2407 32.8398 27.0636 32.9101C26.8866 32.9805 26.7257 33.0862 26.5909 33.2208C26.4561 33.3554 26.3501 33.5161 26.2794 33.693C26.2088 33.8699 26.1749 34.0594 26.1799 34.2498C26.185 34.4403 26.2287 34.6277 26.3086 34.8007C26.3885 34.9736 26.5028 35.1285 26.6445 35.2558C27.0727 35.6823 27.506 36.0833 27.9461 36.4639L20.7703 52.2667C20.6731 52.4805 20.6312 52.7153 20.6484 52.9496C20.6656 53.1839 20.7414 53.41 20.8689 53.6074ZM30.2384 38.2022C31.866 39.2728 33.6597 40.0664 35.5467 40.5506L32.0786 46.9243C31.9632 47.1376 31.9053 47.3773 31.9103 47.6197C31.9154 47.8622 31.9834 48.0992 32.1076 48.3075C32.2317 48.5158 32.4079 48.6882 32.6188 48.808C32.8297 48.9277 33.068 48.9906 33.3105 48.9906H39.1864L27.4329 63.264L31.7354 53.4086C31.8285 53.1952 31.867 52.9621 31.8475 52.7302C31.8279 52.4982 31.7509 52.2748 31.6235 52.0801C31.496 51.8853 31.3221 51.7254 31.1173 51.6147C30.9126 51.504 30.6835 51.446 30.4508 51.446H24.2231L30.2384 38.2022Z" fill="#1A1A1A"/>
<path d="M13.4301 37.7231C14.5363 37.7672 17.8617 37.7231 17.8617 37.7231C18.2865 39.3458 19.2992 40.9516 20.8948 42.4962C21.1625 42.7494 21.5191 42.887 21.8875 42.8792C22.2559 42.8715 22.6064 42.719 22.8632 42.4548C23.1201 42.1906 23.2625 41.8359 23.2599 41.4675C23.2572 41.099 23.1095 40.7464 22.8489 40.486C21.1802 38.8632 20.3697 37.2813 20.4394 35.786C20.5192 34.0748 21.7359 32.2618 24.0553 30.3943C24.1996 30.2792 24.3197 30.1366 24.4087 29.9749C24.4977 29.8132 24.5539 29.6355 24.5741 29.452C24.5943 29.2685 24.578 29.0828 24.5262 28.9056C24.4744 28.7285 24.3882 28.5632 24.2724 28.4195C24.1566 28.2757 24.0135 28.1562 23.8515 28.0679C23.6894 27.9796 23.5114 27.9241 23.3278 27.9047C23.1443 27.8853 22.9587 27.9024 22.7817 27.9549C22.6047 28.0075 22.4399 28.0944 22.2966 28.2108C19.6118 30.3722 18.0775 32.6288 17.7087 34.9194H13.6085C12.1411 34.7371 10.7092 34.3362 9.36046 33.7299C6.52446 32.4436 4.7046 30.4589 3.95355 27.8302C2.88644 24.0919 3.97224 21.6824 5.04105 20.3316C6.16253 23.6026 9.22792 25.1556 11.442 25.8693C11.0002 26.9823 10.9441 28.5677 11.6697 30.8242C11.7196 31.0064 11.8059 31.1766 11.9232 31.3245C12.0406 31.4725 12.1867 31.5953 12.3526 31.6854C12.5186 31.7755 12.7011 31.8312 12.8891 31.8491C13.0771 31.8669 13.2668 31.8466 13.4468 31.7893C13.6268 31.732 13.7933 31.639 13.9364 31.5157C14.0795 31.3925 14.1963 31.2416 14.2796 31.0721C14.363 30.9026 14.4112 30.718 14.4214 30.5294C14.4317 30.3409 14.4037 30.1521 14.3392 29.9746C13.3604 26.916 14.3392 26.4691 14.6552 26.3196C14.9306 26.1896 15.1562 25.9736 15.298 25.7041C15.4398 25.4347 15.4901 25.1264 15.4414 24.8259C15.3927 24.5253 15.2475 24.2487 15.0279 24.0379C14.8082 23.827 14.5259 23.6933 14.2236 23.6569C14.1709 23.6569 8.91017 22.9772 7.69183 19.4259C6.51427 15.9816 7.52191 13.0504 10.4106 11.5823C12.4921 10.522 13.4131 10.5916 13.5575 10.612C13.8588 10.7293 14.1914 10.7385 14.4988 10.6381C14.8061 10.5377 15.0691 10.334 15.2432 10.0615C16.8234 7.59932 18.9644 6.83297 21.984 7.6367C22.2566 7.70927 22.5448 7.69799 22.8109 7.60432C23.077 7.51066 23.3088 7.33897 23.4759 7.11164C25.1071 4.90266 28.0502 2.24678 34.7485 4.85338C34.9463 4.93068 35.159 4.96197 35.3707 4.9449C35.5824 4.92782 35.7874 4.86282 35.9702 4.75483C37.734 3.7132 39.3296 3.49231 40.898 4.08533C38.7773 6.57299 38.689 10.1481 38.689 10.313C38.6833 10.6848 38.8256 11.0436 39.0845 11.3105C39.3435 11.5773 39.6978 11.7304 40.0696 11.7361C40.4414 11.7417 40.8002 11.5994 41.0671 11.3405C41.334 11.0816 41.4871 10.7272 41.4927 10.3555C41.4927 10.3232 41.5912 7.12694 43.4111 5.50928C44.2794 4.73953 45.4128 4.43877 46.8792 4.59C48.8911 4.79731 50.2929 5.37844 50.9284 6.27053C51.0989 6.51296 51.22 6.7866 51.2847 7.07582C51.3495 7.36504 51.3566 7.66418 51.3057 7.95615C51.2452 8.16162 51.2342 8.37847 51.2735 8.58901C51.3128 8.79955 51.4012 8.99783 51.5317 9.1677C51.6647 9.33992 51.8362 9.47864 52.0324 9.57276C52.2286 9.66688 52.4441 9.71379 52.6617 9.70975C57.7117 9.68256 59.8952 11.4192 60.1875 15.6774C60.2016 15.8831 60.261 16.0832 60.3614 16.2633C60.4619 16.4434 60.6009 16.599 60.7686 16.719C66.546 20.8719 65.7915 23.7963 64.721 25.6365C64.6252 25.8011 64.5641 25.9835 64.5413 26.1725C64.5185 26.3616 64.5345 26.5533 64.5885 26.7359C66.2112 32.2737 64.7023 34.5285 61.6998 35.7979C61.1255 33.8166 59.9734 31.9627 58.2555 30.2822C56.5403 28.6356 54.5424 27.3117 52.3575 26.374C52.0142 26.2469 51.6348 26.2592 51.3005 26.4082C50.9661 26.5571 50.7033 26.831 50.5681 27.1712C50.433 27.5113 50.4363 27.8909 50.5773 28.2287C50.7183 28.5665 50.9858 28.8357 51.3227 28.9789C53.183 29.7936 54.8846 30.9309 56.349 32.3382C59.1968 35.1538 60.0006 38.4367 58.7398 42.0952C57.4789 45.7536 55.1714 47.9286 51.9123 48.4978C50.3095 48.7582 48.6695 48.6707 47.1035 48.2412C46.7497 48.1265 46.3649 48.1571 46.0336 48.3261C45.7024 48.4952 45.4519 48.7889 45.3372 49.1427C45.2225 49.4964 45.253 49.8813 45.4221 50.2125C45.5911 50.5438 45.8848 50.7943 46.2386 50.909C47.5058 51.2759 48.8191 51.4585 50.1383 51.4511C50.8537 51.4529 51.5681 51.3961 52.2742 51.2811C55.3039 50.7833 59.3447 48.9447 61.3905 43.011C61.8885 41.6076 62.1375 40.128 62.1263 38.6389C64.5052 37.7655 66.077 36.5591 67.0387 34.8752C68.2503 32.7596 68.3828 30.0171 67.4432 26.5065C68.5001 24.3944 68.5629 22.2585 67.6284 20.1633C66.8178 18.3418 65.2783 16.595 62.93 14.8227C62.6106 12.0411 61.4993 9.96463 59.6233 8.64434C58.2232 7.66049 56.4101 7.09975 54.106 6.94512C54.0098 6.14097 53.7181 5.37262 53.2564 4.70725C52.1332 3.0777 50.0839 2.09895 47.1647 1.79819C45.9082 1.63976 44.632 1.79025 43.4468 2.23658C40.813 0.59174 38.0246 0.513576 35.1427 2.00549C29.5013 -0.00978315 25.0171 0.900998 21.7953 4.71405C18.3391 4.05815 15.4692 5.11166 13.4165 7.79303C12.5091 7.79303 11.1361 8.07 9.14976 9.08104C6.0198 10.6732 4.34267 13.6078 4.42423 17.0079C2.27812 18.6442 -0.459324 22.583 1.26029 28.6034C2.24243 32.0409 4.67401 34.7205 8.29335 36.328C9.92244 37.0579 11.6556 37.5286 13.4301 37.7231Z" fill="#1A1A1A"/>
<path d="M28.2925 16.9586C28.9144 17.0351 29.6621 16.5559 29.8218 15.9187C29.9118 15.5582 29.8549 15.1767 29.6637 14.8581C29.4726 14.5395 29.1627 14.3098 28.8023 14.2195C26.4523 13.6299 25.1337 12.3215 24.5304 9.98163C24.4845 9.80311 24.4038 9.6354 24.293 9.48806C24.1822 9.34073 24.0435 9.21666 23.8848 9.12293C23.726 9.0292 23.5504 8.96766 23.3679 8.94181C23.1854 8.91597 22.9995 8.92633 22.821 8.97229C22.6425 9.01826 22.4748 9.09894 22.3275 9.20972C22.1801 9.32051 22.056 9.45923 21.9623 9.61796C21.8686 9.77669 21.8071 9.95233 21.7812 10.1349C21.7554 10.3174 21.7657 10.5032 21.8117 10.6817C22.0497 11.6428 22.438 12.5604 22.9621 13.4005C20.5101 15.793 17.2068 16.51 12.8857 15.5924C12.7056 15.5542 12.5198 15.5518 12.3387 15.5853C12.1577 15.6189 11.9851 15.6877 11.8307 15.788C11.6763 15.8883 11.5432 16.018 11.4389 16.1697C11.3346 16.3214 11.2613 16.4922 11.223 16.6723C11.1847 16.8524 11.1823 17.0382 11.2159 17.2192C11.2494 17.4003 11.3183 17.5729 11.4186 17.7273C11.5189 17.8817 11.6486 18.0148 11.8003 18.1191C11.952 18.2234 12.1228 18.2967 12.3029 18.335C13.6099 18.6193 14.9431 18.7662 16.2807 18.7734C19.7098 18.7734 22.5865 17.6587 24.8754 15.4463C25.7845 16.126 27.0079 16.8006 28.2925 16.9586Z" fill="#1A1A1A"/>
<path d="M39.4787 20.5678C39.8605 20.5308 40.2121 20.3437 40.4561 20.0478C40.7002 19.7518 40.8168 19.3711 40.7803 18.9892C40.1397 14.0954 37.178 10.9621 32.2129 9.92724C31.8516 9.8579 31.4775 9.93337 31.1713 10.1374C30.8652 10.3413 30.6515 10.6575 30.5763 11.0176C30.5012 11.3777 30.5706 11.753 30.7696 12.0624C30.9687 12.3718 31.2813 12.5905 31.6402 12.6715C35.4872 13.4735 37.5093 15.5975 37.9987 19.3528C38.0565 19.7002 38.2384 20.0147 38.5106 20.2382C38.7828 20.4616 39.1267 20.5787 39.4787 20.5678Z" fill="#1A1A1A"/>
<path d="M46.9039 14.3554C51.5564 14.7598 54.2224 17.2441 55.2913 22.1718C55.3585 22.4848 55.5309 22.7653 55.7798 22.9665C56.0287 23.1678 56.339 23.2777 56.6591 23.278C56.7596 23.2772 56.8598 23.2664 56.9582 23.2457C57.3214 23.1668 57.6383 22.9468 57.8394 22.6342C58.0405 22.3216 58.1092 21.942 58.0304 21.5788C56.6999 15.4429 53.0398 12.0716 47.1469 11.5534C46.7753 11.5212 46.4062 11.6379 46.1207 11.8778C45.8351 12.1178 45.6566 12.4613 45.6244 12.8329C45.5922 13.2045 45.7089 13.5736 45.9488 13.8591C46.1888 14.1447 46.5323 14.3232 46.9039 14.3554Z" fill="#1A1A1A"/>
<path d="M35.963 25.0469C32.8076 23.0622 31.7575 19.0368 31.698 18.8159C31.6513 18.6373 31.57 18.4698 31.4586 18.3227C31.3472 18.1756 31.2079 18.0519 31.0487 17.9587C30.8895 17.8654 30.7135 17.8044 30.5307 17.7792C30.3479 17.754 30.162 17.765 29.9835 17.8116C29.805 17.8583 29.6374 17.9396 29.4903 18.051C29.3432 18.1624 29.2195 18.3017 29.1263 18.4609C29.033 18.6201 28.972 18.7961 28.9468 18.9789C28.9216 19.1617 28.9326 19.3476 28.9792 19.5261C29.4756 21.2067 30.2411 22.7957 31.246 24.2313C32.111 25.4902 33.2065 26.5742 34.4745 27.4258H34.4847C36.8143 28.9551 38.1278 30.5184 38.7446 32.5048C38.853 32.8612 39.0986 33.1601 39.4273 33.3355C39.756 33.5109 40.1409 33.5486 40.4974 33.4402C40.8539 33.3318 41.1527 33.0862 41.3281 32.7575C41.5035 32.4288 41.5412 32.0439 41.4328 31.6874C41.1464 30.7676 40.7335 29.8921 40.206 29.0859C47.1728 29.0112 50.6103 22.0937 50.7547 21.798C50.9118 21.4646 50.9313 21.0827 50.8089 20.7351C50.6865 20.3874 50.4322 20.1019 50.1009 19.9404C49.7696 19.7789 49.388 19.7543 49.0388 19.8721C48.6895 19.9898 48.4007 20.2403 48.2348 20.5695C48.2059 20.6255 45.3597 26.2975 40.0938 26.2839C38.6271 26.2737 37.1939 25.8445 35.963 25.0469Z" fill="#1A1A1A"/>
</svg>
