<svg width="69" height="70" viewBox="0 0 69 70" fill="none" xmlns="http://www.w3.org/2000/svg">
<path d="M67.6527 0.625H46.2425C45.6974 0.625 45.206 0.953424 44.9974 1.45691C44.7889 1.96053 44.9043 2.54015 45.2896 2.92558L50.3325 7.96851L33.3593 24.9417L17.6836 9.26604C17.1572 8.73991 16.3042 8.73991 15.7776 9.26604L0.398601 24.6451C-0.127659 25.1713 -0.127659 26.0247 0.398601 26.5511C0.661798 26.8141 1.00666 26.9458 1.35153 26.9458C1.69639 26.9458 2.04126 26.8141 2.30446 26.5511L16.7307 12.125L35.5048 30.899C35.768 31.1621 36.1128 31.2937 36.4577 31.2937C36.8026 31.2937 37.1474 31.1621 37.4106 30.899C37.9369 30.3728 37.9369 29.5194 37.4106 28.993L35.2653 26.8477L52.2384 9.8745L59.7635 17.3997L46.0858 31.0776C45.5595 31.6038 45.5595 32.4572 46.0858 32.9836C46.349 33.2466 46.6938 33.3783 47.0387 33.3783C47.3836 33.3783 47.7284 33.2466 47.9916 32.9836L61.6694 19.3057L66.6997 24.3359C66.9575 24.5937 67.3022 24.7307 67.6528 24.7307C67.8264 24.7307 68.0016 24.6971 68.1683 24.6281C68.6718 24.4195 69.0002 23.9281 69.0002 23.383V1.97266C69.0004 1.22848 68.3969 0.625 67.6527 0.625ZM66.3051 20.1294L49.496 3.32031H66.3051V20.1294Z" fill="#1A1A1A"/>
<path d="M44.6558 34.4134C44.4053 34.1614 44.0576 34.0186 43.7031 34.0186C43.3487 34.0186 43.001 34.1614 42.7504 34.4134C42.4983 34.6641 42.3555 35.0118 42.3555 35.3662C42.3555 35.7207 42.4983 36.0684 42.7504 36.3189C43.001 36.5696 43.3487 36.7139 43.7031 36.7139C44.0576 36.7139 44.4053 36.5697 44.6558 36.3189C44.9065 36.0684 45.0508 35.7207 45.0508 35.3662C45.0508 35.0118 44.9066 34.6641 44.6558 34.4134Z" fill="#1A1A1A"/>
<path d="M25.9406 36.3857L18.6361 29.0813L20.811 26.9063C21.3374 26.3801 21.3374 25.5267 20.8112 25.0005C20.2848 24.4743 19.4317 24.4743 18.9052 25.0005L0.397693 43.508C-0.128566 44.0342 -0.128566 44.8875 0.397693 45.4139C0.660891 45.677 1.00576 45.8087 1.35062 45.8087C1.69549 45.8087 2.04035 45.677 2.30355 45.4139L16.7302 30.9873L24.0348 38.2917C24.298 38.5548 24.6428 38.6865 24.9877 38.6865C25.3326 38.6865 25.6774 38.5548 25.9406 38.2917C26.4669 37.7655 26.4669 36.9121 25.9406 36.3857Z" fill="#1A1A1A"/>
<path d="M34.5629 50.0708L34.5 50.0706C33.7558 50.0706 33.1523 50.6741 33.1523 51.4183C33.1523 52.1625 33.7558 52.766 34.5 52.766L34.543 52.7661C34.5464 52.7661 34.5499 52.7661 34.5532 52.7661C35.2927 52.7661 35.8951 52.1692 35.9006 51.4284C35.9061 50.6842 35.3072 50.0763 34.5629 50.0708Z" fill="#1A1A1A"/>
<path d="M67.6523 66.9297H65.2886V60.8904C65.2886 60.2716 64.8671 59.7323 64.2666 59.5828L58.0029 58.0222L55.7574 52.6041L59.0826 47.0724C59.4015 46.5419 59.3182 45.8626 58.8806 45.425L53.6579 40.2023C53.2202 39.7647 52.5408 39.6816 52.0105 40.0003L46.4786 43.3255L41.0607 41.0802L39.5001 34.8164C39.3506 34.2159 38.8113 33.7945 38.1924 33.7945H30.8074C30.1886 33.7945 29.6492 34.2159 29.4998 34.8164L27.9392 41.0802L22.5212 43.3255L16.9894 40.0003C16.4589 39.6813 15.7797 39.7647 15.342 40.2023L10.1194 45.4251C9.68183 45.8627 9.59855 46.5421 9.9174 47.0725L13.2426 52.6041L10.9973 58.0222L4.73351 59.5828C4.13299 59.7323 3.71158 60.2716 3.71158 60.8904V66.9297H1.34766C0.603481 66.9297 0 67.5332 0 68.2773C0 69.0215 0.603481 69.625 1.34766 69.625H67.6523C68.3965 69.625 69 69.0215 69 68.2773C69 67.5332 68.3965 66.9297 67.6523 66.9297ZM62.593 66.9297H48.8199C49.5684 62.3518 48.0888 57.6488 44.7613 54.3212C43.3022 52.862 41.5918 51.7522 39.678 51.0225C38.9826 50.7573 38.2039 51.106 37.9387 51.8016C37.6735 52.497 38.0224 53.2756 38.7178 53.5409C40.2744 54.1344 41.6667 55.0381 42.8555 56.227C45.6703 59.042 46.8612 63.0662 46.0805 66.9296H22.9184C22.1378 63.0661 23.3287 59.0419 26.1437 56.227C27.3442 55.0265 28.7514 54.1171 30.3262 53.5239C31.0228 53.2616 31.3747 52.4842 31.1124 51.7877C30.85 51.0912 30.0727 50.7395 29.3762 51.0015C27.4402 51.7307 25.7113 52.8475 24.2377 54.321C20.9104 57.6485 19.4306 62.3514 20.1791 66.9296H6.40676V61.9436L12.3079 60.4735C12.7225 60.3701 13.0635 60.0764 13.2271 59.6817L15.9926 53.0081C16.1562 52.6133 16.123 52.1642 15.9026 51.7979L12.7699 46.5864L16.5033 42.853L21.7149 45.9858C22.0812 46.2061 22.5307 46.2395 22.9251 46.0758L29.5986 43.3103C29.9933 43.1467 30.2871 42.8057 30.3903 42.391L31.8605 36.4899H37.1393L38.6094 42.391C38.7126 42.8057 39.0064 43.1467 39.4012 43.3103L46.0746 46.0758C46.4693 46.2395 46.9187 46.2062 47.2848 45.9858L52.4965 42.853L56.2299 46.5864L53.0971 51.7979C52.8768 52.1644 52.8435 52.6134 53.0071 53.0081L55.7726 59.6817C55.9362 60.0764 56.2772 60.3701 56.6919 60.4735L62.593 61.9436V66.9297Z" fill="#1A1A1A"/>
</svg>
