<svg width="71" height="68" viewBox="0 0 71 68" fill="none" xmlns="http://www.w3.org/2000/svg">
<path d="M51.0312 33.875H50.7812V34.125V51.875V52.125H51.0312C52.1186 52.125 53 53.0064 53 54.0938C53 55.1811 52.1186 56.0625 51.0312 56.0625H46.5938C45.5064 56.0625 44.625 55.1811 44.625 54.0938C44.625 53.0064 45.5064 52.125 46.5938 52.125H46.8438V51.875V34.125V33.875H46.5938C45.5064 33.875 44.625 32.9936 44.625 31.9062C44.625 30.8189 45.5064 29.9375 46.5938 29.9375H51.0312C52.1186 29.9375 53 30.8189 53 31.9062C53 32.9936 52.1186 33.875 51.0312 33.875ZM66.5625 18.8438H66.8125V18.5938V7.5C66.8125 6.13656 65.7072 5.03125 64.3438 5.03125H6.65625C5.37785 5.03125 4.32668 6.00274 4.20023 7.2479L4.20023 7.24792C4.19181 7.33085 4.1875 7.41495 4.1875 7.5V18.5938V18.8438H4.4375H66.5625ZM66.8125 23.0312V22.7812H66.5625H4.4375H4.1875V23.0312V60.75C4.1875 62.1135 5.29281 63.2188 6.65625 63.2188H64.3438C65.7072 63.2188 66.8125 62.1135 66.8125 60.75V23.0312ZM13.0625 11.9375C13.0625 13.0248 12.1811 13.9062 11.0938 13.9062C10.0064 13.9062 9.125 13.0248 9.125 11.9375C9.125 10.8502 10.0064 9.96875 11.0938 9.96875C12.1811 9.96875 13.0625 10.8502 13.0625 11.9375ZM19.7188 11.9375C19.7188 13.0248 18.8373 13.9062 17.75 13.9062C16.6627 13.9062 15.7812 13.0248 15.7812 11.9375C15.7812 10.8502 16.6627 9.96875 17.75 9.96875C18.8373 9.96875 19.7188 10.8502 19.7188 11.9375ZM26.375 11.9375C26.375 13.0248 25.4936 13.9062 24.4062 13.9062C23.3189 13.9062 22.4375 13.0248 22.4375 11.9375C22.4375 10.8502 23.3189 9.96875 24.4062 9.96875C25.4936 9.96875 26.375 10.8502 26.375 11.9375ZM19.9688 29.9375C21.0561 29.9375 21.9375 30.8189 21.9375 31.9062V45.2188C21.9375 49.0331 25.0294 52.125 28.8438 52.125C32.6581 52.125 35.75 49.0331 35.75 45.2188V31.9062C35.75 30.8189 36.6314 29.9375 37.7188 29.9375C38.8061 29.9375 39.6875 30.8189 39.6875 31.9062V45.2188C39.6875 51.2075 34.8325 56.0625 28.8438 56.0625C22.855 56.0625 18 51.2075 18 45.2188V31.9062C18 30.8189 18.8814 29.9375 19.9688 29.9375ZM0.25 7.5C0.25 3.96194 3.11819 1.09375 6.65625 1.09375H64.3438C67.8819 1.09375 70.75 3.96193 70.75 7.5V60.75C70.75 64.2882 67.8819 67.1562 64.3438 67.1562H6.65625C3.11818 67.1562 0.25 64.2882 0.25 60.75V7.5Z" fill="#1A1A1A" stroke="white" stroke-width="0.5"/>
</svg>
