<svg width="54" height="72" viewBox="0 0 54 72" fill="none" xmlns="http://www.w3.org/2000/svg">
<path d="M0.0673828 9.60688V70.0625C0.0673828 70.7156 0.601758 71.25 1.25488 71.25H52.7449C53.398 71.25 53.9324 70.7156 53.9324 70.0625V9.60688C53.9324 8.95375 53.398 8.41938 52.7449 8.41938H41.0005V7.57625C41.0005 5.8425 39.5755 4.42938 37.818 4.42938H32.4861C31.9518 1.9 29.6955 0 26.9999 0C24.328 0 22.0836 1.9 21.5374 4.42938H16.2055C14.448 4.42938 13.023 5.8425 13.023 7.57625V8.41938H1.25488C0.601758 8.41938 0.0673828 8.95375 0.0673828 9.60688ZM2.44238 10.7944H13.023V14.4519C13.023 15.105 13.5574 15.6394 14.2105 15.6394H39.813C40.4661 15.6394 41.0005 15.105 41.0005 14.4519V10.7944H51.5574V68.875H2.44238V10.7944Z" fill="#1A1A1A"/>
<path d="M12.7454 22.3867H11.2421C10.5854 22.3867 10.0546 22.9187 10.0546 23.5742C10.0546 24.2297 10.5854 24.7617 11.2421 24.7617H12.7454C13.4021 24.7617 13.9329 24.2297 13.9329 23.5742C13.9329 22.9187 13.4021 22.3867 12.7454 22.3867Z" fill="#1A1A1A"/>
<path d="M42.7865 22.3867H20.0055C19.3488 22.3867 18.818 22.9187 18.818 23.5742C18.818 24.2297 19.3488 24.7617 20.0055 24.7617H42.7865C43.4432 24.7617 43.974 24.2297 43.974 23.5742C43.974 22.9187 43.4432 22.3867 42.7865 22.3867Z" fill="#1A1A1A"/>
<path d="M12.7454 30.9414H11.2421C10.5854 30.9414 10.0546 31.4734 10.0546 32.1289C10.0546 32.7844 10.5854 33.3164 11.2421 33.3164H12.7454C13.4021 33.3164 13.9329 32.7844 13.9329 32.1289C13.9329 31.4734 13.4021 30.9414 12.7454 30.9414Z" fill="#1A1A1A"/>
<path d="M42.7865 30.9414H20.0055C19.3488 30.9414 18.818 31.4734 18.818 32.1289C18.818 32.7844 19.3488 33.3164 20.0055 33.3164H42.7865C43.4432 33.3164 43.974 32.7844 43.974 32.1289C43.974 31.4734 43.4432 30.9414 42.7865 30.9414Z" fill="#1A1A1A"/>
<path d="M12.7454 39.4951H11.2421C10.5854 39.4951 10.0546 40.0271 10.0546 40.6826C10.0546 41.3381 10.5854 41.8701 11.2421 41.8701H12.7454C13.4021 41.8701 13.9329 41.3381 13.9329 40.6826C13.9329 40.0271 13.4021 39.4951 12.7454 39.4951Z" fill="#1A1A1A"/>
<path d="M42.7865 39.4951H20.0055C19.3488 39.4951 18.818 40.0271 18.818 40.6826C18.818 41.3381 19.3488 41.8701 20.0055 41.8701H42.7865C43.4432 41.8701 43.974 41.3381 43.974 40.6826C43.974 40.0271 43.4432 39.4951 42.7865 39.4951Z" fill="#1A1A1A"/>
<path d="M12.7454 48.0498H11.2421C10.5854 48.0498 10.0546 48.5818 10.0546 49.2373C10.0546 49.8928 10.5854 50.4248 11.2421 50.4248H12.7454C13.4021 50.4248 13.9329 49.8928 13.9329 49.2373C13.9329 48.5818 13.4021 48.0498 12.7454 48.0498Z" fill="#1A1A1A"/>
<path d="M42.7865 48.0498H20.0055C19.3488 48.0498 18.818 48.5818 18.818 49.2373C18.818 49.8928 19.3488 50.4248 20.0055 50.4248H42.7865C43.4432 50.4248 43.974 49.8928 43.974 49.2373C43.974 48.5818 43.4432 48.0498 42.7865 48.0498Z" fill="#1A1A1A"/>
<path d="M12.7454 56.6045H11.2421C10.5854 56.6045 10.0546 57.1365 10.0546 57.792C10.0546 58.4475 10.5854 58.9795 11.2421 58.9795H12.7454C13.4021 58.9795 13.9329 58.4475 13.9329 57.792C13.9329 57.1365 13.4021 56.6045 12.7454 56.6045Z" fill="#1A1A1A"/>
<path d="M42.7865 56.6045H20.0055C19.3488 56.6045 18.818 57.1365 18.818 57.792C18.818 58.4475 19.3488 58.9795 20.0055 58.9795H42.7865C43.4432 58.9795 43.974 58.4475 43.974 57.792C43.974 57.1365 43.4432 56.6045 42.7865 56.6045Z" fill="#1A1A1A"/>
</svg>
