<svg width="69" height="70" viewBox="0 0 69 70" fill="none" xmlns="http://www.w3.org/2000/svg">
<path d="M14.1504 17.2686C14.8947 17.2686 15.498 16.6652 15.498 15.9209C15.498 15.1766 14.8947 14.5732 14.1504 14.5732C13.4061 14.5732 12.8027 15.1766 12.8027 15.9209C12.8027 16.6652 13.4061 17.2686 14.1504 17.2686Z" fill="#1A1A1A"/>
<path d="M49.3242 30.9473H67.6523C68.3965 30.9473 69 30.3438 69 29.5996V1.97266C69 1.22848 68.3965 0.625 67.6523 0.625H49.3242C48.58 0.625 47.9766 1.22848 47.9766 1.97266V6.41992H43.5293C39.8138 6.41992 36.791 9.37533 36.791 13.0908V22.3223C36.791 24.5516 34.9773 26.3652 32.748 26.3652H28.3008V15.9209C28.3008 15.5665 28.1566 15.2525 27.9058 15.0018C27.6553 14.7511 27.3076 14.6406 26.9531 14.6406H20.2148C19.4708 14.6406 18.8672 15.2457 18.8672 15.9883C18.8672 16.7308 19.4708 17.3359 20.2148 17.3359H25.6055V53.0488H2.69531V17.3359H8.08594C8.8285 17.3359 9.43359 16.7308 9.43359 15.9883C9.43359 15.2457 8.8285 14.6406 8.08594 14.6406H1.34766C0.993223 14.6406 0.645527 14.751 0.394863 15.0018C0.144199 15.2526 0 15.565 0 15.9209V54.3291C0 54.6835 0.144064 55.0649 0.394863 55.3155C0.645527 55.5663 0.993223 55.7441 1.34766 55.7441H26.9531C27.3076 55.7441 27.6553 55.5663 27.9058 55.3155C28.1564 55.0649 28.3008 54.6835 28.3008 54.3291V43.8848H32.748C34.9773 43.8848 36.791 45.6984 36.791 47.9277V57.1592C36.791 60.8747 39.8138 63.9648 43.5293 63.9648H47.9766V68.2773C47.9766 69.0215 48.58 69.625 49.3242 69.625H67.6523C68.3965 69.625 69 69.0215 69 68.2773V40.6504C69 39.9062 68.3965 39.3027 67.6523 39.3027H49.3242C48.58 39.3027 47.9766 39.9062 47.9766 40.6504V61.2695H43.5293C41.3 61.2695 39.4863 59.3885 39.4863 57.1592V47.9277C39.4863 44.2122 36.4635 41.1895 32.748 41.1895H28.3008V29.0605H32.748C36.4635 29.0605 39.4863 26.0378 39.4863 22.3223V13.0908C39.4863 10.8615 41.3 9.11523 43.5293 9.11523H47.9766V29.5996C47.9766 30.3438 48.58 30.9473 49.3242 30.9473ZM50.6719 3.32031H66.3047V12.0801H50.6719V3.32031ZM50.6719 14.7754H66.3047V28.252H50.6719V14.7754ZM50.6719 41.998H66.3047V44.6934H50.6719V41.998ZM50.6719 47.3887H66.3047V55.8789H50.6719V47.3887ZM50.6719 58.5742H66.3047V66.9297H50.6719V58.5742Z" fill="#1A1A1A"/>
<path d="M21.5625 46.5801H6.73828C5.99411 46.5801 5.39062 47.1836 5.39062 47.9277C5.39062 48.6719 5.99411 49.2754 6.73828 49.2754H21.5625C22.3067 49.2754 22.9102 48.6719 22.9102 47.9277C22.9102 47.1836 22.3067 46.5801 21.5625 46.5801Z" fill="#1A1A1A"/>
<path d="M21.5625 41.1895H6.73828C5.99411 41.1895 5.39062 41.7929 5.39062 42.5371C5.39062 43.2813 5.99411 43.8848 6.73828 43.8848H21.5625C22.3067 43.8848 22.9102 43.2813 22.9102 42.5371C22.9102 41.7929 22.3067 41.1895 21.5625 41.1895Z" fill="#1A1A1A"/>
</svg>
