<svg width="36" height="344" viewBox="0 0 36 344" fill="none" xmlns="http://www.w3.org/2000/svg">
<path d="M1 0L1 8.25L1 18.9303C1 25.59 5.53706 31.3932 12 33V33V33C5.38571 35.4667 1 41.783 1 48.8422L1 57.75V114.875V128.115C1 135.304 5.34681 141.778 12 144.5V144.5V144.5C5.50551 146.271 1 152.17 1 158.902V198V237.898C1 245.086 5.34681 251.561 12 254.282V254.282V254.282C5.34681 257.004 1 263.479 1 270.667L1 289.114L1 307.337L1 343.782" stroke="black"/>
<path d="M35.3868 33L32.5 30.1132L29.6132 33L32.5 35.8868L35.3868 33ZM12 33.5H32.5V32.5H12V33.5Z" fill="black"/>
<path d="M35.3868 144.5L32.5 141.613L29.6132 144.5L32.5 147.387L35.3868 144.5ZM12 145H32.5V144H12V145Z" fill="black"/>
<path d="M35.3868 254.285L32.5 251.398L29.6132 254.285L32.5 257.172L35.3868 254.285ZM12 254.785H32.5V253.785H12V254.785Z" fill="black"/>
</svg>
