<svg width="74" height="74" viewBox="0 0 74 74" fill="none" xmlns="http://www.w3.org/2000/svg">
<path d="M23.125 30.0625H50.875V34.6875H23.125V30.0625ZM23.125 41.625H50.875V46.25H23.125V41.625Z" fill="white"/>
<path d="M69.375 14.8324L66.1051 11.5625L58.3582 19.3094C57.2521 17.9757 56.0243 16.7479 54.6906 15.6418L62.4375 7.89488L59.1676 4.625L50.8195 12.9731C45.5378 9.92208 39.3967 8.69944 33.3492 9.49491C27.3016 10.2904 21.6857 13.0595 17.3726 17.3726C13.0595 21.6857 10.2904 27.3016 9.49491 33.3492C8.69944 39.3967 9.92208 45.5378 12.9731 50.8195L4.625 59.1676L7.89488 62.4375L15.6418 54.6906C16.7479 56.0243 17.9757 57.2521 19.3094 58.3582L11.5625 66.1051L14.8324 69.375L23.1805 61.0269C28.4622 64.0779 34.6033 65.3006 40.6508 64.5051C46.6984 63.7096 52.3143 60.9405 56.6274 56.6274C60.9405 52.3143 63.7096 46.6984 64.5051 40.6508C65.3006 34.6033 64.0779 28.4622 61.0269 23.1805L69.375 14.8324ZM37 60.125C32.4263 60.125 27.9553 58.7687 24.1524 56.2277C20.3496 53.6867 17.3856 50.0751 15.6353 45.8496C13.885 41.624 13.4271 36.9743 14.3193 32.4885C15.2116 28.0027 17.4141 23.8822 20.6482 20.6482C23.8822 17.4141 28.0027 15.2116 32.4885 14.3193C36.9743 13.4271 41.624 13.885 45.8496 15.6353C50.0751 17.3856 53.6867 20.3496 56.2277 24.1524C58.7687 27.9553 60.125 32.4263 60.125 37C60.1183 43.1311 57.6797 49.0091 53.3444 53.3444C49.0091 57.6797 43.1311 60.1183 37 60.125Z" fill="white"/>
</svg>
