<svg width="48" height="7" viewBox="0 0 48 7" fill="none" xmlns="http://www.w3.org/2000/svg">
<path d="M47.9392 3.53037L42.9391 0.643724L42.9392 6.41723L47.9392 3.53037ZM23.0583 3.53037L23.0544 4.03035L23.0583 3.53037ZM10.6178 3.53037L10.6169 3.03037L10.6178 3.53037ZM35.4987 3.53037L35.4987 4.03037L35.4987 3.53037ZM16.5 3.53037L16.4946 3.0304L16.5 3.53037ZM4 3.53037L4.0036 3.03038L4 3.53037ZM29 3.53037L29.0128 3.03053L29 3.53037ZM35.4987 4.03037C37.7588 4.0305 40.8856 4.0305 43.439 4.03046L43.439 3.03046C40.8856 3.0305 37.7588 3.0305 35.4988 3.03037L35.4987 4.03037ZM10.6187 4.03037C13.3019 4.02555 13.8068 4.05962 16.5054 4.03034L16.4946 3.0304C13.7945 3.0597 13.3328 3.0255 10.6169 3.03037L10.6187 4.03037ZM16.5054 4.03034C19.1364 4.00179 20.4198 4.01024 23.0544 4.03035L23.0621 3.03038C20.4254 3.01025 19.1347 3.00175 16.4946 3.0304L16.5054 4.03034ZM1 6.35307C1.49617 6.41481 1.49615 6.41502 1.49612 6.41522C1.49611 6.41528 1.49609 6.41547 1.49608 6.41557C1.49605 6.41579 1.49603 6.41596 1.49601 6.41608C1.49598 6.41634 1.49597 6.41643 1.49598 6.41636C1.496 6.41621 1.4961 6.41542 1.4963 6.41398C1.4967 6.41112 1.49747 6.40573 1.49868 6.39799C1.50109 6.3825 1.50521 6.35766 1.51148 6.32483C1.52405 6.25902 1.54512 6.16192 1.57809 6.04414C1.64457 5.80668 1.75662 5.49543 1.93786 5.18931C2.29213 4.59092 2.89649 4.02244 3.9964 4.03035L4.0036 3.03038C2.45713 3.01926 1.56149 3.86213 1.07736 4.67985C0.839398 5.08178 0.697639 5.47978 0.615116 5.77455C0.573588 5.92288 0.54635 6.04764 0.529246 6.13717C0.520681 6.182 0.514619 6.2182 0.510556 6.24432C0.508524 6.25739 0.506989 6.26796 0.505889 6.27585C0.505338 6.27979 0.504897 6.28307 0.504556 6.28565C0.504385 6.28695 0.50424 6.28807 0.504119 6.28901C0.504058 6.28949 0.504004 6.28992 0.503955 6.2903C0.503931 6.29049 0.503899 6.29075 0.503887 6.29085C0.503856 6.29109 0.503827 6.29132 1 6.35307ZM3.9964 4.03035C6.68805 4.04971 7.93308 4.03518 10.6187 4.03037L10.6169 3.03037C7.92516 3.03519 6.68925 3.04969 4.0036 3.03038L3.9964 4.03035ZM23.0544 4.03035C25.696 4.05052 26.3856 3.96377 28.9872 4.0302L29.0128 3.03053C26.4304 2.96459 25.606 3.0498 23.0621 3.03038L23.0544 4.03035ZM28.9872 4.0302C31.7353 4.10038 32.7793 4.03021 35.4987 4.03037L35.4988 3.03037C32.7327 3.03021 31.7485 3.10039 29.0128 3.03053L28.9872 4.0302Z" fill="black"/>
</svg>
