<svg width="22" height="22" viewBox="0 0 22 22" fill="none" xmlns="http://www.w3.org/2000/svg">
<path d="M17.6029 0L9.68171 0C9.195 0 8.80158 0.394301 8.80158 0.880136C8.80158 1.36597 9.195 1.76027 9.68171 1.76027L17.6029 1.76027C17.7605 1.76027 17.9127 1.78139 18.0588 1.82012L0.2581 19.6209C-0.0860333 19.965 -0.0860333 20.5212 0.2581 20.8654C0.429726 21.037 0.655041 21.1233 0.880356 21.1233C1.10567 21.1233 1.33099 21.037 1.50261 20.8654L19.3034 3.06463C19.3421 3.20985 19.3632 3.363 19.3632 3.52054V11.4418C19.3632 11.9276 19.7566 12.3219 20.2433 12.3219C20.7301 12.3219 21.1235 11.9276 21.1235 11.4418V3.52054C21.1235 1.57896 19.5445 0 17.6029 0Z" fill="white"/>
</svg>
