<svg width="379" height="167" viewBox="0 0 379 167" fill="none" xmlns="http://www.w3.org/2000/svg">
<rect x="0.5" y="0.5" width="378" height="166" rx="37.5" stroke="black"/>
<path d="M72.9893 108.814C70.4449 108.814 69.6207 106.885 69.3493 106.266C69.0119 105.478 68.7793 104.733 68.7793 102.603C68.7793 100.056 69.6006 96.3125 72.6792 96.3125C74.5745 96.3125 75.8582 97.3202 77.04 99.0955H77.9848C77.9647 97.8851 77.3142 95.8913 77.2496 95.7346C75.393 95.2171 73.3914 95.1697 72.7395 95.1697C68.7606 95.1697 65.5557 98.1094 65.5557 102.705C65.5557 106.375 67.7009 109.864 73.0367 109.864C74.385 109.864 76.5331 109.733 77.6086 108.83C77.8613 107.831 78.0911 106.795 78.1973 105.744C77.6474 105.77 77.4808 105.788 77.2065 105.834C76.4053 107.069 74.9507 108.814 72.9893 108.814Z" fill="#565963"/>
<path d="M97.0015 95.6182C96.4961 95.6398 95.5929 95.6872 95.1047 95.6872C94.3264 95.6872 93.5051 95.5966 93.5051 95.5966C92.9178 95.5075 92.1352 95.532 91.8825 95.555C91.8179 95.7778 91.8179 95.8252 91.7964 96.1774C92.1123 96.2938 93.5912 96.6086 93.7377 96.8703C93.821 96.9838 93.8827 99.2953 93.8827 99.5397V100.033C93.8827 101.329 93.8224 101.314 93.7966 101.693C93.1676 101.805 90.3877 101.805 89.4185 101.805H88.6589C88.3847 101.785 86.9761 101.765 86.6587 101.712C86.6357 101.449 86.6774 100.615 86.6774 100.099C86.6774 99.7424 86.719 97.9728 86.719 97.5703V96.9838C86.719 96.9436 86.7808 96.7409 86.9516 96.6748L88.7192 96.3643C88.7623 96.0696 88.7623 95.9819 88.7408 95.5966C88.5268 95.5808 88.4651 95.555 88.1104 95.555C87.8792 95.555 87.8319 95.5808 87.6452 95.6196C86.4448 95.7174 86.3213 95.6886 85.9795 95.6886H85.1812C85.0132 95.6886 84.4876 95.6196 83.9994 95.5981C83.517 95.5823 83.0747 95.5334 83.0532 95.5334C82.7761 95.5334 82.2319 95.5334 81.9547 95.5981C81.8901 95.8712 81.8901 95.9158 81.9389 96.3657C82.2103 96.4534 83.6017 96.6086 83.7453 96.6762C83.853 96.9853 83.9147 98.1108 83.9147 98.4228V105.656C83.9147 106.421 83.853 107.34 83.7884 108.549C83.3863 108.702 83.2427 108.725 81.9533 108.951C81.8887 109.415 81.8887 109.415 81.8887 109.734H83.158C83.3461 109.734 84.5451 109.599 84.7332 109.599C85.3262 109.599 88.0673 109.759 88.7178 109.734C88.7178 109.693 88.7609 109.49 88.7609 109.328C88.7609 109.257 88.7408 109.079 88.7178 108.994C88.445 108.796 86.9086 108.679 86.7162 108.549C86.6544 108.008 86.6128 104.582 86.6128 103.871C86.6128 103.836 86.6544 103.172 86.6544 103.039C86.9488 102.947 87.5389 102.97 88.1693 102.97L92.9336 103.011C93.3529 103.011 93.4577 103.039 93.7521 103.053C93.7765 103.599 93.7765 103.642 93.7765 103.836L93.8597 104.627V105.55C93.8597 107.321 93.8597 107.604 93.7348 108.505C93.1002 108.635 92.4239 108.794 91.7935 108.929C91.7562 109.152 91.7562 109.201 91.7562 109.64L92.0907 109.709C92.3836 109.709 93.0829 109.624 93.373 109.624C93.9043 109.578 93.966 109.578 94.4915 109.578C95.1205 109.578 95.9246 109.598 96.6626 109.64C97.4236 109.693 98.1373 109.733 98.604 109.733V108.95C98.3484 108.83 97.0001 108.505 96.7014 108.386C96.7229 108.096 96.7014 106.572 96.7014 106.24V97.096C96.7014 97.096 96.7445 96.9206 96.7646 96.8688C97.2528 96.6345 97.5041 96.5626 98.604 96.3341C98.6226 96.0451 98.6456 95.9345 98.6456 95.5521C98.4374 95.5305 98.2234 95.5305 97.9291 95.5305C97.8027 95.532 97.1508 95.5966 97.0015 95.6182Z" fill="#565963"/>
<path d="M250.848 95.6182C250.341 95.6398 249.44 95.6872 248.95 95.6872C248.17 95.6872 247.35 95.5966 247.35 95.5966C246.762 95.5075 245.982 95.532 245.732 95.555C245.665 95.7778 245.665 95.8252 245.647 96.1774C245.962 96.2938 247.435 96.6086 247.587 96.8703C247.669 96.9838 247.731 99.2953 247.731 99.5397V100.033C247.731 101.329 247.669 101.314 247.648 101.693C247.013 101.805 244.237 101.805 243.262 101.805H242.507C242.233 101.785 240.813 101.765 240.503 101.712C240.482 101.449 240.524 100.615 240.524 100.099C240.524 99.7424 240.566 97.9728 240.566 97.5703V96.9838C240.566 96.9436 240.629 96.7409 240.798 96.6748L242.569 96.3643C242.609 96.0696 242.609 95.9819 242.589 95.5966C242.375 95.5808 242.312 95.555 241.956 95.555C241.726 95.555 241.686 95.5808 241.493 95.6196C240.29 95.7174 240.167 95.6886 239.829 95.6886H239.025C238.857 95.6886 238.332 95.6196 237.849 95.5981C237.365 95.5823 236.923 95.5334 236.898 95.5334C236.631 95.5334 236.08 95.5334 235.806 95.5981C235.74 95.8712 235.74 95.9158 235.786 96.3657C236.063 96.4534 237.448 96.6086 237.592 96.6762C237.701 96.9853 237.767 98.1108 237.767 98.4228V105.656C237.767 106.421 237.701 107.34 237.634 108.549C237.239 108.702 237.088 108.725 235.804 108.951C235.738 109.415 235.738 109.415 235.738 109.734H237.006C237.194 109.734 238.392 109.599 238.583 109.599C239.176 109.599 241.918 109.759 242.57 109.734C242.57 109.693 242.61 109.49 242.61 109.328C242.61 109.257 242.59 109.079 242.57 108.994C242.292 108.796 240.757 108.679 240.566 108.549C240.504 108.008 240.464 104.582 240.464 103.871C240.464 103.836 240.504 103.172 240.504 103.039C240.8 102.947 241.391 102.97 242.022 102.97L246.783 103.011C247.204 103.011 247.31 103.039 247.607 103.053C247.629 103.599 247.629 103.642 247.629 103.836L247.711 104.627V105.55C247.711 107.321 247.711 107.604 247.586 108.505C246.951 108.635 246.276 108.794 245.646 108.929C245.601 109.152 245.601 109.201 245.601 109.64L245.94 109.709C246.233 109.709 246.927 109.624 247.224 109.624C247.751 109.578 247.814 109.578 248.343 109.578C248.972 109.578 249.776 109.598 250.512 109.64C251.27 109.693 251.985 109.733 252.446 109.733V108.95C252.195 108.83 250.847 108.505 250.554 108.386C250.571 108.096 250.554 106.572 250.554 106.24V97.096C250.554 97.096 250.593 96.9206 250.613 96.8688C251.102 96.6345 251.352 96.5626 252.446 96.3341C252.469 96.0451 252.491 95.9345 252.491 95.5521C252.281 95.5305 252.069 95.5305 251.772 95.5305C251.651 95.532 250.998 95.5966 250.848 95.6182Z" fill="#565963"/>
<path d="M114.873 95.6182C114.748 95.6182 114.33 95.5967 113.906 95.5794C113.506 95.555 113.085 95.532 112.918 95.532H112.094V96.383H113.191C113.447 96.383 113.946 96.5842 114.076 96.9839C114.12 97.1219 114.45 100.996 114.45 104.133C114.45 105.03 114.432 106.217 113.926 107.181C113.401 108.14 112.368 108.882 110.322 108.882C109.88 108.882 107.986 108.75 107.436 106.887C107.203 106.106 107.054 103.601 107.077 102.791L107.12 100.907C107.053 100.034 107.053 99.8373 107.053 98.0447C107.053 97.704 107.076 96.8717 107.16 96.7424C107.202 96.7007 107.416 96.5152 107.707 96.4994C107.812 96.4994 109.074 96.429 109.142 96.406V95.555C108.321 95.5967 106.109 95.6671 105.285 95.6671C104.841 95.6671 102.712 95.532 102.229 95.555L102.27 96.429C102.403 96.4534 103.091 96.4707 103.262 96.4994C103.473 96.5152 103.958 96.5641 104.129 96.8703C104.274 97.0989 104.251 97.441 104.251 104.045C104.251 106.437 104.251 110.002 109.666 110.002C111.102 110.002 112.663 109.778 113.923 108.771C115.503 107.519 115.481 106.267 115.481 103.438C115.481 102.99 115.377 100.753 115.359 100.235C115.315 99.3888 115.315 99.2724 115.315 98.578C115.315 98.3567 115.257 97.2987 115.257 97.0586C115.257 96.6072 115.423 96.5842 116.159 96.498C116.537 96.4692 116.583 96.4692 116.956 96.3629C117.001 96.176 117.001 96.1156 117.001 96.0452C117.001 95.9129 116.956 95.716 116.939 95.5535C116.854 95.532 115.022 95.6182 114.873 95.6182Z" fill="#565963"/>
<path d="M125.338 108.869C123.613 108.356 123.271 108.26 123.271 106.918C123.271 106.116 123.339 104.432 123.356 103.559L123.422 98.3854H123.464C123.483 98.4746 124.221 100.177 124.367 100.533L125.908 104.029C126.031 104.365 126.244 104.88 126.39 105.195C127.448 107.594 127.546 107.854 128.141 109.647H128.942C129.025 109.382 129.512 107.907 129.803 107.023L130.88 104.479L133.41 98.2302H133.449C133.471 98.5392 133.471 98.6356 133.511 99.3687L133.682 103.221C133.723 104.299 133.768 105.98 133.768 107.054C133.768 108.15 133.643 108.26 133.346 108.396C133.133 108.492 132.102 108.707 131.87 108.8V109.563C132.779 109.522 134.212 109.431 135.118 109.431C135.37 109.431 136.358 109.476 136.739 109.499C138.005 109.648 138.133 109.63 138.617 109.648V108.914C138.38 108.848 136.783 108.33 136.724 108.221C136.548 107.974 136.447 102.173 136.381 101.275C136.337 100.645 136.17 97.7443 136.17 97.2627C136.17 96.5943 138.067 96.2795 138.17 96.2594V95.4055C137.962 95.3624 137.266 95.4314 136.802 95.4745L133.853 95.5593C133.495 95.5838 133.474 95.6283 133.198 96.2781C132.524 97.8723 131.954 99.5239 131.262 101.137L129.489 105.175C129.365 104.948 128.711 103.444 128.307 102.507L126.709 98.7851C126.495 98.2934 126.202 97.4669 125.971 96.9522C125.781 96.5196 125.487 95.8741 125.233 95.5823C124.053 95.5148 121.482 95.4299 121.462 95.4299H121.125C120.766 95.4501 120.724 95.4501 120.575 95.4501C120.555 95.8267 120.555 95.9446 120.575 96.2565C120.743 96.3011 120.807 96.3226 121.294 96.4132C121.757 96.5052 122.095 96.5914 122.259 96.7266C122.599 96.9709 122.516 98.7836 122.516 99.0539L122.367 103.02C122.342 103.536 122.322 103.576 122.322 103.875C122.322 104.828 122.322 106.716 122.113 107.631C121.963 108.304 121.9 108.593 120.242 108.822L120.194 109.579C120.533 109.559 121.983 109.47 122.219 109.47C122.89 109.47 123.649 109.516 123.984 109.559C124.637 109.624 124.704 109.624 125.335 109.644V108.869H125.338Z" fill="#565963"/>
<path d="M148.351 95.4111L148.267 95.6095C147.252 98.542 147.067 98.8611 146.197 101.345C145.572 103.179 145.146 104.44 144.831 105.311C144.008 107.621 143.76 108.331 143.438 108.625C143.25 108.78 142.008 109.003 141.735 109.095V109.855C142.093 109.855 143.143 109.522 144.093 109.565C144.762 109.657 145.484 109.767 146.159 109.855H146.856C146.879 109.68 146.856 109.299 146.856 109.026C145.294 108.763 145.068 108.735 145.068 108.203C145.068 107.864 146.014 105.244 146.159 104.864H150.098C150.461 105.868 150.476 106.043 151.069 107.457C151.346 108.106 151.364 108.175 151.364 108.38C151.364 108.651 151.093 108.735 150.964 108.764C150.773 108.827 149.763 109.052 149.535 109.095C149.512 109.407 149.488 109.522 149.488 109.855L150.668 109.813C151.894 109.767 152.015 109.704 153.112 109.704C153.345 109.704 153.999 109.744 154.648 109.769C155.328 109.815 156 109.857 156.251 109.857C156.251 109.609 156.274 109.5 156.206 109.076C156.04 109.003 155.869 108.937 155.43 108.849C155.408 108.827 154.881 108.711 154.819 108.695C154.46 108.495 153.956 107.084 153.472 105.648C153.386 105.402 152.881 104.171 152.775 103.905C152.14 102.154 149.822 96.1701 149.442 95.4126L148.351 95.4111ZM146.583 103.694L148.055 99.4591C148.543 100.496 149.443 102.98 149.676 103.694H146.583Z" fill="#565963"/>
<path d="M165.766 109.865C167.111 109.865 169.265 109.734 170.333 108.832C170.59 107.833 170.823 106.796 170.926 105.745C170.382 105.771 170.21 105.79 169.941 105.836C169.139 107.069 167.684 108.814 165.723 108.814C163.175 108.814 162.351 106.885 162.081 106.266C161.744 105.478 161.51 104.733 161.51 102.603C161.51 100.056 162.331 96.3125 165.407 96.3125C167.304 96.3125 168.592 97.3202 169.775 99.0955H170.717C170.695 97.8851 170.045 95.8913 169.979 95.7346C168.122 95.2171 166.123 95.1697 165.473 95.1697C161.487 95.1697 158.286 98.1094 158.286 102.705C158.286 106.376 160.428 109.865 165.766 109.865Z" fill="#565963"/>
<path d="M176.737 108.431C176.332 108.586 176.186 108.618 174.904 108.833C174.842 109.31 174.842 109.31 174.842 109.624H176.105C176.293 109.624 177.494 109.49 177.686 109.49C178.278 109.49 181.01 109.641 181.667 109.624C181.667 109.579 181.713 109.377 181.713 109.217C181.713 109.154 181.691 108.971 181.667 108.884C181.395 108.679 179.857 108.572 179.669 108.432C179.602 107.896 179.559 104.475 179.559 103.757C179.559 103.729 179.602 103.056 179.602 102.929C179.895 102.836 180.488 102.859 181.117 102.859L185.88 102.901C186.303 102.901 186.408 102.929 186.704 102.948C186.724 103.486 186.724 103.533 186.724 103.729L186.806 104.514V105.442C186.806 107.207 186.806 107.495 186.682 108.389C186.05 108.531 185.374 108.679 184.742 108.817C184.705 109.039 184.705 109.088 184.705 109.528L185.038 109.601C185.331 109.601 186.033 109.51 186.322 109.51C186.853 109.467 186.916 109.467 187.437 109.467C188.071 109.467 188.871 109.492 189.609 109.528C190.368 109.581 191.083 109.625 191.548 109.625V108.835C191.296 108.728 189.95 108.39 189.652 108.277C189.675 107.988 189.652 106.458 189.652 106.132V96.9853C189.652 96.9853 189.695 96.81 189.713 96.7683C190.199 96.5153 190.449 96.4491 191.548 96.2306C191.569 95.9374 191.586 95.8253 191.586 95.44C191.38 95.4185 191.172 95.4185 190.876 95.4185C190.747 95.4185 190.095 95.4889 189.949 95.5076C189.443 95.5335 188.536 95.5809 188.049 95.5809C187.268 95.5809 186.447 95.4889 186.447 95.4889C185.862 95.3955 185.078 95.4185 184.826 95.44C184.764 95.6628 184.764 95.7088 184.739 96.0696C185.057 96.176 186.533 96.4966 186.679 96.7668C186.765 96.8689 186.827 99.1818 186.827 99.4291V99.9193C186.827 101.222 186.765 101.2 186.74 101.578C186.111 101.692 183.325 101.692 182.359 101.692H181.599C181.326 101.672 179.913 101.647 179.597 101.6C179.576 101.335 179.62 100.507 179.62 99.9883C179.62 99.6303 179.665 97.8622 179.665 97.4626V96.8689C179.665 96.8344 179.725 96.6274 179.89 96.5627L181.662 96.2493C181.708 95.9618 181.708 95.8698 181.687 95.4889C181.473 95.4645 181.411 95.44 181.055 95.44C180.819 95.44 180.778 95.4645 180.588 95.5076C179.389 95.5967 179.26 95.5809 178.925 95.5809H178.124C177.956 95.5809 177.428 95.5076 176.943 95.4889C176.457 95.4645 176.016 95.4185 175.995 95.4185C175.721 95.4185 175.175 95.4185 174.899 95.4889C174.837 95.7548 174.837 95.8023 174.876 96.2493C175.152 96.337 176.543 96.4966 176.687 96.5627C176.796 96.8689 176.858 97.9988 176.858 98.3078V105.55C176.862 106.305 176.8 107.228 176.737 108.431Z" fill="#565963"/>
<path d="M207.941 105.55C207.268 107.452 206.38 107.985 206.09 108.14C205.328 108.53 203.223 108.57 203.136 108.57C200.273 108.57 200.293 108.277 200.293 107.765V105.387C200.273 104.874 200.253 103.329 200.273 102.836C201.034 102.748 201.815 102.748 202.589 102.748C204.103 102.748 204.443 102.748 204.651 103.391L205.05 105.116H205.791C205.791 104.81 205.744 103.303 205.744 102.97V100.976C205.744 100.463 205.744 100.369 205.707 99.4937H204.99C204.699 101.017 204.592 101.513 204.149 101.65C203.3 101.897 200.418 101.848 200.272 101.825V101.513V100.463C200.252 99.7668 200.23 96.8947 200.272 96.472C200.565 96.4505 202.189 96.4304 202.506 96.4304C202.548 96.4304 205.328 96.4994 205.856 96.6517C206.193 97.06 206.272 97.2152 206.932 98.4472C207.078 98.8511 207.078 98.8712 207.184 99.0725C207.433 99.0984 207.539 99.0984 207.94 99.0725C207.961 98.6685 207.94 96.6287 207.94 96.1774C207.94 95.8036 207.879 95.7102 207.749 95.5808C206.95 95.4902 206.528 95.4198 205.89 95.4198C204.717 95.4198 203.368 95.4198 202.189 95.4658C201.778 95.483 200.234 95.5319 199.109 95.5607C198.411 93.3599 197.32 91.5443 196.063 90.3167C191.184 85.5571 182.653 82.3414 173.759 79.5325C170.085 78.3725 161.243 75.5219 166.429 69.2702C171.649 62.9783 185.073 58.7966 194.471 57.5719C198.612 57.04 200.836 57.9298 201.479 59.225C203.75 63.7876 188.126 71.9828 187.92 72.1064C187.421 72.4083 187.156 72.8151 187.354 73.196C187.497 73.4706 188.029 73.5597 188.607 73.2665C189.175 72.9804 195.291 69.6727 199.496 66.2385C201.784 64.3669 203.395 62.4292 203.738 60.5345C205.217 52.3552 188.354 56.6418 183.063 58.1368C169.66 61.9304 161.257 68.3775 161.22 73.646C161.184 78.6801 168.049 80.786 172.905 82.3558C176.297 83.4512 187.011 86.2945 192.458 91.1188C200.68 98.4012 197.232 111.934 186.042 118.032C168.455 127.614 141.689 125.284 129.649 118.61C127.755 117.559 126.003 116.502 125.486 116.66C124.512 116.958 125.332 118.128 126.08 118.745C128.141 120.444 130.97 121.979 134.223 123.077C157.251 130.66 189.58 126.501 197.913 109.512C197.933 109.512 197.957 109.51 197.97 109.51C198.496 109.491 199.275 109.467 199.72 109.467C201.031 109.467 203.009 109.51 204.377 109.552C205.14 109.581 205.889 109.581 206.551 109.601C207.226 109.625 207.789 109.625 208.128 109.601C208.174 109.287 208.426 107.766 208.489 107.404C208.738 106 208.755 105.839 208.798 105.525C208.405 105.5 208.277 105.5 207.941 105.55Z" fill="#565963"/>
<path d="M226.496 108.794C225.488 108.388 225.382 108.388 225.003 107.677C224.285 106.349 224.179 106.217 223.448 104.935C223.04 104.242 222.328 103.148 221.929 102.452C223.867 101.804 224.669 100.46 224.669 99.0712C224.669 97.2757 223.105 95.3308 220.072 95.3308C219.735 95.3308 218.804 95.3955 217.901 95.4386C216.976 95.4875 216.049 95.5522 215.711 95.5522C215.653 95.5522 215.459 95.5306 215.266 95.5062C215.098 95.5062 214.93 95.4875 214.907 95.4875C214.573 95.4875 213.473 95.5062 212.992 95.5795C212.93 95.7347 212.972 96.2292 212.972 96.3629L213.924 96.4477C214.212 96.4707 214.656 96.5829 214.698 96.5829C214.747 97.0285 214.761 98.9821 214.761 99.5168C214.761 100.057 214.716 102.747 214.716 103.349C214.716 103.71 214.656 105.452 214.679 105.835C214.696 106.418 214.716 108.007 214.613 108.458C214.36 108.569 214.197 108.616 213.599 108.7C213.138 108.77 213.034 108.813 212.866 108.928C212.82 109.216 212.82 109.285 212.866 109.621C213.262 109.621 213.749 109.621 214.172 109.576C214.679 109.506 215.877 109.443 216.282 109.443C216.701 109.443 216.91 109.443 218.892 109.621H219.565C219.608 109.354 219.608 109.283 219.627 108.812C219.166 108.632 218.705 108.526 218.24 108.409C217.837 108.319 217.773 108.291 217.479 108.119C217.479 107.828 217.542 106.368 217.542 106.055C217.542 105.383 217.502 104.314 217.502 103.64C217.502 103.192 217.502 103.095 217.525 102.876C219.205 102.807 219.354 102.967 219.732 103.724C220.197 104.641 222.259 109.172 222.519 109.62C222.68 109.595 223.506 109.486 223.669 109.486H224.39C224.473 109.486 225.425 109.546 225.507 109.546H225.948C226.327 109.62 226.392 109.62 226.962 109.62C227.008 109.152 226.986 108.993 226.496 108.794ZM217.505 101.848V101.539C217.505 100.818 217.528 100.753 217.528 100.237V96.6749C217.528 96.6749 217.528 96.6087 217.544 96.4722C217.752 96.4291 217.883 96.4075 218.346 96.4075C219.44 96.4075 221.423 96.4075 221.423 99.4047C221.423 102.05 218.707 101.897 217.505 101.848Z" fill="#565963"/>
<path d="M263.057 95.2185C258.885 95.2185 255.661 98.0604 255.661 102.409C255.661 103.754 256.045 105.272 256.356 105.971C256.991 107.338 257.709 107.92 258.885 108.86C259.769 109.549 261.479 109.862 262.935 109.862C267.504 109.862 270.435 106.614 270.435 102.341C270.435 99.2737 268.309 95.2185 263.057 95.2185ZM262.935 108.881C261.419 108.881 260.133 107.764 259.686 106.418C259.29 105.228 258.977 104.288 258.977 102.318C258.977 97.5243 261.014 96.3139 262.681 96.3139C264.39 96.3139 265.735 97.0973 266.492 98.8482C267.087 100.237 267.087 102.188 267.087 103.011C267.085 105.008 266.623 108.881 262.935 108.881Z" fill="#565963"/>
<path d="M289.748 101.357C289.706 100.727 289.54 97.8176 289.54 97.3447C289.54 96.6734 291.434 96.3629 291.54 96.3341V95.4874C291.33 95.4385 290.635 95.5061 290.172 95.5535L287.219 95.6398C286.868 95.6671 286.842 95.7145 286.566 96.3643C285.891 97.9513 285.325 99.6059 284.628 101.222L282.86 105.252C282.735 105.028 282.083 103.532 281.681 102.589L280.084 98.8727C279.869 98.3797 279.57 97.5531 279.339 97.0313C279.148 96.6072 278.857 95.9604 278.603 95.6657C277.427 95.5952 274.851 95.5047 274.831 95.5047H274.492C274.137 95.5305 274.095 95.5306 273.946 95.5306C273.926 95.9115 273.926 96.0222 273.946 96.3341C274.118 96.3801 274.174 96.4046 274.661 96.498C275.125 96.5828 275.467 96.6734 275.632 96.8071C275.969 97.0572 275.884 98.8713 275.884 99.1344L275.732 103.096C275.714 103.619 275.692 103.664 275.692 103.954C275.692 104.915 275.692 106.795 275.485 107.718C275.337 108.385 275.274 108.676 273.609 108.908L273.568 109.661C273.901 109.637 275.356 109.548 275.594 109.548C276.265 109.548 277.023 109.596 277.359 109.637C278.014 109.706 278.077 109.706 278.703 109.73V108.947C276.98 108.426 276.644 108.34 276.644 106.995C276.644 106.188 276.704 104.509 276.732 103.638L276.791 98.4645H276.836C276.857 98.5507 277.595 100.256 277.741 100.611L279.275 104.108C279.401 104.442 279.619 104.961 279.761 105.268C280.818 107.673 280.923 107.936 281.51 109.73H282.309C282.399 109.461 282.882 107.981 283.172 107.105L284.249 104.555L286.776 98.3064H286.82C286.842 98.6169 286.842 98.7103 286.883 99.4449L287.049 103.299C287.096 104.377 287.136 106.054 287.136 107.127C287.136 108.227 287.01 108.34 286.714 108.474C286.503 108.566 285.473 108.791 285.241 108.876V109.635C286.147 109.594 287.576 109.503 288.487 109.503C288.739 109.503 289.725 109.545 290.107 109.573C291.375 109.729 291.5 109.704 291.984 109.729V108.988C291.75 108.924 290.15 108.408 290.087 108.288C289.915 108.051 289.813 102.251 289.748 101.357Z" fill="#565963"/>
<path d="M308.732 105.655C308.056 107.564 307.171 108.096 306.87 108.248C306.117 108.636 304.011 108.678 303.928 108.678C301.055 108.678 301.079 108.388 301.079 107.876V105.5C301.054 104.981 301.04 103.438 301.054 102.947C301.82 102.858 302.594 102.858 303.379 102.858C304.9 102.858 305.236 102.858 305.438 103.506L305.845 105.228H306.577C306.577 104.919 306.538 103.42 306.538 103.085V101.091C306.538 100.572 306.538 100.484 306.495 99.6088H305.781C305.487 101.128 305.377 101.627 304.936 101.768C304.094 102.011 301.205 101.966 301.054 101.946V101.629V100.573C301.04 99.8819 301.019 97.0156 301.054 96.5886C301.355 96.5671 302.977 96.5441 303.294 96.5441C303.335 96.5441 306.117 96.6116 306.646 96.7712C306.979 97.1723 307.062 97.3261 307.721 98.558C307.865 98.9634 307.865 98.9878 307.971 99.1862C308.227 99.2092 308.33 99.2092 308.732 99.1862C308.752 98.7851 308.732 96.7453 308.732 96.2968C308.732 95.9173 308.665 95.8282 308.541 95.6916C307.739 95.5996 307.316 95.5364 306.682 95.5364C305.506 95.5364 304.162 95.5364 302.976 95.5838C302.384 95.6011 299.435 95.6916 298.786 95.6916C298.424 95.6916 298.006 95.6916 297.201 95.6212C297.012 95.6212 296.081 95.5364 295.877 95.5364C295.858 95.6442 295.834 96.2767 295.813 96.4104C295.94 96.4104 296.908 96.5182 297.099 96.5455C297.265 96.5671 297.898 96.6389 298.028 96.7928L298.128 98.3841V99.6103C298.128 100.596 298.191 101.604 298.191 102.593V107.725C298.191 108.189 298.173 108.299 298.086 108.533C297.944 108.592 297.669 108.73 297.035 108.799C296.105 108.915 296.022 108.934 295.832 108.976V109.74C296.068 109.74 297.245 109.697 297.496 109.697C297.539 109.697 298.566 109.628 298.758 109.628C299.285 109.604 300.064 109.582 300.506 109.582C301.817 109.582 303.799 109.628 305.168 109.667C305.922 109.697 306.68 109.697 307.335 109.713C308.011 109.739 308.583 109.739 308.922 109.713C308.962 109.405 309.213 107.879 309.275 107.522C309.526 106.111 309.548 105.953 309.595 105.639C309.196 105.612 309.068 105.612 308.732 105.655Z" fill="#565963"/>
<path d="M319.765 101.154C319.474 101.017 317.997 100.522 317.661 100.392C317.449 100.284 315.802 99.6058 315.802 98.2158C315.802 96.6748 317.193 96.2507 317.997 96.2507C319.848 96.2507 320.423 98.0433 320.74 99.0725C320.795 99.097 321.577 99.1645 321.602 99.1645C321.625 99.1645 321.704 99.1372 321.704 99.1185C321.745 98.959 321.745 98.8727 321.745 98.6887C321.745 98.085 321.625 96.4706 321.432 95.8252C320.337 95.4184 319.199 95.1711 318.414 95.1711C314.057 95.1711 313.802 98.601 313.802 99.3428C313.802 100.394 314.329 101.651 314.985 102.321C315.706 103.04 317.117 103.575 317.874 103.872C318.503 104.112 318.865 104.242 319.955 104.764C320.144 104.848 321.027 105.524 321.027 106.535C321.027 108.097 319.475 108.863 318.333 108.863C317.212 108.863 316.418 108.346 316.062 107.923C315.552 107.361 315.404 106.986 314.9 105.725H313.953C313.953 106.152 314.016 108.326 314.016 108.797C314.016 109.063 314.327 109.155 315.383 109.467C316.521 109.867 317.598 109.867 317.702 109.867C319.008 109.867 319.896 109.696 320.714 109.129C321.577 108.549 322.795 107.741 322.795 105.255C322.795 102.543 321.053 101.739 319.765 101.154Z" fill="#565963"/>
<path d="M58.9647 101.109C58.6689 100.976 57.1957 100.481 56.8597 100.346C56.6486 100.235 55.0031 99.5627 55.0031 98.1755C55.0031 96.6287 56.3959 96.209 57.1957 96.209C59.048 96.209 59.6137 98.0001 59.9339 99.0294C59.9914 99.0538 60.7768 99.1199 60.7998 99.1199C60.8199 99.1199 60.9046 99.0984 60.9046 99.0768C60.9434 98.9172 60.9434 98.8252 60.9434 98.6484C60.9434 98.0432 60.8199 96.4289 60.6275 95.7792C59.5348 95.3795 58.3932 95.1309 57.6107 95.1309C53.2542 95.1309 53 98.555 53 99.2967C53 100.348 53.5313 101.607 54.1803 102.274C54.9026 102.995 56.3112 103.532 57.0665 103.825C57.6983 104.066 58.0572 104.197 59.1557 104.719C59.3409 104.805 60.2326 105.479 60.2326 106.493C60.2326 108.054 58.6689 108.816 57.5288 108.816C56.4174 108.816 55.6105 108.298 55.2558 107.877C54.7475 107.314 54.5996 106.938 54.0942 105.679H53.1493C53.1493 106.109 53.2082 108.28 53.2082 108.751C53.2082 109.021 53.5298 109.108 54.5809 109.424C55.7153 109.825 56.7936 109.825 56.8999 109.825C58.2037 109.825 59.0882 109.648 59.9153 109.077C60.7754 108.505 61.9973 107.695 61.9973 105.209C61.9973 102.501 60.2498 101.693 58.9647 101.109Z" fill="#565963"/>
<path d="M125.044 86.4081C125.044 86.4081 125.31 87.9548 126.887 88.1058C130.35 88.4407 134.08 85.4076 134.619 84.9217C134.619 84.9217 133.72 89.9184 134.451 93.4719C134.567 94.0398 135.176 93.8443 135.565 93.6459C137.84 92.4786 138.615 90.5495 138.615 90.5495C137.973 90.6329 137.825 90.3698 137.696 89.7474C136.934 86.1004 137.669 83.4008 137.669 83.4008C139.064 82.5829 147.901 77.9196 151.26 70.8371C151.696 69.9156 152.034 68.5385 151.532 67.4935C151.264 66.8523 150.299 66.4484 148.899 66.7373C147.542 67.0205 145.891 68.1015 145.229 68.5845C143.635 69.7417 142.045 71.6838 140.664 73.4505C137.535 77.4582 135.182 82.8359 135.182 82.8359C134.635 83.339 131.717 86.421 129.163 86.0832C127.793 85.9021 128.216 84.8398 129.134 83.8335C130.304 82.5498 131.447 81.1238 133.006 79.6044C133.226 79.3902 133.088 79.2436 132.899 79.2694C132.174 79.3744 130.588 79.6058 129.961 79.728C129.87 79.7453 129.718 79.8229 129.615 79.9235C129.085 80.4381 128.318 81.3121 125.718 83.49C124.506 84.5091 123.482 85.0626 122.645 85.0137C121.562 84.9505 121.834 84.052 122.313 83.5374C123.11 82.672 124.75 81.0879 125.837 80.1751C126.136 79.925 125.892 79.7668 125.748 79.787C125.199 79.866 123.916 80.0299 123.433 80.0831C123.383 80.0874 123.271 80.1348 123.191 80.2081C122.572 80.7702 120.119 83.3663 118.602 84.5623C116.888 85.9121 115.203 86.4742 114.192 85.9121C113.078 85.294 114.519 83.4267 115.263 82.8186C116.004 82.2149 117.797 81.039 117.403 80.6466C117.013 80.2513 115.613 81.0965 113.873 82.3141C114.63 81.5091 114.939 80.6164 114.726 80.1118C114.455 79.4678 113.019 79.4261 112.387 79.4678C111.757 79.5138 108.981 79.9422 106.994 81.0462C104.393 82.4894 102.247 85.8805 103.023 87.5221C103.688 88.9453 106.053 88.1518 107.748 87.4244C108.814 86.9716 110.546 85.7655 110.546 85.7655C110.546 85.7655 110.374 87.1484 111.748 87.6573C114.416 88.6405 118.179 86.0544 118.179 86.0544C118.179 86.0544 118.208 87.7967 120.788 87.7363C123.488 87.6731 125.044 86.4081 125.044 86.4081ZM143.641 72.1696C145.292 69.966 148.099 67.906 149.325 68.0325C150.926 68.1993 148.995 72.0561 146.798 74.5545C144.63 76.9982 139.84 80.441 137.861 81.3653C137.861 81.3653 139.047 78.2948 143.641 72.1696ZM106.78 86.2413C105.304 86.5259 104.481 85.4234 106.497 83.6136C108.32 81.9791 110.82 81.4156 111.535 81.7348C111.866 81.8857 111.452 82.6936 111.347 83.178C111.347 83.178 111.301 83.6898 111.82 83.6337C109.326 85.2322 107.508 86.1005 106.78 86.2413Z" fill="#565963"/>
<path d="M325.771 84.318C325.336 84.2332 324.869 84.4359 323.342 85.0209C313.65 88.7297 305.898 87.9175 304.61 87.7967C301.283 87.4834 299.914 86.0732 300.881 84.3899C301.215 83.8034 302.275 82.5786 303.195 81.6557C303.715 81.1368 303.362 80.0759 302.614 79.764C301.714 79.3888 299.978 79.0884 299.248 79.0855C298.655 79.0826 298.086 79.0783 297.88 79.4305C296.862 81.1598 295.014 86.4584 290.568 86.3664C289.307 86.342 288.532 85.5844 288.552 85.2782C288.556 85.2078 291.331 84.1412 293.417 82.2839C295.508 80.4209 294.659 78.8742 292.686 78.9317C291.457 78.9647 290.008 79.2336 287.948 80.7904C285.889 82.3443 285.379 84.7679 285.251 85.4263C284.447 86.0056 283.071 86.3463 282.9 85.8863C282.577 85.0209 283.631 83.2011 284.388 81.9217C284.843 81.1497 284.672 80.569 283.97 80.4914C281.028 80.1593 277.184 83.398 277.184 83.398C279.364 81.0721 282.101 78.3926 283.083 76.7769C284.893 73.7941 285.723 71.0456 285.316 70.4059C284.905 69.7676 281.523 71.3216 278.942 74.9196C277.937 76.3183 275.796 80.2355 274.143 84.2188C271.847 85.3343 267.338 86.5116 266.749 85.6966C266.023 84.6917 268.356 82.1431 269.235 81.6773C270.269 81.1311 271.138 82.409 271.538 82.3846C271.945 82.3501 273.732 80.9082 273.434 80.6351C272.944 80.1852 272.181 79.3629 269.6 79.9926C266.524 80.7415 264.619 82.547 263.535 84.4632C263.058 85.307 261.857 85.6894 261.188 85.5772C260.523 85.4622 260.386 84.6041 261.226 83.5015C263.105 81.0362 263.453 81.1957 263.167 80.6394C262.952 80.1981 262.633 80.2441 261.913 80.4626C261.302 80.6495 260.806 80.9456 260.806 80.9456C260.749 80.7659 260.549 79.6547 259.406 79.7309C258.156 79.8143 256.028 80.5474 254.572 81.5666C252.24 83.1982 251.41 84.7679 251.41 84.7679C250.364 85.7152 248.817 86.2845 248.479 85.8001C248.083 85.2294 249.109 83.9658 250.136 82.7339C250.766 81.9749 251.45 80.96 250.988 80.3074C250.629 79.8014 248.972 80.1234 247.353 80.8867C246.11 81.4732 244.724 82.3501 244.002 83.3491C244.673 81.9634 245.225 80.7817 244.932 80.1665C244.618 79.5024 242.277 79.6533 241.357 80.2039C241.186 79.9135 240.753 79.6044 240.498 79.7999C240.147 80.0716 239.508 81.1138 238.119 82.5801C237.006 83.7559 234.966 86.4613 233.382 86.2787C232.274 86.1494 232.532 85.0123 233.557 83.6711C234.561 82.3572 236.291 80.8206 236.906 80.3189C237.243 80.0443 236.844 79.9394 236.57 79.9652C235.517 80.0659 233.869 80.3232 233.569 80.4281C233.317 80.5158 232.038 81.8282 231.115 82.6907C229.537 84.1699 228.293 85.2164 226.837 85.1431C226.014 85.1 225.742 84.4948 228.074 82.4119C228.104 82.3846 229.316 81.1886 230.039 80.5704C230.19 80.4425 230.131 80.3979 229.856 80.3951C228.926 80.3864 227.557 80.5345 227.189 80.8622C226.46 81.5077 224.204 83.7344 222.709 84.7967C221.108 85.9352 220.4 86.2457 220.112 86.1594C219.819 86.0646 219.77 85.7972 219.844 85.5298C220.269 83.9902 221.24 82.7425 221.906 81.6083C222.576 80.477 221.942 80.0903 220.857 80.1478C218.452 80.2743 215.251 82.4679 215.251 82.4679C215.326 82.2121 219.872 78.0534 220.966 76.4089C222.665 73.8587 224.138 70.8285 223.464 70.3167C222.857 69.8553 219.378 71.4193 217.356 73.991C215.597 76.2306 213.903 79.7266 212.373 82.6907C211.249 83.5346 205.388 86.02 202.71 86.0257C201.092 86.0286 200.595 84.5667 201.873 83.3017C203.103 82.0827 205.543 81.2245 206.025 81.3639C206.511 81.5062 206.025 82.2767 206.025 82.2767C206.025 82.2767 205.177 83.4354 206 83.5849C206.538 83.6841 208.219 82.9035 208.789 82.0511C209.358 81.19 208.39 81.4775 208.39 81.4775C208.39 81.4775 208.214 79.7381 206.64 79.7381C205.786 79.7381 202.115 80.0917 198.585 82.9998C195.054 85.9079 197.121 88.1087 199.452 87.975C205.042 87.6559 210.702 84.5178 211.057 84.3496C211.057 84.3496 209.612 86.9242 209.586 87.2764C209.563 87.5667 209.65 87.6415 209.895 87.7407C210.231 87.8772 210.534 87.929 211.057 87.5826C211.057 87.5826 213.419 85.0612 215.525 84.0449C216.764 83.4469 217.999 83.2686 217.233 84.7866C216.723 85.7957 216.38 87.9721 217.859 87.9635C219.837 87.9534 221.922 86.4297 223.256 85.2854C222.613 86.0746 222.425 87.6817 223.655 87.8887C226.689 88.3933 229.175 85.79 229.175 85.79C229.07 86.1566 228.849 88.09 231.451 87.8801C232.848 87.768 234.159 87.1872 234.962 86.6122C235.583 86.9616 237.602 87.5725 238.401 86.6424C239.885 84.916 240.498 84.0923 241.56 83.1637C241.287 83.7746 241.136 84.4402 241.086 84.9347C241.004 85.767 241.159 86.3794 241.722 86.5016C242.342 86.6352 243.188 86.7071 243.841 86.0947C244.408 85.5643 245.35 84.387 246.467 83.5719C245.507 85.0296 244.762 86.6726 245.541 87.4647C247.058 89.0042 251.104 85.8446 251.104 85.8446C251.064 85.9927 251.011 86.1781 251.008 86.503C251.002 87.2232 251.301 88.1504 253.228 87.9046C255.113 87.6645 256.781 86.4987 257.486 85.836C257.486 85.836 257.553 87.6401 259.491 87.5021C261.03 87.3928 262.255 86.6841 263.369 85.7167C263.16 86.6237 263.692 87.9046 265.881 87.9635C267.902 88.0181 271.161 86.8652 273.27 85.5787C273.27 85.5787 272.001 87.6214 271.957 87.9161C271.939 88.0426 273.755 87.8801 273.755 87.8801C275.666 86.1206 277.056 84.87 278.56 84.3079C279.203 84.0679 280.597 83.6467 280.159 84.6932C279.942 85.215 279.331 86.4699 279.466 87.0823C279.568 87.5337 279.938 87.7551 280.231 87.8442C281.831 88.3301 284.365 86.8437 285.257 86.3334C285.257 86.3334 285.597 87.4273 286.733 87.9074C290.232 89.3881 295.608 87.7996 298.853 80.6567C299.35 80.6869 300.838 80.9427 300.451 81.4459C299.181 83.1047 298.262 84.3295 298.111 85.123C297.831 86.6151 299.184 87.7493 301.132 88.2424C303.083 88.7369 311.663 90.3339 326.326 84.5739C326.611 84.4661 326.345 84.4301 325.771 84.318ZM214.312 81.6759C214.312 81.6759 216.47 76.9997 217.343 75.6686C218.454 73.9723 221.061 72.0619 220.805 72.8396C219.593 76.5382 214.312 81.6759 214.312 81.6759ZM258.457 82.9826C258.434 83.1594 257.959 83.5705 257.509 84.0089C256.102 85.3774 254.474 85.8044 253.901 85.3142C253.469 84.9447 254.16 83.6682 255.14 82.8891C255.888 82.2954 257.126 81.7463 257.821 81.8642C258.311 81.949 258.502 82.6332 258.457 82.9826ZM279.79 75.7304C280.251 74.9742 282.686 72.6239 282.503 73.4174C281.64 77.165 275.722 83.1162 275.722 83.1162C276.489 80.7861 278.828 77.3087 279.79 75.7304ZM291.108 80.9025C291.733 81.2302 290.743 82.3472 290.133 82.9164C289.221 83.766 288.365 84.3036 288.365 84.3036C288.407 83.1019 290.139 80.3936 291.108 80.9025Z" fill="#565963"/>
<path d="M138.989 58.4891C139.544 52.2532 134.886 45.1706 124.65 41.5294C114.327 37.8566 105.031 38.2692 89.1115 42.2108C77.1433 45.1749 69.925 50.1702 67.8803 51.8924C67.7123 52.0347 67.3993 52.5321 67.6247 52.7692C67.9751 53.1416 68.3455 52.8296 68.6585 52.5867C70.5511 51.1161 76.4784 47.0336 88.2241 44.127C103.897 40.2501 113.713 40.5261 122.14 43.6066C131.775 47.1271 135.734 51.9973 135.28 58.4905C134.871 64.3397 130.487 69.9474 119.07 73.5771C107.856 77.1406 101.464 76.7884 98.4635 76.5326C97.4483 76.4449 96.8639 76.3716 96.4676 76.2523C100.759 69.2603 104.26 63.4542 106.312 60.1537C106.529 59.8058 106.314 59.5701 105.934 59.6851C105.554 59.8001 104.679 60.2974 103.789 60.9846C103.002 61.5912 95.6994 73.2191 88.8932 84.0306C88.8272 83.365 88.6864 82.9222 88.4596 82.8288C88.1753 82.7138 87.8321 83.4685 87.7186 84.1571C87.4788 85.6118 87.2951 87.597 87.5564 89.6914C87.5937 89.9933 87.8378 90.1385 88.1437 89.6526C90.8949 85.2869 93.5225 81.0449 95.9205 77.1435C97.1697 77.7171 99.5763 77.822 101.904 77.822C106.288 77.822 114.564 76.6979 121.271 74.4266C129.655 71.5818 138.3 66.2084 138.989 58.4891Z" fill="#565963"/>
</svg>
