<svg width="364" height="176" viewBox="0 0 364 176" fill="none" xmlns="http://www.w3.org/2000/svg">
<g filter="url(#filter0_d_1285_1693)">
<path d="M65.2684 109.814C62.7239 109.814 61.8997 107.885 61.6284 107.266C61.2909 106.478 61.0583 105.733 61.0583 103.603C61.0583 101.056 61.8796 97.3125 64.9582 97.3125C66.8536 97.3125 68.1373 98.3202 69.319 100.095H70.2638C70.2437 98.8851 69.5933 96.8913 69.5287 96.7346C67.6721 96.2171 65.6704 96.1697 65.0185 96.1697C61.0396 96.1697 57.8347 99.1094 57.8347 103.705C57.8347 107.375 59.9799 110.864 65.3157 110.864C66.6641 110.864 68.8122 110.733 69.8876 109.83C70.1404 108.831 70.3701 107.795 70.4764 106.744C69.9264 106.77 69.7598 106.788 69.4856 106.834C68.6844 108.069 67.2298 109.814 65.2684 109.814Z" fill="#565963"/>
<path d="M89.281 96.6182C88.7756 96.6398 87.8724 96.6872 87.3842 96.6872C86.606 96.6872 85.7846 96.5966 85.7846 96.5966C85.1973 96.5075 84.4148 96.532 84.1621 96.555C84.0974 96.7778 84.0974 96.8252 84.0759 97.1774C84.3918 97.2938 85.8708 97.6086 86.0172 97.8703C86.1005 97.9838 86.1623 100.295 86.1623 100.54V101.033C86.1623 102.329 86.102 102.314 86.0761 102.693C85.4472 102.805 82.6673 102.805 81.6981 102.805H80.9385C80.6642 102.785 79.2556 102.765 78.9383 102.712C78.9153 102.449 78.9569 101.615 78.9569 101.099C78.9569 100.742 78.9986 98.9728 78.9986 98.5703V97.9838C78.9986 97.9436 79.0603 97.7409 79.2312 97.6748L80.9988 97.3643C81.0419 97.0696 81.0419 96.9819 81.0203 96.5966C80.8064 96.5808 80.7446 96.555 80.39 96.555C80.1588 96.555 80.1114 96.5808 79.9247 96.6196C78.7243 96.7174 78.6008 96.6886 78.2591 96.6886H77.4607C77.2927 96.6886 76.7672 96.6196 76.279 96.5981C75.7965 96.5823 75.3543 96.5334 75.3327 96.5334C75.0556 96.5334 74.5114 96.5334 74.2343 96.5981C74.1696 96.8712 74.1696 96.9158 74.2185 97.3657C74.4899 97.4534 75.8812 97.6086 76.0248 97.6762C76.1325 97.9853 76.1943 99.1108 76.1943 99.4228V106.656C76.1943 107.421 76.1325 108.34 76.0679 109.549C75.6659 109.702 75.5223 109.725 74.2328 109.951C74.1682 110.415 74.1682 110.415 74.1682 110.734H75.4375C75.6256 110.734 76.8246 110.599 77.0127 110.599C77.6058 110.599 80.3469 110.759 80.9973 110.734C80.9973 110.693 81.0404 110.49 81.0404 110.328C81.0404 110.257 81.0203 110.079 80.9973 109.994C80.7245 109.796 79.1881 109.679 78.9957 109.549C78.934 109.008 78.8923 105.582 78.8923 104.871C78.8923 104.836 78.934 104.172 78.934 104.039C79.2283 103.947 79.8185 103.97 80.4488 103.97L85.2131 104.011C85.6324 104.011 85.7372 104.039 86.0316 104.053C86.056 104.599 86.056 104.642 86.056 104.836L86.1393 105.627V106.55C86.1393 108.321 86.1393 108.604 86.0144 109.505C85.3797 109.635 84.7034 109.794 84.073 109.929C84.0357 110.152 84.0357 110.201 84.0357 110.64L84.3703 110.709C84.6632 110.709 85.3625 110.624 85.6525 110.624C86.1838 110.578 86.2455 110.578 86.7711 110.578C87.4 110.578 88.2041 110.598 88.9422 110.64C89.7032 110.693 90.4168 110.733 90.8835 110.733V109.95C90.6279 109.83 89.2796 109.505 88.9809 109.386C89.0025 109.096 88.9809 107.572 88.9809 107.24V98.096C88.9809 98.096 89.024 97.9206 89.0441 97.8688C89.5323 97.6345 89.7836 97.5626 90.8835 97.3341C90.9022 97.0451 90.9251 96.9345 90.9251 96.5521C90.7169 96.5305 90.503 96.5305 90.2086 96.5305C90.0823 96.532 89.4304 96.5966 89.281 96.6182Z" fill="#565963"/>
<path d="M243.127 96.6182C242.62 96.6398 241.719 96.6872 241.229 96.6872C240.449 96.6872 239.629 96.5966 239.629 96.5966C239.041 96.5075 238.261 96.532 238.011 96.555C237.944 96.7778 237.944 96.8252 237.926 97.1774C238.241 97.2938 239.714 97.6086 239.866 97.8703C239.948 97.9838 240.01 100.295 240.01 100.54V101.033C240.01 102.329 239.948 102.314 239.927 102.693C239.292 102.805 236.516 102.805 235.541 102.805H234.786C234.512 102.785 233.092 102.765 232.782 102.712C232.762 102.449 232.803 101.615 232.803 101.099C232.803 100.742 232.845 98.9728 232.845 98.5703V97.9838C232.845 97.9436 232.908 97.7409 233.077 97.6748L234.848 97.3643C234.888 97.0696 234.888 96.9819 234.868 96.5966C234.654 96.5808 234.591 96.555 234.235 96.555C234.005 96.555 233.965 96.5808 233.772 96.6196C232.569 96.7174 232.446 96.6886 232.108 96.6886H231.304C231.136 96.6886 230.611 96.6196 230.128 96.5981C229.644 96.5823 229.202 96.5334 229.178 96.5334C228.91 96.5334 228.359 96.5334 228.085 96.5981C228.019 96.8712 228.019 96.9158 228.065 97.3657C228.342 97.4534 229.727 97.6086 229.871 97.6762C229.98 97.9853 230.046 99.1108 230.046 99.4228V106.656C230.046 107.421 229.98 108.34 229.913 109.549C229.518 109.702 229.367 109.725 228.083 109.951C228.017 110.415 228.017 110.415 228.017 110.734H229.285C229.473 110.734 230.671 110.599 230.862 110.599C231.455 110.599 234.197 110.759 234.849 110.734C234.849 110.693 234.89 110.49 234.89 110.328C234.89 110.257 234.869 110.079 234.849 109.994C234.571 109.796 233.036 109.679 232.845 109.549C232.783 109.008 232.743 105.582 232.743 104.871C232.743 104.836 232.783 104.172 232.783 104.039C233.079 103.947 233.67 103.97 234.301 103.97L239.062 104.011C239.483 104.011 239.589 104.039 239.886 104.053C239.908 104.599 239.908 104.642 239.908 104.836L239.99 105.627V106.55C239.99 108.321 239.99 108.604 239.865 109.505C239.23 109.635 238.555 109.794 237.925 109.929C237.881 110.152 237.881 110.201 237.881 110.64L238.219 110.709C238.512 110.709 239.206 110.624 239.503 110.624C240.03 110.578 240.093 110.578 240.622 110.578C241.251 110.578 242.055 110.598 242.791 110.64C243.549 110.693 244.265 110.733 244.725 110.733V109.95C244.474 109.83 243.126 109.505 242.833 109.386C242.85 109.096 242.833 107.572 242.833 107.24V98.096C242.833 98.096 242.872 97.9206 242.892 97.8688C243.381 97.6345 243.631 97.5626 244.725 97.3341C244.748 97.0451 244.77 96.9345 244.77 96.5521C244.56 96.5305 244.348 96.5305 244.051 96.5305C243.93 96.532 243.277 96.5966 243.127 96.6182Z" fill="#565963"/>
<path d="M107.152 96.6182C107.027 96.6182 106.609 96.5967 106.186 96.5794C105.785 96.555 105.364 96.532 105.198 96.532H104.374V97.383H105.471C105.726 97.383 106.226 97.5842 106.355 97.9839C106.4 98.1219 106.73 101.996 106.73 105.133C106.73 106.03 106.711 107.217 106.206 108.181C105.68 109.14 104.648 109.882 102.602 109.882C102.159 109.882 100.266 109.75 99.7156 107.887C99.483 107.106 99.3336 104.601 99.3566 103.791L99.3997 101.907C99.3322 101.034 99.3322 100.837 99.3322 99.0447C99.3322 98.704 99.3552 97.8717 99.4399 97.7424C99.4815 97.7007 99.6955 97.5152 99.987 97.4994C100.092 97.4994 101.354 97.429 101.421 97.406V96.555C100.6 96.5967 98.3888 96.6671 97.5646 96.6671C97.1209 96.6671 94.9915 96.532 94.509 96.555L94.5492 97.429C94.6828 97.4534 95.3706 97.4707 95.5414 97.4994C95.7525 97.5152 96.2379 97.5641 96.4087 97.8703C96.5537 98.0989 96.5308 98.441 96.5308 105.045C96.5308 107.437 96.5308 111.002 101.946 111.002C103.381 111.002 104.942 110.778 106.203 109.771C107.782 108.519 107.761 107.267 107.761 104.438C107.761 103.99 107.656 101.753 107.639 101.235C107.594 100.389 107.594 100.272 107.594 99.578C107.594 99.3567 107.537 98.2987 107.537 98.0586C107.537 97.6072 107.702 97.5842 108.439 97.498C108.816 97.4692 108.862 97.4692 109.236 97.3629C109.28 97.176 109.28 97.1156 109.28 97.0452C109.28 96.9129 109.236 96.716 109.218 96.5535C109.134 96.532 107.301 96.6182 107.152 96.6182Z" fill="#565963"/>
<path d="M117.617 109.869C115.893 109.356 115.551 109.26 115.551 107.918C115.551 107.116 115.618 105.432 115.635 104.559L115.702 99.3854H115.743C115.762 99.4746 116.5 101.177 116.646 101.533L118.187 105.029C118.311 105.365 118.523 105.88 118.67 106.195C119.728 108.594 119.825 108.854 120.42 110.647H121.221C121.304 110.382 121.791 108.907 122.083 108.023L123.16 105.479L125.69 99.2302H125.728C125.75 99.5392 125.75 99.6356 125.79 100.369L125.961 104.221C126.003 105.299 126.047 106.98 126.047 108.054C126.047 109.15 125.922 109.26 125.625 109.396C125.413 109.492 124.382 109.707 124.149 109.8V110.563C125.058 110.522 126.491 110.431 127.397 110.431C127.65 110.431 128.638 110.476 129.018 110.499C130.285 110.648 130.412 110.63 130.896 110.648V109.914C130.659 109.848 129.063 109.33 129.004 109.221C128.827 108.974 128.727 103.173 128.661 102.275C128.616 101.645 128.449 98.7443 128.449 98.2627C128.449 97.5943 130.346 97.2795 130.45 97.2594V96.4055C130.241 96.3624 129.545 96.4314 129.081 96.4745L126.132 96.5593C125.774 96.5838 125.753 96.6283 125.477 97.2781C124.804 98.8723 124.234 100.524 123.542 102.137L121.768 106.175C121.645 105.948 120.99 104.444 120.586 103.507L118.988 99.7851C118.774 99.2934 118.481 98.4669 118.25 97.9522C118.061 97.5196 117.766 96.8741 117.512 96.5823C116.332 96.5148 113.762 96.4299 113.742 96.4299H113.404C113.045 96.4501 113.003 96.4501 112.854 96.4501C112.834 96.8267 112.834 96.9446 112.854 97.2565C113.022 97.3011 113.087 97.3226 113.574 97.4132C114.036 97.5052 114.375 97.5914 114.538 97.7266C114.879 97.9709 114.795 99.7836 114.795 100.054L114.646 104.02C114.622 104.536 114.602 104.576 114.602 104.875C114.602 105.828 114.602 107.716 114.392 108.631C114.243 109.304 114.179 109.593 112.521 109.822L112.474 110.579C112.813 110.559 114.263 110.47 114.498 110.47C115.169 110.47 115.928 110.516 116.263 110.559C116.916 110.624 116.984 110.624 117.614 110.644V109.869H117.617Z" fill="#565963"/>
<path d="M140.63 96.4111L140.547 96.6095C139.532 99.542 139.346 99.8611 138.476 102.345C137.852 104.179 137.425 105.44 137.111 106.311C136.288 108.621 136.04 109.331 135.718 109.625C135.53 109.78 134.288 110.003 134.015 110.095V110.855C134.372 110.855 135.422 110.522 136.373 110.565C137.042 110.657 137.764 110.767 138.439 110.855H139.135C139.158 110.68 139.135 110.299 139.135 110.026C137.573 109.763 137.348 109.735 137.348 109.203C137.348 108.864 138.294 106.244 138.439 105.864H142.378C142.741 106.868 142.755 107.043 143.348 108.457C143.625 109.106 143.644 109.175 143.644 109.38C143.644 109.651 143.373 109.735 143.243 109.764C143.052 109.827 142.043 110.052 141.815 110.095C141.792 110.407 141.767 110.522 141.767 110.855L142.948 110.813C144.174 110.767 144.294 110.704 145.392 110.704C145.624 110.704 146.279 110.744 146.928 110.769C147.607 110.815 148.279 110.857 148.53 110.857C148.53 110.609 148.553 110.5 148.486 110.076C148.319 110.003 148.148 109.937 147.709 109.849C147.688 109.827 147.161 109.711 147.099 109.695C146.74 109.495 146.236 108.084 145.752 106.648C145.666 106.402 145.16 105.171 145.054 104.905C144.419 103.154 142.102 97.1701 141.721 96.4126L140.63 96.4111ZM138.862 104.694L140.334 100.459C140.822 101.496 141.723 103.98 141.955 104.694H138.862Z" fill="#565963"/>
<path d="M158.045 110.865C159.39 110.865 161.544 110.734 162.612 109.832C162.869 108.833 163.102 107.796 163.205 106.745C162.661 106.771 162.489 106.79 162.22 106.836C161.417 108.069 159.963 109.814 158.001 109.814C155.454 109.814 154.63 107.885 154.36 107.266C154.023 106.478 153.789 105.733 153.789 103.603C153.789 101.056 154.61 97.3125 157.686 97.3125C159.582 97.3125 160.87 98.3202 162.054 100.095H162.996C162.974 98.8851 162.324 96.8913 162.257 96.7346C160.401 96.2171 158.402 96.1697 157.752 96.1697C153.766 96.1697 150.565 99.1094 150.565 103.705C150.565 107.376 152.707 110.865 158.045 110.865Z" fill="#565963"/>
<path d="M169.016 109.431C168.611 109.586 168.465 109.618 167.183 109.833C167.121 110.31 167.121 110.31 167.121 110.624H168.384C168.573 110.624 169.773 110.49 169.965 110.49C170.557 110.49 173.289 110.641 173.946 110.624C173.946 110.579 173.992 110.377 173.992 110.217C173.992 110.154 173.97 109.971 173.946 109.884C173.674 109.679 172.136 109.572 171.948 109.432C171.881 108.896 171.838 105.475 171.838 104.757C171.838 104.729 171.881 104.056 171.881 103.929C172.174 103.836 172.767 103.859 173.396 103.859L178.159 103.901C178.582 103.901 178.687 103.929 178.983 103.948C179.003 104.486 179.003 104.533 179.003 104.729L179.085 105.514V106.442C179.085 108.207 179.085 108.495 178.961 109.389C178.329 109.531 177.653 109.679 177.021 109.817C176.984 110.039 176.984 110.088 176.984 110.528L177.317 110.601C177.61 110.601 178.312 110.51 178.601 110.51C179.132 110.467 179.195 110.467 179.717 110.467C180.35 110.467 181.15 110.492 181.888 110.528C182.647 110.581 183.362 110.625 183.828 110.625V109.835C183.575 109.728 182.229 109.39 181.931 109.277C181.954 108.988 181.931 107.458 181.931 107.132V97.9853C181.931 97.9853 181.974 97.81 181.992 97.7683C182.478 97.5153 182.728 97.4491 183.828 97.2306C183.848 96.9374 183.865 96.8253 183.865 96.44C183.66 96.4185 183.451 96.4185 183.156 96.4185C183.026 96.4185 182.374 96.4889 182.228 96.5076C181.722 96.5335 180.815 96.5809 180.328 96.5809C179.547 96.5809 178.726 96.4889 178.726 96.4889C178.141 96.3955 177.357 96.4185 177.105 96.44C177.043 96.6628 177.043 96.7088 177.018 97.0696C177.336 97.176 178.812 97.4966 178.958 97.7668C179.045 97.8689 179.106 100.182 179.106 100.429V100.919C179.106 102.222 179.045 102.2 179.019 102.578C178.39 102.692 175.604 102.692 174.638 102.692H173.878C173.605 102.672 172.192 102.647 171.877 102.6C171.855 102.335 171.9 101.507 171.9 100.988C171.9 100.63 171.944 98.8622 171.944 98.4626V97.8689C171.944 97.8344 172.004 97.6274 172.169 97.5627L173.941 97.2493C173.987 96.9618 173.987 96.8698 173.966 96.4889C173.752 96.4645 173.69 96.44 173.334 96.44C173.098 96.44 173.057 96.4645 172.867 96.5076C171.668 96.5967 171.539 96.5809 171.205 96.5809H170.403C170.235 96.5809 169.707 96.5076 169.222 96.4889C168.736 96.4645 168.295 96.4185 168.274 96.4185C168 96.4185 167.454 96.4185 167.178 96.4889C167.117 96.7548 167.117 96.8023 167.155 97.2493C167.431 97.337 168.822 97.4966 168.966 97.5627C169.075 97.8689 169.137 98.9988 169.137 99.3078V106.55C169.141 107.305 169.079 108.228 169.016 109.431Z" fill="#565963"/>
<path d="M200.22 106.55C199.546 108.452 198.659 108.985 198.369 109.14C197.606 109.53 195.501 109.57 195.415 109.57C192.552 109.57 192.572 109.277 192.572 108.765V106.387C192.552 105.874 192.532 104.329 192.552 103.836C193.313 103.748 194.094 103.748 194.868 103.748C196.382 103.748 196.722 103.748 196.93 104.391L197.329 106.116H198.07C198.07 105.81 198.023 104.303 198.023 103.97V101.976C198.023 101.463 198.023 101.369 197.985 100.494H197.269C196.977 102.017 196.871 102.513 196.428 102.65C195.579 102.897 192.697 102.848 192.551 102.825V102.513V101.463C192.531 100.767 192.509 97.8947 192.551 97.472C192.844 97.4505 194.468 97.4304 194.785 97.4304C194.827 97.4304 197.606 97.4994 198.135 97.6517C198.472 98.06 198.551 98.2152 199.21 99.4472C199.357 99.8511 199.357 99.8712 199.463 100.072C199.711 100.098 199.818 100.098 200.218 100.072C200.24 99.6685 200.218 97.6287 200.218 97.1774C200.218 96.8036 200.158 96.7102 200.027 96.5808C199.229 96.4902 198.807 96.4198 198.169 96.4198C196.996 96.4198 195.646 96.4198 194.468 96.4658C194.057 96.483 192.513 96.5319 191.388 96.5607C190.69 94.3599 189.598 92.5443 188.342 91.3167C183.463 86.5571 174.932 83.3414 166.038 80.5325C162.364 79.3725 153.521 76.5219 158.708 70.2702C163.927 63.9783 177.352 59.7966 186.75 58.5719C190.891 58.04 193.115 58.9298 193.758 60.225C196.028 64.7876 180.404 72.9828 180.199 73.1064C179.699 73.4083 179.435 73.8151 179.633 74.196C179.775 74.4706 180.308 74.5597 180.885 74.2665C181.454 73.9804 187.569 70.6727 191.775 67.2385C194.063 65.3669 195.674 63.4292 196.017 61.5345C197.496 53.3552 180.633 57.6418 175.341 59.1368C161.939 62.9304 153.536 69.3775 153.499 74.646C153.463 79.6801 160.328 81.786 165.184 83.3558C168.575 84.4512 179.29 87.2945 184.736 92.1188C192.958 99.4012 189.511 112.934 178.321 119.032C160.734 128.614 133.967 126.284 121.927 119.61C120.033 118.559 118.282 117.502 117.765 117.66C116.791 117.958 117.611 119.128 118.359 119.745C120.42 121.444 123.248 122.979 126.502 124.077C149.53 131.66 181.859 127.501 190.191 110.512C190.212 110.512 190.236 110.51 190.249 110.51C190.774 110.491 191.554 110.467 191.999 110.467C193.31 110.467 195.287 110.51 196.656 110.552C197.418 110.581 198.168 110.581 198.83 110.601C199.505 110.625 200.068 110.625 200.406 110.601C200.452 110.287 200.705 108.766 200.768 108.404C201.017 107 201.034 106.839 201.077 106.525C200.684 106.5 200.556 106.5 200.22 106.55Z" fill="#565963"/>
<path d="M218.776 109.794C217.768 109.388 217.662 109.388 217.283 108.677C216.565 107.349 216.458 107.217 215.728 105.935C215.32 105.242 214.608 104.148 214.208 103.452C216.147 102.804 216.948 101.46 216.948 100.071C216.948 98.2757 215.384 96.3308 212.352 96.3308C212.014 96.3308 211.084 96.3955 210.181 96.4386C209.256 96.4875 208.328 96.5522 207.991 96.5522C207.932 96.5522 207.738 96.5306 207.546 96.5062C207.378 96.5062 207.21 96.4875 207.187 96.4875C206.852 96.4875 205.752 96.5062 205.271 96.5795C205.21 96.7347 205.251 97.2292 205.251 97.3629L206.203 97.4477C206.492 97.4707 206.936 97.5829 206.977 97.5829C207.026 98.0285 207.04 99.9821 207.04 100.517C207.04 101.057 206.996 103.747 206.996 104.349C206.996 104.71 206.936 106.452 206.959 106.835C206.976 107.418 206.996 109.007 206.893 109.458C206.64 109.569 206.476 109.616 205.879 109.7C205.418 109.77 205.313 109.813 205.145 109.928C205.099 110.216 205.099 110.285 205.145 110.621C205.541 110.621 206.028 110.621 206.452 110.576C206.959 110.506 208.156 110.443 208.561 110.443C208.98 110.443 209.19 110.443 211.172 110.621H211.845C211.888 110.354 211.888 110.283 211.907 109.812C211.446 109.632 210.985 109.526 210.52 109.409C210.116 109.319 210.053 109.291 209.759 109.119C209.759 108.828 209.822 107.368 209.822 107.055C209.822 106.383 209.782 105.314 209.782 104.64C209.782 104.192 209.782 104.095 209.805 103.876C211.485 103.807 211.634 103.967 212.012 104.724C212.477 105.641 214.539 110.172 214.799 110.62C214.959 110.595 215.785 110.486 215.949 110.486H216.67C216.753 110.486 217.705 110.546 217.787 110.546H218.228C218.607 110.62 218.671 110.62 219.241 110.62C219.287 110.152 219.266 109.993 218.776 109.794ZM209.784 102.848V102.539C209.784 101.818 209.807 101.753 209.807 101.237V97.6749C209.807 97.6749 209.807 97.6087 209.823 97.4722C210.031 97.4291 210.162 97.4075 210.626 97.4075C211.72 97.4075 213.703 97.4075 213.703 100.405C213.703 103.05 210.986 102.897 209.784 102.848Z" fill="#565963"/>
<path d="M255.337 96.2185C251.164 96.2185 247.94 99.0604 247.94 103.409C247.94 104.754 248.324 106.272 248.635 106.971C249.27 108.338 249.988 108.92 251.164 109.86C252.049 110.549 253.759 110.862 255.215 110.862C259.784 110.862 262.714 107.614 262.714 103.341C262.714 100.274 260.588 96.2185 255.337 96.2185ZM255.215 109.881C253.698 109.881 252.412 108.764 251.965 107.418C251.569 106.228 251.256 105.288 251.256 103.318C251.256 98.5243 253.293 97.3139 254.961 97.3139C256.669 97.3139 258.015 98.0973 258.771 99.8482C259.366 101.237 259.366 103.188 259.366 104.011C259.364 106.008 258.902 109.881 255.215 109.881Z" fill="#565963"/>
<path d="M282.027 102.357C281.985 101.727 281.819 98.8176 281.819 98.3447C281.819 97.6734 283.713 97.3629 283.819 97.3341V96.4874C283.609 96.4385 282.914 96.5061 282.451 96.5535L279.498 96.6398C279.147 96.6671 279.121 96.7145 278.845 97.3643C278.17 98.9513 277.605 100.606 276.907 102.222L275.139 106.252C275.014 106.028 274.362 104.532 273.96 103.589L272.364 99.8727C272.148 99.3797 271.849 98.5531 271.618 98.0313C271.427 97.6072 271.136 96.9604 270.882 96.6657C269.706 96.5952 267.13 96.5047 267.11 96.5047H266.771C266.416 96.5305 266.374 96.5306 266.225 96.5306C266.205 96.9115 266.205 97.0222 266.225 97.3341C266.397 97.3801 266.453 97.4046 266.94 97.498C267.404 97.5828 267.746 97.6734 267.911 97.8071C268.248 98.0572 268.164 99.8713 268.164 100.134L268.011 104.096C267.993 104.619 267.971 104.664 267.971 104.954C267.971 105.915 267.971 107.795 267.764 108.718C267.616 109.385 267.553 109.676 265.888 109.908L265.847 110.661C266.181 110.637 267.635 110.548 267.873 110.548C268.544 110.548 269.302 110.596 269.638 110.637C270.293 110.706 270.356 110.706 270.982 110.73V109.947C269.259 109.426 268.923 109.34 268.923 107.995C268.923 107.188 268.983 105.509 269.011 104.638L269.07 99.4645H269.116C269.136 99.5507 269.874 101.256 270.02 101.611L271.554 105.108C271.68 105.442 271.898 105.961 272.04 106.268C273.097 108.673 273.202 108.936 273.789 110.73H274.588C274.678 110.461 275.161 108.981 275.451 108.105L276.528 105.555L279.055 99.3064H279.099C279.121 99.6169 279.121 99.7103 279.163 100.445L279.328 104.299C279.375 105.377 279.415 107.054 279.415 108.127C279.415 109.227 279.289 109.34 278.993 109.474C278.782 109.566 277.752 109.791 277.52 109.876V110.635C278.426 110.594 279.855 110.503 280.766 110.503C281.018 110.503 282.004 110.545 282.386 110.573C283.654 110.729 283.779 110.704 284.263 110.729V109.988C284.029 109.924 282.429 109.408 282.366 109.288C282.194 109.051 282.092 103.251 282.027 102.357Z" fill="#565963"/>
<path d="M301.011 106.655C300.335 108.564 299.45 109.096 299.149 109.248C298.397 109.636 296.29 109.678 296.207 109.678C293.334 109.678 293.358 109.388 293.358 108.876V106.5C293.334 105.981 293.319 104.438 293.334 103.947C294.099 103.858 294.873 103.858 295.658 103.858C297.179 103.858 297.515 103.858 297.717 104.506L298.124 106.228H298.856C298.856 105.919 298.817 104.42 298.817 104.085V102.091C298.817 101.572 298.817 101.484 298.774 100.609H298.061C297.766 102.128 297.656 102.627 297.215 102.768C296.373 103.011 293.484 102.966 293.334 102.946V102.629V101.573C293.319 100.882 293.298 98.0156 293.334 97.5886C293.634 97.5671 295.256 97.5441 295.574 97.5441C295.614 97.5441 298.397 97.6116 298.925 97.7712C299.258 98.1723 299.341 98.3261 300 99.558C300.144 99.9634 300.144 99.9878 300.25 100.186C300.506 100.209 300.609 100.209 301.011 100.186C301.031 99.7851 301.011 97.7453 301.011 97.2968C301.011 96.9173 300.944 96.8282 300.82 96.6916C300.018 96.5996 299.596 96.5364 298.961 96.5364C297.785 96.5364 296.441 96.5364 295.255 96.5838C294.663 96.6011 291.714 96.6916 291.065 96.6916C290.703 96.6916 290.285 96.6916 289.48 96.6212C289.292 96.6212 288.36 96.5364 288.156 96.5364C288.137 96.6442 288.113 97.2767 288.093 97.4104C288.219 97.4104 289.187 97.5182 289.378 97.5455C289.544 97.5671 290.177 97.6389 290.307 97.7928L290.407 99.3841V100.61C290.407 101.596 290.47 102.604 290.47 103.593V108.725C290.47 109.189 290.452 109.299 290.366 109.533C290.223 109.592 289.948 109.73 289.314 109.799C288.384 109.915 288.301 109.934 288.111 109.976V110.74C288.347 110.74 289.524 110.697 289.775 110.697C289.818 110.697 290.845 110.628 291.038 110.628C291.565 110.604 292.343 110.582 292.785 110.582C294.096 110.582 296.078 110.628 297.447 110.667C298.201 110.697 298.959 110.697 299.614 110.713C300.29 110.739 300.862 110.739 301.201 110.713C301.241 110.405 301.492 108.879 301.554 108.522C301.805 107.111 301.827 106.953 301.874 106.639C301.475 106.612 301.347 106.612 301.011 106.655Z" fill="#565963"/>
<path d="M312.045 102.154C311.753 102.017 310.277 101.522 309.941 101.392C309.728 101.284 308.082 100.606 308.082 99.2158C308.082 97.6748 309.473 97.2507 310.277 97.2507C312.128 97.2507 312.702 99.0433 313.02 100.073C313.074 100.097 313.857 100.165 313.881 100.165C313.904 100.165 313.983 100.137 313.983 100.119C314.025 99.959 314.025 99.8727 314.025 99.6887C314.025 99.085 313.904 97.4706 313.712 96.8252C312.616 96.4184 311.479 96.1711 310.693 96.1711C306.337 96.1711 306.081 99.601 306.081 100.343C306.081 101.394 306.608 102.651 307.264 103.321C307.985 104.04 309.397 104.575 310.154 104.872C310.782 105.112 311.144 105.242 312.234 105.764C312.424 105.848 313.307 106.524 313.307 107.535C313.307 109.097 311.755 109.863 310.613 109.863C309.492 109.863 308.698 109.346 308.341 108.923C307.832 108.361 307.684 107.986 307.18 106.725H306.232C306.232 107.152 306.295 109.326 306.295 109.797C306.295 110.063 306.607 110.155 307.662 110.467C308.801 110.867 309.878 110.867 309.981 110.867C311.288 110.867 312.175 110.696 312.994 110.129C313.857 109.549 315.074 108.741 315.074 106.255C315.074 103.543 313.333 102.739 312.045 102.154Z" fill="#565963"/>
<path d="M51.244 102.109C50.9482 101.976 49.475 101.481 49.139 101.346C48.9279 101.235 47.2824 100.563 47.2824 99.1755C47.2824 97.6287 48.6752 97.209 49.475 97.209C51.3273 97.209 51.893 99.0001 52.2132 100.029C52.2707 100.054 53.0561 100.12 53.0791 100.12C53.0992 100.12 53.1839 100.098 53.1839 100.077C53.2227 99.9172 53.2227 99.8252 53.2227 99.6484C53.2227 99.0432 53.0992 97.4289 52.9068 96.7792C51.8141 96.3795 50.6725 96.1309 49.89 96.1309C45.5335 96.1309 45.2793 99.555 45.2793 100.297C45.2793 101.348 45.8106 102.607 46.4596 103.274C47.1819 103.995 48.5905 104.532 49.3458 104.825C49.9776 105.066 50.3365 105.197 51.435 105.719C51.6202 105.805 52.5119 106.479 52.5119 107.493C52.5119 109.054 50.9482 109.816 49.8081 109.816C48.6967 109.816 47.8898 109.298 47.5351 108.877C47.0268 108.314 46.8789 107.938 46.3735 106.679H45.4286C45.4286 107.109 45.4875 109.28 45.4875 109.751C45.4875 110.021 45.8091 110.108 46.8602 110.424C47.9946 110.825 49.0729 110.825 49.1792 110.825C50.483 110.825 51.3675 110.648 52.1946 110.077C53.0547 109.505 54.2766 108.695 54.2766 106.209C54.2766 103.501 52.5291 102.693 51.244 102.109Z" fill="#565963"/>
<path d="M117.324 87.4081C117.324 87.4081 117.59 88.9548 119.166 89.1058C122.63 89.4407 126.36 86.4076 126.898 85.9217C126.898 85.9217 126 90.9184 126.73 94.4719C126.847 95.0398 127.456 94.8443 127.845 94.6459C130.119 93.4786 130.895 91.5495 130.895 91.5495C130.253 91.6329 130.105 91.3698 129.976 90.7474C129.213 87.1004 129.948 84.4008 129.948 84.4008C131.344 83.5829 140.181 78.9196 143.539 71.8371C143.976 70.9156 144.313 69.5385 143.812 68.4935C143.543 67.8523 142.578 67.4484 141.178 67.7373C139.822 68.0205 138.17 69.1015 137.508 69.5845C135.914 70.7417 134.325 72.6838 132.944 74.4505C129.815 78.4582 127.461 83.8359 127.461 83.8359C126.914 84.339 123.997 87.421 121.442 87.0832C120.072 86.9021 120.496 85.8398 121.413 84.8335C122.584 83.5498 123.727 82.1238 125.286 80.6044C125.506 80.3902 125.368 80.2436 125.178 80.2694C124.453 80.3744 122.868 80.6058 122.24 80.728C122.15 80.7453 121.998 80.8229 121.894 80.9235C121.365 81.4381 120.598 82.3121 117.997 84.49C116.785 85.5091 115.762 86.0626 114.925 86.0137C113.842 85.9505 114.113 85.052 114.593 84.5374C115.39 83.672 117.03 82.0879 118.117 81.1751C118.415 80.925 118.171 80.7668 118.028 80.787C117.479 80.866 116.195 81.0299 115.713 81.0831C115.663 81.0874 115.551 81.1348 115.47 81.2081C114.851 81.7702 112.399 84.3663 110.881 85.5623C109.168 86.9121 107.482 87.4742 106.471 86.9121C105.357 86.294 106.799 84.4267 107.543 83.8186C108.284 83.2149 110.077 82.039 109.682 81.6466C109.293 81.2513 107.893 82.0965 106.153 83.3141C106.909 82.5091 107.218 81.6164 107.006 81.1118C106.734 80.4678 105.298 80.4261 104.666 80.4678C104.036 80.5138 101.261 80.9422 99.2733 82.0462C96.6728 83.4894 94.5262 86.8805 95.303 88.5221C95.9678 89.9453 98.3327 89.1518 100.027 88.4244C101.094 87.9716 102.826 86.7655 102.826 86.7655C102.826 86.7655 102.653 88.1484 104.028 88.6573C106.695 89.6405 110.459 87.0544 110.459 87.0544C110.459 87.0544 110.488 88.7967 113.068 88.7363C115.767 88.6731 117.324 87.4081 117.324 87.4081ZM135.92 73.1696C137.572 70.966 140.379 68.906 141.605 69.0325C143.206 69.1993 141.275 73.0561 139.078 75.5545C136.91 77.9982 132.119 81.441 130.141 82.3653C130.141 82.3653 131.327 79.2948 135.92 73.1696ZM99.0593 87.2413C97.5832 87.5259 96.7604 86.4234 98.7764 84.6136C100.6 82.9791 103.1 82.4156 103.815 82.7348C104.145 82.8857 103.732 83.6936 103.627 84.178C103.627 84.178 103.581 84.6898 104.099 84.6337C101.605 86.2322 99.7873 87.1005 99.0593 87.2413Z" fill="#565963"/>
<path d="M318.05 85.318C317.615 85.2332 317.148 85.4359 315.622 86.0209C305.929 89.7297 298.177 88.9175 296.889 88.7967C293.562 88.4834 292.193 87.0732 293.16 85.3899C293.494 84.8034 294.554 83.5786 295.474 82.6557C295.994 82.1368 295.641 81.0759 294.893 80.764C293.993 80.3888 292.257 80.0884 291.527 80.0855C290.934 80.0826 290.366 80.0783 290.159 80.4305C289.141 82.1598 287.293 87.4584 282.847 87.3664C281.586 87.342 280.811 86.5844 280.831 86.2782C280.835 86.2078 283.61 85.1412 285.696 83.2839C287.787 81.4209 286.938 79.8742 284.965 79.9317C283.736 79.9647 282.287 80.2336 280.227 81.7904C278.168 83.3443 277.658 85.7679 277.53 86.4263C276.726 87.0056 275.35 87.3463 275.179 86.8863C274.856 86.0209 275.91 84.2011 276.667 82.9217C277.122 82.1497 276.951 81.569 276.249 81.4914C273.307 81.1593 269.463 84.398 269.463 84.398C271.643 82.0721 274.38 79.3926 275.362 77.7769C277.173 74.7941 278.002 72.0456 277.595 71.4059C277.184 70.7676 273.802 72.3216 271.221 75.9196C270.216 77.3183 268.075 81.2355 266.422 85.2188C264.126 86.3343 259.617 87.5116 259.029 86.6966C258.302 85.6917 260.635 83.1431 261.514 82.6773C262.548 82.1311 263.417 83.409 263.817 83.3846C264.224 83.3501 266.011 81.9082 265.713 81.6351C265.223 81.1852 264.461 80.3629 261.879 80.9926C258.803 81.7415 256.898 83.547 255.814 85.4632C255.337 86.307 254.136 86.6894 253.467 86.5772C252.802 86.4622 252.665 85.6041 253.505 84.5015C255.384 82.0362 255.732 82.1957 255.446 81.6394C255.231 81.1981 254.912 81.2441 254.192 81.4626C253.581 81.6495 253.085 81.9456 253.085 81.9456C253.028 81.7659 252.828 80.6547 251.685 80.7309C250.435 80.8143 248.307 81.5474 246.851 82.5666C244.519 84.1982 243.689 85.7679 243.689 85.7679C242.643 86.7152 241.096 87.2845 240.758 86.8001C240.362 86.2294 241.389 84.9658 242.415 83.7339C243.046 82.9749 243.729 81.96 243.267 81.3074C242.908 80.8014 241.251 81.1234 239.632 81.8867C238.389 82.4732 237.003 83.3501 236.281 84.3491C236.952 82.9634 237.504 81.7817 237.211 81.1665C236.897 80.5024 234.557 80.6533 233.636 81.2039C233.465 80.9135 233.032 80.6044 232.777 80.7999C232.426 81.0716 231.787 82.1138 230.398 83.5801C229.285 84.7559 227.245 87.4613 225.661 87.2787C224.553 87.1494 224.811 86.0123 225.836 84.6711C226.84 83.3572 228.57 81.8206 229.185 81.3189C229.522 81.0443 229.123 80.9394 228.849 80.9652C227.796 81.0659 226.148 81.3232 225.848 81.4281C225.597 81.5158 224.317 82.8282 223.394 83.6907C221.816 85.1699 220.572 86.2164 219.116 86.1431C218.294 86.1 218.021 85.4948 220.353 83.4119C220.383 83.3846 221.595 82.1886 222.318 81.5704C222.469 81.4425 222.41 81.3979 222.135 81.3951C221.206 81.3864 219.836 81.5345 219.468 81.8622C218.739 82.5077 216.483 84.7344 214.988 85.7967C213.387 86.9352 212.679 87.2457 212.391 87.1594C212.098 87.0646 212.049 86.7972 212.123 86.5298C212.549 84.9902 213.519 83.7425 214.185 82.6083C214.855 81.477 214.221 81.0903 213.136 81.1478C210.731 81.2743 207.53 83.4679 207.53 83.4679C207.605 83.2121 212.151 79.0534 213.245 77.4089C214.944 74.8587 216.417 71.8285 215.743 71.3167C215.136 70.8553 211.657 72.4193 209.635 74.991C207.876 77.2306 206.182 80.7266 204.653 83.6907C203.528 84.5346 197.667 87.02 194.989 87.0257C193.371 87.0286 192.874 85.5667 194.152 84.3017C195.382 83.0827 197.822 82.2245 198.304 82.3639C198.79 82.5062 198.304 83.2767 198.304 83.2767C198.304 83.2767 197.456 84.4354 198.279 84.5849C198.817 84.6841 200.498 83.9035 201.069 83.0511C201.637 82.19 200.669 82.4775 200.669 82.4775C200.669 82.4775 200.493 80.7381 198.919 80.7381C198.065 80.7381 194.394 81.0917 190.864 83.9998C187.333 86.9079 189.4 89.1087 191.731 88.975C197.321 88.6559 202.981 85.5178 203.336 85.3496C203.336 85.3496 201.891 87.9242 201.865 88.2764C201.842 88.5667 201.929 88.6415 202.174 88.7407C202.51 88.8772 202.813 88.929 203.336 88.5826C203.336 88.5826 205.698 86.0612 207.804 85.0449C209.043 84.4469 210.278 84.2686 209.512 85.7866C209.002 86.7957 208.659 88.9721 210.138 88.9635C212.116 88.9534 214.201 87.4297 215.535 86.2854C214.892 87.0746 214.704 88.6817 215.934 88.8887C218.968 89.3933 221.454 86.79 221.454 86.79C221.349 87.1566 221.128 89.09 223.73 88.8801C225.127 88.768 226.438 88.1872 227.241 87.6122C227.862 87.9616 229.881 88.5725 230.68 87.6424C232.164 85.916 232.777 85.0923 233.839 84.1637C233.566 84.7746 233.415 85.4402 233.365 85.9347C233.283 86.767 233.438 87.3794 234.001 87.5016C234.621 87.6352 235.467 87.7071 236.12 87.0947C236.687 86.5643 237.629 85.387 238.746 84.5719C237.786 86.0296 237.041 87.6726 237.82 88.4647C239.337 90.0042 243.383 86.8446 243.383 86.8446C243.343 86.9927 243.29 87.1781 243.287 87.503C243.281 88.2232 243.58 89.1504 245.507 88.9046C247.392 88.6645 249.061 87.4987 249.766 86.836C249.766 86.836 249.832 88.6401 251.77 88.5021C253.309 88.3928 254.534 87.6841 255.648 86.7167C255.439 87.6237 255.971 88.9046 258.16 88.9635C260.182 89.0181 263.44 87.8652 265.549 86.5787C265.549 86.5787 264.28 88.6214 264.237 88.9161C264.218 89.0426 266.034 88.8801 266.034 88.8801C267.945 87.1206 269.335 85.87 270.839 85.3079C271.482 85.0679 272.876 84.6467 272.438 85.6932C272.222 86.215 271.61 87.4699 271.745 88.0823C271.847 88.5337 272.217 88.7551 272.51 88.8442C274.11 89.3301 276.644 87.8437 277.536 87.3334C277.536 87.3334 277.876 88.4273 279.012 88.9074C282.511 90.3881 287.887 88.7996 291.132 81.6567C291.629 81.6869 293.117 81.9427 292.73 82.4459C291.46 84.1047 290.541 85.3295 290.39 86.123C290.11 87.6151 291.463 88.7493 293.411 89.2424C295.362 89.7369 303.942 91.3339 318.605 85.5739C318.89 85.4661 318.624 85.4301 318.05 85.318ZM206.591 82.6759C206.591 82.6759 208.749 77.9997 209.622 76.6686C210.734 74.9723 213.34 73.0619 213.084 73.8396C211.872 77.5382 206.591 82.6759 206.591 82.6759ZM250.736 83.9826C250.713 84.1594 250.238 84.5705 249.789 85.0089C248.381 86.3774 246.753 86.8044 246.18 86.3142C245.748 85.9447 246.439 84.6682 247.419 83.8891C248.167 83.2954 249.405 82.7463 250.1 82.8642C250.59 82.949 250.781 83.6332 250.736 83.9826ZM272.069 76.7304C272.53 75.9742 274.966 73.6239 274.782 74.4174C273.919 78.165 268.001 84.1162 268.001 84.1162C268.768 81.7861 271.107 78.3087 272.069 76.7304ZM283.387 81.9025C284.012 82.2302 283.022 83.3472 282.412 83.9164C281.5 84.766 280.645 85.3036 280.645 85.3036C280.686 84.1019 282.418 81.3936 283.387 81.9025Z" fill="#565963"/>
<path d="M131.268 59.4891C131.824 53.2532 127.166 46.1706 116.929 42.5294C106.607 38.8566 97.3106 39.2692 81.3908 43.2108C69.4226 46.1749 62.2043 51.1702 60.1596 52.8924C59.9916 53.0347 59.6786 53.5321 59.904 53.7692C60.2544 54.1416 60.6248 53.8296 60.9378 53.5867C62.8304 52.1161 68.7577 48.0336 80.5034 45.127C96.1762 41.2501 105.992 41.5261 114.419 44.6066C124.054 48.1271 128.013 52.9973 127.559 59.4905C127.15 65.3397 122.766 70.9474 111.349 74.5771C100.135 78.1406 93.7438 77.7884 90.7428 77.5326C89.7276 77.4449 89.1432 77.3716 88.7469 77.2523C93.0388 70.2603 96.5395 64.4542 98.5914 61.1537C98.8082 60.8058 98.5928 60.5701 98.2137 60.6851C97.8332 60.8001 96.9588 61.2974 96.0685 61.9846C95.2816 62.5912 87.9787 74.2191 81.1725 85.0306C81.1065 84.365 80.9657 83.9222 80.7389 83.8288C80.4546 83.7138 80.1114 84.4685 79.9979 85.1571C79.7581 86.6118 79.5744 88.597 79.8357 90.6914C79.873 90.9933 80.1171 91.1385 80.423 90.6526C83.1741 86.2869 85.8018 82.0449 88.1998 78.1435C89.449 78.7171 91.8556 78.822 94.1832 78.822C98.567 78.822 106.843 77.6979 113.551 75.4266C121.935 72.5818 130.579 67.2084 131.268 59.4891Z" fill="#565963"/>
</g>
<defs>
<filter id="filter0_d_1285_1693" x="-43.7207" y="-15" width="451.441" height="205.714" filterUnits="userSpaceOnUse" color-interpolation-filters="sRGB">
<feFlood flood-opacity="0" result="BackgroundImageFix"/>
<feColorMatrix in="SourceAlpha" type="matrix" values="0 0 0 0 0 0 0 0 0 0 0 0 0 0 0 0 0 0 127 0" result="hardAlpha"/>
<feOffset dy="4"/>
<feGaussianBlur stdDeviation="22"/>
<feComposite in2="hardAlpha" operator="out"/>
<feColorMatrix type="matrix" values="0 0 0 0 0 0 0 0 0 0 0 0 0 0 0 0 0 0 0.05 0"/>
<feBlend mode="normal" in2="BackgroundImageFix" result="effect1_dropShadow_1285_1693"/>
<feBlend mode="normal" in="SourceGraphic" in2="effect1_dropShadow_1285_1693" result="shape"/>
</filter>
</defs>
</svg>
