<svg width="321" height="179" viewBox="0 0 321 179" fill="none" xmlns="http://www.w3.org/2000/svg">
<rect x="0.580078" y="1.47656" width="319.291" height="176.2" rx="88.1002" stroke="black"/>
<rect x="193.377" y="54.8088" width="69.7783" height="69.5357" rx="34.7678" stroke="black"/>
<path d="M72.5718 96.8367C71.8051 96.8367 71.0685 96.7167 70.3618 96.4767C69.6551 96.2367 69.0385 95.8933 68.5118 95.4467C67.9851 94.9933 67.6085 94.4567 67.3818 93.8367L69.3318 93.1067C69.4451 93.4267 69.6618 93.7133 69.9818 93.9667C70.3085 94.2133 70.6951 94.4067 71.1418 94.5467C71.5951 94.6867 72.0718 94.7567 72.5718 94.7567C73.1051 94.7567 73.6051 94.67 74.0718 94.4967C74.5451 94.3233 74.9251 94.0833 75.2118 93.7767C75.5051 93.47 75.6518 93.11 75.6518 92.6967C75.6518 92.27 75.4985 91.92 75.1918 91.6467C74.8918 91.3733 74.5051 91.1567 74.0318 90.9967C73.5651 90.8367 73.0785 90.7167 72.5718 90.6367C71.5918 90.4767 70.7118 90.2433 69.9318 89.9367C69.1585 89.63 68.5451 89.2 68.0918 88.6467C67.6451 88.0933 67.4218 87.3733 67.4218 86.4867C67.4218 85.6533 67.6585 84.9267 68.1318 84.3067C68.6118 83.6867 69.2418 83.2067 70.0218 82.8667C70.8085 82.52 71.6585 82.3467 72.5718 82.3467C73.3251 82.3467 74.0518 82.4667 74.7518 82.7067C75.4585 82.94 76.0785 83.2833 76.6118 83.7367C77.1518 84.1833 77.5385 84.7267 77.7718 85.3667L75.8018 86.0767C75.6885 85.75 75.4718 85.4667 75.1518 85.2267C74.8318 84.98 74.4451 84.7867 73.9918 84.6467C73.5451 84.5067 73.0718 84.4367 72.5718 84.4367C72.0385 84.43 71.5385 84.5167 71.0718 84.6967C70.6118 84.87 70.2351 85.11 69.9418 85.4167C69.6485 85.7233 69.5018 86.08 69.5018 86.4867C69.5018 86.9867 69.6385 87.3667 69.9118 87.6267C70.1851 87.8867 70.5518 88.08 71.0118 88.2067C71.4785 88.3267 71.9985 88.4367 72.5718 88.5367C73.4918 88.6833 74.3418 88.9267 75.1218 89.2667C75.9085 89.6067 76.5385 90.06 77.0118 90.6267C77.4918 91.1867 77.7318 91.8767 77.7318 92.6967C77.7318 93.5233 77.4918 94.25 77.0118 94.8767C76.5385 95.4967 75.9085 95.98 75.1218 96.3267C74.3418 96.6667 73.4918 96.8367 72.5718 96.8367ZM84.0707 96.8367C83.1507 96.8367 82.3107 96.6 81.5507 96.1267C80.7974 95.6533 80.194 95.02 79.7407 94.2267C79.294 93.4267 79.0707 92.5433 79.0707 91.5767C79.0707 90.8433 79.2007 90.16 79.4607 89.5267C79.7207 88.8867 80.0774 88.3267 80.5307 87.8467C80.9907 87.36 81.524 86.98 82.1307 86.7067C82.7374 86.4333 83.384 86.2967 84.0707 86.2967C84.8374 86.2967 85.5407 86.4567 86.1807 86.7767C86.8207 87.09 87.3674 87.5267 87.8207 88.0867C88.274 88.64 88.6074 89.28 88.8207 90.0067C89.034 90.7267 89.0974 91.4933 89.0107 92.3067H81.3007C81.3874 92.7667 81.554 93.1833 81.8007 93.5567C82.054 93.9233 82.374 94.2133 82.7607 94.4267C83.154 94.64 83.5907 94.75 84.0707 94.7567C84.5774 94.7567 85.0374 94.63 85.4507 94.3767C85.8707 94.1233 86.214 93.7733 86.4807 93.3267L88.5907 93.8167C88.1907 94.7033 87.5874 95.43 86.7807 95.9967C85.974 96.5567 85.0707 96.8367 84.0707 96.8367ZM81.2307 90.7167H86.9107C86.844 90.2367 86.674 89.8033 86.4007 89.4167C86.134 89.0233 85.7974 88.7133 85.3907 88.4867C84.9907 88.2533 84.5507 88.1367 84.0707 88.1367C83.5974 88.1367 83.1574 88.25 82.7507 88.4767C82.3507 88.7033 82.0174 89.0133 81.7507 89.4067C81.4907 89.7933 81.3174 90.23 81.2307 90.7167ZM95.0073 96.8367C94.0873 96.8367 93.2473 96.6 92.4873 96.1267C91.7339 95.6533 91.1306 95.02 90.6773 94.2267C90.2306 93.4267 90.0073 92.5433 90.0073 91.5767C90.0073 90.8433 90.1373 90.16 90.3973 89.5267C90.6573 88.8867 91.0139 88.3267 91.4673 87.8467C91.9273 87.36 92.4606 86.98 93.0673 86.7067C93.6739 86.4333 94.3206 86.2967 95.0073 86.2967C95.7739 86.2967 96.4773 86.4567 97.1173 86.7767C97.7573 87.09 98.3039 87.5267 98.7573 88.0867C99.2106 88.64 99.5439 89.28 99.7573 90.0067C99.9706 90.7267 100.034 91.4933 99.9473 92.3067H92.2373C92.3239 92.7667 92.4906 93.1833 92.7373 93.5567C92.9906 93.9233 93.3106 94.2133 93.6973 94.4267C94.0906 94.64 94.5273 94.75 95.0073 94.7567C95.5139 94.7567 95.9739 94.63 96.3873 94.3767C96.8073 94.1233 97.1506 93.7733 97.4173 93.3267L99.5273 93.8167C99.1273 94.7033 98.5239 95.43 97.7173 95.9967C96.9106 96.5567 96.0073 96.8367 95.0073 96.8367ZM92.1673 90.7167H97.8473C97.7806 90.2367 97.6106 89.8033 97.3373 89.4167C97.0706 89.0233 96.7339 88.7133 96.3273 88.4867C95.9273 88.2533 95.4873 88.1367 95.0073 88.1367C94.5339 88.1367 94.0939 88.25 93.6873 88.4767C93.2873 88.7033 92.9539 89.0133 92.6873 89.4067C92.4273 89.7933 92.2539 90.23 92.1673 90.7167Z" fill="black"/>
</svg>
