<svg width="321" height="179" viewBox="0 0 321 179" fill="none" xmlns="http://www.w3.org/2000/svg">
<rect x="1.16211" y="1.47656" width="319.291" height="176.2" rx="88.1002" stroke="black"/>
<rect x="193.959" y="54.8088" width="69.7783" height="69.5357" rx="34.7678" stroke="black"/>
<path d="M61.0434 96.8367C60.2768 96.8367 59.5401 96.7167 58.8334 96.4767C58.1268 96.2367 57.5101 95.8933 56.9834 95.4467C56.4568 94.9933 56.0801 94.4567 55.8534 93.8367L57.8034 93.1067C57.9168 93.4267 58.1334 93.7133 58.4534 93.9667C58.7801 94.2133 59.1668 94.4067 59.6134 94.5467C60.0668 94.6867 60.5434 94.7567 61.0434 94.7567C61.5768 94.7567 62.0768 94.67 62.5434 94.4967C63.0168 94.3233 63.3968 94.0833 63.6834 93.7767C63.9768 93.47 64.1234 93.11 64.1234 92.6967C64.1234 92.27 63.9701 91.92 63.6634 91.6467C63.3634 91.3733 62.9768 91.1567 62.5034 90.9967C62.0368 90.8367 61.5501 90.7167 61.0434 90.6367C60.0634 90.4767 59.1834 90.2433 58.4034 89.9367C57.6301 89.63 57.0168 89.2 56.5634 88.6467C56.1168 88.0933 55.8934 87.3733 55.8934 86.4867C55.8934 85.6533 56.1301 84.9267 56.6034 84.3067C57.0834 83.6867 57.7134 83.2067 58.4934 82.8667C59.2801 82.52 60.1301 82.3467 61.0434 82.3467C61.7968 82.3467 62.5234 82.4667 63.2234 82.7067C63.9301 82.94 64.5501 83.2833 65.0834 83.7367C65.6234 84.1833 66.0101 84.7267 66.2434 85.3667L64.2734 86.0767C64.1601 85.75 63.9434 85.4667 63.6234 85.2267C63.3034 84.98 62.9168 84.7867 62.4634 84.6467C62.0168 84.5067 61.5434 84.4367 61.0434 84.4367C60.5101 84.43 60.0101 84.5167 59.5434 84.6967C59.0834 84.87 58.7068 85.11 58.4134 85.4167C58.1201 85.7233 57.9734 86.08 57.9734 86.4867C57.9734 86.9867 58.1101 87.3667 58.3834 87.6267C58.6568 87.8867 59.0234 88.08 59.4834 88.2067C59.9501 88.3267 60.4701 88.4367 61.0434 88.5367C61.9634 88.6833 62.8134 88.9267 63.5934 89.2667C64.3801 89.6067 65.0101 90.06 65.4834 90.6267C65.9634 91.1867 66.2034 91.8767 66.2034 92.6967C66.2034 93.5233 65.9634 94.25 65.4834 94.8767C65.0101 95.4967 64.3801 95.98 63.5934 96.3267C62.8134 96.6667 61.9634 96.8367 61.0434 96.8367ZM70.3005 101.577H68.2205V86.5767H70.3005V88.0467C70.6338 87.5333 71.0605 87.1167 71.5805 86.7967C72.1005 86.4767 72.7138 86.3167 73.4205 86.3167C74.1471 86.3167 74.8271 86.4533 75.4605 86.7267C76.1005 87 76.6605 87.38 77.1405 87.8667C77.6205 88.3467 77.9971 88.9033 78.2705 89.5367C78.5438 90.17 78.6805 90.85 78.6805 91.5767C78.6805 92.3033 78.5438 92.9867 78.2705 93.6267C77.9971 94.2667 77.6205 94.83 77.1405 95.3167C76.6605 95.7967 76.1005 96.1733 75.4605 96.4467C74.8271 96.72 74.1471 96.8567 73.4205 96.8567C72.7138 96.8567 72.1005 96.6967 71.5805 96.3767C71.0605 96.05 70.6338 95.6333 70.3005 95.1267V101.577ZM73.4005 88.3267C72.8205 88.3267 72.3105 88.4733 71.8705 88.7667C71.4305 89.06 71.0871 89.4533 70.8405 89.9467C70.5938 90.4333 70.4705 90.9767 70.4705 91.5767C70.4705 92.1767 70.5938 92.7233 70.8405 93.2167C71.0871 93.71 71.4305 94.1033 71.8705 94.3967C72.3105 94.69 72.8205 94.8367 73.4005 94.8367C73.9738 94.8367 74.5005 94.6933 74.9805 94.4067C75.4605 94.1133 75.8438 93.72 76.1305 93.2267C76.4171 92.7333 76.5605 92.1833 76.5605 91.5767C76.5605 90.9833 76.4171 90.44 76.1305 89.9467C75.8505 89.4533 75.4705 89.06 74.9905 88.7667C74.5105 88.4733 73.9805 88.3267 73.4005 88.3267ZM84.6508 96.8367C83.7308 96.8367 82.8908 96.6 82.1308 96.1267C81.3774 95.6533 80.7741 95.02 80.3208 94.2267C79.8741 93.4267 79.6508 92.5433 79.6508 91.5767C79.6508 90.8433 79.7808 90.16 80.0408 89.5267C80.3008 88.8867 80.6574 88.3267 81.1108 87.8467C81.5708 87.36 82.1041 86.98 82.7108 86.7067C83.3174 86.4333 83.9641 86.2967 84.6508 86.2967C85.4174 86.2967 86.1208 86.4567 86.7608 86.7767C87.4008 87.09 87.9474 87.5267 88.4008 88.0867C88.8541 88.64 89.1874 89.28 89.4008 90.0067C89.6141 90.7267 89.6774 91.4933 89.5908 92.3067H81.8808C81.9674 92.7667 82.1341 93.1833 82.3808 93.5567C82.6341 93.9233 82.9541 94.2133 83.3408 94.4267C83.7341 94.64 84.1708 94.75 84.6508 94.7567C85.1574 94.7567 85.6174 94.63 86.0308 94.3767C86.4508 94.1233 86.7941 93.7733 87.0608 93.3267L89.1708 93.8167C88.7708 94.7033 88.1674 95.43 87.3608 95.9967C86.5541 96.5567 85.6508 96.8367 84.6508 96.8367ZM81.8108 90.7167H87.4908C87.4241 90.2367 87.2541 89.8033 86.9808 89.4167C86.7141 89.0233 86.3774 88.7133 85.9708 88.4867C85.5708 88.2533 85.1308 88.1367 84.6508 88.1367C84.1774 88.1367 83.7374 88.25 83.3308 88.4767C82.9308 88.7033 82.5974 89.0133 82.3308 89.4067C82.0708 89.7933 81.8974 90.23 81.8108 90.7167ZM98.9673 86.5767H101.047V96.5767H98.9573L98.8773 95.1267C98.584 95.64 98.1873 96.0533 97.6873 96.3667C97.1873 96.68 96.5973 96.8367 95.9173 96.8367C95.184 96.8367 94.494 96.7 93.8473 96.4267C93.2007 96.1467 92.6307 95.76 92.1373 95.2667C91.6507 94.7733 91.2707 94.2067 90.9973 93.5667C90.724 92.92 90.5873 92.2267 90.5873 91.4867C90.5873 90.7733 90.7207 90.1033 90.9873 89.4767C91.254 88.8433 91.624 88.29 92.0973 87.8167C92.5707 87.3433 93.1173 86.9733 93.7373 86.7067C94.364 86.4333 95.034 86.2967 95.7473 86.2967C96.474 86.2967 97.114 86.4633 97.6673 86.7967C98.2273 87.1233 98.6907 87.5433 99.0573 88.0567L98.9673 86.5767ZM95.8673 94.8267C96.454 94.8267 96.9673 94.6833 97.4073 94.3967C97.8473 94.1033 98.1873 93.71 98.4273 93.2167C98.674 92.7233 98.7973 92.1767 98.7973 91.5767C98.7973 90.97 98.674 90.42 98.4273 89.9267C98.1807 89.4333 97.8373 89.0433 97.3973 88.7567C96.964 88.4633 96.454 88.3167 95.8673 88.3167C95.2873 88.3167 94.7573 88.4633 94.2773 88.7567C93.7973 89.05 93.4173 89.4433 93.1373 89.9367C92.8573 90.43 92.7173 90.9767 92.7173 91.5767C92.7173 92.1833 92.8607 92.7333 93.1473 93.2267C93.4407 93.7133 93.824 94.1033 94.2973 94.3967C94.7773 94.6833 95.3007 94.8267 95.8673 94.8267ZM111.631 96.5767H109.231L106.771 92.3367L105.161 94.2567V96.5767H103.081V81.5767H105.161V91.0267L108.881 86.5767H111.601L108.191 90.6467L111.631 96.5767Z" fill="black"/>
<path d="M233.515 68.9169C238.275 73.6771 240.896 80.006 240.896 86.738C240.896 93.47 238.275 99.799 233.515 104.559C233.297 104.774 233.003 104.894 232.697 104.894C232.391 104.893 232.098 104.771 231.881 104.554C231.665 104.338 231.543 104.045 231.542 103.739C231.541 103.433 231.661 103.139 231.876 102.921C236.199 98.5982 238.58 92.851 238.58 86.738C238.58 80.6251 236.199 74.8779 231.876 70.5552C231.714 70.3932 231.604 70.1868 231.559 69.9621C231.515 69.7373 231.538 69.5044 231.625 69.2928C231.713 69.0811 231.862 68.9002 232.052 68.7729C232.243 68.6456 232.466 68.5777 232.696 68.5776C232.848 68.5774 232.998 68.6073 233.139 68.6655C233.28 68.7237 233.407 68.8092 233.515 68.9169ZM226.392 97.4362C229.25 94.5787 230.823 90.7792 230.823 86.738C230.823 82.6968 229.25 78.8973 226.392 76.0397C226.283 75.9324 226.197 75.8046 226.138 75.6638C226.079 75.5229 226.048 75.3718 226.048 75.2191C226.047 75.0663 226.077 74.915 226.135 74.7738C226.193 74.6326 226.279 74.5044 226.387 74.3964C226.495 74.2884 226.623 74.2028 226.764 74.1446C226.906 74.0864 227.057 74.0566 227.21 74.0571C227.362 74.0576 227.514 74.0882 227.654 74.1473C227.795 74.2064 227.923 74.2928 228.03 74.4014C231.326 77.6967 233.14 82.078 233.14 86.738C233.14 91.3981 231.326 95.7794 228.03 99.0747C227.813 99.2919 227.518 99.414 227.211 99.414C226.904 99.414 226.609 99.2919 226.392 99.0747C226.175 98.8574 226.053 98.5627 226.053 98.2555C226.053 97.9482 226.175 97.6535 226.392 97.4362ZM220.907 91.9517C222.3 90.5591 223.067 88.7075 223.067 86.7381C223.067 84.7684 222.3 82.9169 220.907 81.5242C220.799 81.4169 220.712 81.2891 220.653 81.1483C220.594 81.0074 220.564 80.8563 220.563 80.7036C220.563 80.5508 220.592 80.3995 220.651 80.2583C220.709 80.1171 220.794 79.9889 220.902 79.8809C221.01 79.7729 221.139 79.6873 221.28 79.6291C221.421 79.5709 221.572 79.5411 221.725 79.5416C221.878 79.5421 222.029 79.5727 222.17 79.6318C222.311 79.6909 222.438 79.7773 222.546 79.8859C224.376 81.7162 225.384 84.1497 225.384 86.738C225.384 89.3264 224.376 91.7599 222.546 93.5902C222.329 93.8074 222.034 93.9295 221.727 93.9295C221.419 93.9295 221.125 93.8074 220.907 93.5902C220.69 93.3729 220.568 93.0782 220.568 92.771C220.568 92.4637 220.69 92.169 220.907 91.9517Z" fill="black" stroke="#E1FEDE"/>
</svg>
