<svg width="157" height="50" viewBox="0 0 157 50" fill="none" xmlns="http://www.w3.org/2000/svg">
<g clip-path="url(#clip0_1005_15454)">
<path fill-rule="evenodd" clip-rule="evenodd" d="M25.0644 49.2548C38.5539 49.2548 49.4891 38.3195 49.4891 24.83C49.4891 11.3406 38.5539 0.405273 25.0644 0.405273C11.575 0.405273 0.639648 11.3406 0.639648 24.83C0.639648 38.3195 11.575 49.2548 25.0644 49.2548ZM24.1828 35.0768V39.4955C28.3794 39.7525 32.4843 38.1951 35.4541 35.2191C41.1919 29.4812 41.1919 20.1788 35.4541 14.4415C34.9326 13.9197 34.3728 13.4376 33.7794 12.9993L30.6112 16.1672L16.4005 30.3763C13.7969 26.3068 14.3756 20.9741 17.7916 17.5579C19.936 15.4092 22.9216 14.3201 25.946 14.5833V10.1644C21.7493 9.9076 17.6445 11.4652 14.6748 14.4412C8.93692 20.1789 8.93692 29.4814 14.6748 35.2188C15.1962 35.7405 15.756 36.2226 16.3493 36.6609L19.5174 33.4932L33.7281 19.2838C36.3318 23.3531 35.7531 28.6859 32.337 32.1022C30.1927 34.2508 27.207 35.3398 24.1828 35.0768Z" fill="#381FD1"/>
</g>
<path d="M72.1773 38.8262C70.6762 38.8262 69.2387 38.5909 67.8648 38.1202C66.5036 37.6495 65.3078 36.9689 64.2774 36.0784C63.2597 35.1879 62.5282 34.1321 62.083 32.9108L67.0252 31.079C67.1778 31.5115 67.4959 31.9186 67.9793 32.3002C68.4627 32.6691 69.0669 32.9744 69.792 33.2161C70.5172 33.4451 71.3122 33.5596 72.1773 33.5596C73.0042 33.5596 73.7801 33.4388 74.5053 33.1971C75.2431 32.9426 75.8346 32.5928 76.2799 32.1476C76.7378 31.7023 76.9668 31.1808 76.9668 30.5829C76.9668 29.985 76.7315 29.4888 76.2608 29.0945C75.7901 28.7001 75.1858 28.3884 74.448 28.1595C73.7102 27.9178 72.9533 27.7333 72.1773 27.6061C70.2564 27.3262 68.5326 26.8746 67.0061 26.2513C65.4923 25.6152 64.2965 24.7438 63.4187 23.6371C62.541 22.5176 62.1021 21.0992 62.1021 19.3818C62.1021 17.7281 62.5664 16.2842 63.495 15.0503C64.4364 13.8163 65.6704 12.8558 67.1969 12.1689C68.7362 11.4819 70.3963 11.1385 72.1773 11.1385C73.6529 11.1385 75.0777 11.3738 76.4516 11.8445C77.8255 12.3152 79.0213 12.9958 80.039 13.8863C81.0694 14.7767 81.8072 15.8453 82.2525 17.092L77.3103 18.8857C77.1576 18.4532 76.8396 18.0525 76.3562 17.6835C75.8728 17.3146 75.2685 17.0157 74.5434 16.7867C73.8183 16.5577 73.0296 16.4432 72.1773 16.4432C71.3631 16.4305 70.5871 16.5514 69.8493 16.8058C69.1242 17.0602 68.5263 17.41 68.0556 17.8553C67.5976 18.3005 67.3687 18.8094 67.3687 19.3818C67.3687 20.1324 67.5849 20.6985 68.0174 21.0801C68.4627 21.4617 69.0479 21.7353 69.773 21.9006C70.4981 22.066 71.2995 22.2123 72.1773 22.3395C73.9837 22.6067 75.6502 23.0837 77.1767 23.7706C78.7033 24.4449 79.9245 25.3481 80.8404 26.4803C81.7691 27.5997 82.2334 28.9673 82.2334 30.5829C82.2334 32.2366 81.7691 33.6805 80.8404 34.9144C79.9118 36.1484 78.6842 37.1088 77.1576 37.7958C75.6311 38.4827 73.971 38.8262 72.1773 38.8262ZM96.3247 24.5148H92.89V38.3301H87.6234V24.5148H84.9901V19.2483H87.6234V13.2566H92.89V19.2483H96.3247V24.5148ZM113.367 19.2483H118.634V38.3301H113.348L113.1 36.3456C112.604 37.0834 111.968 37.6813 111.192 38.1393C110.416 38.5972 109.506 38.8262 108.463 38.8262C107.038 38.8262 105.709 38.5591 104.475 38.0248C103.241 37.4905 102.153 36.7526 101.212 35.8113C100.271 34.8699 99.5329 33.7822 98.9986 32.5483C98.477 31.3016 98.2162 29.9659 98.2162 28.5411C98.2162 27.1799 98.4643 25.9078 98.9604 24.7247C99.4565 23.5417 100.156 22.4985 101.059 21.5953C101.963 20.6921 102.999 19.9861 104.17 19.4772C105.353 18.9684 106.625 18.714 107.986 18.714C109.156 18.714 110.206 18.962 111.135 19.4582C112.076 19.9543 112.896 20.584 113.596 21.3473L113.367 19.2483ZM108.33 33.7695C109.195 33.7695 109.977 33.5469 110.677 33.1017C111.376 32.6564 111.93 32.0585 112.337 31.308C112.744 30.5447 112.947 29.7051 112.947 28.7892C112.947 27.8605 112.744 27.0209 112.337 26.2704C111.93 25.5198 111.376 24.9219 110.677 24.4767C109.977 24.0314 109.195 23.8088 108.33 23.8088C107.452 23.8088 106.657 24.0314 105.944 24.4767C105.232 24.9219 104.666 25.5262 104.246 26.2894C103.826 27.04 103.616 27.8732 103.616 28.7892C103.616 29.7051 103.826 30.5447 104.246 31.308C104.679 32.0585 105.251 32.6564 105.963 33.1017C106.676 33.5469 107.465 33.7695 108.33 33.7695ZM122.487 38.3301L122.468 19.2483H127.735L127.754 20.6603C128.39 20.0497 129.134 19.5726 129.986 19.2292C130.851 18.8857 131.761 18.714 132.715 18.714C133.415 18.714 134.114 18.8157 134.814 19.0193L132.734 24.3431C132.276 24.1523 131.812 24.0569 131.341 24.0569C130.68 24.0569 130.075 24.2159 129.528 24.5339C128.981 24.8519 128.549 25.2845 128.231 25.8315C127.913 26.3658 127.754 26.97 127.754 27.6443V38.3301H122.487ZM154.636 38.3301H148.568L144.523 31.3652L142.195 34.1321V38.3301H136.928V9.70734H142.195V25.946L147.805 19.2483H154.675L148.129 27.0909L154.636 38.3301Z" fill="#381FD1"/>
<defs>
<clipPath id="clip0_1005_15454">
<rect width="48.8495" height="48.8495" fill="white" transform="translate(0.639648 0.405273)"/>
</clipPath>
</defs>
</svg>
