<svg width="323" height="323" viewBox="0 0 323 323" fill="none" xmlns="http://www.w3.org/2000/svg">
<g clip-path="url(#clip0_1082_122)">
<mask id="mask0_1082_122" style="mask-type:alpha" maskUnits="userSpaceOnUse" x="78" y="2" width="82" height="87">
<path d="M93.3054 46.6118L95.1452 42.9293L97.0088 43.818L99.6893 45.0446L105.051 45.3608L108.56 43.3265L110.332 38.6017L111.943 40.7494L116.668 45.0446H120.64L123.916 44.3508L126.117 42.9293L127.836 40.7494L128.265 41.6621L129.219 43.818L131.011 46.6599L134.161 49.8107L138.362 50.7992L138.98 58.2129V61.1784V64.7617L139.721 66.4915H142.749L145.282 67.9124L146.085 70.5072L143.923 73.9669L141.575 76.7471L137.559 77.9827L135.953 81.3806L134.779 87.744L136.571 87.1261L141.575 84.9639L145.282 81.3806L147.259 79.2801L149.236 75.9439L150.348 72.2989L151.178 67.9124L150.756 62.7229V59.6957L151.178 55.6004L151.967 55.0812L154.823 53.74L156.467 52.6583L157.895 51.2737L159.02 49.4132V47.0767V44.3508L158.328 41.0625L156.164 37.7309L154.52 35.4809L151.535 33.3608L148.393 31.7586L149.532 29.0161L149.996 26.9486L150.756 24.1639L151.178 21.548L150.461 19.6915L149.532 17.9764L148.646 17.0756L146.452 16.527L144.385 16.2317L142.191 16.527L139.532 17.0756L136.575 19.0077L135.602 20.268L135.201 17.9764L134.685 14.9402L133.367 12.9923L132.05 10.357L130.102 8.58104L128.154 7.89357L126.55 7.43526H124.487L122.482 7.89357L120.477 8.58104L118.988 10.357L117.04 14.9402V13.7371C116.62 12.7059 115.769 10.5862 115.722 10.357C115.665 10.0706 114.863 7.77899 114.691 7.43526C114.554 7.16027 113.03 5.37285 112.285 4.51352L109.019 2.85211L105.067 2.3938L102.66 2.85211L98.9364 4.22706L96.359 5.88846L94.2389 8.98208L92.9212 11.9039L94.2389 14.9402L91.5463 13.7371L87.8798 12.9923H85.9893L83.5831 13.336L82.1493 14.9402L80.9478 17.289L80.5251 20.268L82.1493 25.2748L85.182 28.1992L83.9926 28.8491L80.5251 31.8817L78.5732 34.9143V39.5717L80.5251 43.6875L83.9926 47.37L89.299 48.6697L93.3054 46.6118Z" fill="#55E8AB" stroke="black" stroke-width="0.456331"/>
</mask>
<g mask="url(#mask0_1082_122)">
<path d="M119.928 94.3302C157.467 94.3302 187.899 63.8983 187.899 26.3586C187.899 -11.1811 157.467 -41.613 119.928 -41.613C82.388 -41.613 51.9561 -11.1811 51.9561 26.3586C51.9561 63.8983 82.388 94.3302 119.928 94.3302Z" fill="#55E8AB"/>
</g>
<mask id="mask1_1082_122" style="mask-type:alpha" maskUnits="userSpaceOnUse" x="66" y="255" width="102" height="68">
<path d="M66.6514 321.362L86.1816 261.159V260.362L98.341 263.594L111.866 266.317C114.844 266.335 123.441 266.51 134.012 267.059C147.226 267.743 151.239 263.633 157.307 262.458C162.162 261.519 166.354 257.18 167.843 255.129V270.456L165.582 322.215H124.376V308.898L118.597 322.215L66.6514 321.362Z" fill="#D9D9D9"/>
</mask>
<g mask="url(#mask1_1082_122)">
<path d="M122.988 368.172C83.9988 368.172 52.3918 336.565 52.3918 297.576C52.3918 258.587 83.9988 226.98 122.988 226.98C161.977 226.98 193.584 258.587 193.584 297.576C193.584 336.565 161.977 368.172 122.988 368.172Z" fill="#D9D9D9"/>
</g>
<mask id="mask2_1082_122" style="mask-type:alpha" maskUnits="userSpaceOnUse" x="3" y="88" width="278" height="201">
<path d="M104.263 145.519L114.652 152.211L121.75 147.375L128.851 141.373L132.776 135.112L136.047 127.234L137.351 121.134L138.741 118.122L146.54 117.582L153.8 118.74L159.591 121.134L168.317 127.234L175.267 132.331L196.056 147.375L208 156.062L216.325 159.198L221.272 157.871L225.254 153.528L229.718 142.79L233.578 131.087L242.989 106.233L248.901 89.2209L252.52 91.272L256.502 94.288L262.052 96.943L269.894 98.7528L279.788 100.08L277.375 109.611L273.032 123.365L267.119 138.929L257.347 157.871L250.855 168.967L244.014 180.694L235.414 189.986L227.288 194.482L215.993 196.784L209.085 195.14L194.39 189.986L179.148 180.336L165.147 168.535C167.731 188.248 172.987 229.889 173.35 238.733C173.712 247.578 169.09 254.018 166.734 256.133L159.303 261.817L150.332 264.923L137.735 267.461H123.688L111.726 266.011L89.8504 261.817L84.2829 259.077L81.2784 254.393L78.9807 247.59L77.7277 236.36L72.9249 187.709L72.0289 179.374L39.1517 221.038L76.1373 268.364L60.9136 288.225C50.5871 277.794 26.8618 253.81 14.5723 241.326C2.28271 228.842 2.99454 215.955 4.88665 211.073L10.2377 200.624L14.5723 194.3L28.0786 175.948L63.7003 133.863L72.0201 127.546L82.1498 123.736L90.3024 123.021L94.3426 132.944L98.2661 140.097L104.263 145.519Z" fill="#D9D9D9" stroke="black" stroke-width="0.456331"/>
</mask>
<g mask="url(#mask2_1082_122)">
<path d="M128.044 402.748C15.7721 402.748 -75.2423 311.734 -75.2423 199.462C-75.2423 87.1899 15.7721 -3.82446 128.044 -3.82446C240.316 -3.82446 331.33 87.1899 331.33 199.462C331.33 311.734 240.316 402.748 128.044 402.748Z" fill="url(#paint0_linear_1082_122)"/>
</g>
<path d="M107.939 106.6C105.497 106.606 103.073 106.18 100.779 105.34C96.0256 103.579 89.6546 99.1361 86.333 87.9921C83.3546 77.9988 83.5178 64.9471 86.8176 49.1858C82.9788 48.5316 79.0038 44.2082 77.9639 39.3342C76.9565 34.5856 78.895 30.5294 83.3164 28.0052C81.7755 26.7731 80.6701 24.4834 80.1746 22.3571C79.3088 18.6172 80.0657 15.3024 82.211 13.4869C83.7901 12.1458 86.8285 11.0608 92.4697 13.0125C92.1866 11.2625 92.7201 9.27259 94.0433 7.32083C96.4938 3.70079 101.715 0.424199 106.959 1.1711C110.188 1.62907 114.512 3.74439 117.381 10.9845C119.559 7.46256 123.185 5.64716 126.986 6.28503C130.787 6.92289 135.486 10.3957 136.656 18.012C140.191 14.9698 146.044 14.0812 149.491 16.3383C151.669 17.7667 154.549 21.5066 149.959 30.6275C155.475 33.5116 161.111 40.5118 160.812 46.6398C160.664 49.6383 159.058 53.6781 152.344 56.1205C152.236 57.5139 151.945 58.8868 151.478 60.204C153.569 67.8802 152.529 83.3854 134.016 89.1862C128.086 100.009 117.741 106.6 107.939 106.6ZM88.4948 49.153C82.3581 78.1351 87.1497 98.5465 101.351 103.803C112.241 107.836 125.734 101.076 132.742 88.1448C134.503 84.8627 135.804 81.3532 136.608 77.7155L136.711 77.2356L137.185 77.1047C141.383 75.9435 144.133 73.9045 144.732 71.5111C144.898 70.8968 144.895 70.2492 144.724 69.6361C144.554 69.0231 144.221 68.4675 143.762 68.0275C143.239 67.5487 142.597 67.2213 141.902 67.0801C141.208 66.939 140.489 66.9894 139.821 67.2261L138.835 67.5258L137.746 51.3611C130.531 50.1344 128.588 44.7479 128.07 41.7222C125.097 44.9224 122.042 46.3781 118.982 46.051C115.051 45.6366 112.235 42.4145 110.667 40.0539C109.894 43.2923 107.945 44.8024 106.311 45.5057C102.848 46.9778 98.519 45.8438 95.677 43.8701C94.2779 48.1063 90.7436 48.7769 88.7724 49.1149L88.4948 49.153ZM138.089 78.5387C137.4 81.5006 136.394 84.3796 135.088 87.1254C149.693 81.7826 151.566 69.6466 150.286 62.3738C149.892 62.8753 149.397 63.2897 148.835 63.5908C148.273 63.892 147.655 64.0735 147.019 64.1238C145.925 64.1618 144.838 63.9378 143.848 63.4703C142.859 63.0028 141.995 62.3054 141.328 61.436C140.89 60.7307 140.712 59.8937 140.827 59.0709C140.941 58.2479 141.34 57.4913 141.955 56.9328C142.466 56.5076 144.373 55.2973 147.209 57.9524C147.305 58.0186 147.386 58.1046 147.446 58.2045C147.506 58.3044 147.544 58.4162 147.557 58.5321C147.57 58.6479 147.559 58.7651 147.523 58.8761C147.487 58.9871 147.429 59.0892 147.35 59.1755C147.272 59.2617 147.176 59.3304 147.069 59.3765C146.962 59.4226 146.846 59.4453 146.729 59.443C146.614 59.4408 146.499 59.4137 146.394 59.3634C146.289 59.3132 146.196 59.241 146.121 59.1518C144.863 57.9851 143.703 57.6252 143.017 58.1923C142.709 58.4974 142.513 58.8978 142.462 59.3285C142.411 59.7592 142.506 60.1947 142.734 60.5639C143.238 61.1777 143.876 61.6699 144.597 62.0039C145.318 62.3379 146.104 62.5053 146.899 62.4937C148.195 62.3847 149.197 61.5071 149.866 59.8824C150.387 58.4837 150.687 57.0121 150.754 55.5209L150.798 54.9757L151.309 54.8012C156.346 53.0948 158.998 50.3416 159.178 46.6234C159.456 41.0298 153.776 34.1877 148.511 31.8052L147.721 31.4454L148.129 30.6767C151.483 24.358 151.652 19.773 148.598 17.7721C145.391 15.6732 139.38 16.9925 136.678 20.3944L135.388 22.03L135.224 19.9529C134.62 12.0586 130.264 8.56395 126.714 7.95879C123.055 7.34273 119.706 9.42531 118.002 13.4106L117.142 15.3951L116.472 13.3397C114.44 7.08097 111.075 3.45002 106.741 2.83941C102.157 2.18519 97.5716 5.09103 95.405 8.29127C93.9671 10.4121 93.6513 12.5056 94.5279 14.043L95.7208 16.1257L93.5097 15.2042C88.7942 13.247 85.2548 13.0998 83.2783 14.779C81.3017 16.4581 81.2146 19.6203 81.7754 22.0355C82.4016 24.7178 83.8773 26.9422 85.2984 27.2802L87.4764 27.8254C87.3118 26.6982 87.3713 25.5494 87.6517 24.4453C87.932 23.3413 88.4276 22.3037 89.11 21.3921C90.9068 19.146 93.9017 18.3282 97.5443 19.0915C101.939 20.0073 104.569 22.9077 104.955 27.2256C105.5 33.0264 101.737 39.874 96.7439 42.6653C99.1834 44.3009 102.799 45.2386 105.663 44.0174C107.939 43.0469 109.225 40.8171 109.366 37.5623L109.507 34.4166L110.912 37.2298C112.546 40.501 115.552 44.0774 119.162 44.4645C122.036 44.7698 125.015 43.0524 127.993 39.3615C131.13 31.4072 129.039 24.516 125.565 21.2013C123.006 18.7643 119.804 18.1591 116.793 19.5657C114.071 20.8142 112.496 22.8369 112.339 25.3283C112.279 26.5674 112.542 27.8007 113.1 28.908C113.658 30.0154 114.493 30.9591 115.525 31.6472C116.245 32.1216 117.085 32.3821 117.948 32.3985C118.81 32.4149 119.659 32.1865 120.397 31.7398C121.704 30.9983 121.977 29.0138 121.34 27.8254C120.703 26.6368 119.407 26.9477 118.464 27.4438C118.273 27.545 118.048 27.5655 117.841 27.5011C117.634 27.4367 117.46 27.2926 117.359 27.1002C117.259 26.9079 117.238 26.6833 117.302 26.4757C117.366 26.2682 117.511 26.0947 117.702 25.9935C120.278 24.636 122.009 25.6447 122.772 27.0348C123.801 28.9157 123.354 31.9416 121.209 33.1628C120.215 33.7499 119.078 34.049 117.924 34.0268C116.77 34.0047 115.646 33.6622 114.675 33.0374C113.391 32.1958 112.35 31.0309 111.657 29.6597C110.964 28.2886 110.644 26.7592 110.727 25.2248C110.923 22.1282 112.84 19.593 116.123 18.0828C119.728 16.4472 123.681 17.156 126.703 20.0401C130.574 23.7255 132.943 31.3036 129.54 39.9504C129.578 41.3733 130.166 48.7878 138.606 49.8945C139.973 49.9102 141.326 49.6226 142.569 49.0522C143.812 48.4819 144.913 47.6432 145.794 46.5961C147.27 44.6988 147.591 42.311 146.747 39.5087C145.451 35.1962 142.554 34.2639 140.272 34.8364C138.285 35.3325 136.461 37.0717 136.885 39.1162C136.979 39.6595 137.209 40.1704 137.552 40.6012C137.896 41.032 138.343 41.3688 138.851 41.5805C139.87 41.9566 141.002 41.6948 142.119 40.8116C142.288 40.6771 142.506 40.6161 142.721 40.6416C142.936 40.6673 143.133 40.7773 143.267 40.9479C143.402 41.1186 143.462 41.3357 143.437 41.5514C143.412 41.7671 143.301 41.9639 143.131 42.0983C141.563 43.3304 139.864 43.6958 138.285 43.1179C137.514 42.809 136.835 42.3093 136.31 41.6656C135.786 41.0219 135.432 40.2555 135.285 39.4379C134.68 36.4339 137.146 33.9315 139.874 33.25C142.75 32.5303 146.687 33.6151 148.315 39.0398C149.561 43.2105 148.315 46.0019 147.079 47.6102C146.133 48.75 144.966 49.6848 143.648 50.3579C142.329 51.0309 140.888 51.4279 139.412 51.5246L140.375 65.5141C141.192 65.3862 142.026 65.4459 142.816 65.6887C143.605 65.9315 144.329 66.3509 144.933 66.9152C145.602 67.5542 146.088 68.3613 146.339 69.2523C146.59 70.1432 146.597 71.0853 146.36 71.98C145.903 73.5883 144.263 76.7069 138.099 78.5387H138.089ZM87.4764 27.8362L85.4182 28.7576C79.0365 31.6089 79.0093 36.3903 79.5647 38.9798C80.5176 43.4613 84.3891 47.5503 87.7323 47.6211C87.9502 47.5721 88.1898 47.5285 88.4512 47.4794C90.5856 47.0923 93.5151 46.558 94.37 42.2946C94.3874 42.2193 94.4129 42.1461 94.4458 42.0765C94.4741 42.0225 94.5069 41.9714 94.5444 41.9238C94.59 41.868 94.6429 41.8185 94.7022 41.7766C94.7588 41.7386 94.8191 41.7058 94.882 41.6785C99.7821 39.6831 103.806 32.8411 103.31 27.3129C103.088 24.7996 101.847 21.6048 97.1902 20.629C94.1413 19.9911 91.7781 20.5907 90.3678 22.3571C88.7016 24.4452 88.7615 27.6018 89.6872 29.6353C90.0901 30.5239 91.0213 32.0178 92.7583 32.0941C94.3207 32.165 95.4369 31.6361 95.9599 30.6112C96.1634 30.2138 96.2519 29.7673 96.2154 29.3222C96.1789 28.8771 96.0192 28.4512 95.7527 28.0925C95.165 27.3565 94.163 27.1221 92.9215 27.4328C92.816 27.4634 92.7053 27.4723 92.5963 27.459C92.4871 27.4456 92.3817 27.4104 92.2865 27.3554C92.1913 27.3003 92.1083 27.2268 92.0422 27.1388C91.9761 27.0509 91.9285 26.9504 91.9021 26.8436C91.8756 26.7368 91.871 26.6256 91.8885 26.517C91.906 26.4083 91.9452 26.3043 92.0038 26.2113C92.0624 26.1182 92.1391 26.0378 92.2295 25.9751C92.3198 25.9124 92.4219 25.8685 92.5296 25.8463C94.4029 25.3774 96.042 25.8463 97.0268 27.0784C97.4877 27.6817 97.7688 28.4032 97.8372 29.1596C97.9057 29.9159 97.7587 30.6764 97.4138 31.3527C96.5969 32.9555 94.8766 33.8169 92.6929 33.7297C90.7816 33.6479 89.1482 32.4048 88.2007 30.3168C87.8471 29.5335 87.6068 28.7038 87.4874 27.8527L87.4764 27.8362ZM109.328 95.9409C107.156 95.9299 105.033 95.3084 103.196 94.1475C103.012 94.0334 102.88 93.8499 102.829 93.6382C102.779 93.4265 102.816 93.2038 102.93 93.0185C103.044 92.8332 103.227 92.7018 103.438 92.6516C103.649 92.6014 103.872 92.637 104.057 92.752C105.915 93.9038 108.093 94.4286 110.27 94.2488C112.448 94.069 114.512 93.1946 116.156 91.7536C116.233 91.6705 116.327 91.6048 116.431 91.5592C116.535 91.5144 116.647 91.4916 116.76 91.4925C116.874 91.4935 116.986 91.5181 117.09 91.5646C117.193 91.6112 117.285 91.6787 117.362 91.7627C117.438 91.8476 117.495 91.9461 117.531 92.0547C117.565 92.1624 117.578 92.2765 117.567 92.3897C117.556 92.5019 117.522 92.6115 117.467 92.7109C117.411 92.8095 117.335 92.8962 117.245 92.9647C115.038 94.8584 112.234 95.9126 109.328 95.9409Z" fill="black"/>
<path d="M106.256 84.3776C103.681 84.3776 100.409 82.971 98.8292 80.9647C96.8907 78.5004 98.6932 76.1343 100.593 73.6319C102.058 71.7129 103.708 69.543 104.166 66.9043C104.715 64.2795 104.715 61.5693 104.166 58.9446C104.15 58.8729 104.148 58.7989 104.161 58.7268C104.174 58.6546 104.201 58.5857 104.24 58.5239C104.28 58.4621 104.331 58.4088 104.391 58.3668C104.451 58.3249 104.519 58.2952 104.591 58.2794C104.662 58.2636 104.736 58.2622 104.808 58.275C104.88 58.2879 104.949 58.3148 105.011 58.3543C105.072 58.3939 105.126 58.4451 105.168 58.5051C105.21 58.5653 105.239 58.6331 105.254 58.7047C105.829 61.4719 105.829 64.3279 105.254 67.0952C104.749 69.9901 103.011 72.2744 101.443 74.2916C99.4069 76.9739 98.3181 78.5713 99.6679 80.2887C101.373 82.4694 105.483 83.8922 107.666 83.0635C108.663 82.6928 109.115 81.9024 109.05 80.6539C109.046 80.5823 109.056 80.5106 109.081 80.443C109.105 80.3755 109.142 80.3133 109.19 80.2602C109.238 80.207 109.296 80.1638 109.36 80.1332C109.425 80.1025 109.495 80.0849 109.568 80.0814C109.641 80.0777 109.714 80.0891 109.784 80.1148C109.853 80.1406 109.916 80.1802 109.97 80.2312C110.024 80.2821 110.066 80.3435 110.095 80.4115C110.124 80.4795 110.139 80.5526 110.139 80.6267C110.226 82.3331 109.485 83.5707 108.048 84.1158C107.47 84.3068 106.864 84.3953 106.256 84.3776Z" fill="black"/>
<path d="M118.88 68.093C120.687 68.093 122.153 66.6285 122.153 64.8219C122.153 63.0153 120.687 61.5508 118.88 61.5508C117.073 61.5508 115.607 63.0153 115.607 64.8219C115.607 66.6285 117.073 68.093 118.88 68.093Z" fill="black"/>
<path d="M118.88 68.093C120.687 68.093 122.153 66.6285 122.153 64.8219C122.153 63.0153 120.687 61.5508 118.88 61.5508C117.073 61.5508 115.607 63.0153 115.607 64.8219C115.607 66.6285 117.073 68.093 118.88 68.093Z" fill="black"/>
<path d="M118.88 68.093C120.687 68.093 122.153 66.6285 122.153 64.8219C122.153 63.0153 120.687 61.5508 118.88 61.5508C117.073 61.5508 115.607 63.0153 115.607 64.8219C115.607 66.6285 117.073 68.093 118.88 68.093Z" fill="black"/>
<path d="M95.4491 62.6414C97.2571 62.6414 98.7219 61.1769 98.7219 59.3703C98.7219 57.5637 97.2571 56.0991 95.4491 56.0991C93.6419 56.0991 92.1768 57.5637 92.1768 59.3703C92.1768 61.1769 93.6419 62.6414 95.4491 62.6414Z" fill="black"/>
<path d="M95.4491 62.6414C97.2571 62.6414 98.7219 61.1769 98.7219 59.3703C98.7219 57.5637 97.2571 56.0991 95.4491 56.0991C93.6419 56.0991 92.1768 57.5637 92.1768 59.3703C92.1768 61.1769 93.6419 62.6414 95.4491 62.6414Z" fill="black"/>
<path d="M95.4491 62.6414C97.2571 62.6414 98.7219 61.1769 98.7219 59.3703C98.7219 57.5637 97.2571 56.0991 95.4491 56.0991C93.6419 56.0991 92.1768 57.5637 92.1768 59.3703C92.1768 61.1769 93.6419 62.6414 95.4491 62.6414Z" fill="black"/>
<path d="M114.639 179.115C114.423 179.115 114.215 179.029 114.062 178.876C113.908 178.722 113.823 178.514 113.823 178.297V152.641C111.672 151.463 102.388 146.213 97.9012 140.647C93.1694 134.791 89.8697 123.921 89.7335 123.462L89.4395 122.465L96.1699 122.083C96.5176 120.993 97.3244 118.343 97.7488 116.501C98.8376 111.811 99.23 104.173 99.23 104.098C99.241 103.88 99.3368 103.677 99.4983 103.531C99.659 103.386 99.8707 103.309 100.087 103.32C100.304 103.331 100.508 103.428 100.653 103.589C100.799 103.75 100.874 103.963 100.864 104.179C100.864 104.501 100.438 112.041 99.3386 116.86C98.7938 119.319 97.6073 122.966 97.558 123.119L97.3837 123.664L91.6175 123.991C92.5486 126.821 95.4288 135.02 99.1807 139.628C103.417 144.866 112.548 150.057 114.607 151.191C116.644 149.86 125.911 143.623 130.028 137.763C133.79 132.409 136.469 122.77 137.34 119.374L130.621 120.665L128.367 95.222C128.358 95.1143 128.369 95.0066 128.401 94.9035C128.434 94.8003 128.486 94.7054 128.556 94.6224C128.625 94.5402 128.71 94.4718 128.806 94.4225C128.901 94.3723 129.006 94.3422 129.112 94.3331C129.22 94.3239 129.328 94.3358 129.431 94.3677C129.533 94.4006 129.628 94.4535 129.711 94.5229C129.793 94.5923 129.861 94.6771 129.911 94.772C129.96 94.8679 129.991 94.9728 130 95.0796L132.102 118.719L139.519 117.286L139.24 118.507C139.121 119.052 136.158 131.896 131.378 138.678C127.021 144.899 117.525 151.218 115.473 152.564V178.292C115.474 178.401 115.452 178.51 115.411 178.61C115.369 178.711 115.307 178.803 115.23 178.879C115.152 178.956 115.059 179.016 114.958 179.057C114.857 179.097 114.749 179.117 114.639 179.115Z" fill="black"/>
<path d="M123.386 307.904L118.028 321.387H119.787L123.185 312.839L122.918 321.387H124.551L124.96 308.237L123.386 307.904ZM317.347 61.4797C317.39 59.6806 316.938 58.4103 316.007 57.7016C315.588 57.4142 315.115 57.2174 314.616 57.1236C314.117 57.0296 313.604 57.0409 313.111 57.1564C313.654 54.6758 312.484 53.6672 311.875 53.3401C310.372 52.4787 307.976 53.0021 306.195 54.4305C306.073 53.9023 305.83 53.4095 305.486 52.9906C305.142 52.5717 304.707 52.2378 304.213 52.0152C303.363 51.6826 301.594 51.4974 299.312 53.9888L299.258 54.0487C296.132 58.2194 288.809 64.4073 283.309 68.6488C284.562 66.0279 285.467 63.2552 286.004 60.4003V60.3402C286.364 56.2731 285.814 54.1579 284.273 53.6889C282.432 53.1438 280.288 55.6136 279.296 57.4181C278.937 58.0777 277.336 59.8877 275.484 61.9758C270.66 67.4277 262.683 76.3796 259.868 83.6087C257.796 83.2486 255.692 83.0971 253.589 83.1563C252.218 83.1563 250.241 83.6634 249.185 85.0863C248.833 85.5859 248.6 86.1601 248.505 86.7643C248.411 87.3686 248.457 87.9866 248.64 88.57L227.486 145.537C225.406 150.89 223.25 156.44 218.98 157.667C215.713 158.621 211.303 157.035 205.559 152.799L163.364 122.579C159.395 119.368 148.848 115.824 139.51 117.323L139.095 117.394C138.818 117.443 138.55 117.493 138.273 117.552C138.061 117.597 137.875 117.724 137.756 117.906C137.638 118.089 137.597 118.31 137.641 118.523C137.686 118.735 137.814 118.921 137.995 119.04C138.177 119.158 138.399 119.2 138.611 119.155C138.779 119.123 138.943 119.084 139.112 119.057C147.824 117.421 158.436 120.692 162.385 123.882L204.605 154.123C210.78 158.67 215.632 160.349 219.438 159.237C224.486 157.777 226.789 151.855 229.022 146.12L249.844 90.0474C252.876 92.7704 256.322 94.9918 260.053 96.6282H260.086C265.257 98.8916 270.787 100.224 276.422 100.564H276.459C277.107 100.596 277.722 100.613 278.311 100.607C276.084 123.457 253.71 163.587 242.024 181.841C225.286 203.501 204.017 193.252 194.935 188.879C193.732 188.296 192.757 187.838 192.038 187.548C187.182 185.646 173.133 174.153 166.387 168.341L164.823 166.995L172.397 239.069C172.942 244.908 170.253 249.973 167.9 253.216C166.495 255.187 164.829 256.954 162.945 258.472C143.565 271.224 107.345 265.755 90.8896 261.078C89.3426 260.664 87.8549 260.055 86.4629 259.263H86.4302C81.2192 256.193 79.8253 250.834 78.6708 240.001L72.4743 177.474L38.3987 221.007L75.4636 268.16L62.1884 285.906L61.1321 287.323L12.5181 238.431C-0.332351 223.787 5.67907 209.029 10.4109 201.533L10.4599 201.44C16.8143 187.81 50.8681 149.228 63.4681 135.473C73.1876 124.394 86.7078 123.952 89.9259 124.024C90.1764 124.024 90.3615 124.024 90.4704 124.024C90.687 124.035 90.8994 123.96 91.0608 123.815C91.2221 123.669 91.3192 123.466 91.3307 123.25C91.3423 123.032 91.2673 122.82 91.1223 122.658C90.9773 122.497 90.7742 122.4 90.5576 122.388H90.1056C82.2483 122.121 70.4269 125.087 62.2647 134.382C49.6429 148.137 15.5129 186.829 9.01144 200.677C4.04549 208.577 -2.22727 224.07 11.3365 239.527L61.3173 289.798L63.2666 287.187H67.2143C65.6734 292.35 60.3698 311.415 64.4373 315.755C64.9403 316.302 65.6302 316.641 66.3703 316.704L64.96 321.348H66.6698L68.2762 316.049L81.2791 276.84C81.2814 276.829 81.2814 276.818 81.2791 276.807L86.4847 261.127C87.7471 261.756 89.0673 262.263 90.4269 262.638C107.138 267.386 143.991 272.903 163.854 259.807L163.903 259.77C165.246 258.7 166.482 257.505 167.595 256.199L163.963 321.354H165.597L169.354 253.958C171.842 250.486 174.603 245.109 174.02 238.873L166.877 170.877C174.119 177.021 186.74 187.194 191.439 189.031C192.125 189.299 193.1 189.768 194.227 190.313C198.883 192.553 206.675 196.31 215.588 196.719C226.479 197.221 235.812 192.532 243.359 182.772L243.397 182.713C255.311 164.089 278.3 122.786 280.037 99.7677L280.086 99.0595C285.711 96.6282 297.151 91.4269 303.674 86.7436C310.546 81.7987 317.232 71.4239 317.531 70.9331C319.655 67.2041 319.143 63.1261 317.347 61.4742V61.4797ZM66.8712 315.117C66.6436 315.152 66.4109 315.131 66.1934 315.055C65.976 314.979 65.7806 314.85 65.6243 314.681C63.0488 311.928 65.4174 298.5 69.0874 286.653L69.4196 285.596H64.4809L72.4145 274.964C72.4542 274.97 72.4945 274.97 72.5342 274.964C73.9717 274.719 77.1897 274.828 79.5638 276.856L66.8712 315.117ZM80.1137 275.199C78.2401 273.895 76.0081 273.207 73.7267 273.23L77.5382 268.138L40.5115 221.007L71.2872 181.694L77.0809 240.17C78.11 249.842 79.2589 256.526 85.0852 260.342L80.1137 275.199ZM258.452 93.9997C255.447 92.4482 252.68 90.4727 250.235 88.1339C250.116 87.7852 250.077 87.4137 250.123 87.0479C250.17 86.682 250.299 86.3316 250.503 86.0241C251.151 85.1517 252.561 84.7537 253.595 84.7537C255.503 84.6955 257.414 84.8252 259.296 85.1408C258.414 87.6649 257.668 91.2795 258.425 93.9943L258.452 93.9997ZM316.127 70.1427C316.057 70.2463 309.331 80.692 302.71 85.4516C294.619 91.2687 278.208 98.1377 276.345 98.9016C271.011 98.5566 265.778 97.2917 260.875 95.1615C258.898 93.1172 259.95 87.8777 261.158 84.8028C261.162 84.7829 261.162 84.7627 261.158 84.7428C263.636 77.7153 271.803 68.5234 276.688 63.0279C278.866 60.6019 280.271 58.9936 280.723 58.1704C281.703 56.3822 283.227 55.0465 283.789 55.2209C283.789 55.2209 284.769 55.5753 284.371 60.1277C284.001 62.3357 282.601 67.4441 279.89 71.2004L281.033 72.3398C286.478 68.409 296.6 60.2421 300.521 55.0356C301.714 53.7544 302.841 53.1983 303.62 53.509C304.279 53.7652 304.709 54.6594 304.79 55.826L292.222 68.9106C292.08 69.068 292.004 69.2751 292.012 69.4877C292.019 69.7002 292.108 69.9015 292.262 70.0491C292.414 70.1966 292.619 70.2786 292.831 70.2777C293.044 70.2769 293.247 70.1933 293.399 70.0446L306.201 56.6984L306.238 56.6547L306.277 56.6058C307.567 54.8993 310.028 54.136 311.074 54.7302C312.033 55.2754 311.526 56.9819 311.194 57.8379L294.695 73.8009C294.614 73.8744 294.549 73.9635 294.502 74.0628C294.457 74.1621 294.431 74.2696 294.427 74.3791C294.424 74.4884 294.442 74.5974 294.481 74.6996C294.521 74.8017 294.58 74.8951 294.656 74.9738C294.731 75.0527 294.822 75.1155 294.923 75.1585C295.023 75.2016 295.131 75.2239 295.241 75.2244C295.35 75.2248 295.458 75.2033 295.559 75.161C295.66 75.1188 295.751 75.0568 295.827 74.9785L312.316 59.0318C313.23 58.7319 314.385 58.4866 315.038 58.9936C315.692 59.5007 315.762 60.5529 315.734 61.4961L300.439 76.2542C300.291 76.4062 300.207 76.6102 300.206 76.8229C300.205 77.0356 300.288 77.2403 300.435 77.3934C300.582 77.5466 300.783 77.6364 300.996 77.6435C301.208 77.6507 301.415 77.5747 301.572 77.4319L316.541 62.9844C317.478 64.2656 317.761 67.2259 316.099 70.1372L316.127 70.1427Z" fill="black"/>
</g>
<defs>
<linearGradient id="paint0_linear_1082_122" x1="79.9467" y1="115.822" x2="183.013" y2="271.719" gradientUnits="userSpaceOnUse">
<stop stop-color="#D9D9D9"/>
<stop offset="1" stop-color="#D9D9D9" stop-opacity="0"/>
</linearGradient>
<clipPath id="clip0_1082_122">
<rect width="322.169" height="322.169" fill="white" transform="translate(0.169922 0.154541)"/>
</clipPath>
</defs>
</svg>
