<svg width="323" height="323" viewBox="0 0 323 323" fill="none" xmlns="http://www.w3.org/2000/svg">
<g clip-path="url(#clip0_1082_106)">
<path d="M110.002 106.057C107.553 106.063 105.122 105.636 102.821 104.794C98.0543 103.028 91.6651 98.5718 88.3341 87.3966C85.3472 77.3749 85.511 64.2861 88.8201 48.4799C84.9704 47.8238 80.9841 43.4882 79.9411 38.6004C78.931 33.8383 80.875 29.7705 85.3089 27.2392C83.7636 26.0035 82.6551 23.7074 82.1581 21.5751C81.2899 17.8245 82.049 14.5004 84.2004 12.6797C85.784 11.3347 88.8311 10.2466 94.4884 12.204C94.2047 10.449 94.7392 8.45339 96.0663 6.49607C98.5238 2.86575 103.76 -0.420151 109.019 0.328877C112.257 0.788135 116.593 2.90947 119.47 10.1701C121.655 6.63821 125.291 4.81765 129.102 5.45733C132.914 6.09701 137.627 9.57976 138.8 17.2177C142.344 14.1668 148.215 13.2757 151.672 15.5391C153.855 16.9715 156.744 20.7222 152.141 29.869C157.673 32.7612 163.325 39.7814 163.025 45.9267C162.876 48.9338 161.265 52.985 154.533 55.4344C154.425 56.8317 154.133 58.2086 153.664 59.5295C155.761 67.2275 154.719 82.7768 136.153 88.594C130.206 99.4468 119.831 106.057 110.002 106.057ZM90.502 48.4471C84.3479 77.5116 89.1532 97.9815 103.395 103.252C114.316 107.298 127.847 100.519 134.875 87.5496C136.641 84.2583 137.946 80.7388 138.752 77.0906L138.855 76.6095L139.33 76.4783C143.541 75.3137 146.298 73.2689 146.899 70.8688C147.065 70.2527 147.062 69.6031 146.891 68.9884C146.72 68.3737 146.387 67.8165 145.927 67.3751C145.402 66.8951 144.758 66.5668 144.061 66.4252C143.365 66.2836 142.644 66.3342 141.974 66.5714L140.985 66.8721L139.893 50.6614C132.657 49.4312 130.708 44.0296 130.19 40.9951C127.208 44.2045 124.145 45.6642 121.076 45.3362C117.134 44.9207 114.31 41.6894 112.738 39.3221C111.962 42.5697 110.007 44.0842 108.369 44.7895C104.896 46.2656 100.555 45.1284 97.7047 43.1493C96.3007 47.3974 92.7572 48.07 90.7805 48.409L90.502 48.4471ZM140.237 77.9162C139.546 80.8867 138.538 83.7737 137.228 86.5273C151.874 81.1693 153.752 68.9989 152.469 61.7054C152.073 62.2084 151.577 62.624 151.014 62.926C150.45 63.228 149.83 63.41 149.192 63.4604C148.096 63.4986 147.006 63.2739 146.013 62.8051C145.021 62.3362 144.154 61.6369 143.486 60.7651C143.046 60.0578 142.868 59.2184 142.983 58.3931C143.098 57.5679 143.498 56.8092 144.114 56.249C144.627 55.8226 146.539 54.6089 149.384 57.2715C149.48 57.3379 149.56 57.424 149.621 57.5243C149.681 57.6246 149.719 57.7366 149.732 57.8528C149.745 57.969 149.734 58.0866 149.697 58.1979C149.662 58.3092 149.603 58.4115 149.525 58.4981C149.446 58.5846 149.35 58.6533 149.243 58.6996C149.136 58.7458 149.019 58.7686 148.902 58.7663C148.786 58.7641 148.671 58.7369 148.565 58.6865C148.46 58.6361 148.367 58.5638 148.292 58.4743C147.03 57.3042 145.867 56.9434 145.179 57.512C144.87 57.818 144.674 58.2197 144.622 58.6516C144.571 59.0835 144.666 59.5201 144.895 59.8904C145.401 60.506 146.04 60.9995 146.763 61.3345C147.486 61.6695 148.275 61.8374 149.072 61.8257C150.372 61.7164 151.377 60.8362 152.048 59.2069C152.57 57.8043 152.871 56.3286 152.938 54.833L152.982 54.2864L153.495 54.1114C158.546 52.4 161.206 49.6391 161.386 45.9103C161.664 40.3008 155.969 33.4393 150.689 31.0501L149.897 30.6891L150.306 29.9183C153.67 23.5816 153.839 18.9836 150.776 16.9771C147.559 14.8721 141.532 16.1951 138.822 19.6068L137.528 21.247L137.364 19.164C136.759 11.2473 132.39 7.74272 128.83 7.13584C125.16 6.51804 121.802 8.60656 120.093 12.6032L119.23 14.5933L118.559 12.5321C116.521 6.25553 113.147 2.61427 108.8 2.00192C104.203 1.34584 99.6047 4.25994 97.431 7.46928C95.9895 9.59605 95.6728 11.6956 96.5523 13.2374L97.7486 15.3259L95.5309 14.4019C90.8023 12.4391 87.2529 12.2915 85.2707 13.9754C83.2885 15.6593 83.2011 18.8304 83.7636 21.2525C84.3915 23.9424 85.8713 26.1731 87.2966 26.5121L89.4808 27.0588C89.3156 25.9285 89.3754 24.7765 89.6565 23.6693C89.9376 22.5621 90.4347 21.5215 91.1189 20.6074C92.921 18.3548 95.9245 17.5347 99.5773 18.3001C103.984 19.2187 106.622 22.1273 107.009 26.4574C107.556 32.2747 103.782 39.1417 98.7746 41.941C101.221 43.5812 104.847 44.5216 107.719 43.2969C110.002 42.3237 111.291 40.0875 111.433 36.8235L111.574 33.6688L112.983 36.4901C114.621 39.7704 117.635 43.357 121.256 43.7453C124.139 44.0514 127.126 42.3291 130.113 38.6277C133.259 30.6508 131.162 23.7401 127.677 20.4159C125.111 17.972 121.9 17.3652 118.881 18.7758C116.151 20.0278 114.572 22.0562 114.414 24.5548C114.354 25.7973 114.617 27.0341 115.177 28.1446C115.737 29.2551 116.574 30.2015 117.609 30.8915C118.331 31.3674 119.174 31.6285 120.039 31.645C120.904 31.6615 121.755 31.4325 122.495 30.9844C123.806 30.2408 124.08 28.2508 123.441 27.0588C122.802 25.867 121.502 26.1786 120.557 26.6762C120.365 26.7777 120.139 26.7983 119.932 26.7337C119.724 26.6691 119.55 26.5245 119.448 26.3317C119.347 26.1388 119.327 25.9135 119.391 25.7054C119.456 25.4972 119.6 25.3232 119.792 25.2217C122.375 23.8604 124.112 24.8719 124.877 26.2661C125.908 28.1524 125.461 31.1867 123.309 32.4114C122.312 33.0002 121.172 33.3002 120.015 33.278C118.858 33.2557 117.729 32.9122 116.757 32.2857C115.469 31.4417 114.425 30.2736 113.73 28.8985C113.035 27.5234 112.714 25.9897 112.797 24.4509C112.994 21.3454 114.916 18.8031 118.209 17.2887C121.824 15.6484 125.788 16.3592 128.819 19.2514C132.701 22.9474 135.076 30.547 131.664 39.2183C131.702 40.6452 132.292 48.0808 140.755 49.1907C142.127 49.2065 143.484 48.9179 144.73 48.3461C145.976 47.7741 147.081 46.933 147.964 45.883C149.444 43.9803 149.766 41.5856 148.92 38.7754C147.62 34.4507 144.715 33.5158 142.427 34.0898C140.433 34.5873 138.605 36.3315 139.03 38.3817C139.124 38.9267 139.354 39.4389 139.698 39.871C140.043 40.303 140.492 40.6408 141.002 40.853C142.022 41.2303 143.158 40.9678 144.278 40.082C144.449 39.9472 144.666 39.8859 144.882 39.9116C145.098 39.9372 145.295 40.0476 145.43 40.2187C145.564 40.3898 145.626 40.6075 145.6 40.8239C145.574 41.0403 145.464 41.2375 145.293 41.3724C143.721 42.608 142.017 42.9744 140.433 42.3948C139.661 42.0851 138.98 41.5839 138.454 40.9384C137.927 40.2929 137.573 39.5242 137.425 38.7043C136.819 35.6919 139.292 33.1822 142.028 32.4988C144.912 31.7771 148.859 32.8651 150.492 38.3051C151.742 42.4876 150.492 45.287 149.253 46.8999C148.304 48.0429 147.134 48.9804 145.812 49.6554C144.49 50.3303 143.045 50.7284 141.564 50.8254L142.53 64.8546C143.349 64.7264 144.186 64.7863 144.978 65.0298C145.769 65.2733 146.495 65.6938 147.101 66.2598C147.772 66.9006 148.259 67.7099 148.51 68.6034C148.762 69.497 148.769 70.4417 148.531 71.339C148.073 72.9519 146.429 76.0792 140.247 77.9162H140.237ZM89.4808 27.0698L87.4166 27.9938C81.0168 30.8532 80.9896 35.648 81.5466 38.2451C82.5021 42.7392 86.3846 46.8398 89.7375 46.9109C89.9558 46.8616 90.1962 46.8179 90.4582 46.7687C92.5988 46.3806 95.5364 45.8447 96.394 41.5693C96.4114 41.4938 96.437 41.4203 96.47 41.3505C96.4983 41.2963 96.5304 41.245 96.5688 41.1974C96.6146 41.1414 96.6677 41.0917 96.7272 41.0498C96.7839 41.0116 96.8443 40.9787 96.9075 40.9514C101.821 38.9504 105.857 32.0889 105.36 26.545C105.137 24.0245 103.892 20.8206 99.2221 19.842C96.1643 19.2023 93.7947 19.8037 92.3803 21.5751C90.7095 23.6691 90.7695 26.8346 91.6978 28.874C92.1019 29.7651 93.0358 31.2631 94.7777 31.3397C96.3446 31.4108 97.4639 30.8805 97.9884 29.8526C98.1925 29.4541 98.2813 29.0064 98.2447 28.56C98.208 28.1136 98.0479 27.6865 97.7806 27.3267C97.1912 26.5887 96.1862 26.3536 94.9415 26.6653C94.8353 26.6958 94.7246 26.7047 94.6148 26.6914C94.5058 26.6781 94.3997 26.6428 94.3045 26.5876C94.2093 26.5324 94.126 26.4586 94.0592 26.3704C93.9933 26.2821 93.9457 26.1815 93.9192 26.0743C93.8926 25.9672 93.888 25.8557 93.9054 25.7467C93.9228 25.6378 93.9622 25.5336 94.0208 25.4401C94.0793 25.3468 94.1571 25.2662 94.2477 25.2033C94.3383 25.1405 94.4399 25.0965 94.5479 25.0741C96.427 24.6039 98.0708 25.0742 99.0583 26.3098C99.5205 26.9148 99.8024 27.6384 99.8711 28.3968C99.9397 29.1554 99.7923 29.918 99.4464 30.5962C98.6272 32.2037 96.902 33.0674 94.7118 32.9799C92.7954 32.8979 91.1572 31.6514 90.2071 29.5574C89.8524 28.7719 89.6115 27.9399 89.4917 27.0862L89.4808 27.0698ZM111.394 95.3685C109.217 95.3566 107.086 94.7333 105.245 93.5691C105.061 93.4547 104.928 93.2707 104.877 93.0583C104.827 92.8469 104.864 92.6227 104.978 92.4378C105.093 92.252 105.276 92.1193 105.488 92.069C105.699 92.0186 105.923 92.0552 106.109 92.1696C107.971 93.3247 110.156 93.851 112.34 93.6707C114.523 93.4913 116.593 92.6145 118.242 91.1691C118.319 91.0856 118.413 91.0193 118.518 90.9741C118.622 90.9289 118.734 90.9061 118.848 90.907C118.961 90.9078 119.074 90.9323 119.178 90.979C119.282 91.0258 119.374 91.0935 119.451 91.1781C119.527 91.2626 119.585 91.3622 119.62 91.4704C119.655 91.5785 119.668 91.6928 119.657 91.8063C119.646 91.9198 119.612 92.0296 119.556 92.1285C119.501 92.2282 119.425 92.3142 119.334 92.3829C117.121 94.282 114.309 95.3392 111.394 95.3685Z" fill="black"/>
<path d="M108.32 83.7718C105.737 83.7718 102.455 82.3612 100.872 80.3492C98.9276 77.878 100.735 75.5052 102.641 72.9957C104.11 71.0712 105.765 68.895 106.223 66.2489C106.774 63.6167 106.774 60.8987 106.223 58.2665C106.208 58.1947 106.206 58.1205 106.218 58.0481C106.231 57.9757 106.259 57.9066 106.298 57.8447C106.337 57.7828 106.389 57.7292 106.449 57.6872C106.51 57.6451 106.577 57.6153 106.649 57.5995C106.721 57.5837 106.795 57.5822 106.867 57.595C106.94 57.6079 107.008 57.635 107.071 57.6747C107.132 57.7142 107.186 57.7656 107.228 57.8259C107.269 57.8862 107.299 57.9542 107.315 58.0259C107.891 60.8011 107.891 63.6652 107.315 66.4403C106.807 69.3434 105.065 71.6342 103.493 73.6572C101.451 76.3471 100.358 77.949 101.713 79.6712C103.421 81.8582 107.545 83.2851 109.734 82.4541C110.733 82.0823 111.186 81.2896 111.122 80.0375C111.118 79.9657 111.128 79.8938 111.152 79.8261C111.176 79.7584 111.213 79.696 111.262 79.6427C111.31 79.5894 111.368 79.5461 111.433 79.5154C111.498 79.4846 111.568 79.467 111.64 79.4635C111.714 79.4597 111.788 79.4712 111.857 79.497C111.927 79.5228 111.99 79.5624 112.044 79.6136C112.097 79.6647 112.14 79.7263 112.169 79.7944C112.199 79.8626 112.213 79.936 112.213 80.0102C112.3 81.7215 111.558 82.9626 110.117 83.5094C109.537 83.7008 108.929 83.7896 108.32 83.7718Z" fill="black"/>
<path d="M120.979 67.4407C122.792 67.4407 124.261 65.972 124.261 64.1602C124.261 62.3485 122.792 60.8799 120.979 60.8799C119.167 60.8799 117.697 62.3485 117.697 64.1602C117.697 65.972 119.167 67.4407 120.979 67.4407Z" fill="black"/>
<path d="M120.979 67.4407C122.792 67.4407 124.261 65.972 124.261 64.1602C124.261 62.3485 122.792 60.8799 120.979 60.8799C119.167 60.8799 117.697 62.3485 117.697 64.1602C117.697 65.972 119.167 67.4407 120.979 67.4407Z" fill="black"/>
<path d="M120.979 67.4407C122.792 67.4407 124.261 65.972 124.261 64.1602C124.261 62.3485 122.792 60.8799 120.979 60.8799C119.167 60.8799 117.697 62.3485 117.697 64.1602C117.697 65.972 119.167 67.4407 120.979 67.4407Z" fill="black"/>
<path d="M97.4764 61.9737C99.2886 61.9737 100.759 60.5049 100.759 58.6932C100.759 56.8815 99.2886 55.4128 97.4764 55.4128C95.6642 55.4128 94.1943 56.8815 94.1943 58.6932C94.1943 60.5049 95.6642 61.9737 97.4764 61.9737Z" fill="black"/>
<path d="M97.4764 61.9737C99.2886 61.9737 100.759 60.5049 100.759 58.6932C100.759 56.8815 99.2886 55.4128 97.4764 55.4128C95.6642 55.4128 94.1943 56.8815 94.1943 58.6932C94.1943 60.5049 95.6642 61.9737 97.4764 61.9737Z" fill="black"/>
<path d="M97.4764 61.9737C99.2886 61.9737 100.759 60.5049 100.759 58.6932C100.759 56.8815 99.2886 55.4128 97.4764 55.4128C95.6642 55.4128 94.1943 56.8815 94.1943 58.6932C94.1943 60.5049 95.6642 61.9737 97.4764 61.9737Z" fill="black"/>
<path d="M116.721 178.778C116.504 178.778 116.295 178.691 116.141 178.537C115.988 178.384 115.902 178.175 115.902 177.958V152.228C113.744 151.048 104.434 145.782 99.9351 140.2C95.1895 134.328 91.8807 123.426 91.7441 122.967L91.4492 121.966L98.1989 121.584C98.5476 120.49 99.3567 117.833 99.7822 115.985C100.874 111.284 101.268 103.624 101.268 103.547C101.279 103.329 101.375 103.125 101.536 102.98C101.698 102.833 101.91 102.757 102.127 102.768C102.345 102.779 102.549 102.875 102.695 103.037C102.841 103.198 102.916 103.412 102.906 103.629C102.906 103.952 102.479 111.513 101.377 116.346C100.83 118.812 99.6404 122.47 99.591 122.623L99.4161 123.169L93.6335 123.498C94.5671 126.335 97.4557 134.558 101.218 139.178C105.467 144.431 114.624 149.636 116.688 150.774C118.731 149.44 128.024 143.186 132.153 137.308C135.926 131.939 138.612 122.273 139.486 118.867L132.748 120.163L130.487 94.6461C130.478 94.5381 130.49 94.4302 130.522 94.3267C130.555 94.2242 130.607 94.1281 130.677 94.0457C130.746 93.9625 130.831 93.8947 130.927 93.8444C131.023 93.795 131.128 93.7648 131.235 93.7547C131.343 93.7455 131.451 93.7574 131.553 93.7904C131.657 93.8224 131.752 93.8755 131.835 93.9451C131.918 94.0146 131.985 94.0997 132.036 94.1958C132.085 94.2919 132.115 94.3963 132.125 94.5043L134.233 118.21L140.713 116.997L141.392 117.997C141.272 118.544 138.301 131.425 133.507 138.226C129.138 144.464 119.615 150.802 117.556 152.152V177.953C117.557 178.061 117.535 178.17 117.494 178.272C117.452 178.373 117.391 178.465 117.313 178.542C117.235 178.619 117.142 178.679 117.04 178.72C116.939 178.76 116.831 178.78 116.721 178.778Z" fill="black"/>
<path fill-rule="evenodd" clip-rule="evenodd" d="M92.2378 121.787C92.238 121.787 92.2382 121.787 92.2621 122.703L92.2862 123.618H92.2806H92.2613L92.1825 123.621C92.1125 123.623 92.0082 123.627 91.8729 123.632C91.6023 123.643 91.2079 123.662 90.7164 123.69C89.7331 123.749 88.3637 123.848 86.8212 124.017C83.7127 124.356 79.9889 124.965 77.2926 126.028C74.4462 127.15 71.1608 129.402 68.5448 131.42C67.2468 132.422 66.1316 133.352 65.3414 134.031C64.9465 134.37 64.6332 134.647 64.4193 134.837C64.3124 134.933 64.2304 135.007 64.1755 135.057L64.1397 135.09L18.3684 190.689C18.3678 190.69 18.3672 190.69 18.3665 190.691C9.80298 201.229 5.85981 208.85 5.09723 215.591C4.34228 222.264 6.68579 228.251 11.1875 235.597L62.6783 286.615L77.2745 268.173L38.5237 220.542L74.3164 175.205L79.3576 233.347L81.8992 251.27C82.4705 253.071 84.3729 256.406 88.1161 258.857C89.7855 259.95 91.8229 260.868 94.2776 261.398C99.49 262.524 114.333 265.46 129.858 265.523C137.621 265.555 145.514 264.867 152.441 262.898C159.371 260.927 165.262 257.695 169.124 252.691L169.234 252.55L169.388 252.46C169.433 252.433 169.572 252.326 169.788 252.06C169.994 251.807 170.234 251.456 170.492 251.001C171.009 250.093 171.574 248.814 172.068 247.184C173.054 243.929 173.744 239.311 173.206 233.535C172.329 224.118 168.159 186.256 166.183 168.493L168.002 168.29C169.977 186.044 174.15 223.928 175.029 233.366C175.589 239.376 174.876 244.231 173.82 247.715C173.292 249.455 172.676 250.863 172.083 251.906C171.788 252.427 171.491 252.866 171.207 253.215C170.983 253.492 170.739 253.745 170.48 253.931C166.294 259.282 160.039 262.64 152.942 264.659C145.789 266.692 137.709 267.386 129.851 267.354C114.134 267.291 99.1431 264.322 93.8914 263.188C91.677 262.71 89.7606 261.939 88.118 261.003L67.9238 321.366L66.1879 320.785L67.5464 316.724C67.1685 316.589 66.797 316.382 66.4476 316.089C65.7387 315.494 65.1823 314.594 64.8116 313.364C64.0791 310.931 64.0112 307.006 65.1375 300.841C66.2963 294.499 67.0948 290.904 67.646 288.763C67.89 287.814 68.0886 287.143 68.246 286.651H64.985L62.8436 289.357L9.74265 236.743L9.68509 236.649C5.07992 229.152 2.45027 222.704 3.27833 215.385C4.1019 208.106 8.32695 200.142 16.9478 189.534L16.9515 189.53L62.8081 133.827L62.8547 133.784L63.4745 134.457C62.8547 133.784 62.8545 133.784 62.8547 133.784L62.8566 133.782L62.8613 133.778L62.8788 133.762L62.9456 133.701C63.004 133.648 63.0897 133.57 63.2005 133.471C63.4219 133.274 63.7439 132.99 64.1484 132.642C64.9568 131.948 66.0973 130.997 67.4265 129.972C70.0652 127.935 73.5209 125.547 76.6214 124.324C79.5579 123.168 83.4867 122.54 86.6225 122.197C88.2022 122.024 89.6029 121.922 90.6091 121.863C91.1125 121.834 91.5178 121.815 91.7981 121.803C91.9383 121.797 92.0473 121.794 92.1217 121.791L92.2071 121.788H92.2296L92.2378 121.787ZM66.4338 284.821H70.7721L70.3971 286.01C70.3539 286.148 70.3051 286.286 70.2481 286.447C70.0738 286.939 69.8228 287.65 69.4187 289.219C68.8828 291.301 68.0933 294.848 66.9382 301.171C65.8269 307.253 65.9597 310.828 66.5645 312.836C66.8625 313.825 67.259 314.381 67.6244 314.687C67.7871 314.824 67.9555 314.922 68.1274 314.987L80.9797 276.571C80.915 276.365 80.7541 276.133 80.427 275.879C80.0117 275.556 79.4105 275.263 78.6831 275.015C77.4192 274.583 75.9368 274.338 74.8121 274.234L66.4338 284.821ZM76.1437 272.552C77.1435 272.7 78.2578 272.935 79.2744 273.282C80.098 273.563 80.9114 273.936 81.5517 274.434C81.5895 274.464 81.627 274.494 81.664 274.525L86.5272 259.989C82.7443 257.304 80.76 253.808 80.128 251.74L80.1071 251.671L77.5383 233.555L72.8916 179.964L40.8694 220.525L79.6214 268.158L76.1437 272.552Z" fill="black"/>
<path fill-rule="evenodd" clip-rule="evenodd" d="M181.533 133.881C180.472 132.516 178.265 130.695 175.424 128.781C172.552 126.845 168.948 124.759 165.027 122.883C157.228 119.151 147.987 116.159 140.681 116.997L140.888 118.815C147.659 118.04 156.504 120.833 164.237 124.534C168.081 126.373 171.605 128.414 174.4 130.298C177.224 132.201 179.223 133.89 180.092 135.009L180.096 135.014L180.1 135.02C182.881 138.496 186.301 143.853 190.449 150.351C192.222 153.13 194.129 156.117 196.176 159.256C202.982 169.69 211.282 181.694 221.227 192.918C231.025 203.977 234.024 213.193 233.673 220.352C233.323 227.511 229.616 232.786 225.653 235.957L225.599 236L189.751 274.781L176.754 256.158L202.196 221.507L167.907 168.235L166.367 169.226L199.975 221.438L174.503 256.131L189.552 277.693L226.85 237.343C231.117 233.908 235.122 228.193 235.502 220.441C235.883 212.656 232.599 202.992 222.597 191.704C212.74 180.58 204.498 168.663 197.709 158.256C195.707 155.185 193.825 152.237 192.063 149.477C187.882 142.928 184.379 137.438 181.533 133.881Z" fill="black"/>
<path fill-rule="evenodd" clip-rule="evenodd" d="M174.336 321.73L170.725 253.515L168.896 253.611L172.508 321.826L174.336 321.73Z" fill="black"/>
<path fill-rule="evenodd" clip-rule="evenodd" d="M178.474 259.174L168.996 259.816L171.739 305.2L172.67 305.124C173.635 305.046 174.659 304.446 175.634 303.396C176.622 302.33 177.635 300.725 178.579 298.447C180.433 293.97 182.071 286.775 182.675 275.615L188.574 273.314L178.474 259.174ZM177.578 261.069L185.717 272.464L180.906 274.34L180.877 274.931C180.306 286.317 178.664 293.458 176.887 297.747C176 299.89 175.09 301.291 174.292 302.151C173.976 302.491 173.688 302.736 173.434 302.911L170.933 261.519L177.578 261.069Z" fill="black"/>
<path fill-rule="evenodd" clip-rule="evenodd" d="M120.689 312.997L117.148 321.43L115.46 320.72L121.08 307.339L122.838 307.748L122.035 321.13L120.208 321.021L120.689 312.997Z" fill="black"/>
</g>
<defs>
<clipPath id="clip0_1082_106">
<rect width="322.169" height="322.169" fill="white" transform="translate(0 0.154541)"/>
</clipPath>
</defs>
</svg>
