<svg width="22" height="22" viewBox="0 0 22 22" fill="none" xmlns="http://www.w3.org/2000/svg">
<path d="M17.7719 0.500244L9.85066 0.500244C9.36394 0.500244 8.97052 0.894545 8.97052 1.38038C8.97052 1.86621 9.36394 2.26052 9.85066 2.26052L17.7719 2.26052C17.9294 2.26052 18.0817 2.28164 18.2278 2.32036L0.427045 20.1211C0.0829121 20.4652 0.0829121 21.0215 0.427045 21.3656C0.598671 21.5372 0.823986 21.6235 1.0493 21.6235C1.27462 21.6235 1.49993 21.5372 1.67156 21.3656L19.4723 3.56488C19.511 3.7101 19.5321 3.86324 19.5321 4.02079V11.942C19.5321 12.4278 19.9256 12.8221 20.4123 12.8221C20.899 12.8221 21.2924 12.4278 21.2924 11.942V4.02079C21.2924 2.07921 19.7135 0.500244 17.7719 0.500244Z" fill="black"/>
</svg>
