<svg width="44" height="44" viewBox="0 0 44 44" fill="none" xmlns="http://www.w3.org/2000/svg">
<g clip-path="url(#clip0_3284_1089)">
<path d="M10.8628 23.6945L10.8629 23.6944C15.466 19.0895 22.5495 17.7924 28.4853 20.4743L28.4863 20.4747C28.5671 20.5111 28.6062 20.6104 28.5689 20.6941C28.5311 20.7767 28.4342 20.8162 28.3447 20.7762L28.0388 21.461L28.3477 20.7775C22.5373 18.1518 15.6087 19.4196 11.0983 23.93L10.8786 24.1496V24.1558C10.66 24.3832 10.4486 24.6165 10.2456 24.8557C10.212 24.8949 10.1652 24.9148 10.118 24.9148C10.0805 24.9148 10.0442 24.9036 10.0089 24.8744C9.93874 24.8131 9.93226 24.7069 9.98977 24.6391C10.2631 24.317 10.5552 24.0021 10.8628 23.6945ZM38.3984 11.8243L37.882 11.4603L37.8783 11.4641C26.6639 3.81359 11.6799 5.19902 2.02393 14.858C1.68504 15.1951 1.35727 15.5398 1.04064 15.8921C1.00553 15.9303 0.960267 15.948 0.916482 15.948C0.879514 15.948 0.839535 15.935 0.804566 15.9044C0.735637 15.8402 0.73227 15.7352 0.793111 15.6678L0.236316 15.1653L0.792534 15.6684C1.11361 15.3134 1.44594 14.965 1.78965 14.6213L1.78979 14.6212C11.715 4.69054 27.1939 3.40688 38.5972 11.557L38.5974 11.5571C38.6698 11.6088 38.6892 11.7122 38.6355 11.789C38.583 11.8615 38.4816 11.883 38.3984 11.8243ZM24.6173 32.4513L24.2056 32.863L24.5024 33.364C24.7636 33.8048 24.9165 34.3028 24.9165 34.8333C24.9165 36.4413 23.6078 37.75 21.9998 37.75C20.3919 37.75 19.0831 36.4413 19.0831 34.8333C19.0831 33.2253 20.3919 31.9166 21.9998 31.9166C22.5285 31.9166 23.0258 32.0703 23.4717 32.3322L23.9717 32.6259L24.3818 32.2158L42.9663 13.6313C43.0309 13.5667 43.1372 13.5667 43.2018 13.6313C43.2664 13.6959 43.2664 13.8022 43.2018 13.8668L24.6173 32.4513ZM24.5831 34.8315C24.5831 33.4071 23.4242 32.2481 21.9998 32.2481C20.5754 32.2481 19.4165 33.4071 19.4165 34.8315C19.4165 36.2558 20.5754 37.4148 21.9998 37.4148C23.4242 37.4148 24.5831 36.2558 24.5831 34.8315Z" stroke="url(#paint0_linear_3284_1089)" stroke-width="1.5"/>
</g>
<defs>
<linearGradient id="paint0_linear_3284_1089" x1="22.0001" y1="5.46094" x2="22.0001" y2="38.5" gradientUnits="userSpaceOnUse">
<stop stop-color="white"/>
<stop offset="1" stop-color="#393939"/>
</linearGradient>
<clipPath id="clip0_3284_1089">
<rect width="44" height="44" fill="white"/>
</clipPath>
</defs>
</svg>
