<svg width="32" height="32" viewBox="0 0 32 32" fill="none" xmlns="http://www.w3.org/2000/svg">
<path d="M17.524 23.314L19.112 20.6673L17.524 18.0207C17.1453 17.3887 17.3493 16.57 17.9813 16.1913C18.6133 15.8113 19.432 16.0167 19.8107 16.6487L20.668 18.0767L21.5253 16.6487C21.904 16.0167 22.7227 15.8113 23.3547 16.1913C23.9867 16.57 24.1907 17.3887 23.812 18.0207L22.224 20.6673L23.812 23.314C24.1907 23.946 23.9867 24.7647 23.3547 25.1433C23.14 25.2727 22.904 25.334 22.6693 25.334C22.216 25.334 21.7747 25.1033 21.5253 24.6873L20.668 23.2593L19.8107 24.6873C19.56 25.1033 19.1187 25.334 18.6667 25.334C18.4333 25.334 18.196 25.2727 17.9813 25.1433C17.3493 24.7647 17.1453 23.946 17.524 23.314ZM12 25.334C14.2053 25.334 16 23.5393 16 21.334V17.334C16 16.598 15.4027 16.0007 14.6667 16.0007C13.9307 16.0007 13.3333 16.598 13.3333 17.334V21.334C13.3333 22.07 12.7347 22.6673 12 22.6673C11.2653 22.6673 10.6667 22.07 10.6667 21.334V17.334C10.6667 16.598 10.0693 16.0007 9.33333 16.0007C8.59733 16.0007 8 16.598 8 17.334V21.334C8 23.5393 9.79467 25.334 12 25.334ZM6 5.33398C4.896 5.33398 4 6.22998 4 7.33398C4 8.43798 4.896 9.33398 6 9.33398C7.104 9.33398 8 8.43798 8 7.33398C8 6.22998 7.104 5.33398 6 5.33398ZM32 8.00065V24.0007C32 27.6767 29.0093 30.6673 25.3333 30.6673H6.66667C2.99067 30.6673 0 27.6767 0 24.0007V8.00065C0 4.32465 2.99067 1.33398 6.66667 1.33398H25.3333C29.0093 1.33398 32 4.32465 32 8.00065ZM29.3333 13.334H2.66667V24.0007C2.66667 26.206 4.46133 28.0007 6.66667 28.0007H25.3333C27.5387 28.0007 29.3333 26.206 29.3333 24.0007V13.334ZM29.3333 8.00065C29.3333 5.79532 27.5387 4.00065 25.3333 4.00065H6.66667C4.46133 4.00065 2.66667 5.79532 2.66667 8.00065V10.6673H29.3333V8.00065ZM11.3333 5.33398C10.2293 5.33398 9.33333 6.22998 9.33333 7.33398C9.33333 8.43798 10.2293 9.33398 11.3333 9.33398C12.4373 9.33398 13.3333 8.43798 13.3333 7.33398C13.3333 6.22998 12.4373 5.33398 11.3333 5.33398Z" fill="white"/>
</svg>
