<svg width="939" height="365" viewBox="0 0 939 365" fill="none" xmlns="http://www.w3.org/2000/svg">
<path d="M44.7176 179.794C42.2953 177.646 39.447 176.033 36.3589 175.061C33.2707 174.089 30.0122 173.78 26.7964 174.154C16.65 175.323 8.26253 183.497 6.85699 193.59C5.80474 201.126 8.36419 208.4 13.8822 213.552C17.3464 216.788 19.3366 221.251 19.3366 225.793V234.999H39.6699V225.206C39.6699 220.92 41.5812 216.795 45.0531 213.588C47.3717 211.466 49.2212 208.883 50.4826 206.005C51.7441 203.127 52.3898 200.016 52.3782 196.874C52.3764 193.648 51.6932 190.459 50.3735 187.516C49.0538 184.572 47.1274 181.941 44.7202 179.794H44.7176ZM37.1257 232.457H21.8757V225.793C21.8757 224.616 21.7588 223.442 21.5351 222.29H37.3773C37.2096 223.251 37.1231 224.225 37.1231 225.206V232.457H37.1257ZM43.3223 211.722C40.8162 214.04 39.0142 216.788 38.0204 219.749H20.8539C19.7915 216.675 17.991 213.909 15.6105 211.694C10.7076 207.117 8.43536 200.646 9.37069 193.943C10.6187 184.976 18.0683 177.717 27.0836 176.68C33.0056 176.007 38.6431 177.786 43.0249 181.695C45.1645 183.603 46.8768 185.942 48.0498 188.558C49.2227 191.175 49.8299 194.009 49.8315 196.876C49.8315 202.57 47.5211 207.841 43.3197 211.725L43.3223 211.722ZM37.0037 190.418C37.2855 191.992 37.068 193.615 36.3816 195.059C35.6952 196.503 34.5744 197.697 33.1759 198.472C31.9178 199.164 30.7715 201.286 30.7715 202.925V204.499H28.2299V202.925C28.2299 200.371 29.8997 197.374 31.9509 196.246C32.8911 195.733 33.6447 194.936 34.1032 193.968C34.5617 193 34.7016 191.912 34.5027 190.86C34.3127 189.85 33.8224 188.922 33.0959 188.195C32.3694 187.469 31.4406 186.978 30.4309 186.788C29.6931 186.651 28.9339 186.679 28.2082 186.871C27.4826 187.062 26.8085 187.413 26.2347 187.897C25.6654 188.373 25.2076 188.969 24.8936 189.642C24.5796 190.314 24.4171 191.048 24.4174 191.79H21.8757C21.8757 189.531 22.8695 187.401 24.5978 185.95C26.3262 184.498 28.6035 183.891 30.8732 184.287C32.3941 184.572 33.7935 185.309 34.8876 186.403C35.9817 187.498 36.7194 188.897 37.0037 190.418ZM32.0424 212.124C32.0424 212.798 31.7746 213.444 31.2979 213.921C30.8213 214.398 30.1748 214.665 29.5007 214.665C28.8266 214.665 28.1801 214.398 27.7035 213.921C27.2268 213.444 26.959 212.798 26.959 212.124C26.959 211.45 27.2268 210.803 27.7035 210.326C28.1801 209.85 28.8266 209.582 29.5007 209.582C30.1748 209.582 30.8213 209.85 31.2979 210.326C31.7746 210.803 32.0424 211.45 32.0424 212.124Z" fill="black"/>
<path d="M2.41324 297V276H5.53324V297H2.41324ZM21.0004 274.5H24.1204V297H21.0004V294.795C20.5104 295.575 19.8704 296.205 19.0804 296.685C18.2904 297.155 17.3654 297.39 16.3054 297.39C15.2154 297.39 14.1954 297.185 13.2454 296.775C12.2954 296.365 11.4554 295.8 10.7254 295.08C10.0054 294.35 9.44035 293.51 9.03035 292.56C8.62035 291.61 8.41535 290.59 8.41535 289.5C8.41535 288.41 8.62035 287.39 9.03035 286.44C9.44035 285.48 10.0054 284.64 10.7254 283.92C11.4554 283.19 12.2954 282.62 13.2454 282.21C14.1954 281.8 15.2154 281.595 16.3054 281.595C17.3654 281.595 18.2904 281.835 19.0804 282.315C19.8704 282.785 20.5104 283.405 21.0004 284.175V274.5ZM16.3354 294.375C17.2154 294.375 17.9854 294.16 18.6454 293.73C19.3054 293.29 19.8154 292.7 20.1754 291.96C20.5454 291.22 20.7304 290.4 20.7304 289.5C20.7304 288.59 20.5454 287.765 20.1754 287.025C19.8054 286.285 19.2904 285.7 18.6304 285.27C17.9804 284.83 17.2154 284.61 16.3354 284.61C15.4654 284.61 14.6704 284.83 13.9504 285.27C13.2404 285.71 12.6704 286.3 12.2404 287.04C11.8204 287.78 11.6104 288.6 11.6104 289.5C11.6104 290.41 11.8254 291.235 12.2554 291.975C12.6954 292.705 13.2704 293.29 13.9804 293.73C14.7004 294.16 15.4854 294.375 16.3354 294.375ZM34.0487 297.39C32.6687 297.39 31.4087 297.035 30.2687 296.325C29.1387 295.615 28.2337 294.665 27.5537 293.475C26.8837 292.275 26.5487 290.95 26.5487 289.5C26.5487 288.4 26.7437 287.375 27.1337 286.425C27.5237 285.465 28.0587 284.625 28.7387 283.905C29.4287 283.175 30.2287 282.605 31.1387 282.195C32.0487 281.785 33.0187 281.58 34.0487 281.58C35.1987 281.58 36.2537 281.82 37.2137 282.3C38.1737 282.77 38.9937 283.425 39.6737 284.265C40.3537 285.095 40.8537 286.055 41.1737 287.145C41.4937 288.225 41.5887 289.375 41.4587 290.595H29.8937C30.0237 291.285 30.2737 291.91 30.6437 292.47C31.0237 293.02 31.5037 293.455 32.0837 293.775C32.6737 294.095 33.3287 294.26 34.0487 294.27C34.8087 294.27 35.4987 294.08 36.1187 293.7C36.7487 293.32 37.2637 292.795 37.6637 292.125L40.8287 292.86C40.2287 294.19 39.3237 295.28 38.1137 296.13C36.9037 296.97 35.5487 297.39 34.0487 297.39ZM29.7887 288.21H38.3087C38.2087 287.49 37.9537 286.84 37.5437 286.26C37.1437 285.67 36.6387 285.205 36.0287 284.865C35.4287 284.515 34.7687 284.34 34.0487 284.34C33.3387 284.34 32.6787 284.51 32.0687 284.85C31.4687 285.19 30.9687 285.655 30.5687 286.245C30.1787 286.825 29.9187 287.48 29.7887 288.21ZM55.5236 282H58.6436V297H55.5086L55.3886 294.825C54.9486 295.595 54.3536 296.215 53.6036 296.685C52.8536 297.155 51.9686 297.39 50.9486 297.39C49.8486 297.39 48.8136 297.185 47.8436 296.775C46.8736 296.355 46.0186 295.775 45.2786 295.035C44.5486 294.295 43.9786 293.445 43.5686 292.485C43.1586 291.515 42.9536 290.475 42.9536 289.365C42.9536 288.295 43.1536 287.29 43.5536 286.35C43.9536 285.4 44.5086 284.57 45.2186 283.86C45.9286 283.15 46.7486 282.595 47.6786 282.195C48.6186 281.785 49.6236 281.58 50.6936 281.58C51.7836 281.58 52.7436 281.83 53.5736 282.33C54.4136 282.82 55.1086 283.45 55.6586 284.22L55.5236 282ZM50.8736 294.375C51.7536 294.375 52.5236 294.16 53.1836 293.73C53.8436 293.29 54.3536 292.7 54.7136 291.96C55.0836 291.22 55.2686 290.4 55.2686 289.5C55.2686 288.59 55.0836 287.765 54.7136 287.025C54.3436 286.285 53.8286 285.7 53.1686 285.27C52.5186 284.83 51.7536 284.61 50.8736 284.61C50.0036 284.61 49.2086 284.83 48.4886 285.27C47.7686 285.71 47.1986 286.3 46.7786 287.04C46.3586 287.78 46.1486 288.6 46.1486 289.5C46.1486 290.41 46.3636 291.235 46.7936 291.975C47.2336 292.705 47.8086 293.29 48.5186 293.73C49.2386 294.16 50.0236 294.375 50.8736 294.375Z" fill="black"/>
<path fill-rule="evenodd" clip-rule="evenodd" d="M196 280H73V277H199V359C199 359 211.096 359.103 215 359C223.029 358.788 222 359 222 359V362H215H196V280Z" fill="black"/>
<path d="M31.3594 248.924L38.5196 233.924H21.1991L28.3594 248.924H31.3594ZM28.3594 247.424V255.094H31.3594V247.424H28.3594Z" fill="black"/>
<path d="M794.2 62V48H799.17C799.89 48 800.54 48.1467 801.12 48.44C801.707 48.7333 802.17 49.1567 802.51 49.71C802.857 50.2567 803.03 50.9133 803.03 51.68C803.03 52.0533 802.97 52.42 802.85 52.78C802.73 53.14 802.56 53.4567 802.34 53.73C802.12 54.0033 801.853 54.1967 801.54 54.31C801.967 54.4167 802.32 54.61 802.6 54.89C802.887 55.1633 803.113 55.4833 803.28 55.85C803.447 56.2167 803.563 56.5967 803.63 56.99C803.703 57.3833 803.74 57.7567 803.74 58.11C803.74 58.8567 803.56 59.5233 803.2 60.11C802.84 60.6967 802.357 61.16 801.75 61.5C801.15 61.8333 800.487 62 799.76 62H794.2ZM796.28 60.2H799.56C799.987 60.2 800.373 60.0933 800.72 59.88C801.073 59.6667 801.353 59.3733 801.56 59C801.767 58.62 801.87 58.1933 801.87 57.72C801.87 57.3067 801.767 56.9167 801.56 56.55C801.353 56.1767 801.073 55.8767 800.72 55.65C800.373 55.4233 799.987 55.31 799.56 55.31H796.28V60.2ZM796.28 53.54H798.95C799.497 53.54 799.967 53.3733 800.36 53.04C800.753 52.7067 800.95 52.25 800.95 51.67C800.95 51.05 800.753 50.5867 800.36 50.28C799.967 49.9667 799.497 49.81 798.95 49.81H796.28V53.54ZM804.99 58.25V52H807.07V57.74C807.07 58.1867 807.18 58.5933 807.4 58.96C807.62 59.3267 807.914 59.62 808.28 59.84C808.647 60.0533 809.05 60.16 809.49 60.16C809.937 60.16 810.34 60.0533 810.7 59.84C811.067 59.62 811.357 59.3267 811.57 58.96C811.79 58.5933 811.9 58.1867 811.9 57.74V52H813.98L813.99 62H811.91L811.9 60.92C811.56 61.3333 811.137 61.66 810.63 61.9C810.124 62.14 809.58 62.26 809 62.26C808.26 62.26 807.587 62.08 806.98 61.72C806.374 61.36 805.89 60.8767 805.53 60.27C805.17 59.6633 804.99 58.99 804.99 58.25ZM818.956 62.19C818.429 62.1567 817.916 62.05 817.416 61.87C816.916 61.69 816.476 61.4467 816.096 61.14C815.723 60.8267 815.443 60.46 815.256 60.04L817.026 59.28C817.113 59.46 817.263 59.6367 817.476 59.81C817.696 59.9833 817.953 60.1267 818.246 60.24C818.539 60.3467 818.846 60.4 819.166 60.4C819.479 60.4 819.769 60.3567 820.036 60.27C820.309 60.1767 820.533 60.0367 820.706 59.85C820.879 59.6633 820.966 59.44 820.966 59.18C820.966 58.8867 820.866 58.66 820.666 58.5C820.473 58.3333 820.229 58.2067 819.936 58.12C819.643 58.0333 819.349 57.95 819.056 57.87C818.403 57.7233 817.803 57.5233 817.256 57.27C816.716 57.01 816.286 56.68 815.966 56.28C815.646 55.8733 815.486 55.3767 815.486 54.79C815.486 54.15 815.659 53.5967 816.006 53.13C816.353 52.6567 816.806 52.2933 817.366 52.04C817.933 51.7867 818.536 51.66 819.176 51.66C819.976 51.66 820.709 51.83 821.376 52.17C822.043 52.51 822.553 52.9767 822.906 53.57L821.256 54.55C821.156 54.35 821.006 54.17 820.806 54.01C820.606 53.85 820.379 53.7233 820.126 53.63C819.873 53.53 819.609 53.4733 819.336 53.46C818.996 53.4467 818.679 53.4867 818.386 53.58C818.099 53.6667 817.869 53.8067 817.696 54C817.523 54.1933 817.436 54.44 817.436 54.74C817.436 55.0333 817.539 55.2533 817.746 55.4C817.953 55.54 818.213 55.6533 818.526 55.74C818.846 55.8267 819.173 55.9233 819.506 56.03C820.099 56.2167 820.656 56.4467 821.176 56.72C821.696 56.9867 822.116 57.3167 822.436 57.71C822.756 58.1033 822.909 58.5833 822.896 59.15C822.896 59.7767 822.706 60.3267 822.326 60.8C821.953 61.2733 821.466 61.6333 820.866 61.88C820.266 62.1267 819.629 62.23 818.956 62.19ZM824.392 52H826.472V62H824.392V52ZM825.452 50.55C825.132 50.55 824.866 50.4467 824.652 50.24C824.439 50.0333 824.332 49.7733 824.332 49.46C824.332 49.1533 824.439 48.8967 824.652 48.69C824.866 48.4767 825.129 48.37 825.442 48.37C825.749 48.37 826.009 48.4767 826.222 48.69C826.436 48.8967 826.542 49.1533 826.542 49.46C826.542 49.7733 826.436 50.0333 826.222 50.24C826.016 50.4467 825.759 50.55 825.452 50.55ZM837.747 55.73V62H835.667V56.24C835.667 55.7933 835.557 55.3867 835.337 55.02C835.124 54.6533 834.834 54.3633 834.467 54.15C834.107 53.93 833.7 53.82 833.247 53.82C832.807 53.82 832.404 53.93 832.037 54.15C831.67 54.3633 831.377 54.6533 831.157 55.02C830.937 55.3867 830.827 55.7933 830.827 56.24V62H828.747V52H830.827V53.06C831.174 52.6467 831.6 52.32 832.107 52.08C832.614 51.84 833.16 51.72 833.747 51.72C834.487 51.72 835.16 51.9 835.767 52.26C836.374 52.62 836.854 53.1033 837.207 53.71C837.567 54.3167 837.747 54.99 837.747 55.73ZM843.908 62.26C842.988 62.26 842.148 62.0233 841.388 61.55C840.634 61.0767 840.031 60.4433 839.578 59.65C839.131 58.85 838.908 57.9667 838.908 57C838.908 56.2667 839.038 55.5833 839.298 54.95C839.558 54.31 839.914 53.75 840.368 53.27C840.828 52.7833 841.361 52.4033 841.968 52.13C842.574 51.8567 843.221 51.72 843.908 51.72C844.674 51.72 845.378 51.88 846.018 52.2C846.658 52.5133 847.204 52.95 847.658 53.51C848.111 54.0633 848.444 54.7033 848.658 55.43C848.871 56.15 848.934 56.9167 848.848 57.73H841.138C841.224 58.19 841.391 58.6067 841.638 58.98C841.891 59.3467 842.211 59.6367 842.598 59.85C842.991 60.0633 843.428 60.1733 843.908 60.18C844.414 60.18 844.874 60.0533 845.288 59.8C845.708 59.5467 846.051 59.1967 846.318 58.75L848.428 59.24C848.028 60.1267 847.424 60.8533 846.618 61.42C845.811 61.98 844.908 62.26 843.908 62.26ZM841.068 56.14H846.748C846.681 55.66 846.511 55.2267 846.238 54.84C845.971 54.4467 845.634 54.1367 845.228 53.91C844.828 53.6767 844.388 53.56 843.908 53.56C843.434 53.56 842.994 53.6733 842.588 53.9C842.188 54.1267 841.854 54.4367 841.588 54.83C841.328 55.2167 841.154 55.6533 841.068 56.14ZM853.503 62.19C852.976 62.1567 852.463 62.05 851.963 61.87C851.463 61.69 851.023 61.4467 850.643 61.14C850.27 60.8267 849.99 60.46 849.803 60.04L851.573 59.28C851.66 59.46 851.81 59.6367 852.023 59.81C852.243 59.9833 852.5 60.1267 852.793 60.24C853.086 60.3467 853.393 60.4 853.713 60.4C854.026 60.4 854.316 60.3567 854.583 60.27C854.856 60.1767 855.08 60.0367 855.253 59.85C855.426 59.6633 855.513 59.44 855.513 59.18C855.513 58.8867 855.413 58.66 855.213 58.5C855.02 58.3333 854.776 58.2067 854.483 58.12C854.19 58.0333 853.896 57.95 853.603 57.87C852.95 57.7233 852.35 57.5233 851.803 57.27C851.263 57.01 850.833 56.68 850.513 56.28C850.193 55.8733 850.033 55.3767 850.033 54.79C850.033 54.15 850.206 53.5967 850.553 53.13C850.9 52.6567 851.353 52.2933 851.913 52.04C852.48 51.7867 853.083 51.66 853.723 51.66C854.523 51.66 855.256 51.83 855.923 52.17C856.59 52.51 857.1 52.9767 857.453 53.57L855.803 54.55C855.703 54.35 855.553 54.17 855.353 54.01C855.153 53.85 854.926 53.7233 854.673 53.63C854.42 53.53 854.156 53.4733 853.883 53.46C853.543 53.4467 853.226 53.4867 852.933 53.58C852.646 53.6667 852.416 53.8067 852.243 54C852.07 54.1933 851.983 54.44 851.983 54.74C851.983 55.0333 852.086 55.2533 852.293 55.4C852.5 55.54 852.76 55.6533 853.073 55.74C853.393 55.8267 853.72 55.9233 854.053 56.03C854.646 56.2167 855.203 56.4467 855.723 56.72C856.243 56.9867 856.663 57.3167 856.983 57.71C857.303 58.1033 857.456 58.5833 857.443 59.15C857.443 59.7767 857.253 60.3267 856.873 60.8C856.5 61.2733 856.013 61.6333 855.413 61.88C854.813 62.1267 854.176 62.23 853.503 62.19ZM862.115 62.19C861.589 62.1567 861.075 62.05 860.575 61.87C860.075 61.69 859.635 61.4467 859.255 61.14C858.882 60.8267 858.602 60.46 858.415 60.04L860.185 59.28C860.272 59.46 860.422 59.6367 860.635 59.81C860.855 59.9833 861.112 60.1267 861.405 60.24C861.699 60.3467 862.005 60.4 862.325 60.4C862.639 60.4 862.929 60.3567 863.195 60.27C863.469 60.1767 863.692 60.0367 863.865 59.85C864.039 59.6633 864.125 59.44 864.125 59.18C864.125 58.8867 864.025 58.66 863.825 58.5C863.632 58.3333 863.389 58.2067 863.095 58.12C862.802 58.0333 862.509 57.95 862.215 57.87C861.562 57.7233 860.962 57.5233 860.415 57.27C859.875 57.01 859.445 56.68 859.125 56.28C858.805 55.8733 858.645 55.3767 858.645 54.79C858.645 54.15 858.819 53.5967 859.165 53.13C859.512 52.6567 859.965 52.2933 860.525 52.04C861.092 51.7867 861.695 51.66 862.335 51.66C863.135 51.66 863.869 51.83 864.535 52.17C865.202 52.51 865.712 52.9767 866.065 53.57L864.415 54.55C864.315 54.35 864.165 54.17 863.965 54.01C863.765 53.85 863.539 53.7233 863.285 53.63C863.032 53.53 862.769 53.4733 862.495 53.46C862.155 53.4467 861.839 53.4867 861.545 53.58C861.259 53.6667 861.029 53.8067 860.855 54C860.682 54.1933 860.595 54.44 860.595 54.74C860.595 55.0333 860.699 55.2533 860.905 55.4C861.112 55.54 861.372 55.6533 861.685 55.74C862.005 55.8267 862.332 55.9233 862.665 56.03C863.259 56.2167 863.815 56.4467 864.335 56.72C864.855 56.9867 865.275 57.3167 865.595 57.71C865.915 58.1033 866.069 58.5833 866.055 59.15C866.055 59.7767 865.865 60.3267 865.485 60.8C865.112 61.2733 864.625 61.6333 864.025 61.88C863.425 62.1267 862.789 62.23 862.115 62.19ZM877.482 62.26C876.716 62.26 875.979 62.14 875.272 61.9C874.566 61.66 873.949 61.3167 873.422 60.87C872.896 60.4167 872.519 59.88 872.292 59.26L874.242 58.53C874.356 58.85 874.572 59.1367 874.892 59.39C875.219 59.6367 875.606 59.83 876.052 59.97C876.506 60.11 876.982 60.18 877.482 60.18C878.016 60.18 878.516 60.0933 878.982 59.92C879.456 59.7467 879.836 59.5067 880.122 59.2C880.416 58.8933 880.562 58.5333 880.562 58.12C880.562 57.6933 880.409 57.3433 880.102 57.07C879.802 56.7967 879.416 56.58 878.942 56.42C878.476 56.26 877.989 56.14 877.482 56.06C876.502 55.9 875.622 55.6667 874.842 55.36C874.069 55.0533 873.456 54.6233 873.002 54.07C872.556 53.5167 872.332 52.7967 872.332 51.91C872.332 51.0767 872.569 50.35 873.042 49.73C873.522 49.11 874.152 48.63 874.932 48.29C875.719 47.9433 876.569 47.77 877.482 47.77C878.236 47.77 878.962 47.89 879.662 48.13C880.369 48.3633 880.989 48.7067 881.522 49.16C882.062 49.6067 882.449 50.15 882.682 50.79L880.712 51.5C880.599 51.1733 880.382 50.89 880.062 50.65C879.742 50.4033 879.356 50.21 878.902 50.07C878.456 49.93 877.982 49.86 877.482 49.86C876.949 49.8533 876.449 49.94 875.982 50.12C875.522 50.2933 875.146 50.5333 874.852 50.84C874.559 51.1467 874.412 51.5033 874.412 51.91C874.412 52.41 874.549 52.79 874.822 53.05C875.096 53.31 875.462 53.5033 875.922 53.63C876.389 53.75 876.909 53.86 877.482 53.96C878.402 54.1067 879.252 54.35 880.032 54.69C880.819 55.03 881.449 55.4833 881.922 56.05C882.402 56.61 882.642 57.3 882.642 58.12C882.642 58.9467 882.402 59.6733 881.922 60.3C881.449 60.92 880.819 61.4033 880.032 61.75C879.252 62.09 878.402 62.26 877.482 62.26ZM891.111 59.16L892.971 60.17C892.518 60.8033 891.941 61.31 891.241 61.69C890.548 62.07 889.795 62.26 888.981 62.26C888.061 62.26 887.221 62.0233 886.461 61.55C885.708 61.0767 885.105 60.4433 884.651 59.65C884.205 58.85 883.981 57.9667 883.981 57C883.981 56.2667 884.111 55.5833 884.371 54.95C884.631 54.31 884.988 53.75 885.441 53.27C885.901 52.7833 886.435 52.4033 887.041 52.13C887.648 51.8567 888.295 51.72 888.981 51.72C889.795 51.72 890.548 51.91 891.241 52.29C891.941 52.67 892.518 53.18 892.971 53.82L891.111 54.83C890.831 54.4967 890.505 54.2433 890.131 54.07C889.758 53.89 889.375 53.8 888.981 53.8C888.435 53.8 887.938 53.95 887.491 54.25C887.051 54.5433 886.701 54.9333 886.441 55.42C886.188 55.9 886.061 56.4267 886.061 57C886.061 57.5667 886.191 58.0933 886.451 58.58C886.711 59.06 887.061 59.4467 887.501 59.74C887.948 60.0333 888.441 60.18 888.981 60.18C889.395 60.18 889.788 60.0867 890.161 59.9C890.535 59.7133 890.851 59.4667 891.111 59.16ZM898.883 62.26C897.963 62.26 897.123 62.0233 896.363 61.55C895.609 61.0767 895.006 60.4433 894.553 59.65C894.106 58.85 893.883 57.9667 893.883 57C893.883 56.2667 894.013 55.5833 894.273 54.95C894.533 54.31 894.889 53.75 895.343 53.27C895.803 52.7833 896.336 52.4033 896.943 52.13C897.549 51.8567 898.196 51.72 898.883 51.72C899.803 51.72 900.639 51.9567 901.393 52.43C902.153 52.9033 902.756 53.54 903.203 54.34C903.656 55.14 903.883 56.0267 903.883 57C903.883 57.7267 903.753 58.4067 903.493 59.04C903.233 59.6733 902.873 60.2333 902.413 60.72C901.959 61.2 901.429 61.5767 900.823 61.85C900.223 62.1233 899.576 62.26 898.883 62.26ZM898.883 60.18C899.436 60.18 899.933 60.0333 900.373 59.74C900.813 59.4467 901.159 59.06 901.413 58.58C901.673 58.0933 901.803 57.5667 901.803 57C901.803 56.42 901.669 55.8867 901.403 55.4C901.143 54.9133 900.793 54.5267 900.353 54.24C899.913 53.9467 899.423 53.8 898.883 53.8C898.336 53.8 897.839 53.9467 897.393 54.24C896.953 54.5333 896.603 54.9233 896.343 55.41C896.089 55.8967 895.963 56.4267 895.963 57C895.963 57.5933 896.096 58.13 896.363 58.61C896.629 59.09 896.983 59.4733 897.423 59.76C897.869 60.04 898.356 60.18 898.883 60.18ZM907.538 67H905.458V52H907.538V53.47C907.872 52.9567 908.298 52.54 908.818 52.22C909.338 51.9 909.952 51.74 910.658 51.74C911.385 51.74 912.065 51.8767 912.698 52.15C913.338 52.4233 913.898 52.8033 914.378 53.29C914.858 53.77 915.235 54.3267 915.508 54.96C915.782 55.5933 915.918 56.2733 915.918 57C915.918 57.7267 915.782 58.41 915.508 59.05C915.235 59.69 914.858 60.2533 914.378 60.74C913.898 61.22 913.338 61.5967 912.698 61.87C912.065 62.1433 911.385 62.28 910.658 62.28C909.952 62.28 909.338 62.12 908.818 61.8C908.298 61.4733 907.872 61.0567 907.538 60.55V67ZM910.638 53.75C910.058 53.75 909.548 53.8967 909.108 54.19C908.668 54.4833 908.325 54.8767 908.078 55.37C907.832 55.8567 907.708 56.4 907.708 57C907.708 57.6 907.832 58.1467 908.078 58.64C908.325 59.1333 908.668 59.5267 909.108 59.82C909.548 60.1133 910.058 60.26 910.638 60.26C911.212 60.26 911.738 60.1167 912.218 59.83C912.698 59.5367 913.082 59.1433 913.368 58.65C913.655 58.1567 913.798 57.6067 913.798 57C913.798 56.4067 913.655 55.8633 913.368 55.37C913.088 54.8767 912.708 54.4833 912.228 54.19C911.748 53.8967 911.218 53.75 910.638 53.75ZM921.889 62.26C920.969 62.26 920.129 62.0233 919.369 61.55C918.615 61.0767 918.012 60.4433 917.559 59.65C917.112 58.85 916.889 57.9667 916.889 57C916.889 56.2667 917.019 55.5833 917.279 54.95C917.539 54.31 917.895 53.75 918.349 53.27C918.809 52.7833 919.342 52.4033 919.949 52.13C920.555 51.8567 921.202 51.72 921.889 51.72C922.655 51.72 923.359 51.88 923.999 52.2C924.639 52.5133 925.185 52.95 925.639 53.51C926.092 54.0633 926.425 54.7033 926.639 55.43C926.852 56.15 926.915 56.9167 926.829 57.73H919.119C919.205 58.19 919.372 58.6067 919.619 58.98C919.872 59.3467 920.192 59.6367 920.579 59.85C920.972 60.0633 921.409 60.1733 921.889 60.18C922.395 60.18 922.855 60.0533 923.269 59.8C923.689 59.5467 924.032 59.1967 924.299 58.75L926.409 59.24C926.009 60.1267 925.405 60.8533 924.599 61.42C923.792 61.98 922.889 62.26 921.889 62.26ZM919.049 56.14H924.729C924.662 55.66 924.492 55.2267 924.219 54.84C923.952 54.4467 923.615 54.1367 923.209 53.91C922.809 53.6767 922.369 53.56 921.889 53.56C921.415 53.56 920.975 53.6733 920.569 53.9C920.169 54.1267 919.835 54.4367 919.569 54.83C919.309 55.2167 919.135 55.6533 919.049 56.14Z" fill="black"/>
<path d="M852.19 135.26C851.423 135.26 850.687 135.14 849.98 134.9C849.273 134.66 848.657 134.317 848.13 133.87C847.603 133.417 847.227 132.88 847 132.26L848.95 131.53C849.063 131.85 849.28 132.137 849.6 132.39C849.927 132.637 850.313 132.83 850.76 132.97C851.213 133.11 851.69 133.18 852.19 133.18C852.723 133.18 853.223 133.093 853.69 132.92C854.163 132.747 854.543 132.507 854.83 132.2C855.123 131.893 855.27 131.533 855.27 131.12C855.27 130.693 855.117 130.343 854.81 130.07C854.51 129.797 854.123 129.58 853.65 129.42C853.183 129.26 852.697 129.14 852.19 129.06C851.21 128.9 850.33 128.667 849.55 128.36C848.777 128.053 848.163 127.623 847.71 127.07C847.263 126.517 847.04 125.797 847.04 124.91C847.04 124.077 847.277 123.35 847.75 122.73C848.23 122.11 848.86 121.63 849.64 121.29C850.427 120.943 851.277 120.77 852.19 120.77C852.943 120.77 853.67 120.89 854.37 121.13C855.077 121.363 855.697 121.707 856.23 122.16C856.77 122.607 857.157 123.15 857.39 123.79L855.42 124.5C855.307 124.173 855.09 123.89 854.77 123.65C854.45 123.403 854.063 123.21 853.61 123.07C853.163 122.93 852.69 122.86 852.19 122.86C851.657 122.853 851.157 122.94 850.69 123.12C850.23 123.293 849.853 123.533 849.56 123.84C849.267 124.147 849.12 124.503 849.12 124.91C849.12 125.41 849.257 125.79 849.53 126.05C849.803 126.31 850.17 126.503 850.63 126.63C851.097 126.75 851.617 126.86 852.19 126.96C853.11 127.107 853.96 127.35 854.74 127.69C855.527 128.03 856.157 128.483 856.63 129.05C857.11 129.61 857.35 130.3 857.35 131.12C857.35 131.947 857.11 132.673 856.63 133.3C856.157 133.92 855.527 134.403 854.74 134.75C853.96 135.09 853.11 135.26 852.19 135.26ZM864.647 127.08H862.547L862.537 135H860.457L860.467 127.08H858.877V125H860.467L860.457 121.86H862.537L862.547 125H864.647V127.08ZM866.397 135V125H868.477V126.06C868.824 125.647 869.251 125.32 869.757 125.08C870.264 124.84 870.811 124.72 871.397 124.72C871.771 124.72 872.141 124.77 872.507 124.87L871.677 126.97C871.417 126.87 871.157 126.82 870.897 126.82C870.457 126.82 870.054 126.93 869.687 127.15C869.321 127.363 869.027 127.653 868.807 128.02C868.587 128.387 868.477 128.793 868.477 129.24V135H866.397ZM873.282 131.25V125H875.362V130.74C875.362 131.187 875.472 131.593 875.692 131.96C875.912 132.327 876.205 132.62 876.572 132.84C876.938 133.053 877.342 133.16 877.782 133.16C878.228 133.16 878.632 133.053 878.992 132.84C879.358 132.62 879.648 132.327 879.862 131.96C880.082 131.593 880.192 131.187 880.192 130.74V125H882.272L882.282 135H880.202L880.192 133.92C879.852 134.333 879.428 134.66 878.922 134.9C878.415 135.14 877.872 135.26 877.292 135.26C876.552 135.26 875.878 135.08 875.272 134.72C874.665 134.36 874.182 133.877 873.822 133.27C873.462 132.663 873.282 131.99 873.282 131.25ZM890.64 132.16L892.5 133.17C892.047 133.803 891.47 134.31 890.77 134.69C890.077 135.07 889.324 135.26 888.51 135.26C887.59 135.26 886.75 135.023 885.99 134.55C885.237 134.077 884.634 133.443 884.18 132.65C883.734 131.85 883.51 130.967 883.51 130C883.51 129.267 883.64 128.583 883.9 127.95C884.16 127.31 884.517 126.75 884.97 126.27C885.43 125.783 885.964 125.403 886.57 125.13C887.177 124.857 887.824 124.72 888.51 124.72C889.324 124.72 890.077 124.91 890.77 125.29C891.47 125.67 892.047 126.18 892.5 126.82L890.64 127.83C890.36 127.497 890.034 127.243 889.66 127.07C889.287 126.89 888.904 126.8 888.51 126.8C887.964 126.8 887.467 126.95 887.02 127.25C886.58 127.543 886.23 127.933 885.97 128.42C885.717 128.9 885.59 129.427 885.59 130C885.59 130.567 885.72 131.093 885.98 131.58C886.24 132.06 886.59 132.447 887.03 132.74C887.477 133.033 887.97 133.18 888.51 133.18C888.924 133.18 889.317 133.087 889.69 132.9C890.064 132.713 890.38 132.467 890.64 132.16ZM899.546 127.08H897.446L897.436 135H895.356L895.366 127.08H893.776V125H895.366L895.356 121.86H897.436L897.446 125H899.546V127.08ZM900.896 131.25V125H902.976V130.74C902.976 131.187 903.086 131.593 903.306 131.96C903.526 132.327 903.819 132.62 904.186 132.84C904.553 133.053 904.956 133.16 905.396 133.16C905.843 133.16 906.246 133.053 906.606 132.84C906.973 132.62 907.263 132.327 907.476 131.96C907.696 131.593 907.806 131.187 907.806 130.74V125H909.886L909.896 135H907.816L907.806 133.92C907.466 134.333 907.043 134.66 906.536 134.9C906.029 135.14 905.486 135.26 904.906 135.26C904.166 135.26 903.493 135.08 902.886 134.72C902.279 134.36 901.796 133.877 901.436 133.27C901.076 132.663 900.896 131.99 900.896 131.25ZM911.861 135V125H913.941V126.06C914.288 125.647 914.715 125.32 915.221 125.08C915.728 124.84 916.275 124.72 916.861 124.72C917.235 124.72 917.605 124.77 917.971 124.87L917.141 126.97C916.881 126.87 916.621 126.82 916.361 126.82C915.921 126.82 915.518 126.93 915.151 127.15C914.785 127.363 914.491 127.653 914.271 128.02C914.051 128.387 913.941 128.793 913.941 129.24V135H911.861ZM923.018 135.26C922.098 135.26 921.258 135.023 920.498 134.55C919.745 134.077 919.142 133.443 918.688 132.65C918.242 131.85 918.018 130.967 918.018 130C918.018 129.267 918.148 128.583 918.408 127.95C918.668 127.31 919.025 126.75 919.478 126.27C919.938 125.783 920.472 125.403 921.078 125.13C921.685 124.857 922.332 124.72 923.018 124.72C923.785 124.72 924.488 124.88 925.128 125.2C925.768 125.513 926.315 125.95 926.768 126.51C927.222 127.063 927.555 127.703 927.768 128.43C927.982 129.15 928.045 129.917 927.958 130.73H920.248C920.335 131.19 920.502 131.607 920.748 131.98C921.002 132.347 921.322 132.637 921.708 132.85C922.102 133.063 922.538 133.173 923.018 133.18C923.525 133.18 923.985 133.053 924.398 132.8C924.818 132.547 925.162 132.197 925.428 131.75L927.538 132.24C927.138 133.127 926.535 133.853 925.728 134.42C924.922 134.98 924.018 135.26 923.018 135.26ZM920.178 129.14H925.858C925.792 128.66 925.622 128.227 925.348 127.84C925.082 127.447 924.745 127.137 924.338 126.91C923.938 126.677 923.498 126.56 923.018 126.56C922.545 126.56 922.105 126.673 921.698 126.9C921.298 127.127 920.965 127.437 920.698 127.83C920.438 128.217 920.265 128.653 920.178 129.14Z" fill="black"/>
<path d="M866.19 213.26C865.423 213.26 864.687 213.14 863.98 212.9C863.273 212.66 862.657 212.317 862.13 211.87C861.603 211.417 861.227 210.88 861 210.26L862.95 209.53C863.063 209.85 863.28 210.137 863.6 210.39C863.927 210.637 864.313 210.83 864.76 210.97C865.213 211.11 865.69 211.18 866.19 211.18C866.723 211.18 867.223 211.093 867.69 210.92C868.163 210.747 868.543 210.507 868.83 210.2C869.123 209.893 869.27 209.533 869.27 209.12C869.27 208.693 869.117 208.343 868.81 208.07C868.51 207.797 868.123 207.58 867.65 207.42C867.183 207.26 866.697 207.14 866.19 207.06C865.21 206.9 864.33 206.667 863.55 206.36C862.777 206.053 862.163 205.623 861.71 205.07C861.263 204.517 861.04 203.797 861.04 202.91C861.04 202.077 861.277 201.35 861.75 200.73C862.23 200.11 862.86 199.63 863.64 199.29C864.427 198.943 865.277 198.77 866.19 198.77C866.943 198.77 867.67 198.89 868.37 199.13C869.077 199.363 869.697 199.707 870.23 200.16C870.77 200.607 871.157 201.15 871.39 201.79L869.42 202.5C869.307 202.173 869.09 201.89 868.77 201.65C868.45 201.403 868.063 201.21 867.61 201.07C867.163 200.93 866.69 200.86 866.19 200.86C865.657 200.853 865.157 200.94 864.69 201.12C864.23 201.293 863.853 201.533 863.56 201.84C863.267 202.147 863.12 202.503 863.12 202.91C863.12 203.41 863.257 203.79 863.53 204.05C863.803 204.31 864.17 204.503 864.63 204.63C865.097 204.75 865.617 204.86 866.19 204.96C867.11 205.107 867.96 205.35 868.74 205.69C869.527 206.03 870.157 206.483 870.63 207.05C871.11 207.61 871.35 208.3 871.35 209.12C871.35 209.947 871.11 210.673 870.63 211.3C870.157 211.92 869.527 212.403 868.74 212.75C867.96 213.09 867.11 213.26 866.19 213.26ZM878.647 205.08H876.547L876.537 213H874.457L874.467 205.08H872.877V203H874.467L874.457 199.86H876.537L876.547 203H878.647V205.08ZM880.397 213V203H882.477V204.06C882.824 203.647 883.251 203.32 883.757 203.08C884.264 202.84 884.811 202.72 885.397 202.72C885.771 202.72 886.141 202.77 886.507 202.87L885.677 204.97C885.417 204.87 885.157 204.82 884.897 204.82C884.457 204.82 884.054 204.93 883.687 205.15C883.321 205.363 883.027 205.653 882.807 206.02C882.587 206.387 882.477 206.793 882.477 207.24V213H880.397ZM894.934 203H897.014V213H894.924L894.844 211.55C894.551 212.063 894.154 212.477 893.654 212.79C893.154 213.103 892.564 213.26 891.884 213.26C891.151 213.26 890.461 213.123 889.814 212.85C889.168 212.57 888.598 212.183 888.104 211.69C887.618 211.197 887.238 210.63 886.964 209.99C886.691 209.343 886.554 208.65 886.554 207.91C886.554 207.197 886.688 206.527 886.954 205.9C887.221 205.267 887.591 204.713 888.064 204.24C888.538 203.767 889.084 203.397 889.704 203.13C890.331 202.857 891.001 202.72 891.714 202.72C892.441 202.72 893.081 202.887 893.634 203.22C894.194 203.547 894.658 203.967 895.024 204.48L894.934 203ZM891.834 211.25C892.421 211.25 892.934 211.107 893.374 210.82C893.814 210.527 894.154 210.133 894.394 209.64C894.641 209.147 894.764 208.6 894.764 208C894.764 207.393 894.641 206.843 894.394 206.35C894.148 205.857 893.804 205.467 893.364 205.18C892.931 204.887 892.421 204.74 891.834 204.74C891.254 204.74 890.724 204.887 890.244 205.18C889.764 205.473 889.384 205.867 889.104 206.36C888.824 206.853 888.684 207.4 888.684 208C888.684 208.607 888.828 209.157 889.114 209.65C889.408 210.137 889.791 210.527 890.264 210.82C890.744 211.107 891.268 211.25 891.834 211.25ZM904.25 205.08H902.15L902.14 213H900.06L900.07 205.08H898.48V203H900.07L900.06 199.86H902.14L902.15 203H904.25V205.08ZM910.166 213.26C909.246 213.26 908.406 213.023 907.646 212.55C906.892 212.077 906.289 211.443 905.836 210.65C905.389 209.85 905.166 208.967 905.166 208C905.166 207.267 905.296 206.583 905.556 205.95C905.816 205.31 906.172 204.75 906.626 204.27C907.086 203.783 907.619 203.403 908.226 203.13C908.832 202.857 909.479 202.72 910.166 202.72C910.932 202.72 911.636 202.88 912.276 203.2C912.916 203.513 913.462 203.95 913.916 204.51C914.369 205.063 914.702 205.703 914.916 206.43C915.129 207.15 915.192 207.917 915.106 208.73H907.396C907.482 209.19 907.649 209.607 907.896 209.98C908.149 210.347 908.469 210.637 908.856 210.85C909.249 211.063 909.686 211.173 910.166 211.18C910.672 211.18 911.132 211.053 911.546 210.8C911.966 210.547 912.309 210.197 912.576 209.75L914.686 210.24C914.286 211.127 913.682 211.853 912.876 212.42C912.069 212.98 911.166 213.26 910.166 213.26ZM907.326 207.14H913.006C912.939 206.66 912.769 206.227 912.496 205.84C912.229 205.447 911.892 205.137 911.486 204.91C911.086 204.677 910.646 204.56 910.166 204.56C909.692 204.56 909.252 204.673 908.846 204.9C908.446 205.127 908.112 205.437 907.846 205.83C907.586 206.217 907.412 206.653 907.326 207.14ZM924.312 203H926.392V213.26C926.392 213.947 926.246 214.58 925.952 215.16C925.666 215.74 925.276 216.24 924.782 216.66C924.289 217.087 923.722 217.417 923.082 217.65C922.449 217.883 921.786 218 921.092 218C920.392 218 919.719 217.85 919.072 217.55C918.426 217.257 917.856 216.857 917.362 216.35C916.876 215.843 916.512 215.27 916.272 214.63L918.182 213.77C918.316 214.183 918.529 214.55 918.822 214.87C919.122 215.19 919.469 215.443 919.862 215.63C920.262 215.817 920.672 215.91 921.092 215.91C921.506 215.91 921.902 215.843 922.282 215.71C922.669 215.583 923.012 215.403 923.312 215.17C923.619 214.937 923.862 214.657 924.042 214.33C924.222 214.003 924.312 213.647 924.312 213.26V211.57C923.986 212.077 923.566 212.487 923.052 212.8C922.539 213.107 921.942 213.26 921.262 213.26C920.556 213.26 919.889 213.123 919.262 212.85C918.636 212.577 918.086 212.2 917.612 211.72C917.139 211.233 916.769 210.673 916.502 210.04C916.236 209.407 916.102 208.727 916.102 208C916.102 207.273 916.236 206.593 916.502 205.96C916.769 205.32 917.139 204.76 917.612 204.28C918.086 203.793 918.636 203.413 919.262 203.14C919.889 202.867 920.556 202.73 921.262 202.73C921.942 202.73 922.539 202.887 923.052 203.2C923.566 203.507 923.986 203.917 924.312 204.43V203ZM921.282 211.25C921.862 211.25 922.369 211.103 922.802 210.81C923.236 210.51 923.572 210.113 923.812 209.62C924.052 209.127 924.172 208.587 924.172 208C924.172 207.4 924.049 206.857 923.802 206.37C923.562 205.877 923.226 205.483 922.792 205.19C922.359 204.89 921.856 204.74 921.282 204.74C920.722 204.74 920.209 204.887 919.742 205.18C919.282 205.473 918.916 205.867 918.642 206.36C918.369 206.853 918.232 207.4 918.232 208C918.232 208.6 918.369 209.147 918.642 209.64C918.922 210.133 919.292 210.527 919.752 210.82C920.219 211.107 920.729 211.25 921.282 211.25ZM934.977 203H937.197L931.717 218H929.507L931.317 213L927.727 203H929.997L932.357 210.15L934.977 203Z" fill="black"/>
<path fill-rule="evenodd" clip-rule="evenodd" d="M554 49L570.5 55.5H785V58.5H569.5L567 66.5L554 49Z" fill="black"/>
<path fill-rule="evenodd" clip-rule="evenodd" d="M608.5 121L625 127.5H832V130.5H624L621.5 138.5L608.5 121Z" fill="black"/>
<path fill-rule="evenodd" clip-rule="evenodd" d="M712 208L735 205.5H845V208.5H734L728.5 213.5L712 208Z" fill="black"/>
<path d="M219 361.964L336.234 156.586L437.866 117.297L519.44 3M519.44 3L659.853 189.625L747.221 221.771L823 361.964L672.334 221.771L564.461 299.904L625.53 197.662L519.44 3Z" stroke="black" stroke-width="3"/>
<path d="M801.5 324L791.5 334" stroke="black" stroke-width="0.5"/>
<path d="M796.5 315L785 326" stroke="black" stroke-width="0.5"/>
<path d="M807.5 331.5L799 340" stroke="black" stroke-width="0.5"/>
<path d="M790 303.5L776 317.5" stroke="black" stroke-width="0.5"/>
<path d="M782 288L764 306" stroke="black" stroke-width="0.5"/>
<path d="M769 263.5L744.5 288" stroke="black" stroke-width="0.5"/>
<path d="M757 242.5L727 272.5" stroke="black" stroke-width="0.5"/>
<path d="M747 222L707.5 255" stroke="black" stroke-width="0.5"/>
<path d="M711.5 210L687.5 234.5" stroke="black" stroke-width="0.5"/>
<path d="M687 199.5L672 221.5" stroke="black" stroke-width="0.5"/>
<path d="M576 281L581 287" stroke="black" stroke-width="0.5"/>
<path d="M584 268L595 278" stroke="black" stroke-width="0.5"/>
<path d="M591 257.5L603.5 270.5" stroke="black" stroke-width="0.5"/>
<path d="M597.5 245L616.5 261.5" stroke="black" stroke-width="0.5"/>
<path d="M607 230L630 251" stroke="black" stroke-width="0.5"/>
<path d="M618.5 211L653.5 236" stroke="black" stroke-width="0.5"/>
<path d="M626.5 198L672.5 220.5" stroke="black" stroke-width="0.5"/>
<path d="M659.5 191L626.5 198" stroke="black" stroke-width="0.5"/>
<path d="M641.5 166L613.5 174" stroke="black" stroke-width="0.5"/>
<path d="M620.5 138.5L599.5 148.5" stroke="black" stroke-width="0.5"/>
<path d="M609.5 122L590.5 132" stroke="black" stroke-width="0.5"/>
<path d="M596 104.5L578 111" stroke="black" stroke-width="0.5"/>
<path d="M582 86L568 91.5" stroke="black" stroke-width="0.5"/>
<path d="M569 69.5L558 72.5" stroke="black" stroke-width="0.5"/>
<path d="M557 51L547.5 55" stroke="black" stroke-width="0.5"/>
<path d="M219 360.501L823.003 361.608" stroke="black" stroke-width="3"/>
</svg>
