<svg width="146" height="26" viewBox="0 0 146 26" fill="none" xmlns="http://www.w3.org/2000/svg">
<g clip-path="url(#clip0_1005_15458)">
<mask id="mask0_1005_15458" style="mask-type:luminance" maskUnits="userSpaceOnUse" x="0" y="0" width="146" height="26">
<path d="M145.161 0.783936H0.491211V25.2087H145.161V0.783936Z" fill="white"/>
</mask>
<g mask="url(#mask0_1005_15458)">
<path d="M83.4315 1.875H77.3564V24.3769H83.4315V1.875Z" fill="#2F2F37"/>
<path d="M13.7226 15.7503C13.7226 16.4259 13.5681 17.0495 13.2592 17.6212C12.9503 18.1408 12.5384 18.6085 11.9721 18.9204C11.4573 19.2322 10.8395 19.3881 10.1187 19.3881C9.4494 19.3881 8.83159 19.2322 8.26527 18.9204C7.75043 18.6085 7.28708 18.1928 6.97818 17.6212C6.66927 17.0495 6.51482 16.4259 6.51482 15.7503V1.875H0.491211V16.322C0.491211 18.0369 0.903082 19.544 1.67534 20.7912C2.49908 22.0384 3.63173 23.0258 5.07327 23.7014C6.51482 24.3769 8.21379 24.6887 10.1187 24.6887C12.0236 24.6887 13.7226 24.3769 15.1641 23.7014C16.6057 23.0258 17.7383 22.0384 18.562 20.7912C19.3858 19.544 19.7977 18.0369 19.7977 16.322V1.875H13.7226V15.7503Z" fill="#2F2F37"/>
<path d="M71.2295 2.86238C69.9938 2.18681 68.5523 1.875 66.9048 1.875H57.2773V24.3769H63.301V17.6731H66.6474C68.3464 17.6731 69.8394 17.3613 71.1265 16.7377C72.4136 16.1141 73.3918 15.1787 74.1126 14.0354C74.8333 12.8401 75.1937 11.437 75.1937 9.82603C75.1937 8.21504 74.8333 6.81192 74.164 5.61666C73.4433 4.42141 72.4651 3.48599 71.2295 2.86238ZM68.3978 11.489C68.1404 11.9567 67.7286 12.3205 67.2137 12.5803C66.6989 12.8401 66.0811 12.9441 65.4118 12.9441H63.301V6.75995H65.4118C66.1326 6.75995 66.7504 6.86388 67.2137 7.12372C67.7286 7.38356 68.0889 7.69536 68.3978 8.16307C68.6553 8.63078 68.8097 9.15045 68.8097 9.82603C68.8097 10.4496 68.7068 11.0213 68.3978 11.489Z" fill="#2F2F37"/>
<path d="M125.752 1.875V6.81192H132.445V24.3769H138.417V6.81192H145.11V1.875H125.752Z" fill="#2F2F37"/>
<path d="M119.214 2.86239C117.566 1.97894 115.764 1.51123 113.705 1.51123C111.646 1.51123 109.844 1.97894 108.196 2.86239C106.549 3.74583 105.262 5.04502 104.283 6.75995C103.305 8.47488 102.842 10.6055 102.842 13.1C102.842 15.5944 103.305 17.6731 104.283 19.44C105.262 21.155 106.549 22.4541 108.196 23.3376C109.844 24.221 111.697 24.6887 113.705 24.6887C115.713 24.6887 117.566 24.273 119.214 23.3896C120.861 22.5061 122.148 21.2069 123.126 19.492C124.105 17.7771 124.568 15.6464 124.568 13.152C124.568 10.6575 124.105 8.52685 123.126 6.81192C122.2 5.04502 120.861 3.74583 119.214 2.86239ZM117.824 16.5298C117.463 17.4653 116.948 18.1408 116.279 18.6605C115.61 19.1282 114.735 19.3881 113.756 19.3881C112.778 19.3881 111.903 19.1282 111.234 18.6605C110.564 18.1928 110.05 17.4653 109.689 16.5298C109.329 15.5944 109.174 14.4511 109.174 13.1C109.174 11.7488 109.329 10.6055 109.689 9.67013C110.05 8.73472 110.564 8.05914 111.234 7.53946C111.903 7.07176 112.778 6.81192 113.756 6.81192C114.735 6.81192 115.61 7.07176 116.279 7.53946C116.948 8.00717 117.463 8.73472 117.824 9.67013C118.184 10.6055 118.338 11.7488 118.338 13.1C118.338 14.4511 118.184 15.5944 117.824 16.5298Z" fill="#2F2F37"/>
<path d="M92.3915 1.875H86.3164V24.3769H101.401V19.44H92.3915V1.875Z" fill="#2F2F37"/>
<path d="M71.2295 2.86238C69.9938 2.18681 68.5523 1.875 66.9048 1.875H57.2773V24.3769H63.301V17.6731H66.6474C68.3464 17.6731 69.8394 17.3613 71.1265 16.7377C72.4136 16.1141 73.3918 15.1787 74.1126 14.0354C74.8333 12.8401 75.1937 11.437 75.1937 9.82603C75.1937 8.21504 74.8333 6.81192 74.164 5.61666C73.4433 4.42141 72.4651 3.48599 71.2295 2.86238ZM68.3978 11.489C68.1404 11.9567 67.7286 12.3205 67.2137 12.5803C66.6989 12.8401 66.0811 12.9441 65.4118 12.9441H63.301V6.75995H65.4118C66.1326 6.75995 66.7504 6.86388 67.2137 7.12372C67.7286 7.38356 68.0889 7.69536 68.3978 8.16307C68.6553 8.63078 68.8097 9.15045 68.8097 9.82603C68.8097 10.4496 68.7068 11.0213 68.3978 11.489Z" fill="#3F20FB"/>
<path d="M13.7226 15.7503C13.7226 16.4259 13.5681 17.0495 13.2592 17.6212C12.9503 18.1408 12.5384 18.6085 11.9721 18.9204C11.4573 19.2322 10.8395 19.3881 10.1187 19.3881C9.4494 19.3881 8.83159 19.2322 8.26527 18.9204C7.75043 18.6085 7.28708 18.1928 6.97818 17.6212C6.66927 17.0495 6.51482 16.4259 6.51482 15.7503V1.875H0.491211V16.322C0.491211 18.0369 0.903082 19.544 1.67534 20.7912C2.49908 22.0384 3.63173 23.0258 5.07327 23.7014C6.51482 24.3769 8.21379 24.6887 10.1187 24.6887C12.0236 24.6887 13.7226 24.3769 15.1641 23.7014C16.6057 23.0258 17.7383 22.0384 18.562 20.7912C19.3858 19.544 19.7977 18.0369 19.7977 16.322V1.875H13.7226V15.7503Z" fill="#3F20FB"/>
<path d="M83.4315 1.875H77.3564V24.3769H83.4315V1.875Z" fill="#3F20FB"/>
<path d="M125.752 1.875V6.81192H132.445V24.3769H138.417V6.81192H145.11V1.875H125.752Z" fill="#3F20FB"/>
<path d="M92.3915 1.875H86.3164V24.3769H101.401V19.44H92.3915V1.875Z" fill="#3F20FB"/>
<path d="M119.214 2.86239C117.566 1.97894 115.764 1.51123 113.705 1.51123C111.646 1.51123 109.844 1.97894 108.196 2.86239C106.549 3.74583 105.262 5.04502 104.283 6.75995C103.305 8.47488 102.842 10.6055 102.842 13.1C102.842 15.5944 103.305 17.6731 104.283 19.44C105.262 21.155 106.549 22.4541 108.196 23.3376C109.844 24.221 111.697 24.6887 113.705 24.6887C115.713 24.6887 117.566 24.273 119.214 23.3896C120.861 22.5061 122.148 21.2069 123.126 19.492C124.105 17.7771 124.568 15.6464 124.568 13.152C124.568 10.6575 124.105 8.52685 123.126 6.81192C122.2 5.04502 120.861 3.74583 119.214 2.86239ZM117.824 16.5298C117.463 17.4653 116.948 18.1408 116.279 18.6605C115.61 19.1282 114.735 19.3881 113.756 19.3881C112.778 19.3881 111.903 19.1282 111.234 18.6605C110.564 18.1928 110.05 17.4653 109.689 16.5298C109.329 15.5944 109.174 14.4511 109.174 13.1C109.174 11.7488 109.329 10.6055 109.689 9.67013C110.05 8.73472 110.564 8.05914 111.234 7.53946C111.903 7.07176 112.778 6.81192 113.756 6.81192C114.735 6.81192 115.61 7.07176 116.279 7.53946C116.948 8.00717 117.463 8.73472 117.824 9.67013C118.184 10.6055 118.338 11.7488 118.338 13.1C118.338 14.4511 118.184 15.5944 117.824 16.5298Z" fill="#3F20FB"/>
<path d="M40.9568 1.35587C43.0676 -0.203155 45.7963 2.13538 44.6636 4.47392L40.4934 11.0218C40.0816 11.8533 40.1845 12.8927 40.6994 13.6202L45.8992 19.3886C47.4438 21.5193 45.127 24.2736 42.8102 23.1303L36.3232 18.9729C35.4995 18.5571 34.4698 18.6611 33.7491 19.1807L28.0343 24.4295C25.9235 25.9885 23.1949 23.6499 24.3275 21.3114L28.4977 14.7635C28.9096 13.932 28.8066 12.8927 28.2918 12.1651L23.0919 6.34476C21.5474 4.21409 23.8642 1.45981 26.1809 2.60309L32.6679 6.81246C33.4916 7.2282 34.5213 7.12427 35.2421 6.60459L40.9568 1.35587Z" fill="#77E7FF"/>
<path d="M42.9142 2.7066C45.2824 1.56331 47.5477 4.36956 46.0032 6.44826L40.7518 12.1647C40.1855 12.8922 40.0825 13.9316 40.4944 14.7631L44.6131 21.3629C45.7458 23.7534 42.9656 26.04 40.9063 24.481L35.2431 19.1803C34.5223 18.6087 33.4926 18.5047 32.6689 18.9205L26.1304 23.0779C23.7622 24.2212 21.4969 21.4149 23.0414 19.3362L28.2927 13.6198C28.8591 12.8922 28.962 11.8529 28.5502 11.0214L24.4315 4.42153C23.2988 2.03102 26.0789 -0.255553 28.1383 1.30347L33.8015 6.60416C34.5223 7.1758 35.552 7.27974 36.3757 6.864L42.9142 2.7066Z" fill="#B377FF"/>
<path d="M41.9364 1.92734C44.1502 0.57618 46.7244 3.12259 45.3344 5.35719L40.9582 11.5413C40.4949 12.3208 40.4949 13.3602 40.9582 14.1397L45.3344 20.3238C46.6729 22.5584 44.1502 25.1568 41.9364 23.7537L35.8099 19.3365C35.0376 18.8687 34.0079 18.8687 33.2357 19.3365L27.1091 23.7537C24.8438 25.2088 22.3211 22.6104 23.6597 20.3758L28.0358 14.1917C28.4991 13.4122 28.4991 12.3728 28.0358 11.5933L23.6597 5.40916C22.3211 3.17456 24.8438 0.57618 27.0576 1.9793L33.1842 6.39654C33.9564 6.86425 34.9861 6.86425 35.7584 6.39654L41.9364 1.92734Z" fill="#3F20FB"/>
</g>
</g>
<defs>
<clipPath id="clip0_1005_15458">
<rect width="144.67" height="24.4247" fill="white" transform="translate(0.491211 0.783936)"/>
</clipPath>
</defs>
</svg>
