<svg width="967" height="362" viewBox="0 0 967 362" fill="none" xmlns="http://www.w3.org/2000/svg">
<path d="M448.711 146.167L517.408 146.167" stroke="#C7C7C7"/>
<path d="M450.031 229.089H515.982" stroke="#C7C7C7"/>
<path d="M477.977 75.0908H486.484" stroke="#C7C7C7"/>
<path d="M446.758 158.013H522.862" stroke="#C7C7C7"/>
<path d="M455.477 240.935H512.075" stroke="#C7C7C7"/>
<path d="M457.496 110.629H509.187" stroke="#C7C7C7"/>
<path d="M444.969 193.551H522.86" stroke="#C7C7C7"/>
<path d="M471.676 276.473L495.059 276.473" stroke="#C7C7C7"/>
<path d="M469.93 86.9365H493.996" stroke="#C7C7C7"/>
<path d="M446.023 169.858H522.86" stroke="#C7C7C7"/>
<path d="M459.18 252.78L508.038 252.78" stroke="#C7C7C7"/>
<path d="M454.566 122.475H509.187" stroke="#C7C7C7"/>
<path d="M445.539 205.396H520.444" stroke="#C7C7C7"/>
<path d="M477.578 288.318C481.135 288.318 486.782 288.318 486.782 288.318" stroke="#C7C7C7"/>
<path d="M464.484 98.7832H500.832" stroke="#C7C7C7"/>
<path d="M444.449 181.705L522.86 181.705" stroke="#C7C7C7"/>
<path d="M464.16 264.626H502.21" stroke="#C7C7C7"/>
<path d="M450.418 134.32H517.406" stroke="#C7C7C7"/>
<path d="M447.41 217.242C447.41 217.242 514.299 217.256 518.57 217.242" stroke="#C7C7C7"/>
<path d="M490.312 238.524C490.312 239.868 489.984 241.04 489.328 242.04C488.672 243.032 487.792 243.804 486.688 244.356C485.576 244.9 484.344 245.172 482.992 245.172L473.2 245.172L473.2 242.676L482.992 242.676C483.872 242.676 484.68 242.516 485.416 242.196C486.144 241.868 486.728 241.396 487.168 240.78C487.6 240.156 487.816 239.404 487.816 238.524C487.816 237.62 487.6 236.86 487.168 236.244C486.728 235.628 486.144 235.164 485.416 234.852C484.68 234.532 483.872 234.372 482.992 234.372L473.2 234.372L473.2 231.876L482.992 231.876C484.008 231.876 484.96 232.032 485.848 232.344C486.728 232.656 487.504 233.104 488.176 233.688C488.848 234.272 489.372 234.972 489.748 235.788C490.124 236.604 490.312 237.516 490.312 238.524ZM490 229.768L481.552 223.612L473.2 229.696L473.2 226.612L479.44 222.076L473.2 217.528L473.2 214.444L481.552 220.516L490 214.372L490 217.468L483.688 222.076L490 226.66L490 229.768ZM490.312 200.562C490.312 201.482 490.168 202.366 489.88 203.214C489.592 204.062 489.18 204.802 488.644 205.434C488.1 206.066 487.456 206.518 486.712 206.79L485.836 204.45C486.22 204.314 486.564 204.054 486.868 203.67C487.164 203.278 487.396 202.814 487.564 202.278C487.732 201.734 487.816 201.162 487.816 200.562C487.816 199.922 487.712 199.322 487.504 198.762C487.296 198.194 487.008 197.738 486.64 197.394C486.272 197.042 485.84 196.866 485.344 196.866C484.832 196.866 484.412 197.05 484.084 197.418C483.756 197.778 483.496 198.242 483.304 198.81C483.112 199.37 482.968 199.954 482.872 200.562C482.68 201.738 482.4 202.794 482.032 203.73C481.664 204.658 481.148 205.394 480.484 205.938C479.82 206.474 478.956 206.742 477.892 206.742C476.892 206.742 476.02 206.458 475.276 205.89C474.532 205.314 473.956 204.558 473.548 203.622C473.132 202.678 472.924 201.658 472.924 200.562C472.924 199.658 473.068 198.786 473.356 197.946C473.636 197.098 474.048 196.354 474.592 195.714C475.128 195.066 475.78 194.602 476.548 194.322L477.4 196.686C477.008 196.822 476.668 197.082 476.38 197.466C476.084 197.85 475.852 198.314 475.684 198.858C475.516 199.394 475.432 199.962 475.432 200.562C475.424 201.202 475.528 201.802 475.744 202.362C475.952 202.914 476.24 203.366 476.608 203.718C476.976 204.07 477.404 204.246 477.892 204.246C478.492 204.246 478.948 204.082 479.26 203.754C479.572 203.426 479.804 202.986 479.956 202.434C480.1 201.874 480.232 201.25 480.352 200.562C480.528 199.458 480.82 198.438 481.228 197.502C481.636 196.558 482.18 195.802 482.86 195.234C483.532 194.658 484.36 194.37 485.344 194.37C486.336 194.37 487.208 194.658 487.96 195.234C488.704 195.802 489.284 196.558 489.7 197.502C490.108 198.438 490.312 199.458 490.312 200.562ZM480.496 185.614L480.496 188.134L490 188.146L490 190.642L480.496 190.63L480.496 192.538L478 192.538L478 190.63L474.232 190.642L474.232 188.146L478 188.134L478 185.614L480.496 185.614ZM490 183.513L478 183.513L478 181.017L479.272 181.017C478.776 180.601 478.384 180.089 478.096 179.481C477.808 178.873 477.664 178.217 477.664 177.513C477.664 177.065 477.724 176.621 477.844 176.181L480.364 177.177C480.244 177.489 480.184 177.801 480.184 178.113C480.184 178.641 480.316 179.125 480.58 179.565C480.836 180.005 481.184 180.357 481.624 180.621C482.064 180.885 482.552 181.017 483.088 181.017L490 181.017L490 183.513ZM478 166.069L478 163.573L490 163.573L490 166.081L488.26 166.177C488.876 166.529 489.372 167.005 489.748 167.605C490.124 168.205 490.312 168.913 490.312 169.729C490.312 170.609 490.148 171.437 489.82 172.213C489.484 172.989 489.02 173.673 488.428 174.265C487.836 174.849 487.156 175.305 486.388 175.633C485.612 175.961 484.78 176.125 483.892 176.125C483.036 176.125 482.232 175.965 481.48 175.645C480.72 175.325 480.056 174.881 479.488 174.313C478.92 173.745 478.476 173.089 478.156 172.345C477.828 171.593 477.664 170.789 477.664 169.933C477.664 169.061 477.864 168.293 478.264 167.629C478.656 166.957 479.16 166.401 479.776 165.961L478 166.069ZM487.9 169.789C487.9 169.085 487.728 168.469 487.384 167.941C487.032 167.413 486.56 167.005 485.968 166.717C485.376 166.421 484.72 166.273 484 166.273C483.272 166.273 482.612 166.421 482.02 166.717C481.428 167.013 480.96 167.425 480.616 167.953C480.264 168.473 480.088 169.085 480.088 169.789C480.088 170.485 480.264 171.121 480.616 171.697C480.968 172.273 481.44 172.729 482.032 173.065C482.624 173.401 483.28 173.569 484 173.569C484.728 173.569 485.388 173.397 485.98 173.053C486.564 172.701 487.032 172.241 487.384 171.673C487.728 171.097 487.9 170.469 487.9 169.789ZM480.496 154.89L480.496 157.41L490 157.422L490 159.918L480.496 159.906L480.496 161.814L478 161.814L478 159.906L474.232 159.918L474.232 157.422L478 157.41L478 154.89L480.496 154.89ZM490.312 147.791C490.312 148.895 490.028 149.903 489.46 150.815C488.892 151.719 488.132 152.443 487.18 152.987C486.22 153.523 485.16 153.791 484 153.791C483.12 153.791 482.3 153.635 481.54 153.323C480.772 153.011 480.1 152.583 479.524 152.039C478.94 151.487 478.484 150.847 478.156 150.119C477.828 149.391 477.664 148.615 477.664 147.791C477.664 146.871 477.856 146.027 478.24 145.259C478.616 144.491 479.14 143.835 479.812 143.291C480.476 142.747 481.244 142.347 482.116 142.091C482.98 141.835 483.9 141.759 484.876 141.863L484.876 151.115C485.428 151.011 485.928 150.811 486.376 150.515C486.816 150.211 487.164 149.827 487.42 149.363C487.676 148.891 487.808 148.367 487.816 147.791C487.816 147.183 487.664 146.631 487.36 146.135C487.056 145.631 486.636 145.219 486.1 144.899L486.688 142.367C487.752 142.847 488.624 143.571 489.304 144.539C489.976 145.507 490.312 146.591 490.312 147.791ZM482.968 151.199L482.968 144.383C482.392 144.463 481.872 144.667 481.408 144.995C480.936 145.315 480.564 145.719 480.292 146.207C480.012 146.687 479.872 147.215 479.872 147.791C479.872 148.359 480.008 148.887 480.28 149.375C480.552 149.855 480.924 150.255 481.396 150.575C481.86 150.887 482.384 151.095 482.968 151.199ZM478 130.815L478 128.319L490.312 128.319C491.136 128.319 491.896 128.495 492.592 128.847C493.288 129.191 493.888 129.659 494.392 130.251C494.904 130.843 495.3 131.523 495.58 132.291C495.86 133.051 496 133.847 496 134.679C496 135.519 495.82 136.327 495.46 137.103C495.108 137.879 494.628 138.563 494.02 139.155C493.412 139.739 492.724 140.175 491.956 140.463L490.924 138.171C491.42 138.011 491.86 137.755 492.244 137.403C492.628 137.043 492.932 136.627 493.156 136.155C493.38 135.675 493.492 135.183 493.492 134.679C493.492 134.183 493.412 133.707 493.252 133.251C493.1 132.787 492.884 132.375 492.604 132.015C492.324 131.647 491.988 131.355 491.596 131.139C491.204 130.923 490.776 130.815 490.312 130.815L488.284 130.815C488.892 131.207 489.384 131.711 489.76 132.327C490.128 132.943 490.312 133.659 490.312 134.475C490.312 135.323 490.148 136.123 489.82 136.875C489.492 137.627 489.04 138.287 488.464 138.855C487.88 139.423 487.208 139.867 486.448 140.187C485.688 140.507 484.872 140.667 484 140.667C483.128 140.667 482.312 140.507 481.552 140.187C480.784 139.867 480.112 139.423 479.536 138.855C478.952 138.287 478.496 137.627 478.168 136.875C477.84 136.123 477.676 135.323 477.676 134.475C477.676 133.659 477.864 132.943 478.24 132.327C478.608 131.711 479.1 131.207 479.716 130.815L478 130.815ZM487.9 134.451C487.9 133.755 487.724 133.147 487.372 132.627C487.012 132.107 486.536 131.703 485.944 131.415C485.352 131.127 484.704 130.983 484 130.983C483.28 130.983 482.628 131.131 482.044 131.427C481.452 131.715 480.98 132.119 480.628 132.639C480.268 133.159 480.088 133.763 480.088 134.451C480.088 135.123 480.264 135.739 480.616 136.299C480.968 136.851 481.44 137.291 482.032 137.619C482.624 137.947 483.28 138.111 484 138.111C484.72 138.111 485.376 137.947 485.968 137.619C486.56 137.283 487.032 136.839 487.384 136.287C487.728 135.727 487.9 135.115 487.9 134.451ZM478 118.018L478 115.354L496 121.93L496 124.582L490 122.41L478 126.718L478 123.994L486.58 121.162L478 118.018Z" fill="black"/>
<path d="M231.715 189V173.377H237.462C238.31 173.377 239.073 173.586 239.75 174.002C240.427 174.419 240.962 174.981 241.356 175.687C241.758 176.387 241.959 177.168 241.959 178.031C241.959 178.76 241.821 179.426 241.546 180.028C241.278 180.631 240.899 181.144 240.408 181.568C239.924 181.992 239.37 182.297 238.745 182.483L242.517 189H239.828L236.167 182.695H234.036V189H231.715ZM234.036 180.374H237.216C237.663 180.374 238.068 180.262 238.433 180.039C238.805 179.816 239.099 179.519 239.314 179.147C239.53 178.775 239.638 178.354 239.638 177.886C239.638 177.417 239.53 176.997 239.314 176.625C239.099 176.245 238.805 175.948 238.433 175.732C238.068 175.509 237.663 175.397 237.216 175.397H234.036V180.374ZM248.982 189.29C247.955 189.29 247.018 189.026 246.17 188.498C245.329 187.97 244.656 187.263 244.15 186.378C243.651 185.485 243.402 184.499 243.402 183.42C243.402 182.602 243.547 181.84 243.837 181.133C244.128 180.419 244.526 179.794 245.031 179.258C245.545 178.715 246.14 178.291 246.817 177.986C247.494 177.681 248.215 177.528 248.982 177.528C249.837 177.528 250.622 177.707 251.336 178.064C252.05 178.414 252.661 178.901 253.166 179.526C253.672 180.143 254.044 180.858 254.282 181.669C254.52 182.472 254.591 183.327 254.494 184.235H245.891C245.987 184.748 246.173 185.213 246.449 185.63C246.731 186.039 247.088 186.363 247.52 186.601C247.959 186.839 248.446 186.962 248.982 186.969C249.547 186.969 250.06 186.828 250.522 186.545C250.99 186.262 251.374 185.872 251.671 185.373L254.026 185.92C253.579 186.91 252.906 187.72 252.006 188.353C251.106 188.978 250.098 189.29 248.982 189.29ZM245.813 182.461H252.151C252.077 181.925 251.887 181.442 251.582 181.01C251.284 180.571 250.909 180.225 250.455 179.972C250.008 179.712 249.517 179.582 248.982 179.582C248.454 179.582 247.963 179.708 247.509 179.961C247.062 180.214 246.69 180.56 246.393 180.999C246.103 181.43 245.909 181.918 245.813 182.461ZM261.476 189.312C260.397 189.312 259.412 189.048 258.519 188.52C257.634 187.992 256.927 187.282 256.399 186.389C255.87 185.496 255.606 184.507 255.606 183.42C255.606 182.61 255.759 181.851 256.064 181.144C256.369 180.437 256.789 179.816 257.325 179.28C257.868 178.737 258.493 178.313 259.2 178.008C259.906 177.703 260.665 177.551 261.476 177.551C262.265 177.551 262.949 177.729 263.529 178.086C264.11 178.444 264.586 178.908 264.958 179.481V177.841H267.279V194.58H264.958V187.382C264.586 187.947 264.11 188.412 263.529 188.777C262.949 189.134 262.265 189.312 261.476 189.312ZM261.498 179.794C260.851 179.794 260.26 179.957 259.724 180.285C259.188 180.612 258.764 181.051 258.452 181.602C258.139 182.152 257.983 182.758 257.983 183.42C257.983 184.097 258.143 184.711 258.463 185.262C258.783 185.812 259.207 186.251 259.735 186.578C260.271 186.898 260.859 187.058 261.498 187.058C262.153 187.058 262.726 186.895 263.217 186.567C263.708 186.24 264.087 185.801 264.355 185.251C264.623 184.7 264.757 184.09 264.757 183.42C264.757 182.751 264.619 182.145 264.344 181.602C264.076 181.051 263.697 180.612 263.206 180.285C262.722 179.957 262.153 179.794 261.498 179.794ZM269.189 184.815V177.841H271.51V184.246C271.51 184.745 271.633 185.198 271.878 185.608C272.124 186.017 272.451 186.344 272.86 186.59C273.269 186.828 273.719 186.947 274.21 186.947C274.709 186.947 275.159 186.828 275.561 186.59C275.97 186.344 276.293 186.017 276.532 185.608C276.777 185.198 276.9 184.745 276.9 184.246V177.841H279.221L279.232 189H276.911L276.9 187.795C276.52 188.256 276.048 188.621 275.483 188.888C274.917 189.156 274.311 189.29 273.664 189.29C272.838 189.29 272.087 189.089 271.41 188.688C270.733 188.286 270.193 187.746 269.791 187.069C269.39 186.393 269.189 185.641 269.189 184.815ZM281.425 177.841H283.746V189H281.425V177.841ZM282.608 176.223C282.251 176.223 281.953 176.108 281.715 175.877C281.477 175.646 281.358 175.356 281.358 175.007C281.358 174.664 281.477 174.378 281.715 174.147C281.953 173.909 282.247 173.79 282.597 173.79C282.939 173.79 283.229 173.909 283.467 174.147C283.705 174.378 283.824 174.664 283.824 175.007C283.824 175.356 283.705 175.646 283.467 175.877C283.237 176.108 282.95 176.223 282.608 176.223ZM286.285 189V177.841H288.606V179.024C288.992 178.563 289.469 178.198 290.034 177.93C290.599 177.662 291.209 177.528 291.864 177.528C292.281 177.528 292.694 177.584 293.103 177.696L292.177 180.039C291.886 179.928 291.596 179.872 291.306 179.872C290.815 179.872 290.365 179.995 289.956 180.24C289.547 180.478 289.219 180.802 288.974 181.211C288.728 181.62 288.606 182.074 288.606 182.572V189H286.285ZM298.735 189.29C297.708 189.29 296.771 189.026 295.922 188.498C295.082 187.97 294.409 187.263 293.903 186.378C293.404 185.485 293.155 184.499 293.155 183.42C293.155 182.602 293.3 181.84 293.59 181.133C293.88 180.419 294.278 179.794 294.784 179.258C295.298 178.715 295.893 178.291 296.57 177.986C297.247 177.681 297.968 177.528 298.735 177.528C299.59 177.528 300.375 177.707 301.089 178.064C301.803 178.414 302.413 178.901 302.919 179.526C303.425 180.143 303.797 180.858 304.035 181.669C304.273 182.472 304.344 183.327 304.247 184.235H295.643C295.74 184.748 295.926 185.213 296.201 185.63C296.484 186.039 296.841 186.363 297.273 186.601C297.712 186.839 298.199 186.962 298.735 186.969C299.3 186.969 299.813 186.828 300.275 186.545C300.743 186.262 301.126 185.872 301.424 185.373L303.778 185.92C303.332 186.91 302.659 187.72 301.759 188.353C300.858 188.978 299.85 189.29 298.735 189.29ZM295.565 182.461H301.904C301.829 181.925 301.64 181.442 301.335 181.01C301.037 180.571 300.661 180.225 300.208 179.972C299.761 179.712 299.27 179.582 298.735 179.582C298.206 179.582 297.715 179.708 297.262 179.961C296.815 180.214 296.443 180.56 296.146 180.999C295.856 181.43 295.662 181.918 295.565 182.461ZM306.051 189V177.841H308.372V179.024C308.758 178.563 309.231 178.198 309.789 177.93C310.354 177.662 310.964 177.528 311.619 177.528C312.415 177.528 313.148 177.722 313.817 178.109C314.487 178.488 315.019 178.994 315.413 179.626C315.807 178.994 316.332 178.488 316.986 178.109C317.649 177.722 318.378 177.528 319.174 177.528C319.999 177.528 320.751 177.729 321.428 178.131C322.105 178.533 322.644 179.072 323.046 179.749C323.448 180.426 323.648 181.178 323.648 182.003V189H321.327V182.595C321.327 182.104 321.208 181.654 320.97 181.244C320.732 180.835 320.412 180.504 320.011 180.251C319.609 179.998 319.162 179.872 318.671 179.872C318.18 179.872 317.734 179.991 317.332 180.229C316.931 180.467 316.611 180.791 316.373 181.2C316.135 181.609 316.016 182.074 316.016 182.595V189H313.694V182.595C313.694 182.074 313.575 181.609 313.337 181.2C313.099 180.791 312.776 180.467 312.367 180.229C311.965 179.991 311.518 179.872 311.027 179.872C310.544 179.872 310.098 179.998 309.688 180.251C309.287 180.504 308.967 180.835 308.729 181.244C308.491 181.654 308.372 182.104 308.372 182.595V189H306.051ZM330.531 189.29C329.505 189.29 328.567 189.026 327.719 188.498C326.879 187.97 326.205 187.263 325.7 186.378C325.201 185.485 324.952 184.499 324.952 183.42C324.952 182.602 325.097 181.84 325.387 181.133C325.677 180.419 326.075 179.794 326.581 179.258C327.094 178.715 327.69 178.291 328.367 177.986C329.044 177.681 329.765 177.528 330.531 177.528C331.387 177.528 332.172 177.707 332.886 178.064C333.6 178.414 334.21 178.901 334.716 179.526C335.222 180.143 335.594 180.858 335.832 181.669C336.07 182.472 336.141 183.327 336.044 184.235H327.44C327.537 184.748 327.723 185.213 327.998 185.63C328.281 186.039 328.638 186.363 329.07 186.601C329.508 186.839 329.996 186.962 330.531 186.969C331.097 186.969 331.61 186.828 332.071 186.545C332.54 186.262 332.923 185.872 333.221 185.373L335.575 185.92C335.129 186.91 334.456 187.72 333.556 188.353C332.655 188.978 331.647 189.29 330.531 189.29ZM327.362 182.461H333.701C333.626 181.925 333.436 181.442 333.131 181.01C332.834 180.571 332.458 180.225 332.004 179.972C331.558 179.712 331.067 179.582 330.531 179.582C330.003 179.582 329.512 179.708 329.058 179.961C328.612 180.214 328.24 180.56 327.943 180.999C327.652 181.43 327.459 181.918 327.362 182.461ZM347.891 182.003V189H345.569V182.572C345.569 182.074 345.447 181.62 345.201 181.211C344.963 180.802 344.64 180.478 344.23 180.24C343.829 179.995 343.375 179.872 342.869 179.872C342.378 179.872 341.928 179.995 341.519 180.24C341.11 180.478 340.782 180.802 340.537 181.211C340.291 181.62 340.168 182.074 340.168 182.572V189H337.847V177.841H340.168V179.024C340.555 178.563 341.031 178.198 341.597 177.93C342.162 177.662 342.772 177.528 343.427 177.528C344.253 177.528 345.004 177.729 345.681 178.131C346.358 178.533 346.894 179.072 347.288 179.749C347.69 180.426 347.891 181.178 347.891 182.003ZM355.965 180.162H353.622L353.611 189H351.29L351.301 180.162H349.527V177.841H351.301L351.29 174.337H353.611L353.622 177.841H355.965V180.162ZM251.837 218.29C250.751 218.29 249.739 218.082 248.802 217.665C247.872 217.241 247.057 216.657 246.358 215.913C245.666 215.162 245.123 214.295 244.729 213.313C244.342 212.331 244.148 211.286 244.148 210.178C244.148 209.01 244.357 207.935 244.773 206.953C245.19 205.971 245.759 205.119 246.481 204.397C247.202 203.668 248.024 203.103 248.947 202.701C249.877 202.299 250.851 202.098 251.871 202.098C253.024 202.098 254.132 202.366 255.196 202.902C256.26 203.437 257.186 204.241 257.975 205.312L255.899 206.439C255.363 205.77 254.738 205.264 254.024 204.922C253.318 204.579 252.592 204.408 251.848 204.408C251.127 204.408 250.442 204.557 249.795 204.855C249.148 205.145 248.575 205.554 248.076 206.082C247.578 206.603 247.184 207.217 246.894 207.923C246.611 208.623 246.47 209.385 246.47 210.211C246.47 211.007 246.607 211.755 246.882 212.454C247.165 213.153 247.552 213.767 248.043 214.295C248.541 214.816 249.114 215.225 249.761 215.523C250.416 215.82 251.115 215.969 251.859 215.969C252.41 215.969 252.938 215.88 253.444 215.701C253.95 215.523 254.419 215.27 254.85 214.942C255.289 214.608 255.672 214.21 255.999 213.748C256.327 213.287 256.587 212.774 256.781 212.208H253.466V210.155H259.503C259.518 211.271 259.325 212.32 258.923 213.302C258.529 214.284 257.978 215.151 257.272 215.902C256.572 216.646 255.758 217.23 254.828 217.654C253.898 218.078 252.901 218.29 251.837 218.29ZM270.08 206.841H272.401V218H270.068L269.979 216.382C269.652 216.955 269.209 217.416 268.651 217.766C268.093 218.115 267.435 218.29 266.676 218.29C265.858 218.29 265.088 218.138 264.366 217.833C263.644 217.52 263.008 217.089 262.458 216.538C261.915 215.988 261.491 215.355 261.186 214.641C260.881 213.92 260.728 213.146 260.728 212.32C260.728 211.524 260.877 210.776 261.175 210.077C261.472 209.37 261.885 208.753 262.413 208.225C262.941 207.696 263.551 207.284 264.243 206.986C264.943 206.681 265.69 206.528 266.486 206.528C267.297 206.528 268.011 206.714 268.629 207.086C269.254 207.451 269.771 207.92 270.18 208.492L270.08 206.841ZM266.62 216.047C267.275 216.047 267.848 215.887 268.339 215.567C268.83 215.24 269.209 214.801 269.477 214.251C269.752 213.7 269.89 213.09 269.89 212.42C269.89 211.743 269.752 211.13 269.477 210.579C269.202 210.029 268.819 209.594 268.328 209.274C267.844 208.946 267.275 208.783 266.62 208.783C265.973 208.783 265.382 208.946 264.846 209.274C264.31 209.601 263.886 210.04 263.574 210.59C263.261 211.141 263.105 211.751 263.105 212.42C263.105 213.097 263.265 213.711 263.585 214.262C263.912 214.805 264.34 215.24 264.868 215.567C265.404 215.887 265.988 216.047 266.62 216.047ZM280.475 209.162H278.131L278.12 218H275.799L275.81 209.162H274.036V206.841H275.81L275.799 203.337H278.12L278.131 206.841H280.475V209.162ZM292.471 211.003V218H290.15V211.572C290.15 211.074 290.027 210.62 289.782 210.211C289.544 209.802 289.22 209.478 288.811 209.24C288.409 208.995 287.955 208.872 287.449 208.872C286.958 208.872 286.508 208.995 286.099 209.24C285.69 209.478 285.363 209.802 285.117 210.211C284.872 210.62 284.749 211.074 284.749 211.572V218H282.428V201.261H284.749V208.024C285.136 207.563 285.612 207.198 286.177 206.93C286.743 206.662 287.353 206.528 288.007 206.528C288.833 206.528 289.585 206.729 290.262 207.131C290.939 207.533 291.474 208.072 291.868 208.749C292.27 209.426 292.471 210.178 292.471 211.003ZM299.346 218.29C298.319 218.29 297.382 218.026 296.534 217.498C295.693 216.97 295.02 216.263 294.514 215.378C294.016 214.485 293.766 213.499 293.766 212.42C293.766 211.602 293.911 210.84 294.202 210.133C294.492 209.419 294.89 208.794 295.396 208.258C295.909 207.715 296.504 207.291 297.181 206.986C297.858 206.681 298.58 206.528 299.346 206.528C300.201 206.528 300.986 206.707 301.7 207.064C302.415 207.414 303.025 207.901 303.531 208.526C304.036 209.143 304.408 209.858 304.646 210.669C304.884 211.472 304.955 212.327 304.858 213.235L296.255 213.235C296.352 213.748 296.538 214.213 296.813 214.63C297.095 215.039 297.453 215.363 297.884 215.601C298.323 215.839 298.81 215.962 299.346 215.969C299.911 215.969 300.425 215.828 300.886 215.545C301.354 215.262 301.738 214.872 302.035 214.373L304.39 214.92C303.943 215.91 303.27 216.72 302.37 217.353C301.47 217.978 300.462 218.29 299.346 218.29ZM296.177 211.461H302.515C302.441 210.925 302.251 210.442 301.946 210.01C301.648 209.571 301.273 209.225 300.819 208.972C300.372 208.712 299.881 208.582 299.346 208.582C298.818 208.582 298.327 208.708 297.873 208.961C297.427 209.214 297.055 209.56 296.757 209.999C296.467 210.43 296.273 210.918 296.177 211.461ZM306.662 218V206.841H308.983V208.024C309.37 207.563 309.846 207.198 310.411 206.93C310.977 206.662 311.587 206.528 312.241 206.528C312.658 206.528 313.071 206.584 313.48 206.696L312.554 209.039C312.264 208.928 311.974 208.872 311.683 208.872C311.192 208.872 310.742 208.995 310.333 209.24C309.924 209.478 309.597 209.802 309.351 210.211C309.106 210.62 308.983 211.074 308.983 211.572V218H306.662ZM314.725 206.841H317.046V218H314.725V206.841ZM315.908 205.223C315.551 205.223 315.253 205.108 315.015 204.877C314.777 204.646 314.658 204.356 314.658 204.007C314.658 203.664 314.777 203.378 315.015 203.147C315.253 202.909 315.547 202.79 315.897 202.79C316.239 202.79 316.529 202.909 316.767 203.147C317.005 203.378 317.124 203.664 317.124 204.007C317.124 204.356 317.005 204.646 316.767 204.877C316.536 205.108 316.25 205.223 315.908 205.223ZM329.627 211.003V218H327.306V211.572C327.306 211.074 327.184 210.62 326.938 210.211C326.7 209.802 326.376 209.478 325.967 209.24C325.565 208.995 325.112 208.872 324.606 208.872C324.115 208.872 323.665 208.995 323.256 209.24C322.846 209.478 322.519 209.802 322.274 210.211C322.028 210.62 321.905 211.074 321.905 211.572V218H319.584V206.841H321.905V208.024C322.292 207.563 322.768 207.198 323.334 206.93C323.899 206.662 324.509 206.528 325.164 206.528C325.989 206.528 326.741 206.729 327.418 207.131C328.095 207.533 328.63 208.072 329.025 208.749C329.426 209.426 329.627 210.178 329.627 211.003ZM340.084 206.841L342.405 206.841V218.29C342.405 219.056 342.242 219.763 341.914 220.41C341.594 221.058 341.159 221.616 340.609 222.084C340.058 222.56 339.426 222.929 338.712 223.189C338.005 223.449 337.265 223.58 336.491 223.58C335.71 223.58 334.959 223.412 334.237 223.077C333.515 222.75 332.879 222.304 332.329 221.738C331.786 221.173 331.38 220.533 331.112 219.819L333.244 218.859C333.393 219.32 333.631 219.73 333.958 220.087C334.293 220.444 334.68 220.727 335.118 220.935C335.565 221.143 336.022 221.247 336.491 221.247C336.952 221.247 337.395 221.173 337.819 221.024C338.25 220.883 338.634 220.682 338.968 220.422C339.311 220.161 339.582 219.849 339.783 219.484C339.984 219.12 340.084 218.722 340.084 218.29V216.404C339.72 216.97 339.251 217.427 338.678 217.777C338.105 218.119 337.44 218.29 336.681 218.29C335.892 218.29 335.148 218.138 334.449 217.833C333.75 217.528 333.136 217.107 332.608 216.572C332.079 216.029 331.667 215.404 331.369 214.697C331.071 213.99 330.923 213.231 330.923 212.42C330.923 211.61 331.071 210.851 331.369 210.144C331.667 209.43 332.079 208.805 332.608 208.269C333.136 207.726 333.75 207.302 334.449 206.997C335.148 206.692 335.892 206.54 336.681 206.54C337.44 206.54 338.105 206.714 338.678 207.064C339.251 207.406 339.72 207.864 340.084 208.437V206.841ZM336.703 216.047C337.35 216.047 337.916 215.883 338.399 215.556C338.883 215.221 339.258 214.779 339.526 214.228C339.794 213.678 339.928 213.075 339.928 212.42C339.928 211.751 339.79 211.145 339.515 210.602C339.247 210.051 338.872 209.612 338.388 209.285C337.905 208.95 337.343 208.783 336.703 208.783C336.078 208.783 335.505 208.946 334.985 209.274C334.471 209.601 334.062 210.04 333.757 210.59C333.452 211.141 333.3 211.751 333.3 212.42C333.3 213.09 333.452 213.7 333.757 214.251C334.07 214.801 334.482 215.24 334.996 215.567C335.516 215.887 336.086 216.047 336.703 216.047Z" fill="black"/>
<path d="M632.597 189V173.377H637.764C638.843 173.377 639.854 173.582 640.799 173.991C641.744 174.393 642.574 174.954 643.288 175.676C644.002 176.39 644.56 177.22 644.962 178.165C645.371 179.102 645.575 180.11 645.575 181.189C645.575 182.267 645.371 183.279 644.962 184.224C644.56 185.161 644.002 185.991 643.288 186.712C642.574 187.427 641.744 187.988 640.799 188.397C639.854 188.799 638.843 189 637.764 189H632.597ZM634.918 186.679H637.764C638.523 186.679 639.23 186.538 639.884 186.255C640.546 185.972 641.13 185.578 641.636 185.072C642.149 184.566 642.548 183.982 642.83 183.32C643.113 182.658 643.254 181.947 643.254 181.189C643.254 180.43 643.113 179.719 642.83 179.057C642.548 178.395 642.149 177.811 641.636 177.305C641.13 176.799 640.546 176.405 639.884 176.122C639.23 175.84 638.523 175.698 637.764 175.698H634.918V186.679ZM652.174 189.29C651.148 189.29 650.21 189.026 649.362 188.498C648.522 187.97 647.848 187.263 647.342 186.378C646.844 185.485 646.595 184.499 646.595 183.42C646.595 182.602 646.74 181.84 647.03 181.133C647.32 180.419 647.718 179.794 648.224 179.258C648.737 178.715 649.332 178.291 650.009 177.986C650.686 177.681 651.408 177.528 652.174 177.528C653.03 177.528 653.815 177.707 654.529 178.064C655.243 178.414 655.853 178.901 656.359 179.526C656.865 180.143 657.237 180.858 657.475 181.669C657.713 182.472 657.784 183.327 657.687 184.235L649.083 184.235C649.18 184.748 649.366 185.213 649.641 185.63C649.924 186.039 650.281 186.363 650.712 186.601C651.151 186.839 651.639 186.962 652.174 186.969C652.74 186.969 653.253 186.828 653.714 186.545C654.183 186.262 654.566 185.872 654.864 185.373L657.218 185.92C656.772 186.91 656.099 187.72 655.198 188.353C654.298 188.978 653.29 189.29 652.174 189.29ZM649.005 182.461H655.344C655.269 181.925 655.079 181.442 654.774 181.01C654.477 180.571 654.101 180.225 653.647 179.972C653.201 179.712 652.71 179.582 652.174 179.582C651.646 179.582 651.155 179.708 650.701 179.961C650.255 180.214 649.883 180.56 649.585 180.999C649.295 181.43 649.102 181.918 649.005 182.461ZM662.882 189.212C662.294 189.175 661.721 189.056 661.163 188.855C660.605 188.654 660.114 188.383 659.69 188.04C659.274 187.691 658.961 187.282 658.753 186.813L660.728 185.965C660.825 186.166 660.992 186.363 661.23 186.556C661.476 186.75 661.762 186.91 662.089 187.036C662.417 187.155 662.759 187.215 663.116 187.215C663.466 187.215 663.789 187.166 664.087 187.069C664.392 186.965 664.641 186.809 664.834 186.601C665.028 186.393 665.125 186.143 665.125 185.853C665.125 185.526 665.013 185.273 664.79 185.094C664.574 184.908 664.303 184.767 663.975 184.67C663.648 184.574 663.321 184.481 662.993 184.391C662.264 184.228 661.595 184.004 660.985 183.722C660.382 183.432 659.902 183.063 659.545 182.617C659.188 182.163 659.009 181.609 659.009 180.954C659.009 180.24 659.203 179.623 659.59 179.102C659.977 178.574 660.482 178.168 661.107 177.886C661.74 177.603 662.413 177.462 663.127 177.462C664.02 177.462 664.838 177.651 665.582 178.031C666.326 178.41 666.895 178.931 667.289 179.593L665.448 180.687C665.337 180.463 665.169 180.262 664.946 180.084C664.723 179.905 664.47 179.764 664.187 179.66C663.905 179.548 663.611 179.485 663.306 179.47C662.926 179.455 662.573 179.5 662.246 179.604C661.926 179.701 661.669 179.857 661.476 180.073C661.282 180.288 661.185 180.564 661.185 180.899C661.185 181.226 661.301 181.471 661.531 181.635C661.762 181.791 662.052 181.918 662.402 182.014C662.759 182.111 663.123 182.219 663.495 182.338C664.157 182.546 664.779 182.803 665.359 183.108C665.939 183.406 666.408 183.774 666.765 184.213C667.122 184.652 667.293 185.187 667.278 185.82C667.278 186.519 667.066 187.133 666.642 187.661C666.226 188.189 665.683 188.591 665.013 188.866C664.343 189.141 663.633 189.257 662.882 189.212ZM668.948 177.841H671.269V189H668.948V177.841ZM670.131 176.223C669.774 176.223 669.477 176.108 669.238 175.877C669 175.646 668.881 175.356 668.881 175.007C668.881 174.664 669 174.378 669.238 174.147C669.477 173.909 669.77 173.79 670.12 173.79C670.462 173.79 670.752 173.909 670.99 174.147C671.228 174.378 671.348 174.664 671.348 175.007C671.348 175.356 671.228 175.646 670.99 175.877C670.76 176.108 670.473 176.223 670.131 176.223ZM673.808 189V177.841H676.129V179.024C676.515 178.563 676.992 178.198 677.557 177.93C678.122 177.662 678.732 177.528 679.387 177.528C679.804 177.528 680.217 177.584 680.626 177.696L679.7 180.039C679.409 179.928 679.119 179.872 678.829 179.872C678.338 179.872 677.888 179.995 677.479 180.24C677.07 180.478 676.742 180.802 676.497 181.211C676.251 181.62 676.129 182.074 676.129 182.572V189L673.808 189ZM686.258 189.29C685.231 189.29 684.294 189.026 683.445 188.498C682.605 187.97 681.932 187.263 681.426 186.378C680.927 185.485 680.678 184.499 680.678 183.42C680.678 182.602 680.823 181.84 681.113 181.133C681.403 180.419 681.801 179.794 682.307 179.258C682.821 178.715 683.416 178.291 684.093 177.986C684.77 177.681 685.491 177.528 686.258 177.528C687.113 177.528 687.898 177.707 688.612 178.064C689.326 178.414 689.936 178.901 690.442 179.526C690.948 180.143 691.32 180.858 691.558 181.669C691.796 182.472 691.867 183.327 691.77 184.235H683.167C683.263 184.748 683.449 185.213 683.724 185.63C684.007 186.039 684.364 186.363 684.796 186.601C685.235 186.839 685.722 186.962 686.258 186.969C686.823 186.969 687.336 186.828 687.798 186.545C688.266 186.262 688.649 185.872 688.947 185.373L691.301 185.92C690.855 186.91 690.182 187.72 689.282 188.353C688.382 188.978 687.373 189.29 686.258 189.29ZM683.088 182.461H689.427C689.352 181.925 689.163 181.442 688.858 181.01C688.56 180.571 688.184 180.225 687.731 179.972C687.284 179.712 686.793 179.582 686.258 179.582C685.729 179.582 685.238 179.708 684.785 179.961C684.338 180.214 683.966 180.56 683.669 180.999C683.379 181.43 683.185 181.918 683.088 182.461ZM702.245 172.261H704.566V189H702.245V187.36C701.88 187.94 701.404 188.409 700.816 188.766C700.229 189.115 699.54 189.29 698.752 189.29C697.941 189.29 697.182 189.138 696.475 188.833C695.769 188.528 695.144 188.107 694.601 187.572C694.065 187.029 693.645 186.404 693.34 185.697C693.035 184.99 692.882 184.231 692.882 183.42C692.882 182.61 693.035 181.851 693.34 181.144C693.645 180.43 694.065 179.805 694.601 179.269C695.144 178.726 695.769 178.302 696.475 177.997C697.182 177.692 697.941 177.54 698.752 177.54C699.54 177.54 700.229 177.718 700.816 178.075C701.404 178.425 701.88 178.886 702.245 179.459V172.261ZM698.774 187.047C699.429 187.047 700.002 186.887 700.493 186.567C700.984 186.24 701.363 185.801 701.631 185.251C701.906 184.7 702.044 184.09 702.044 183.42C702.044 182.743 701.906 182.13 701.631 181.579C701.356 181.029 700.973 180.594 700.482 180.274C699.998 179.946 699.429 179.783 698.774 179.783C698.127 179.783 697.536 179.946 697 180.274C696.472 180.601 696.048 181.04 695.728 181.59C695.415 182.141 695.259 182.751 695.259 183.42C695.259 184.097 695.419 184.711 695.739 185.262C696.066 185.805 696.494 186.24 697.022 186.567C697.558 186.887 698.142 187.047 698.774 187.047ZM626.665 218.29C625.609 218.29 624.616 218.082 623.686 217.665C622.756 217.241 621.938 216.657 621.231 215.913C620.524 215.169 619.97 214.31 619.568 213.336C619.166 212.354 618.966 211.305 618.966 210.189C618.966 209.073 619.166 208.028 619.568 207.053C619.97 206.071 620.524 205.208 621.231 204.464C621.938 203.72 622.756 203.14 623.686 202.723C624.616 202.299 625.609 202.087 626.665 202.087C627.729 202.087 628.726 202.299 629.656 202.723C630.586 203.14 631.404 203.72 632.111 204.464C632.818 205.208 633.368 206.071 633.762 207.053C634.164 208.028 634.365 209.073 634.365 210.189C634.365 211.305 634.164 212.354 633.762 213.336C633.368 214.31 632.818 215.169 632.111 215.913C631.404 216.657 630.586 217.241 629.656 217.665C628.726 218.082 627.729 218.29 626.665 218.29ZM626.665 215.969C627.409 215.969 628.105 215.817 628.752 215.512C629.399 215.207 629.968 214.79 630.459 214.262C630.958 213.726 631.345 213.112 631.62 212.42C631.903 211.721 632.044 210.977 632.044 210.189C632.044 209.4 631.903 208.656 631.62 207.957C631.345 207.258 630.958 206.644 630.459 206.116C629.968 205.58 629.399 205.163 628.752 204.866C628.105 204.561 627.409 204.408 626.665 204.408C625.921 204.408 625.226 204.561 624.579 204.866C623.931 205.171 623.358 205.591 622.86 206.127C622.369 206.655 621.982 207.269 621.699 207.968C621.424 208.66 621.287 209.4 621.287 210.189C621.287 210.985 621.424 211.732 621.699 212.432C621.982 213.123 622.369 213.737 622.86 214.273C623.358 214.801 623.931 215.218 624.579 215.523C625.226 215.82 625.921 215.969 626.665 215.969ZM635.812 213.815V206.841H638.133V213.246C638.133 213.745 638.256 214.198 638.501 214.608C638.747 215.017 639.074 215.344 639.483 215.59C639.893 215.828 640.343 215.947 640.834 215.947C641.332 215.947 641.782 215.828 642.184 215.59C642.593 215.344 642.917 215.017 643.155 214.608C643.4 214.198 643.523 213.745 643.523 213.246V206.841H645.844L645.855 218H643.534L643.523 216.795C643.144 217.256 642.671 217.621 642.106 217.888C641.54 218.156 640.934 218.29 640.287 218.29C639.461 218.29 638.71 218.089 638.033 217.688C637.356 217.286 636.816 216.746 636.415 216.069C636.013 215.393 635.812 214.641 635.812 213.815ZM653.94 209.162H651.597L651.586 218H649.265L649.276 209.162H647.502V206.841H649.276L649.265 203.337H651.586L651.597 206.841H653.94V209.162ZM662.919 214.831L664.995 215.958C664.489 216.665 663.845 217.23 663.064 217.654C662.29 218.078 661.45 218.29 660.542 218.29C659.515 218.29 658.578 218.026 657.73 217.498C656.889 216.97 656.216 216.263 655.71 215.378C655.212 214.485 654.963 213.499 654.963 212.42C654.963 211.602 655.108 210.84 655.398 210.133C655.688 209.419 656.086 208.794 656.592 208.258C657.105 207.715 657.7 207.291 658.377 206.986C659.054 206.681 659.776 206.528 660.542 206.528C661.45 206.528 662.29 206.741 663.064 207.165C663.845 207.589 664.489 208.158 664.995 208.872L662.919 209.999C662.606 209.627 662.242 209.344 661.825 209.151C661.409 208.95 660.981 208.85 660.542 208.85C659.932 208.85 659.378 209.017 658.879 209.352C658.388 209.679 657.998 210.114 657.708 210.657C657.425 211.193 657.284 211.781 657.284 212.42C657.284 213.053 657.429 213.641 657.719 214.184C658.009 214.719 658.4 215.151 658.891 215.478C659.389 215.805 659.939 215.969 660.542 215.969C661.003 215.969 661.442 215.865 661.859 215.657C662.275 215.448 662.629 215.173 662.919 214.831ZM671.591 218.29C670.564 218.29 669.627 218.026 668.779 217.498C667.938 216.97 667.265 216.263 666.759 215.378C666.261 214.485 666.012 213.499 666.012 212.42C666.012 211.602 666.157 210.84 666.447 210.133C666.737 209.419 667.135 208.794 667.641 208.258C668.154 207.715 668.749 207.291 669.426 206.986C670.103 206.681 670.825 206.528 671.591 206.528C672.618 206.528 673.551 206.793 674.392 207.321C675.24 207.849 675.913 208.559 676.412 209.452C676.918 210.345 677.171 211.334 677.171 212.42C677.171 213.231 677.026 213.99 676.735 214.697C676.445 215.404 676.044 216.029 675.53 216.572C675.024 217.107 674.433 217.528 673.756 217.833C673.086 218.138 672.365 218.29 671.591 218.29ZM671.591 215.969C672.209 215.969 672.763 215.805 673.254 215.478C673.745 215.151 674.132 214.719 674.414 214.184C674.704 213.641 674.85 213.053 674.85 212.42C674.85 211.773 674.701 211.178 674.403 210.635C674.113 210.092 673.722 209.66 673.231 209.341C672.74 209.013 672.194 208.85 671.591 208.85C670.981 208.85 670.427 209.013 669.928 209.341C669.437 209.668 669.047 210.103 668.757 210.646C668.474 211.189 668.333 211.781 668.333 212.42C668.333 213.083 668.481 213.681 668.779 214.217C669.077 214.753 669.471 215.18 669.962 215.5C670.46 215.813 671.003 215.969 671.591 215.969ZM678.929 218V206.841H681.25V208.024C681.637 207.563 682.109 207.198 682.667 206.93C683.233 206.662 683.843 206.528 684.497 206.528C685.293 206.528 686.026 206.722 686.696 207.109C687.365 207.488 687.897 207.994 688.291 208.626C688.686 207.994 689.21 207.488 689.865 207.109C690.527 206.722 691.256 206.528 692.052 206.528C692.878 206.528 693.629 206.729 694.306 207.131C694.983 207.533 695.522 208.072 695.924 208.749C696.326 209.426 696.527 210.178 696.527 211.003V218H694.206V211.595C694.206 211.104 694.087 210.654 693.849 210.244C693.61 209.835 693.291 209.504 692.889 209.251C692.487 208.998 692.041 208.872 691.55 208.872C691.059 208.872 690.612 208.991 690.211 209.229C689.809 209.467 689.489 209.791 689.251 210.2C689.013 210.609 688.894 211.074 688.894 211.595V218H686.573V211.595C686.573 211.074 686.454 210.609 686.216 210.2C685.978 209.791 685.654 209.467 685.245 209.229C684.843 208.991 684.397 208.872 683.906 208.872C683.422 208.872 682.976 208.998 682.567 209.251C682.165 209.504 681.845 209.835 681.607 210.244C681.369 210.654 681.25 211.104 681.25 211.595V218H678.929ZM703.41 218.29C702.383 218.29 701.446 218.026 700.598 217.498C699.757 216.97 699.084 216.263 698.578 215.378C698.079 214.485 697.83 213.499 697.83 212.42C697.83 211.602 697.975 210.84 698.265 210.133C698.556 209.419 698.954 208.794 699.459 208.258C699.973 207.715 700.568 207.291 701.245 206.986C701.922 206.681 702.643 206.528 703.41 206.528C704.265 206.528 705.05 206.707 705.764 207.064C706.478 207.414 707.088 207.901 707.594 208.526C708.1 209.143 708.472 209.858 708.71 210.669C708.948 211.472 709.019 212.327 708.922 213.235H700.319C700.415 213.748 700.601 214.213 700.877 214.63C701.159 215.039 701.516 215.363 701.948 215.601C702.387 215.839 702.874 215.962 703.41 215.969C703.975 215.969 704.488 215.828 704.95 215.545C705.418 215.262 705.801 214.872 706.099 214.373L708.454 214.92C708.007 215.91 707.334 216.72 706.434 217.353C705.534 217.978 704.526 218.29 703.41 218.29ZM700.241 211.461H706.579C706.505 210.925 706.315 210.442 706.01 210.01C705.712 209.571 705.337 209.225 704.883 208.972C704.436 208.712 703.945 208.582 703.41 208.582C702.882 208.582 702.391 208.708 701.937 208.961C701.49 209.214 701.118 209.56 700.821 209.999C700.531 210.43 700.337 210.918 700.241 211.461ZM714.117 218.212C713.529 218.175 712.956 218.056 712.399 217.855C711.841 217.654 711.35 217.383 710.926 217.04C710.509 216.691 710.196 216.282 709.988 215.813L711.963 214.965C712.06 215.166 712.227 215.363 712.465 215.556C712.711 215.75 712.997 215.91 713.325 216.036C713.652 216.155 713.994 216.215 714.351 216.215C714.701 216.215 715.025 216.166 715.322 216.069C715.627 215.965 715.876 215.809 716.07 215.601C716.263 215.393 716.36 215.143 716.36 214.853C716.36 214.526 716.248 214.273 716.025 214.094C715.809 213.908 715.538 213.767 715.211 213.67C714.883 213.574 714.556 213.481 714.229 213.391C713.5 213.228 712.83 213.004 712.22 212.722C711.617 212.432 711.138 212.063 710.78 211.617C710.423 211.163 710.245 210.609 710.245 209.954C710.245 209.24 710.438 208.623 710.825 208.102C711.212 207.574 711.718 207.168 712.343 206.886C712.975 206.603 713.648 206.462 714.363 206.462C715.255 206.462 716.074 206.651 716.817 207.031C717.561 207.41 718.131 207.931 718.525 208.593L716.684 209.687C716.572 209.463 716.405 209.262 716.181 209.084C715.958 208.905 715.705 208.764 715.423 208.66C715.14 208.548 714.846 208.485 714.541 208.47C714.162 208.455 713.808 208.5 713.481 208.604C713.161 208.701 712.904 208.857 712.711 209.073C712.518 209.288 712.421 209.564 712.421 209.899C712.421 210.226 712.536 210.471 712.767 210.635C712.997 210.791 713.288 210.918 713.637 211.014C713.994 211.111 714.359 211.219 714.731 211.338C715.393 211.546 716.014 211.803 716.594 212.108C717.175 212.406 717.643 212.774 718 213.213C718.357 213.652 718.529 214.187 718.514 214.82C718.514 215.519 718.302 216.133 717.878 216.661C717.461 217.189 716.918 217.591 716.248 217.866C715.579 218.141 714.868 218.257 714.117 218.212Z" fill="black"/>
<rect x="0.5" y="0.5" width="521.695" height="360.318" rx="180.159" stroke="black"/>
<rect x="166.219" y="3" width="355.32" height="355.318" rx="177.659" stroke="black" stroke-width="6"/>
<rect x="-0.5" y="0.5" width="521.695" height="360.318" rx="180.159" transform="matrix(-1 0 0 1 965.848 0)" stroke="black"/>
<rect x="-3" y="3" width="355.32" height="355.318" rx="177.659" transform="matrix(-1 0 0 1 797.625 0)" stroke="black" stroke-width="6"/>
<path d="M349.52 247.108L344.52 244.222V249.995L349.52 247.108ZM97.6172 247.108L102.617 249.995V244.222L97.6172 247.108ZM345.02 247.108V246.608H102.117V247.108V247.608H345.02V247.108Z" fill="black"/>
<path d="M852.965 247.108L847.965 244.222V249.995L852.965 247.108ZM601.062 247.108L606.062 249.995V244.222L601.062 247.108ZM848.465 247.108V246.608H605.562V247.108V247.608H848.465V247.108Z" fill="black"/>
</svg>
