<svg width="22" height="22" viewBox="0 0 22 22" fill="none" xmlns="http://www.w3.org/2000/svg">
<path fill-rule="evenodd" clip-rule="evenodd" d="M10.5136 21.4368C10.6533 21.4424 10.7942 21.4451 10.9358 21.4451C12.5721 21.4451 14.1216 21.0705 15.5025 20.4022C15.3515 20.2565 15.1878 20.09 15.0112 19.8999C14.0426 18.8568 13.4124 17.5622 13.0643 16.4023C12.8538 15.7009 12.86 14.2499 12.5303 13.0194C12.3887 12.4907 12.1978 11.9963 11.795 11.7318C11.5596 11.577 11.2525 11.5242 10.859 11.5702C9.88163 11.6841 9.56459 12.4024 9.47339 13.2349C9.34747 14.3861 9.60902 15.7484 9.75998 16.7548C9.86398 17.4481 10.0611 18.8205 10.2714 20.2268C10.3425 20.7012 10.429 21.1062 10.5136 21.4368ZM7.18462 20.755C7.70733 20.9548 8.24926 21.1141 8.80709 21.2292C8.75917 20.9944 8.71338 20.74 8.67244 20.4661C8.46211 19.0599 8.26498 17.6879 8.16098 16.9949C7.95433 15.6182 7.61983 13.6546 8.0236 12.2274C8.36083 11.036 9.1288 10.1439 10.6717 9.96399C12.3629 9.76686 13.283 10.5927 13.8096 11.7844C14.1307 12.5112 14.2834 13.4003 14.381 14.2251C14.4625 14.9151 14.4968 15.5509 14.6129 15.9374C14.8973 16.8852 15.4045 17.9474 16.1961 18.7997C16.5054 19.1327 16.7662 19.3742 16.9653 19.5425C17.4212 19.2221 17.8508 18.8667 18.2498 18.4798C18.0278 18.3209 17.8126 18.1567 17.6195 17.9933C16.8263 17.3222 16.3547 16.316 16.1065 15.4892C15.838 14.5945 15.8578 12.5613 15.2359 11.154C14.4408 9.35416 13.0453 8.11722 10.4913 8.41505C8.18018 8.68437 7.02803 10.0183 6.52317 11.8026C6.06371 13.4261 6.38386 15.6607 6.61883 17.2263C6.68111 17.6418 6.77638 18.2949 6.88814 19.0539C6.99156 19.7569 7.09633 20.3258 7.18462 20.755ZM3.56732 18.4266C4.11487 18.9654 4.72141 19.4447 5.37606 19.8539C5.34696 19.6758 5.31766 19.4874 5.28836 19.2893C5.17699 18.5322 5.08192 17.8808 5.01983 17.4662C4.75536 15.7046 4.45035 13.1892 4.96724 11.3626C5.64615 8.96338 7.19665 7.17132 10.304 6.80907C13.7529 6.40704 15.641 8.07026 16.715 10.5005C17.3646 11.971 17.3747 14.0895 17.6552 15.0243C17.8254 15.5914 18.1199 16.2987 18.664 16.7591C18.8648 16.9291 19.0926 17.0998 19.3256 17.2628C19.587 16.9172 19.8274 16.5546 20.0453 16.1772C19.7174 15.8264 19.4242 15.3848 19.184 14.8202C19.1475 14.7344 19.118 14.6547 19.099 14.5908C18.807 13.6185 18.7696 11.4208 18.0938 9.89123C16.7602 6.87329 14.4124 4.8125 10.1294 5.31174C6.27966 5.76053 4.3578 7.97965 3.51687 10.952C3.13483 12.3021 3.14569 13.9975 3.27453 15.548C3.31644 16.0536 3.46856 17.4999 3.56732 18.4266ZM1.68484 15.9242C1.67592 15.8297 1.66854 15.7478 1.66311 15.6817C1.51817 13.9371 1.53117 12.0308 1.96095 10.5117C2.97592 6.92471 5.29612 4.24729 9.94217 3.70576C15.1201 3.10213 17.9605 5.5892 19.5726 9.23774C20.2766 10.8305 20.3437 13.1133 20.6476 14.1259C20.6528 14.1432 20.6621 14.1642 20.672 14.1874C20.7196 14.2992 20.7704 14.4036 20.8243 14.5012C21.2264 13.388 21.4456 12.187 21.4456 10.9353C21.4456 5.13459 16.7363 0.425293 10.9358 0.425293C5.13508 0.425293 0.425781 5.13459 0.425781 10.9353C0.425781 12.7404 0.881945 14.4399 1.68484 15.9242Z" fill="url(#paint0_linear_3284_995)"/>
<defs>
<linearGradient id="paint0_linear_3284_995" x1="12.4262" y1="0.425293" x2="11.5265" y2="34.0586" gradientUnits="userSpaceOnUse">
<stop stop-color="#9FF8BE"/>
<stop offset="0.484375" stop-color="#EAFFE2"/>
<stop offset="1" stop-color="#F8EDBA"/>
</linearGradient>
</defs>
</svg>
