<svg width="242" height="42" viewBox="0 0 242 42" fill="none" xmlns="http://www.w3.org/2000/svg">
<path d="M11.1122 34.5538C9.98979 32.1978 8.86735 29.8419 7.85714 27.2616C6.73469 24.7935 5.72449 22.2132 4.82653 19.8572C3.81633 17.3891 2.91837 15.0332 2.13265 12.7894C1.34694 10.5457 0.561224 8.52634 0 6.73134H6.95918C7.52041 8.30196 8.08163 10.097 8.64286 11.892C9.31633 13.7991 9.87755 15.5941 10.551 17.3891C11.2245 19.1841 11.898 20.9791 12.4592 22.6619C13.0204 24.3447 13.6939 25.8032 14.2551 27.0372C14.8163 25.8032 15.3776 24.3447 15.9388 22.6619C16.6122 20.9791 17.1735 19.1841 17.8469 17.3891C18.5204 15.5941 19.1939 13.6869 19.7551 11.892C20.4286 9.98477 20.9898 8.30196 21.551 6.73134H28.1735C27.5 8.52634 26.8265 10.5457 26.0408 12.7894C25.2551 15.0332 24.3571 17.3891 23.3469 19.8572C22.3367 22.3254 21.3265 24.7935 20.3163 27.3738C19.3061 29.9541 18.1837 32.31 17.0612 34.666H11.1122V34.5538Z" fill="white"/>
<path d="M63.3061 34.8903C61.5102 34.8903 60.1633 34.666 59.0408 34.3294C57.9184 33.9928 57.1326 33.5441 56.4592 32.871C55.7857 32.1978 55.449 31.5247 55.2245 30.6272C55 29.7297 54.8878 28.72 54.8878 27.5982V4.37541L60.8367 3.36572V26.3641C60.8367 26.925 60.8367 27.3738 60.949 27.8225C60.949 28.2713 61.1735 28.6078 61.398 28.9444C61.6224 29.281 61.9592 29.5053 62.4082 29.6175C62.8571 29.8419 63.4184 29.9541 64.0918 29.9541L63.1939 34.8903H63.3061Z" fill="white"/>
<path d="M69.0306 8.18977L74.9796 7.18009V13.3504H82.1633V18.2866H74.9796V25.691C74.9796 26.925 75.2041 27.9347 75.6531 28.72C76.102 29.5053 77 29.8419 78.3469 29.8419C79.6939 29.8419 79.6939 29.8419 80.3673 29.6175C81.0408 29.5053 81.7143 29.281 82.2755 29.1688L83.1735 33.7685C82.5 34.105 81.602 34.3294 80.8163 34.5538C79.9184 34.7781 78.7959 34.8903 77.5612 34.8903C76.3265 34.8903 74.5306 34.666 73.5204 34.2172C72.398 33.7685 71.6122 33.2075 70.9388 32.4222C70.2653 31.6369 69.8163 30.6272 69.5918 29.5053C69.3673 28.3835 69.2551 27.1494 69.2551 25.8032V8.07759L69.0306 8.18977Z" fill="white"/>
<path d="M105.286 25.13C105.286 26.4763 105.173 27.8225 104.837 28.9444C104.5 30.1785 103.939 31.1882 103.265 32.0857C102.48 32.9832 101.469 33.6563 100.122 34.2172C98.7755 34.7781 97.2041 35.0025 95.1837 35.0025C93.1633 35.0025 91.8163 34.7781 90.4694 34.3294C89.1224 33.8806 88.1122 33.3197 87.2143 32.7588L89.3469 27.9347C90.1326 28.3835 90.9184 28.8322 91.8163 29.1688C92.7143 29.5053 93.6122 29.7297 94.7347 29.7297C96.3061 29.7297 97.3163 29.3932 97.9898 28.6078C98.6633 27.8225 99 26.5885 99 24.7935V6.61915H105.286V25.13Z" fill="white"/>
<path d="M130.653 23.896C130.653 25.5788 130.429 27.0372 129.98 28.4957C129.531 29.8419 128.857 31.076 127.847 31.9735C126.949 32.9832 125.827 33.6563 124.592 34.2172C123.357 34.7781 121.898 35.0025 120.327 35.0025C118.755 35.0025 117.408 34.7781 116.061 34.2172C114.827 33.6563 113.704 32.9832 112.806 31.9735C111.908 30.9638 111.235 29.8419 110.673 28.4957C110.112 27.1494 109.888 25.5788 109.888 23.896C109.888 22.2132 110.112 20.7547 110.673 19.4085C111.235 18.0622 111.908 16.8282 112.806 15.9307C113.704 14.921 114.827 14.2479 116.061 13.6869C117.296 13.126 118.755 12.9016 120.214 12.9016C121.673 12.9016 123.133 13.126 124.367 13.6869C125.602 14.2479 126.724 14.921 127.622 15.9307C128.52 16.9404 129.194 18.0622 129.755 19.4085C130.316 20.7547 130.541 22.3254 130.541 23.896H130.653ZM124.592 23.896C124.592 22.101 124.255 20.6426 123.469 19.5207C122.684 18.511 121.673 17.9501 120.327 17.9501C118.98 17.9501 117.857 18.511 117.184 19.5207C116.398 20.5304 116.061 21.9888 116.061 23.896C116.061 25.8032 116.398 27.2616 117.184 28.2713C117.969 29.3932 118.98 29.8419 120.327 29.8419C121.673 29.8419 122.796 29.281 123.469 28.2713C124.255 27.1494 124.592 25.691 124.592 23.896Z" fill="white"/>
<path d="M153.327 33.7685C152.316 34.105 150.969 34.3294 149.398 34.5538C147.827 34.7781 146.143 34.8903 144.347 34.8903C142.551 34.8903 141.092 34.666 139.857 34.2172C138.622 33.7685 137.724 33.0953 137.051 32.1978C136.378 31.3003 135.816 30.2907 135.592 29.0566C135.255 27.8225 135.143 26.4763 135.143 25.13V13.3504H141.092V24.3447C141.092 26.2519 141.316 27.7104 141.878 28.4957C142.439 29.3932 143.337 29.7297 144.684 29.7297C146.031 29.7297 145.582 29.7297 146.031 29.7297C146.48 29.7297 146.929 29.7297 147.265 29.6175V13.3504H153.214V33.7685H153.327Z" fill="white"/>
<path d="M171.622 18.7354C171.061 18.6232 170.5 18.511 169.714 18.2866C169.041 18.1744 168.255 18.0623 167.357 18.0623C166.459 18.0623 166.571 18.0623 166.01 18.0623C165.449 18.0623 165.112 18.1744 164.775 18.2866V34.4416H158.827V14.4723C159.949 14.1357 161.184 13.7991 162.643 13.4626C164.102 13.126 165.673 13.0138 167.469 13.0138C169.265 13.0138 168.143 13.0138 168.592 13.0138C169.041 13.0138 169.49 13.0138 169.939 13.126C170.388 13.126 170.837 13.2382 171.286 13.3504C171.735 13.3504 172.184 13.5748 172.408 13.6869L171.398 18.6232L171.622 18.7354Z" fill="white"/>
<path d="M175.888 14.1357C176.898 13.7991 178.245 13.5748 179.816 13.3504C181.388 13.126 183.071 13.0138 184.867 13.0138C186.663 13.0138 188.122 13.2382 189.357 13.6869C190.592 14.1357 191.49 14.8088 192.163 15.7063C192.837 16.6038 193.398 17.6135 193.622 18.7354C193.959 19.8572 194.071 21.2035 194.071 22.6619V34.5538H188.122V23.335C188.122 21.4279 187.898 20.0816 187.337 19.2963C186.776 18.511 185.878 18.0623 184.531 18.0623C183.184 18.0623 183.633 18.0623 183.184 18.0623C182.735 18.0623 182.286 18.0623 181.949 18.1744V34.4416H176V14.0235L175.888 14.1357Z" fill="white"/>
<path d="M198.561 24.1204C198.561 22.2132 198.898 20.6426 199.459 19.1841C200.02 17.7257 200.806 16.6038 201.704 15.7063C202.602 14.8088 203.724 14.0235 204.959 13.5748C206.194 13.126 207.429 12.9016 208.663 12.9016C211.694 12.9016 214.051 13.7991 215.735 15.5941C217.418 17.3891 218.316 20.0816 218.316 23.6716C218.316 27.2616 218.316 24.3447 218.316 24.7935C218.316 25.2422 218.316 25.5788 218.316 25.9154H204.735C204.847 27.1494 205.408 28.1591 206.418 28.8322C207.429 29.5053 208.775 29.9541 210.459 29.9541C212.143 29.9541 212.592 29.9541 213.714 29.6175C214.837 29.281 215.622 29.1688 216.296 28.8322L217.082 33.6563C216.745 33.7685 216.296 33.9928 215.847 34.105C215.286 34.2172 214.724 34.4416 214.051 34.5538C213.378 34.666 212.704 34.7781 211.918 34.8903C211.133 34.8903 210.459 35.0025 209.673 35.0025C207.765 35.0025 206.082 34.666 204.735 34.105C203.276 33.5441 202.153 32.7588 201.255 31.7491C200.357 30.7394 199.684 29.6175 199.235 28.2713C198.786 26.925 198.561 25.4666 198.561 23.896V24.1204ZM212.592 21.8766C212.592 21.3157 212.48 20.8669 212.367 20.4182C212.255 19.9694 212.031 19.5207 211.694 19.1841C211.357 18.8476 211.02 18.511 210.571 18.2866C210.122 18.0622 209.561 17.9501 208.775 17.9501C207.99 17.9501 207.541 18.0622 207.092 18.2866C206.643 18.511 206.194 18.8476 205.857 19.1841C205.52 19.5207 205.296 19.9694 205.071 20.5304C204.847 20.9791 204.735 21.5401 204.735 21.9888H212.592V21.8766Z" fill="white"/>
<path d="M241.776 13.3504C240.541 17.3891 239.306 21.2035 237.959 24.7935C236.612 28.3835 235.153 31.7491 233.694 35.1147C233.133 36.3488 232.571 37.3585 232.01 38.1438C231.449 39.0413 230.775 39.7144 230.214 40.2753C229.653 40.8363 228.755 41.1728 227.969 41.5094C227.071 41.7338 226.173 41.8459 225.051 41.8459C223.929 41.8459 223.255 41.8459 222.469 41.6216C221.684 41.3972 221.01 41.285 220.561 41.0606L221.571 36.2366C222.133 36.461 222.694 36.5731 223.255 36.6853C223.704 36.6853 224.265 36.7975 224.827 36.7975C225.949 36.7975 226.735 36.461 227.296 35.9C227.857 35.3391 228.306 34.5538 228.755 33.5441C227.408 30.8516 226.061 27.8225 224.602 24.5691C223.255 21.2035 221.908 17.5013 220.786 13.3504H227.184C227.408 14.3601 227.745 15.4819 228.082 16.716C228.418 17.9501 228.867 19.1841 229.204 20.4182C229.541 21.6522 229.99 22.8863 230.439 24.0082C230.888 25.13 231.224 26.2519 231.673 27.2616C232.01 26.2519 232.347 25.2422 232.796 24.0082C233.133 22.8863 233.582 21.6522 233.918 20.4182C234.255 19.1841 234.592 17.9501 234.929 16.716C235.265 15.4819 235.602 14.3601 235.827 13.3504H242H241.776Z" fill="white"/>
<path fill-rule="evenodd" clip-rule="evenodd" d="M31.0446 16.2842C30.5012 17.0825 29.9579 17.8808 29.5504 18.8121C29.007 20.1426 28.7354 21.7392 28.7354 23.4689C28.7354 25.1985 29.007 26.662 29.5504 28.1256C30.0937 29.4561 30.7729 30.6535 31.7238 31.7179C32.6746 32.6493 33.7613 33.4476 35.1197 33.9797C36.4781 34.5119 37.9723 34.778 39.4665 34.778C40.9607 34.778 42.5908 34.5119 43.8133 33.9797C45.1717 33.4476 46.2584 32.6493 47.2093 31.7179C48.1601 30.6535 48.8393 29.4561 49.3827 28.1256C49.7902 27.0612 49.926 25.9968 50.0619 24.9324L43.6775 22.1384C43.6775 22.5375 43.6775 23.0697 43.6775 23.6019C43.6775 25.4646 43.27 26.9281 42.455 28.1256C41.6399 29.19 40.6891 29.7222 39.1949 29.7222C37.7006 29.7222 36.7498 29.19 35.9348 28.1256C35.1197 27.0612 34.7122 25.4646 34.7122 23.6019C34.7122 21.7392 35.1197 20.2757 35.9348 19.2113C35.9348 19.2113 36.0706 18.9452 36.2064 18.9452L30.6371 16.4172L31.0446 16.2842Z" fill="#06BFBF"/>
<path d="M47.7526 12.2927C48.1601 11.7605 47.7526 10.8292 47.0734 10.8292H42.8625C42.5908 10.8292 42.3191 10.6961 42.0475 10.5631C41.7758 10.297 41.7758 10.0309 41.7758 9.76479L43.8133 0.318293C43.8133 0.0521946 43.5417 -0.0808531 43.4058 0.0521961L34.1689 13.4902C33.7613 14.0224 34.1689 14.9537 34.8481 14.9537H39.059C39.3307 14.9537 39.6024 15.0868 39.8741 15.2198C40.1457 15.4859 40.1457 15.752 40.1457 16.0181L38.244 25.4646C38.244 25.7307 38.5157 25.8637 38.6515 25.7307L47.7526 12.2927Z" fill="#06BFBF"/>
</svg>
