<svg width="381" height="167" viewBox="0 0 381 167" fill="none" xmlns="http://www.w3.org/2000/svg">
<rect x="0.5" y="0.5" width="378" height="166" rx="37.5" stroke="black"/>
<g filter="url(#filter0_d_3837_13036)">
<g clip-path="url(#clip0_3837_13036)">
<path d="M57.2835 99.4949C55.9249 96.6432 54.5663 93.7915 53.3435 90.6683C51.9848 87.6808 50.7621 84.5575 49.6752 81.7059C48.4524 78.7184 47.3655 75.8667 46.4144 73.1508C45.4634 70.435 44.5123 67.9907 43.833 65.818H52.2566C52.9359 67.7191 53.6152 69.8918 54.2945 72.0645C55.1097 74.373 55.789 76.5457 56.6042 78.7184C57.4194 80.8911 58.2346 83.0638 58.9139 85.1007C59.5932 87.1376 60.4084 88.903 61.0877 90.3967C61.767 88.903 62.4464 87.1376 63.1257 85.1007C63.9409 83.0638 64.6202 80.8911 65.4354 78.7184C66.2505 76.5457 67.0657 74.2372 67.7451 72.0645C68.5602 69.756 69.2396 67.7191 69.9189 65.818H77.9348C77.1197 67.9907 76.3045 70.435 75.3534 73.1508C74.4024 75.8667 73.3155 78.7184 72.0927 81.7059C70.8699 84.6933 69.6471 87.6808 68.4244 90.8041C67.2016 93.9273 65.843 96.779 64.4843 99.6307H57.2835V99.4949Z" fill="#393939"/>
<path d="M120.46 99.9023C118.286 99.9023 116.656 99.6307 115.297 99.2233C113.939 98.8159 112.988 98.2728 112.173 97.458C111.357 96.6432 110.95 95.8285 110.678 94.7421C110.406 93.6558 110.27 92.4336 110.27 91.0757V62.9663L117.471 61.7441V89.5819C117.471 90.2609 117.471 90.8041 117.607 91.3473C117.607 91.8904 117.879 92.2978 118.151 92.7052C118.422 93.1126 118.83 93.3842 119.373 93.52C119.917 93.7915 120.596 93.9273 121.411 93.9273L120.324 99.9023H120.46Z" fill="#393939"/>
<path d="M127.389 67.5833L134.59 66.3611V73.8298H143.285V79.8048H134.59V88.7672C134.59 90.2609 134.862 91.483 135.405 92.4336C135.949 93.3842 137.036 93.7915 138.666 93.7915C140.296 93.7915 140.296 93.7915 141.112 93.52C141.927 93.3842 142.742 93.1126 143.421 92.9768L144.508 98.5443C143.693 98.9517 142.606 99.2233 141.655 99.4949C140.568 99.7665 139.209 99.9023 137.715 99.9023C136.22 99.9023 134.047 99.6307 132.824 99.0875C131.465 98.5443 130.514 97.8654 129.699 96.9148C128.884 95.9643 128.34 94.7421 128.069 93.3842C127.797 92.0262 127.661 90.5325 127.661 88.903V67.4475L127.389 67.5833Z" fill="#393939"/>
<path d="M171.273 88.0882C171.273 89.7177 171.137 91.3473 170.73 92.7052C170.322 94.1989 169.643 95.4211 168.828 96.5074C167.877 97.5938 166.654 98.4085 165.024 99.0875C163.393 99.7665 161.491 100.038 159.046 100.038C156.6 100.038 154.97 99.7665 153.339 99.2233C151.709 98.6801 150.486 98.0012 149.399 97.3222L151.981 91.483C152.932 92.0262 153.883 92.5694 154.97 92.9768C156.057 93.3842 157.143 93.6558 158.502 93.6558C160.404 93.6558 161.627 93.2484 162.442 92.2978C163.257 91.3473 163.665 89.8535 163.665 87.6808V65.6822H171.273V88.0882Z" fill="#393939"/>
<path d="M201.979 86.5945C201.979 88.6314 201.707 90.3967 201.163 92.162C200.62 93.7915 199.805 95.2853 198.582 96.3716C197.495 97.5938 196.136 98.4085 194.642 99.0875C193.147 99.7665 191.381 100.038 189.479 100.038C187.577 100.038 185.947 99.7665 184.316 99.0875C182.822 98.4085 181.463 97.5938 180.376 96.3716C179.289 95.1495 178.474 93.7915 177.795 92.162C177.115 90.5325 176.844 88.6314 176.844 86.5945C176.844 84.5575 177.115 82.7922 177.795 81.1627C178.474 79.5332 179.289 78.0394 180.376 76.9531C181.463 75.7309 182.822 74.9162 184.316 74.2372C185.811 73.5582 187.577 73.2866 189.343 73.2866C191.109 73.2866 192.876 73.5582 194.37 74.2372C195.865 74.9162 197.223 75.7309 198.31 76.9531C199.397 78.1752 200.212 79.5332 200.892 81.1627C201.571 82.7922 201.843 84.6933 201.843 86.5945H201.979ZM194.642 86.5945C194.642 84.4218 194.234 82.6564 193.283 81.2985C192.332 80.0763 191.109 79.3974 189.479 79.3974C187.849 79.3974 186.49 80.0763 185.675 81.2985C184.724 82.5206 184.316 84.286 184.316 86.5945C184.316 88.903 184.724 90.6683 185.675 91.8904C186.626 93.2484 187.849 93.7915 189.479 93.7915C191.109 93.7915 192.468 93.1126 193.283 91.8904C194.234 90.5325 194.642 88.7672 194.642 86.5945Z" fill="#393939"/>
<path d="M229.423 98.5443C228.2 98.9517 226.57 99.2233 224.668 99.4949C222.766 99.7665 220.728 99.9023 218.554 99.9023C216.38 99.9023 214.614 99.6307 213.119 99.0875C211.625 98.5443 210.538 97.7296 209.723 96.6432C208.908 95.5569 208.228 94.3347 207.957 92.841C207.549 91.3473 207.413 89.7177 207.413 88.0882V73.8298H214.614V87.1376C214.614 89.4461 214.886 91.2115 215.565 92.162C216.244 93.2484 217.331 93.6558 218.962 93.6558C220.592 93.6558 220.048 93.6558 220.592 93.6558C221.135 93.6558 221.679 93.6558 222.086 93.52V73.8298H229.287V98.5443H229.423Z" fill="#393939"/>
<path d="M251.569 80.3479C250.89 80.2121 250.21 80.0763 249.259 79.8048C248.444 79.669 247.493 79.5332 246.406 79.5332C245.319 79.5332 245.455 79.5332 244.776 79.5332C244.096 79.5332 243.689 79.669 243.281 79.8048V99.3591H236.08V75.1878C237.439 74.7804 238.934 74.373 240.7 73.9656C242.466 73.5582 244.368 73.4224 246.542 73.4224C248.716 73.4224 247.357 73.4224 247.901 73.4224C248.444 73.4224 248.987 73.4224 249.531 73.5582C250.074 73.5582 250.618 73.694 251.161 73.8298C251.705 73.8298 252.248 74.1014 252.52 74.2372L251.297 80.2121L251.569 80.3479Z" fill="#393939"/>
<path d="M256.732 74.7804C257.955 74.373 259.585 74.1014 261.487 73.8298C263.389 73.5582 265.427 73.4224 267.601 73.4224C269.775 73.4224 271.541 73.694 273.035 74.2372C274.53 74.7804 275.617 75.5951 276.432 76.6815C277.247 77.7678 277.926 78.99 278.198 80.3479C278.606 81.7059 278.742 83.3354 278.742 85.1007V99.4949H271.541V85.9155C271.541 83.607 271.269 81.9775 270.59 81.0269C269.911 80.0763 268.824 79.5332 267.193 79.5332C265.563 79.5332 266.106 79.5332 265.563 79.5332C265.019 79.5332 264.476 79.5332 264.068 79.669V99.3591H256.868V74.6446L256.732 74.7804Z" fill="#393939"/>
<path d="M284.176 86.866C284.176 84.5575 284.584 82.6564 285.263 80.8911C285.942 79.1258 286.894 77.7678 287.98 76.6815C289.067 75.5951 290.426 74.6446 291.92 74.1014C293.415 73.5582 294.909 73.2866 296.404 73.2866C300.072 73.2866 302.925 74.373 304.963 76.5457C307.001 78.7184 308.088 81.9775 308.088 86.3229C308.088 90.6683 308.088 87.1376 308.088 87.6808C308.088 88.224 308.088 88.6314 308.088 89.0388H291.649C291.785 90.5325 292.464 91.7546 293.687 92.5694C294.909 93.3842 296.54 93.9273 298.578 93.9273C300.616 93.9273 301.159 93.9273 302.518 93.52C303.876 93.1126 304.828 92.9768 305.643 92.5694L306.594 98.4085C306.186 98.5443 305.643 98.8159 305.099 98.9517C304.42 99.0875 303.741 99.3591 302.925 99.4949C302.11 99.6307 301.295 99.7665 300.344 99.9023C299.393 99.9023 298.578 100.038 297.627 100.038C295.317 100.038 293.279 99.6307 291.649 98.9517C289.883 98.2728 288.524 97.3222 287.437 96.1C286.35 94.8779 285.535 93.52 284.991 91.8904C284.448 90.2609 284.176 88.4956 284.176 86.5945V86.866ZM301.159 84.1502C301.159 83.4712 301.023 82.928 300.887 82.3848C300.752 81.8417 300.48 81.2985 300.072 80.8911C299.665 80.4837 299.257 80.0763 298.714 79.8048C298.17 79.5332 297.491 79.3974 296.54 79.3974C295.589 79.3974 295.045 79.5332 294.502 79.8048C293.958 80.0763 293.415 80.4837 293.007 80.8911C292.6 81.2985 292.328 81.8417 292.056 82.5206C291.785 83.0638 291.649 83.7428 291.649 84.286H301.159V84.1502Z" fill="#393939"/>
<path d="M336.484 73.8298C334.989 78.7184 333.495 83.3354 331.864 87.6808C330.234 92.0262 328.468 96.1 326.702 100.174C326.022 101.668 325.343 102.89 324.664 103.84C323.984 104.927 323.169 105.741 322.49 106.42C321.811 107.099 320.724 107.507 319.773 107.914C318.686 108.186 317.599 108.322 316.24 108.322C314.881 108.322 314.066 108.322 313.115 108.05C312.164 107.778 311.349 107.643 310.806 107.371L312.028 101.532C312.708 101.803 313.387 101.939 314.066 102.075C314.61 102.075 315.289 102.211 315.968 102.211C317.327 102.211 318.278 101.803 318.957 101.124C319.637 100.445 320.18 99.4949 320.724 98.2728C319.093 95.0137 317.463 91.3473 315.697 87.4092C314.066 83.3354 312.436 78.8542 311.077 73.8298H318.822C319.093 75.052 319.501 76.4099 319.908 77.9036C320.316 79.3974 320.859 80.8911 321.267 82.3848C321.675 83.8786 322.218 85.3723 322.762 86.7303C323.305 88.0882 323.713 89.4461 324.256 90.6683C324.664 89.4461 325.071 88.224 325.615 86.7303C326.022 85.3723 326.566 83.8786 326.973 82.3848C327.381 80.8911 327.789 79.3974 328.196 77.9036C328.604 76.4099 329.011 75.052 329.283 73.8298H336.756H336.484Z" fill="#393939"/>
<path fill-rule="evenodd" clip-rule="evenodd" d="M81.4104 77.3817C80.7527 78.348 80.095 79.3142 79.6018 80.4416C78.9441 82.052 78.6152 83.9846 78.6152 86.0782C78.6152 88.1718 78.9441 89.9433 79.6018 91.7148C80.2594 93.3252 81.0816 94.7746 82.2325 96.063C83.3835 97.1903 84.6988 98.1566 86.343 98.8008C87.9872 99.445 89.7959 99.7671 91.6045 99.7671C93.4131 99.7671 95.3862 99.445 96.866 98.8008C98.5102 98.1566 99.8256 97.1903 100.977 96.063C102.127 94.7746 102.95 93.3252 103.607 91.7148C104.101 90.4264 104.265 89.138 104.429 87.8497L96.7016 84.4677C96.7016 84.9508 96.7016 85.595 96.7016 86.2392C96.7016 88.4939 96.2083 90.2654 95.2218 91.7148C94.2352 93.0031 93.0843 93.6473 91.2757 93.6473C89.467 93.6473 88.3161 93.0031 87.3296 91.7148C86.343 90.4264 85.8498 88.4939 85.8498 86.2392C85.8498 83.9846 86.343 82.2131 87.3296 80.9247C87.3296 80.9247 87.494 80.6026 87.6584 80.6026L80.9171 77.5427L81.4104 77.3817Z" fill="#06BFBF"/>
<path d="M101.634 72.5503C102.127 71.9061 101.634 70.7788 100.812 70.7788H95.715C95.3862 70.7788 95.0574 70.6178 94.7285 70.4567C94.3997 70.1346 94.3997 69.8125 94.3997 69.4904L96.866 58.0562C96.866 57.7341 96.5372 57.573 96.3727 57.7341L85.1921 73.9997C84.6988 74.6439 85.1921 75.7712 86.0142 75.7712H91.1112C91.4401 75.7712 91.7689 75.9323 92.0978 76.0933C92.4266 76.4154 92.4266 76.7375 92.4266 77.0596L90.1247 88.4938C90.1247 88.8159 90.4536 88.977 90.618 88.8159L101.634 72.5503Z" fill="#06BFBF"/>
</g>
</g>
<defs>
<filter id="filter0_d_3837_13036" x="-1.30048" y="3.63593" width="381.601" height="166.775" filterUnits="userSpaceOnUse" color-interpolation-filters="sRGB">
<feFlood flood-opacity="0" result="BackgroundImageFix"/>
<feColorMatrix in="SourceAlpha" type="matrix" values="0 0 0 0 0 0 0 0 0 0 0 0 0 0 0 0 0 0 127 0" result="hardAlpha"/>
<feOffset dy="3.93641"/>
<feGaussianBlur stdDeviation="21.6502"/>
<feComposite in2="hardAlpha" operator="out"/>
<feColorMatrix type="matrix" values="0 0 0 0 0 0 0 0 0 0 0 0 0 0 0 0 0 0 0.05 0"/>
<feBlend mode="normal" in2="BackgroundImageFix" result="effect1_dropShadow_3837_13036"/>
<feBlend mode="normal" in="SourceGraphic" in2="effect1_dropShadow_3837_13036" result="shape"/>
</filter>
<clipPath id="clip0_3837_13036">
<rect x="42" y="43" width="295" height="80.1742" rx="19.682" fill="white"/>
</clipPath>
</defs>
</svg>
