<svg width="221" height="270" viewBox="0 0 221 270" fill="none" xmlns="http://www.w3.org/2000/svg">
<path d="M214.063 259.671L209.289 269.671H220.836L216.063 259.671H214.063ZM114.459 87.1H113.459V87.1001L114.459 87.1ZM0 2H101.459V0H0V2ZM127.465 179.206H202.063V177.206H127.465V179.206ZM214.063 191.206V260.671H216.063V191.206H214.063ZM113.459 14V87.1H115.459V14H113.459ZM113.459 87.1001L113.465 165.207L115.465 165.207L115.459 87.0999L113.459 87.1001ZM202.063 179.206C208.69 179.206 214.063 184.578 214.063 191.206H216.063C216.063 183.474 209.795 177.206 202.063 177.206V179.206ZM127.465 177.206C120.838 177.206 115.465 171.834 115.465 165.207L113.465 165.207C113.466 172.939 119.733 179.206 127.465 179.206V177.206ZM101.459 2C108.086 2 113.459 7.37258 113.459 14H115.459C115.459 6.26801 109.191 0 101.459 0V2Z" fill="url(#paint0_linear_1012_79)"/>
<circle cx="114.847" cy="100.804" r="22.8896" fill="url(#paint1_linear_1012_79)"/>
<defs>
<linearGradient id="paint0_linear_1012_79" x1="223.574" y1="269.101" x2="14.6057" y2="3.08032" gradientUnits="userSpaceOnUse">
<stop/>
<stop offset="1" stop-color="white"/>
</linearGradient>
<linearGradient id="paint1_linear_1012_79" x1="118.093" y1="77.9141" x2="118.093" y2="117.954" gradientUnits="userSpaceOnUse">
<stop stop-color="#9FF8BE"/>
<stop offset="1" stop-color="#F8EDBA"/>
</linearGradient>
</defs>
</svg>
