<svg width="74" height="20" viewBox="0 0 74 20" fill="none" xmlns="http://www.w3.org/2000/svg">
<circle cx="37" cy="10" r="9.5" stroke="white"/>
<circle cx="37" cy="10" r="4.5" stroke="white"/>
<path d="M68.3333 11C68.3333 12.4728 69.5272 13.6667 71 13.6667C72.4728 13.6667 73.6667 12.4728 73.6667 11C73.6667 9.52724 72.4728 8.33333 71 8.33333C69.5272 8.33333 68.3333 9.52724 68.3333 11ZM47 11.5H71V10.5H47V11.5Z" fill="white"/>
<path d="M5.66667 11C5.66667 12.4728 4.47276 13.6667 3 13.6667C1.52724 13.6667 0.333332 12.4728 0.333332 11C0.333332 9.52724 1.52724 8.33333 3 8.33333C4.47276 8.33333 5.66667 9.52724 5.66667 11ZM27 11.5H3V10.5H27V11.5Z" fill="white"/>
</svg>
